<svg width="1134" height="1134" viewBox="0 0 1134 1134" fill="none" xmlns="http://www.w3.org/2000/svg">
<g clip-path="url(#clip0_190_3717)">
<g opacity="0.08">
<path d="M708.01 702.542C746.179 702.542 783.948 707.195 819.59 717.786L821.349 718.314C895.711 740.856 956.131 785.909 1017.5 829.715C1054.89 856.398 1092.62 882.605 1134 902.822V905.78C1091.7 885.452 1053.32 858.961 1015.91 832.27L1003.76 823.576C946.978 782.815 887.978 740.565 817.709 719.67C784.238 709.731 747.295 704.676 707.886 704.676C689.763 704.676 671.096 705.745 652.192 707.884L648.409 708.326C531.87 722.269 428.806 773.932 365.613 850.158C326.99 896.797 311.379 946.997 297.585 991.033C289.239 1017.69 282.082 1040.44 271.262 1057.98L271.261 1057.98C261.135 1074.43 238.053 1099.83 205.978 1121.11C199.154 1125.64 191.929 1129.98 184.341 1134H178.869C187.084 1129.8 194.897 1125.2 202.253 1120.37C233.639 1099.78 256.835 1074.85 267.597 1057.51L267.599 1057.51C274.777 1045.88 280.368 1031.7 285.689 1015.9C288.352 1007.99 290.955 999.644 293.655 990.988C296.357 982.328 299.159 973.35 302.227 964.144C314.495 927.324 330.99 886.953 362.08 849.459L363.615 847.622C428.952 770.068 534.095 719.934 647.772 706.265H647.774C667.733 703.845 687.936 702.542 708.01 702.542Z" fill="white"/>
<path d="M742.321 770.952C778.383 770.952 814.166 775.139 847.944 784.893H847.946C919.397 805.438 977.74 847.065 1036.99 887.526C1068.4 908.978 1100.05 930.094 1134 947.466V950.284C1094.88 930.578 1058.95 905.98 1023.62 881.795L1013.39 874.805C962.544 840.111 909.545 805.272 847.727 787.131L846.166 786.677C814.561 777.486 779.486 772.898 742.321 772.898C724.11 772.898 705.28 774.022 686.204 776.269C575.648 789.089 477.317 836.447 416.483 906.218C379.472 948.554 363.606 994.549 349.563 1034.85L349.562 1034.86C340.966 1059.74 333.566 1081.09 322.631 1097.51L322.629 1097.51C315.39 1108.44 304.134 1121.31 289.718 1134H285.052C300.317 1120.75 311.907 1107.48 318.789 1097.12L318.79 1097.12C325.942 1086.31 331.638 1073.18 337.093 1058.57C339.822 1051.26 342.499 1043.55 345.269 1035.57C348.04 1027.58 350.906 1019.3 354.02 1010.83C366.473 976.922 382.868 939.859 412.775 905.577C475.751 833.405 576.687 786.963 685.429 774.302L685.43 774.303C704.276 772.162 723.364 770.952 742.321 770.952Z" fill="white"/>
<path d="M776.756 839.269C810.705 839.269 844.507 843.176 876.43 852.001C944.037 870.686 999.806 908.545 1056.44 945.34C1081.75 961.788 1107.24 978.017 1134 992.171V995.078C1102.47 978.634 1072.88 959.377 1043.73 940.387C991.8 906.528 937.906 871.393 874.867 853.962H874.865C844.886 845.709 811.931 841.495 776.88 841.495C759.666 841.495 741.958 842.525 724.008 844.49L724.005 844.491C619.43 856.188 525.831 899.147 467.231 962.558L467.23 962.559C434.164 998.387 417.819 1037.27 404.229 1072.2L401.545 1079.14C393.226 1100.65 386.047 1119.21 376.235 1134H371.987C378.263 1124.59 383.52 1113.49 388.599 1101.3C394.14 1087.99 399.619 1072.97 405.887 1057.59C418.509 1026.6 434.807 992.818 463.592 961.701C524.452 895.858 620.302 853.882 723.219 842.339C740.948 840.384 758.917 839.269 776.756 839.269Z" fill="white"/>
<path d="M811.066 907.585C842.91 907.585 874.727 911.028 904.787 919.015H904.789C968.617 935.886 1021.81 969.956 1075.83 1003.06C1094.96 1014.78 1114.18 1026.38 1134 1037.02V1040.19C1109.75 1027.32 1086.53 1013.06 1063.59 998.976C1014.91 969.043 964.344 937.978 906.097 922.086L903.316 921.341C875.081 913.837 844.121 910.092 811.191 910.092C795.098 910.092 778.386 911.029 761.557 912.807H761.554C663.856 923.298 575.614 961.432 519.189 1017.65L517.862 1018.98C484.203 1052.99 467.824 1090.56 453.408 1123.5C451.835 1127.09 450.299 1130.59 448.78 1134H444.342C448.553 1124.54 452.849 1114.43 457.546 1104.13C470.353 1076.04 486.551 1045.55 514.152 1017.64L514.151 1017.64C572.898 958.309 663.665 920.709 760.755 910.283L760.754 910.282C777.486 908.514 794.34 907.585 811.066 907.585Z" fill="white"/>
<path d="M845.253 976.182C875.112 976.182 904.823 979.252 933.027 986.31L933.029 986.311C993.08 1001.28 1043.73 1031.53 1095.16 1060.95C1108.01 1068.3 1120.9 1075.59 1134 1082.58V1085.46C1116.77 1076.36 1099.97 1066.73 1083.31 1057.19C1036.23 1030.23 987.32 1002.22 931.519 988.253L931.516 988.252L929.025 987.646C903.219 981.479 875.104 978.315 845.253 978.315C831.216 978.315 816.636 979.055 801.925 980.459L798.981 980.749C706.375 990.106 622.25 1024.45 568.25 1075.04C548.107 1093.89 534.051 1114.21 522.735 1134H518.449C529.896 1113.92 544.188 1093.24 564.706 1074.05L566.038 1072.82C622.679 1020.62 707.738 987.745 798.289 978.601L801.217 978.312C815.857 976.917 830.502 976.182 845.253 976.182Z" fill="white"/>
<path d="M879.688 1044.59C907.438 1044.59 935.044 1047.29 961.519 1053.42C1017.79 1066.57 1065.91 1093.04 1114.74 1118.77C1121.14 1122.14 1127.55 1125.5 1134 1128.81V1132.08C1123.62 1126.78 1113.36 1121.36 1103.16 1115.96L1103.16 1115.96C1058.56 1092.46 1012.27 1067.91 959.964 1055.72C935.099 1049.91 908.007 1047 879.439 1047C865.47 1047 851.002 1047.66 836.409 1049.06C749.79 1057.3 670.408 1087.34 618.649 1131.55C617.695 1132.36 616.754 1133.18 615.826 1134H611.263C612.646 1132.75 614.057 1131.51 615.5 1130.28L615.501 1130.28C670.024 1083.69 750.629 1054.83 836.071 1046.73H836.073C850.573 1045.34 865.071 1044.59 879.688 1044.59Z" fill="white"/>
<path d="M914.123 1113.09C939.891 1113.09 965.517 1115.42 990.136 1120.71C1006.24 1124.18 1021.69 1128.73 1036.72 1134H1027.51C1014.96 1129.84 1002.11 1126.23 988.902 1123.38C965.913 1118.41 940.694 1115.88 914.247 1115.88C901.276 1115.88 887.929 1116.44 874.456 1117.66C842.492 1120.47 811.916 1126.01 783.524 1134H772.973C804.712 1124.36 838.861 1117.93 873.846 1114.86L873.847 1114.86C887.112 1113.75 900.621 1113.09 914.123 1113.09Z" fill="white"/>
<path d="M673.948 634.039C714.103 634.039 753.857 639.063 791.357 650.585C870.312 674.853 933.744 724.089 998.198 771.929C1041.39 803.984 1085.02 835.401 1134 858.03V860.284C1084.47 837.649 1040.41 806.158 997.55 774.394L984.883 764.982C925.62 720.864 864.131 675.058 790.249 652.384C755.031 641.508 716.095 636.079 674.57 636.079C654.244 636.079 633.048 637.389 611.855 640.01C489.213 655.168 381.419 711.135 315.991 793.812C275.63 844.751 259.53 901.582 246.729 947.018C238.631 975.361 231.843 999.512 221.018 1018.17C211.272 1034.96 187.209 1061.99 152.925 1084.81C118.664 1107.62 74.3198 1126.15 24.0342 1126.15H19.9629C13.4552 1126.01 6.78485 1125.7 0 1125.23V1123.32C6.6744 1123.77 13.2386 1124.07 19.6523 1124.2H23.5361C70.9528 1124.2 113.843 1106.95 147.533 1085.08C181.201 1063.22 205.816 1036.67 216.651 1017.9C223.888 1005.4 229.406 990.159 234.621 973.138C237.23 964.621 239.771 955.633 242.414 946.303C245.058 936.967 247.806 927.283 250.835 917.349C262.95 877.614 279.541 833.956 311.754 793.248C379.088 708.13 490.082 652.936 610.484 638.041C631.435 635.435 652.756 634.039 673.948 634.039Z" fill="white"/>
<path d="M639.638 565.629C681.777 565.629 723.765 571.119 763.004 583.479C845.742 609.561 911.719 662.59 978.77 714.119C1027.68 751.709 1077.15 788.485 1134 813.108V816.019C1071.1 789.2 1017.16 747.617 964.392 706.947C902.643 659.377 838.54 610.016 761.047 585.564L761.045 585.563C724.086 573.94 683.281 568.042 639.513 568.042C618.063 568.042 595.747 569.541 573.438 572.348C444.941 588.629 332.293 648.991 264.632 738.025C222.656 793.174 206.934 854.494 194.259 903.563L194.258 903.57C186.662 933.578 179.99 959.229 169.284 978.908C159.537 996.719 134.95 1025.39 99.3027 1049.61C72.0321 1068.14 38.3582 1084.01 0 1090.43V1087.86C35.4856 1081.63 67.4863 1066.95 93.9316 1049.51C129.123 1026.3 154.616 998.111 165.452 978.199L165.453 978.2C172.718 964.884 178.138 948.596 183.229 930.371C185.777 921.252 188.249 911.621 190.827 901.615C193.407 891.605 196.096 881.213 199.083 870.547C211.028 827.884 227.717 780.917 261.051 737.041L261.052 737.042C330.627 645.494 446.588 585.922 572.821 569.91C594.889 567.118 617.328 565.629 639.638 565.629Z" fill="white"/>
<path d="M605.451 497.312C649.704 497.313 693.677 503.083 734.773 516.372L734.774 516.373C821.297 544.318 889.788 601.21 959.42 656.451C1013.91 699.68 1069.08 741.88 1134 768.001V770.686C1062.84 742.39 1003.1 694.951 944.769 648.538C880.66 597.517 814.067 544.507 733.085 518.371L733.084 518.37C694.381 505.904 651.46 499.539 605.575 499.539C583.835 499.539 561.161 500.944 538.458 503.84L536.261 504.125C401.661 521.529 284.411 586.289 214.393 681.77C170.679 741.404 155.336 807.208 142.91 859.822C135.554 890.932 129.212 917.631 118.914 938.212L118.42 939.188C107.689 960.18 81.0108 990.498 43.4639 1015.57C30.2326 1024.41 15.6684 1032.58 0 1039.46V1036.65C14.5394 1030.11 28.0905 1022.44 40.4531 1014.18C77.196 989.643 103.599 959.836 114.376 938.784C121.668 924.626 126.985 907.286 131.943 887.86C134.424 878.14 136.821 867.87 139.331 857.194C141.842 846.513 144.467 835.419 147.407 824.027C159.167 778.462 175.954 728.209 210.472 681.117C282.289 583.137 403.218 519.096 535.282 501.967H535.285C558.593 498.895 582.023 497.312 605.451 497.312Z" fill="white"/>
<path d="M571.141 428.903C617.502 428.903 663.461 435.139 706.422 449.267C796.792 479.074 867.893 539.785 940.151 598.727C1000.14 647.658 1060.91 695.35 1134 722.627V725.151C1054.28 695.798 988.819 642.293 925.018 590.126L912.498 579.912C849.728 528.789 784.055 477.44 704.75 451.271C664.303 437.962 619.389 431.223 571.39 431.223C548.444 431.223 524.797 432.716 501.018 435.787L498.716 436.089C358.139 454.708 236.035 523.769 163.782 625.698C118.456 689.537 103.243 759.918 91.1885 816.177C84.0906 849.458 77.9082 877.909 67.3145 899.642L67.3125 899.645C57.4911 919.911 33.8014 948.397 0 973.345V969.18C31.3649 945.354 53.6788 918.598 63.1738 899.089L63.1748 899.088C70.4623 884.09 75.6673 865.694 80.4961 845.061C82.9123 834.736 85.2403 823.822 87.6875 812.473C90.1357 801.118 92.7049 789.319 95.6064 777.198C107.212 728.717 124.126 675.174 159.766 624.913C233.699 520.504 359.718 452.084 497.614 433.836L497.615 433.837C522.049 430.671 546.599 428.903 571.141 428.903Z" fill="white"/>
<path d="M537.327 360.307C584.918 360.307 632.12 366.8 676.22 381.367L678.32 382.067C772.538 413.598 846.185 478.081 921.023 540.723C986.353 595.405 1052.58 648.664 1134 676.766V679.312C1045.83 649.281 974.957 589.781 905.889 531.809L905.888 531.808C836.81 473.884 765.118 413.675 676.666 384.077C634.475 369.833 587.692 362.626 537.575 362.626C512.768 362.626 487.217 364.404 461.421 367.959C314.865 387.513 188.034 460.971 113.423 569.533C66.4848 637.855 51.6485 712.714 39.8428 772.61C32.8685 807.391 26.9327 837.244 16.4561 860.007L16.4551 860.008C12.9518 867.634 7.39373 876.524 0 886.036V879.884C5.2955 872.516 9.44758 865.555 12.3418 859.304C19.6571 843.488 24.7666 824.054 29.4727 802.224C34.208 780.256 38.4798 756.157 44.2227 730.347C55.6587 678.95 72.6694 622.096 109.431 568.618C185.607 457.774 316.598 384.792 460.326 365.613L460.328 365.612C485.876 362.167 511.666 360.307 537.327 360.307Z" fill="white"/>
<path d="M503.017 291.99C553.475 291.99 603.406 299.064 649.966 315.054L649.97 315.056C747.973 348.402 824.167 416.681 901.602 483.011C972.272 543.547 1043.96 602.439 1134 630.951V633.514C1036.9 603.185 960.307 537.557 885.888 473.583L885.886 473.582L872.434 462.054C804.981 404.353 734.388 346.394 648.078 317.068C604.147 302.077 555.374 294.403 503.017 294.403C478.018 294.403 452.205 296.159 426.145 299.671L423.622 300.017C271.093 320.693 139.413 398.451 62.5684 513.457C28.588 564.151 11.2838 618.168 0 667.777V650.781C11.36 605.703 28.3738 558.079 58.7217 512.698C137.139 395.327 273.101 317.966 422.663 297.669H422.668C449.33 293.945 476.238 291.99 503.017 291.99Z" fill="white"/>
<path d="M468.83 223.486C521.278 223.486 573.318 230.841 621.738 247.762L621.742 247.763C723.534 283.019 802.276 355.118 882.306 425.137C958.208 491.543 1035.25 556.054 1134 584.657V587.339C1031.45 558.03 951.456 489.84 874.201 422.206L866.381 415.355C792.455 350.528 715.661 283.118 619.987 250.061C574.312 234.134 523.549 226.086 469.079 226.086C442.996 226.086 416.098 227.931 388.953 231.618L386.326 231.98C231.279 253.331 92.3571 336.392 14.0488 454.584L12.21 457.383C7.87856 464.032 3.81557 470.73 0 477.464V469.678C2.64039 465.238 5.38988 460.812 8.25977 456.407C88.9186 332.601 229.85 250.86 385.247 229.445L387.842 229.093C414.661 225.496 441.807 223.486 468.83 223.486Z" fill="white"/>
<path d="M434.768 155.17C489.326 155.17 543.355 162.99 593.64 180.75L593.642 180.751C699.22 217.824 780.509 293.72 863.135 367.427C944.169 439.713 1026.47 509.867 1134 538.284V540.804C1022.75 511.692 937.318 437.622 855.065 364.151L846.999 356.941C770.588 288.569 691.309 217.608 592.028 182.774C544.61 166.005 491.853 157.49 435.141 157.49C407.219 157.49 378.308 159.642 349.156 163.757C209.999 183.175 83.7213 251.187 0 349.671V343.962C85.6023 245.345 211.212 180.595 347.831 161.502L347.835 161.501C376.611 157.404 405.755 155.17 434.768 155.17Z" fill="white"/>
<path d="M400.333 86.8535C457.003 86.8536 513.018 95.0461 565.165 113.737L565.168 113.738C674.597 152.675 758.464 232.37 843.701 309.753C928.849 387.054 1015.35 462.025 1129.81 490.734C1131.21 491.087 1132.6 491.429 1134 491.766V494.035C1132.14 493.594 1130.28 493.144 1128.43 492.679L1128.43 492.678L1125.59 491.953C1005.36 460.875 914.863 378.484 826.87 298.434C748.589 227.17 667.482 153.259 565.722 116.351L563.314 115.485C514.153 97.8749 459.282 88.9864 400.457 88.9863C371.417 88.9863 341.262 91.2321 311.114 95.5342L307.175 96.1035C190.045 113.433 82.1638 164.421 0 238.813V234.454C84.1021 159.383 193.162 110.029 310.167 93.4648H310.17C339.94 89.1811 370.202 86.8535 400.333 86.8535Z" fill="white"/>
<path d="M366.022 18.3506C424.678 18.3507 482.806 27.0086 536.817 46.5391L536.819 46.54C650.036 87.2941 736.451 170.763 824.283 251.822C912.025 332.798 1001.17 411.345 1119.62 441.456C1124.4 442.673 1129.19 443.796 1134 444.835V447.096C1128.69 445.963 1123.44 444.734 1118.25 443.402L1118.24 443.401L1115.3 442.644C994.938 411.164 903.605 329.247 815.681 247.946L807.113 240.019C725.853 164.741 641.475 86.6765 534.976 48.291C484.073 29.8397 427.336 20.4834 366.271 20.4834C336.114 20.4834 304.965 22.7285 273.692 27.3115C172.533 41.8161 78.0381 80.8371 0 138.158V134.044C78.5562 77.205 172.687 39.5405 272.503 25.2412C303.516 20.7708 334.773 18.3506 366.022 18.3506Z" fill="white"/>
<path d="M556.474 0C650.703 46.6528 727.306 121.334 804.99 194.138C895.327 278.799 987.111 360.897 1109.54 392.363C1117.66 394.463 1125.82 396.304 1134 397.901V400.005C1125.42 398.349 1116.98 396.454 1108.68 394.312L1108.67 394.312L1105.64 393.521C977.313 359.59 881.151 269.342 787.978 181.789L787.977 181.788C715.591 113.839 640.974 43.7424 551.109 0H556.474Z" fill="white"/>
<path d="M633.679 0C687.138 41.2135 736.353 89.1525 785.994 136.337C878.94 224.683 973.366 310.357 1099.72 343.179L1101.53 343.645C1112.29 346.392 1123.12 348.701 1134 350.603V352.748C1121.78 350.65 1109.8 348.077 1098.11 345.035C964.043 310.151 864.489 215.35 767.846 123.279C723.354 80.877 677.998 37.6551 628.895 0H633.679Z" fill="white"/>
<path d="M684.178 0C712.056 25.6163 739.31 52.2068 766.688 78.5713C862.243 170.591 959.312 259.817 1089.65 293.994C1104.31 297.836 1119.1 300.883 1134 303.199V305.959C1118.24 303.54 1102.86 300.356 1087.92 296.412C949.754 260.13 847.341 161.414 748.087 65.5156L739.76 57.4795C719.793 38.221 699.627 18.8791 679.013 0H684.178Z" fill="white"/>
<path d="M726.023 0C733.107 6.92142 740.185 13.8475 747.272 20.7588C845.422 116.476 945.133 209.276 1079.45 244.809C1097.48 249.581 1115.68 253.178 1134 255.711V258.213C1114.67 255.592 1095.87 251.866 1077.73 247.042H1077.73C935.34 209.362 830.319 106.639 728.327 7.00488C725.939 4.67183 723.548 2.33677 721.154 0H726.023Z" fill="white"/>
<path d="M765.752 0C854.775 85.573 948.316 163.428 1069.38 195.718C1090.67 201.394 1112.25 205.466 1134 208.108V210.62C1111.19 207.867 1089.06 203.632 1067.79 197.952C945.504 165.331 850.126 85.63 761.099 0H765.752Z" fill="white"/>
<path d="M808.035 0C881.907 65.1782 961.822 120.239 1059.18 146.439C1083.87 153.077 1108.83 157.604 1134 160.281V162.763C1107.39 159.992 1081.67 155.278 1057.1 148.675C958.618 122.165 877.257 65.8103 802.743 0H808.035Z" fill="white"/>
<path d="M857.277 0C914.831 43.0528 977.321 77.8894 1049.11 97.3477L1051.2 97.9092C1078.45 105.146 1106.11 109.881 1134 112.438V114.327C1104.03 111.624 1075.12 106.523 1047.53 99.0254L1047.53 99.0244C974.883 79.3462 911.379 43.7282 853.081 0H857.277Z" fill="white"/>
<path d="M922.043 0C958.46 20.2593 997.141 36.7636 1038.91 48.1621C1070.22 56.7612 1101.98 62.0196 1134 64.5039V66.5498C1100.33 63.9542 1067.93 58.4261 1037.22 50.0283C994.25 38.3123 954.411 21.1182 916.924 0H922.043Z" fill="white"/>
<path d="M87.4834 0C56.9761 12.4986 27.7038 27.3024 0 44.1982V40.291C25.4858 25.0185 52.2114 11.5501 79.917 0H87.4834Z" fill="white"/>
<path d="M1032.39 0C1065.79 8.95716 1099.73 14.2301 1134 16.4512V18.4609C1096.94 16.0386 1061.33 10.1723 1027.64 0.9375C1026.52 0.628869 1025.4 0.315928 1024.28 0H1032.39Z" fill="white"/>
</g>
</g>
<defs>
<clipPath id="clip0_190_3717">
<rect width="1134" height="1134" fill="white"/>
</clipPath>
</defs>
</svg>
