<svg width="288" height="800" viewBox="0 0 288 800" fill="none" xmlns="http://www.w3.org/2000/svg">
<g clip-path="url(#clip0_190_3805)">
<g opacity="0.1">
<path d="M288 501.617C259.653 514.102 235.588 536.294 219.547 565.395C206.021 589.942 201.271 617.03 197.415 638.748C195.172 651.37 193.224 662.29 190.101 670.774L189.794 671.588C186.439 680.319 178.129 692.867 166.465 703.229C154.802 713.591 139.819 721.739 123.122 721.739C122.721 721.739 122.319 721.729 121.914 721.72C121.51 721.71 121.101 721.7 120.692 721.7C108.376 721.127 94.2575 717.879 81.1777 714.624L75.6426 713.235C68.2015 711.349 61.1734 709.575 54.9541 708.379C51.0823 707.644 47.3596 707.256 43.9053 707.256C31.7437 707.256 22.6994 711.805 16.2754 721.176C10.3116 729.849 6.81447 742.641 5.78125 759.061C5.03797 770.872 5.56915 784.576 7.38281 800H5.75977C5.4668 797.492 5.2021 794.998 4.97168 792.524C2.77939 768.986 3.53499 747.251 9.33398 731.415C12.2319 723.501 16.3838 717.076 22.042 712.629C27.6967 708.185 34.8774 705.699 43.8672 705.699C47.3569 705.699 51.1556 706.044 55.2246 706.849L55.2256 706.85C64.5697 708.658 75.6863 711.725 87.1172 714.473C98.5351 717.218 110.254 719.641 120.755 720.144L121.339 720.166C121.923 720.182 122.506 720.182 123.084 720.182C139.381 720.182 154.027 712.19 165.412 702.075C176.796 691.961 184.954 679.693 188.271 671.072C190.519 665.268 192.162 658.146 193.699 650.134C194.468 646.126 195.211 641.892 195.99 637.484C196.769 633.076 197.584 628.494 198.497 623.788C202.149 604.962 207.368 584.169 218.105 564.682C234.644 534.666 259.545 512.378 288 499.963V501.617Z" fill="white"/>
<path d="M288 535.538C266.447 547.697 248.108 565.897 235.13 588.616C222.143 611.314 217.277 636.554 213.345 656.809L213.344 656.81C211.063 668.797 209.042 679.154 205.88 687.218L205.57 687.991C202.522 695.4 194.865 707.266 183.789 717.276C172.714 727.286 158.253 735.413 141.596 735.413H139.756C126.485 734.914 111.011 731.263 97.3506 728.025C90.2594 726.37 83.5393 724.75 77.5898 723.708C74.1804 723.089 70.8836 722.779 67.8555 722.779C56.1184 722.779 47.3446 727.173 41.1133 736.197C34.1513 746.273 31.0413 760.908 30.4844 777.716C30.2494 784.808 30.4705 792.295 31.0498 800H29.6689C28.1267 778.989 29.2104 759.713 34.6133 745.479C37.4563 737.988 41.4894 731.908 46.9502 727.701C52.4079 723.496 59.3132 721.146 67.9326 721.146C71.0388 721.146 74.3388 721.413 77.9072 722.064C86.7305 723.642 97.2203 726.383 108.02 728.827C118.806 731.269 129.889 733.412 139.85 733.779H141.635C157.141 733.779 171.102 726.221 182.005 716.655C192.907 707.09 200.784 695.488 204.12 687.332C206.358 681.874 208.033 675.186 209.611 667.67C210.401 663.911 211.168 659.94 211.968 655.81C212.768 651.678 213.603 647.386 214.53 642.979C218.24 625.352 223.43 605.918 233.8 587.759C247.221 564.266 266.184 545.882 288 533.731V535.538Z" fill="white"/>
<path d="M288 571.113C273.321 581.72 260.701 595.44 251.062 611.646C238.575 632.61 233.591 656 229.62 674.753C227.111 686.435 224.996 696.454 221.617 704.2C218.57 711.187 211.077 722.37 200.424 731.805C189.772 741.238 175.994 748.895 160.378 748.895H159.113C146.613 748.549 132.181 745.359 119.369 742.546C112.582 741.044 106.171 739.656 100.492 738.729C97.5859 738.265 94.7931 738.032 92.1533 738.032C80.8032 738.032 72.2988 742.233 66.2598 750.949C59.6354 760.475 56.6131 774.303 55.9844 790.179C55.8578 793.374 55.83 796.654 55.8877 800H54.2598C54.0277 784.48 55.6384 770.439 59.9414 759.538C62.7305 752.472 66.6451 746.738 71.9072 742.771C77.1664 738.807 83.7929 736.591 92.0371 736.591C94.7197 736.591 97.5965 736.821 100.628 737.319C108.949 738.666 118.833 741.069 129.01 743.205C139.174 745.338 149.619 747.202 159.02 747.453H160.224C174.919 747.453 188.205 740.339 198.635 731.332C209.064 722.326 216.671 711.399 220.008 703.708C222.237 698.587 223.941 692.33 225.558 685.312C226.366 681.801 227.154 678.096 227.974 674.244C228.794 670.392 229.646 666.391 230.587 662.287C234.35 645.868 239.51 627.801 249.532 610.951C259.612 594.001 272.832 579.93 288 569.208V571.113Z" fill="white"/>
<path d="M288 608.754C280.202 616.007 273.257 624.283 267.378 633.442L266.452 634.906C254.505 654.098 249.676 674.752 245.396 692.928C242.891 703.572 240.719 712.765 237.515 719.952L237.201 720.642C234.037 727.478 226.851 737.989 216.883 746.788C206.914 755.587 194.197 762.646 179.97 762.646C179.647 762.646 179.324 762.636 178.99 762.626C178.662 762.617 178.326 762.608 177.979 762.607C166.511 762.069 153.189 759.532 141.459 757.297C134.827 756.026 128.535 754.83 123.011 754.059C120.567 753.71 118.238 753.556 116.025 753.556C105.06 753.556 96.8655 757.641 90.9814 766.009C85.3633 774.027 82.3996 785.579 81.3711 799.112C81.3487 799.407 81.3282 799.703 81.3076 800H79.6416C80.3335 790.024 82.0624 781.013 85.1318 773.564C87.8694 766.921 91.6673 761.533 96.7344 757.806C101.799 754.08 108.151 751.998 116.025 751.998C118.323 751.998 120.701 752.189 123.236 752.534C131.057 753.631 140.327 755.554 149.872 757.313C159.408 759.071 169.21 760.663 178.062 761.088C178.728 761.127 179.354 761.127 180.009 761.127C193.588 761.127 205.891 754.387 215.61 745.901C225.331 737.415 232.502 727.154 235.817 720.047C238.028 715.282 239.754 709.465 241.403 702.948C242.228 699.689 243.035 696.25 243.873 692.677C244.711 689.103 245.581 685.394 246.533 681.591C250.344 666.376 255.475 649.666 265.149 634.145C271.597 623.808 279.321 614.638 288 606.753V608.754Z" fill="white"/>
<path d="M288 649.996C286.302 652.172 284.673 654.41 283.121 656.71L282.229 658.05C270.783 675.468 265.875 694.39 261.519 711.024C258.938 720.96 256.693 729.589 253.45 736.32L253.133 736.966C249.353 744.555 242.08 754.383 232.571 762.311C223.062 770.239 211.345 776.242 198.675 776.242H197.171C186.553 775.857 174.852 773.858 163.512 771.971C157.153 770.932 151.126 769.89 145.795 769.272C143.895 769.04 142.032 768.924 140.246 768.924C129.998 768.924 122.204 772.613 116.553 780.171L116.012 780.915C112.365 786.075 109.859 792.577 108.265 800H106.673C107.608 795.514 108.856 791.362 110.469 787.631C113.157 781.41 116.842 776.367 121.715 772.879C126.586 769.392 132.665 767.444 140.169 767.444C142.007 767.444 143.924 767.559 145.919 767.789C153.238 768.655 161.892 770.241 170.811 771.691C179.721 773.141 188.886 774.454 197.198 774.763H198.637C211.424 774.763 223.042 768.465 232.274 760.539C241.507 752.612 248.388 743.027 251.703 736.386C253.905 731.959 255.663 726.57 257.354 720.548C258.199 717.536 259.028 714.36 259.888 711.064C260.747 707.768 261.637 704.349 262.604 700.847C266.473 686.835 271.574 671.493 280.881 657.3C283.106 653.908 285.485 650.655 288 647.543V649.996Z" fill="white"/>
<path d="M288 699.201C283.425 709.465 280.408 719.787 277.642 729.312C274.862 738.875 272.48 747.084 269.027 753.443C266.285 758.519 259.913 767.657 250.938 775.522C241.96 783.389 230.41 789.955 217.303 789.955H216.384C206.648 789.724 195.982 788.187 185.642 786.723C179.514 785.876 173.681 785.026 168.581 784.563H168.579C167.186 784.448 165.788 784.37 164.466 784.37C154.234 784.37 146.542 788.147 141.005 795.897C140.105 797.16 139.269 798.529 138.494 800H136.722C139.272 794.944 142.599 790.816 146.837 787.875C151.517 784.627 157.327 782.813 164.466 782.812C165.849 782.812 167.265 782.851 168.716 783.004H168.719C175.517 783.639 183.546 784.889 191.832 786.031C200.11 787.173 208.638 788.205 216.408 788.398H217.303C229.26 788.398 240.183 782.555 248.933 775.193C257.684 767.83 264.293 758.921 267.627 752.727L268.033 751.951C270.043 748.025 271.717 743.348 273.337 738.17C275.061 732.661 276.744 726.519 278.699 720.134C281.136 712.174 284.018 703.759 288 695.437V699.201Z" fill="white"/>
<path d="M188.687 798.104C189.575 798.104 190.488 798.105 191.399 798.181L191.406 798.182C196.469 798.495 202.253 799.243 208.305 800H193.247C192.599 799.946 191.961 799.897 191.335 799.855C190.433 799.777 189.571 799.777 188.725 799.777C187.32 799.777 185.966 799.853 184.659 800H177.352C180.675 798.765 184.438 798.104 188.687 798.104Z" fill="white"/>
<path d="M288 763.598C287.031 765.859 286.008 767.959 284.883 769.882C281.026 776.474 274.215 784.746 265.611 791.458C261.271 794.844 256.481 797.827 251.39 800H246.7C253.586 797.78 259.919 793.934 265.396 789.516C273.722 782.8 280.1 774.74 283.473 768.99C285.149 766.125 286.61 762.795 288 759.129V763.598Z" fill="white"/>
<path d="M288 800H286.944C287.302 799.667 287.653 799.333 288 798.998V800Z" fill="white"/>
<path d="M288 469.082C252.791 480.849 222.781 506.715 203.848 542.248C190.698 566.887 185.736 593.894 182.085 616.308L181.371 620.727C179.24 634.02 177.367 645.503 174.247 654.407L173.941 655.261C170.586 664.473 162.083 677.703 149.98 688.628C137.88 699.552 122.213 708.141 104.533 708.142C103.539 708.142 102.544 708.104 101.542 708.065C86.6147 707.22 69.2146 702.608 53.8184 698.522C46.067 696.443 38.6927 694.515 32.2041 693.165L32.2021 693.164L31.3779 693.003C27.2731 692.219 23.4034 691.811 19.8018 691.811C12.004 691.811 5.44034 693.627 0 697.335V695.429C5.36637 692.038 11.9075 690.176 19.8018 690.176C23.7118 690.176 27.9342 690.636 32.5059 691.595C42.3516 693.635 54.0756 697.038 66.1289 700.095C78.1662 703.147 90.5191 705.85 101.578 706.469C102.556 706.547 103.494 706.547 104.456 706.547C121.583 706.547 136.915 698.091 148.777 687.402C160.638 676.715 169.067 663.762 172.384 654.696L172.798 653.526C174.831 647.597 176.334 640.456 177.737 632.477C178.486 628.22 179.207 623.719 179.967 619.033C180.726 614.347 181.524 609.474 182.425 604.467C186.029 584.437 191.287 562.287 202.372 541.49C221.848 504.901 252.93 479.031 288 467.403V469.082Z" fill="white"/>
<path d="M288 437.659C245.986 447.718 209.947 477.019 188.227 519.063C173.699 547.194 169.105 578.018 165.442 602.741C163.349 616.632 161.548 628.676 158.468 638.001L158.166 638.896C154.926 648.277 146.107 662.19 133.473 673.757C120.84 685.321 104.431 694.507 86.0205 694.507C84.8318 694.507 83.6813 694.468 82.4922 694.392C66.7943 693.393 48.3908 688.28 32.1455 683.771L26.1641 682.125C20.77 680.65 15.6363 679.287 10.8916 678.201L9.60742 677.912C6.26785 677.171 3.05286 676.683 0 676.449V674.773C3.11718 675.007 6.41785 675.499 9.90234 676.264C20.2498 678.535 32.5902 682.276 45.2705 685.641C57.934 689.001 70.9232 691.982 82.5225 692.717C83.6577 692.834 84.829 692.834 85.9434 692.834C103.881 692.834 119.898 683.935 132.243 672.688C144.586 661.441 153.295 647.813 156.611 638.283C158.867 631.795 160.447 623.809 161.906 614.804C163.369 605.777 164.705 595.77 166.483 585.137C170.035 563.904 175.321 540.386 186.754 518.261C209.059 475.084 246.458 445.84 288 435.974V437.659Z" fill="white"/>
<path d="M288 407.31C286.787 407.502 285.571 407.71 284.354 407.935C237.415 416.4 196.883 448.043 173.012 494.81L172.451 495.917C157.384 525.82 152.906 558.533 149.32 584.758C147.275 599.751 145.504 612.661 142.236 622.528C138.996 632.371 129.974 646.968 116.896 659.102C103.821 671.233 86.7288 680.871 67.3545 680.871C66.0154 680.871 64.6371 680.795 63.2871 680.718C46.8187 679.565 27.4533 673.953 10.3203 669.02C6.79511 668.002 3.34218 667.006 0 666.07V664.455C7.66893 666.594 15.9121 669.066 24.292 671.378C37.5881 675.047 51.215 678.309 63.3555 679.159C64.678 679.276 65.9987 679.314 67.3154 679.314C86.064 679.314 102.776 669.972 115.607 658.165C128.437 646.36 137.427 632.057 140.724 622.062L141.14 620.761C143.181 614.161 144.628 606.195 145.96 597.279C147.384 587.751 148.674 577.17 150.425 565.937C153.923 543.495 159.24 518.62 171.021 495.185C195.395 446.651 237.628 414.708 284.038 406.329H284.04C285.358 406.084 286.679 405.86 288 405.652V407.31Z" fill="white"/>
<path d="M288 377.838C282.981 378.231 277.895 378.902 272.784 379.854C224.316 388.733 180.971 423.47 156.83 472.771C141.263 504.561 136.9 539.122 133.392 566.85C131.485 581.972 129.836 595.103 126.764 605.265L126.462 606.239C123.202 616.544 113.967 631.822 100.442 644.523C86.9196 657.222 69.142 667.312 48.8037 667.312C47.2709 667.312 45.737 667.236 44.1992 667.121C30.4883 666.054 14.8559 662.006 0 657.704V655.973C1.13706 656.304 2.277 656.635 3.41992 656.962C17.3396 660.939 31.6052 664.481 44.3066 665.446C45.7822 665.563 47.2946 665.602 48.7646 665.602C68.3236 665.602 85.72 655.816 99.0342 643.45C112.346 631.086 121.615 616.108 124.912 605.649C127.176 598.469 128.693 589.612 130.074 579.607C131.458 569.588 132.703 558.44 134.43 546.607C137.88 522.963 143.235 496.719 155.363 471.955C180.433 420.764 224.209 387.012 272.431 378.172C277.591 377.224 282.792 376.529 288 376.123V377.838Z" fill="white"/>
<path d="M288 347.518V349.112C287.973 349.112 287.946 349.112 287.919 349.112C279.801 349.112 271.413 349.892 262.946 351.389L261.252 351.698C211.324 360.967 166.783 397.057 141.834 448.332L141.248 449.546C125.179 483.109 120.934 519.596 117.502 548.825C115.611 565.089 113.955 579.119 110.725 589.834C107.272 601.27 97.3465 617.231 83.1797 630.333C69.0149 643.433 50.6494 653.639 30.3301 653.639C28.6035 653.639 26.877 653.561 25.1895 653.408H25.1865C17.2488 652.75 8.6936 651.122 0 649.01V647.416C8.71312 649.546 17.263 651.189 25.2148 651.85H25.2188C26.8814 651.965 28.5476 652.043 30.2148 652.043C50.5647 652.043 68.6452 641.814 82.4463 628.89C96.245 615.967 105.804 600.314 109.101 589.392C111.374 581.864 112.862 572.571 114.205 562.067C115.55 551.55 116.749 539.836 118.449 527.403C121.847 502.555 127.232 474.954 139.707 448.881C165.472 394.993 210.791 359.433 260.823 350.131C269.754 348.439 278.799 347.517 287.803 347.517C287.868 347.517 287.934 347.517 288 347.518Z" fill="white"/>
<path d="M277.12 319.321C280.758 319.321 284.388 319.468 288 319.766V321.285C284.439 320.99 280.823 320.84 277.158 320.84C268.152 320.84 258.8 321.766 249.45 323.541C197.276 333.345 150.923 371.783 125.396 426.321C108.826 461.733 104.658 500.069 101.342 530.84C99.5847 547.231 98.0481 561.415 95.0166 572.378L94.7188 573.429C91.2657 585.346 81.1088 601.989 66.4795 615.653C51.8524 629.315 32.7927 639.965 11.5479 639.965C9.66673 639.965 7.78645 639.888 5.90527 639.734C3.97122 639.565 2.00089 639.334 0 639.058V637.512C2.06047 637.8 4.09073 638.038 6.08496 638.214C7.90605 638.369 9.76607 638.446 11.5869 638.446C32.7473 638.446 51.5125 627.764 65.7959 614.271C80.0767 600.78 89.9169 584.443 93.2129 573.057C95.4958 565.192 96.9534 555.471 98.2588 544.473C99.5657 533.461 100.719 521.185 102.392 508.151C105.736 482.099 111.15 453.131 123.973 425.729C150.433 369.183 197.296 331.814 249.139 322.051C258.378 320.282 267.769 319.321 277.12 319.321Z" fill="white"/>
<path d="M266.476 291.049C273.699 291.049 280.897 291.614 288 292.797V294.313C281.073 293.154 273.914 292.567 266.553 292.567C257.2 292.567 247.539 293.493 237.841 295.384C183.814 305.689 135.957 345.978 109.736 403.097C93.6965 438.029 89.1666 475.566 85.9941 506.713L85.375 512.854C83.6927 529.842 82.2304 544.551 79.2031 555.932L78.9053 557.022C75.4518 569.439 65.0636 586.766 49.9766 600.988C36.5009 613.692 19.3068 623.889 0 625.92V624.349C19.0862 622.279 35.976 612.08 49.1406 599.556C63.9083 585.506 74.0275 568.494 77.3232 556.645C79.6058 548.434 81.0303 538.277 82.2959 526.779C83.5627 515.27 84.6696 502.427 86.3184 488.793C89.6146 461.537 95.0678 431.212 108.238 402.5C135.393 343.296 183.798 304.119 237.452 293.894L239.258 293.558C248.29 291.927 257.383 291.049 266.476 291.049Z" fill="white"/>
<path d="M255.87 262.854C266.711 262.854 277.499 264.076 288 266.718V268.241C277.858 265.664 267.177 264.371 256.062 264.371C246.968 264.371 237.603 265.254 228.191 266.985L226.309 267.343C170.468 278.111 121.107 320.25 94.1934 379.988C77.684 416.618 73.1926 455.919 70.1221 488.55L69.5234 494.984C67.8786 512.568 66.4543 527.803 63.4639 539.602L63.1689 540.732C59.715 553.63 49.0955 571.64 33.5459 586.425C24.0257 595.477 12.6709 603.306 0 608.017V606.339C12.2914 601.609 23.2955 593.887 32.5146 585.053C47.7689 570.435 58.1782 552.739 61.4736 540.426C63.7655 531.869 65.1601 521.276 66.3877 509.278C67.6164 497.269 68.6766 483.861 70.2988 469.623C73.5421 441.159 79.0242 409.466 92.542 379.426C120.392 317.564 170.34 276.54 225.806 265.853L225.807 265.852C235.778 263.891 245.863 262.854 255.87 262.854Z" fill="white"/>
<path d="M245.341 234.619C259.838 234.619 274.226 236.764 288 241.474V243.052C274.707 238.433 260.41 236.099 245.303 236.099C235.919 236.099 226.231 237.015 216.493 238.814L214.545 239.187C156.852 250.418 105.949 294.407 78.3799 356.764C60.269 397.684 56.4877 441.721 53.4414 477.036C51.8207 495.804 50.4335 511.992 47.2402 524.326C43.7859 537.705 32.935 556.387 16.9277 571.726C11.7883 576.65 6.12016 581.225 0 585.169V583.294C5.77442 579.465 11.1324 575.073 16.0029 570.377C31.7443 555.201 42.4441 536.829 45.7393 524.053L45.7383 524.052C48.0394 515.148 49.4061 504.121 50.5957 491.624C51.7863 479.116 52.7999 465.144 54.3955 450.305C57.5858 420.637 63.0966 387.585 76.9619 356.235C105.507 291.716 156.999 248.921 214.275 237.733C224.555 235.696 234.987 234.619 245.341 234.619Z" fill="white"/>
<path d="M234.696 206.385C252.928 206.385 271.03 209.696 288 217.143V219.02C271.744 211.777 253.845 208.097 234.658 208.097C224.949 208.097 214.935 209.046 204.872 210.913L202.859 211.299C143.314 222.992 90.9072 268.832 62.6445 333.808C44.0325 376.615 40.3666 422.501 37.3975 459.357C35.8154 478.743 34.5052 495.431 31.3115 508.189C27.9536 521.661 16.69 541.028 0.102539 557.027C0.0685713 557.06 0.0340121 557.092 0 557.125V555.049C15.8361 539.45 26.5457 520.765 29.8115 507.719C32.1221 498.478 33.461 487.019 34.6162 474.024C35.7723 461.02 36.7435 446.482 38.3174 431.039C41.4644 400.163 47.0149 365.744 61.2275 333.084C90.4672 265.906 143.501 221.302 202.59 209.653L204.584 209.269C214.564 207.399 224.665 206.385 234.696 206.385Z" fill="white"/>
<path d="M224.052 178.151C244.837 178.151 265.424 182.341 284.468 191.87C285.654 192.462 286.831 193.074 288 193.702V195.57C286.877 194.956 285.748 194.358 284.61 193.779L283.733 193.337C265.793 184.34 245.692 179.785 224.052 179.785C213.387 179.785 202.337 180.904 191.25 183.142C129.852 195.375 75.9417 243.026 46.9854 310.621C27.8722 355.278 24.3223 403.091 21.4688 441.449C20.0026 461.487 18.6925 478.715 15.5371 491.859C13.3984 500.695 8.00044 511.974 0 523.265V520.437C7.14413 509.945 11.9777 499.586 13.9609 491.385C16.281 481.798 17.5908 469.905 18.708 456.414C19.8261 442.913 20.7505 427.815 22.2979 411.773C25.3918 379.698 30.9712 343.922 45.5312 309.934C75.4657 240.059 130.043 193.646 190.943 181.535C201.879 179.343 213.005 178.151 224.052 178.151Z" fill="white"/>
<path d="M213.446 149.956C234.887 149.956 256.09 154.3 275.712 164.214C279.911 166.33 284.004 168.673 288 171.219V173.154C283.777 170.42 279.455 167.916 275.019 165.681C256.5 156.337 235.819 151.59 213.484 151.59C203.16 151.59 192.498 152.607 181.784 154.642L179.641 155.062C116.429 167.759 60.9761 217.259 31.3262 287.474C11.6734 333.98 8.2398 383.679 5.50195 423.578C4.12296 443.456 2.92437 460.711 0 474.092V465.107C1.20439 457.295 2.04304 448.457 2.78418 438.831C3.86235 424.828 4.74044 409.16 6.26367 392.513C9.30951 359.224 14.9275 322.08 29.835 286.782C60.4641 214.25 116.584 166.028 179.296 153.455C190.617 151.186 202.052 149.956 213.446 149.956Z" fill="white"/>
<path d="M202.802 121.684C224.859 121.684 246.718 126.182 266.918 136.48L267.905 136.986C274.876 140.598 281.557 144.824 288 149.553V151.733C281.254 146.687 274.257 142.204 266.962 138.425L266.033 137.948C246.974 128.218 225.638 123.317 202.647 123.317C192.034 123.317 181.048 124.402 170.009 126.509L167.8 126.944C102.736 140.103 45.7801 191.454 15.4365 264.287C8.53148 280.881 3.60316 297.858 0 314.677V308.079C3.47583 293.215 8.04065 278.273 14.1387 263.632C45.4626 188.403 103.126 138.371 167.649 125.337L167.65 125.336C179.279 122.952 191.061 121.684 202.802 121.684Z" fill="white"/>
<path d="M192.195 93.4492C214.908 93.4492 237.384 98.1399 258.163 108.785C268.703 114.184 278.593 120.958 288 128.749V130.712C278.351 122.607 268.212 115.582 257.434 110.062C237.835 100.023 215.881 94.9287 192.195 94.9287C180.527 94.9287 168.435 96.203 156.307 98.6719C89.6589 112.239 31.2561 165.335 0 240.689V236.742C32.4984 160.95 90.725 110.499 156.003 97.2178L158.25 96.7695C169.494 94.5978 180.862 93.4492 192.195 93.4492Z" fill="white"/>
<path d="M181.513 65.2539C204.881 65.2539 227.973 70.0599 249.33 81.0898L250.373 81.6328C263.845 88.7225 276.275 98.0104 288 108.78V110.907C275.73 99.4857 262.705 89.6811 248.603 82.4053C228.425 72.0206 205.854 66.7334 181.513 66.7334C170.248 66.7334 158.645 67.8525 146.959 70.1221L144.62 70.5918C86.1124 82.5685 33.8668 124.361 0 184.842V181.557C34.636 120.972 86.7833 80.9143 144.278 69.1377L146.591 68.6826C158.161 66.4705 169.855 65.2539 181.513 65.2539Z" fill="white"/>
<path d="M170.945 37.0586C194.969 37.0586 218.717 42.0571 240.613 53.4336L241.684 53.9941C258.508 62.9026 273.74 75.1741 288 89.4805V91.6104C273.222 76.6335 257.404 63.8019 239.965 54.75C219.285 43.9794 196.096 38.5381 171.061 38.5381C159.47 38.5381 147.542 39.7249 135.53 42.0664L133.127 42.5508C81.2093 53.2624 34.1706 86.9403 0 136.172V133.171C34.6705 84.0385 81.6251 51.6264 132.709 41.0967L135.08 40.6201C146.948 38.3087 158.998 37.0586 170.945 37.0586Z" fill="white"/>
<path d="M160.532 8.8623C185.173 8.86231 209.576 14.015 232.051 25.7764C252.687 36.5633 270.977 52.3175 288 70.7266V73.042C270.739 54.2041 252.154 37.9966 231.287 27.0938C210.068 16.015 186.263 10.3809 160.532 10.3809C147.861 10.3809 134.766 11.7701 121.596 14.5088C75.4966 24.0905 33.2036 51.3936 0 91.4736V88.8145C33.5584 48.8873 75.7998 22.4664 121.255 13.0166L123.697 12.5264C135.918 10.1473 148.26 8.86232 160.532 8.8623Z" fill="white"/>
<path d="M226.89 0C249.406 12.626 269.185 31.0499 287.619 52.2822C287.746 52.4289 287.873 52.5767 288 52.7236V55.3223C268.528 32.6562 247.5 12.9359 223.517 0.078125L223.369 0H226.89Z" fill="white"/>
<path d="M68.9395 0C43.8683 11.4323 20.5655 28.1925 0 49.3682V46.8389C19.5967 26.9324 41.5234 11.1376 64.9219 0H68.9395Z" fill="white"/>
<path d="M255.21 0C263.892 8.05588 272.209 16.881 280.272 26.2354C282.874 29.2534 285.448 32.3269 288 35.4463V38.0498C276.815 24.2842 265.164 11.3479 252.776 0H255.21Z" fill="white"/>
<path d="M11.0186 0C7.28003 2.94704 3.60615 6.02363 0 9.22461V6.97363C2.73878 4.57517 5.5146 2.25041 8.3252 0H11.0186Z" fill="white"/>
</g>
</g>
<defs>
<clipPath id="clip0_190_3805">
<rect width="288" height="800" fill="white"/>
</clipPath>
</defs>
</svg>
