<svg width="356" height="356" viewBox="0 0 356 356" fill="none" xmlns="http://www.w3.org/2000/svg">
<g opacity="0.15">
<g clip-path="url(#clip0_262_2156)">
<path d="M356 178C356 276.307 276.307 356 178 356C79.6936 356 0.00012207 276.307 0.00012207 178C0.00012207 79.6934 79.6936 0 178 0C276.307 0 356 79.6934 356 178Z" fill="#8200CC"/>
<g clip-path="url(#clip1_262_2156)">
<path d="M79.3694 349.018C-10.024 305.158 91.084 156.257 174.8 177.493C92.8925 182.951 54.517 279.157 79.3694 349.018Z" fill="#FF49B8"/>
<path d="M116.861 366.003C78.8533 303.314 95.7845 198.316 174.807 179.185C39.4757 247.041 206.745 407.147 116.861 366.003Z" fill="#D300B4"/>
<path d="M18.0214 294.672C-47.3289 218.15 109.66 121.366 174.8 177.492C98.2287 147.42 22.8609 221.064 18.0214 294.672Z" fill="#F46F00"/>
<path d="M198.663 374.495C140.06 331.994 109.852 228.504 176.51 179.185C78.4934 299.201 297.32 373.334 198.663 374.495Z" fill="#F36E28"/>
<path d="M-16.0655 219.947C-41.1009 123.763 134.388 100.096 176.502 175.789C117.096 120 18.836 154.558 -16.0655 219.947Z" fill="#E11F26"/>
<path d="M277.056 349.019C204.76 334.3 138.528 252.707 176.511 179.185C143.455 333.78 362.086 305.901 277.056 349.019Z" fill="#FF187D"/>
<path d="M-16.0684 138.427C-5.43976 39.3142 174.396 89.3808 176.502 175.784C146.091 99.0715 43.6195 94.5917 -16.0684 138.427Z" fill="#FF187D"/>
<path d="M336.708 292.975C263.17 310.662 171.941 261.192 176.514 179.185C204.474 332.274 403.205 219.548 336.708 292.975Z" fill="#E11F26"/>
<path d="M176.504 175.79C184.272 93.9641 85.9984 44.2664 16.3096 63.7027C68.1285 -20.9049 209.52 93.6321 176.504 175.79Z" fill="#F36E28"/>
<path d="M178.217 179.186C221.254 248.648 326.07 233.539 374.2 177.487C382.909 277.14 197.434 262.735 178.217 179.186Z" fill="#F46F00"/>
<path d="M178.216 175.789C214.824 102.761 150.793 20.8171 77.665 7.65746C159.941 -47.5625 239.178 116.734 178.216 175.789Z" fill="#D300B4"/>
<path d="M178.217 179.185C246.39 223.398 336.826 168.566 357.158 97.6641C405.625 186.126 232.398 246.022 178.217 179.185Z" fill="#FF49B8"/>
<path d="M178.217 179.186C256.96 189.731 317.352 108.463 309.436 31.4272C386.468 95.8194 256.146 214.26 178.217 179.186Z" fill="#F36E28"/>
<path d="M178.217 177.489C243.597 125.916 215.496 25.6824 156.059 -17.8181C255.256 -31.1245 257.936 142.736 178.217 177.487V177.489Z" fill="#FF49B8"/>
<path d="M178.217 177.488C258.553 156.861 274.86 55.6593 237.861 -9.32812C335.259 13.3933 264.626 186.467 178.217 177.488Z" fill="#F46F00"/>
</g>
</g>
</g>
<defs>
<clipPath id="clip0_262_2156">
<rect width="356" height="356" rx="178" fill="white"/>
</clipPath>
<clipPath id="clip1_262_2156">
<rect width="392.994" height="393.037" fill="white" transform="translate(-18.4971 -18.543)"/>
</clipPath>
</defs>
</svg>
