<svg width="104" height="82" viewBox="0 0 104 82" fill="none" xmlns="http://www.w3.org/2000/svg">
<g filter="url(#filter0_f_494_13291)">
<path d="M22.5 74.8672C18.1 72.4672 8.66667 66.8672 4.5 64.3672V53.8672C9.83333 57.2005 22.4 64.8672 26 66.8672C30.5 69.3672 32.5 69.3672 37 66.8672C41.5 64.3672 79.2168 40.2227 83.5 37.3672C88 34.3672 86 32.2243 81 29.3672C78.2 27.7672 62 18.0339 54 13.3672V4.86719C63.5 10.3672 84.9224 23.4657 93.5 28.3672C104 34.3672 97 38.8672 94.5 40.8672C92 42.8672 51.5 68.3672 43.5 73.3672C35.5 78.3672 28 77.8672 22.5 74.8672Z" fill="#5EFFFA"/>
<path d="M22.5 74.8672C18.1 72.4672 8.66667 66.8672 4.5 64.3672V53.8672C9.83333 57.2005 22.4 64.8672 26 66.8672C30.5 69.3672 32.5 69.3672 37 66.8672C41.5 64.3672 79.2168 40.2227 83.5 37.3672C88 34.3672 86 32.2243 81 29.3672C78.2 27.7672 62 18.0339 54 13.3672V4.86719C63.5 10.3672 84.9224 23.4657 93.5 28.3672C104 34.3672 97 38.8672 94.5 40.8672C92 42.8672 51.5 68.3672 43.5 73.3672C35.5 78.3672 28 77.8672 22.5 74.8672Z" stroke="#3AFFCA"/>
</g>
<path d="M22.5 74.8672C18.1 72.4672 8.66667 66.8672 4.5 64.3672V53.8672C9.83333 57.2005 22.4 64.8672 26 66.8672C30.5 69.3672 32.5 69.3672 37 66.8672C41.5 64.3672 79.2168 40.2227 83.5 37.3672C88 34.3672 86 32.2243 81 29.3672C78.2 27.7672 62 18.0339 54 13.3672V4.86719C63.5 10.3672 84.9224 23.4657 93.5 28.3672C104 34.3672 97 38.8672 94.5 40.8672C92 42.8672 51.5 68.3672 43.5 73.3672C35.5 78.3672 28 77.8672 22.5 74.8672Z" fill="#5EFFFA"/>
<defs>
<filter id="filter0_f_494_13291" x="0" y="0" width="103.608" height="81.629" filterUnits="userSpaceOnUse" color-interpolation-filters="sRGB">
<feFlood flood-opacity="0" result="BackgroundImageFix"/>
<feBlend mode="normal" in="SourceGraphic" in2="BackgroundImageFix" result="shape"/>
<feGaussianBlur stdDeviation="2" result="effect1_foregroundBlur_494_13291"/>
</filter>
</defs>
</svg>
