<svg width="153" height="86" viewBox="0 0 153 86" fill="none" xmlns="http://www.w3.org/2000/svg">
<g filter="url(#filter0_f_494_13288)">
<path d="M8.95247 31.4342C10.953 29.9344 37.9522 13.2675 50.4522 4.9342V13.9342C42.9512 18.9342 22.9526 30.9342 20.4526 32.9342C17.4791 35.313 15.9512 37.8334 19.4526 39.9342C20.7388 40.7059 67.0631 68.0399 71.4526 70.4342C76.9526 73.4342 80.9526 72.4342 84.4526 70.4342C87.7588 68.545 129.238 42.1315 131.953 40.4342C135.951 37.9342 134.641 34.6462 130.953 32.4342C128.451 30.9342 109.453 19.6009 101.453 14.9342V6.9342C109.953 11.9342 131.951 24.4342 141.951 30.4342C154.951 38.2342 143.451 43.6485 139.451 45.9342C135.951 47.9342 99.4526 70.9342 90.4526 76.9342C81.4526 82.9342 74.9526 81.9342 68.4526 78.9342C61.9526 75.9342 16.9512 48.9342 8.45256 43.4342C1.22968 38.7598 5.45169 34.0587 8.95247 31.4342Z" fill="#5EFFFA"/>
<path d="M8.95247 31.4342C10.953 29.9344 37.9522 13.2675 50.4522 4.9342V13.9342C42.9512 18.9342 22.9526 30.9342 20.4526 32.9342C17.4791 35.313 15.9512 37.8334 19.4526 39.9342C20.7388 40.7059 67.0631 68.0399 71.4526 70.4342C76.9526 73.4342 80.9526 72.4342 84.4526 70.4342C87.7588 68.545 129.238 42.1315 131.953 40.4342C135.951 37.9342 134.641 34.6462 130.953 32.4342C128.451 30.9342 109.453 19.6009 101.453 14.9342V6.9342C109.953 11.9342 131.951 24.4342 141.951 30.4342C154.951 38.2342 143.451 43.6485 139.451 45.9342C135.951 47.9342 99.4526 70.9342 90.4526 76.9342C81.4526 82.9342 74.9526 81.9342 68.4526 78.9342C61.9526 75.9342 16.9512 48.9342 8.45256 43.4342C1.22968 38.7598 5.45169 34.0587 8.95247 31.4342Z" stroke="#3AFFCA"/>
</g>
<path d="M8.95247 31.4342C10.953 29.9344 37.9522 13.2675 50.4522 4.9342V13.9342C42.9512 18.9342 22.9526 30.9342 20.4526 32.9342C17.4791 35.313 15.9512 37.8334 19.4526 39.9342C20.7388 40.7059 67.0631 68.0399 71.4526 70.4342C76.9526 73.4342 80.9526 72.4342 84.4526 70.4342C87.7588 68.545 129.238 42.1315 131.953 40.4342C135.951 37.9342 134.641 34.6462 130.953 32.4342C128.451 30.9342 109.453 19.6009 101.453 14.9342V6.9342C109.953 11.9342 131.951 24.4342 141.951 30.4342C154.951 38.2342 143.451 43.6485 139.451 45.9342C135.951 47.9342 99.4526 70.9342 90.4526 76.9342C81.4526 82.9342 74.9526 81.9342 68.4526 78.9342C61.9526 75.9342 16.9512 48.9342 8.45256 43.4342C1.22968 38.7598 5.45169 34.0587 8.95247 31.4342Z" fill="#5EFFFA"/>
<defs>
<filter id="filter0_f_494_13288" x="0" y="0" width="152.473" height="85.8197" filterUnits="userSpaceOnUse" color-interpolation-filters="sRGB">
<feFlood flood-opacity="0" result="BackgroundImageFix"/>
<feBlend mode="normal" in="SourceGraphic" in2="BackgroundImageFix" result="shape"/>
<feGaussianBlur stdDeviation="2" result="effect1_foregroundBlur_494_13288"/>
</filter>
</defs>
</svg>
