<svg width="242" height="275" viewBox="0 0 242 275" fill="none" xmlns="http://www.w3.org/2000/svg">
<path d="M76.6549 193.182L22.8493 212.633C16.5984 204.954 16.816 199.184 21.081 187.372C25.5975 180.164 30.1986 176.127 41.0371 168.932L76.6549 193.182Z" fill="#629E9F"/>
<path d="M209.022 183.33L162.289 200.002L195.886 222.485C214.2 209.053 218.719 200.71 209.022 183.33Z" fill="#8E3A94"/>
<path d="M112.272 217.433L62.2559 235.368C98.4284 243.289 116.617 244.198 145.617 239.662L112.272 217.433Z" fill="#67A8AB"/>
<path d="M172.899 160.09L126.924 176.005L92.0645 152.765C128.132 149.348 146.838 151.446 172.899 160.09Z" fill="#629E9F"/>
<path d="M113.031 217.18L77.666 193.435L126.672 176.258L162.037 199.75L113.031 217.18Z" fill="#65A2A1"/>
</svg>
