<svg width="242" height="275" viewBox="0 0 242 275" fill="none" xmlns="http://www.w3.org/2000/svg">
<path d="M161.315 199.436L112.383 216.911L144.838 239.13C167.487 235.91 178.287 232.181 193.769 221.655L161.315 199.436Z" fill="#E23140"/>
<path d="M77.1815 193.194L22.5 212.5C33.9217 224.927 42.5727 229.763 61 235.5L112.382 216.661L77.1815 193.194Z" fill="#E32B3D"/>
<path d="M77.6804 193.194L41.7305 169.227L46.7235 165.982L51.9662 163.735L57.9579 161.239L64.4488 158.992L71.4391 156.994L77.6804 155.497L84.6706 153.999L91.6609 153L126.363 176.218L77.6804 193.194Z" fill="#E32B3D"/>
<path d="M161.564 199.435L126.612 176.218L172.299 159.99C181.224 163.273 185.395 165.248 191.522 168.978C198.902 173.657 202.45 176.684 207.5 182.958L161.564 199.435Z" fill="#F2B35F"/>
</svg>
