<svg width="68" height="49" viewBox="0 0 68 49" fill="none" xmlns="http://www.w3.org/2000/svg">
<path d="M45.5 33.916L20.5 29.416L27 25.916L38.5 27.916L36.5 20.416L41 17.416L45.5 33.916Z" fill="#222221" stroke="black" stroke-linejoin="bevel"/>
<path d="M20.5 29.916V26.416L27 22.916L38 25.916L36.5 20.416V17.416L41 14.416L45.5 30.916V34.416L20.5 29.916Z" fill="#8200CC" stroke="black" stroke-linejoin="bevel"/>
<path d="M45.5 30.916L20.5 26.416L27 22.916L38.5 24.916L36.5 17.416L41 14.416L45.5 30.916Z" fill="#FBAC2F" stroke="black" stroke-linejoin="bevel"/>
<path d="M25.5 19.916L0.5 15.416L7 11.916L18.5 13.916L16.5 6.41602L21 3.41602L25.5 19.916Z" fill="#222221" stroke="black" stroke-linejoin="bevel"/>
<path d="M0.5 15.916V12.416L7 8.91602L18 11.916L16.5 6.41602V3.41602L21 0.416016L25.5 16.916V20.416L0.5 15.916Z" fill="#8200CC" stroke="black" stroke-linejoin="bevel"/>
<path d="M25.5 16.916L0.5 12.416L7 8.91602L18.5 10.916L16.5 3.41602L21 0.416016L25.5 16.916Z" fill="#FBAC2F" stroke="black" stroke-linejoin="bevel"/>
<path d="M66.5 47.916L41.5 43.416L48 39.916L59.5 41.916L57.5 34.416L62 31.416L66.5 47.916Z" fill="#222221" stroke="black" stroke-linejoin="bevel"/>
<path d="M41.5 43.916V40.416L48 36.916L59 39.916L57.5 34.416V31.416L62 28.416L66.5 44.916V48.416L41.5 43.916Z" fill="#8200CC" stroke="black" stroke-linejoin="bevel"/>
<path d="M66.5 44.916L41.5 40.416L48 36.916L59.5 38.916L57.5 31.416L62 28.416L66.5 44.916Z" fill="#FBAC2F" stroke="black" stroke-linejoin="bevel"/>
</svg>
