<svg width="198" height="242" viewBox="0 0 198 242" fill="none" xmlns="http://www.w3.org/2000/svg">
<g clip-path="url(#clip0_333_1785)">
<path d="M80.4138 217.864L90.9352 182.966C90.9352 182.966 95.2895 174.349 98.8914 170.91C102.493 167.47 109.664 164.155 113.122 162.588C116.584 161.025 119.771 157.542 119.771 157.542C119.771 157.542 128.525 143.459 131.021 138.03C133.512 132.596 137.636 113.888 137.636 113.888L143.808 110.27C143.808 110.27 159.441 101.241 161.92 100.424C164.4 99.6066 168.923 96.8841 168.923 96.8841L139.022 95.1345C139.022 95.1345 138.293 79.7485 135.633 73.6194C132.969 67.4947 132.081 63.2141 126.953 64.6243C121.825 66.0346 113.491 74.4876 112.118 77.2948C110.749 80.1066 103.117 97.2276 103.117 97.2276L93.9317 98.8888C93.9317 98.8888 98.2406 87.1232 97.961 79.5379C97.6856 71.9573 97.8496 66.5168 88.7873 59.5837C79.725 52.6506 74.9961 53.0472 73.3679 54.996C71.7355 56.9402 67.8294 73.366 66.8468 79.7808C65.8643 86.1955 60.9183 104.834 60.3586 106.671C59.8037 108.504 56.7406 109.053 61.1728 111.362C65.6098 113.666 69.7749 115.102 73.1796 109.337C76.5801 103.567 76.7363 97.0784 80.6258 96.6031C84.5152 96.1277 86.8924 99.2883 86.8924 99.2883C86.8924 99.2883 89.0018 101.586 85.6587 105.888C82.3198 110.195 75.3877 123.611 74.9231 126.083C74.4584 128.554 73.7515 136.881 73.7515 136.881C73.7515 136.881 67.8713 126.469 64.5943 123.644C61.3172 120.819 56.3294 120.353 54.3766 122.897C52.4237 125.44 50.5488 138.908 49.4718 144.68C48.3948 150.451 46.4129 162.233 46.4129 162.233C46.4129 162.233 35.3645 167.076 27.9753 172.682C20.311 178.495 34.7927 190.529 44.949 187.069L56.8776 196.788C56.8776 196.788 63.0663 205.548 63.9704 205.216C64.8744 204.885 70.3891 201.408 70.3891 201.408L80.4263 217.878L80.4138 217.864Z" fill="#F7A52D"/>
<path d="M132.557 130.789C136.957 130.991 143.504 129.923 143.504 129.923L174.406 114.976C174.406 114.976 157.723 109.217 153.907 109.283C150.091 109.348 137.763 111.973 137.763 111.973L132.562 130.793L132.557 130.789Z" fill="#60AE93"/>
<path d="M88.0682 233.28L78.7264 224.431L86.0987 200.778L99.3343 203.487C99.3343 203.487 104.934 200.653 102.903 197.942C100.872 195.231 89.9308 179.102 89.9308 179.102C89.9308 179.102 89.1333 175.46 93.8653 170.447C98.6062 165.434 102.742 159.109 110.373 164.646C118.009 170.189 121.27 177.626 121.27 177.626L116.299 183.877C116.299 183.877 121.303 208.059 121.319 209.107C121.336 210.156 120.214 218.447 119.473 219.007C118.733 219.567 106.776 219.077 106.776 219.077L97.5911 215.069L88.0641 233.275L88.0682 233.28Z" fill="#60AE93"/>
<path d="M28.6459 150.938C28.6459 150.938 29.5831 141.374 37.8813 135.432C35.9735 129.795 30.9072 129.743 30.9072 129.743C30.9072 129.743 12.6709 136.853 11.9306 137.414C11.1904 137.974 9.16375 146.597 9.16375 146.597L28.6459 150.938Z" fill="#60AE93"/>
<path d="M60.3745 106.671C60.3745 106.671 41.5512 107.848 40.2153 112.756C38.8747 117.669 33.5217 103.315 37.5959 98.452C41.6749 93.585 48.9688 87.345 52.3526 91.8564C55.7365 96.3678 60.3745 106.671 60.3745 106.671Z" fill="#60AE93"/>
<path d="M113.436 133.636L119.451 108.178L114.312 108.536L106.758 125.251L113.436 133.636Z" fill="#60AE93"/>
<path d="M153.638 94.9959C156.607 93.8035 160.148 91.8263 162.841 83.0521C165.535 74.2778 169.009 68.0977 169.255 62.2468C169.502 56.396 162.403 36.6303 162.403 36.6303C162.403 36.6303 151.663 51.1529 150.305 55.018C148.953 58.8786 149.935 58.1331 149.935 58.1331C149.935 58.1331 143.981 53.7994 137.853 54.9068C131.726 56.0141 127.017 57.4638 127.017 57.4638C127.017 57.4638 116.86 55.2533 109.823 56.6963C102.792 58.135 94.3124 62.8001 94.3124 62.8001L97.3154 86.3761L97.069 97.897L80.2622 100.733C80.2622 100.733 74.6903 105.668 73.8925 107.696C73.0906 109.719 77.4218 121.667 77.4218 121.667C77.4218 121.667 79.9868 112.8 84.0827 106.342C87.9767 100.201 94.655 102.926 96.0698 103.264C97.4888 103.606 102.209 103.21 102.209 103.21C102.209 103.21 108.146 78.1622 112.978 73.7871C117.809 69.412 122.674 61.4728 128.18 63.6657C133.69 65.8632 135.858 66.6936 136.615 72.852C137.372 79.0105 139.079 93.6486 139.021 95.1159C138.96 96.5786 153.628 95.0135 153.628 95.0135L153.638 94.9959Z" fill="#60AE93"/>
<path d="M156.276 158.824C150.564 154.306 147.427 149.604 142.732 152.098C138.04 154.596 137.979 156.058 137.979 156.058C137.979 156.058 137.407 145.513 138.456 143.301C139.505 141.088 143.41 136.001 153.583 139.259C163.756 142.518 172.666 144.614 172.93 145.473C173.189 146.336 156.277 158.815 156.277 158.815L156.276 158.824Z" fill="#60AE93"/>
<path d="M171.525 87.5716C174.599 90.1437 180.463 90.9227 182.581 87.7528C184.699 84.583 185.969 80.2864 181.513 78.7121C177.061 77.1423 170.67 77.1492 170.034 79.9601C169.397 82.771 171.52 87.5671 171.52 87.5671L171.525 87.5716Z" fill="#60AE93"/>
<path d="M182.126 73.5629C187.266 69.8556 187.535 61.2382 180.053 63.7875C172.571 66.3369 171.88 80.9473 182.126 73.5629Z" fill="#60AE93"/>
<path d="M140.729 188.95C145.911 189.727 149.345 179.037 141.877 178.887C134.405 178.732 130.939 187.49 140.729 188.95Z" fill="#60AE93"/>
<path d="M92.5851 212.074C90.8689 218.141 87.8404 227.631 86.3905 233.684L86.2997 234.084C86.1867 234.287 86.1881 235.434 86.5287 235.838C87.8821 237.59 90.7944 235.412 89.4938 233.612C89.8685 233.784 89.8818 234.694 89.8298 234.666L89.9442 234.378C91.7711 230.021 94.8398 223.645 97.3559 218.363C107.672 224.453 125.793 231.853 124.038 212.489C123.539 201.862 122.42 191.494 118.983 181.661C119.783 181.224 120.585 180.8 121.38 180.367C121.349 181.208 121.559 182.191 122.095 183.35C124.213 187.889 125.506 189.267 127.864 187.949C130.222 186.632 130.787 183.607 130.787 183.607C130.287 181.102 129.281 178.155 127.561 177.028C133.529 173.849 139.53 170.706 145.538 167.581C145.417 168.621 145.756 169.89 146.708 171.527C149.38 176.118 154.342 182.042 157.497 178.697C159.341 176.746 159.66 175.402 156.207 170.46C154.064 167.395 153.721 164.88 152.822 163.783C158.215 160.971 163.6 158.15 168.935 155.283C172.221 153.093 175.231 151.763 176.941 147.604C177.303 146.665 177.272 144.909 176.544 143.798C175.332 141.894 173.838 141.719 172.254 141.08C165.798 138.927 158.894 138.428 152.254 136.853C149.559 136.279 146.883 135.513 143.456 135.844C138.856 136.104 135.046 140.065 135.482 144.482C135.277 152.023 135.259 159.481 135.577 167.012C97.7279 187.542 120.315 169.665 117.543 213.095C117.399 214.726 117.363 216.409 116.798 217.74C110.471 217.03 103.988 212.924 98.0803 210C96.1909 208.715 93.2361 209.692 92.5624 212.078L92.5851 212.074ZM158.537 153.934C150.244 158.871 143.429 162.724 137.81 165.807C138.709 161.274 139.484 156.728 140.209 152.168C140.867 149.621 140.8 144.369 141.886 142.65C149.703 141.018 158.565 143.811 165.572 146.715C166 146.898 166.867 147.238 167.764 147.592C164.913 149.925 161.69 151.915 158.538 153.925L158.537 153.934ZM116.776 217.86C116.776 217.86 116.772 217.865 116.767 217.869C116.697 218.033 116.712 217.953 116.776 217.86Z" fill="#231F20"/>
<path d="M65.7659 143.867C65.7522 143.804 65.7307 143.723 65.7212 143.664C65.8617 143.52 65.9998 143.412 65.7659 143.867Z" fill="#231F20"/>
<path d="M171.067 62.138C170.934 62.8863 170.326 63.5442 169.523 63.7082C168.405 63.9477 167.505 63.1191 167.507 62.0534C166.489 54.7817 165.564 47.9696 162.314 42.0773C162.121 41.749 161.915 41.416 161.708 41.1007C155.819 51.0532 150.739 65.4094 146.094 75.9635C145.845 76.883 145.033 77.6422 144.026 77.5717C143.06 77.5068 142.402 76.6765 142.554 75.7183C143.597 69.1892 145.44 63.2529 147.391 57.1677C149.912 51.1712 154.802 28.9456 164.343 33.0746C172.812 39.3522 172.525 52.3435 171.085 62.1385L171.067 62.138Z" fill="#231F20"/>
<path d="M149.212 88.8404C147.925 88.1434 147.554 86.5021 148.384 85.1746C150.061 82.4529 151.719 79.6231 153.139 76.7818C154.215 75.1392 153.934 72.6542 156.215 72.5616C157.194 72.591 157.893 73.4002 157.776 74.3685C156.971 79.0242 155.025 82.9605 153.238 87.3224C152.568 88.8831 150.619 89.6217 149.212 88.8404Z" fill="#231F20"/>
<path d="M42.0903 203.461C43.9611 202.282 46.3228 202.769 47.3289 204.523C52.2433 211.864 50.7072 222.128 48.4025 230.322C47.7314 233.382 43.0405 233.04 43.4085 229.944C44.4997 222.201 45.5474 214.891 40.7908 208.964C39.5106 207.274 40.122 204.687 42.0945 203.466L42.0903 203.461Z" fill="#231F20"/>
<path d="M109.138 32.2774C109.241 34.6712 109.531 36.9051 109.354 39.5188C109.048 42.1064 107.617 43.9348 107.114 46.4493C106.396 49.4095 101.842 49.0936 102.125 46.0666C102.232 44.3864 102.545 42.3543 102.989 40.6216C103.17 39.1182 101.957 35.8673 101.582 34.0875C100.342 28.9017 108.648 26.9081 109.139 32.2684L109.138 32.2774Z" fill="#231F20"/>
<path d="M62.1238 231.508C56.5619 237.145 50.7201 231.416 56.9269 224.586C63.1337 217.756 67.207 226.355 62.1238 231.508Z" fill="#231F20"/>
<path d="M72.9396 233.913C73.8117 235.076 73.4896 236.799 72.2227 237.76C70.9557 238.72 69.2137 238.56 68.3417 237.397C67.4696 236.233 67.7917 234.51 69.0587 233.55C70.3256 232.59 72.0676 232.749 72.9396 233.913Z" fill="#231F20"/>
<path d="M143.593 48.3792C142.098 50.0224 139.214 49.1521 139.241 47.0171C139.169 43.3969 140.017 39.867 140.921 36.3702C141.843 32.941 142.716 29.6896 143.913 26.3135C144.193 25.5249 144.811 24.8404 145.663 24.4899C147.13 23.8757 148.722 24.5146 149.215 25.9041C151.484 33.5442 149.115 42.0837 143.588 48.3835L143.593 48.3792Z" fill="#231F20"/>
<path d="M178.652 53.6818C179.034 47.9362 179.198 42.4705 177.673 37.2585C176.671 34.0186 176.346 30.4857 175.874 27.1274C175.573 25.3724 176.656 23.5068 178.467 22.8001C180.453 22.0271 182.562 22.9276 183.177 24.8084C183.901 26.876 184.025 29.803 184.278 31.9863C185.553 39.2412 185.078 46.9806 182.124 54.1711C181.445 56.0578 178.438 55.6586 178.647 53.6861L178.652 53.6818Z" fill="#231F20"/>
<path d="M37.5342 93.8699C31.5108 98.9683 34.5382 106.896 35.9678 112.522C36.9426 116.349 37.1277 120.671 37.0623 124.91C33.7617 125.697 30.6078 126.185 27.1042 127.046C18.0138 130.024 9.82652 135.855 4.09061 143.348C1.90833 147.515 5.24459 150.288 9.10494 150.503C13.5024 151.203 17.7972 152.282 22.1046 153.374C16.423 157.887 11.4881 163.3 6.35038 168.269C4.76954 169.797 6.74283 172.194 8.56373 170.834C15.9497 165.602 23.0332 159.546 31.2765 156.144C32.1992 155.804 33.1943 155.718 33.0635 155.853C35.3709 156.289 37.7689 154.776 38.4239 152.467C39.1687 149.901 37.4087 147.605 34.8394 147.38C28.1687 146.204 21.3418 144.364 14.5899 143.127C18.7492 139.235 23.6394 135.822 28.7704 134.185C29.6216 133.969 30.5213 133.767 31.4257 133.562C34.5389 135.599 38.9155 137.701 42.4801 135.896C46.2125 134.006 45.0612 131.101 44.4249 125.444C44.4249 125.444 44.3699 125.461 44.2825 125.489C43.845 120.466 43.2221 115.651 41.8442 110.639C40.1995 105.391 38.2477 100.42 41.1278 97.9856C42.447 96.7938 44.4064 95.057 45.9299 94.6774C47.609 94.2577 49.214 95.4209 50.3877 96.5801C52.5962 98.9571 54.4526 102.129 55.9636 105.421C55.8094 105.829 55.6456 106.245 55.5004 106.652C55.5004 106.652 55.8469 106.582 56.4167 106.469C56.761 107.272 57.1185 108.08 57.4227 108.877C58.5013 112.376 64.0562 111.235 64.2596 107.533C64.3445 106.636 64.4784 105.744 64.5896 104.857C65.1959 104.736 65.5831 104.663 65.5831 104.663C65.3048 104.269 65.0306 103.88 64.7564 103.491C66.4716 91.1706 70.3965 79.3326 71.6175 66.8133C72.0136 62.6026 73.0416 57.6451 75.5043 58.1758C79.3508 57.2302 81.8528 59.0069 84.3629 61.1198C90.3859 66.3742 95.0919 72.4668 94.8637 81.3754C95.1514 86.0321 95.1832 90.1661 94.7585 94.3357C93.148 94.6097 92.5197 94.4654 90.2274 91.4187C86.6104 86.6038 85.998 82.3493 81.8622 87.1328C77.7305 91.9209 76.3032 96.5439 73.1159 105.337C69.9287 114.13 70.4343 118.238 74.3809 112.168C78.3316 106.102 76.174 102.54 81.274 103.159C82.2728 103.279 83.0224 103.49 83.6583 103.719C82.5829 105.026 81.6037 106.631 80.7761 108.576C77.3823 115.813 74.5805 123.136 73.1562 130.754C69.726 123.124 64.2848 115.384 56.1499 119.944C50.6923 122.982 47.7307 128.916 47.7333 134.634C47.0555 142.768 46.551 151.189 44.8348 159.256C44.5176 160.263 44.0175 161.636 43.7198 162.039C43.368 162.507 42.5434 162.599 41.7951 162.823C32.9367 164.661 24.4975 167.972 16.602 172.902C12.1658 175.863 7.64935 179.525 4.69311 184.8C1.93404 190.861 12.6093 191.083 16.1496 191.051C24.6209 190.383 32.2835 190.613 40.0708 193.059C49.2987 195.67 58.8622 202.249 56.5556 212.859C56.3573 214.613 57.6361 216.071 59.418 216.111C60.4457 216.137 61.4268 215.67 62.0975 214.947C64.2415 212.624 66.2459 210.177 68.0519 207.607C68.4621 207.01 68.8584 206.418 69.241 205.829C69.6621 207.015 70.079 208.196 70.4971 209.36C72.3023 214.564 74.0605 219.86 76.4254 225.161C77.4891 227.45 80.3859 228.267 82.7829 226.897C84.1543 226.119 85.0514 224.789 85.3092 223.409C86.5293 216.787 88.0431 209.95 89.5304 203.17C94.1234 204.163 98.95 205.029 103.467 205.823C105.842 206.056 107.286 203.596 106.986 202.092C104.664 192.739 98.9835 185.081 94.7649 176.698C93.6025 174.406 89.7515 175.221 89.1765 177.801C86.3793 187.063 82.77 198.758 79.6645 209.479C73.8803 195.808 66.8978 177.324 56.038 173.031C58.938 171.474 61.782 169.818 64.5713 168.043C66.6386 166.695 68.6759 165.391 70.6578 163.784C71.9025 163.146 72.5604 162.283 72.8303 161.311C76.8744 158.495 81.662 155.2 85.5626 153.024C85.6674 153.005 85.9354 152.771 86.2011 152.506L86.1188 152.848C86.1188 152.848 88.8783 152.407 91.4161 151.664C93.4217 151.075 91.6082 153.04 90.1954 154.35C86.6582 155.502 83.3446 157.382 81.0777 160.242C77.65 166.48 76.596 173.169 76.7957 179.932C77.2035 183.702 83.0356 182.068 81.913 178.492C80.5551 173.579 81.3002 165.125 85.0674 160.859C88.6025 158.444 93.504 156.939 97.6161 156.96C98.1664 156.999 98.7805 157.089 99.3558 157.155C99.4807 157.235 99.6443 157.338 99.9119 157.499C100.575 157.796 101.327 157.779 101.997 157.517C110.156 158.872 120.196 162.165 127.152 164.013C131.372 165.067 133.279 158.587 128.896 157.94C127.154 157.646 125.394 157.293 123.642 156.949C125.049 155.729 126.244 154.255 127.032 152.613C127.734 151.125 129.666 146.8 130.347 145.222C135.996 131.926 139.708 117.843 140.688 103.816C140.797 102.051 140.927 99.6636 141.011 96.9749C146.415 97.1597 157.672 97.4174 164.248 97.6911C157.551 100.969 150.316 103.77 143.594 107.347C143.161 107.63 142.825 107.673 142.491 108.21C142.311 108.473 141.82 109.067 141.715 109.48C141.784 109.393 141.114 110.55 141.904 111.931C142.959 113.114 143.015 112.703 143.229 112.853C143.451 112.895 143.684 112.911 143.9 112.9C144.275 112.88 144.576 112.558 144.634 112.371C144.76 112.115 144.805 111.973 144.886 111.909C145.074 111.856 145.272 111.853 145.464 111.805C145.43 111.844 145.396 111.884 145.396 111.884C145.362 111.914 145.442 111.867 145.442 111.867C145.516 111.834 145.595 111.805 145.674 111.767C146.9 111.521 148.148 111.416 149.414 111.445C155.041 111.856 161.264 112.558 166.624 114.214C167.299 114.409 167.97 114.649 168.652 114.853C159.65 118.765 149.412 123.499 141.876 126.949C137.992 128.7 139.805 134.374 143.826 133.111C151.744 130.255 159.386 132.195 166.336 135.565C170.833 137.55 174.454 130.659 169.919 128.71C167.047 127.401 163.956 126.35 160.758 125.654L162.117 125.054C167.303 122.689 174.993 119.62 180.375 117.471C182.253 116.712 183.282 114.652 182.677 112.87C182.3 111.761 181.358 111.021 180.268 110.8C176.298 110.023 172.369 109.309 168.344 108.691C164.935 107.993 159.563 107.863 155.896 107.968C155.383 107.979 154.87 107.982 154.357 107.984C159.21 105.954 164.082 103.906 168.785 101.24C170.538 99.8907 172.438 98.8104 173.115 96.5067C173.719 94.2859 171.421 92.6854 169.791 92.6499C160.16 92.5396 150.723 92.8068 141.093 93.2742C141.192 80.2689 139.629 62.5925 129.681 60.4487C132.801 55.075 133.811 49.0199 133.347 43.0817C133.115 41.2477 131.385 40.0718 129.488 40.4626C128.083 40.7517 126.999 41.7983 126.587 43.0666C125.39 46.3085 124.616 49.7466 123.884 53.1726C114.92 51.5464 105.445 51.8483 96.6514 57.2127C96.1143 57.631 95.3882 58.245 94.6733 58.9578C91.7273 55.1616 88.0987 51.6136 82.6994 51.0976C78.064 50.7792 72.8311 51.8131 69.5551 55.3507C66.8645 59.0043 66.8811 63.2275 66.7702 67.0214C66.4879 76.9672 63.1271 86.7041 59.4712 96.2889C57.6708 94.1212 55.6755 92.1044 53.207 90.3645C47.7058 86.6572 42.1299 89.3913 37.5534 93.8525L37.5342 93.8699ZM144.986 108.67C145.006 108.693 145.029 108.689 145.051 108.694C144.805 108.749 144.561 108.769 144.318 108.829C144.228 108.835 144.147 108.707 144.313 108.649C144.404 108.567 144.81 108.611 144.99 108.665L144.986 108.67ZM90.4395 199.082C90.9012 197.032 91.9003 192.62 93.1662 187.02C94.5983 189.571 96.0305 192.122 97.4123 194.684C97.2236 195.717 96.9767 196.811 96.6536 197.773C96.4148 198.492 96.0443 199.036 95.6293 199.444C93.8775 199.293 92.1758 199.197 90.4395 199.082ZM92.0322 135.235C92.1091 135.099 92.1918 135.074 92.0322 135.235ZM67.7614 159.793C67.9926 159.441 68.3626 159.099 68.9664 159.014C68.5619 159.27 68.1616 159.531 67.7614 159.793ZM90.5062 104.61C91.6733 104.829 92.7006 105.249 93.6138 105.823C93.7451 105.939 93.8674 106.054 94.024 106.131C99.8787 110.314 100.673 121.322 103.566 127.446C104.517 130.255 106.07 133.978 106.641 136.946C107.408 139.168 107.342 143.415 110.419 144.036C114.144 144.197 114.54 140.313 115.541 137.934C119.426 124.792 122.118 111.489 123.736 98.1081C123.819 97.2957 123.826 96.2257 123.23 95.1733C122.501 93.9469 120.306 93.7018 119.159 94.7555C118.523 95.2379 118.156 95.8627 117.899 96.2625C116.022 100.044 114.655 102.376 112.697 106.096C110.461 110.78 108.522 115.58 106.681 120.393C105.624 116.975 104.759 113.578 103.354 110.307C104.044 107.824 104.734 105.342 105.289 102.856C106.994 93.1988 111.963 83.1564 117.192 74.7967C121.063 70.0097 127.512 63.0031 129.645 66.7211C133.319 70.781 134.11 78.1485 134.718 83.8985C135.712 97.0216 134.796 110.705 131.457 123.882C129.236 132.941 125.696 141.961 121.676 150.567C120.786 152.703 118.65 154.591 116.404 155.523C112.086 154.658 107.732 153.91 103.357 153.398C103.134 153.113 102.859 152.868 102.497 152.709C103.263 153.14 102.919 152.981 103.062 153.053C103.059 153.03 103.063 153.035 103.047 153.008C102.627 152.207 102.246 151.403 101.893 150.541C99.3906 144.627 98.0036 138.71 94.8802 132.939C92.0669 127.816 87.2042 129.605 85.6974 135.112C84.7005 140.075 85.1168 146.374 83.9709 150.442C80.3445 153.199 76.5797 156.072 72.7412 158.518C72.1255 156.252 70.4757 153.923 69.4162 152.543C67.8076 150.202 66.2229 146.031 65.75 143.845C65.7344 143.875 65.7043 143.919 65.6887 143.95C65.6907 143.856 65.6838 143.762 65.6769 143.668C65.6865 143.659 65.6961 143.65 65.7057 143.642C65.698 143.624 65.695 143.601 65.6921 143.579C65.6825 143.587 65.6777 143.592 65.6729 143.596C65.6339 143.187 65.5535 142.791 65.3463 142.408C63.7376 142.463 69.0572 142.381 60.8637 141.316C58.626 144.728 58.6751 144.926 58.9089 144.732C58.7324 145.653 57.7644 149.166 57.6487 149.731C57.6366 149.776 55.2969 158.406 55.2848 158.45C54.0388 163.504 61.5927 164.587 62.7525 159.544C62.9855 158.521 63.3187 156.896 63.6852 155.116C63.9134 155.454 64.1225 155.81 64.3645 156.144C65.5109 157.696 66.6059 158.759 67.2311 160.112C59.4269 165.153 51.6886 170.862 42.9927 174.179C40.2619 175.306 41.4133 179.308 44.2338 178.443C49.6624 176.663 53.7549 176.383 57.2353 180.576C61.8107 186.284 64.8063 193.57 67.4549 200.868C67.1837 201.213 66.913 201.55 66.6334 201.887C66.0498 198.058 64.0491 194.438 61.351 192.185C56.0424 187.324 49.2859 186.024 43.2914 185.015C37.2814 183.971 31.3472 183 25.1706 183.446C21.1973 183.434 17.0314 184.316 13.3351 183.811C19.8856 173.847 33.4618 168.877 44.5438 166.094C47.0092 165.357 48.2412 161.991 48.7909 160.163C49.9456 156.423 50.5363 152.84 51.1956 149.112C51.9941 144.286 52.6872 139.489 53.2716 134.639C53.4986 132.667 53.573 130.497 54.621 128.679C55.7845 126.364 58.2278 124.005 60.6986 123.708C60.7657 123.647 61.5911 123.932 62.28 124.499C66.9777 128.706 69.8385 135.15 72.2292 141.115C72.9688 143.345 76.6407 142.39 76.5792 140.041C76.8055 130.255 80.6357 119.65 85.1957 110.446C86.4965 108.031 87.9599 104.959 90.4841 104.605L90.5062 104.61ZM59.0311 144.655C59.0311 144.655 59.0215 144.663 59.0167 144.668L59.0263 144.659L59.0311 144.655ZM59.4297 146.229C58.9288 146.062 59.1103 145.974 59.3431 145.922C59.3722 146.022 59.4012 146.121 59.4297 146.229ZM59.0325 144.829C59.104 145.158 59.2217 145.471 59.307 145.796C59.1605 145.509 59.0723 145.162 59.0325 144.829ZM116.936 108.49C115.907 114.571 114.633 120.663 113.283 126.632C113.21 126.916 113.145 127.201 113.071 127.485C112.095 128.074 110.906 128.101 109.415 126.918C109.224 126.765 109.051 126.652 108.892 126.553C108.782 126.259 108.669 125.942 108.567 125.666C111.523 119.88 113.919 114.131 116.936 108.49ZM97.7614 64.2674C98.6289 63.7517 99.4649 63.1722 100.25 62.6137C102.956 61.6517 106.753 60.6418 109.742 60.1271C112.557 59.6027 117.832 60.424 122.047 61.0298C121.901 61.5806 121.781 62.1502 121.617 62.6916C121.607 62.7092 121.61 62.7317 121.604 62.7539C118.971 64.6629 116.927 67.239 114.678 69.7059C109.354 76.8448 105.068 85.2733 102.497 93.8025C101.978 93.8944 101.102 93.9397 99.589 93.9166C100.253 84.036 101.582 73.2036 97.7614 64.2674Z" fill="#231F20"/>
<path d="M128.569 202.284C128.391 197.931 132.363 197.047 135.69 197.358C139.017 197.668 140.308 202.824 139.203 206.502C139.203 206.502 135.943 210.394 133.406 211.137C130.873 211.876 128.747 206.645 128.568 202.292L128.569 202.284Z" fill="#231F20"/>
<path d="M168.723 11.0783C166.84 10.0993 168.812 5.34487 171.355 2.32714C173.894 -0.695204 176.683 1.023 178.372 3.17383C180.066 5.32033 177.669 9.53802 174.814 11.3553C174.814 11.3553 170.611 12.0619 168.728 11.0829L168.723 11.0783Z" fill="#231F20"/>
<path d="M166.099 165.753C168.613 163.608 171.524 168.414 169.651 170.14C165.395 174.077 163.587 167.889 166.099 165.753Z" fill="#231F20"/>
<path d="M181.392 129.121C186.357 128.187 186.203 134.29 183.04 135.43C175.335 138.203 176.428 130.056 181.392 129.121Z" fill="#231F20"/>
<path d="M180.676 98.2658C186.771 95.0633 187.802 100.54 182.425 104.024C176.013 108.175 174.582 101.468 180.676 98.2658Z" fill="#231F20"/>
<path d="M150.748 190.634C150.337 189.055 152.749 187.462 154.798 187.797C156.852 188.127 157.562 191.999 154.986 192.853C151.683 193.944 151.16 192.214 150.748 190.634Z" fill="#231F20"/>
<path d="M99.8328 227.179C102.603 227.096 104.832 231.699 99.7342 231.505C94.6956 231.309 97.0669 227.266 99.8328 227.179Z" fill="#231F20"/>
<path d="M32.3258 213.064C33.0843 215.796 33.3009 218.305 28.9938 219.608C21.2292 221.959 22.5794 212.431 25.6012 211.318C28.6277 210.2 31.5624 210.337 32.321 213.068L32.3258 213.064Z" fill="#231F20"/>
<path d="M29.6394 195.739C33.1181 195.225 33.1881 196.351 33.9922 198.103C34.7962 199.855 33.3399 202.377 30.9543 202.296C30.9543 202.296 36.0676 203.614 30.0686 202.494C24.0787 201.374 26.156 196.256 29.6346 195.743L29.6394 195.739Z" fill="#231F20"/>
<path d="M19.5461 201.522C20.2345 203.128 19.6544 204.749 17.2688 204.668C17.2688 204.668 13.6093 203.905 13.3086 202.477C13.0079 201.049 14.1561 200.179 15.7471 199.21C17.3381 198.242 18.8529 199.921 19.5461 201.522Z" fill="#231F20"/>
<path d="M4.54767 161.917C-2.6564 161.24 3.31208 157.187 5.53204 157.393C7.7472 157.603 6.56669 162.103 4.54767 161.917Z" fill="#231F20"/>
<path d="M9.70691 132.036C5.93134 131.126 8.43064 128.282 10.8165 128.362C13.1975 128.447 12.5452 132.721 9.70691 132.036Z" fill="#231F20"/>
<path d="M28.7745 118.98C28.4016 120.205 23.0153 121.771 21.4579 121.93C16.4284 122.438 13.3631 120.751 13.2283 119.198C13.0936 117.645 14.3235 114.825 22.0714 114.852C29.8193 114.879 29.1431 117.751 28.7745 118.98Z" fill="#231F20"/>
<path d="M27.7591 102.513C25.9943 106.687 25.4813 105.66 22.8135 104.845C20.1408 104.035 19.3916 102.006 24.6401 97.3232C29.8795 92.6399 29.2223 99.0552 27.7591 102.513Z" fill="#231F20"/>
<path d="M45.4116 79.6696C45.2796 81.8909 43.0498 84.6089 39.1011 83.2769C35.6533 82.1122 36.9845 78.7404 39.9507 77.1996C42.9168 75.6589 45.5394 77.4436 45.4116 79.6696Z" fill="#231F20"/>
<path d="M55.3258 77.0872C57.9982 77.8973 57.799 82.0554 54.9892 84.1919C51.3781 86.9266 49.5521 83.1241 50.1228 80.7995C50.6936 78.4748 52.6577 76.2816 55.3211 77.0915L55.3258 77.0872Z" fill="#231F20"/>
<path d="M55.9161 60.3521C60.9225 58.4426 60.412 63.9133 56.8942 66.4632C49.8868 71.5459 50.9096 62.2616 55.9161 60.3521Z" fill="#231F20"/>
<path d="M91.7711 49.4131C84.2302 48.2867 86.8927 41.5434 92.6471 41.6625C98.4016 41.7816 95.7615 50.012 91.7711 49.4131Z" fill="#231F20"/>
<path d="M154.23 8.34973C159.984 8.46883 157.344 16.6993 153.354 16.1004C145.813 14.974 148.475 8.23063 154.23 8.34973Z" fill="#231F20"/>
<path d="M112.529 43.0864C110.673 40.9533 115.87 38.544 116.704 41.0985C117.689 44.1278 114.385 45.2195 112.529 43.0864Z" fill="#231F20"/>
<path d="M162.506 22.1274C160.649 19.9943 165.846 17.585 166.68 20.1396C167.665 23.1688 164.362 24.2605 162.506 22.1274Z" fill="#231F20"/>
<path d="M188.739 50.5931C187.325 48.9663 191.285 47.1294 191.922 49.082C192.674 51.3916 190.154 52.22 188.739 50.5931Z" fill="#231F20"/>
<path d="M105.34 74.0425C101.072 73.5024 102.343 69.7082 105.555 69.8629C108.766 70.0265 107.952 74.3716 105.34 74.0425Z" fill="#231F20"/>
<path d="M50.9769 113.207C54.1884 113.371 53.3738 117.716 50.7627 117.387C46.4941 116.847 47.7648 113.052 50.9769 113.207Z" fill="#231F20"/>
<path d="M193.608 27.5471C196.82 27.7107 196.005 32.0558 193.394 31.7267C189.126 31.1866 190.396 27.3924 193.608 27.5471Z" fill="#231F20"/>
<path d="M82.2951 71.4841C85.5206 72.3464 84.4176 76.3155 81.1857 75.1574C76.9583 73.6427 79.0696 70.6217 82.2951 71.4841Z" fill="#231F20"/>
<path d="M128.256 29.0262C132.525 29.5664 129.656 35.4 125.916 35.5205C120.382 35.7035 123.986 28.4859 128.256 29.0262Z" fill="#231F20"/>
<path d="M106.995 168.867C111.008 168.894 107.302 174.218 104.933 173.502C100.931 172.285 102.983 168.841 106.995 168.867Z" fill="#231F20"/>
</g>
<defs>
<clipPath id="clip0_333_1785">
<rect width="198" height="242" fill="white"/>
</clipPath>
</defs>
</svg>
