<svg width="684" height="684" viewBox="0 0 684 684" fill="none" xmlns="http://www.w3.org/2000/svg">
<g opacity="0.5">
<g clip-path="url(#clip0_68_14435)">
<rect width="684" height="684" rx="342" fill="#D300B4"/>
<g opacity="0.2">
<path d="M685.07 36.2305C686.942 35.3172 688.847 34.3577 690.405 32.9519C691.31 32.1343 692.056 31.2669 692.685 30.2191C693.21 29.3442 693.57 28.391 693.946 27.4456C694.123 26.9987 694.305 26.5525 694.512 26.1186C694.619 25.8955 694.746 25.6827 694.854 25.4616C694.988 25.1899 694.581 25.8263 694.877 25.4256C694.955 25.3196 695.028 25.2113 695.109 25.1069C695.254 24.919 695.412 24.7449 695.573 24.5705C695.739 24.3905 695.579 24.4502 695.538 24.5986C695.549 24.5578 695.73 24.4396 695.778 24.4032C695.879 24.3256 695.984 24.2529 696.091 24.1841C696.157 24.1421 696.445 24.0116 696.185 24.1212C695.878 24.2509 696.337 24.0694 696.36 24.0607C696.407 24.0444 696.454 24.0282 696.501 24.012C696.719 23.9511 696.691 23.9538 696.418 24.0199C696.544 23.9151 696.87 24.0108 697.021 23.9764C696.657 24.0591 696.643 23.9408 696.826 23.9764C696.894 23.9895 696.964 23.9962 697.032 24.0092C697.115 24.0254 697.199 24.0559 697.283 24.0686C697.526 24.1054 696.808 23.8763 697.141 24.029C697.298 24.101 697.455 24.1639 697.608 24.2465C697.664 24.2766 697.732 24.3308 697.789 24.3498C697.764 24.3411 697.376 24.067 697.627 24.2509C697.757 24.3462 697.889 24.4376 698.016 24.5373C698.29 24.7544 698.551 24.9894 698.804 25.231C699.876 26.2527 700.833 27.3135 702.128 28.0678C703.919 29.1116 706.182 28.9269 707.847 27.717C709.759 26.3279 710.579 24.0689 710.918 21.8136C711.257 19.5559 711.48 17.276 711.755 15.0096C712.043 12.6419 712.33 10.2742 712.618 7.90655C712.895 5.61995 713.152 3.32623 713.159 1.01986C713.165 -1.43326 712.788 -3.74716 711.585 -5.90995C711.069 -6.83907 710.412 -7.6507 709.736 -8.4659C709.045 -9.29771 708.419 -10.1936 707.702 -11.0013C705.077 -13.9575 700.617 -15.2691 696.877 -13.7416C696.356 -13.5288 695.861 -13.2507 695.377 -12.9671C695.283 -12.9121 695.189 -12.8567 695.095 -12.8018C694.711 -12.5783 695.126 -12.8045 695.132 -12.8208C695.117 -12.7812 694.891 -12.7235 694.839 -12.6981C694.462 -12.5154 695.136 -12.6946 694.753 -12.6894C694.82 -12.6886 694.888 -12.6879 694.955 -12.6871C694.788 -12.7262 694.789 -12.7235 694.956 -12.6796C694.998 -12.6677 695.04 -12.6562 695.082 -12.6444C694.936 -12.7211 694.939 -12.7159 695.091 -12.6293C695.129 -12.6064 695.167 -12.5834 695.206 -12.5605C695.049 -12.6993 695.08 -12.6578 695.297 -12.4351C695.299 -12.4466 695.142 -12.64 695.148 -12.6313C695.154 -12.6218 695.024 -12.8465 695.014 -12.8477C695.142 -12.8354 695.186 -12.4533 695.087 -12.7325C695.012 -12.9473 694.923 -13.155 694.856 -13.3733C694.585 -14.2498 694.406 -15.135 694.038 -15.9811C693.62 -16.9415 693.095 -17.8888 692.415 -18.6893C691.051 -20.2932 689.183 -21.5491 687.034 -21.7164C684.838 -21.8868 682.673 -21.2587 681.153 -19.6026C680.521 -18.9136 680.123 -18.0335 679.72 -17.1997C679.642 -17.0368 679.563 -16.8742 679.478 -16.7144C679.437 -16.6361 679.392 -16.5594 679.351 -16.4807C679.157 -16.1025 679.563 -16.7089 679.38 -16.5234C679.361 -16.504 679.021 -16.1089 679.027 -16.0867C679.012 -16.1401 679.424 -16.3742 679.129 -16.1947C678.739 -15.9573 679.159 -16.2093 679.176 -16.1951C679.145 -16.2216 678.974 -16.0764 678.935 -16.1088C678.886 -16.1504 679.351 -16.1266 679.011 -16.15C679.472 -16.1183 679.123 -16.1401 679.005 -16.1607C678.942 -16.1717 678.629 -16.2516 678.881 -16.1773C679.174 -16.0906 678.708 -16.2572 678.692 -16.2647C678.598 -16.3078 678.508 -16.3584 678.415 -16.4047C678.326 -16.4494 678.124 -16.61 678.447 -16.3766C678.314 -16.4731 678.177 -16.5641 678.046 -16.6638C677.664 -16.9549 677.306 -17.2757 676.964 -17.6119C676.863 -17.7112 676.765 -17.8132 676.665 -17.9129C676.61 -17.9667 676.402 -18.1878 676.663 -17.9089C676.469 -18.1166 676.28 -18.3294 676.091 -18.5414C674.669 -20.1354 673.279 -21.718 671.351 -22.71C669.536 -23.6438 667.321 -23.8325 665.449 -22.9449C663.704 -22.1171 662.422 -20.7082 661.151 -19.2925C660.885 -18.9963 660.619 -18.7008 660.344 -18.4129C660.199 -18.2614 660.053 -18.1122 659.903 -17.9659C659.851 -17.9153 659.623 -17.7155 659.84 -17.9026C660.08 -18.1087 659.715 -17.7966 659.668 -17.757C659.376 -17.5079 659.069 -17.2745 658.743 -17.07C658.667 -17.0221 658.589 -16.9786 658.513 -16.9312C658.13 -16.693 658.835 -17.0692 658.564 -16.9604C658.361 -16.879 658.165 -16.786 657.956 -16.7156C657.855 -16.6816 657.752 -16.6551 657.65 -16.6215C657.438 -16.5519 657.524 -16.6923 657.797 -16.6464C657.655 -16.6705 657.445 -16.5811 657.297 -16.5617C656.873 -16.5064 656.449 -16.4996 656.021 -16.5024C655.722 -16.5044 656.127 -16.4724 656.145 -16.4957C656.136 -16.4838 655.874 -16.5158 655.885 -16.5151C655.71 -16.5297 655.536 -16.5483 655.362 -16.5696C654.92 -16.6234 654.481 -16.6954 654.043 -16.7745C652.336 -17.0827 650.662 -17.4521 648.919 -17.4841C647.1 -17.5177 645.198 -16.9731 643.778 -15.8082C642.287 -14.5852 641.286 -12.9256 640.698 -11.1033C640.064 -9.1403 639.847 -7.16103 639.794 -5.10463C639.736 -2.87025 639.868 -0.633881 640.135 1.58429C640.682 6.13494 641.739 10.6452 642.996 15.0488C645.316 23.1778 649.103 31.3812 656.159 36.4469C659.34 38.7307 663.053 40.3437 666.981 40.6795C671.302 41.0485 675.57 40.1297 679.605 38.618C681.468 37.9195 683.281 37.0995 685.07 36.2305C685.998 35.78 686.687 34.7473 686.246 33.6928C685.866 32.7854 684.704 32.0331 683.708 32.5172C681.919 33.3862 680.105 34.2066 678.242 34.9043C677.286 35.2626 676.318 35.589 675.336 35.8714C674.902 35.996 674.467 36.1119 674.029 36.2183C673.919 36.2448 673.81 36.2689 673.701 36.2958C674.104 36.1953 673.812 36.272 673.726 36.2902C673.452 36.3468 673.177 36.4022 672.902 36.452C671.943 36.6245 670.974 36.7443 670.001 36.7985C669.53 36.8246 669.058 36.8357 668.586 36.8298C668.477 36.8286 667.84 36.8021 668.264 36.8262C667.985 36.81 667.707 36.7898 667.429 36.7621C666.518 36.6715 665.615 36.5141 664.728 36.2883C664.509 36.2325 664.292 36.1728 664.075 36.1095C663.981 36.0818 663.877 36.0589 663.787 36.0225C663.844 36.0454 664.182 36.1554 663.841 36.0359C663.416 35.8872 662.994 35.7329 662.577 35.5597C661.767 35.2219 660.98 34.8315 660.219 34.3952C660.022 34.2825 659.828 34.1662 659.635 34.0487C659.552 33.9981 659.312 33.8862 659.679 34.0768C659.593 34.0321 659.506 33.9645 659.426 33.9119C659.047 33.6615 658.675 33.3993 658.311 33.1275C657.6 32.5963 656.918 32.0264 656.267 31.4232C655.949 31.1297 655.639 30.8279 655.337 30.5194C655.266 30.4466 655.195 30.373 655.124 30.3002C654.869 30.0376 655.114 30.2991 655.16 30.3418C654.977 30.1701 654.815 29.964 654.649 29.775C653.368 28.3142 652.248 26.7194 651.267 25.0436C651.141 24.828 651.017 24.6108 650.895 24.3925C650.834 24.2833 650.773 24.1738 650.714 24.0642C650.726 24.0867 650.438 23.5449 650.573 23.8027C650.684 24.0167 650.504 23.6687 650.48 23.6212C650.423 23.5097 650.367 23.3981 650.311 23.2862C650.172 23.0061 650.035 22.7249 649.903 22.4421C649.435 21.4497 649.007 20.4399 648.61 19.4174C647.814 17.3638 647.148 15.2619 646.557 13.1407C646.263 12.0858 645.987 11.0261 645.725 9.96334C645.6 9.45666 645.478 8.94878 645.36 8.44051C645.304 8.20121 645.251 7.96112 645.196 7.72143C645.278 8.08216 645.206 7.76851 645.191 7.69929C645.152 7.51892 645.113 7.33895 645.075 7.15859C644.188 2.96432 643.611 -1.32013 643.743 -5.61487C643.747 -5.73748 643.752 -5.86011 643.756 -5.98233C643.754 -5.9222 643.733 -5.60063 643.754 -5.93605C643.767 -6.1259 643.779 -6.31616 643.795 -6.50562C643.833 -6.93873 643.885 -7.37066 643.952 -7.80021C644.021 -8.23214 644.105 -8.66129 644.209 -9.08609C644.255 -9.27397 644.307 -9.45987 644.358 -9.64657C644.435 -9.93056 644.397 -9.59673 644.333 -9.57735C644.354 -9.58368 644.463 -9.95469 644.473 -9.98317C644.602 -10.3364 644.749 -10.6833 644.917 -11.0199C645.01 -11.2062 645.116 -11.3842 645.214 -11.5673C645.342 -11.8046 645.007 -11.2691 645.163 -11.4874C645.228 -11.5796 645.29 -11.6749 645.357 -11.7666C645.476 -11.93 645.602 -12.0882 645.736 -12.2401C645.794 -12.3073 645.855 -12.3734 645.917 -12.4383C645.932 -12.4545 645.948 -12.4707 645.963 -12.4869C646.116 -12.6384 646.088 -12.6147 645.878 -12.4153C645.911 -12.5237 646.199 -12.6859 646.292 -12.7551C646.441 -12.8662 646.75 -12.9801 646.858 -13.1261C646.83 -13.0885 646.418 -12.9228 646.754 -13.0703C646.84 -13.1079 646.923 -13.1483 647.01 -13.1843C647.169 -13.2511 647.331 -13.31 647.496 -13.3618C647.578 -13.3876 647.661 -13.4081 647.742 -13.4334C648.082 -13.5391 647.632 -13.3891 647.596 -13.4058C647.694 -13.3603 648.102 -13.488 648.224 -13.5011C648.588 -13.5394 648.948 -13.5284 649.312 -13.5402C649.597 -13.5493 648.816 -13.5818 649.253 -13.5434C649.34 -13.5359 649.427 -13.5307 649.514 -13.5228C649.733 -13.5034 649.951 -13.4785 650.169 -13.4496C651.721 -13.244 653.24 -12.8366 654.797 -12.6606C656.539 -12.4636 658.377 -12.5055 659.989 -13.276C661.68 -14.0841 662.966 -15.3953 664.203 -16.7733C664.467 -17.0684 664.731 -17.3647 665 -17.6554C665.125 -17.7903 665.251 -17.9248 665.379 -18.0569C665.443 -18.1221 665.507 -18.1874 665.571 -18.2519C665.762 -18.4421 665.823 -18.4516 665.587 -18.2768C665.887 -18.4983 666.148 -18.7692 666.455 -18.9856C666.614 -19.0975 666.778 -19.1964 666.943 -19.2989C667.193 -19.4547 666.896 -19.1905 666.813 -19.2312C666.849 -19.2134 667.067 -19.3455 667.105 -19.3609C667.13 -19.3712 667.653 -19.5366 667.653 -19.5464C667.653 -19.5235 667.138 -19.465 667.52 -19.5164C667.608 -19.5283 667.696 -19.5445 667.785 -19.5544C667.938 -19.5718 668.214 -19.6339 668.359 -19.5805C668.057 -19.6912 668.109 -19.6054 668.272 -19.5753C668.411 -19.5496 668.553 -19.5358 668.692 -19.5065C668.785 -19.4871 668.876 -19.4622 668.968 -19.4404C669.334 -19.3546 668.927 -19.4673 668.895 -19.4658C669.047 -19.4745 669.355 -19.2826 669.494 -19.2166C669.658 -19.1387 669.949 -19.0378 670.073 -18.9073C670.04 -18.9421 669.713 -19.1517 670.018 -18.9409C670.12 -18.8709 670.222 -18.8017 670.321 -18.7289C670.66 -18.4821 670.982 -18.2131 671.289 -17.9283C671.438 -17.7903 671.583 -17.6483 671.725 -17.5035C671.805 -17.4224 671.884 -17.3402 671.962 -17.2583C671.663 -17.5688 672.014 -17.2013 672.076 -17.1321C672.821 -16.3106 673.541 -15.4653 674.325 -14.6798C675.9 -13.1016 678.164 -11.5768 680.479 -12.4573C681.571 -12.8722 682.298 -13.7273 682.874 -14.7031C683.068 -15.0322 683.233 -15.3767 683.398 -15.7212C683.476 -15.8862 683.555 -16.0515 683.637 -16.2149C683.687 -16.3165 683.739 -16.4174 683.792 -16.5174C683.828 -16.5831 683.965 -16.9304 683.859 -16.6511C683.764 -16.4035 683.851 -16.6389 683.906 -16.7144C683.972 -16.8066 684.041 -16.8956 684.114 -16.9814C684.149 -17.0221 684.288 -17.1436 684.296 -17.1792C684.286 -17.1345 683.932 -16.8849 684.216 -17.1005C684.357 -17.2081 684.495 -17.3188 684.646 -17.4145C684.629 -17.4038 684.87 -17.5573 684.875 -17.551C684.622 -17.4204 684.565 -17.3884 684.705 -17.4549C684.765 -17.4837 684.827 -17.5106 684.889 -17.5363C685.056 -17.6056 685.228 -17.6546 685.398 -17.7147C685.721 -17.8294 685.339 -17.7017 685.276 -17.6985C685.361 -17.7029 685.459 -17.7341 685.545 -17.7476C685.748 -17.7792 685.953 -17.799 686.159 -17.8081C686.251 -17.812 686.343 -17.8081 686.434 -17.8132C686.582 -17.8112 686.526 -17.8156 686.267 -17.8259C686.336 -17.8215 686.405 -17.8156 686.473 -17.8081C686.657 -17.7895 686.839 -17.7618 687.019 -17.7254C687.132 -17.7025 687.243 -17.672 687.355 -17.6471C687.59 -17.5949 687.43 -17.7068 687.267 -17.6779C687.386 -17.6989 687.664 -17.5217 687.775 -17.4695C687.863 -17.428 687.949 -17.3837 688.034 -17.3374C688.153 -17.2733 688.522 -17.1614 688.131 -17.2887C688.47 -17.1784 688.814 -16.7488 689.076 -16.5163C689.443 -16.1907 688.902 -16.7381 689.095 -16.5024C689.16 -16.4233 689.229 -16.3478 689.294 -16.2683C689.457 -16.0689 689.61 -15.8624 689.753 -15.6488C689.869 -15.4772 689.978 -15.3016 690.081 -15.122C690.151 -15.001 690.364 -14.7609 690.092 -15.1113C690.146 -15.0413 690.193 -14.9044 690.228 -14.8301C690.425 -14.4053 690.591 -13.9666 690.73 -13.5193C690.972 -12.7397 691.103 -11.9292 691.457 -11.1872C692.005 -10.0378 692.844 -9.11378 694.132 -8.81832C695.435 -8.5189 696.588 -9.11102 697.677 -9.74704C697.703 -9.76287 698.143 -10.0512 697.844 -9.85225C697.6 -9.69048 697.846 -9.85186 697.92 -9.88707C698.109 -9.97567 698.301 -10.056 698.497 -10.1264C698.671 -10.1889 698.849 -10.2395 699.026 -10.2921C699.175 -10.3364 699.32 -10.2937 698.911 -10.2731C699.042 -10.2794 699.19 -10.3261 699.32 -10.3451C699.686 -10.3989 700.057 -10.4246 700.426 -10.4234C700.507 -10.423 700.62 -10.4321 700.704 -10.4175C700.237 -10.4986 700.547 -10.421 700.678 -10.4076C700.886 -10.3866 701.094 -10.3577 701.299 -10.321C701.505 -10.2838 701.71 -10.2387 701.913 -10.1857C702.003 -10.1624 702.092 -10.1351 702.183 -10.1105C702.464 -10.0338 701.741 -10.2861 702.165 -10.1101C702.554 -9.94876 702.938 -9.7957 703.308 -9.59239C703.352 -9.56787 703.519 -9.45038 703.55 -9.45394C703.517 -9.45038 703.166 -9.71422 703.474 -9.49983C703.625 -9.39383 703.777 -9.28782 703.923 -9.17351C704.086 -9.04496 704.244 -8.91008 704.396 -8.76808C704.464 -8.70519 704.527 -8.63795 704.595 -8.57545C704.773 -8.41051 704.344 -8.8832 704.574 -8.59525C705.869 -6.97552 707.326 -5.408 708.366 -3.60751C708.135 -4.0074 708.477 -3.35635 708.527 -3.23967C708.617 -3.03003 708.699 -2.81723 708.773 -2.60127C708.858 -2.35287 708.927 -2.10171 708.994 -1.84817C708.973 -1.92807 708.927 -2.23065 708.992 -1.84105C709.023 -1.65949 709.053 -1.47835 709.076 -1.29561C709.205 -0.270384 709.23 0.771868 709.21 1.80422C709.208 1.92565 709.205 2.04747 709.201 2.1689C709.202 2.142 709.179 2.73925 709.191 2.46C709.202 2.22822 709.183 2.60912 709.18 2.65975C709.172 2.78118 709.165 2.903 709.156 3.02443C709.116 3.60231 709.064 4.17979 709.005 4.75609C708.898 5.8007 708.768 6.84335 708.641 7.88559C708.365 10.1583 708.089 12.4307 707.813 14.7035C707.548 16.8939 707.343 19.103 706.998 21.2824C706.925 21.7468 706.835 22.2087 706.711 22.6624C706.695 22.7198 706.583 23.0485 706.668 22.8159C706.768 22.5386 706.576 23.0429 706.577 23.0394C706.486 23.2672 706.356 23.48 706.264 23.7063C706.157 23.9728 706.539 23.3566 706.249 23.7395C706.186 23.8225 706.127 23.9076 706.062 23.9895C705.944 24.1382 705.803 24.3438 705.644 24.4514C706.031 24.1896 705.526 24.5175 705.42 24.5883C705.363 24.6263 705.236 24.7275 705.16 24.7489C705.638 24.616 705.201 24.7105 705.079 24.7536C705.021 24.7742 704.865 24.843 704.791 24.8414C705.248 24.8513 704.965 24.8074 704.863 24.8054C704.8 24.8043 704.325 24.7746 704.708 24.828C705.028 24.8727 704.78 24.8331 704.701 24.8205C704.573 24.7995 704.371 24.7244 704.247 24.7315C704.274 24.7299 704.717 24.9091 704.438 24.7904C704.36 24.7572 704.28 24.7283 704.202 24.6935C704.06 24.6302 703.926 24.5547 703.79 24.4811C703.511 24.3304 704.186 24.7564 703.777 24.4633C703.512 24.2731 703.262 24.0622 703.02 23.8435C702.056 22.9729 701.225 21.9374 700.145 21.2029C698.539 20.1104 696.572 19.618 694.721 20.4644C692.626 21.4228 691.362 23.3206 690.515 25.3912C690.14 26.3061 689.811 27.2431 689.346 28.1177C689.293 28.2169 689.232 28.3127 689.182 28.4131C689.05 28.6781 689.356 28.1734 689.189 28.4056C689.049 28.6006 688.915 28.7984 688.765 28.9867C688.633 29.1524 688.494 29.3134 688.35 29.4692C688.278 29.5471 688.205 29.6239 688.131 29.6994C688.076 29.7552 687.684 30.0859 688.044 29.7892C687.334 30.375 686.617 30.9185 685.826 31.3935C685.453 31.617 685.075 31.8365 684.688 32.0339C685.114 31.8167 684.549 32.1019 684.433 32.1604C684.192 32.2819 683.949 32.4009 683.707 32.5196C682.78 32.9721 682.09 34.0017 682.532 35.0574C682.911 35.9612 684.074 36.7166 685.07 36.2305Z" fill="white"/>
<path d="M696.76 85.9764C701.555 83.638 706.413 81.1465 710.396 77.5392C712.419 75.7067 714.16 73.6832 715.57 71.3412C717.003 68.9608 717.97 66.3463 718.993 63.7746C720.725 59.4217 723.17 53.8727 728.248 52.6691C729.294 52.4211 729.982 52.4567 730.849 52.6082C731.77 52.7695 732.007 52.8589 732.893 53.2845C733.817 53.7283 734.057 53.8976 734.862 54.5032C735.566 55.0332 736.233 55.6107 736.88 56.2083C739.627 58.7461 742.031 61.666 745.239 63.6563C749.114 66.0608 753.764 66.0695 757.568 63.4482C762.227 60.2384 763.992 54.6855 764.784 49.3458C765.702 43.1628 766.321 36.924 767.075 30.7192C767.85 24.3344 768.626 17.9501 769.4 11.5653C770.119 5.64097 770.809 -0.303947 770.816 -6.28011C770.819 -9.2585 770.719 -12.3073 770.131 -15.2347C769.544 -18.1565 768.514 -20.8758 767.061 -23.476C765.627 -26.0447 763.763 -28.2715 761.896 -30.5289C760.048 -32.7628 758.383 -35.1942 756.424 -37.3289C750.058 -44.2639 739.068 -47.0433 730.376 -43.0053C729.19 -42.4543 728.095 -41.7534 726.953 -41.1225C726.069 -40.6344 724.978 -40.0846 723.942 -40.3718C723.357 -40.534 722.931 -40.9342 722.467 -41.6347C722.016 -42.3143 721.645 -43.3039 721.352 -44.2401C720.639 -46.5157 720.185 -48.8323 719.262 -51.0446C718.265 -53.4344 716.967 -55.7439 715.316 -57.7453C712.151 -61.5813 707.742 -64.435 702.7 -64.8393C697.91 -65.2237 692.896 -63.7587 689.685 -60.0292C688.158 -58.256 687.254 -56.0548 686.231 -53.9783C685.782 -53.0665 685.355 -52.2225 684.746 -51.4389C684.2 -50.7368 683.632 -50.2088 682.897 -49.9248C680.871 -49.1416 678.659 -50.4034 677.057 -51.5781C674.85 -53.1971 672.947 -55.1748 671.126 -57.2074C667.575 -61.1723 664.12 -65.2653 659.32 -67.7663C654.884 -70.0778 649.748 -70.3978 645.264 -68.0479C641.208 -65.9227 638.221 -62.3494 635.203 -59.0004C632.315 -55.7949 629.225 -52.5567 625.052 -51.2831C621.302 -50.138 617.051 -50.7095 613.089 -51.4251C608.705 -52.2169 604.353 -53.2592 599.876 -53.3126C595.431 -53.366 590.954 -52.0947 587.534 -49.1725C583.858 -46.0327 581.66 -41.7138 580.276 -37.1509C578.833 -32.3914 578.441 -27.4255 578.352 -22.4762C578.245 -16.4972 578.634 -10.5167 579.372 -4.58484C580.859 7.37302 583.638 19.2146 586.958 30.7876C590.331 42.5473 594.676 54.112 601.075 64.585C606.43 73.3509 613.359 81.2644 621.746 87.2469C629.938 93.0901 639.476 97.0823 649.559 97.9137C660.668 98.8302 671.692 96.3035 682.042 92.4118C687.057 90.5259 691.943 88.3176 696.76 85.9764C697.721 85.5097 698.33 84.5141 697.935 83.4387C697.596 82.5127 696.364 81.7932 695.398 82.2631C685.811 86.9225 675.801 91.2133 665.259 93.1265C655.257 94.9417 645.046 94.3867 635.593 90.4859C626.855 86.8802 619.119 80.9907 612.862 73.943C605.465 65.611 600.093 55.7234 596.024 45.3991C591.688 34.3981 588.6 22.8543 586.116 11.305C583.672 -0.0583267 582.041 -11.6645 582.305 -23.3111C582.49 -31.5094 583.877 -42.0319 591.21 -47.0061C594.497 -49.2358 598.466 -49.6218 602.339 -49.2413C606.591 -48.8236 610.737 -47.7153 614.961 -47.1098C619.219 -46.4991 623.715 -46.3875 627.765 -48.0519C632.048 -49.8121 635.3 -53.2018 638.34 -56.5797C641.035 -59.5743 643.91 -63.1412 647.503 -64.7705C651.476 -66.5721 655.76 -65.6114 659.366 -63.1638C663.704 -60.219 666.803 -55.9255 670.413 -52.2007C673.789 -48.7176 678.896 -44.2753 684.146 -46.1708C688.636 -47.7921 689.619 -52.8383 691.904 -56.4088C694.117 -59.8678 698.382 -61.334 702.384 -60.91C706.931 -60.4283 710.644 -57.6647 713.207 -53.9763C714.553 -52.0374 715.558 -49.9058 716.301 -47.6678C717.003 -45.5498 717.341 -43.3138 718.229 -41.257C719.128 -39.1737 720.536 -37.3 722.783 -36.6122C725.638 -35.7385 728.175 -37.2755 730.558 -38.6658C734.168 -40.7721 738.5 -41.3302 742.64 -40.5771C746.71 -39.8366 750.677 -37.8348 753.463 -34.7437C755.396 -32.5991 757.058 -30.178 758.904 -27.9539C760.698 -25.7915 762.466 -23.6378 763.842 -21.1752C766.646 -16.1582 766.955 -10.398 766.862 -4.7743C766.767 1.00053 766.007 6.74413 765.311 12.4695C764.557 18.6822 763.803 24.8945 763.048 31.1072C762.32 37.1012 761.754 43.1418 760.82 49.1073C760.11 53.6374 758.549 59.0558 753.885 61.0011C753.403 61.202 752.904 61.3725 752.39 61.4583C752.113 61.5046 751.832 61.5303 751.55 61.5441C751.442 61.5493 750.767 61.5378 751.046 61.556C750.662 61.5311 750.279 61.4729 749.904 61.3938C749.687 61.3483 749.473 61.2945 749.261 61.2324C749.044 61.1688 749.255 61.2297 749.293 61.2423C749.174 61.2016 749.055 61.1577 748.938 61.1122C747.318 60.4825 746.39 59.7745 745.03 58.599C742.315 56.2534 740.053 53.3945 737.141 51.2752C733.72 48.7853 729.473 47.662 725.443 49.4664C720.397 51.7257 717.618 56.6205 715.638 61.5275C714.641 63.9996 713.737 66.522 712.45 68.8639C711.286 70.9824 709.686 72.9182 707.876 74.5173C704.179 77.7817 699.805 80.1138 695.398 82.2627C694.438 82.7307 693.827 83.7242 694.222 84.8005C694.561 85.7256 695.794 86.4475 696.76 85.9764Z" fill="white"/>
<path d="M708.447 135.723C716.175 131.955 723.984 127.927 730.401 122.112C733.53 119.277 736.255 116.112 738.437 112.49C740.777 108.607 742.353 104.339 744.023 100.143C747.004 92.6491 751.203 83.5502 759.827 81.3748C765.789 79.8706 770.986 83.5241 775.138 87.36C779.53 91.4182 783.383 96.1508 788.506 99.3428C794.448 103.046 801.509 103.161 807.372 99.1205C814.705 94.0683 817.398 85.2969 818.643 76.9052C820.14 66.8163 821.151 56.6364 822.38 46.5118C823.645 36.0938 824.912 25.6761 826.176 15.2581C827.335 5.69917 828.459 -3.89418 828.47 -13.5374C828.481 -23.1714 827.334 -32.4472 822.572 -40.973C820.231 -45.1641 817.189 -48.7978 814.143 -52.4811C811.129 -56.1259 808.415 -60.0975 805.215 -63.5771C795.175 -74.4947 777.808 -78.734 764.159 -72.3932C762.327 -71.542 760.628 -70.4637 758.869 -69.4777C757.144 -68.5098 755.035 -67.4976 753.01 -68.0391C749.948 -68.8575 748.676 -72.4521 747.83 -75.1509C746.667 -78.8638 745.926 -82.6443 744.42 -86.2536C742.834 -90.0555 740.763 -93.7078 738.137 -96.8907C733.167 -102.916 726.254 -107.329 718.348 -107.963C710.991 -108.554 703.224 -106.273 698.295 -100.549C695.874 -97.7364 694.452 -94.2398 692.83 -90.9462C691.451 -88.1478 689.777 -84.8791 686.686 -83.6842C682.935 -82.2341 678.911 -84.4064 675.931 -86.5917C672.243 -89.2972 669.074 -92.6177 666.033 -96.0138C660.392 -102.312 654.886 -108.862 647.26 -112.836C640.356 -116.433 632.424 -116.98 625.428 -113.334C612.526 -106.611 606.66 -90.2841 592.3 -85.9007C585.76 -83.9045 578.72 -84.8846 572.128 -86.0756C565.089 -87.3468 558.081 -89.054 550.892 -89.1402C543.835 -89.2248 536.809 -87.2547 531.376 -82.6134C525.65 -77.7222 522.193 -70.902 520.038 -63.7938C517.714 -56.1319 517.056 -48.1409 516.913 -40.172C516.739 -30.4161 517.373 -20.6574 518.577 -10.9782C520.991 8.42481 525.497 27.6344 530.884 46.4129C536.356 65.4896 543.382 84.2737 553.763 101.265C562.452 115.487 573.664 128.299 587.271 138.005C600.471 147.421 615.839 153.805 632.079 155.144C649.977 156.62 667.763 152.491 684.432 146.224C692.615 143.147 700.588 139.543 708.447 135.723C710.715 134.621 709.376 130.896 707.085 132.01C691.33 139.667 674.902 146.664 657.58 149.808C641.049 152.808 624.163 151.832 608.545 145.388C594.082 139.419 581.317 129.649 570.963 117.987C558.824 104.314 550.009 88.0574 543.332 71.1154C536.215 53.0587 531.169 34.1117 527.093 15.1564C523.105 -3.38552 520.444 -22.3234 520.873 -41.3274C521.046 -48.9837 521.812 -56.7505 524.239 -64.0557C526.44 -70.6817 530.031 -77.1135 535.924 -81.1108C547.753 -89.135 562.844 -83.3266 575.625 -81.4933C582.362 -80.527 589.459 -80.3403 595.868 -82.9734C602.642 -85.7572 607.784 -91.1713 612.59 -96.5114C617.129 -101.555 621.744 -107.384 628.074 -110.254C635.07 -113.427 642.504 -111.6 648.657 -107.423C655.738 -102.617 660.791 -95.6139 666.683 -89.5345C671.825 -84.2284 679.79 -76.9889 687.865 -79.9048C694.865 -82.4327 696.354 -90.6539 699.99 -96.2334C703.89 -102.217 711.372 -104.744 718.276 -104.012C725.999 -103.194 732.38 -98.4582 736.73 -92.1949C738.988 -88.9444 740.69 -85.3565 741.935 -81.6048C743.082 -78.1486 743.633 -74.5006 745.082 -71.1441C746.389 -68.1158 748.431 -65.3123 751.713 -64.3167C755.948 -63.0316 759.778 -65.4484 763.299 -67.5024C769.526 -71.1346 776.912 -72.1167 783.96 -70.8344C790.926 -69.5671 797.666 -66.1212 802.417 -60.8127C805.561 -57.3003 808.282 -53.3647 811.295 -49.7337C814.223 -46.2063 817.113 -42.692 819.354 -38.6725C824.044 -30.2603 824.666 -20.7278 824.51 -11.2875C824.352 -1.75549 823.112 7.72193 821.964 17.1733C820.733 27.3105 819.502 37.4477 818.271 47.5849C817.084 57.3653 816.159 67.2217 814.635 76.9562C813.402 84.8318 810.577 93.956 802.519 97.3161C796.675 99.7538 791.271 97.0131 786.844 93.1871C782.414 89.3599 778.723 84.6945 773.972 81.2371C768.729 77.4214 762.276 75.7336 756.11 78.4949C748.2 82.0365 743.909 89.8598 740.815 97.5273C739.187 101.561 737.712 105.677 735.612 109.499C733.599 113.162 730.862 116.442 727.741 119.215C721.648 124.627 714.364 128.46 707.084 132.009C704.819 133.115 706.157 136.84 708.447 135.723Z" fill="white"/>
<path d="M720.135 185.47C730.795 180.272 741.556 174.706 750.406 166.685C754.642 162.847 758.35 158.542 761.305 153.639C764.55 148.253 766.737 142.333 769.053 136.512C773.274 125.902 779.242 113.194 791.407 110.08C799.959 107.891 807.42 112.989 813.396 118.511C819.435 124.09 824.737 130.634 831.774 135.029C839.783 140.031 849.256 140.25 857.178 134.792C867.184 127.898 870.806 115.908 872.504 104.465C874.58 90.4702 875.982 76.3484 877.688 62.3041C879.443 47.8528 881.199 33.4018 882.952 18.9505C884.553 5.75661 886.11 -7.48479 886.125 -20.795C886.14 -34.0075 884.62 -46.7715 878.084 -58.4698C874.837 -64.2834 870.617 -69.3241 866.392 -74.4333C862.21 -79.4894 858.446 -84.9988 854.007 -89.8252C840.299 -104.729 816.545 -110.423 797.944 -101.781C793.219 -99.5863 787.654 -94.2924 782.079 -95.7064C777.518 -96.8634 775.569 -102.043 774.31 -106.062C772.696 -111.212 771.669 -116.456 769.58 -121.463C767.405 -126.677 764.561 -131.672 760.961 -136.037C754.185 -144.25 744.768 -150.223 733.998 -151.087C724.073 -151.884 713.554 -148.789 706.908 -141.069C703.591 -137.217 701.653 -132.425 699.43 -127.914C697.421 -123.835 694.973 -119.182 690.478 -117.444C685.003 -115.327 679.164 -118.409 674.807 -121.605C669.637 -125.397 665.204 -130.061 660.941 -134.821C653.21 -143.453 645.655 -152.46 635.201 -157.906C625.827 -162.789 615.104 -163.56 605.593 -158.621C587.63 -149.293 579.569 -126.63 559.549 -120.519C550.34 -117.708 540.455 -119.049 531.169 -120.726C521.475 -122.478 511.811 -124.85 501.91 -124.968C492.241 -125.084 482.666 -122.415 475.221 -116.055C467.444 -109.412 462.728 -100.09 459.801 -90.4371C456.597 -79.8727 455.673 -68.8566 455.476 -57.8686C455.234 -44.3357 456.114 -30.7989 457.785 -17.3724C461.125 9.47581 467.358 36.0531 474.811 62.0371C482.382 88.4308 492.088 114.434 506.451 137.943C518.475 157.622 533.969 175.332 552.798 188.763C571.005 201.751 592.202 210.526 614.6 212.374C639.288 214.41 663.835 208.678 686.823 200.035C698.173 195.768 709.233 190.769 720.135 185.47C722.403 184.368 721.064 180.643 718.773 181.757C696.851 192.411 674.005 202.116 649.902 206.49C626.842 210.675 603.281 209.279 581.498 200.29C561.31 191.959 543.516 178.308 529.065 162.032C512.184 143.017 499.925 120.392 490.64 96.8316C480.743 71.7194 473.739 45.3692 468.07 19.0078C462.538 -6.71231 458.847 -32.9823 459.442 -59.3436C459.881 -78.7446 463.16 -103.36 480.638 -115.215C497.275 -126.501 518.305 -118.456 536.29 -115.877C545.506 -114.555 555.204 -114.293 563.971 -117.895C573.236 -121.702 580.269 -129.141 586.841 -136.443C593.239 -143.552 599.727 -151.693 608.646 -155.738C618.604 -160.254 629.202 -157.621 637.949 -151.683C647.772 -145.015 654.78 -135.302 662.954 -126.868C669.858 -119.743 680.69 -109.704 691.585 -113.638C701.076 -117.065 703.129 -128.5 708.078 -136.057C713.66 -144.58 724.325 -148.157 734.168 -147.114C745.068 -145.96 754.117 -139.252 760.256 -130.414C763.425 -125.852 765.824 -120.808 767.572 -115.542C769.163 -110.747 769.927 -105.687 771.937 -101.031C773.649 -97.0627 776.329 -93.3162 780.644 -92.0204C786.265 -90.3327 791.378 -93.6172 796.043 -96.3385C804.862 -101.483 815.293 -102.909 825.283 -101.091C835.142 -99.2975 844.665 -94.4051 851.374 -86.8808C855.726 -81.9987 859.507 -76.5506 863.689 -71.513C867.749 -66.6199 871.759 -61.7457 874.867 -56.1694C881.447 -44.3658 882.379 -31.0536 882.16 -17.8C881.94 -4.51035 880.219 8.70097 878.619 21.8779C876.912 35.9396 875.204 50.0013 873.497 64.063C871.849 77.6299 870.567 91.3024 868.452 104.805C866.695 116.024 862.604 128.857 851.156 133.631C842.798 137.117 835.002 133.255 828.661 127.776C816.985 117.687 804.673 99.511 786.779 107.523C776.007 112.346 770.201 123.1 765.994 133.527C763.736 139.123 761.69 144.832 758.777 150.133C755.916 155.339 752.042 159.971 747.61 163.912C739.112 171.467 728.929 176.804 718.773 181.756C716.507 182.861 717.845 186.586 720.135 185.47Z" fill="white"/>
<path d="M731.825 235.217C745.418 228.589 759.129 221.486 770.413 211.259C775.755 206.418 780.448 200.972 784.174 194.789C788.326 187.9 791.123 180.327 794.084 172.882C799.544 159.16 807.283 142.832 822.988 138.786C834.131 135.916 843.854 142.454 851.657 149.663C859.341 156.763 866.093 165.115 875.044 170.716C885.118 177.02 897.007 177.34 906.985 170.465C919.665 161.728 924.216 146.518 926.366 132.024C929.023 114.124 930.816 96.0606 932.997 78.0966C935.242 59.612 937.488 41.1277 939.731 22.6431C941.772 5.81422 943.763 -11.0751 943.782 -28.052C943.801 -44.8429 941.906 -61.0951 933.598 -75.9665C929.444 -83.4026 924.048 -89.8502 918.642 -96.3857C913.294 -102.852 908.482 -109.903 902.801 -116.073C885.416 -134.958 855.29 -142.114 831.73 -131.169C825.532 -128.289 818.465 -121.553 811.15 -123.373C805.092 -124.88 802.466 -131.627 800.792 -136.972C798.728 -143.559 797.413 -150.267 794.741 -156.671C791.977 -163.297 788.361 -169.635 783.785 -175.181C775.204 -185.584 763.283 -193.116 749.649 -194.211C737.156 -195.213 723.885 -191.303 715.521 -181.588C711.31 -176.697 708.854 -170.609 706.032 -164.881C703.392 -159.522 700.17 -153.483 694.27 -151.202C687.073 -148.42 679.418 -152.411 673.684 -156.618C667.033 -161.496 661.334 -167.503 655.85 -173.626C646.028 -184.592 636.424 -196.055 623.144 -202.974C611.304 -209.142 597.78 -210.143 585.76 -203.906C562.743 -191.964 552.475 -162.972 526.799 -155.135C514.921 -151.509 502.191 -153.211 490.211 -155.375C477.862 -157.606 465.542 -160.643 452.928 -160.794C440.647 -160.941 428.524 -157.573 419.066 -149.494C409.238 -141.099 403.263 -129.275 399.564 -117.078C395.481 -103.611 394.291 -89.5694 394.04 -75.5622C393.73 -58.2524 394.856 -40.9374 396.992 -23.7636C401.259 10.5298 409.218 44.4748 418.739 77.6642C428.409 111.375 440.796 144.598 459.141 174.624C474.498 199.76 494.275 222.368 518.325 239.523C541.54 256.084 568.566 267.251 597.122 269.607C628.599 272.203 659.908 264.868 689.214 253.849C703.734 248.389 717.88 241.995 731.825 235.217C734.093 234.115 732.754 230.39 730.462 231.504C702.373 245.157 673.108 257.568 642.225 263.172C612.636 268.542 582.4 266.725 554.453 255.192C528.538 244.498 505.715 226.967 487.169 206.077C465.546 181.721 449.844 152.726 437.95 122.549C425.273 90.3807 416.311 56.6268 409.049 22.8595C401.973 -10.0393 397.251 -43.6409 398.014 -77.36C398.579 -102.375 402.824 -134.038 425.354 -149.32C446.798 -163.866 473.769 -153.586 496.957 -150.26C508.652 -148.583 520.951 -148.245 532.075 -152.816C543.831 -157.647 552.755 -167.11 561.093 -176.374C569.35 -185.549 577.712 -196.002 589.219 -201.22C602.14 -207.08 615.901 -203.64 627.243 -195.941C639.808 -187.412 648.771 -174.989 659.226 -164.2C667.891 -155.259 681.594 -142.419 695.307 -147.371C707.287 -151.697 709.906 -166.346 716.168 -175.88C723.432 -186.943 737.278 -191.569 750.062 -190.215C764.138 -188.724 775.854 -180.044 783.782 -168.631C787.862 -162.758 790.958 -156.257 793.208 -149.478C795.243 -143.345 796.221 -136.873 798.792 -130.917C800.912 -126.005 804.226 -121.325 809.576 -119.724C816.577 -117.628 822.983 -121.789 828.786 -125.174C840.198 -131.831 853.672 -133.7 866.606 -131.347C879.366 -129.025 891.651 -122.684 900.33 -112.948C905.897 -106.703 910.734 -99.7351 916.082 -93.2914C921.276 -87.0328 926.404 -80.7979 930.38 -73.6656C938.851 -58.4719 940.092 -41.378 939.81 -24.3118C939.527 -7.26456 937.326 9.68022 935.274 26.5831C933.089 44.5693 930.905 62.5559 928.721 80.5422C926.614 97.8955 924.974 115.384 922.269 132.655C919.989 147.217 914.63 163.759 899.792 169.947C888.921 174.481 878.732 169.498 870.476 162.365C855.718 149.613 840.082 126.418 817.447 136.553C803.814 142.657 796.492 156.342 791.172 169.528C788.284 176.685 785.667 183.987 781.941 190.768C778.232 197.518 773.222 203.501 767.477 208.61C756.572 218.308 743.494 225.149 730.462 231.504C728.197 232.609 729.536 236.333 731.825 235.217Z" fill="white"/>
<path d="M743.513 284.962C760.039 276.904 776.7 268.264 790.42 255.831C796.867 249.988 802.545 243.4 807.042 235.936C812.1 227.545 815.507 218.319 819.115 209.249C825.811 192.417 835.323 172.465 854.568 167.491C868.302 163.941 880.287 171.916 889.916 180.812C899.249 189.436 907.452 199.584 918.313 206.4C930.444 214.013 944.764 214.422 956.791 206.135C972.144 195.556 977.623 177.127 980.227 159.581C983.464 137.775 985.648 115.771 988.305 93.8869C991.04 71.369 993.776 48.8515 996.508 26.3336C998.991 5.86975 1001.42 -14.6677 1001.44 -35.3116C1001.46 -55.6805 999.192 -75.4213 989.112 -93.4653C984.052 -102.524 977.477 -110.378 970.893 -118.34C964.378 -126.217 958.517 -134.809 951.595 -142.323C930.531 -165.188 894.036 -173.809 865.516 -160.559C857.851 -156.997 849.27 -148.812 840.22 -151.042C832.667 -152.904 829.363 -161.212 827.273 -167.884C824.758 -175.909 823.157 -184.081 819.902 -191.882C816.549 -199.921 812.161 -207.601 806.61 -214.329C796.224 -226.921 781.799 -236.013 765.3 -237.337C750.241 -238.545 734.216 -233.821 724.135 -222.11C719.028 -216.179 716.056 -208.797 712.634 -201.851C709.363 -195.213 705.366 -187.788 698.062 -184.964C689.142 -181.516 679.673 -186.418 672.561 -191.634C664.429 -197.598 657.466 -204.948 650.76 -212.435C638.848 -225.735 627.194 -239.655 611.087 -248.046C596.781 -255.5 580.458 -256.73 565.927 -249.196C537.856 -234.64 525.382 -199.32 494.05 -189.756C479.503 -185.315 463.929 -187.378 449.253 -190.028C434.249 -192.739 419.273 -196.44 403.948 -196.624C389.054 -196.803 374.382 -192.737 362.912 -182.938C351.034 -172.791 343.799 -158.465 339.329 -143.724C334.366 -127.354 332.909 -110.288 332.604 -93.2612C332.227 -72.1744 333.598 -51.0812 336.201 -30.1605C341.394 11.5781 351.08 52.8903 362.668 93.2861C374.437 134.314 389.504 174.756 411.831 211.3C430.522 241.893 454.582 269.399 483.852 290.278C512.076 310.411 544.931 323.97 579.644 326.834C617.91 329.99 655.981 321.053 691.606 307.658C709.292 301.009 726.525 293.219 743.513 284.962C745.781 283.86 744.442 280.135 742.151 281.249C707.894 297.899 672.21 313.018 634.547 319.853C598.428 326.408 561.517 324.17 527.405 310.093C495.765 297.036 467.913 275.624 445.271 250.12C418.906 220.423 399.76 185.059 385.258 148.263C369.8 109.04 358.881 67.8828 350.025 26.7094C341.406 -13.368 335.654 -54.3013 336.582 -95.3777C337.274 -126.006 342.485 -164.716 370.067 -183.426C396.318 -201.232 429.231 -188.717 457.621 -184.645C471.795 -182.612 486.696 -182.2 500.178 -187.739C514.424 -193.594 525.239 -205.081 535.343 -216.307C545.459 -227.547 555.694 -240.312 569.79 -246.705C585.673 -253.908 602.598 -249.661 616.535 -240.201C631.841 -229.811 642.76 -214.677 655.496 -201.535C665.922 -190.777 682.497 -175.138 699.026 -181.106C713.494 -186.33 716.684 -204.195 724.255 -215.705C733.202 -229.308 750.23 -234.984 765.954 -233.318C783.207 -231.491 797.591 -220.839 807.307 -206.851C812.298 -199.666 816.092 -191.709 818.844 -183.415C821.324 -175.945 822.515 -168.06 825.646 -160.805C828.174 -154.949 832.124 -149.336 838.507 -147.429C846.888 -144.925 854.589 -149.962 861.53 -154.011C875.534 -162.18 892.053 -164.493 907.928 -161.605C923.591 -158.755 938.637 -150.964 949.286 -139.018C956.068 -131.409 961.96 -122.921 968.475 -115.071C974.803 -107.447 981.05 -99.8516 985.894 -91.1633C996.254 -72.5798 997.805 -51.7034 997.459 -30.825C997.115 -10.0206 994.433 10.6585 991.928 31.2869C989.268 53.1981 986.607 75.1088 983.947 97.0199C981.379 118.16 979.381 139.464 976.086 160.504C973.282 178.409 966.658 198.66 948.429 206.262C935.045 211.844 922.463 205.74 912.293 196.953C894.453 181.538 875.49 153.325 848.117 165.581C831.622 172.967 822.784 189.583 816.351 205.528C812.833 214.247 809.645 223.143 805.106 231.403C800.55 239.695 794.403 247.03 787.345 253.308C774.034 265.147 758.06 273.494 742.151 281.251C739.885 282.354 741.224 286.078 743.513 284.962Z" fill="white"/>
<path d="M755.204 334.71C774.662 325.222 794.275 315.044 810.428 300.404C817.981 293.559 824.644 285.83 829.913 277.086C835.876 267.191 839.894 256.313 844.148 245.619C852.081 225.678 863.366 202.1 886.151 196.197C902.476 191.968 916.722 201.38 928.178 211.964C939.159 222.11 948.811 234.061 961.584 242.087C975.777 251.005 992.519 251.509 1006.6 241.807C1024.63 229.387 1031.03 207.738 1034.09 187.141C1037.91 161.429 1040.48 135.484 1043.62 109.68C1046.84 83.1292 1050.07 56.5783 1053.29 30.0272C1056.21 5.92871 1059.07 -18.2571 1059.1 -42.568C1059.12 -66.5154 1056.48 -89.7445 1044.63 -110.961C1038.66 -121.643 1030.91 -130.904 1023.14 -140.291C1015.46 -149.579 1008.55 -159.713 1000.39 -168.571C975.648 -195.414 932.785 -205.501 899.303 -189.946C890.172 -185.704 880.074 -176.068 869.292 -178.709C860.244 -180.925 856.262 -190.795 853.756 -198.794C850.791 -208.256 848.902 -217.892 845.065 -227.09C841.122 -236.541 835.961 -245.564 829.436 -253.474C817.243 -268.255 800.315 -278.905 780.952 -280.46C763.325 -281.874 744.549 -276.334 732.749 -262.629C726.748 -255.658 723.258 -246.98 719.236 -238.817C715.335 -230.899 710.563 -222.088 701.855 -218.722C691.213 -214.608 679.928 -220.419 671.439 -226.645C661.826 -233.696 653.597 -242.389 645.671 -251.239C631.668 -266.873 617.964 -283.25 599.031 -293.114C582.259 -301.852 563.136 -303.312 546.095 -294.48C512.97 -277.312 498.289 -235.661 461.302 -224.371C444.085 -219.115 425.666 -221.539 408.296 -224.676C390.637 -227.866 373.005 -232.233 354.967 -232.449C337.461 -232.659 320.241 -227.893 306.758 -216.375C292.829 -204.477 284.335 -187.65 279.094 -170.363C273.25 -151.092 271.528 -131 271.169 -110.954C270.724 -86.0909 272.34 -61.2195 275.41 -36.5511C281.529 12.6327 292.942 61.3125 306.597 108.914C320.464 157.259 338.213 204.921 364.522 247.982C386.547 284.032 414.889 316.436 449.38 341.039C482.611 364.744 521.295 380.696 562.167 384.067C607.223 387.784 652.054 377.244 693.998 361.473C714.854 353.631 735.173 344.446 755.204 334.71C757.472 333.608 756.133 329.883 753.842 330.996C713.417 350.645 671.314 368.47 626.871 376.535C584.224 384.275 540.637 381.616 500.361 364.995C462.995 349.576 430.115 324.283 403.375 294.165C372.268 259.126 349.68 217.394 332.569 173.98C314.33 127.701 301.453 79.1409 291.005 30.5612C280.842 -16.6944 274.059 -64.9601 275.154 -113.394C275.973 -149.637 282.149 -195.393 314.784 -217.53C345.841 -238.597 384.696 -223.846 418.289 -219.028C434.942 -216.64 452.444 -216.152 468.284 -222.661C485.021 -229.539 497.727 -243.05 509.596 -256.238C521.571 -269.543 533.68 -284.621 550.365 -292.188C569.21 -300.734 589.298 -295.681 605.829 -284.461C623.878 -272.209 636.751 -254.366 651.769 -238.869C663.954 -226.295 683.403 -207.854 702.749 -214.84C719.713 -220.965 723.448 -242.045 732.345 -255.53C742.991 -271.666 763.171 -278.399 781.849 -276.42C802.278 -274.256 819.329 -261.633 830.835 -245.069C836.736 -236.573 841.227 -227.16 844.482 -217.352C847.406 -208.543 848.81 -199.246 852.502 -190.692C855.437 -183.893 860.023 -177.346 867.44 -175.133C877.201 -172.221 886.196 -178.135 894.274 -182.848C910.871 -192.53 930.434 -195.286 949.252 -191.862C967.816 -188.485 985.625 -179.245 998.244 -165.087C1006.24 -156.115 1013.19 -146.108 1020.87 -136.852C1028.33 -127.862 1035.7 -118.906 1041.41 -108.661C1053.66 -86.6877 1055.52 -62.0288 1055.11 -37.3386C1054.7 -12.7766 1051.54 11.6359 1048.58 35.9899C1045.45 61.8255 1042.31 87.6612 1039.17 113.497C1036.15 138.423 1033.79 163.544 1029.91 188.352C1026.58 209.599 1018.69 233.56 997.067 242.576C981.17 249.206 966.195 241.981 954.112 231.54C933.189 213.462 910.9 180.23 878.788 194.608C859.432 203.275 849.077 222.823 841.531 241.526C837.383 251.807 833.624 262.296 828.272 272.036C822.869 281.871 815.586 290.558 807.215 298.003C791.497 311.983 772.627 321.835 753.842 330.995C751.576 332.101 752.914 335.826 755.204 334.71Z" fill="white"/>
<path d="M766.891 384.458C789.282 373.54 811.845 361.825 830.433 344.979C839.092 337.131 846.739 328.261 852.78 318.236C859.648 306.838 864.277 294.308 869.177 281.99C878.347 258.939 891.406 231.734 917.729 224.904C936.645 219.996 953.153 230.845 966.435 243.117C979.064 254.785 990.166 268.539 1004.85 277.775C1021.11 287.997 1040.27 288.597 1056.4 277.481C1077.1 263.218 1084.44 238.35 1087.95 214.702C1092.35 185.084 1095.31 155.198 1098.92 125.474C1102.64 94.8896 1106.35 64.306 1110.06 33.7211C1113.43 5.98767 1116.72 -21.8463 1116.75 -49.8237C1116.78 -77.3491 1113.76 -104.067 1100.14 -128.456C1093.27 -140.76 1084.34 -151.428 1075.39 -162.242C1066.54 -172.939 1058.59 -184.621 1049.18 -194.817C1020.74 -225.629 971.543 -237.198 933.087 -219.331C922.49 -214.408 910.874 -203.323 898.36 -206.374C887.818 -208.944 883.156 -220.377 880.234 -229.702C876.819 -240.602 874.644 -251.701 870.224 -262.297C865.691 -273.16 859.758 -283.525 852.258 -292.617C838.26 -309.587 818.828 -321.798 796.601 -323.581C776.406 -325.202 754.877 -318.848 741.36 -303.146C734.464 -295.136 730.457 -285.163 725.835 -275.783C721.304 -266.585 715.757 -256.388 705.644 -252.479C693.281 -247.699 680.179 -254.419 670.313 -261.656C659.219 -269.793 649.725 -279.829 640.577 -290.043C624.484 -308.011 608.731 -326.844 586.971 -338.181C567.733 -348.203 545.81 -349.894 526.259 -339.763C488.08 -319.983 471.193 -272.003 428.549 -258.985C408.663 -252.915 387.399 -255.699 367.336 -259.324C347.021 -262.993 326.733 -268.025 305.984 -268.273C285.865 -268.514 266.096 -263.051 250.601 -249.813C234.622 -236.163 224.868 -216.834 218.855 -197.003C212.131 -174.829 210.143 -151.712 209.73 -128.647C209.218 -100.007 211.08 -71.3571 214.615 -42.9414C221.661 13.6876 234.801 69.7351 250.522 124.542C266.489 180.204 286.918 235.085 317.209 284.665C342.568 326.171 375.193 363.473 414.905 391.801C453.144 419.078 497.657 437.421 544.686 441.301C596.531 445.577 648.124 433.435 696.388 415.287C720.411 406.252 743.817 395.673 766.891 384.458C769.159 383.356 767.82 379.631 765.529 380.744C718.937 403.39 670.415 423.922 619.192 433.219C570.015 442.143 519.754 439.064 473.313 419.898C430.222 402.116 392.312 372.944 361.477 338.211C325.627 297.83 299.596 249.73 279.877 199.698C258.858 146.364 244.022 90.3995 231.981 34.4137C220.274 -20.0204 212.462 -75.6179 213.723 -131.409C214.669 -173.266 221.809 -226.07 259.497 -251.634C295.361 -275.961 340.157 -258.975 378.953 -253.411C398.085 -250.667 418.188 -250.104 436.386 -257.581C455.614 -265.482 470.21 -281.019 483.845 -296.169C497.679 -311.539 511.662 -328.929 530.936 -337.67C552.743 -347.56 575.995 -341.7 595.12 -328.718C615.912 -314.605 630.74 -294.051 648.039 -276.2C661.984 -261.811 684.306 -240.569 706.468 -248.571C725.918 -255.594 730.227 -279.891 740.432 -295.352C752.759 -314.028 776.123 -321.81 797.74 -319.52C821.346 -317.02 841.065 -302.424 854.359 -283.286C861.172 -273.478 866.36 -262.609 870.117 -251.287C873.485 -241.14 875.102 -230.431 879.356 -220.577C882.698 -212.835 887.919 -205.354 896.37 -202.835C907.512 -199.515 917.8 -206.305 927.017 -211.682C946.206 -222.876 968.813 -226.076 990.574 -222.117C1012.04 -218.212 1032.61 -207.523 1047.2 -191.154C1056.41 -180.819 1064.41 -169.291 1073.26 -158.629C1081.86 -148.273 1090.34 -137.957 1096.92 -126.156C1111.06 -100.794 1113.23 -72.3515 1112.76 -43.8495C1112.29 -15.5303 1108.65 12.6165 1105.24 40.696C1101.62 70.4562 1098.01 100.216 1094.4 129.977C1090.91 158.689 1088.2 187.626 1083.72 216.203C1079.87 240.792 1070.71 268.463 1045.7 278.893C1027.29 286.571 1009.92 278.225 995.927 266.13C971.923 245.389 946.307 207.139 909.456 223.638C887.239 233.586 875.368 256.065 866.709 277.528C861.931 289.37 857.601 301.453 851.436 312.672C845.185 324.05 836.765 334.09 827.082 342.703C808.957 358.825 787.191 370.182 765.529 380.744C763.263 381.849 764.602 385.574 766.891 384.458Z" fill="white"/>
<path d="M775.469 420.961C800.012 408.995 824.74 396.151 845.114 377.686C854.585 369.102 862.954 359.395 869.561 348.431C877.095 335.931 882.17 322.187 887.545 308.676C897.592 283.422 911.991 253.363 940.904 245.967C961.763 240.631 979.846 252.424 994.511 265.974C1008.35 278.76 1020.52 293.836 1036.6 303.96C1054.37 315.14 1075.31 315.81 1092.95 303.655C1115.61 288.041 1123.63 260.81 1127.48 234.923C1132.3 202.439 1135.55 169.66 1139.51 137.06C1143.58 103.517 1147.66 69.9727 1151.73 36.428C1155.42 6.0271 1159.03 -24.4838 1159.06 -55.1521C1159.1 -85.303 1155.8 -114.581 1140.88 -141.299C1133.34 -154.793 1123.54 -166.494 1113.74 -178.353C1104.03 -190.086 1095.31 -202.901 1084.99 -214.081C1053.85 -247.811 999.979 -260.458 957.88 -240.899C946.209 -235.477 933.478 -223.327 919.694 -226.679C908.055 -229.509 902.894 -242.089 899.668 -252.388C895.922 -264.342 893.536 -276.515 888.688 -288.137C883.724 -300.035 877.223 -311.386 869.008 -321.345C853.685 -339.922 832.416 -353.277 808.087 -355.229C786.008 -357.001 762.459 -350.049 747.681 -332.883C740.128 -324.11 735.742 -313.186 730.681 -302.913C725.686 -292.777 719.571 -281.562 708.428 -277.255C694.801 -271.987 680.367 -279.375 669.49 -287.352C657.309 -296.287 646.886 -307.309 636.843 -318.522C619.215 -338.204 601.958 -358.839 578.124 -371.257C557.076 -382.222 533.1 -384.081 511.706 -372.999C469.819 -351.301 451.312 -298.676 404.518 -284.392C382.674 -277.724 359.322 -280.773 337.281 -284.754C315.018 -288.776 292.781 -294.295 270.041 -294.568C248.006 -294.832 226.367 -288.856 209.395 -274.356C191.911 -259.421 181.234 -238.255 174.654 -216.558C167.285 -192.254 165.101 -166.917 164.649 -141.636C164.086 -110.224 166.129 -78.802 170.007 -47.6365C177.732 14.456 192.139 75.9101 209.377 136.005C226.883 197.036 249.279 257.215 282.492 311.577C310.298 357.088 346.066 397.984 389.609 429.045C431.523 458.943 480.314 479.042 531.862 483.294C588.688 487.981 645.244 474.663 698.144 454.772C724.491 444.865 750.162 433.262 775.469 420.961C777.737 419.859 776.398 416.134 774.106 417.248C722.989 442.094 669.757 464.612 613.558 474.811C559.59 484.606 504.431 481.217 453.465 460.185C406.172 440.669 364.573 408.649 330.731 370.53C291.402 326.23 262.844 273.456 241.212 218.567C218.152 160.056 201.88 98.659 188.67 37.2385C175.829 -22.4633 167.261 -83.4409 168.644 -144.631C169.683 -190.608 177.532 -248.583 218.928 -276.662C258.319 -303.382 307.476 -284.755 350.088 -278.644C371.039 -275.639 393.052 -275.02 412.98 -283.209C434.035 -291.861 450.019 -308.883 464.95 -325.473C480.147 -342.359 495.506 -361.446 516.679 -371.048C540.66 -381.923 566.233 -375.472 587.262 -361.198C610.066 -345.719 626.328 -323.177 645.302 -303.598C660.538 -287.876 684.97 -264.579 709.198 -273.327C730.471 -281.009 735.201 -307.667 746.366 -324.577C759.928 -345.118 785.628 -353.669 809.402 -351.151C835.339 -348.404 857.015 -332.361 871.622 -311.333C879.103 -300.563 884.803 -288.625 888.929 -276.192C892.622 -265.063 894.396 -253.318 899.062 -242.51C902.703 -234.075 908.39 -225.909 917.6 -223.167C929.754 -219.548 940.992 -226.981 951.044 -232.844C972.135 -245.148 996.976 -248.674 1020.9 -244.322C1044.49 -240.029 1067.09 -228.277 1083.12 -210.285C1093.22 -198.949 1102 -186.307 1111.71 -174.613C1121.14 -163.255 1130.44 -151.941 1137.66 -138.998C1153.18 -111.148 1155.58 -79.9297 1155.06 -48.6305C1154.55 -17.554 1150.55 13.3327 1146.81 44.1465C1142.85 76.7866 1138.89 109.427 1134.92 142.067C1131.1 173.559 1128.12 205.295 1123.21 236.638C1118.98 263.68 1108.89 294.074 1081.39 305.541C1061.14 313.988 1042.01 304.819 1026.61 291.511C1000.35 268.816 972.289 226.882 931.96 244.939C907.643 255.827 894.66 280.457 885.184 303.944C879.944 316.932 875.195 330.184 868.434 342.489C861.56 354.999 852.307 366.031 841.66 375.501C821.77 393.195 797.88 405.656 774.106 417.248C771.841 418.353 773.18 422.078 775.469 420.961Z" fill="white"/>
<path d="M784.047 457.467C810.741 444.451 837.636 430.479 859.796 410.395C870.079 401.076 879.169 390.531 886.343 378.627C894.541 365.024 900.065 350.067 905.914 335.365C916.865 307.838 932.571 275.096 964.079 267.032C986.844 261.206 1006.58 274.041 1022.59 288.834C1037.63 302.737 1050.86 319.135 1068.36 330.148C1087.63 342.286 1110.36 343.025 1129.5 329.833C1154.13 312.867 1162.83 283.273 1167 255.147C1172.25 219.797 1175.79 184.126 1180.1 148.649C1184.53 112.146 1188.97 75.6424 1193.39 39.1379C1197.41 6.06989 1201.33 -27.1184 1201.37 -60.4776C1201.41 -93.2541 1197.84 -125.093 1181.61 -154.138C1173.41 -168.823 1162.75 -181.556 1152.08 -194.462C1141.52 -207.23 1132.03 -221.177 1120.79 -233.342C1086.95 -269.991 1028.41 -283.716 982.673 -262.465C969.927 -256.543 956.081 -243.329 941.026 -246.982C928.292 -250.072 922.632 -263.798 919.101 -275.07C915.025 -288.08 912.428 -301.327 907.152 -313.973C901.756 -326.908 894.689 -339.245 885.758 -350.071C869.109 -370.254 846.003 -384.753 819.572 -386.874C795.609 -388.797 770.041 -381.247 754.002 -362.617C745.792 -353.081 741.027 -341.207 735.525 -330.041C730.068 -318.965 723.384 -306.734 711.211 -302.028C696.32 -296.271 680.553 -304.326 668.666 -313.045C655.398 -322.776 644.047 -334.784 633.107 -346.999C613.946 -368.393 595.185 -390.831 569.276 -404.329C546.418 -416.237 520.387 -418.264 497.151 -406.23C451.556 -382.616 431.43 -325.345 380.486 -309.794C356.682 -302.528 331.243 -305.842 307.225 -310.18C283.013 -314.554 258.827 -320.561 234.097 -320.858C210.145 -321.145 186.636 -314.656 168.186 -298.895C149.198 -282.674 137.597 -259.673 130.451 -236.108C122.436 -209.675 120.057 -182.117 119.565 -154.621C118.953 -120.437 121.176 -86.2428 125.395 -52.3275C133.8 15.2285 149.475 82.0893 168.23 147.471C187.277 213.873 211.64 279.349 247.776 338.495C278.028 388.01 316.938 432.5 364.312 466.294C409.902 498.814 462.97 520.668 519.036 525.292C580.845 530.39 642.362 515.896 699.899 494.262C728.571 483.48 756.507 470.853 784.047 457.467C786.314 456.365 784.975 452.64 782.684 453.754C727.041 480.799 669.099 505.304 607.924 516.406C549.165 527.07 489.107 523.373 433.618 500.474C382.124 479.223 336.834 444.356 299.986 402.851C257.177 354.631 226.092 297.183 202.546 237.439C177.445 173.749 159.736 106.92 145.358 40.0643C131.385 -24.9054 122.06 -91.2633 123.565 -157.852C124.698 -207.948 133.255 -271.095 178.358 -301.69C221.276 -330.801 274.793 -310.535 321.224 -303.875C343.994 -300.61 367.915 -299.936 389.573 -308.836C412.457 -318.239 429.828 -336.747 446.055 -354.776C462.616 -373.177 479.35 -393.962 502.423 -404.425C528.578 -416.287 556.472 -409.244 579.405 -393.677C604.221 -376.832 621.918 -352.301 642.566 -330.995C659.093 -313.941 685.634 -288.588 711.928 -298.082C735.026 -306.423 740.177 -335.441 752.302 -353.801C767.098 -376.206 795.134 -385.528 821.065 -382.781C849.333 -379.786 872.967 -362.297 888.886 -339.379C897.036 -327.646 903.248 -314.64 907.742 -301.096C911.761 -288.985 913.692 -276.203 918.768 -264.442C922.708 -255.315 928.862 -246.464 938.83 -243.497C951.998 -239.578 964.185 -247.654 975.072 -254.005C998.066 -267.419 1025.14 -271.27 1051.22 -266.525C1076.94 -261.845 1101.57 -249.029 1119.05 -229.414C1130.04 -217.078 1139.59 -203.321 1150.16 -190.595C1160.41 -178.235 1170.54 -165.922 1178.39 -151.837C1195.31 -121.5 1197.93 -87.5053 1197.37 -53.4089C1196.81 -19.5747 1192.46 14.0518 1188.39 47.5992C1184.07 83.1192 1179.76 118.64 1175.45 154.16C1171.29 188.43 1168.05 222.967 1162.71 257.075C1158.09 286.569 1147.07 319.685 1117.08 332.19C1094.99 341.406 1074.1 331.414 1057.3 316.893C1028.77 292.244 998.272 246.627 954.466 266.241C928.05 278.069 913.954 304.851 903.662 330.362C897.959 344.496 892.791 358.917 885.433 372.309C877.937 385.951 867.85 397.974 856.24 408.302C834.584 427.567 808.568 441.132 782.684 453.754C780.418 454.858 781.757 458.583 784.047 457.467Z" fill="white"/>
<path d="M792.626 493.972C821.473 479.907 850.531 464.807 874.478 443.104C885.573 433.049 895.386 421.667 903.126 408.824C911.989 394.117 917.96 377.948 924.283 362.053C936.138 332.254 953.15 296.83 987.255 288.097C1011.93 281.781 1033.31 295.658 1050.66 311.694C1066.92 326.714 1081.22 344.434 1100.11 356.335C1120.9 369.431 1145.4 370.24 1166.05 356.009C1192.64 337.691 1202.02 305.735 1206.53 275.37C1212.2 237.154 1216.03 198.591 1220.68 160.238C1225.48 120.774 1230.27 81.3113 1235.06 41.847C1239.39 6.11148 1243.64 -29.7538 1243.68 -65.8038C1243.72 -101.206 1239.88 -135.605 1222.35 -166.978C1213.48 -182.854 1201.96 -196.619 1190.42 -210.572C1179.01 -224.374 1168.75 -239.455 1156.6 -252.604C1120.05 -292.171 1056.85 -306.975 1007.47 -284.031C993.602 -277.589 978.733 -263.393 962.36 -267.285C948.533 -270.572 942.357 -285.553 938.534 -297.754C934.128 -311.818 931.32 -326.14 925.617 -339.811C919.788 -353.782 912.154 -367.104 902.508 -378.798C884.534 -400.587 859.591 -416.23 831.058 -418.52C805.211 -420.594 777.623 -412.446 760.324 -392.352C751.457 -382.054 746.312 -369.229 740.37 -357.169C734.451 -345.155 727.198 -331.906 713.995 -326.802C697.84 -320.557 680.741 -329.28 667.843 -338.739C653.489 -349.268 641.209 -362.261 629.373 -375.476C608.677 -398.583 588.412 -422.824 560.429 -437.403C535.761 -450.254 507.676 -452.45 482.598 -439.463C433.294 -413.932 411.549 -352.015 356.454 -335.198C330.692 -327.334 303.165 -330.912 277.17 -335.608C251.01 -340.333 224.875 -346.829 198.155 -347.149C172.286 -347.459 146.906 -340.457 126.98 -323.435C106.487 -305.928 93.9613 -281.091 86.2496 -255.659C77.5881 -227.096 75.0143 -197.318 74.4823 -167.607C73.8206 -130.652 76.2239 -93.6848 80.7856 -57.0193C89.8707 16.0003 106.812 88.2675 127.084 158.937C147.67 230.707 174.001 301.482 213.059 365.41C245.757 418.929 287.81 467.014 339.016 503.541C388.28 538.683 445.625 562.291 506.211 567.289C573.002 572.798 639.481 557.127 701.655 533.75C732.652 522.095 762.853 508.443 792.626 493.972C794.893 492.87 793.554 489.146 791.263 490.259C731.094 519.504 668.442 545.995 602.292 558.001C538.742 569.534 473.786 565.528 413.773 540.762C358.076 517.778 309.096 480.063 269.242 435.172C222.953 383.033 189.342 320.911 163.882 256.31C136.74 187.444 117.595 115.181 102.047 42.8912C86.941 -27.3457 76.8599 -99.0842 78.4871 -171.073C79.7125 -225.288 88.9784 -293.607 137.789 -326.716C184.234 -358.221 242.112 -336.313 292.36 -329.107C316.949 -325.58 342.779 -324.851 366.168 -334.462C390.879 -344.617 409.638 -364.61 427.161 -384.078C445.086 -403.995 463.195 -426.477 488.167 -437.802C516.496 -450.649 546.712 -443.014 571.549 -426.155C598.377 -407.945 617.509 -381.425 639.831 -358.391C657.649 -340.004 686.299 -312.596 714.659 -322.836C739.581 -331.835 745.153 -363.214 758.238 -383.024C774.269 -407.293 804.64 -417.385 832.729 -414.409C863.328 -411.168 888.919 -392.232 906.151 -367.424C914.969 -354.729 921.692 -340.655 926.556 -326C930.901 -312.907 932.988 -299.088 938.476 -286.373C942.715 -276.554 949.334 -267.018 960.062 -263.827C974.242 -259.609 987.379 -268.328 999.101 -275.166C1024 -289.69 1053.31 -293.867 1081.55 -288.729C1109.4 -283.661 1136.05 -269.782 1154.98 -248.545C1166.86 -235.208 1177.19 -220.335 1188.61 -206.578C1199.7 -193.216 1210.64 -179.904 1219.13 -164.678C1237.43 -131.853 1240.29 -95.0822 1239.67 -58.1889C1239.07 -21.5974 1234.37 14.769 1229.96 51.0503C1225.3 89.4506 1220.64 127.85 1215.97 166.251C1211.48 203.299 1207.97 240.636 1202.2 277.51C1197.2 309.458 1185.25 345.297 1152.78 358.839C1128.83 368.824 1106.2 358.009 1087.99 342.275C1057.2 315.672 1024.26 266.372 976.973 287.543C948.457 300.311 933.249 329.244 922.14 356.779C915.975 372.06 910.388 387.65 902.433 402.127C894.315 416.901 883.394 429.917 870.821 441.101C847.398 461.938 819.258 476.608 791.263 490.259C788.997 491.364 790.336 495.089 792.626 493.972Z" fill="white"/>
<path d="M801.203 530.479C832.202 515.364 863.426 499.135 889.159 475.813C901.065 465.023 911.601 452.803 919.907 439.021C929.434 423.211 935.854 405.83 942.651 388.742C955.41 356.669 973.727 318.564 1010.43 309.163C1037.01 302.356 1060.04 317.275 1078.74 334.554C1096.2 350.691 1111.56 369.733 1131.86 382.523C1154.16 396.578 1180.44 397.455 1202.6 382.187C1231.15 362.517 1241.21 328.199 1246.05 295.595C1252.15 254.512 1256.26 213.057 1261.27 171.827C1266.42 129.404 1271.58 86.9812 1276.72 44.5576C1281.38 6.15451 1285.95 -32.3878 1285.99 -71.1286C1286.03 -109.157 1281.91 -146.116 1263.09 -179.817C1253.55 -196.883 1241.17 -211.681 1228.76 -226.68C1216.49 -241.518 1205.46 -257.731 1192.41 -271.865C1153.15 -314.35 1085.29 -330.232 1032.26 -305.596C1017.32 -298.654 1001.34 -283.396 983.692 -287.588C968.768 -291.132 962.093 -307.263 957.966 -320.436C953.229 -335.555 950.211 -350.95 944.08 -365.647C937.819 -380.655 929.618 -394.962 919.256 -407.523C899.957 -430.919 873.177 -447.706 842.542 -450.164C814.812 -452.39 785.204 -443.644 766.644 -422.085C757.121 -411.024 751.596 -397.248 745.214 -384.296C738.832 -371.342 731.01 -357.076 716.777 -351.574C699.358 -344.84 680.927 -354.231 667.018 -364.432C651.577 -375.757 638.368 -389.736 625.636 -403.952C603.407 -428.772 581.638 -454.815 551.58 -470.475C525.103 -484.268 494.964 -486.633 468.043 -472.694C415.03 -445.246 391.666 -378.685 332.421 -360.6C304.7 -352.138 275.086 -355.981 247.113 -361.034C219.005 -366.111 190.921 -373.095 162.211 -373.439C134.425 -373.772 107.175 -366.258 85.7717 -347.974C63.7735 -329.182 50.3241 -302.508 42.0463 -275.21C32.7393 -244.516 29.9702 -212.519 29.3986 -180.592C28.6874 -140.865 31.2707 -101.125 36.1746 -61.7104C45.9396 16.7723 64.1477 94.4462 85.9362 170.404C108.064 247.544 136.361 323.616 178.341 392.327C213.486 449.851 258.682 501.53 313.719 540.789C366.658 578.553 428.281 603.917 493.385 609.287C565.158 615.207 636.599 598.361 703.41 573.239C736.731 560.71 769.197 546.035 801.203 530.479C803.47 529.377 802.131 525.652 799.84 526.765C735.145 558.21 667.783 586.688 596.657 599.596C528.315 611.999 458.462 607.684 393.925 581.052C334.027 556.334 281.357 515.771 238.497 467.494C188.728 411.436 152.59 344.64 125.215 275.182C96.0335 201.138 75.4513 123.443 58.7348 45.7181C42.496 -29.7871 31.6591 -106.906 33.4082 -184.293C34.7269 -242.628 44.7007 -316.118 97.2197 -351.742C147.192 -385.639 209.431 -362.092 263.496 -354.337C289.904 -350.55 317.643 -349.765 342.761 -360.087C369.301 -370.993 389.447 -392.472 408.265 -413.38C427.555 -434.813 447.039 -458.992 473.911 -471.178C504.413 -485.011 536.951 -476.784 563.691 -458.633C592.532 -439.057 613.098 -410.548 637.094 -385.786C656.203 -366.068 686.963 -336.604 717.39 -347.59C744.136 -357.248 750.129 -390.988 764.174 -412.248C781.438 -438.38 814.145 -449.242 844.391 -446.038C877.321 -442.55 904.87 -422.166 923.414 -395.469C932.901 -381.811 940.136 -366.668 945.369 -350.902C950.039 -336.827 952.283 -321.973 958.183 -308.304C962.72 -297.792 969.806 -287.571 981.293 -284.155C996.486 -279.638 1010.57 -289 1023.13 -296.325C1049.93 -311.959 1081.47 -316.461 1111.87 -310.931C1141.85 -305.476 1170.53 -290.533 1190.9 -267.673C1203.68 -253.336 1214.78 -237.348 1227.05 -222.559C1238.97 -208.194 1250.74 -193.884 1259.87 -177.516C1279.56 -142.204 1282.64 -102.657 1281.98 -62.9667C1281.33 -23.6179 1276.28 15.4884 1271.54 54.5042C1266.52 95.7843 1261.51 137.064 1256.5 178.344C1251.66 218.172 1247.9 258.309 1241.69 297.948C1236.3 332.348 1223.42 370.91 1188.47 385.489C1162.68 396.243 1138.29 384.606 1118.67 367.658C1085.62 339.101 1050.24 286.118 999.479 308.846C968.863 322.554 952.542 353.639 940.616 383.199C933.989 399.625 927.983 416.384 919.431 431.947C910.691 447.854 898.937 461.862 885.4 473.903C860.211 496.311 829.946 512.086 799.84 526.766C797.574 527.87 798.913 531.595 801.203 530.479Z" fill="white"/>
<path d="M809.779 566.983C842.93 550.819 876.319 533.462 903.839 508.522C916.557 496.996 927.815 483.939 936.687 469.217C946.879 452.304 953.747 433.71 961.019 415.431C974.682 381.085 994.305 340.296 1033.6 330.228C1062.08 322.93 1086.77 338.892 1106.81 357.413C1125.49 374.666 1141.91 395.037 1163.61 408.71C1187.43 423.718 1215.48 424.672 1239.15 408.363C1269.66 387.342 1280.4 350.661 1285.57 315.818C1292.1 271.869 1296.5 227.521 1301.86 183.416C1307.37 138.033 1312.88 92.6506 1318.39 47.2667C1323.37 6.19617 1328.25 -35.0227 1328.3 -76.4548C1328.35 -117.108 1323.95 -156.628 1303.82 -192.657C1293.63 -210.914 1280.38 -226.744 1267.1 -242.79C1253.98 -258.662 1242.18 -276.008 1228.21 -291.127C1186.26 -336.53 1113.72 -353.49 1057.05 -327.162C1041.03 -319.721 1023.94 -303.4 1005.02 -307.891C989.005 -311.693 981.829 -328.974 977.398 -343.12C972.331 -359.293 969.103 -375.763 962.543 -391.485C955.85 -407.529 947.081 -422.821 936.005 -436.249C915.381 -461.252 886.763 -479.184 854.027 -481.81C824.412 -484.187 792.784 -474.843 772.964 -451.82C762.784 -439.996 756.88 -425.27 750.058 -411.425C743.213 -397.532 734.822 -382.249 719.559 -376.349C700.876 -369.126 681.112 -379.184 666.193 -390.126C649.665 -402.249 635.528 -417.214 621.9 -432.43C598.136 -458.963 574.863 -486.808 542.731 -503.549C514.444 -518.286 482.251 -520.818 453.488 -505.927C396.766 -476.562 371.783 -405.356 308.387 -386.004C278.708 -376.944 247.006 -381.052 217.056 -386.462C187 -391.891 156.967 -399.363 126.266 -399.731C96.5629 -400.087 67.4432 -392.059 44.5629 -372.514C21.0602 -352.436 6.68676 -323.927 -2.15743 -294.761C-12.1103 -261.938 -15.0745 -227.721 -15.686 -193.578C-16.447 -151.079 -13.6834 -108.567 -8.43697 -66.4026C2.00756 17.5437 21.4834 100.624 44.7884 181.869C68.4561 264.379 98.7206 345.749 143.623 419.243C181.213 480.771 229.552 536.044 288.419 578.037C345.034 618.421 410.934 645.541 480.557 651.283C557.312 657.614 633.715 639.592 705.163 612.727C740.81 599.324 775.541 583.625 809.779 566.983C812.047 565.881 810.708 562.157 808.416 563.27C739.195 596.915 667.123 627.379 591.022 641.19C517.889 654.463 443.137 649.839 374.076 621.34C309.977 594.887 253.616 551.477 207.75 499.814C154.502 439.836 115.837 368.367 86.5483 294.053C55.3259 214.831 33.3068 131.703 15.4218 48.5435C-1.95017 -32.2291 -13.543 -114.728 -11.6717 -197.515C-10.26 -259.969 0.422256 -338.631 56.649 -376.77C110.148 -413.06 176.747 -387.872 234.63 -379.57C262.857 -375.521 292.505 -374.682 319.354 -385.714C347.721 -397.371 369.255 -420.335 389.369 -442.684C410.022 -465.632 430.882 -491.508 459.654 -504.555C492.33 -519.374 527.189 -510.556 555.833 -491.112C586.686 -470.17 608.687 -439.672 634.357 -413.183C654.757 -392.133 687.627 -360.613 720.12 -372.346C748.69 -382.662 755.104 -418.762 770.109 -441.472C788.607 -469.469 823.65 -481.1 856.054 -477.668C891.315 -473.933 920.821 -452.102 940.678 -423.515C950.833 -408.895 958.58 -392.684 964.181 -375.806C969.177 -360.749 971.577 -344.858 977.889 -330.236C982.725 -319.032 990.278 -308.125 1002.52 -304.485C1018.73 -299.669 1033.77 -309.674 1047.16 -317.486C1075.86 -334.229 1109.63 -339.058 1142.19 -333.134C1174.3 -327.292 1205.01 -311.286 1226.83 -286.803C1240.49 -271.466 1252.37 -254.363 1265.5 -238.541C1278.25 -223.175 1290.84 -207.867 1300.61 -190.356C1321.68 -152.557 1324.99 -110.234 1324.28 -67.7462C1323.59 -25.6402 1318.18 16.2064 1313.11 57.9556C1307.75 102.116 1302.39 146.276 1297.03 190.436C1291.85 233.042 1287.82 275.979 1281.18 318.384C1275.41 355.237 1261.6 396.521 1224.16 412.138C1196.53 423.661 1170.38 411.201 1149.36 393.039C1114.05 362.529 1076.22 305.863 1021.98 330.147C989.269 344.795 971.835 378.032 959.092 409.615C952.003 427.188 945.577 445.116 936.43 461.765C927.068 478.803 914.479 493.804 899.98 506.702C873.024 530.681 840.635 547.561 808.417 563.27C806.151 564.375 807.49 568.1 809.779 566.983Z" fill="white"/>
<path d="M818.359 603.489C853.663 586.275 889.211 567.788 918.522 541.231C932.053 528.972 944.033 515.074 953.471 499.413C964.328 481.397 971.643 461.59 979.389 442.119C993.957 405.501 1014.88 362.029 1056.78 351.293C1087.17 343.505 1113.5 360.509 1134.89 380.273C1154.77 398.643 1172.26 420.337 1195.36 434.898C1220.7 450.863 1250.52 451.887 1275.7 434.54C1308.17 412.167 1319.6 373.124 1325.1 336.042C1332.05 289.227 1336.74 241.987 1342.44 195.005C1348.31 146.662 1354.19 98.3198 1360.05 49.9765C1365.36 6.23883 1370.56 -37.6574 1370.61 -81.7803C1370.66 -125.059 1365.99 -167.139 1344.56 -205.497C1333.7 -224.944 1319.58 -241.807 1305.45 -258.899C1291.47 -275.806 1278.9 -294.285 1264.02 -310.389C1219.36 -358.71 1142.16 -376.749 1081.84 -348.727C1064.75 -340.787 1046.55 -323.404 1026.36 -328.194C1009.24 -332.254 1001.57 -350.686 996.831 -365.802C991.433 -383.031 987.995 -400.575 981.008 -417.323C973.882 -434.403 964.547 -450.68 952.755 -464.975C930.806 -491.584 900.351 -510.66 865.513 -513.456C834.014 -515.983 800.366 -506.041 779.285 -481.555C768.448 -468.968 762.164 -453.292 754.903 -438.553C747.595 -423.721 738.635 -407.421 722.342 -401.122C702.396 -393.411 681.299 -404.136 665.37 -415.82C647.754 -428.74 632.689 -444.69 618.165 -460.907C592.867 -489.152 568.091 -518.801 533.884 -536.622C503.787 -552.301 469.54 -555.002 438.935 -539.16C378.504 -507.878 351.902 -432.026 284.356 -411.407C252.718 -401.75 218.928 -406.123 187.001 -411.89C154.996 -417.671 123.014 -425.63 90.3236 -426.022C58.7036 -426.401 27.7134 -417.861 3.35662 -397.054C-21.6512 -375.691 -36.9485 -345.346 -46.3587 -314.312C-56.9575 -279.359 -60.1171 -242.922 -60.7677 -206.563C-61.5782 -161.293 -58.6342 -116.009 -53.0461 -71.0941C-41.922 18.3162 -21.1793 106.803 3.64259 193.336C28.8505 281.215 61.082 367.883 108.906 446.159C148.944 511.692 200.426 570.559 263.125 615.285C323.414 658.291 393.592 687.166 467.733 693.281C549.471 700.023 630.835 680.824 706.92 652.216C744.891 637.939 781.887 621.216 818.359 603.489C820.626 602.387 819.287 598.662 816.996 599.776C743.25 635.62 666.467 668.071 585.39 682.785C507.466 696.927 427.815 691.994 354.231 661.628C285.93 633.442 225.879 587.184 177.007 532.135C120.279 468.238 79.0872 392.095 47.8849 312.925C14.6219 228.525 -8.83382 139.965 -27.888 51.3699C-46.3928 -34.6703 -58.7418 -122.549 -56.7483 -210.735C-55.2433 -277.309 -43.8526 -361.142 16.0814 -401.797C73.1079 -440.479 144.068 -413.65 205.768 -404.801C235.814 -400.492 267.37 -399.597 295.95 -411.341C326.145 -423.749 349.067 -448.199 370.476 -471.987C392.493 -496.45 414.728 -524.023 445.399 -537.932C480.249 -553.737 517.429 -544.327 547.978 -523.591C580.843 -501.282 604.278 -468.796 631.623 -440.579C653.314 -418.197 688.293 -384.622 722.851 -397.1C753.245 -408.075 760.08 -446.536 776.045 -470.696C795.778 -500.557 833.157 -512.958 867.717 -509.297C905.309 -505.315 936.773 -482.038 957.943 -451.561C968.766 -435.978 977.025 -418.699 982.995 -400.71C988.318 -384.671 990.874 -367.744 997.597 -352.168C1002.73 -340.272 1010.75 -328.68 1023.75 -324.816C1040.97 -319.701 1056.96 -330.348 1071.19 -338.648C1101.79 -356.501 1137.8 -361.655 1172.52 -355.338C1206.76 -349.109 1239.49 -332.04 1262.75 -305.934C1277.31 -289.596 1289.96 -271.378 1303.95 -254.524C1317.53 -238.155 1330.94 -221.849 1341.34 -203.196C1363.81 -162.91 1367.34 -117.81 1366.59 -72.5259C1365.85 -27.6626 1360.09 16.9239 1354.69 61.4075C1348.98 108.448 1343.26 155.487 1337.55 202.527C1332.04 247.912 1327.75 293.65 1320.68 338.82C1314.52 378.125 1299.78 422.132 1259.85 438.786C1230.37 451.079 1202.47 437.795 1180.04 418.421C1142.47 385.956 1102.2 325.608 1044.49 351.449C1009.68 367.037 991.13 402.425 977.57 436.033C970.018 454.751 963.174 473.849 953.43 491.583C943.445 509.755 930.023 525.747 914.56 539.502C885.838 565.053 851.324 583.037 816.996 599.776C814.731 600.881 816.069 604.605 818.359 603.489Z" fill="white"/>
<path d="M826.936 639.995C864.392 621.731 902.106 602.117 933.203 573.941C947.545 560.946 960.248 546.211 970.252 529.61C981.774 510.491 989.537 489.472 997.757 468.809C1013.23 429.917 1035.46 383.763 1079.95 372.358C1112.25 364.08 1140.23 382.127 1162.97 403.133C1184.06 422.62 1202.61 445.636 1227.12 461.086C1253.96 478.008 1285.57 479.103 1312.25 460.718C1346.68 436.994 1358.79 395.587 1364.63 356.266C1372 306.585 1376.98 256.452 1383.03 206.594C1389.26 155.292 1395.5 103.99 1401.72 52.6871C1407.35 6.28198 1412.87 -40.2913 1412.92 -87.105C1412.97 -133.01 1408.03 -177.65 1385.3 -218.336C1373.77 -238.974 1358.79 -256.868 1343.79 -275.007C1328.95 -292.949 1315.62 -312.561 1299.82 -329.649C1252.46 -380.888 1170.59 -400.006 1106.64 -370.292C1088.47 -361.852 1069.15 -343.407 1047.69 -348.496C1029.48 -352.815 1021.3 -372.397 1016.26 -388.485C1010.54 -406.768 1006.89 -425.386 999.472 -443.159C991.914 -461.275 982.012 -478.538 969.505 -493.701C946.23 -521.916 913.939 -542.136 876.998 -545.101C843.615 -547.78 807.948 -537.24 785.606 -511.289C774.113 -497.938 767.45 -481.312 759.748 -465.68C751.978 -449.909 742.449 -432.592 725.126 -425.895C703.915 -417.695 681.486 -429.088 664.547 -441.513C645.844 -455.23 629.85 -472.166 614.43 -489.383C587.598 -519.341 561.318 -550.793 525.036 -569.694C493.13 -586.317 456.829 -589.186 424.381 -572.392C360.241 -539.193 332.021 -458.695 260.324 -436.81C226.727 -426.554 190.849 -431.192 156.945 -437.316C122.992 -443.449 89.0606 -451.897 54.38 -452.312C20.8428 -452.714 -12.0175 -443.661 -37.8512 -421.592C-64.3636 -398.944 -80.585 -366.763 -90.5616 -333.862C-101.806 -296.78 -105.161 -258.122 -105.851 -219.548C-106.711 -171.506 -103.587 -123.449 -97.6571 -75.7847C-85.8543 19.0891 -63.8443 112.982 -37.5055 204.803C-10.7574 298.051 23.4415 390.017 74.1881 473.076C116.673 542.613 171.296 605.075 237.827 652.533C301.791 698.161 376.246 728.791 454.907 735.279C541.626 742.432 627.952 722.057 708.674 691.705C748.97 676.554 788.231 658.808 826.936 639.995C829.203 638.893 827.864 635.168 825.573 636.282C747.301 674.326 665.807 708.763 579.756 724.38C497.04 739.392 412.491 734.15 334.383 701.917C261.88 671.998 198.139 622.892 146.261 564.458C86.0526 496.64 42.3343 415.824 9.21802 331.797C-26.0856 242.22 -50.9779 148.227 -71.2009 54.1973C-90.8385 -37.1108 -103.944 -130.37 -101.828 -223.955C-100.231 -294.649 -88.1314 -383.653 -24.4896 -426.822C36.0639 -467.897 111.384 -439.428 176.902 -430.031C208.767 -425.461 242.233 -424.511 272.542 -436.966C304.565 -450.125 328.874 -476.06 351.579 -501.288C374.96 -527.267 398.571 -556.537 431.141 -571.307C468.165 -588.097 507.666 -578.096 540.119 -556.067C574.996 -532.393 599.866 -497.918 628.885 -467.974C651.866 -444.259 688.956 -408.629 725.58 -421.853C757.798 -433.487 765.054 -474.309 781.979 -499.918C802.946 -531.643 842.661 -544.814 879.378 -540.925C919.301 -536.696 952.723 -511.972 975.205 -479.605C986.698 -463.06 995.467 -444.712 1001.81 -425.612C1007.45 -408.592 1010.17 -390.628 1017.3 -374.098C1022.73 -361.524 1031.22 -349.209 1044.98 -345.144C1063.23 -339.754 1080.13 -351.009 1095.21 -359.806C1127.72 -378.77 1165.96 -384.249 1202.84 -377.54C1239.21 -370.923 1273.97 -352.79 1298.68 -325.061C1314.12 -307.723 1327.55 -288.39 1342.39 -270.505C1356.81 -253.133 1371.04 -235.829 1382.08 -216.034C1405.93 -173.261 1409.69 -125.385 1408.89 -77.3032C1408.1 -29.6826 1401.99 17.6438 1396.26 64.8613C1390.2 114.781 1384.14 164.701 1378.08 214.621C1372.23 262.785 1367.67 311.323 1360.17 359.258C1353.63 401.016 1337.96 447.745 1295.54 465.437C1264.22 478.498 1234.56 464.393 1210.73 443.804C1170.9 409.386 1128.19 345.354 1067 372.753C1030.08 389.28 1010.42 426.82 996.046 462.452C988.032 482.317 980.769 502.584 970.427 521.404C959.821 540.707 945.565 557.692 929.139 572.305C898.651 599.427 862.012 618.515 825.573 636.283C823.307 637.387 824.646 641.112 826.936 639.995Z" fill="white"/>
</g>
</g>
</g>
<defs>
<clipPath id="clip0_68_14435">
<rect width="684" height="684" rx="342" fill="white"/>
</clipPath>
</defs>
</svg>
