<svg width="1134" height="2932" viewBox="0 0 1134 2932" fill="none" xmlns="http://www.w3.org/2000/svg">
<g opacity="0.1">
<path d="M909.522 2628.98C973.563 2628.98 1032.78 2655.78 1090.46 2710.99C1105.12 2725.01 1119.62 2740.79 1134 2758.39V2762.32C1056.85 2666.79 982.431 2631.43 909.522 2631.43C858.094 2631.43 807.48 2649.02 757.269 2675.37C707.059 2701.72 657.213 2736.84 607.329 2771.94C557.433 2807.05 507.499 2842.13 457.073 2868.44C406.649 2894.75 355.772 2912.26 303.997 2912.26C223.887 2912.26 141.469 2870.35 55.1064 2753.72C37.703 2730.21 19.2759 2709.79 0 2692.14V2688.81C20.419 2707.32 39.3978 2728.44 56.999 2752.21C135.49 2858.2 216.295 2909.81 304.056 2909.81C355.675 2909.81 406.869 2891.93 457.398 2865.43C507.927 2838.94 557.833 2803.82 606.871 2769.3C655.92 2734.78 705.787 2699.7 756.306 2673.24C806.823 2646.78 857.954 2628.98 909.522 2628.98Z" fill="white"/>
<path d="M904.422 2590.51C966.939 2590.51 1024.63 2616.55 1080.9 2670.12C1098.82 2687.19 1116.49 2706.93 1134 2729.48V2733.24C1055 2630.39 978.955 2592.78 904.539 2592.78C854.386 2592.77 805.025 2609.84 756.056 2635.41C707.089 2660.98 658.475 2695.07 609.822 2729.14C561.158 2763.22 512.454 2797.28 463.271 2822.82C414.089 2848.36 364.464 2865.36 313.964 2865.36C235.846 2865.36 155.48 2824.67 71.2871 2711.44C49.0978 2681.6 25.2099 2656.9 0 2636.61V2633.71C26.6583 2654.95 50.9669 2680.4 73.0645 2710.11C149.563 2812.99 228.315 2863.08 313.905 2863.08C364.235 2863.08 414.152 2845.73 463.429 2820.02C512.704 2794.31 561.38 2760.22 609.216 2726.73C657.063 2693.21 705.698 2659.15 754.972 2633.47C804.244 2607.79 854.114 2590.51 904.422 2590.51Z" fill="white"/>
<path d="M899.32 2551.8C963.559 2551.8 1023.62 2580.05 1081.59 2638.69C1099.24 2656.55 1116.69 2677.22 1134 2700.77V2705.1C1053.09 2594.2 975.391 2554.14 899.379 2554.14C850.502 2554.14 802.387 2570.7 754.65 2595.49C706.916 2620.29 659.519 2653.35 612.087 2686.39C564.643 2719.43 517.162 2752.45 469.218 2777.21C421.275 2801.98 372.907 2818.46 323.696 2818.46C247.57 2818.46 169.256 2779 87.2334 2669.22C60.4485 2633.39 31.1409 2605.19 0 2583.32V2580.37C33.0873 2603.38 62.6986 2632.47 89.0713 2667.77C163.577 2767.5 240.335 2816.06 323.696 2816.06C372.765 2816.06 421.421 2799.23 469.452 2774.31C517.482 2749.38 564.926 2716.34 611.56 2683.87C658.205 2651.4 705.624 2618.38 753.658 2593.47C801.692 2568.57 850.301 2551.8 899.32 2551.8Z" fill="white"/>
<path d="M893.223 2513.39C955.791 2513.39 1014.36 2540.71 1070.93 2597.47C1092.21 2618.8 1113.19 2644.3 1134 2674.06V2678.85C1050.64 2558.73 970.96 2515.96 893.164 2515.96C845.548 2515.96 798.706 2531.98 752.253 2555.97C705.802 2579.96 659.7 2611.95 613.576 2643.91C567.44 2675.87 521.281 2707.82 474.671 2731.77C428.063 2755.73 381.043 2771.67 333.194 2771.67C259.061 2771.67 182.857 2733.44 102.945 2627C71.7346 2585.48 37.0388 2554.55 0 2532.02V2528.97C39.595 2552.79 74.409 2584.87 104.843 2625.38C177.414 2722 252.121 2769.1 333.253 2769.1C380.913 2769.1 428.192 2752.83 474.867 2728.73C521.541 2704.63 567.651 2672.68 612.966 2641.3L621.489 2635.4C664.152 2605.86 707.462 2576.34 751.312 2553.73C798.085 2529.61 845.434 2513.39 893.223 2513.39Z" fill="white"/>
<path d="M889.022 2474.86C949.443 2475.3 1006.03 2501.77 1060.7 2556.24C1085.47 2580.93 1109.84 2611.36 1134 2647.73V2652.52C1048.49 2522.81 966.992 2477.25 887.536 2477.25C841.181 2477.25 795.588 2492.75 750.382 2515.97C705.177 2539.18 660.321 2570.12 615.446 2601.04C570.56 2631.97 525.655 2662.87 480.313 2686.05C434.975 2709.23 389.237 2724.65 342.692 2724.65C270.551 2724.65 196.399 2687.65 118.657 2584.67C83.1232 2537.64 42.9826 2504.65 0 2482.31V2479.44C46.3088 2503.22 86.3179 2537.68 120.615 2583.1C191.193 2676.62 263.907 2722.2 342.81 2722.2C389.18 2722.2 435.168 2706.47 480.561 2683.17C525.952 2659.87 570.786 2628.97 614.841 2598.62C659.024 2568.16 703.936 2537.22 749.457 2513.89C794.977 2490.56 841.066 2474.86 887.595 2474.86L889.022 2474.86Z" fill="white"/>
<path d="M0 2431.59C53.3016 2454.52 98.5544 2490.84 136.622 2540.95C205.266 2631.36 275.868 2675.41 352.601 2675.41C397.651 2675.41 442.335 2660.22 486.444 2637.72C530.553 2615.22 574.127 2585.38 616.95 2556.05C659.931 2526.62 703.612 2496.72 747.888 2474.17C792.161 2451.62 836.991 2436.45 882.26 2436.45C941.547 2436.45 997.037 2462 1050.65 2515.07C1078.87 2542.99 1106.56 2578.54 1134 2621.97V2626.46C1046.39 2486.91 963.203 2438.61 882.26 2438.61C837.181 2438.61 792.849 2453.58 748.897 2476.01C704.948 2498.44 661.34 2528.33 617.719 2558.21C574.086 2588.09 530.438 2617.95 486.366 2640.34C442.297 2662.73 397.841 2677.63 352.601 2677.63C282.452 2677.63 210.353 2641.86 134.78 2542.27L134.779 2542.27C94.8999 2489.83 49.0997 2455.44 0 2434.1V2431.59Z" fill="white"/>
<path d="M0 2385.56C60.3602 2406.83 110.765 2444.41 152.394 2498.84C219.044 2586.16 287.654 2628.68 362.157 2628.68C405.888 2628.68 449.281 2614.02 492.115 2592.31C534.949 2570.6 577.263 2541.81 618.825 2513.54C660.575 2485.1 703.01 2456.22 746.032 2434.45C789.053 2412.68 832.622 2398.03 876.631 2398.03C934.249 2398.03 988.186 2422.68 1040.31 2473.89C1072.08 2505.1 1103.17 2546.16 1134 2597.51V2602.01C1044.19 2451.61 959.271 2400.31 876.748 2400.31C832.945 2400.31 789.871 2414.76 747.17 2436.41C704.471 2458.05 662.108 2486.9 619.736 2515.72C577.352 2544.56 534.959 2573.37 492.16 2594.98C449.363 2616.58 406.197 2630.96 362.274 2630.96C294.118 2630.96 224.129 2596.42 150.668 2500.23C106.6 2442.55 55.1419 2407.5 0 2387.92V2385.56Z" fill="white"/>
<path d="M0 2340.95C67.785 2359.8 123.397 2398.12 168.459 2456.69C233.117 2540.83 299.733 2581.84 372.007 2581.84C414.388 2581.84 456.462 2567.72 498.007 2546.81C539.55 2525.89 580.603 2498.16 620.935 2470.91C661.453 2443.5 702.643 2415.66 744.411 2394.67C786.178 2373.68 828.488 2359.56 871.237 2359.56C927.215 2359.59 979.628 2383.36 1030.28 2432.72C1065.51 2467.06 1099.89 2513.77 1134 2573.46V2578.21C1042.82 2417.71 956.928 2362.83 873.568 2361.85L871.296 2361.84C828.769 2361.83 786.956 2375.75 745.51 2396.6C704.066 2417.45 662.952 2445.26 621.833 2473.04C580.703 2500.84 539.567 2528.61 498.037 2549.43C456.51 2570.26 414.625 2584.12 372.007 2584.12C305.901 2584.12 237.905 2550.8 166.613 2458.01C118.403 2395.35 61.1621 2360.38 0 2343.21V2340.95Z" fill="white"/>
<path d="M0 2297.77C75.2441 2313.47 135.968 2352.02 184.29 2414.35C247.014 2495.4 311.519 2534.88 381.622 2534.88C422.713 2534.88 463.482 2521.29 503.736 2501.16C543.99 2481.04 583.768 2454.36 622.868 2428.16C662.185 2401.78 702.143 2374.98 742.666 2354.77C783.187 2334.57 824.236 2320.97 865.726 2320.97C962.838 2320.97 1048.96 2394.16 1134 2550.52V2555.34C1039.69 2380.93 951.384 2323.25 865.784 2323.25C824.519 2323.24 783.956 2336.63 743.757 2356.7C703.56 2376.77 663.69 2403.53 623.82 2430.27C583.939 2457.01 544.059 2483.74 503.798 2503.78C463.539 2523.82 422.937 2537.16 381.622 2537.16C317.508 2537.16 251.564 2505.12 182.442 2415.73C130.179 2348.27 67.0782 2314.16 0 2300.07V2297.77Z" fill="white"/>
<path d="M0 2256.22C82.9692 2268.05 148.833 2306.29 200.238 2372.13C260.969 2450.08 323.481 2488.03 391.354 2488.03C431.125 2488.03 470.603 2474.98 509.583 2455.66C548.561 2436.33 587.079 2410.71 624.919 2385.54C663.033 2360.18 701.76 2334.42 741.037 2314.99C780.313 2295.57 820.102 2282.5 860.332 2282.5C959.604 2282.5 1047.06 2360.68 1134 2528.46V2533.63C1037.37 2345.83 947.329 2284.78 860.273 2284.78C820.284 2284.78 780.978 2297.66 742.029 2316.95C703.083 2336.23 664.458 2361.94 625.838 2387.63C587.207 2413.33 548.58 2439 509.592 2458.25C470.606 2477.5 431.292 2490.31 391.296 2490.31C329.659 2490.31 266.338 2459.93 199.9 2375.51L198.33 2373.51C142.045 2301.45 72.9204 2268.93 0 2258.46V2256.22Z" fill="white"/>
<path d="M0 2215.91C90.8652 2223.22 161.805 2260.68 216.187 2329.74C274.925 2404.52 335.443 2441.01 401.087 2441.01C439.537 2441.01 477.711 2428.51 515.408 2409.98C553.104 2391.45 590.36 2366.88 626.969 2342.73C663.852 2318.4 701.333 2293.68 739.357 2275.04C777.38 2256.4 815.909 2243.86 854.879 2243.86C956.361 2243.91 1045.1 2327.48 1134 2507.32V2512.34C1133.8 2511.94 1133.6 2511.54 1133.41 2511.14C1034.83 2310.5 943.364 2246.31 855.114 2246.31C816.401 2246.3 778.36 2258.65 740.671 2277.14C702.984 2295.64 665.613 2320.31 628.25 2344.95C590.876 2369.6 553.508 2394.23 515.786 2412.71C478.067 2431.18 440.029 2443.47 401.321 2443.47C341.249 2443.47 279.41 2413.83 214.569 2331.29L212.951 2329.25C152.908 2254.14 78.0597 2224.58 0 2218.34V2215.91Z" fill="white"/>
<path d="M0 2177.32C98.9557 2179.41 174.962 2215.51 232.194 2287.58C288.998 2359.26 347.464 2394.23 410.937 2394.23C448.067 2394.23 484.95 2382.25 521.372 2364.51C557.792 2346.77 593.789 2323.26 629.137 2300.16C664.818 2276.86 701.068 2253.17 737.846 2235.32C774.622 2217.46 811.892 2205.44 849.603 2205.44C948.249 2205.44 1034.55 2286.27 1121.02 2460.35C1125.23 2468.82 1129.56 2476.85 1134 2484.49V2489.56C1128.7 2480.71 1123.59 2471.35 1118.69 2461.49C1023.97 2270.83 936.125 2208.87 851.369 2207.91L849.368 2207.9C811.916 2207.88 775.122 2219.71 738.675 2237.42C702.23 2255.13 666.099 2278.75 629.981 2302.35C593.853 2325.95 557.738 2349.54 521.288 2367.23C484.84 2384.91 448.091 2396.68 410.702 2396.68C352.622 2396.68 292.892 2368.27 230.163 2289.13C165.956 2208.21 84.1625 2181.53 0 2179.72V2177.32Z" fill="white"/>
<path d="M15.3633 2139.69C114.956 2139.69 191.084 2174.23 248.025 2245.31C302.837 2313.88 359.309 2347.32 420.552 2347.32C456.391 2347.32 491.97 2335.89 527.102 2318.95C562.232 2302.01 596.953 2279.55 631.069 2257.48C665.519 2235.19 700.538 2212.55 736.07 2195.48C771.601 2178.4 807.61 2166.91 844.032 2166.91C939.399 2166.97 1022.76 2244.18 1106.42 2410.58C1115.11 2427.88 1124.35 2443.32 1134 2457.08V2461.24C1123.38 2446.45 1113.39 2429.93 1104.15 2411.54C1011.85 2227.93 926.297 2169.13 843.857 2169.13C807.682 2169.12 772.149 2180.42 736.957 2197.35C701.768 2214.28 666.885 2236.85 632.021 2259.4C597.146 2281.96 562.288 2304.49 527.107 2321.4C491.929 2338.3 456.462 2349.54 420.376 2349.54C364.287 2349.54 306.609 2322.42 246.051 2246.67L244.54 2244.8C180.446 2166.1 98.7707 2141.96 15.1875 2141.96C10.1308 2141.96 5.06719 2142.05 0 2142.22V2139.95C5.12429 2139.78 10.2464 2139.69 15.3633 2139.69Z" fill="white"/>
<path d="M39.8711 2102.27C135.713 2102.27 208.909 2135.24 263.857 2203.09C316.735 2268.56 371.155 2300.48 430.227 2300.48C464.716 2300.48 498.989 2289.57 532.845 2273.42C566.7 2257.27 600.175 2235.87 633.061 2214.85L645.543 2206.87C674.73 2188.27 704.337 2169.95 734.332 2155.7C768.609 2139.41 803.359 2128.44 838.521 2128.44C930.549 2128.44 1011.1 2202.14 1091.88 2360.87C1104.85 2386.33 1119.05 2407.57 1134 2425.25V2428.75C1118 2410.18 1103.2 2388.07 1089.96 2362.06C1000.82 2186.93 918.261 2130.9 838.697 2130.9C803.784 2130.88 769.5 2141.66 735.556 2157.8C701.613 2173.94 667.976 2195.47 634.361 2216.97C600.735 2238.48 567.133 2259.98 533.221 2276.09C499.311 2292.21 465.125 2302.93 430.343 2302.93C376.186 2302.93 320.561 2277.04 262.173 2204.69L262.172 2204.69C200.624 2128.72 122.239 2105.09 41.9443 2104.73L40.0469 2104.72C26.7245 2104.72 13.353 2105.35 0 2106.47V2104.01C13.2866 2102.89 26.5973 2102.27 39.8711 2102.27Z" fill="white"/>
<path d="M66.8799 2064.92C157.742 2065.46 227.382 2096.86 279.923 2160.99C330.808 2223.36 383.235 2253.75 440.076 2253.75C473.275 2253.75 506.256 2243.39 538.83 2228.04C571.402 2212.69 603.602 2192.33 635.228 2172.34C667.245 2152.11 699.772 2131.54 732.791 2116.03C765.808 2100.53 799.283 2090.09 833.187 2090.09C921.934 2090.09 999.552 2160.22 1077.52 2311.28C1094.56 2344.29 1113.78 2369.87 1134 2389.57V2392.71C1112.36 2372.01 1092.56 2345.48 1075.42 2312.28C989.445 2145.71 909.874 2092.37 833.187 2092.37C799.549 2092.35 766.524 2102.61 733.83 2117.96C701.138 2133.32 668.744 2153.8 636.379 2174.25C604.002 2194.72 571.654 2215.17 539.015 2230.5C506.377 2245.83 473.481 2256.03 440.017 2256.03C387.91 2256.03 334.337 2231.31 278.06 2162.41L278.059 2162.41C218.313 2089.42 142.343 2067.19 64.6709 2067.19C43.1468 2067.19 21.4867 2068.9 0 2071.71V2069.41C21.4869 2066.61 43.1583 2064.91 64.7295 2064.91L66.8799 2064.92Z" fill="white"/>
<path d="M89.1201 2027.43C177.226 2027.43 244.736 2057.3 295.638 2118.72C344.589 2177.98 394.963 2206.85 449.633 2206.85C481.511 2206.85 513.188 2197.01 544.479 2182.44C575.768 2167.88 606.707 2148.57 637.101 2129.6C667.916 2110.39 699.212 2090.86 730.985 2076.14C762.757 2061.41 794.973 2051.5 827.617 2051.5C913.026 2051.5 987.829 2118.06 1062.92 2261.45C1084.01 2301.67 1108.5 2330.28 1134 2350.4V2353.28C1106.63 2332.04 1081.73 2302.29 1060.88 2262.45C978.068 2104.42 901.428 2053.78 827.676 2053.78C795.301 2053.77 763.526 2063.49 732.078 2078.07C700.633 2092.64 669.483 2112.07 638.367 2131.48C607.24 2150.9 576.148 2170.3 544.776 2184.84C513.408 2199.39 481.794 2209.07 449.633 2209.07C399.517 2209.07 347.994 2185.57 293.887 2120.07C236.486 2050.83 163.625 2029.66 89.2373 2029.66C59.4623 2029.66 29.4224 2033.04 0 2038.08V2035.8C29.3717 2030.79 59.3564 2027.43 89.1201 2027.43Z" fill="white"/>
<path d="M113.92 1989.9C198.099 1989.9 262.737 2018.19 311.646 2076.38C358.663 2132.49 406.984 2159.89 459.482 2159.89C490.069 2159.89 520.455 2150.58 550.471 2136.8C580.485 2123.02 610.163 2104.77 639.326 2086.85L650.442 2080.02C676.43 2064.09 702.776 2048.41 729.48 2036.22C759.998 2022.28 790.954 2012.91 822.34 2012.91C904.411 2012.91 976.282 2075.91 1048.56 2211.62C1073.57 2258.64 1103.47 2288.92 1134 2308V2310.84C1100.91 2290.49 1070.83 2258.69 1046.39 2212.79C966.691 2063.19 893.098 2015.31 822.223 2015.31C760.082 2015.31 700.196 2052.13 640.488 2088.84C580.709 2125.59 521.108 2162.22 459.365 2162.22C411.24 2162.22 361.711 2139.95 309.774 2077.85L309.773 2077.85C254.6 2012.18 184.965 1992.18 113.803 1992.18C75.6464 1992.18 37.0421 1997.95 0 2005.53V2003.2C37.0657 1995.64 75.6925 1989.9 113.92 1989.9Z" fill="white"/>
<path d="M138.603 1952.48C218.972 1952.48 280.739 1979.25 327.653 2034.23C372.679 2087.29 419.006 2113.16 469.273 2113.16C498.54 2113.16 527.635 2104.39 556.375 2091.41C585.114 2078.44 613.531 2061.23 641.434 2044.34C698.162 2010.01 756.724 1974.62 816.945 1974.62C895.68 1974.68 964.677 2034.05 1034.08 2162.08C1063.07 2215.56 1098.73 2246.14 1134 2262.93V2265.29C1095.3 2247.12 1059.91 2214.42 1032.03 2162.96C955.547 2021.84 884.944 1976.72 816.946 1976.72C757.329 1976.72 699.922 2011.45 642.712 2046.06C585.433 2080.72 528.351 2115.26 469.215 2115.26C423.022 2115.26 375.602 2094.28 325.777 2035.57L325.776 2035.57C272.889 1973.59 206.421 1954.64 138.544 1954.64C91.7058 1954.64 44.1833 1963.66 0 1973.73V1971.52C44.1914 1961.45 91.6915 1952.48 138.603 1952.48Z" fill="white"/>
<path d="M162.993 1915.07C239.495 1915.07 298.449 1940.25 343.312 1992.01C386.344 2041.97 430.677 2066.32 478.771 2066.32C506.717 2066.32 534.521 2058.09 561.993 2045.91C589.464 2033.73 616.635 2017.58 643.307 2001.72L653.513 1995.66C704.643 1965.4 757.28 1936.15 811.377 1936.15C886.774 1936.15 952.896 1991.96 1019.42 2112.32L1020.63 2114.48C1053.54 2172.87 1094.94 2201.72 1134 2214.91V2217.32C1089.71 2202.55 1048.8 2170.02 1017.49 2113.35C944.169 1980.79 876.496 1938.37 811.435 1938.37C754.371 1938.37 699.442 1971 644.723 2003.52C589.936 2036.08 535.36 2068.54 478.83 2068.54C434.686 2068.54 389.26 2048.78 341.605 1993.47L341.604 1993.46L340.416 1992.1C290.013 1934.84 227.14 1917.29 163.052 1917.29C112.45 1917.29 61.0542 1928.21 14.3633 1939.11C9.52239 1940.24 4.73261 1941.37 0 1942.49V1940.17C50.349 1928.28 107.105 1915.07 162.993 1915.07Z" fill="white"/>
<path d="M187.852 1877.53C260.427 1877.53 316.568 1901.14 359.437 1949.74C400.595 1996.59 442.875 2019.41 488.797 2019.41C542.077 2019.41 594.85 1988.7 645.707 1959.03L645.706 1959.03C697.626 1928.8 751.149 1897.62 806.275 1897.62C878.336 1897.62 941.586 1949.86 1005.24 2062.55C1042.48 2128.47 1091.12 2155.06 1134 2164.12V2166.56C1084.34 2156.29 1037.72 2125.03 1003.06 2063.7C932.967 1939.68 868.283 1899.95 806.1 1899.95C751.589 1899.95 699.154 1930.49 646.94 1960.92C594.661 1991.39 542.604 2021.75 488.68 2021.75C446.525 2021.75 403.151 2003.22 357.608 1951.3L357.607 1951.3L356.474 1950.03C308.409 1896.33 248.621 1879.87 187.793 1879.87C139.742 1879.87 90.9711 1890.1 46.6035 1900.32C30.3935 1904.05 14.7781 1907.78 0 1911.01V1908.65C10.0434 1906.44 20.5314 1904 31.4248 1901.47C79.6276 1890.22 134.156 1877.53 187.852 1877.53Z" fill="white"/>
<path d="M212.3 1840.11C281.067 1840.11 334.336 1862.14 375.211 1907.52C414.377 1951.27 454.664 1972.57 498.412 1972.57C549.051 1972.57 599.243 1943.91 647.638 1916.35C697.034 1888.16 748.039 1859.15 800.647 1859.15C869.43 1859.15 929.749 1907.83 990.526 2012.78C1032.46 2085.13 1089 2106.79 1134 2110.74V2113.09C1079.28 2108.37 1026.63 2079.58 988.636 2013.92C921.704 1898.39 860.011 1861.42 800.765 1861.42C748.808 1861.42 698.851 1889.86 649.128 1918.2C599.341 1946.58 549.789 1974.85 498.471 1974.85C458.306 1974.85 416.982 1957.48 373.552 1909.02L373.551 1909.02C327.523 1857.94 270.498 1842.33 212.417 1842.33C166.947 1842.33 120.8 1851.89 78.7559 1861.44C50.0834 1867.95 23.343 1874.44 0 1877.92V1875.66C19.1864 1872.76 40.7773 1867.81 64.373 1862.41C109.996 1851.93 161.593 1840.11 212.3 1840.11Z" fill="white"/>
<path d="M237.159 1802.41C302.059 1802.41 352.457 1822.91 391.338 1865.07C428.571 1905.72 466.863 1925.55 508.438 1925.55C556.493 1925.55 604.161 1899.06 650.095 1873.55C697.146 1847.41 745.631 1820.5 795.663 1820.5C861.052 1820.5 918.497 1865.62 976.399 1962.9C1021.54 2038.79 1083.93 2054.72 1128.27 2054.72C1130.17 2054.72 1132.08 2054.69 1134 2054.63V2057.09C1132.05 2057.14 1130.1 2057.18 1128.15 2057.18C1070.75 2057.18 1014.34 2031.56 974.269 1964.26C910.617 1857.27 851.913 1823.01 795.547 1823.01C746.144 1823.01 698.667 1849.34 651.435 1875.57C604.141 1901.83 557.092 1928 508.379 1928C470.145 1928 430.813 1911.86 389.554 1866.8L389.553 1866.8L388.524 1865.69C344.911 1819.13 291.468 1804.86 237.042 1804.86C194.123 1804.86 150.586 1813.73 110.857 1822.58C71.095 1831.45 35.1984 1840.29 7.44922 1840.29C4.89374 1840.29 2.40983 1840.21 0 1840.05V1837.52C2.41869 1837.69 4.94 1837.77 7.56641 1837.77C32.083 1837.77 64.0394 1830.61 97.7891 1823C140.774 1813.34 189.382 1802.41 237.159 1802.41Z" fill="white"/>
<path d="M261.432 1764.93C322.524 1764.93 370.11 1783.92 406.997 1822.86C442.238 1860.4 478.594 1878.7 517.994 1878.7C563.465 1878.7 608.552 1854.38 652.024 1830.92C696.611 1806.84 742.578 1782.09 790.094 1782.09C852.207 1782.09 906.719 1823.64 961.687 1913.19C995.771 1968.71 1043.24 1998.1 1105.52 1998.1C1114.87 1998.1 1124.4 1997.36 1134 1995.94V1998.36C1124.47 1999.75 1114.9 2000.49 1105.34 2000.49C1051.59 2000.49 998.633 1977.12 960.448 1915.93L959.549 1914.48C899.118 1815.98 843.404 1784.48 789.977 1784.48C743.128 1784.48 698.131 1808.71 653.389 1832.85C608.588 1857.02 564.044 1881.1 517.936 1881.1C481.69 1881.1 444.41 1866.19 405.263 1824.52L405.261 1824.51C363.805 1780.7 313 1767.33 261.432 1767.33C221.093 1767.33 180.21 1775.51 142.827 1783.67C105.411 1791.85 71.5496 1800 45.1475 1800C27.3791 1800 13.1188 1796.31 3.44336 1786.54C2.2231 1785.31 1.07506 1783.98 0 1782.55V1778.44C1.4367 1780.72 3.05688 1782.78 4.86328 1784.63L4.86426 1784.63C13.4402 1793.37 26.6726 1797.6 45.1475 1797.6C68.5489 1797.6 98.7472 1790.91 130.679 1783.89C170.966 1774.99 216.585 1764.93 261.432 1764.93Z" fill="white"/>
<path d="M0 1241.4C38.0882 1387.11 36.2384 1491.11 32.916 1590.97L32.5117 1602.97C31.4564 1634.71 30.3417 1667.51 30.459 1701.13L30.4785 1702.95C30.7976 1721.56 34.7516 1735.03 43.0605 1743.91C51.6453 1753.09 64.7817 1757.26 83.0225 1757.26C105.309 1757.26 133.804 1751.09 163.919 1744.6C201.626 1736.46 244.316 1727.28 286.174 1727.28C343.458 1727.28 388.173 1744.75 423.008 1780.59C456.375 1814.91 490.677 1831.68 527.961 1831.68C570.906 1831.68 613.469 1809.48 654.48 1788.12C696.603 1766.15 739.994 1743.56 784.876 1743.56C843.597 1743.56 895.177 1781.55 947.268 1863.42C979.713 1914.49 1024.66 1941.47 1083.01 1941.47C1099.6 1941.47 1116.82 1939.04 1134 1934.49V1936.99C1117.19 1941.4 1099.97 1943.87 1082.83 1943.87C1031.81 1943.87 981.553 1922.05 945.122 1864.76C887.913 1774.75 835.246 1745.95 784.7 1745.95C740.466 1745.95 697.978 1768.05 655.733 1790.07C613.433 1812.12 571.377 1834.08 527.844 1834.08C494.064 1834.08 459.398 1820.87 422.941 1784.06L421.204 1782.29C382.094 1742 334.397 1729.73 286.056 1729.73C248.24 1729.73 209.952 1737.24 174.878 1744.73C139.772 1752.24 107.931 1759.71 82.9053 1759.71C66.0728 1759.71 52.4194 1756.34 42.9473 1747.41C33.4801 1738.49 28.0877 1723.93 28 1701.3C27.4132 1559.82 48.5416 1442.51 0 1251.26V1241.4Z" fill="white"/>
<path d="M0 1136.85C67.5729 1333.75 67.8075 1455.18 67.9824 1572.66L68.0059 1584.08C68.0732 1610.85 68.2534 1638.38 69.3311 1666.31L69.4072 1667.95C70.302 1684.75 74.4779 1696.93 82.627 1704.96C91.0415 1713.26 103.597 1717.03 120.838 1717.03C141.949 1717.03 168.744 1711.39 197.042 1705.48C232.052 1698.16 271.753 1689.86 310.681 1689.86C364.216 1689.86 406.119 1705.75 438.961 1738.43C470.395 1769.65 502.762 1784.9 537.87 1784.9C578.231 1784.9 618.268 1764.8 656.818 1745.49C696.478 1725.63 737.351 1705.14 779.658 1705.14C835.047 1705.14 883.696 1739.58 932.851 1813.72C963.657 1860.22 1006.14 1884.85 1060.49 1884.85C1084.26 1884.85 1109.54 1879.61 1134 1870.15V1872.81C1110.41 1881.89 1085.3 1887.31 1060.38 1887.31C1012.58 1887.31 965.423 1867.36 930.812 1815.1C876.881 1733.63 827.205 1707.54 779.6 1707.54C737.921 1707.54 697.898 1727.54 658.129 1747.47C618.307 1767.42 578.741 1787.29 537.812 1787.29C505.482 1787.29 472.243 1774.89 437.262 1740.12C400.379 1703.41 355.853 1692.26 310.681 1692.26C275.446 1692.26 239.798 1699.06 207.062 1705.85C174.295 1712.65 144.488 1719.43 120.838 1719.43C104.942 1719.43 91.9255 1716.36 82.6777 1708.26C73.4387 1700.16 67.8647 1686.95 67.0469 1666.45C61.0287 1513.81 82.6147 1387.78 0 1143.97V1136.85Z" fill="white"/>
<path d="M1020.3 694.941C1049.17 694.955 1077.57 697.873 1105.47 700.678C1115.06 701.65 1124.59 702.659 1134 703.92V706.297C1124.72 705.046 1115.15 704.022 1105.22 703.021L1104.17 702.903H1104.16C1076.79 700.152 1048.5 697.279 1020.04 697.279C1008.3 697.279 997.377 697.748 986.748 698.745C920.113 705.078 856.662 732.108 789.605 760.618C760.875 772.857 731.219 785.5 701.51 796.21C677.186 805.049 648.527 813.98 620.01 813.98C609.903 813.98 600.211 812.872 591.168 810.6C557.466 802.199 529.877 779.677 503.125 757.821C479.805 738.744 455.581 718.949 427.576 709.136C414.267 704.431 399.671 702.081 384.144 702.081C376.555 702.081 368.674 702.669 360.738 703.784C314.297 710.419 272.431 734.668 245.904 770.324C231.067 790.266 223.37 812.165 216.864 831.85L215.577 835.756C211.175 849.122 207.38 860.601 202.136 869.563C196.275 879.581 185.926 892.151 172.851 902.352C159.773 912.554 144.013 920.352 127.329 920.903L127.325 920.904C125.93 920.962 124.534 920.962 123.066 920.962C110.204 920.962 96.6338 919.268 83.4355 917.628C74.997 916.574 67.0068 915.577 59.9541 915.107C58.5849 914.989 57.2775 914.989 55.9941 914.989C40.9561 914.989 29.6586 920.501 21.4658 931.826C14.1818 941.911 10.0269 956.158 8.19043 972.77C6.35309 989.39 6.83148 1008.43 8.85645 1028.13C12.9063 1067.54 23.1464 1109.67 33.4746 1140.62C91.7275 1314.99 98.0579 1425.02 102.66 1529.77L103.102 1539.89C104.45 1570.98 105.682 1600.39 108.263 1631.37L108.396 1632.84C109.866 1647.87 114.252 1658.75 122.227 1665.92C130.455 1673.32 142.414 1676.69 158.654 1676.69C178.591 1676.69 203.683 1671.58 230.105 1666.25C262.536 1659.69 299.189 1652.27 335.188 1652.27C384.916 1652.27 424.067 1666.64 454.915 1696.11C484.417 1724.28 514.788 1737.99 547.837 1737.99C585.553 1737.99 623.066 1720.01 659.214 1702.75L666.212 1699.41C701.267 1682.72 737.306 1666.61 774.557 1666.61C826.556 1666.61 872.274 1697.43 918.434 1763.89L919.119 1764.88C948.249 1806.29 989.352 1828.17 1037.98 1828.17C1070.94 1828.17 1104.55 1818.05 1134 1802.6V1805.2C1104.6 1820.49 1071.1 1830.45 1037.92 1830.45C993.338 1830.45 949.29 1812.48 916.44 1765.2C865.788 1692.28 819.161 1668.95 774.498 1668.95C735.376 1668.95 697.836 1686.84 660.549 1704.66C623.213 1722.5 586.134 1740.27 547.778 1740.27C517.377 1740.27 486.071 1729.09 453.261 1697.72C418.548 1664.64 377.074 1654.55 335.129 1654.55C302.446 1654.55 269.438 1660.65 239.047 1666.74C208.627 1672.83 180.871 1678.91 158.596 1678.91C143.635 1678.91 131.239 1676.16 122.207 1668.9C113.188 1661.65 107.434 1649.83 105.917 1631.47C94.3718 1491.75 108.381 1372.2 31.1992 1141.24C20.4196 1108.97 5.9823 1051.68 4.60645 1002.48C3.9183 977.875 6.50029 955.356 14.3887 939.007C18.3293 930.84 23.5874 924.228 30.4102 919.656C37.2302 915.086 45.6449 912.534 55.9355 912.534C57.2871 912.534 58.6737 912.535 60.0566 912.65H60.0674C69.0472 913.205 79.5173 914.667 90.3926 915.993C101.255 917.318 112.51 918.507 123.008 918.507C123.717 918.507 124.412 918.492 125.1 918.478C125.789 918.463 126.473 918.448 127.17 918.448H127.187C144.25 917.887 159.918 909.68 172.577 899.469C185.239 889.255 194.937 876.998 200.067 868.253C203.39 862.575 206.159 855.702 208.85 848.06C211.534 840.434 214.169 831.955 217.186 823.155C223.234 805.508 230.894 786.316 243.95 768.754L243.951 768.755C271.713 731.455 314.564 707.86 360.352 701.319L360.351 701.318C368.244 700.209 376.195 699.626 384.085 699.626C399.105 699.626 414.116 701.786 428.301 706.8L428.302 706.801C458.425 717.393 483.534 738.787 509.009 759.556C534.453 780.299 560.257 800.413 591.688 808.231C600.997 810.585 610.419 811.585 619.951 811.585C647.071 811.585 674.578 803.419 700.678 793.988L705.21 792.339C752.01 775.159 797.882 753.835 843.661 735.565C890.947 716.694 938.194 701.052 986.491 696.462L986.49 696.461C997.729 695.409 1008.91 695 1020.04 695H1020.25L1020.3 694.941Z" fill="white"/>
<path d="M998.846 738.392C1025.79 738.424 1052.28 741.038 1078.21 743.541L1082.99 744.006C1100.43 745.729 1117.56 747.716 1134 751.337V753.753C1116.14 749.799 1097.25 747.739 1077.95 745.883L1076.84 745.767L1076.84 745.766C1051.45 743.318 1025.17 740.81 998.705 740.787L998.646 740.61H998.287C987.311 740.61 977.094 741.021 967.169 741.9C904.877 747.53 845.239 771.512 782.227 796.86C755.197 807.752 727.241 818.99 699.29 828.529C676.431 836.373 649.588 844.312 622.941 844.312C614.071 844.312 605.512 843.39 597.504 841.642L595.91 841.281C564.196 833.815 537.955 813.802 512.435 794.35C490.228 777.437 467.179 759.873 440.879 751.117H440.877C428.393 747 414.738 744.885 400.208 744.885C393.148 744.885 385.797 745.414 378.39 746.412C334.713 752.283 295.076 773.831 269.66 805.502C254.653 824.194 246.831 845.173 239.916 863.551C235.337 875.747 231.427 886.23 226.127 894.432C220.76 902.764 211.371 914.125 199.291 923.616C187.209 933.11 172.471 940.703 156.399 941.574L156.392 941.575H156.384C154.357 941.749 152.268 941.749 150.153 941.749C142.022 941.749 133.572 941.034 125.3 940.228L121.768 939.878C113.038 939 104.687 938.178 97.3281 938.178H94.6738C79.2294 938.651 67.6446 944.573 59.3379 956.307C52.1319 966.474 48.045 980.278 46.209 996.027C44.3722 1011.78 44.7831 1029.53 46.6064 1047.62C50.2532 1083.8 59.5555 1121.41 67.8887 1147.35C118.88 1306.27 128.55 1410.7 137.05 1502.91C139.946 1533.82 142.624 1563.1 146.681 1593.44L147.078 1596.38C148.964 1610.28 153.589 1620.28 161.638 1626.8C169.679 1633.32 181.054 1636.28 196.294 1636.28C215.114 1636.28 238.386 1631.76 262.993 1627.02C292.784 1621.22 326.449 1614.73 359.46 1614.73C405.441 1614.73 441.841 1627.53 470.755 1653.84C498.324 1678.9 526.757 1691.15 557.687 1691.15C592.875 1691.15 627.862 1675.34 661.608 1660.13C696.338 1644.43 732.236 1628.26 769.339 1628.26C817.951 1628.26 860.737 1655.47 903.842 1714.19C931.372 1751.73 969.923 1771.55 1015.29 1771.55C1059.21 1771.55 1101.71 1754.24 1134 1731.41V1734.03C1100.79 1756.96 1057.82 1773.88 1015.35 1773.88C974.306 1773.88 933.68 1758.09 902.739 1716.58L902.01 1715.59C854.694 1651.21 811.175 1630.6 769.397 1630.6C732.862 1630.6 697.789 1646.39 662.97 1662.12C628.106 1677.86 593.499 1693.55 557.745 1693.55C529.212 1693.55 499.956 1683.59 469.199 1655.61C436.774 1626.11 398.352 1617.13 359.519 1617.13C329.418 1617.13 299.05 1622.53 271.004 1627.91C242.932 1633.31 217.224 1638.68 196.354 1638.68C182.328 1638.68 170.565 1636.25 161.763 1629.84C153.251 1623.63 147.432 1613.64 145.062 1598.28L144.844 1596.78C127.792 1471.71 133.761 1360.06 65.7334 1148.15C55.8614 1117.37 43.0379 1064.82 42.7598 1019.68C42.6207 997.103 45.6211 976.445 53.6455 961.299C61.5246 946.427 74.2507 936.854 93.7139 935.991L94.6455 935.957H97.3281C105.067 935.957 113.819 936.846 122.878 937.74C131.925 938.633 141.272 939.529 150.153 939.529C152.215 939.529 154.276 939.47 156.279 939.353L156.278 939.352C171.869 938.524 186.285 930.965 198.062 921.656C209.843 912.345 219.025 901.251 224.153 893.274L224.154 893.273C230.756 882.97 235.432 868.395 241.554 852.613C247.69 836.795 255.304 819.681 267.802 804.137C294.565 770.872 335.014 749.965 378.054 744.183C385.42 743.19 392.786 742.665 400.208 742.665C414.293 742.665 428.31 744.591 441.619 749.021C469.958 758.417 493.866 777.416 518.116 795.87C542.337 814.302 566.894 832.185 596.443 839.151C605.163 841.211 614.056 842.092 622.941 842.092C648.298 842.092 674.102 834.807 698.56 826.431C744.117 810.883 788.715 791.217 833.129 774.457C877.57 757.686 921.886 743.798 967.02 739.734L967.021 739.735C977.5 738.858 987.981 738.448 998.346 738.448H998.846V738.392Z" fill="white"/>
<path d="M976.211 782.072H976.711C1002.01 782.072 1026.79 784.354 1051.07 786.579C1074.81 788.746 1098.04 791.203 1119.63 797.511C1124.51 798.948 1129.32 800.549 1134 802.329V804.729C1129.27 802.904 1124.26 801.212 1118.97 799.655L1118.97 799.654C1097.69 793.432 1074.61 790.97 1050.87 788.804L1049.63 788.687C1025.95 786.52 1001.48 784.293 976.711 784.293H976.594C966.381 784.293 956.928 784.645 947.649 785.407H947.647C889.758 790.333 833.934 811.324 774.908 833.453C749.579 842.998 723.383 852.831 697.131 861.2C675.737 868.049 650.59 874.996 625.873 874.996C617.112 874.996 608.647 874.121 600.712 872.373C570.983 865.781 546.027 848.278 521.799 831.229C500.765 816.482 478.95 801.09 454.296 793.45C442.576 789.803 429.802 787.982 416.331 787.982C409.744 787.982 402.921 788.393 396.04 789.274C355.825 794.36 318.952 812.701 294.571 839.678L293.42 840.969C279.173 857.139 271.231 875.537 264.257 891.691C259.676 902.19 255.418 912.089 250.119 919.532C243.522 928.804 234.017 939.026 222.83 947.196C211.64 955.368 198.799 961.465 185.524 962.538C182.491 962.771 179.222 962.888 175.599 962.888C168.757 962.888 161.795 962.479 154.992 962.069C148.485 961.66 142.373 961.307 136.609 961.307C134.244 961.307 132.097 961.352 130.131 961.481L129.299 961.543C115.421 962.592 104.899 968.468 97.2197 979.387L96.8564 979.911C90.3011 989.518 86.4918 1002.32 84.6738 1016.81C82.8551 1031.3 83.0238 1047.52 84.4512 1064C87.3057 1096.95 95.2 1130.98 102.36 1154.37C140.496 1279.22 154.779 1366.56 166.27 1442.8L168.537 1457.91C173.872 1493.62 178.975 1527.31 185.955 1561.58C188.405 1573.6 193.217 1582.25 201.06 1587.88C208.89 1593.5 219.667 1596.05 233.935 1596.05C251.578 1596.05 273.087 1592.12 295.82 1587.97L300.941 1587.03C326.746 1582.31 355.472 1577.38 383.674 1577.38C426.026 1577.38 459.675 1588.59 486.654 1611.74C512.349 1633.77 538.844 1644.48 567.712 1644.48C600.312 1644.48 632.831 1630.79 664.176 1617.62L664.177 1617.62C696.5 1603.97 729.824 1589.96 764.355 1589.96C809.582 1589.96 849.321 1613.61 889.371 1664.61L890.61 1666.16C916.762 1698.57 951.128 1715.04 992.775 1715.04C1028.24 1715.04 1068.15 1702.12 1102.34 1679.71L1102.33 1679.71C1114.49 1671.75 1125.21 1663.05 1134 1654.2V1657.53C1125.4 1665.94 1115.15 1674.16 1103.69 1681.68C1072.5 1702.14 1032.47 1717.38 992.835 1717.38C954.686 1717.38 916.904 1703.26 887.636 1666.04C843.714 1610.15 803.245 1592.3 764.414 1592.3C730.466 1592.3 697.862 1605.98 665.503 1619.6C633.103 1633.24 600.953 1646.82 567.771 1646.82C541.578 1646.82 514.692 1638.35 486.536 1614.64L485.194 1613.5L483.77 1612.3C453.773 1587.27 418.895 1579.65 383.732 1579.65C356.214 1579.65 328.501 1584.33 302.815 1589C277.105 1593.68 253.46 1598.33 233.993 1598.33C220.903 1598.33 209.774 1596.23 201.206 1590.66C192.924 1585.28 186.973 1576.62 183.989 1563.32L183.71 1562.02C161.097 1451.44 159.139 1347.8 100.21 1155.01C91.4224 1126.25 80.5771 1078.62 81.0234 1037.48C81.2466 1016.91 84.2937 998.02 91.7881 983.937C99.266 969.884 111.171 960.608 129.202 959.202L129.213 959.201C131.533 958.969 134.035 958.91 136.668 958.91C142.63 958.91 149.064 959.305 155.671 959.7C162.272 960.095 169.044 960.491 175.657 960.491C178.952 960.491 182.247 960.374 185.426 960.139H185.429C199.604 959.016 212.785 952.075 223.68 943.655C234.578 935.233 243.23 925.299 248.354 918.122C254.93 908.904 259.828 895.942 266.036 881.994C272.26 868.013 279.828 852.961 291.767 839.404C317.53 810.115 355.58 792.01 395.874 786.929C402.714 786.053 409.553 785.586 416.448 785.586C429.538 785.586 442.562 787.278 455.055 791.126C481.611 799.384 504.32 816.003 527.345 832.143C550.343 848.263 573.651 863.897 601.316 870.011C609.448 871.835 617.693 872.6 625.99 872.6C649.641 872.6 673.624 866.255 696.498 858.933L696.497 858.932C739.211 845.287 781.051 828.084 822.624 813.43C864.224 798.766 905.612 786.632 947.556 783.065C957.163 782.319 966.715 781.968 976.211 781.956V782.072Z" fill="white"/>
<path d="M955.194 825.462C978.621 825.462 1001.58 827.451 1023.98 829.325C1046.09 831.14 1067.62 833.305 1087.57 838.679C1105 843.38 1121.4 850.022 1134 859.504V862.544C1122.66 853.603 1106.89 846.371 1086.95 840.992C1067.08 835.592 1045.7 833.481 1023.77 831.666L1022.49 831.55H1022.49C1000.62 829.676 978.026 827.8 955.136 827.8H954.545L954.604 828.153C945.323 828.165 936.76 828.458 928.363 829.09H928.361C878.218 833.048 829.375 849.065 778.113 866.681L767.827 870.222C744.139 878.362 719.702 886.79 695.208 893.988C675.279 899.842 651.945 905.796 629.098 905.796C620.92 905.796 613.096 905.037 605.745 903.522C579.735 898.218 557.359 884.657 535.715 870.961L531.396 868.223C511.531 855.581 490.893 842.482 467.946 835.9C457.109 832.783 445.218 831.196 432.747 831.196C427.013 831.196 421.123 831.506 415.175 832.174L413.984 832.312C375.37 836.833 341.078 852.567 317.418 876.609C305.616 888.603 298.012 902.304 291.546 914.872L288.835 920.182C284.139 929.444 279.706 938.12 274.408 944.807C271.109 948.947 263.485 957.845 253.053 966.106C242.615 974.372 229.407 981.966 214.941 983.562C206.12 984.553 196.882 984.612 188.849 984.612H179.878C174.935 984.612 169.715 984.612 164.958 984.902L164.013 984.965C151.887 985.769 142.575 990.755 135.581 1000.18L134.911 1001.1C128.722 1009.9 125.007 1021.65 123.095 1034.96C121.182 1048.27 121.067 1063.18 122.105 1078.33C124.182 1108.62 130.875 1139.93 137.067 1161.44C165.146 1258.98 180.21 1330.75 193.519 1394.05C203.719 1442.59 212.577 1484.54 225.013 1526.72C228.029 1536.85 233.031 1544.12 240.655 1548.85C248.264 1553.57 258.425 1555.71 271.691 1555.71C288.1 1555.71 307.849 1552.3 328.705 1548.79C353.16 1544.63 380.851 1539.96 407.947 1539.96C446.671 1539.96 477.686 1549.65 502.791 1569.65L503.905 1570.53C527.323 1588.86 551.588 1597.81 578.031 1597.81C608.101 1597.81 638.15 1586.24 667.094 1575.06C697.012 1563.52 727.821 1551.67 759.724 1551.67C801.567 1551.67 838.201 1571.77 875.137 1614.97L876.298 1616.31C900.802 1644.29 932.437 1658.47 970.438 1658.47C1003.2 1658.47 1039.11 1647.61 1071.54 1627.84C1085.47 1619.33 1097.8 1609.6 1107.31 1599.88C1116.82 1590.17 1123.55 1580.44 1126.23 1571.93C1128.36 1565.09 1129.09 1555.75 1129.12 1545.02C1129.15 1535.62 1128.63 1525.12 1128.03 1514.25L1127.77 1509.57C1126.69 1489.5 1125.52 1468.15 1127.02 1449.17C1127.99 1436.87 1130.07 1425.62 1134 1416.37V1422.69C1132.3 1427.96 1131.09 1433.75 1130.25 1439.9C1128.27 1454.41 1128.35 1471 1129.02 1487.65C1129.68 1504.33 1130.94 1521 1131.33 1535.82C1131.71 1550.63 1131.22 1563.45 1128.44 1572.33C1125.71 1581.03 1119.06 1590.89 1109.43 1600.82C1099.81 1610.73 1087.23 1620.67 1072.71 1629.52C1043.67 1647.22 1006.88 1660.52 970.38 1660.52C935.446 1660.52 900.766 1648.33 873.317 1616.19C832.906 1568.85 795.488 1553.71 759.665 1553.71C728.306 1553.71 698.171 1565.29 668.265 1576.82C638.323 1588.36 608.614 1599.86 577.973 1599.86C553.171 1599.86 527.835 1592.34 501.244 1571.21C473.043 1548.75 440.496 1542 407.829 1542C382.894 1542 357.837 1545.95 334.519 1549.89C311.178 1553.83 289.61 1557.75 271.575 1557.75C259.42 1557.75 248.937 1555.97 240.631 1551.26C232.344 1546.56 226.174 1538.91 222.688 1527.08L221.366 1522.56C207.851 1475.91 198.56 1429.21 186.751 1373.42C174.562 1315.83 159.697 1248.58 134.745 1161.75L134.02 1159.19C126.491 1132.25 118.091 1089.95 119.161 1053.43C119.714 1034.58 122.789 1017.32 129.765 1004.52C136.724 991.755 147.564 983.417 163.729 982.332L163.738 982.331C168.638 981.923 174.069 981.923 179.761 981.923H188.79C197.409 981.923 206.287 981.807 214.643 980.866L214.642 980.865C227.37 979.476 239.298 973.185 249.303 965.669C259.312 958.15 267.432 949.378 272.552 942.972C279.1 934.782 284.236 923.406 290.538 911.284C296.856 899.132 304.377 886.156 315.728 874.616C340.492 849.417 376.084 834.056 413.691 829.675L413.69 829.674C419.948 828.973 426.319 828.565 432.688 828.565C444.844 828.565 456.933 830.025 468.549 833.348C493.294 840.438 514.79 854.693 536.583 868.532C558.352 882.356 580.41 895.757 606.191 900.989C613.733 902.519 621.389 903.166 629.039 903.166C651.042 903.166 673.262 897.702 694.493 891.435L698.226 890.327C736.775 878.803 774.61 864.588 812.131 852.432C850.888 839.875 889.364 829.496 928.146 826.456L928.146 826.455C937.219 825.754 946.235 825.462 955.136 825.462H955.194Z" fill="white"/>
<path d="M933.518 868.677C955.104 868.681 976.225 870.316 996.725 871.896C1017.13 873.477 1036.97 875.29 1055.33 879.729C1076.65 884.876 1096.24 892.639 1108.86 905.014C1125.12 920.989 1130.77 937.752 1133.05 955.4C1133.46 958.615 1133.77 961.857 1134 965.13V1005.39C1133.26 998.374 1132.92 991.493 1132.66 984.759L1132.52 981.054C1131.52 953.538 1130.59 929.514 1107.34 906.643C1096.46 895.892 1079.29 887.842 1054.92 881.919L1053.19 881.509C1035.24 877.349 1016.22 875.652 996.688 874.178L995.34 874.061H995.335C975.364 872.54 954.669 870.958 933.619 870.955C924.931 870.955 916.828 871.249 908.961 871.776H908.959C859.819 875.295 811.569 890.187 760.572 905.994C739.959 912.362 718.686 918.934 697.373 924.697L693.109 925.839C673.826 930.932 653.124 935.659 632.204 935.659C624.728 935.659 617.489 935.018 610.719 933.794C584.958 929.068 562.633 916.524 540.929 904.338C522.178 893.804 502.774 882.877 481.476 877.412C471.405 874.824 460.457 873.532 448.987 873.532C443.397 873.532 437.576 873.885 431.759 874.472H431.756C395.969 878.286 363.795 891.318 341.247 911.367C328.46 922.667 320.275 936.14 313.125 947.964C308.312 955.936 303.764 963.388 298.468 969.2C285.697 983.242 265.981 1000.51 244.179 1003.77C235.704 1005.05 226.873 1005.58 218.312 1006.04H218.31C211.717 1006.43 205.415 1006.81 199.805 1007.49L198.692 1007.63C187.349 1009.11 178.72 1014.52 172.251 1024.18C161.219 1040.64 158.55 1067.12 159.862 1094.12C161.176 1121.15 166.49 1148.82 171.539 1167.76L173.66 1175.76C181.361 1204.88 188.199 1231.66 194.441 1256.28L201.027 1282.29C222.952 1369.12 238.792 1431.87 263.727 1491.17C267.168 1499.32 272.389 1505.22 279.809 1509.08C287.214 1512.93 296.772 1514.72 308.863 1514.72C324.036 1514.72 341.957 1512.02 360.885 1509.09L369.194 1507.83C388.869 1504.86 410.426 1501.96 431.574 1501.96C466.906 1501.96 495.35 1510.13 518.581 1526.98C540.527 1542.85 563.259 1550.56 588.174 1550.56C615.828 1550.56 643.406 1541.04 670.007 1531.91C697.52 1522.48 725.816 1512.73 755.033 1512.73C793.381 1512.73 826.97 1529.22 860.614 1564.69C884.051 1589.39 914.498 1601.91 951.149 1601.91C985.168 1601.91 1018.82 1590.94 1044.89 1576.41C1057.93 1569.15 1069.09 1560.98 1077.46 1552.83C1085.82 1544.7 1091.44 1536.55 1093.33 1529.3L1093.49 1528.78L1093.8 1528.32L1093.8 1528.32C1098.15 1522.2 1100.37 1512.98 1101.56 1502.11C1102.75 1491.22 1102.91 1478.59 1103.09 1465.63C1103.29 1449.46 1103.51 1433.05 1105.69 1418.48C1107.86 1403.89 1111.97 1391.22 1119.9 1382.46L1119.9 1382.45C1124.48 1377.38 1129.21 1373.34 1134 1369.94V1372.84C1130.12 1375.68 1126.31 1378.99 1122.58 1382.97L1121.57 1384.07C1114.45 1391.92 1110.55 1403.25 1108.37 1416.2C1106.18 1429.15 1105.7 1443.79 1105.47 1458.3C1105.24 1472.83 1105.26 1487.21 1104.08 1499.73C1102.91 1512.26 1100.55 1522.8 1095.62 1529.68L1095.56 1529.76L1095.54 1529.85C1093.61 1537.29 1087.92 1545.67 1079.34 1554.07C1070.77 1562.46 1059.36 1570.84 1046.05 1578.28C1019.41 1593.15 985.229 1604.25 951.091 1604.25C918.016 1604.25 884.972 1593.8 858.877 1566.28C822.035 1527.44 787.846 1515.01 754.975 1515.01C726.236 1515.01 698.542 1524.5 671.06 1533.95C643.546 1543.41 616.247 1552.84 588.174 1552.84C565.236 1552.84 541.769 1546.54 517.231 1528.81C491.086 1509.93 461.362 1504.24 431.633 1504.24C409.282 1504.24 386.88 1507.43 365.937 1510.62C344.974 1513.82 325.496 1517 308.922 1517C297.759 1517 287.965 1515.55 279.955 1511.71C271.962 1507.88 265.716 1501.65 261.658 1492.01C227.567 1410.95 210.916 1325.49 171.246 1175.51L169.339 1168.32C162.75 1143.58 155.698 1104.62 157.497 1070.92C158.397 1054.07 161.507 1038.58 167.958 1026.84C174.396 1015.13 184.156 1007.16 198.412 1005.28L198.411 1005.28C204.955 1004.44 212.468 1004.06 220.281 1003.6C228.085 1003.15 236.183 1002.62 243.858 1001.47C255.138 999.789 265.811 994.134 274.925 987.515C284.043 980.893 291.632 973.283 296.745 967.647L297.35 966.972C303.571 959.907 308.808 950.424 315.012 940.449C321.431 930.126 328.92 919.211 339.683 909.656C363.567 888.485 396.644 875.868 431.507 872.187L431.508 872.188C437.299 871.603 443.144 871.253 448.987 871.253C460.149 871.253 471.306 872.478 482.048 875.219L483.123 875.5C505.676 881.484 525.661 893.157 545.899 904.5C566.438 916.011 587.229 927.177 611.124 931.557C618.078 932.851 625.144 933.38 632.204 933.38C652.441 933.38 672.897 928.857 692.545 923.644C729.542 913.864 765.833 901.584 801.718 891.135C837.625 880.678 873.173 872.038 908.796 869.495L908.795 869.494C917.092 868.911 925.333 868.678 933.518 868.677Z" fill="white"/>
<path d="M0 1427.35C3.76594 1480.92 2.57278 1529.87 0 1578.23V1505.79C0.0260149 1501.31 0.0274602 1496.8 0 1492.28V1427.35Z" fill="white"/>
<path d="M911.893 912.242H912.16C931.957 912.242 951.229 913.587 969.937 914.817C988.698 916.047 1006.78 917.51 1023.57 921.073C1043.43 925.286 1061.56 931.356 1073.72 941.348C1089.16 954.032 1095.84 967.793 1099.62 982.55C1101.51 989.939 1102.68 997.576 1103.86 1005.47C1105.03 1013.35 1106.22 1021.49 1108.14 1029.84C1111.77 1045.62 1115.01 1063.87 1125.5 1080.24C1127.95 1084.07 1130.84 1088.1 1134 1092.24V1095.93C1130.34 1091.23 1126.98 1086.65 1124.13 1082.31L1123.47 1081.28C1113.91 1066.38 1110.23 1049.89 1106.95 1035.25L1105.83 1030.21L1105.83 1030.21L1105.49 1028.69C1103.81 1021.11 1102.72 1013.78 1101.68 1006.65L1101.01 1002.18C1097.63 980.033 1093.55 960.557 1072.18 942.976C1061.83 934.408 1045.67 928.005 1023.02 923.198L1023.01 923.197L1021.41 922.868C1004.81 919.526 986.746 918.116 969.708 916.981L968.311 916.865L968.303 916.864L961.438 916.405C945.422 915.35 928.971 914.412 912.25 914.404L912.19 914.346H911.984C904.059 914.346 896.721 914.58 889.501 914.99H889.498C844.764 917.805 800.331 929.765 753.321 942.352C732.976 947.798 711.994 953.417 691.015 958.274C673.256 962.372 654.247 966.108 635.253 966.108C628.419 966.108 621.82 965.583 615.633 964.592C591.854 960.799 570.81 950.761 550.398 940.979C532.817 932.55 514.592 923.858 494.945 919.452L494.944 919.451C485.7 917.393 475.638 916.336 465.169 916.336C460.05 916.336 454.757 916.63 449.47 917.1C416.449 920.092 386.455 930.597 364.966 946.591L364.965 946.593C352.882 955.659 344.518 966.721 337.191 976.497L337.189 976.499C332.319 983.062 327.713 989.174 322.533 994.058C309.571 1006.24 292.428 1020.66 273.472 1024.38H273.47C266.746 1025.72 259.727 1026.66 252.983 1027.54L252.981 1027.54C246.011 1028.47 239.364 1029.35 233.537 1030.59C223.546 1032.73 215.52 1038.49 209.649 1047.79C200.571 1062.15 197.304 1083.71 197.495 1106.68C197.686 1129.68 201.342 1154.16 206.186 1174.42C238.958 1311.26 261.721 1388.28 302.631 1455.75C310.268 1468.38 323.738 1473.91 345.917 1473.91C359.793 1473.91 375.893 1471.79 392.887 1469.51C413.001 1466.82 433.841 1464.07 455.085 1464.07C487.084 1464.07 513.076 1470.73 534.553 1484.43C554.681 1497.24 575.646 1503.48 598.669 1503.48C623.847 1503.48 649.011 1496.08 673.328 1488.94C698.375 1481.55 724.219 1473.97 750.694 1473.97C785.608 1473.97 815.979 1486.9 846.216 1514.71L847.253 1515.65C869.121 1535.26 896.737 1545.23 929.339 1545.23C959.42 1545.23 989.704 1536.32 1013.74 1524.52C1025.75 1518.62 1036.22 1512 1044.32 1505.39C1052.42 1498.8 1058.19 1492.19 1060.78 1486.32L1060.78 1486.3L1060.98 1485.81L1061.37 1485.42C1066.69 1480.25 1069.99 1472.1 1072.32 1462.38C1074.65 1452.66 1076.03 1441.28 1077.46 1429.61L1077.46 1429.61C1079.02 1416.78 1080.61 1403.75 1083.57 1391.99C1086.52 1380.23 1090.82 1369.78 1097.74 1362.08C1108.29 1350.38 1119.53 1344.26 1130.44 1338.29L1130.44 1338.29C1131.64 1337.64 1132.82 1337 1134 1336.35V1339.18C1132.35 1340.09 1130.69 1340.99 1129.04 1341.9C1119.03 1347.4 1109.02 1353.29 1099.52 1363.81C1092.93 1371.11 1088.81 1381.13 1085.97 1392.35C1083.12 1403.57 1081.53 1416.04 1080.03 1428.27C1078.54 1440.51 1077.14 1452.51 1074.67 1462.85C1072.2 1473.19 1068.69 1481.79 1063.02 1487.28L1062.95 1487.35L1062.91 1487.43C1060.27 1493.39 1054.49 1500.15 1046.29 1506.95C1038.1 1513.74 1027.53 1520.54 1015.35 1526.58C990.981 1538.68 960.232 1547.74 929.339 1547.74C899.358 1547.74 869.235 1539.16 844.663 1516.6C811.567 1486.19 780.61 1476.48 750.754 1476.48C724.668 1476.48 699.417 1483.88 674.336 1491.26C649.229 1498.64 624.293 1505.99 598.728 1505.99C577.475 1505.99 555.876 1500.92 533.33 1486.57C509.124 1471.16 482.05 1466.58 455.085 1466.58C435.29 1466.58 415.516 1469.05 396.939 1471.51C378.347 1473.97 360.973 1476.42 345.917 1476.42C325.566 1476.42 309.62 1471.92 300.672 1457.1C259.208 1388.67 236.357 1310.34 203.992 1175.12L203.479 1172.96C198.203 1150.22 193.461 1117.32 195.862 1088.53C197.102 1073.67 200.241 1059.95 206.161 1049.29C212.073 1038.64 220.751 1031.05 233.102 1028.41C238.911 1027.15 245.502 1026.28 252.358 1025.37C259.207 1024.47 266.318 1023.55 273.138 1022.2C282.965 1020.25 292.383 1015.21 300.611 1009.48C308.843 1003.74 315.915 997.278 321.049 992.443C327.507 986.347 333.132 978.182 339.637 969.717C346.158 961.231 353.599 952.387 363.745 944.816L363.746 944.817C386.695 927.729 417.322 917.797 449.443 914.875L449.447 914.874C454.705 914.349 460.024 914.115 465.345 914.115C475.516 914.115 485.739 915.05 495.605 917.266C516.822 922.023 535.91 931.509 555.236 940.717C574.545 949.916 594.085 958.833 616.121 962.359C622.48 963.359 628.897 963.829 635.371 963.829C653.899 963.829 672.59 960.187 690.595 956.028L693.795 955.284C726.843 947.539 759.312 938.059 791.323 929.969C824.388 921.612 857.009 914.726 889.443 912.709L892.294 912.548C898.848 912.206 905.354 912.07 911.775 912.066L911.893 912.242Z" fill="white"/>
<path d="M891.144 955.516C908.893 955.534 926.182 956.518 942.913 957.446C959.916 958.383 976.365 959.495 991.518 962.124L993.237 962.429C1010.96 965.623 1027.02 970.016 1038.35 977.334L1038.35 977.335C1067.6 996.187 1069.36 1020.35 1079.13 1048.17L1080.01 1050.67C1084.35 1063.32 1088.58 1077.6 1097.37 1090.73L1097.98 1091.64C1104.4 1101.1 1113.16 1111.78 1121.47 1122.17C1125.92 1127.72 1130.23 1133.19 1134 1138.35V1142.21C1128.9 1135.01 1122.54 1127.07 1116.35 1119.36C1108.9 1110.04 1101.23 1100.46 1095.56 1091.99C1087.63 1080.11 1083.31 1067.29 1079.43 1055.86L1079.43 1055.86L1078.23 1052.38C1077.84 1051.23 1077.44 1050.09 1077.03 1048.94C1075.16 1043.57 1073.52 1038.37 1071.99 1033.28V1033.28L1070.81 1029.39C1064.9 1010.1 1058.68 993.184 1037.2 979.305L1036.24 978.706C1026.28 972.574 1011.91 968.054 991.22 964.477C975.593 961.778 958.74 960.663 942.854 959.727L942.839 959.726H941.369C924.959 958.789 908.008 957.852 890.644 957.852H890.144V957.911C883.229 957.919 876.755 958.094 870.394 958.38H870.391C830.005 960.432 789.333 969.402 746.366 978.827C727.78 982.926 708.556 987.141 689.275 990.77C673.098 993.814 655.841 996.616 638.713 996.616C632.516 996.616 626.559 996.266 620.956 995.508H620.954C599.211 992.647 579.447 985.116 560.327 977.794C543.917 971.472 526.813 964.955 508.879 961.666C500.403 960.079 491.344 959.316 481.82 959.316C477.235 959.316 472.472 959.493 467.653 959.845C436.993 962.133 409.827 969.819 389.108 981.987L389.107 981.988C377.434 988.877 369.126 997.414 361.155 1005.61C356.34 1010.53 351.849 1015.19 346.956 1019.03L345.021 1020.55L345.019 1020.56C334.8 1028.71 319.404 1040.93 303.227 1045.12H303.225C298.545 1046.34 293.748 1047.39 289.111 1048.45H289.109C281.792 1050.15 274.845 1051.67 268.779 1053.67C248.688 1060.19 239.699 1081.95 236.75 1107C233.796 1132.08 236.868 1160.7 241.125 1181.32C265.815 1301.04 293.981 1368.19 341.619 1420.52L341.62 1420.52C349.853 1429.51 362.576 1433.5 382.736 1433.5C395.374 1433.5 409.59 1431.98 424.651 1430.34L431.228 1429.64C446.627 1428.01 462.404 1426.54 478.537 1426.54C507.851 1426.54 530.808 1431.5 550.828 1442.11C569.194 1451.81 588.446 1456.58 609.75 1456.58C632.508 1456.58 655.43 1451.17 677.464 1445.96C700.046 1440.63 723.324 1435.14 747.06 1435.14C778.427 1435.14 805.409 1444.59 832.063 1464.79C852.858 1480.56 878.414 1488.55 907.998 1488.55C934.606 1488.55 961.333 1481.87 983.109 1472.9C993.999 1468.41 1003.66 1463.35 1011.45 1458.25C1019.24 1453.16 1025.2 1448.02 1028.65 1443.37L1028.95 1442.98L1029.4 1442.68L1029.4 1442.68C1035.91 1438.5 1040.52 1431.39 1044.21 1422.77C1047.91 1414.15 1050.72 1403.94 1053.59 1393.49L1054.57 1389.9C1059.52 1371.95 1064.97 1353.96 1075.88 1341.82C1084.62 1332.03 1093.72 1326.09 1102.51 1320.35L1102.51 1320.35C1110.48 1315.08 1118.09 1310.14 1125.29 1302.47L1125.29 1302.48C1128.37 1299.21 1131.28 1295.7 1134 1292V1295.59C1131.94 1298.27 1129.81 1300.8 1127.62 1303.18L1126.79 1304.07C1119.1 1312.25 1110.88 1317.49 1102.51 1322.98C1094.4 1328.29 1086.15 1333.83 1078.19 1342.47L1077.42 1343.31C1071.36 1350.06 1067.03 1358.75 1063.52 1368.22C1060.01 1377.69 1057.31 1387.99 1054.56 1397.94C1051.8 1407.9 1048.99 1417.51 1045.25 1425.68C1041.5 1433.85 1036.85 1440.52 1030.44 1444.65L1030.36 1444.7L1030.31 1444.77C1026.99 1449.24 1021.14 1454.37 1013.35 1459.55C1005.56 1464.72 995.859 1469.93 984.836 1474.57C962.788 1483.86 935.503 1490.88 907.822 1490.88C881.353 1490.88 854.519 1484.49 831.588 1467.5L829.135 1465.66C800.522 1444.38 773.36 1437.54 746.942 1437.54C723.54 1437.54 700.721 1442.9 678.019 1448.24C655.297 1453.58 632.693 1458.91 609.632 1458.91C590.062 1458.91 570.151 1455.06 549.595 1444.16C527.275 1432.28 502.736 1428.82 478.42 1428.82C461.153 1428.82 443.964 1430.56 427.725 1432.3C411.474 1434.05 396.188 1435.78 382.678 1435.78C364.359 1435.78 349.421 1432.56 339.838 1422.01C290.563 1367.83 262.678 1297.55 238.821 1181.7C234.548 1160.91 231.332 1131.68 234.475 1105.94C237.622 1080.17 247.111 1058.13 268.035 1051.35L268.983 1051.04C273.76 1049.54 279.062 1048.26 284.585 1046.99C290.469 1045.64 296.609 1044.3 302.599 1042.75C319.314 1038.38 335.234 1025.18 345.464 1017.12L346.062 1016.65C352.224 1011.69 357.937 1005.36 364.343 998.948C370.972 992.313 378.383 985.541 387.915 979.922L387.914 979.921C410.05 966.913 438.113 959.667 467.493 957.445L467.492 957.444C472.229 957.094 477.025 956.92 481.82 956.92C491.056 956.92 500.289 957.679 509.285 959.312C528.725 962.904 546.619 970.027 564.72 976.935C582.806 983.836 601.089 990.518 621.234 993.161C627.062 993.925 632.888 994.278 638.713 994.278C655.471 994.278 672.453 991.577 688.816 988.473L691.753 987.913C753.381 976.086 812.596 959.036 870.267 956.041L870.266 956.04C877.114 955.689 883.907 955.573 890.644 955.573H891.144V955.516Z" fill="white"/>
<path fill-rule="evenodd" clip-rule="evenodd" d="M462.12 1087.62C542.003 1087.62 638.067 1087.69 725.22 1087.76C812.372 1087.84 890.613 1087.91 934.85 1087.91C973.603 1087.94 1000.95 1105.82 1018.61 1129.2C1036.3 1152.59 1044.28 1181.46 1044.28 1203.41C1044.28 1225.35 1036.29 1254.36 1018.61 1277.88C1000.94 1301.37 973.602 1319.37 934.851 1319.38H458.954C421.675 1319.37 393.319 1304.89 374.219 1283.18C355.111 1261.46 345.247 1232.48 345.017 1203.49C344.787 1174.5 354.19 1145.53 373.573 1123.82C392.948 1102.11 422.325 1087.62 462.12 1087.62ZM460.975 1089.96C425.629 1090.23 396.138 1102.32 375.681 1125.02C357.415 1145.26 347.352 1172.79 347.352 1202.47C347.352 1259.42 385.68 1317.1 458.954 1317.1H934.851C971.376 1317.1 998.161 1300.13 1015.8 1277.44C1033.43 1254.77 1041.94 1226.38 1041.94 1203.47C1041.94 1184.34 1035.34 1155.19 1016.74 1130.61C1002.84 1112.2 977.324 1090.25 934.852 1090.25C906.064 1090.19 862.972 1090.13 812.433 1090.13C707.31 1090.01 569.94 1089.9 462.12 1089.9H460.91L460.975 1089.96Z" fill="white"/>
<path fill-rule="evenodd" clip-rule="evenodd" d="M848.024 1043.52H848.665C862.964 1043.52 876.737 1043.82 889.868 1044.17L889.87 1044.17C903.587 1044.46 916.535 1044.87 928.541 1045.75C944.021 1046.86 957.878 1048.2 968.797 1050.83H968.799C994.564 1056.94 1008.37 1069.91 1022.18 1086.38C1025.56 1090.44 1028.75 1094.8 1031.98 1099.33C1035.21 1103.86 1038.48 1108.55 1042.04 1113.24C1052.54 1127.13 1064.87 1143.77 1071.12 1157.88C1078.31 1174.28 1083.03 1191.95 1082.45 1210.95C1081.87 1229.87 1075.36 1250.91 1064.63 1268.19L1064.12 1269.01C1059.98 1275.54 1055.31 1281.04 1050.26 1286.51C1045.23 1291.96 1039.77 1297.41 1034.15 1303.73L1034.15 1303.73C1024.19 1315.03 1015.12 1327.33 1004.51 1337.85C993.928 1348.34 981.898 1356.95 966.157 1360.79C946.319 1365.65 907.044 1376.99 863.615 1376.99C843.72 1376.99 822.959 1374.6 802.852 1368.12C782.326 1361.54 761.81 1359.43 741.197 1359.43C723.26 1359.43 705.268 1361.01 687.222 1362.59C669.168 1364.17 651.058 1365.75 632.85 1365.75C616.225 1365.75 599.554 1364.46 582.716 1360.61C564.489 1356.44 545.393 1355.27 526.672 1355.27C514.26 1355.27 501.981 1355.78 490.168 1356.29C478.351 1356.81 467.003 1357.32 456.434 1357.32C442.082 1357.32 429.302 1356.38 418.703 1353.18L417.135 1352.7C351.007 1332.07 316.909 1272.73 309.067 1196.27C307.342 1179.42 307.9 1159.79 312.295 1141.97C316.692 1124.14 324.913 1108.19 338.467 1098.59C345.467 1093.64 353.587 1089.32 362.194 1085.23C367.694 1082.64 373.323 1079.51 378.854 1076.43C384.391 1073.34 389.829 1070.29 394.971 1067.83L397.321 1066.7C409.101 1061 421.355 1054.75 436.899 1051.36L438.827 1050.94C458.819 1046.72 481.136 1044.61 504.291 1043.88C508.038 1043.76 511.727 1043.7 515.474 1043.7C522.788 1043.7 530.163 1043.99 537.48 1044.52C553.377 1045.72 568.879 1048.1 584.51 1050.41C600.134 1052.71 615.882 1054.94 632.236 1055.82H632.238C636.878 1056.05 641.518 1056.17 646.217 1056.17C659.547 1056.17 672.874 1055.23 685.948 1054.24C737.218 1050.25 786.781 1044.46 832.67 1043.46H832.675C837.841 1043.3 843.009 1043.29 848.082 1043.29L848.024 1043.52ZM848.5 1045.62L848.487 1045.63C844.566 1045.63 840.612 1045.66 836.626 1045.73L832.59 1045.8C800.851 1046.45 767.766 1049.44 732.71 1052.54C717.524 1053.89 701.814 1055.29 686.046 1056.52C673.384 1057.52 659.857 1058.45 646.158 1058.45C641.245 1058.45 636.447 1058.28 631.997 1058.04C614.318 1057.11 597.105 1054.53 580.509 1052.07C566.382 1049.97 551.765 1047.8 537.146 1046.68H537.142C530.272 1046.21 522.932 1045.92 515.356 1045.92C511.658 1045.92 507.958 1045.98 504.259 1046.1C478.735 1046.92 456.189 1049.38 437.33 1053.54C423.195 1056.66 411.831 1062.13 400.869 1067.46L400.864 1067.46C399.222 1068.28 397.586 1069.1 395.952 1069.86L395.947 1069.86C391.005 1072.21 385.888 1075.09 380.44 1078.13L380.438 1078.13C374.749 1081.35 368.902 1084.62 363.176 1087.31L363.174 1087.31C353.426 1091.94 346.011 1096.11 339.824 1100.47L339.823 1100.47C326.639 1109.82 318.71 1125.65 314.489 1143.12C310.399 1160.06 309.775 1178.62 311.264 1194.49L311.414 1196.02C316.758 1248.19 332.897 1283.67 353.148 1307.74C373.4 1331.81 397.735 1344.43 419.413 1350.92C428.567 1353.63 440.348 1354.92 456.434 1354.92C466.531 1354.92 477.271 1354.45 488.644 1353.93C500.958 1353.4 513.728 1352.81 526.672 1352.81C549.102 1352.81 567.12 1354.51 583.255 1358.19C598.308 1361.65 614.645 1363.3 632.908 1363.3C651.167 1363.3 669.54 1361.71 687.361 1360.13C705.07 1358.55 723.34 1356.97 741.255 1356.97C765.134 1356.97 784.898 1359.78 803.601 1365.79C821.598 1371.61 841.82 1374.54 863.615 1374.54C901.852 1374.54 937.085 1365.62 958.132 1360.29H958.135C960.831 1359.59 963.347 1358.95 965.569 1358.42L965.573 1358.42C990.677 1352.29 1005.84 1333.87 1021.77 1314.63C1025.24 1310.47 1028.74 1306.14 1032.37 1302.05C1035.88 1298.14 1039.28 1294.57 1042.56 1291.12C1049.77 1283.62 1056.55 1276.45 1062.15 1267.62C1072.98 1250.51 1079.58 1229.75 1080.17 1210.68C1080.7 1193.97 1077.04 1176.91 1069.04 1158.65L1068.43 1157.29C1061.93 1143.22 1049.44 1126.63 1040.25 1114.45L1040.25 1114.45L1039.23 1113.09C1036.86 1109.91 1034.61 1106.7 1032.41 1103.57L1032.4 1103.57L1029.42 1099.41C1026.71 1095.63 1024.05 1091.99 1021.25 1088.59L1020.48 1087.67C1005.67 1070 992.389 1058.56 968.326 1052.84C956.731 1050.08 941.626 1048.73 928.438 1047.79C915.584 1046.86 901.735 1046.51 889.894 1046.21C875.53 1045.86 862.508 1045.57 848.724 1045.57H848.605L848.5 1045.62Z" fill="white"/>
<path fill-rule="evenodd" clip-rule="evenodd" d="M868.094 999.606H869.303C885.472 999.606 901.175 1000.25 916.185 1000.89L921.913 1001.14C935.202 1001.74 947.94 1002.52 959.821 1004.05C976.763 1006.22 992.058 1009.08 1003.36 1014.2L1003.36 1014.2C1030.85 1026.59 1038.64 1045.28 1050.44 1067.38C1056.09 1078.04 1061.23 1090.41 1069.46 1102.1C1075.3 1110.42 1082.71 1119.77 1089.59 1128.95C1096.27 1137.87 1102.47 1146.63 1106.35 1154.24L1106.71 1154.97C1115.6 1172.96 1122.49 1193.48 1121.26 1219.02C1120.06 1242.77 1110.02 1267.78 1095.9 1285.8L1095.22 1286.65C1089.34 1294.02 1082.9 1299.39 1076.18 1304.86C1069.46 1310.33 1062.47 1315.91 1055.55 1323.64C1044.56 1335.96 1036.96 1352.1 1028.73 1366.93C1020.48 1381.8 1011.6 1395.37 998.046 1402.82C979.962 1412.76 932.911 1433.85 883.432 1433.85C860.748 1433.85 837.619 1429.41 816.487 1417.52C791.598 1403.42 767.472 1398.95 743.718 1398.95C723.032 1398.95 702.632 1402.36 682.272 1405.75C661.899 1409.15 641.567 1412.54 620.948 1412.54C602.94 1412.54 584.711 1409.97 566.021 1402.5C545.594 1394.39 523.596 1392.04 501.93 1392.04C487.134 1392.04 472.458 1393.13 458.491 1394.21C444.516 1395.29 431.258 1396.38 419.263 1396.38C402.983 1396.38 389.157 1394.38 379.144 1387.73L379.142 1387.73L377.781 1386.83C320.818 1348.56 289.839 1285.89 274.14 1191.41L273.769 1189.16C270.726 1170.34 269.427 1145.92 273.226 1124.15C277.028 1102.36 285.909 1083.36 303.099 1075.15L303.098 1075.15C311.684 1071.07 321.91 1067.74 332.245 1064.17C346.035 1059.34 359.836 1049.09 370.045 1042.63L370.046 1042.63C376.361 1038.64 382.488 1033.75 389.204 1028.98C395.939 1024.19 403.321 1019.49 412.242 1015.79C433.515 1006.98 459.076 1002.3 485.718 1000.78L485.717 1000.78C489.929 1000.54 494.2 1000.43 498.471 1000.43C506.778 1000.43 515.081 1000.89 523.204 1002C540.87 1004.37 557.574 1009.12 574.447 1013.72C591.31 1018.33 608.335 1022.79 626.587 1024.55L626.59 1024.55C631.764 1025.02 636.998 1025.25 642.23 1025.25C657.276 1025.25 672.432 1023.43 687.209 1021.38C744.248 1013.47 799.115 1001.77 851.321 999.781C857.003 999.617 862.631 999.507 868.208 999.492L868.094 999.606ZM869.42 1001.83C863.877 1001.83 858.689 1001.87 853.584 1002.04L851.4 1002.12C815.366 1003.47 778.458 1009.45 739.477 1015.71C723.59 1018.24 707.246 1020.86 690.825 1023.21L687.54 1023.67C670.719 1026.02 656.559 1027.59 642.23 1027.59C636.678 1027.59 631.359 1027.3 626.33 1026.83C606.622 1024.96 588.195 1019.88 570.365 1015.02L570.364 1015.02C555.068 1010.86 539.207 1006.52 522.87 1004.29C515.223 1003.23 506.992 1002.71 498.471 1002.71C494.357 1002.71 490.127 1002.82 485.838 1003.06C457.539 1004.64 433.091 1009.63 413.15 1017.85C401.301 1022.74 392.342 1029.45 383.671 1035.83C379.443 1038.94 375.473 1041.91 371.329 1044.53L371.327 1044.53C369.216 1045.88 366.925 1047.35 364.574 1048.93C355.477 1054.97 344.217 1062.43 332.975 1066.32L328.343 1067.9C319.552 1070.89 311.257 1073.77 304.074 1077.18C289.496 1084.14 280.013 1099.75 275.682 1123.38L275.479 1124.51C272.244 1143.13 272.481 1166.55 276.064 1188.73L276.445 1191.05C292.702 1288.83 324.75 1348.99 380.408 1385.76L380.409 1385.76C388.975 1391.4 401.349 1393.98 419.263 1393.98C430.543 1393.98 442.992 1393.04 456.122 1391.99L456.121 1391.99C470.956 1390.81 486.298 1389.65 501.93 1389.65C528.034 1389.65 548.664 1393.04 566.882 1400.27C583.537 1406.91 600.487 1410.14 620.948 1410.14C641.399 1410.14 662.078 1406.74 681.947 1403.4C702.121 1400 722.894 1396.56 743.776 1396.56C771.427 1396.56 794.911 1402.57 817.697 1415.4L818.583 1415.9C837.236 1426.22 859.063 1431.46 883.49 1431.46C939.556 1431.46 991.303 1403.88 997.006 1400.71L997.005 1400.71C1012.64 1392.07 1021.91 1374.88 1031.56 1356.88C1038.13 1344.64 1044.85 1332.1 1053.89 1321.96L1053.89 1321.96C1060.6 1314.5 1067.26 1309.02 1073.76 1303.75L1073.77 1303.75C1080.74 1298.02 1087.46 1292.6 1093.48 1285.05L1093.48 1285.05C1108.08 1266.76 1117.86 1241.37 1118.98 1218.77C1120.04 1197.48 1115.62 1178.07 1104.68 1155.87L1104.19 1154.91C1099.01 1144.84 1089.67 1132.62 1080.71 1120.83C1076.01 1114.68 1071.51 1108.84 1067.65 1103.29L1067.64 1103.28L1067.1 1102.5C1062.21 1095.4 1058.49 1088.19 1054.98 1081.16L1053.44 1078.05C1051.8 1074.72 1050.21 1071.43 1048.51 1068.32C1047.45 1066.32 1046.4 1064.4 1045.4 1062.47L1045.4 1062.46L1043.47 1058.83C1033.93 1040.9 1025.28 1026.5 1002.48 1016.16C990.207 1010.62 973.074 1007.92 959.595 1006.22C945.443 1004.46 929.711 1003.7 916.171 1003.06L916.159 1003.06H914.682C900.092 1002.47 885.02 1001.83 869.42 1001.83Z" fill="white"/>
<path d="M1040.62 651.669H1041.56C1072.36 651.669 1102.71 654.886 1132.5 658.049C1133 658.102 1133.5 658.156 1134 658.209V660.391C1133.46 660.333 1132.92 660.275 1132.37 660.217L1131.38 660.1H1131.37C1102.34 657.072 1072.35 653.867 1042.17 653.832V653.772H1041.67C1029.95 653.772 1019 654.237 1008.34 655.213L1006.21 655.415C935.117 662.451 867.909 692.47 796.808 724.2C767.384 737.362 736.986 750.956 706.506 762.594L703.556 763.714C677.764 773.432 647.35 783.415 616.961 783.415C606.605 783.415 596.582 782.211 587.211 779.856L586.307 779.625C550.616 770.291 521.739 745.315 493.755 721.058C469.263 699.815 443.866 677.79 414.157 666.861C400.027 661.687 384.49 659.043 367.962 659.043C359.845 659.043 351.494 659.689 343.029 660.922C293.708 668.261 249.611 695.21 222.032 734.911C205.446 758.819 197.806 784.894 191.124 807.9C186.898 822.439 183.277 834.913 178.031 844.575C173.865 852.287 164.183 866.174 150.542 878.128C136.899 890.083 119.35 900.058 99.4385 900.058H98.043C83.2451 899.707 67.0362 897.37 51.3154 895.144H51.3135C41.9987 893.856 33.1299 892.566 25.376 891.862L25.3721 891.861C23.2534 891.685 21.1279 891.567 19.1162 891.567C11.9438 891.567 5.59058 892.787 0 895.257V892.806C5.5307 890.519 11.8718 889.288 19.1162 889.288C21.2181 889.288 23.368 889.346 25.5713 889.578H25.5771C35.9106 890.543 48.114 892.443 60.7109 894.18C73.2959 895.915 86.2624 897.485 98.0771 897.778H99.4385C117.63 897.778 134.246 888.888 147.551 877.693C160.859 866.496 170.91 852.949 175.98 843.527C179.316 837.321 182.035 829.788 184.663 821.392C187.283 813.019 189.844 803.676 192.815 793.972C198.776 774.502 206.483 753.248 220.099 733.667C248.86 692.272 294.113 665.932 342.648 658.69L342.647 658.689C351.011 657.463 359.488 656.764 367.903 656.764C383.917 656.764 399.863 659.215 414.927 664.755C446.835 676.486 473.159 700.26 499.866 723.344C526.54 746.399 553.592 768.76 586.875 777.431L587.803 777.669C597.4 780.088 607.156 781.136 616.961 781.136C645.727 781.136 675.055 772.031 702.737 761.546L702.736 761.545C753.981 742.162 804.11 717.574 854.208 696.601C904.337 675.614 954.498 658.218 1005.96 653.131L1008.2 652.919C1019.08 651.933 1029.95 651.518 1040.74 651.495L1040.62 651.669Z" fill="white"/>
<path d="M1063.19 608.104C1087.01 608.104 1110.64 610.014 1134 612.391V614.66C1110.87 612.307 1087.31 610.403 1063.73 610.384L1063.67 610.207H1063.31C1049.98 610.207 1037.71 610.794 1025.67 612.025C954.897 619.281 888.054 648.746 818.104 681.198L804.071 687.723C771.998 702.597 738.828 718.049 705.66 731.101C678.344 741.814 646.174 752.79 613.912 752.79C602.52 752.79 591.599 751.389 581.384 748.649C546.061 739.077 517.342 714.321 489.769 689.297L479.443 679.908C455.263 657.96 430.069 635.936 400.62 624.645C385.724 618.882 369.187 616.004 351.662 616.004C343.612 616.004 335.305 616.624 326.887 617.862L325.202 618.118C273.467 626.099 227.459 655.407 198.778 698.533L198.104 699.555C180.699 726.042 173.236 754.812 166.613 780.099V780.101C162.563 795.693 159.057 809.163 153.868 819.528C148.124 831.06 137.072 845.995 122.621 858.043C108.169 870.092 90.3678 879.212 71.1201 879.212H68.8516C52.7089 878.628 34.9207 875.59 17.6738 872.719H17.6719C11.5311 871.715 5.59299 870.71 0 869.869V867.678C8.92577 869.007 18.7294 870.75 28.7539 872.381C42.2992 874.584 56.2355 876.58 68.874 877.05H71.0615C90.5156 877.05 108.187 867.47 122.227 855.417C136.267 843.362 146.731 828.787 151.773 818.686C155.123 811.952 157.797 803.756 160.366 794.601C161.652 790.021 162.912 785.194 164.219 780.184C165.526 775.172 166.879 769.976 168.349 764.651C174.229 743.352 181.981 720.034 196.126 698.464C225.888 653.089 273.543 623.945 324.827 616.002C333.717 614.659 342.72 613.9 351.662 613.9C368.672 613.9 385.554 616.527 401.494 622.65L401.495 622.651C435.217 635.551 462.758 661.692 490.696 687.075C518.6 712.427 546.9 737.019 582.063 746.57C592.547 749.394 603.262 750.628 613.971 750.628C644.499 750.628 675.529 740.643 704.854 729.104C758.942 707.818 811.828 680.767 864.768 657.688C917.74 634.593 970.831 615.442 1025.48 609.857C1038.12 608.578 1050.65 608.05 1063.18 608.045L1063.19 608.104Z" fill="white"/>
<path d="M1085.06 564.655C1101.48 564.655 1117.79 565.523 1134 566.851V569.093C1117.94 567.772 1101.54 566.876 1085.29 566.876H1085.18C1070.97 566.876 1057.88 567.52 1045.08 568.869C965.242 577.253 886.89 615.009 811.276 651.48C778.559 667.251 744.811 683.509 710.98 697.439L707.706 698.78C678.924 710.489 644.998 722.458 610.863 722.458C598.828 722.458 587.264 720.941 576.524 717.91C536.856 706.766 505.402 676.825 474.895 647.762C448.117 622.188 420.316 595.704 387.2 582.604C371.424 576.372 354.006 573.2 335.422 573.2C326.876 573.2 318.074 573.871 309.161 575.213L307.377 575.49C252.414 584.238 203.86 616.645 174.118 664.372C155.952 693.554 148.609 724.96 142.104 752.59C138.171 769.295 134.781 783.644 129.647 794.713C124.841 805.1 113.92 821.074 98.7705 834.446C83.6207 847.819 64.2978 858.542 42.6846 858.542C42.195 858.542 41.7042 858.527 41.1973 858.513C40.6996 858.498 40.188 858.484 39.6602 858.483C27.2404 857.901 13.3887 855.774 0 853.371V851.085C13.5174 853.528 27.2734 855.661 39.7832 856.262C40.7967 856.321 41.7495 856.321 42.7441 856.321C63.4017 856.321 82.1146 846.066 96.8945 833.163C111.675 820.259 122.58 804.657 127.623 793.847L127.624 793.846C130.986 786.599 133.612 777.752 136.119 767.845C137.373 762.889 138.599 757.661 139.873 752.229C141.147 746.797 142.47 741.159 143.918 735.377C149.711 712.248 157.508 686.851 172.212 663.262C203.032 613.849 253.034 581.959 307.066 573.315C316.481 571.797 326.011 570.979 335.48 570.979C353.484 570.979 371.303 573.899 388.122 580.548L389.78 581.216C424.499 595.478 452.798 623.541 481.513 650.807C510.647 678.47 540.207 705.308 577.251 715.711C588.381 718.828 599.625 720.18 610.98 720.18C643.154 720.18 676.004 709.255 706.911 696.661C763.872 673.443 819.53 643.933 875.312 618.746C931.128 593.544 987.134 572.637 1044.95 566.526L1044.95 566.525C1058.38 565.131 1071.71 564.546 1085.03 564.538L1085.06 564.655Z" fill="white"/>
<path d="M1106.99 521.148H1107.1C1116.09 521.148 1125.06 521.405 1134 521.854V524.154C1125.6 523.727 1117.17 523.466 1108.78 523.434L1109.09 523.252H1107.28C1092.31 523.252 1078.52 523.897 1065.01 525.363C980.715 534.509 898.434 575.429 818.951 614.944C784.643 632.02 749.196 649.637 713.662 664.716L710.223 666.167C681.734 678.169 644.467 691.834 608.284 691.834C596.002 691.834 584.217 690.246 573.195 687.178L572.131 686.876C530.531 674.855 497.789 642.461 465.99 610.996C438.041 583.316 409.067 554.603 374.249 540.388C357.649 533.568 339.292 530.161 319.71 530.161C310.125 530.161 300.13 530.984 290.138 532.628C232.296 542.139 181.515 577.245 150.72 629.014C131.735 660.89 124.158 696.453 118.121 724.961C114.306 742.722 111.092 757.948 105.957 769.72C101.327 780.334 89.94 797.331 73.75 811.669C57.5612 826.006 36.6263 837.638 12.9014 837.638H10.9805C7.41203 837.539 3.73999 837.287 0 836.916V834.834C3.68838 835.196 7.31039 835.44 10.8359 835.534H12.667C35.0209 835.534 55.228 824.712 71.0879 811.017C86.947 797.322 98.5158 780.706 103.591 769.007L103.906 768.271C107.143 760.622 109.65 751.368 112.03 741.032C113.259 735.695 114.456 730.062 115.703 724.207C116.95 718.35 118.247 712.27 119.677 706.03C125.397 681.072 133.239 653.611 148.472 628.002C180.291 574.492 232.696 539.856 289.479 530.511L291.335 530.213C300.62 528.769 310.044 528 319.416 528C338.356 528 357.111 531.152 374.808 538.385C412.072 553.622 442.015 584.542 472.41 614.555C502.768 644.53 533.576 673.597 572.499 684.851C584.158 688.203 596.048 689.672 607.991 689.672C641.926 689.672 676.478 677.867 709.027 664.22C768.832 639.098 827.261 607.126 885.893 579.833C944.559 552.523 1003.5 529.861 1064.47 523.253C1078.66 521.737 1092.79 521.093 1106.87 521.09L1106.99 521.148Z" fill="white"/>
<path d="M1128.47 477.7H1128.68C1130.45 477.7 1132.23 477.713 1134 477.731V480.012C1132.21 479.992 1130.42 479.979 1128.62 479.979H1128.5C1112.83 479.979 1098.27 480.741 1084.13 482.266L1084.12 482.267C995.427 492.116 909.157 536.199 825.864 578.759C788.75 597.732 750.362 617.341 711.978 633.904C682.139 646.785 643.056 661.561 604.941 661.561C591.619 661.56 578.887 659.751 566.975 656.252C523.385 643.355 489.353 608.448 456.322 574.58C427.201 544.734 396.993 513.792 360.474 498.463C343.053 491.174 323.815 487.475 303.176 487.475C293.061 487.475 282.539 488.414 272.02 490.175C211.891 500.31 159.179 537.664 127.252 592.701L126.502 594.005C106.755 628.518 99.3562 666.894 93.3779 697.685L93.377 697.686C89.9096 715.909 86.8382 731.649 82.0332 743.903L81.5625 745.079C76.9315 756.336 65.2952 774.368 48.4619 789.582C35.2039 801.565 18.7549 811.768 0 815.562V813.083C17.3466 809.396 32.9718 799.965 45.8066 788.704C62.3839 774.16 74.3646 756.517 79.4395 744.111C82.8436 735.81 85.3907 725.639 87.79 714.213C88.9901 708.498 90.1545 702.461 91.3711 696.182C92.5879 689.901 93.8567 683.376 95.2666 676.678C100.906 649.882 108.794 620.343 124.556 592.744C157.433 535.194 212.183 497.811 271.717 487.765C282.127 486.012 292.711 485.078 303.234 485.078C323.111 485.078 342.92 488.523 361.437 496.282C400.487 512.659 431.632 545.961 463.251 578.287C494.831 610.574 526.884 641.885 567.687 653.99C579.933 657.636 592.412 659.223 605.001 659.223C640.638 659.223 677.009 646.479 711.142 631.777C773.79 604.753 834.962 570.336 896.422 540.942C957.917 511.533 1019.77 487.115 1083.94 479.98L1083.94 479.979C1098.8 478.35 1113.66 477.648 1128.41 477.642L1128.47 477.7Z" fill="white"/>
<path d="M1134 436.818C1123.63 437.187 1113.68 437.91 1103.88 438.993H1103.88C1010.78 449.546 920.528 496.793 833.365 542.456C794.549 562.718 754.462 583.732 714.318 601.467C683.014 615.284 642.058 631.111 602.187 631.111C588.22 631.111 574.783 629.185 562.346 625.395C516.766 611.621 481.385 574.259 447.064 537.931C416.829 505.92 385.45 472.69 347.286 456.305C329.044 448.488 308.808 444.495 287.17 444.495C276.588 444.495 265.536 445.434 254.485 447.371C191.006 458.29 135.77 498.912 102.812 558.703C82.2455 596.028 75.0233 637.214 69.1621 670.229C65.6414 690.038 62.6002 707.082 57.5791 720.144C52.4814 733.41 39.8538 752.479 22.126 768.229C15.4269 774.18 8.00736 779.649 0 784.152V781.521C7.43166 777.228 14.3317 772.094 20.584 766.539C37.8937 751.16 50.3011 732.505 55.3467 719.392C58.7645 710.564 61.2628 699.733 63.5996 687.553C64.7684 681.461 65.8981 675.023 67.082 668.323C68.2663 661.622 69.5047 654.656 70.8926 647.502C76.4446 618.884 84.3778 587.282 100.697 557.663C134.632 496.073 191.728 455.883 254.012 445.136H254.014C265.008 443.208 276.061 442.216 287.111 442.216C307.984 442.216 328.729 445.836 348.123 454.179C388.96 471.725 421.292 507.454 454.128 542.109C486.924 576.722 520.223 610.262 562.934 623.131C575.768 627.07 588.893 628.773 602.069 628.773C639.41 628.773 677.542 615.092 713.257 599.336C778.778 570.379 842.721 533.487 907.023 501.979C971.362 470.454 1036.13 444.281 1103.47 436.649L1103.46 436.648C1113.68 435.544 1123.85 434.839 1134 434.479V436.818Z" fill="white"/>
<path d="M1134 394.603C1130.42 394.911 1126.88 395.263 1123.35 395.662C1025.85 406.918 931.662 457.33 840.631 506.037C800.174 527.704 758.328 550.064 716.426 568.97C683.714 583.724 640.941 600.604 599.196 600.604C584.585 600.604 570.565 598.561 557.543 594.479L557.541 594.478L556.428 594.13C512.359 580.145 477.647 544.535 444.429 508.538L431.843 494.871C402.242 462.799 371.296 430.611 333.923 414.205C314.858 405.86 293.682 401.632 271.047 401.632C260.576 401.632 249.796 402.509 238.949 404.312L236.778 404.685C170.999 416.275 113.857 459.01 79.7471 522.024L78.9463 523.517C57.619 563.477 50.4571 607.534 44.7715 642.834C41.4271 663.696 38.5014 681.619 33.4795 695.324C28.6565 708.564 16.8331 727.269 0 743.308V739.803C15.5575 724.51 26.6001 707.054 31.1943 694.496C34.611 685.142 37.0578 673.65 39.334 660.711C40.4725 654.239 41.5692 647.397 42.7236 640.273C43.8783 633.149 45.0913 625.741 46.4609 618.13C51.9399 587.683 59.932 554.015 76.7803 522.406C111.713 456.777 171.211 413.839 236.246 402.39L236.247 402.391C247.773 400.404 259.353 399.294 270.93 399.294C292.797 399.294 314.479 403.207 334.752 412.076C377.405 430.792 410.969 468.918 445.044 505.895C479.078 542.827 513.623 578.611 558.183 592.33C571.604 596.504 585.315 598.325 599.138 598.325C638.18 598.325 678.072 583.763 715.43 566.895C783.795 536.064 850.493 496.725 917.639 463.11C984.821 429.478 1052.52 401.535 1123.05 393.377L1123.05 393.376C1126.7 392.958 1130.35 392.597 1134 392.286V394.603Z" fill="white"/>
<path d="M1134 353.503C1035.28 367.465 940.108 419.456 848.073 469.676C807.234 491.97 765.09 514.971 722.802 534.639L718.709 536.531C684.649 552.164 640.001 570.097 596.382 570.097C581.127 570.097 566.521 567.936 552.913 563.62H552.911C503.408 548.093 465.507 505.761 428.723 464.687C396.398 428.628 362.887 391.191 321.65 372.484L320.675 372.046C300.789 363.115 278.733 358.594 255.1 358.594C243.402 358.594 231.353 359.708 219.189 361.938C150.072 374.207 90.3226 420.283 55.1982 488.272C33.1102 531.044 26.1251 577.91 20.5566 615.493C17.3735 636.612 14.6388 654.917 9.95703 669.088L9.49707 670.446C7.57374 676.016 4.35265 682.635 0 689.685V684.947C3.17738 679.394 5.61333 674.154 7.21777 669.544C10.6482 659.677 13.0502 647.534 15.2686 633.844C17.4927 620.117 19.5217 604.909 22.2256 588.743C27.6241 556.466 35.6613 520.721 53.0381 487.092C89.0294 417.421 150.876 371.619 218.662 359.586C230.713 357.424 242.878 356.256 254.982 356.256C277.786 356.256 300.405 360.46 321.498 369.914H321.5C365.969 389.712 400.733 430.207 436.024 469.505C471.275 508.757 507.052 546.813 553.491 561.411C567.499 565.878 581.797 567.817 596.206 567.817C636.951 567.817 678.603 552.376 717.544 534.453C788.781 501.719 858.251 459.921 928.239 424.199C995.545 389.847 1063.39 361.076 1134 351.207V353.503Z" fill="white"/>
<path d="M1134 313.603C1037.84 331.979 945.101 383.485 855.223 433.432C812.735 456.974 768.89 481.332 724.951 502.148L720.699 504.151C685.232 520.721 638.768 539.706 593.274 539.706C577.376 539.706 562.125 537.371 547.989 532.82C496.553 516.358 457.302 471.628 419.286 428.152C385.535 389.645 350.578 349.615 307.191 330.004C286.485 320.604 263.49 315.789 238.801 315.789C227.393 315.789 215.626 316.822 203.741 318.885L201.363 319.311C129.991 332.182 68.3634 380.296 32.0684 451.401L31.2158 453.085C13.3471 488.549 5.27431 526.612 0 560.562V546.332C5.35494 515.831 13.4979 483.088 29.1191 452.012C66.1676 378.242 130.359 329.692 200.897 316.957H200.9C213.477 314.62 226.169 313.394 238.801 313.394C262.601 313.394 286.157 317.831 308.128 327.869L308.129 327.87C354.385 348.808 390.351 391.687 426.867 433.299C463.341 474.862 500.364 515.161 548.681 530.61C563.276 535.312 578.219 537.368 593.216 537.368C635.663 537.368 679.075 520.99 719.657 502.013C793.768 467.346 866.008 423.087 938.84 385.258C1002.78 352.045 1067.24 323.757 1134 311.12V313.603Z" fill="white"/>
<path d="M222.678 270.413C247.416 270.413 271.967 275.027 294.815 285.649L294.817 285.65C342.86 307.787 380.03 353.065 417.77 396.99C455.466 440.866 493.735 483.393 543.929 499.692C559.111 504.688 574.642 506.861 590.284 506.861C634.433 506.861 679.664 489.603 721.829 469.571C798.754 433.031 873.736 386.312 949.403 346.368C1009.97 314.397 1071.02 286.741 1134 272.001V274.47C1040.46 296.586 950.179 347.581 862.549 397.07C817.05 422.778 769.984 449.354 722.865 471.713C686.049 489.219 637.769 509.257 590.343 509.257C573.858 509.257 558.022 506.863 543.303 502.021L543.301 502.021L542.051 501.608C489.24 483.943 449.084 437.079 410.084 391.617C375.219 350.944 339.034 308.688 293.947 287.963C272.418 277.975 248.482 272.927 222.795 272.927C210.892 272.927 198.63 274.01 186.251 276.176L183.773 276.624C110.077 290.124 44.1725 342.94 7.46875 417.897C4.76414 423.421 2.28318 428.999 0 434.61V428.264C1.6718 424.39 3.4408 420.532 5.31836 416.698C43.4238 338.888 109.961 287.589 183.252 274.152C196.3 271.756 209.52 270.413 222.678 270.413Z" fill="white"/>
<path d="M206.613 227.551C232.346 227.551 257.835 232.457 281.563 243.605L281.564 243.606C331.395 266.884 369.766 314.545 408.729 360.784C447.65 406.972 487.164 451.741 539.236 468.892C555.005 474.122 571.123 476.412 587.353 476.412C633.203 476.412 680.136 458.215 723.942 437.13C803.74 398.687 881.493 349.522 960.004 307.479C1017.18 276.862 1074.79 250.001 1134 233.711V236.229C1043.15 261.498 955.364 311.805 869.992 360.709C822.792 387.763 774.027 415.744 725.149 439.274C686.927 457.718 636.83 478.809 587.529 478.809C570.401 478.809 553.92 476.239 538.672 471.163C486.771 454.03 446.762 409.277 408.562 364.017L400.942 354.966C364.904 312.067 327.544 267.584 280.756 245.745C258.405 235.23 233.532 229.888 206.789 229.888C193.622 229.888 179.99 231.238 166.243 233.819C99.6753 246.177 39.4081 289.891 0 353.03V348.343C40.4525 285.12 100.397 243.647 165.606 231.523C179.181 228.952 192.928 227.551 206.613 227.551Z" fill="white"/>
<path d="M190.373 184.688C217.102 184.688 243.528 189.828 268.135 201.562L268.136 201.562C319.783 226.01 359.371 276.055 399.566 324.601C439.717 373.093 480.477 420.09 534.427 438.091C550.841 443.614 567.606 446.021 584.48 446.021C632.032 446.021 680.722 427.005 726.055 404.748C808.815 364.547 889.337 312.909 970.67 268.706C1024.42 239.495 1078.55 213.516 1134 196.156V198.554C1046.17 226.258 961.25 275.587 878.49 323.645C829.239 352.28 778.247 381.9 727.142 406.718L727.14 406.719C687.745 426.098 635.949 448.242 584.539 448.242C566.708 448.242 549.583 445.498 533.748 440.188C476.336 421.035 433.276 368.878 391.447 318.255C354.237 273.19 315.704 226.48 267.215 203.527C244.042 192.485 218.172 186.908 190.432 186.908C176.737 186.908 162.517 188.317 148.301 191.016C91.5529 201.679 39.337 234.622 0 282.864V279.124C39.905 230.977 91.9704 199.359 147.842 188.837L147.843 188.836C161.885 186.148 176.16 184.688 190.373 184.688Z" fill="white"/>
<path d="M174.191 141.708C201.857 141.708 229.279 147.14 254.766 159.4L254.767 159.401C308.201 184.99 348.991 237.405 390.41 288.257C431.785 339.054 473.791 388.293 529.618 407.173C546.619 412.931 563.97 415.455 581.49 415.455C630.743 415.455 681.252 395.56 728.167 372.249C813.771 330.145 897.049 276.061 981.226 229.758C1031.56 202.07 1082.24 177.15 1134 159.182V161.611C1048.78 191.378 966.239 239.908 885.699 287.283C834.748 317.265 782.056 348.232 729.25 374.221L729.249 374.222C688.447 394.48 634.834 417.676 581.549 417.676C563.072 417.676 545.361 414.873 528.942 409.271C469.597 389.241 425.188 334.626 382.128 281.602C343.803 234.371 304.04 185.434 253.85 161.368C229.856 149.798 203.105 143.929 174.309 143.929C160.532 143.929 146.315 145.251 132.033 147.947L130.651 148.212C82.2361 157.447 37.0819 182.519 0 219.33V215.787C37.3815 179.282 82.3648 155.125 130.078 146.032L131.45 145.772C145.629 143.133 159.912 141.708 174.191 141.708Z" fill="white"/>
<path d="M158.068 98.8447C186.731 98.8448 215.148 104.453 241.454 117.298L241.455 117.299C296.677 144.086 338.669 198.901 381.312 252.066C423.911 305.176 467.163 356.642 524.867 376.372C542.455 382.423 560.393 385.065 578.5 385.065C629.513 385.065 681.722 364.23 730.279 339.865L730.28 339.866C818.757 295.83 904.805 239.272 991.824 190.854C1038.73 164.757 1085.93 141.015 1134 122.829V125.506C1055.33 155.466 978.899 200.131 904.174 244.538L893.144 251.097C840.55 282.367 786.156 314.681 731.65 341.841C689.441 363.036 634.011 387.286 578.852 387.286C559.732 387.286 541.436 384.307 524.43 378.471L522.996 377.974C462.436 356.671 417.046 300.001 373.101 245.065C333.545 195.669 292.61 144.505 240.719 119.326C215.903 107.169 188.155 101.065 158.361 101.065C143.612 101.065 128.395 102.591 113.122 105.583L111.134 105.976C70.9717 114.087 33.0667 132.874 0 160.106V156.713C33.7091 129.462 72.0836 111.166 112.373 103.403H112.375C127.53 100.423 142.859 98.8447 158.068 98.8447Z" fill="white"/>
<path d="M142.062 55.9238C171.721 55.9239 201.076 61.825 228.262 75.1963L229.596 75.8564C285.947 104.019 328.823 160.757 372.354 215.803C416.184 271.224 460.682 324.933 520.234 345.513C538.409 351.798 556.992 354.558 575.686 354.558C628.342 354.558 682.369 332.844 732.509 307.425L732.51 307.426C823.8 261.457 912.591 202.438 1002.45 151.92C1045.89 127.495 1089.6 105.047 1134 86.9893V89.4941C1053.93 122.194 976.154 168.975 900.06 214.735C845.824 247.353 789.732 281.07 733.526 309.343L733.525 309.344C689.908 331.418 632.662 356.72 575.627 356.72C555.863 356.72 536.981 353.624 519.448 347.554C487.825 336.608 460.258 316.255 434.893 291.404C409.526 266.552 386.387 237.227 363.605 208.354C322.936 156.792 280.769 103.343 227.177 77.1084C201.482 64.4832 172.854 58.086 142.004 58.0859C127.26 58.0859 112.022 59.5724 96.7188 62.4922L95.2383 62.7793C61.4853 69.3499 29.262 83.2953 0 103.367V100.595C29.3387 80.7763 61.4441 67.1808 94.8438 60.6572H94.8457C110.469 57.5598 126.326 55.9238 142.062 55.9238Z" fill="white"/>
<path d="M125.88 13.0029C156.476 13.0029 186.828 19.1376 214.893 33.0938C273.719 62.1925 318.145 121.777 363.251 179.562C408.311 237.289 454.054 293.224 515.484 314.653C534.187 321.173 553.356 324.05 572.695 324.05C627.053 324.05 682.841 301.398 734.623 274.925C828.786 227.053 920.347 165.591 1013.04 112.973C1053.03 90.2742 1093.25 69.2157 1134 51.5781V54.4688C1056.5 88.1164 981.1 133.911 907.21 178.783C851.333 212.747 793.54 247.812 735.634 277.256C690.669 300.266 631.488 326.622 572.637 326.622C552.228 326.622 532.76 323.409 514.642 317.047C482.052 305.662 453.664 284.476 427.566 258.601C401.467 232.724 377.682 202.184 354.285 172.11L346.42 162.021C306.98 111.534 265.65 60.9978 213.812 35.3594C187.297 22.2062 157.729 15.5157 125.822 15.5156C110.567 15.5156 94.8179 17.0581 79.0029 20.0879L77.4727 20.3857C50.452 25.6921 24.399 35.6234 0 49.5713V46.7012C24.4027 32.9596 50.3334 23.2437 77.0801 17.9707L77.0811 17.9697C93.2335 14.755 109.617 13.003 125.88 13.0029Z" fill="white"/>
<path d="M217.774 0C270.481 32.5145 311.999 88.6777 354.096 143.292C400.38 203.338 447.369 261.515 510.676 283.794C530.023 290.607 549.78 293.602 569.706 293.602C625.824 293.601 683.371 270.071 736.735 242.544L736.734 242.543C833.77 192.739 928.102 128.801 1023.64 74.0684C1060.17 53.1462 1096.87 33.5651 1134 16.6123V19.2803C1059.03 53.5767 985.978 98.3586 914.303 142.304C856.784 177.556 797.292 214.026 737.686 244.641L737.685 244.642C691.312 268.589 630.314 295.997 569.588 295.997C548.593 295.997 528.481 292.668 509.835 286.071C476.25 274.248 447.056 252.214 420.239 225.307C393.421 198.398 369.007 166.643 344.965 135.398C305.189 83.7121 264.132 30.2602 213.109 0H217.774Z" fill="white"/>
<path d="M1103.58 0C1041.79 31.8221 981.245 69.2652 921.63 106.117C862.411 142.717 801.277 180.592 739.912 212.318L739.911 212.319C692.131 237.145 629.317 265.607 566.716 265.607C545.077 265.607 524.378 262.102 505.146 255.271C470.594 243.01 440.579 220.141 413.03 192.21C385.479 164.277 360.419 131.307 335.762 98.8623C309.546 64.3697 282.759 29.129 253.027 0H256.447C288.05 31.3565 316.382 69.5858 344.977 107.109C392.492 169.461 440.741 229.864 505.926 252.993C525.801 260.041 546.203 263.152 566.716 263.152C624.535 263.152 683.842 238.685 738.848 210.104L743.527 207.669C841.761 156.325 937.351 91.125 1034.2 35.1797C1055.4 22.931 1076.67 11.1254 1098.04 0H1103.58Z" fill="white"/>
<path d="M1042.93 0C1004.39 22.4816 966.284 46.2314 928.547 69.7549C867.686 107.643 804.851 146.865 741.785 179.763C692.598 205.526 627.967 235.041 563.491 235.041C541.208 235.041 519.865 231.419 500.105 224.354C464.557 211.625 433.722 187.922 405.439 158.974C377.155 130.023 351.45 95.8534 326.147 62.208C310.392 41.2605 294.44 20.0494 277.794 0H281.178C299.857 22.6473 317.789 46.8444 335.821 70.7666C384.56 135.423 434.055 198.067 501.116 222.075C521.637 229.416 542.567 232.645 563.726 232.645C623.246 232.644 684.312 207.239 740.959 177.604L745.773 175.08C844.64 123 940.886 57.1578 1038.32 0H1042.93Z" fill="white"/>
<path d="M988.854 0C971.132 10.9864 953.494 22.0675 935.933 33.1006C874.465 71.7217 810.914 111.636 747.166 145.37L744.13 146.973C693.536 173.672 627.087 204.241 560.735 204.241C537.806 204.241 515.937 200.56 495.592 193.203L493.882 192.578C458.059 179.267 426.938 155.016 398.383 125.504C369.373 95.5215 343.038 60.137 317.12 25.3203C310.85 16.8917 304.546 8.42403 298.183 0H300.902C309.546 11.4617 318.125 23.0496 326.726 34.5771C376.688 101.546 427.428 166.416 496.366 191.274L496.367 191.275C517.416 198.85 538.991 202.196 560.735 202.196C621.956 202.196 684.84 175.911 743.07 145.222L743.071 145.223C824.798 102.236 904.748 49.8084 984.968 0H988.854Z" fill="white"/>
<path d="M938.244 0C876.648 39.0002 813.066 79.0955 749.296 113.055L746.181 114.709C694.238 142.287 625.855 173.909 557.687 173.909C534.114 173.909 511.599 170.053 490.727 162.462L488.972 161.815C452.201 148.06 420.273 122.987 390.997 92.4658C364.323 64.6578 339.873 32.3501 315.972 0H318.796C369.593 68.6819 421.31 134.913 491.558 160.415C513.253 168.342 535.415 171.747 557.745 171.747C620.726 171.747 685.311 144.583 745.184 112.781L750.264 110.077C812.275 76.9101 873.304 38.5344 934.216 0H938.244Z" fill="white"/>
<path d="M888.487 0C842.39 28.8947 795.527 57.2345 748.583 82.2695C695.233 110.785 625.033 143.46 554.989 143.46C531.529 143.46 509.117 139.732 488.229 132.385L486.213 131.662C447.705 117.587 414.422 91.3692 383.963 59.3467C366.564 41.0544 350.095 20.8765 334.105 0H336.764C380.556 57.0964 427.143 107.795 486.866 129.614C509.089 137.776 531.838 141.298 554.813 141.298C619.437 141.298 685.84 113.256 747.296 80.3994C793.358 55.8284 838.876 28.3702 884.19 0H888.487Z" fill="white"/>
<path d="M837.805 0C808.936 17.4727 779.888 34.3297 750.81 49.9473C696.052 79.3407 624.036 113.069 552.117 113.069C527.314 113.069 503.568 108.98 481.582 100.862C442.108 86.3482 408.004 59.282 376.812 26.2275C368.891 17.8337 361.161 9.05446 353.578 0H356.385C393.384 44.06 433.591 80.93 482.409 98.873C505.219 107.269 528.613 110.907 552.176 110.907C618.5 110.907 686.662 81.9275 749.759 48.0176L755.107 45.1328C781.417 30.8732 807.557 15.7115 833.589 0H837.805Z" fill="white"/>
<path d="M784.739 0C774.122 6.03868 763.494 11.9436 752.861 17.6836C696.697 48.014 622.863 82.7958 549.068 82.7959C524.415 82.7959 500.81 78.8484 478.838 71.0088L476.717 70.2383C438.957 56.2769 406.021 31.0268 375.838 0H379.15C408.616 30.0005 440.67 54.2478 477.542 67.8965L479.736 68.6963C502.433 76.8164 525.617 80.3418 549.068 80.3418C617.152 80.3417 687.073 50.4826 751.753 15.5186C761.129 10.4562 770.483 5.27748 779.819 0H784.739Z" fill="white"/>
<path d="M726.308 0C673.373 26.7196 609.615 52.1718 545.844 52.1719C519.752 52.1719 494.834 47.7899 471.734 39.2041C447.565 30.2095 425.338 16.6796 404.531 0H408.182C428.146 15.6849 449.447 28.4149 472.616 37.0371C496.599 45.9605 521.166 49.834 545.961 49.834C604.443 49.8339 664.255 28.2043 721.13 0H726.308Z" fill="white"/>
</g>
</svg>
