<svg width="296" height="300" viewBox="0 0 296 300" fill="none" xmlns="http://www.w3.org/2000/svg">
<g clip-path="url(#clip0_333_910)">
<rect width="296" height="300" fill="#7A2799"/>
<g opacity="0.05">
<path d="M296 187.587C289.039 187.955 282.284 188.544 275.63 189.367C198.162 198.972 124.297 241.884 52.9062 283.34C43.3945 288.87 33.7823 294.456 24.0986 300H21.1641C51.8037 282.505 82.2362 264.251 112.845 247.616C165.755 218.861 219.236 194.916 275.405 187.956C282.278 187.111 289.142 186.522 296 186.154V187.587Z" fill="#ADB3FF"/>
<path d="M296 215.472C284.442 215.607 273.61 216.291 263.05 217.58C192.856 226.192 125.527 262.805 60.3838 300H57.1934C73.4214 290.723 89.6402 281.54 105.909 272.827C156.984 245.476 208.599 222.73 262.71 216.094L262.709 216.093C273.834 214.742 284.932 214.082 296 213.951V215.472Z" fill="#ADB3FF"/>
<path d="M286.403 242.141C289.604 242.144 292.803 242.191 296 242.275V243.832C292.697 243.745 289.389 243.697 286.078 243.697H285.29L285.33 243.737C272.926 243.764 261.456 244.412 250.241 245.756C198.283 252.026 147.883 274.069 98.8027 300H95.4648C96.6488 299.37 97.8322 298.74 99.0166 298.115C148.243 272.129 197.961 250.526 250.015 244.231L250.014 244.23C262.046 242.785 274.08 242.178 286.078 242.178H286.403V242.141Z" fill="#ADB3FF"/>
<path d="M271.15 270.467H271.935C279.974 270.467 287.996 270.748 296 271.229V272.707C288.025 272.229 280.011 271.949 271.973 271.949L271.963 271.987C260.512 271.99 249.925 272.56 239.611 273.696L237.547 273.932C206.209 277.663 175.431 287.279 145.167 300H141.039C172.525 286.485 204.454 276.296 237.318 272.369C248.63 271.031 259.907 270.456 271.186 270.431L271.15 270.467Z" fill="#ADB3FF"/>
<path d="M258.138 298.604C269.051 298.612 279.937 299.146 290.785 300H229.767C239.14 299.101 248.53 298.719 257.866 298.719H258.101L258.138 298.604Z" fill="#ADB3FF"/>
<path d="M296 160.336C293.425 160.589 290.869 160.873 288.325 161.191C207.997 171.253 131.5 216.223 57.5938 259.696C38.6988 270.815 19.435 282.14 0 292.956V291.289C40.1343 268.923 79.7665 244.261 119.708 222.29C174.467 192.169 229.854 167.083 288.101 159.78L290.621 159.479C292.414 159.272 294.207 159.083 296 158.91V160.336Z" fill="#ADB3FF"/>
<path d="M296 133.802C214.679 145.615 137.26 191.662 62.4336 236.166C41.9633 248.337 21.0735 260.75 0 272.543V270.77C42.461 246.954 84.3546 220.499 126.6 196.993C181.705 166.332 237.451 140.667 296 132.291V133.802Z" fill="#ADB3FF"/>
<path d="M296 107.712C216.358 122.65 140.438 168.318 66.9307 212.522C44.9971 225.713 22.5955 239.181 0 251.901V250.262C44.7842 224.995 88.9449 196.731 133.506 171.678C186.457 141.908 240.014 116.653 296 106.254V107.712Z" fill="#ADB3FF"/>
<path d="M296 82.4141C223.606 98.8997 154.255 139.084 86.8945 179.855L71.5811 189.145C48.1352 203.396 24.169 217.944 0 231.617V229.731C47.1142 203.033 93.5333 172.955 140.398 146.353C191.197 117.518 242.552 92.7466 296 80.6982V82.4141Z" fill="#ADB3FF"/>
<path d="M296 57.252C219.829 77.3677 146.982 122.023 76.1924 165.425C51.2467 180.714 25.729 196.354 0 210.982V209.28C49.4449 181.138 98.1216 149.223 147.29 121.056C195.922 93.1957 245.063 68.9853 296 55.6436V57.252Z" fill="#ADB3FF"/>
<path d="M296 32.7227C221.605 54.9172 150.313 99.0225 80.957 141.896C54.4429 158.282 27.3376 175.061 0 190.658V188.817C51.7613 159.25 102.685 125.5 154.153 95.7686C200.61 68.9321 247.536 45.3571 296 31.0215V32.7227Z" fill="#ADB3FF"/>
<path d="M296 8.40332C223.286 32.3284 153.458 75.8603 85.4541 118.251C57.4776 135.667 28.8588 153.515 0 170.039V168.337C54.0947 137.344 107.273 101.738 161.045 70.4287C205.312 44.6539 250.002 21.7779 296 6.73145V8.40332Z" fill="#ADB3FF"/>
<path d="M257.089 0C199.983 25.4724 144.556 60.3025 90.2568 94.417C60.7455 112.959 30.4947 131.959 0 149.462V147.935C56.4162 115.51 111.846 78.039 167.923 45.1465C196.264 28.5225 224.78 13.0635 253.688 0H257.089Z" fill="#ADB3FF"/>
<path d="M212.607 0C172.675 21.6883 133.492 46.4801 94.8691 70.9248C63.8597 90.5611 32.0542 110.697 0 129.144V127.513C58.7326 93.6698 116.398 54.3265 174.767 19.8447C186.331 13.0127 197.926 6.37202 209.563 0H212.607Z" fill="#ADB3FF"/>
<path d="M175.516 0C149.987 15.331 124.735 31.4136 99.71 47.3564C67.1294 68.111 33.6907 89.4127 0 108.839V107.141C58.0229 73.6298 115.006 34.7413 172.584 0H175.516Z" fill="#ADB3FF"/>
<path d="M141.801 0C129.301 7.90725 116.861 15.8844 104.475 23.8271C70.3298 45.7116 35.2898 68.1674 0 88.5566V86.916C46.7675 59.8658 92.8636 29.3051 139.108 0H141.801Z" fill="#ADB3FF"/>
<path d="M109.087 0.373047C73.4441 23.3394 36.8477 46.9457 0 68.2695V66.4512C35.8556 45.6797 71.3172 22.8449 106.74 0H109.666C109.473 0.124393 109.28 0.24867 109.087 0.373047Z" fill="#ADB3FF"/>
<path d="M77.4434 0C51.9024 16.3798 26.0096 32.6006 0 47.6846V45.9854C25.062 31.4379 49.9292 15.8862 74.7207 0H77.4434Z" fill="#ADB3FF"/>
</g>
</g>
<defs>
<clipPath id="clip0_333_910">
<rect width="296" height="300" fill="white"/>
</clipPath>
</defs>
</svg>
