<svg width="550" height="550" viewBox="0 0 550 550" fill="none" xmlns="http://www.w3.org/2000/svg">
<rect x="550" y="2.40413e-05" width="550" height="550" rx="275" transform="rotate(90 550 2.40413e-05)" fill="#8B00DA"/>
<path opacity="0.05" d="M306.975 1.83888C228.48 33.0282 153.067 74.0788 89.6582 130.373C57.6182 158.818 28.5511 191.044 4.26955 226.469C4.97277 222.519 5.75999 218.599 6.6299 214.71C51.4289 152.397 110.161 101.165 175.475 61.2607C214.064 37.6837 254.683 17.879 296.479 0.827161C299.996 1.09891 303.495 1.43601 306.975 1.83888ZM393.051 26.5567C372.791 33.2869 352.717 40.5181 332.891 48.332C259.398 77.2966 188.73 115.535 129.415 168.194C78.3594 213.521 35.4678 269.234 9.32716 332.578C8.60639 334.325 7.90186 336.075 7.21192 337.829C6.57909 335.121 5.98674 332.398 5.43458 329.66C17.4773 300.637 33.0469 273.014 51.3731 247.323C92.9428 189.048 147.671 141.183 208.58 103.97C264.39 69.8721 324.782 44.2963 386.755 23.6563C388.868 24.5971 390.966 25.5645 393.051 26.5567ZM450.801 63.5235C418.765 73.0093 387.106 83.6769 356.105 95.8945C288.586 122.505 223.667 157.635 169.174 206.014C122.283 247.643 82.8953 298.815 58.8877 356.99C50.5842 377.112 44.5204 397.765 40.5068 418.73C39.1892 416.585 37.9005 414.421 36.6406 412.237C47.1206 364.091 68.4842 318.688 97.1943 278.439C135.403 224.877 185.71 180.878 241.693 146.674C305.239 107.85 375.246 81.0422 446.473 59.9932C447.928 61.1552 449.37 62.3327 450.801 63.5235ZM492.253 106.378C453.967 116.833 416.133 128.948 379.317 143.457C317.773 167.713 258.603 199.735 208.931 243.834C166.205 281.765 130.32 328.398 108.445 381.405C95.9143 411.77 88.9733 443.463 86.8691 475.577C85.223 474.033 83.596 472.468 81.9883 470.884C82.0314 470.324 82.072 469.763 82.1182 469.203C86.8903 411.352 109.455 356.595 143.009 309.557C177.855 260.707 223.741 220.574 274.799 189.38C335.787 152.118 403.297 126.988 471.768 107.348C477.547 105.69 483.339 104.057 489.141 102.448C490.19 103.749 491.227 105.058 492.253 106.378ZM529.519 170.67C489.286 180.93 449.476 193.091 410.952 208.273C357.548 229.321 306.213 257.107 263.111 295.372C226.062 328.265 194.949 368.712 175.981 414.676C161.61 449.501 155.725 486.338 156.803 523.372C155.093 522.557 153.392 521.724 151.702 520.875C151.441 510.84 151.69 500.777 152.521 490.704C156.667 440.427 176.29 392.841 205.45 351.963C235.715 309.536 275.576 274.671 319.921 247.578C372.892 215.215 431.522 193.382 490.991 176.323C503.158 172.833 515.383 169.463 527.658 166.245C528.291 167.713 528.911 169.189 529.519 170.67ZM547.797 240.021C512.093 248.966 476.744 259.627 442.587 273.089C397.324 290.928 353.822 314.479 317.291 346.911C285.918 374.764 259.579 409.025 243.518 447.945C230.58 479.295 225.773 512.566 227.531 545.917C225.854 545.625 224.182 545.317 222.515 544.995C221.925 534.101 222.021 523.16 222.925 512.205C226.447 469.504 243.126 429.088 267.892 394.37C293.575 358.365 327.411 328.769 365.044 305.776C409.997 278.311 459.746 259.777 510.215 245.3C522.46 241.787 534.773 238.418 547.146 235.237C547.376 236.827 547.594 238.422 547.797 240.021ZM547.902 309.131C547.692 310.829 547.466 312.522 547.225 314.211C522.465 320.818 497.991 328.536 474.221 337.904C437.099 352.535 401.432 371.849 371.472 398.448C345.774 421.262 324.21 449.337 311.055 481.215C302.06 503.01 297.872 525.937 297.692 549.076C296.026 549.212 294.355 549.334 292.681 549.44C292.684 544.202 292.89 538.955 293.323 533.703C296.221 498.576 309.958 465.331 330.329 436.773C351.431 407.19 379.242 382.862 410.162 363.971C447.098 341.404 487.966 326.167 529.434 314.272C535.569 312.511 541.726 310.795 547.902 309.131ZM524.529 390.741C523.575 392.795 522.597 394.835 521.594 396.86C516.308 398.719 511.059 400.668 505.853 402.72C476.871 414.142 449.039 429.222 425.649 449.987C405.628 467.763 388.836 489.651 378.588 514.485C376.198 520.277 374.244 526.17 372.702 532.138C370.856 532.84 368.999 533.521 367.134 534.185C371.92 514.425 380.918 495.792 392.768 479.181C409.289 456.02 431.074 436.96 455.281 422.17C476.999 408.901 500.447 398.862 524.529 390.741Z" fill="white"/>
</svg>
