<svg width="288" height="436" viewBox="0 0 288 436" fill="none" xmlns="http://www.w3.org/2000/svg">
<g clip-path="url(#clip0_68_16378)">
<rect width="288" height="436" fill="#E21119"/>
<circle opacity="0.2" cx="287.5" cy="445.5" r="183" stroke="#FF49B8" stroke-width="19"/>
<circle opacity="0.2" cx="287.498" cy="445.5" r="138.466" stroke="#FF49B8" stroke-width="19"/>
<circle opacity="0.2" cx="288.217" cy="446.218" r="93.2146" stroke="#FF49B8" stroke-width="19"/>
<circle opacity="0.2" cx="287.5" cy="445.5" r="47.7301" stroke="#FF49B8" stroke-width="19"/>
<circle opacity="0.2" cx="-0.5" cy="-0.5" r="115.5" stroke="#FF49B8" stroke-width="4"/>
<circle opacity="0.2" cx="-0.500702" cy="-0.500214" r="88.3172" stroke="#FF49B8" stroke-width="4"/>
<circle opacity="0.2" cx="-0.0624084" cy="-0.0621643" r="60.6959" stroke="#FF49B8" stroke-width="4"/>
<circle opacity="0.2" cx="-0.500443" cy="-0.500443" r="32.9327" stroke="#FF49B8" stroke-width="4"/>
<g clip-path="url(#clip1_68_16378)">
<path d="M41.0002 404C41.0002 421.673 26.6733 436 9.00024 436C-8.67285 436 -22.9998 421.673 -22.9998 404C-22.9998 386.327 -8.67285 372 9.00024 372C26.6733 372 41.0002 386.327 41.0002 404Z" fill="#8200CC"/>
<g clip-path="url(#clip2_68_16378)">
<path d="M-8.73025 434.745C-24.801 426.86 -6.62426 400.091 8.42576 403.909C-6.29912 404.89 -13.1981 422.186 -8.73025 434.745Z" fill="#FF49B8"/>
<path d="M-1.99076 437.798C-8.82367 426.528 -5.77986 407.652 8.42637 404.213C-15.9028 416.412 14.1681 445.195 -1.99076 437.798Z" fill="#D300B4"/>
<path d="M-19.7604 424.975C-31.5088 411.218 -3.28612 393.819 8.4244 403.909C-5.34114 398.503 -18.8904 411.742 -19.7604 424.975Z" fill="#F46F00"/>
<path d="M12.7159 439.325C2.18047 431.684 -3.25018 413.079 8.73327 404.213C-8.88769 425.789 30.4519 439.116 12.7159 439.325Z" fill="#F36E28"/>
<path d="M-25.8876 411.541C-30.3884 394.249 1.16019 389.995 8.73122 403.603C-1.94845 393.573 -19.6132 399.786 -25.8876 411.541Z" fill="#E11F26"/>
<path d="M26.809 434.745C13.812 432.099 1.90501 417.431 8.73347 404.213C2.79086 432.005 42.0953 426.994 26.809 434.745Z" fill="#FF187D"/>
<path d="M-25.8879 396.886C-23.9772 379.068 8.35283 388.068 8.73141 403.602C3.26439 389.811 -15.1575 389.005 -25.8879 396.886Z" fill="#FF187D"/>
<path d="M37.5323 424.67C24.3119 427.849 7.91131 418.956 8.73332 404.213C13.7599 431.735 49.4868 411.469 37.5323 424.67Z" fill="#E11F26"/>
<path d="M8.73234 403.603C10.1289 388.893 -7.53833 379.958 -20.0667 383.452C-10.7509 368.242 14.6678 388.833 8.73234 403.603Z" fill="#F36E28"/>
<path d="M9.03906 404.213C16.7761 416.701 35.6195 413.985 44.2721 403.908C45.8377 421.823 12.4939 419.233 9.03906 404.213Z" fill="#F46F00"/>
<path d="M9.03891 403.603C15.6202 390.474 4.10909 375.743 -9.0376 373.377C5.7536 363.45 19.9984 392.986 9.03891 403.603Z" fill="#D300B4"/>
<path d="M9.03906 404.213C21.2949 412.162 37.553 402.304 41.2082 389.558C49.9215 405.461 18.7794 416.229 9.03906 404.213Z" fill="#FF49B8"/>
<path d="M9.03906 404.213C23.1951 406.109 34.0522 391.499 32.6291 377.65C46.4775 389.226 23.0488 410.519 9.03906 404.213Z" fill="#F36E28"/>
<path d="M9.03902 403.908C20.7926 394.637 15.7408 376.617 5.05542 368.797C22.8887 366.405 23.3705 397.66 9.03902 403.908V403.908Z" fill="#FF49B8"/>
<path d="M9.03906 403.908C23.4816 400.2 26.4131 382.006 19.7615 370.323C37.2714 374.408 24.5733 405.522 9.03906 403.908Z" fill="#F46F00"/>
</g>
</g>
</g>
<defs>
<clipPath id="clip0_68_16378">
<rect width="288" height="436" fill="white"/>
</clipPath>
<clipPath id="clip1_68_16378">
<rect x="-23" y="372" width="64" height="64" rx="32" fill="white"/>
</clipPath>
<clipPath id="clip2_68_16378">
<rect width="70.6506" height="70.6583" fill="white" transform="translate(-26.325 368.667)"/>
</clipPath>
</defs>
</svg>
