<svg width="604" height="99" viewBox="0 0 604 99" fill="none" xmlns="http://www.w3.org/2000/svg">
<path d="M590.928 0.0524902H177.646V5.76448H590.928V0.0524902Z" fill="url(#paint0_linear_62_583)"/>
<path d="M600.734 7.66473H161.319V13.3767H600.734V7.66473Z" fill="url(#paint1_linear_62_583)"/>
<path d="M594.367 13.3559H170.24V19.0679H594.367V13.3559Z" fill="url(#paint2_linear_62_583)"/>
<path d="M598.37 19.807H166.589V25.519H598.37V19.807Z" fill="url(#paint3_linear_62_583)"/>
<path d="M603.622 27.4724H152.719V33.1844H603.622V27.4724Z" fill="url(#paint4_linear_62_583)"/>
<path d="M593.744 35.0846H171.453V40.7966H593.744V35.0846Z" fill="url(#paint5_linear_62_583)"/>
<path d="M584.951 38.3046H183.908V44.0166H584.951V38.3046Z" fill="url(#paint6_linear_62_583)"/>
<path d="M23.3984 43.0878C22.9655 43.0878 22.6065 42.7289 22.6065 42.296V14.8868H1.58508C1.15219 14.8868 0.793213 14.5279 0.793213 14.095V1.59405C0.793213 1.16116 1.15219 0.802185 1.58508 0.802185H62.147C62.5799 0.802185 62.9389 1.16116 62.9389 1.59405V14.095C62.9389 14.5279 62.5799 14.8868 62.147 14.8868H41.1256V42.296C41.1256 42.7289 40.7666 43.0878 40.3337 43.0878H23.3984Z" fill="#C50018"/>
<path d="M62.1457 1.59464V14.0956H40.3324V42.2966H23.397V14.0956H1.58373V1.59464H62.1457ZM62.1457 0.01091H1.58373C0.7074 0.01091 0 0.71831 0 1.59464V14.0956C0 14.9719 0.7074 15.6793 1.58373 15.6793H21.8133V42.2966C21.8133 43.1729 22.5207 43.8803 23.397 43.8803H40.3324C41.2087 43.8803 41.9161 43.1729 41.9161 42.2966V15.6793H62.1457C63.022 15.6793 63.7294 14.9719 63.7294 14.0956V1.59464C63.7294 0.71831 63.022 0.01091 62.1457 0.01091Z" fill="white"/>
<path d="M99.9649 43.0878C99.6693 43.0878 99.3947 42.9189 99.2575 42.655L96.185 36.6896H75.8077L72.7353 42.655C72.598 42.9189 72.3235 43.0878 72.0278 43.0878H52.5585C52.2734 43.0878 52.02 42.94 51.8722 42.6972C51.735 42.4544 51.735 42.1482 51.8722 41.9053L75.2375 1.20341C75.3748 0.960574 75.6387 0.8022 75.9238 0.8022H96.3329C96.6179 0.8022 96.8819 0.950015 97.0191 1.20341L120.384 41.9053C120.522 42.1482 120.522 42.4544 120.384 42.6972C120.247 42.94 119.983 43.0878 119.698 43.0878H99.9649ZM90.2725 25.2233L85.9964 16.9246L81.7203 25.2233H90.2619H90.2725Z" fill="#C50018"/>
<path d="M96.3368 1.59411L119.702 42.296H99.9688L96.6747 35.8977H75.326L72.0423 42.296H52.573L75.9278 1.59411H96.3368ZM80.4256 26.0153H91.575L86.0003 15.2036L80.4256 26.0153ZM96.3368 0.010376H75.9278C75.3576 0.010376 74.8403 0.316564 74.5552 0.802242L51.1899 41.5042C50.9048 41.9898 50.9048 42.6022 51.1899 43.0879C51.4749 43.5736 51.9923 43.8798 52.5624 43.8798H72.0318C72.623 43.8798 73.1721 43.5525 73.436 43.0245L76.2868 37.492H95.7033L98.554 43.0245C98.8286 43.5525 99.367 43.8798 99.9583 43.8798H119.692C120.262 43.8798 120.779 43.5736 121.064 43.0879C121.349 42.6022 121.349 42.0004 121.064 41.5042L97.7199 0.802242C97.4349 0.306006 96.9175 0.010376 96.3474 0.010376H96.3368ZM83.0229 24.4315L86.0003 18.6562L88.9777 24.4315H83.0229Z" fill="white"/>
<path d="M157.402 43.0883C157.202 43.0883 157.001 43.0039 156.853 42.8666L141.29 27.8739V42.2965C141.29 42.7293 140.932 43.0883 140.499 43.0883H121.842C121.409 43.0883 121.05 42.7293 121.05 42.2965V1.59454C121.05 1.16165 121.409 0.802672 121.842 0.802672H140.499C140.932 0.802672 141.29 1.16165 141.29 1.59454V15.8692L155.185 1.04551C155.333 0.887138 155.544 0.792114 155.766 0.792114H179.068C179.395 0.792114 179.68 0.99272 179.807 1.28835C179.934 1.58398 179.849 1.9324 179.617 2.15412L158.543 21.8769L179.902 41.6946C180.145 41.9164 180.219 42.2648 180.102 42.5604C179.986 42.8666 179.691 43.0672 179.363 43.0672H157.413L157.402 43.0883Z" fill="#C50018"/>
<path d="M179.058 1.59435L157.371 21.8978L179.353 42.2963H157.403L140.499 26.0155V42.2963H121.843V1.59435H140.499V17.8751L155.766 1.59435H179.068M179.058 0.0106192H155.756C155.323 0.0106192 154.901 0.190109 154.605 0.506855L142.083 13.863V1.59435C142.083 0.71802 141.375 0.0106192 140.499 0.0106192H121.843C120.966 0.0106192 120.259 0.71802 120.259 1.59435V42.2963C120.259 43.1726 120.966 43.88 121.843 43.88H140.499C141.375 43.88 142.083 43.1726 142.083 42.2963V29.7425L156.305 43.4366C156.6 43.7216 156.991 43.88 157.403 43.88H179.353C180.008 43.88 180.589 43.4788 180.831 42.877C181.074 42.2751 180.916 41.5783 180.43 41.1349L159.694 21.8872L180.145 2.7452C180.62 2.30175 180.779 1.61547 180.536 1.00309C180.293 0.390715 179.712 6.10352e-05 179.058 6.10352e-05V0.0106192Z" fill="white"/>
<path d="M472.332 97.1212C471.899 97.1212 471.54 96.7623 471.54 96.3294V68.9203H450.519C450.086 68.9203 449.727 68.5613 449.727 68.1284V55.6275C449.727 55.1946 450.086 54.8356 450.519 54.8356H511.08C511.513 54.8356 511.872 55.1946 511.872 55.6275V68.1284C511.872 68.5613 511.513 68.9203 511.08 68.9203H490.059V96.3294C490.059 96.7623 489.7 97.1212 489.267 97.1212H472.332Z" fill="#C50018"/>
<path d="M511.068 55.628V68.1289H489.255V96.3299H472.319V68.1289H450.506V55.628H511.068ZM511.068 54.0442H450.506C449.63 54.0442 448.922 54.7516 448.922 55.628V68.1289C448.922 69.0052 449.63 69.7126 450.506 69.7126H470.736V96.3299C470.736 97.2062 471.443 97.9136 472.319 97.9136H489.255C490.131 97.9136 490.838 97.2062 490.838 96.3299V69.7126H511.068C511.944 69.7126 512.652 69.0052 512.652 68.1289V55.628C512.652 54.7516 511.944 54.0442 511.068 54.0442Z" fill="white"/>
<path d="M545.708 97.639C533.619 97.639 524.94 95.6857 519.893 91.832C514.783 87.9254 512.196 82.5724 512.196 75.9207C512.196 69.269 514.783 63.916 519.893 60.0095C524.94 56.1558 533.619 54.2025 545.708 54.2025C557.797 54.2025 566.529 56.1558 571.576 60.0095C576.686 63.916 579.272 69.269 579.272 75.9207C579.272 82.5724 576.686 87.9254 571.576 91.832C566.529 95.6857 557.829 97.639 545.708 97.639ZM545.718 67.6431C542.224 67.6431 539.479 67.9809 537.578 68.6567C535.773 69.3007 534.516 70.1982 533.841 71.3279C533.144 72.4999 532.795 74.0414 532.795 75.9102C532.795 77.779 533.144 79.2782 533.841 80.4713C534.506 81.6222 535.762 82.5196 537.568 83.1637C539.468 83.8394 542.203 84.1772 545.708 84.1772C549.213 84.1772 552.001 83.8394 553.891 83.1637C555.696 82.5302 556.952 81.6222 557.618 80.4713C558.314 79.2782 558.663 77.7473 558.663 75.9102C558.663 74.073 558.314 72.4893 557.639 71.3173C556.984 70.1876 555.728 69.3007 553.912 68.6567C551.99 67.9809 549.234 67.6431 545.697 67.6431H545.718Z" fill="#C50018"/>
<path d="M545.71 54.9838C557.704 54.9838 566.172 56.8631 571.092 60.6324C576.023 64.4017 578.483 69.4907 578.483 75.9101C578.483 82.3295 576.023 87.4291 571.092 91.1984C566.162 94.9677 557.704 96.8471 545.71 96.8471C533.716 96.8471 525.301 94.9677 520.381 91.1984C515.451 87.4291 512.99 82.3401 512.99 75.9101C512.99 69.4802 515.451 64.3911 520.381 60.6324C525.312 56.8631 533.748 54.9838 545.71 54.9838ZM545.721 84.9796C549.353 84.9796 552.172 84.6312 554.167 83.9238C556.163 83.2164 557.546 82.2028 558.317 80.8831C559.088 79.5633 559.468 77.9056 559.468 75.9207C559.468 73.9358 559.088 72.2359 558.338 70.9372C557.588 69.6386 556.205 68.6355 554.189 67.9281C552.172 67.2207 549.353 66.8617 545.71 66.8617C542.068 66.8617 539.302 67.2207 537.306 67.9281C535.311 68.6355 533.927 69.6386 533.157 70.9372C532.386 72.2359 532.006 73.9041 532.006 75.9207C532.006 77.9373 532.386 79.5633 533.157 80.8831C533.927 82.2028 535.311 83.2164 537.306 83.9238C539.302 84.6312 542.099 84.9796 545.71 84.9796M545.71 53.4C533.273 53.4 524.678 55.3533 519.42 59.376C514.11 63.4409 511.407 69.0051 511.407 75.9207C511.407 82.8363 514.099 88.4005 519.42 92.4654C524.678 96.4881 533.283 98.4414 545.71 98.4414C558.137 98.4414 566.795 96.4881 572.053 92.4654C577.364 88.4005 580.067 82.8363 580.067 75.9207C580.067 69.0051 577.374 63.4409 572.053 59.376C566.795 55.3533 558.18 53.4 545.71 53.4ZM545.721 83.3959C542.311 83.3959 539.661 83.0686 537.845 82.4246C536.219 81.8544 535.11 81.0625 534.529 80.0806C533.906 79.0143 533.59 77.61 533.59 75.9207C533.59 74.2314 533.906 72.7849 534.519 71.7397C535.089 70.7789 536.208 69.9975 537.834 69.4168C539.65 68.7728 542.3 68.4455 545.71 68.4455C549.121 68.4455 551.824 68.7728 553.661 69.4168C555.297 69.9975 556.406 70.7683 556.965 71.7291C557.578 72.7743 557.884 74.1891 557.884 75.9207C557.884 77.6522 557.567 79.0143 556.944 80.0806C556.374 81.0625 555.255 81.8544 553.64 82.4246C551.824 83.0686 549.163 83.3959 545.721 83.3959Z" fill="white"/>
<path d="M394.982 97.1213C394.549 97.1213 394.19 96.7623 394.19 96.3294V55.6381C394.19 55.2052 394.549 54.8462 394.982 54.8462H447.34C447.773 54.8462 448.132 55.2052 448.132 55.6381V67.4527C448.132 67.8856 447.773 68.2446 447.34 68.2446H412.361V70.7258H445.651C446.083 70.7258 446.442 71.0848 446.442 71.5176V80.5344C446.442 80.9672 446.083 81.3262 445.651 81.3262H412.361V83.9869H447.657C448.089 83.9869 448.448 84.3459 448.448 84.7788V96.3294C448.448 96.7623 448.089 97.1213 447.657 97.1213H394.982Z" fill="#C50018"/>
<path d="M447.329 55.6282V67.4428H411.558V71.5078H445.64V80.5245H411.558V84.7689H447.646V96.3196H394.971V55.6282H447.329ZM447.329 54.0445H394.971C394.095 54.0445 393.387 54.7519 393.387 55.6282V96.3196C393.387 97.1959 394.095 97.9033 394.971 97.9033H447.646C448.522 97.9033 449.23 97.1959 449.23 96.3196V84.7689C449.23 83.8925 448.522 83.1851 447.646 83.1851H413.142V82.1082H445.64C446.516 82.1082 447.224 81.4008 447.224 80.5245V71.5078C447.224 70.6314 446.516 69.924 445.64 69.924H413.142V69.0266H447.329C448.206 69.0266 448.913 68.3192 448.913 67.4428V55.6282C448.913 54.7519 448.206 54.0445 447.329 54.0445Z" fill="white"/>
<path d="M338.155 97.765C335.473 97.765 333.192 97.4799 331.387 96.9204C331.059 96.8148 330.827 96.5086 330.827 96.1602V82.6773C330.827 82.4345 330.943 82.2022 331.133 82.0544C331.271 81.9488 331.45 81.8855 331.619 81.8855C331.682 81.8855 331.746 81.8855 331.809 81.9066C332.696 82.1283 333.646 82.2339 334.639 82.2339C335.821 82.2339 339.728 81.8432 340.066 76.8598C340.425 71.6018 340.879 60.6529 341.069 55.6061C341.079 55.1837 341.438 54.8459 341.86 54.8459H391.801C392.234 54.8459 392.593 55.2049 392.593 55.6378V96.3396C392.593 96.7725 392.234 97.1315 391.801 97.1315H375.151C374.718 97.1315 374.359 96.7725 374.359 96.3396V69.6802H357.307C357.191 71.0527 357.117 72.3725 357.043 73.6395C356.8 78.0106 356.568 82.1389 354.646 87.8086C351.711 96.4663 343.054 97.765 338.155 97.765Z" fill="#C50018"/>
<path d="M391.803 55.628V96.3299H375.153V68.8786H356.592C355.979 75.3085 356.454 80.0491 353.91 87.5455C351.017 96.0871 342.106 96.9634 338.157 96.9634C335.538 96.9634 333.363 96.6889 331.621 96.1504V82.6676C332.572 82.8999 333.575 83.016 334.63 83.016C335.633 83.016 340.448 82.7309 340.849 76.9134C341.24 71.2753 341.715 59.4501 341.852 55.628H391.793M391.803 54.0443H341.863C341.008 54.0443 340.311 54.72 340.279 55.5647C340.089 60.6115 339.635 71.5498 339.276 76.7972C338.991 80.9783 335.94 81.4323 334.641 81.4323C333.712 81.4323 332.825 81.3267 332.001 81.1261C331.875 81.0944 331.748 81.0839 331.621 81.0839C331.273 81.0839 330.924 81.2 330.639 81.4217C330.259 81.7174 330.038 82.1819 330.038 82.6676V96.1504C330.038 96.8473 330.492 97.4596 331.146 97.6602C333.026 98.2515 335.391 98.5472 338.146 98.5472C346.846 98.5472 353.128 94.7251 355.398 88.0523C357.352 82.2875 357.584 78.1064 357.827 73.672C357.88 72.6267 357.943 71.5604 358.027 70.4517H373.559V96.3194C373.559 97.1957 374.266 97.9031 375.142 97.9031H391.793C392.669 97.9031 393.376 97.1957 393.376 96.3194V55.6175C393.376 54.7411 392.669 54.0337 391.793 54.0337L391.803 54.0443Z" fill="white"/>
<path d="M89.6968 96.9097C89.2639 96.9097 88.9049 96.5508 88.9049 96.1179V68.6982H67.8835C67.4507 68.6982 67.0917 68.3392 67.0917 67.9063V55.4054C67.0917 54.9725 67.4507 54.6135 67.8835 54.6135H128.445C128.878 54.6135 129.237 54.9725 129.237 55.4054V67.9063C129.237 68.3392 128.878 68.6982 128.445 68.6982H107.424V96.1179C107.424 96.5508 107.065 96.9097 106.632 96.9097H89.6968Z" fill="#C50018"/>
<path d="M128.437 55.405V67.9059H106.623V96.1174H89.688V67.9059H67.8747V55.405H128.437ZM128.437 53.8212H67.8747C66.9984 53.8212 66.291 54.5286 66.291 55.405V67.9059C66.291 68.7822 66.9984 69.4896 67.8747 69.4896H88.1043V96.1174C88.1043 96.9938 88.8117 97.7012 89.688 97.7012H106.623C107.5 97.7012 108.207 96.9938 108.207 96.1174V69.4896H128.437C129.313 69.4896 130.02 68.7822 130.02 67.9059V55.405C130.02 54.5286 129.313 53.8212 128.437 53.8212Z" fill="white"/>
<path d="M131.616 96.9097C131.183 96.9097 130.824 96.5508 130.824 96.1179V55.4054C130.824 54.9725 131.183 54.6135 131.616 54.6135H173.384C184.333 54.6135 190.868 58.9741 190.868 66.2804C190.868 70.1869 188.915 73.3544 185.315 75.3499C189.855 77.1659 192.241 80.4706 192.241 85.0106C192.241 92.4647 185.568 96.9097 174.398 96.9097H131.616ZM168.21 84.2188C170.343 84.2188 171.431 83.4691 171.431 81.9804C171.431 80.0905 169.678 79.6893 168.21 79.6893H151.381V84.2188H168.21ZM167.492 71.6439C170.649 71.6439 170.649 69.9229 170.649 69.3528C170.649 67.9063 169.583 67.1778 167.492 67.1778H151.381V71.6439H167.492Z" fill="#C50018"/>
<path d="M173.381 55.405C184.097 55.405 190.073 59.5966 190.073 66.2799C190.073 70.5243 187.624 73.7235 183.189 75.4656C188.637 76.9754 191.446 80.2379 191.446 84.9996C191.446 91.9153 185.28 96.1069 174.394 96.1069H131.612V55.3944H173.381M150.596 72.4354H167.5C170.013 72.4354 171.449 71.3901 171.449 69.3524C171.449 67.4308 170.013 66.3855 167.5 66.3855H150.596V72.4354ZM150.596 85.0102H168.218C170.731 85.0102 172.23 83.9649 172.23 81.98C172.23 79.9951 170.731 78.897 168.218 78.897H150.596V84.9996M173.381 53.8212H131.612C130.736 53.8212 130.029 54.5286 130.029 55.405V96.1174C130.029 96.9938 130.736 97.7012 131.612 97.7012H174.394C186.061 97.7012 193.03 92.9605 193.03 85.0102C193.03 81.79 191.889 77.7356 186.99 75.2333C190.031 73.09 191.657 69.9964 191.657 66.2799C191.657 58.4774 184.826 53.8212 173.381 53.8212ZM152.18 67.9693H167.5C169.865 67.9693 169.865 68.9723 169.865 69.3524C169.865 69.8381 169.865 70.8516 167.5 70.8516H152.18V67.9693ZM152.18 80.4913H168.218C170.646 80.4913 170.646 81.621 170.646 81.9906C170.646 82.3812 170.646 83.437 168.218 83.437H152.18V80.5019V80.4913Z" fill="white"/>
<path d="M225.084 97.437C212.994 97.437 204.316 95.4838 199.269 91.63C194.159 87.7235 191.572 82.3705 191.572 75.7188C191.572 69.0671 194.159 63.7141 199.269 59.8076C204.316 55.9538 212.994 54.0005 225.084 54.0005C237.173 54.0005 245.904 55.9538 250.951 59.8076C256.061 63.7141 258.648 69.0671 258.648 75.7188C258.648 82.3705 256.061 87.7235 250.951 91.63C245.904 95.4838 237.204 97.437 225.084 97.437ZM225.094 67.4411C221.599 67.4411 218.854 67.779 216.954 68.4547C215.148 69.0988 213.892 69.9962 213.227 71.126C212.53 72.2979 212.181 73.8394 212.181 75.7082C212.181 77.577 212.53 79.0763 213.227 80.2694C213.892 81.4202 215.148 82.3282 216.954 82.9617C218.854 83.6374 221.589 83.9753 225.094 83.9753C228.599 83.9753 231.387 83.6374 233.277 82.9617C235.082 82.3282 236.339 81.4202 237.004 80.2694C237.701 79.0763 238.049 77.5454 238.049 75.7082C238.049 73.8711 237.701 72.2874 237.025 71.1154C236.37 69.9857 235.114 69.0988 233.298 68.4547C231.376 67.779 228.61 67.4411 225.084 67.4411H225.094Z" fill="#C50018"/>
<path d="M225.086 54.7818C237.08 54.7818 245.548 56.6612 250.468 60.4304C255.399 64.1997 257.859 69.2888 257.859 75.7082C257.859 82.1276 255.399 87.2272 250.468 90.9965C245.537 94.7658 237.08 96.6451 225.086 96.6451C213.092 96.6451 204.677 94.7658 199.757 90.9965C194.826 87.2272 192.366 82.1381 192.366 75.7082C192.366 69.2782 194.826 64.1892 199.757 60.4304C204.688 56.6612 213.124 54.7818 225.086 54.7818ZM225.097 84.7777C228.729 84.7777 231.548 84.4293 233.543 83.7219C235.539 83.0145 236.922 82.0009 237.692 80.6811C238.463 79.3613 238.843 77.7037 238.843 75.7187C238.843 73.7338 238.463 72.0339 237.714 70.7353C236.964 69.4366 235.581 68.4336 233.564 67.7262C231.548 67.0188 228.729 66.6598 225.086 66.6598C221.443 66.6598 218.677 67.0188 216.682 67.7262C214.686 68.4336 213.303 69.4366 212.532 70.7353C211.762 72.0339 211.381 73.7021 211.381 75.7187C211.381 77.7354 211.762 79.3613 212.532 80.6811C213.303 82.0009 214.686 83.0145 216.682 83.7219C218.677 84.4293 221.475 84.7777 225.086 84.7777M225.086 53.1981C212.648 53.1981 204.054 55.1513 198.796 59.174C193.485 63.2389 190.782 68.8031 190.782 75.7187C190.782 82.6344 193.475 88.1986 198.796 92.2635C204.054 96.2861 212.659 98.2394 225.086 98.2394C237.513 98.2394 246.171 96.2861 251.429 92.2635C256.739 88.1986 259.442 82.6344 259.442 75.7187C259.442 68.8031 256.75 63.2389 251.429 59.174C246.171 55.1513 237.555 53.1981 225.086 53.1981ZM225.097 83.194C221.686 83.194 219.036 82.8667 217.22 82.2226C215.594 81.6525 214.486 80.8606 213.905 79.8787C213.282 78.8123 212.965 77.4081 212.965 75.7187C212.965 74.0294 213.282 72.5829 213.894 71.5377C214.464 70.5769 215.584 69.7956 217.21 69.2149C219.026 68.5708 221.676 68.2435 225.086 68.2435C228.496 68.2435 231.199 68.5708 233.036 69.2149C234.673 69.7956 235.781 70.5663 236.341 71.5271C236.953 72.5724 237.26 73.9872 237.26 75.7187C237.26 77.4503 236.943 78.8123 236.32 79.8787C235.75 80.8606 234.631 81.6525 233.015 82.2226C231.199 82.8667 228.538 83.194 225.097 83.194Z" fill="white"/>
<path d="M261.038 96.9089C260.605 96.9089 260.246 96.5499 260.246 96.117V55.4046C260.246 54.9717 260.605 54.6127 261.038 54.6127H313.396C313.829 54.6127 314.188 54.9717 314.188 55.4046V67.2192C314.188 67.6521 313.829 68.0111 313.396 68.0111H278.417V70.5028H311.707C312.14 70.5028 312.499 70.8618 312.499 71.2947V80.3219C312.499 80.7548 312.14 81.1138 311.707 81.1138H278.417V83.7745H313.713C314.146 83.7745 314.505 84.1335 314.505 84.5663V96.1276C314.505 96.5605 314.146 96.9195 313.713 96.9195H261.038V96.9089Z" fill="#C50018"/>
<path d="M313.384 55.4045V67.2192H277.613V71.2946H311.695V80.3219H277.613V84.5663H313.701V96.1275H261.026V55.4151H313.384M313.384 53.8208H261.026C260.149 53.8208 259.442 54.5282 259.442 55.4045V96.117C259.442 96.9933 260.149 97.7007 261.026 97.7007H313.701C314.577 97.7007 315.284 96.9933 315.284 96.117V84.5557C315.284 83.6794 314.577 82.972 313.701 82.972H279.196V81.8951H311.695C312.571 81.8951 313.278 81.1877 313.278 80.3113V71.2841C313.278 70.4077 312.571 69.7003 311.695 69.7003H279.196V68.7923H313.384C314.26 68.7923 314.968 68.0849 314.968 67.2086V55.394C314.968 54.5176 314.26 53.8102 313.384 53.8102V53.8208Z" fill="white"/>
<path d="M297.202 54.5178C295.101 54.5178 293.38 54.0216 292.081 53.0291C290.709 51.9944 290.012 50.6113 290.012 48.9114C290.012 47.2115 290.709 45.839 292.081 44.7937C293.39 43.8012 295.111 43.305 297.202 43.305C299.292 43.305 301.024 43.8012 302.344 44.7937C303.737 45.8284 304.434 47.2221 304.434 48.9114C304.434 50.6007 303.727 51.9838 302.344 53.0291C301.024 54.011 299.292 54.5178 297.202 54.5178Z" fill="#C50018"/>
<path d="M297.201 44.1078C299.133 44.1078 300.685 44.5512 301.867 45.4381C303.05 46.325 303.641 47.4864 303.641 48.9223C303.641 50.3583 303.05 51.5197 301.867 52.4066C300.685 53.2934 299.122 53.7369 297.201 53.7369C295.279 53.7369 293.727 53.2934 292.555 52.4066C291.383 51.5197 290.802 50.3583 290.802 48.9223C290.802 47.4864 291.383 46.325 292.555 45.4381C293.727 44.5512 295.268 44.1078 297.201 44.1078ZM297.201 42.5241C294.931 42.5241 293.041 43.0836 291.594 44.1711C290.042 45.3537 289.219 46.9902 289.219 48.9118C289.219 50.8334 290.042 52.4805 291.594 53.6524C293.041 54.7505 294.92 55.2995 297.201 55.2995C299.481 55.2995 301.361 54.7505 302.818 53.6524C304.391 52.4699 305.225 50.8334 305.225 48.9012C305.225 46.9691 304.391 45.3326 302.818 44.15C301.361 43.0625 299.471 42.5029 297.201 42.5029V42.5241Z" fill="white"/>
<path d="M277.656 54.4336C275.555 54.4336 273.834 53.9373 272.535 52.9449C271.162 51.9101 270.466 50.527 270.466 48.8272C270.466 47.1273 271.162 45.7547 272.524 44.7094C273.834 43.717 275.555 43.2207 277.645 43.2207C279.736 43.2207 281.467 43.717 282.787 44.7094C284.181 45.7547 284.878 47.1378 284.878 48.8272C284.878 50.5165 284.17 51.8996 282.787 52.9449C281.467 53.9268 279.736 54.4336 277.645 54.4336H277.656Z" fill="#C50018"/>
<path d="M277.656 44.0231C279.588 44.0231 281.14 44.4666 282.323 45.3535C283.505 46.2403 284.097 47.4017 284.097 48.8377C284.097 50.2736 283.505 51.435 282.323 52.3219C281.14 53.2088 279.578 53.6522 277.656 53.6522C275.735 53.6522 274.183 53.2088 273.011 52.3219C271.839 51.435 271.258 50.2736 271.258 48.8377C271.258 47.4017 271.839 46.2403 273.011 45.3535C274.183 44.4666 275.724 44.0231 277.656 44.0231ZM277.656 42.4394C275.386 42.4394 273.496 42.999 272.05 44.0865C270.498 45.269 269.674 46.9055 269.674 48.8271C269.674 50.7487 270.498 52.3958 272.05 53.5677C273.496 54.6658 275.376 55.2148 277.656 55.2148C279.937 55.2148 281.816 54.6658 283.273 53.5677C284.846 52.3852 285.68 50.7487 285.68 48.8165C285.68 46.8844 284.846 45.2479 283.273 44.0654C281.816 42.9779 279.926 42.4183 277.656 42.4183V42.4394Z" fill="white"/>
<path d="M314.982 21.8552C319.406 20.1131 321.866 16.9034 321.866 12.659C321.866 5.96505 315.88 1.77344 305.174 1.77344H263.406H257.028V3.67392H263.406V16.9139H282.389V12.754H299.293C301.806 12.754 303.242 13.7992 303.242 15.7208C303.242 17.7586 301.806 18.8038 299.293 18.8038H286.824H263.416V31.7271H226.547H226.42C226.367 31.7271 226.315 31.7271 226.262 31.7165C216.474 30.9035 216.569 25.9729 216.569 25.9729L198.969 27.6516C198.8 30.6079 202.337 35.9081 207.7 38.7483C213.064 41.599 220.676 43.0244 230.559 43.0244C239.428 43.0244 245.974 42.053 251.485 39.7724C255.17 38.2521 257.588 36.151 258.792 33.617H263.384V42.4859H306.166C317.052 42.4859 323.218 38.2943 323.218 31.3681C323.218 26.5958 320.409 23.3333 314.961 21.8235L314.982 21.8552ZM299.99 31.4103H282.368V25.2971H299.99C302.503 25.2971 304.002 26.4057 304.002 28.3801C304.002 30.3545 302.503 31.4103 299.99 31.4103Z" fill="#C50018"/>
<path d="M328.611 28.0528V41.3245C333.372 42.3592 338.176 42.8766 343.012 42.8766C347.848 42.8766 351.807 42.4437 354.89 41.5885C357.973 40.7227 360.676 39.3079 362.999 37.3335C363.685 36.7528 364.393 36.0771 365.1 35.338H377.991V33.4375H353.433V31.5582H368.362C369.038 30.6924 369.714 29.7738 370.411 28.7919L387.198 1.77344H366.821L355.133 20.6093L341.618 1.77344H320.576L342.833 29.077C337.554 30.2067 331.578 29.6366 328.59 28.0423L328.611 28.0528Z" fill="#C50018"/>
<path d="M399.159 30.154C402.601 31.2626 407.215 31.8116 412.969 31.8116C416.506 31.8116 419.695 31.6216 422.514 31.2309C425.344 30.8403 428.015 30.2384 430.116 29.4255V42.5176H447.537V1.78406H430.116H425.122V3.68454H430.116V15.5097H416.823V17.4102H430.116H443.409V19.3318H426.589C425.776 19.543 424.964 19.733 424.172 19.8703C422.197 20.2187 419.832 20.3982 417.077 20.3982C414.321 20.3982 412.104 20.1342 410.52 19.6169C408.936 19.089 407.806 18.276 407.131 17.1779C406.455 16.0693 406.117 14.5912 406.117 12.7224V1.78406H389.171V14.7601C389.171 18.9939 389.974 22.3303 391.568 24.801C393.173 27.261 395.696 29.0454 399.138 30.154H399.159Z" fill="#C50018"/>
<path d="M473.288 39.2868H482.59V37.3758H475.326H475.337H455.255V35.4753H477.385L495.197 18.92L495.154 36.9535V37.3758L495.133 42.5176H511.921V1.78406H492.842L467.45 25.4345L467.513 1.78406H450.725V42.5176H469.804L473.288 39.2868Z" fill="#C50018"/>
<path d="M198.969 16.5655L216.57 18.2443C216.57 18.2443 216.443 12.3845 229.134 12.3845C238.013 12.3845 240.252 14.0738 240.304 15.6259C240.347 16.9984 239.037 18.2548 234.138 18.2548H221.901V25.994H234.138C239.037 25.994 240.357 27.2504 240.304 28.623C240.294 29.0348 240.114 29.4571 239.703 29.8583H259.7C259.7 29.7633 259.71 29.6683 259.71 29.5627C259.742 24.0407 253.101 22.2247 252.679 22.1192C253.09 22.0136 259.742 20.2081 259.71 14.6756C259.689 10.2728 256.997 6.71473 251.486 4.43415C245.974 2.15358 239.417 1.18222 230.559 1.18222C220.677 1.18222 213.054 2.60758 207.701 5.4583C207.373 5.63778 207.046 5.81728 206.729 6.00732H218.227V7.9078H204.132H195.041V9.80828H202.221C200.099 12.2156 198.874 14.8023 198.98 16.555L198.969 16.5655Z" fill="#C50018"/>
<path d="M575.664 4.11742V1.78406H515.112V7.9395H553.418V9.83998H515.112V14.2955H536.926V42.5176H553.851V18.1071H565.834V16.2066H553.851H542.141V14.3061H553.851V14.2955H575.664V6.0179H580.584V4.11742H575.664Z" fill="#C50018"/>
<defs>
<linearGradient id="paint0_linear_62_583" x1="177.646" y1="2.9032" x2="590.928" y2="2.9032" gradientUnits="userSpaceOnUse">
<stop stop-color="white" stop-opacity="0"/>
<stop offset="0.05" stop-color="white"/>
<stop offset="0.95" stop-color="white"/>
<stop offset="1" stop-color="white" stop-opacity="0"/>
</linearGradient>
<linearGradient id="paint1_linear_62_583" x1="161.319" y1="10.5154" x2="600.723" y2="10.5154" gradientUnits="userSpaceOnUse">
<stop stop-color="white" stop-opacity="0"/>
<stop offset="0.05" stop-color="white"/>
<stop offset="0.95" stop-color="white"/>
<stop offset="1" stop-color="white" stop-opacity="0"/>
</linearGradient>
<linearGradient id="paint2_linear_62_583" x1="170.24" y1="16.2066" x2="594.367" y2="16.2066" gradientUnits="userSpaceOnUse">
<stop stop-color="white" stop-opacity="0"/>
<stop offset="0.05" stop-color="white"/>
<stop offset="0.95" stop-color="white"/>
<stop offset="1" stop-color="white" stop-opacity="0"/>
</linearGradient>
<linearGradient id="paint3_linear_62_583" x1="166.589" y1="22.6577" x2="598.359" y2="22.6577" gradientUnits="userSpaceOnUse">
<stop stop-color="white" stop-opacity="0"/>
<stop offset="0.05" stop-color="white"/>
<stop offset="0.95" stop-color="white"/>
<stop offset="1" stop-color="white" stop-opacity="0"/>
</linearGradient>
<linearGradient id="paint4_linear_62_583" x1="152.719" y1="30.3337" x2="603.622" y2="30.3337" gradientUnits="userSpaceOnUse">
<stop stop-color="white" stop-opacity="0"/>
<stop offset="0.05" stop-color="white"/>
<stop offset="0.95" stop-color="white"/>
<stop offset="1" stop-color="white" stop-opacity="0"/>
</linearGradient>
<linearGradient id="paint5_linear_62_583" x1="171.453" y1="37.9459" x2="593.744" y2="37.9459" gradientUnits="userSpaceOnUse">
<stop stop-color="white" stop-opacity="0"/>
<stop offset="0.05" stop-color="white"/>
<stop offset="0.95" stop-color="white"/>
<stop offset="1" stop-color="white" stop-opacity="0"/>
</linearGradient>
<linearGradient id="paint6_linear_62_583" x1="183.908" y1="41.1553" x2="584.951" y2="41.1553" gradientUnits="userSpaceOnUse">
<stop stop-color="white" stop-opacity="0"/>
<stop offset="0.05" stop-color="white"/>
<stop offset="0.95" stop-color="white"/>
<stop offset="1" stop-color="white" stop-opacity="0"/>
</linearGradient>
</defs>
</svg>
