<svg width="280" height="47" viewBox="0 0 280 47" fill="none" xmlns="http://www.w3.org/2000/svg">
<path d="M274.108 0.0247269H82.4008V2.67432H274.108V0.0247269Z" fill="url(#paint0_linear_62_3208)"/>
<path d="M278.657 3.55571H74.8284V6.2053H278.657V3.55571Z" fill="url(#paint1_linear_62_3208)"/>
<path d="M275.705 6.19553H78.9679V8.84512H275.705V6.19553Z" fill="url(#paint2_linear_62_3208)"/>
<path d="M277.555 9.18812H77.2673V11.8377H277.555V9.18812Z" fill="url(#paint3_linear_62_3208)"/>
<path d="M279.998 12.7438H70.8406V15.3934H279.998V12.7438Z" fill="url(#paint4_linear_62_3208)"/>
<path d="M275.412 16.2748H79.5267V18.9244H275.412V16.2748Z" fill="url(#paint5_linear_62_3208)"/>
<path d="M271.337 17.7685H85.3068V20.418H271.337V17.7685Z" fill="url(#paint6_linear_62_3208)"/>
<path d="M10.8529 19.987C10.6521 19.987 10.4856 19.8205 10.4856 19.6197V6.90555H0.734506C0.533705 6.90555 0.367188 6.73904 0.367188 6.53823V0.739496C0.367188 0.538695 0.533705 0.372177 0.734506 0.372177H28.827C29.0278 0.372177 29.1944 0.538695 29.1944 0.739496V6.53823C29.1944 6.73904 29.0278 6.90555 28.827 6.90555H19.076V19.6197C19.076 19.8205 18.9094 19.987 18.7086 19.987H10.8529Z" fill="#C50018"/>
<path d="M28.8272 0.739749V6.53849H18.7088V19.6199H10.853V6.53849H0.734638V0.739749H28.8272ZM28.8272 0.00511169H0.734638C0.328138 0.00511169 0 0.33325 0 0.739749V6.53849C0 6.94499 0.328138 7.27312 0.734638 7.27312H10.1184V19.6199C10.1184 20.0264 10.4465 20.3546 10.853 20.3546H18.7088C19.1153 20.3546 19.4434 20.0264 19.4434 19.6199V7.27312H28.8272C29.2337 7.27312 29.5618 6.94499 29.5618 6.53849V0.739749C29.5618 0.33325 29.2337 0.00511169 28.8272 0.00511169Z" fill="white"/>
<path d="M46.3695 19.9872C46.2324 19.9872 46.1051 19.9088 46.0414 19.7863L44.6162 17.0192H35.1639L33.7387 19.7863C33.675 19.9088 33.5477 19.9872 33.4105 19.9872H24.3794C24.2472 19.9872 24.1296 19.9186 24.0611 19.8059C23.9974 19.6933 23.9974 19.5513 24.0611 19.4386L34.8994 0.558438C34.9631 0.445793 35.0855 0.37233 35.2177 0.37233H44.6848C44.817 0.37233 44.9394 0.440896 45.0031 0.558438L55.8415 19.4386C55.9051 19.5513 55.9051 19.6933 55.8415 19.8059C55.7778 19.9186 55.6554 19.9872 55.5231 19.9872H46.3695ZM41.8736 11.7004L39.89 7.85094L37.9065 11.7004H41.8687H41.8736Z" fill="#C50018"/>
<path d="M44.6833 0.739726L55.5217 19.6199H46.3681L44.8401 16.652H34.9371L33.414 19.6199H24.3828L35.2163 0.739726H44.6833ZM37.3027 12.0678H42.4745L39.8886 7.05271L37.3027 12.0678ZM44.6833 0.00508881H35.2163C34.9518 0.00508881 34.7119 0.147119 34.5796 0.372407L23.7413 19.2526C23.609 19.4779 23.609 19.7619 23.7413 19.9872C23.8735 20.2125 24.1135 20.3545 24.378 20.3545H33.4091C33.6834 20.3545 33.938 20.2027 34.0605 19.9578L35.3828 17.3915H44.3895L45.7118 19.9578C45.8392 20.2027 46.0889 20.3545 46.3632 20.3545H55.5168C55.7812 20.3545 56.0212 20.2125 56.1535 19.9872C56.2857 19.7619 56.2857 19.4828 56.1535 19.2526L45.3249 0.372407C45.1927 0.142221 44.9527 0.00508881 44.6882 0.00508881H44.6833ZM38.5075 11.3332L39.8886 8.65422L41.2697 11.3332H38.5075Z" fill="white"/>
<path d="M73.0108 19.9869C72.9178 19.9869 72.8247 19.9478 72.7561 19.8841L65.5371 12.9295V19.6196C65.5371 19.8204 65.3706 19.9869 65.1698 19.9869H56.5158C56.315 19.9869 56.1484 19.8204 56.1484 19.6196V0.73945C56.1484 0.538649 56.315 0.372131 56.5158 0.372131H65.1698C65.3706 0.372131 65.5371 0.538649 65.5371 0.73945V7.36098L71.9823 0.484775C72.0509 0.411312 72.1488 0.367233 72.2517 0.367233H83.0606C83.2125 0.367233 83.3447 0.460287 83.4035 0.59742C83.4623 0.734552 83.4231 0.896172 83.3153 0.999021L73.5397 10.1477L83.4476 19.3405C83.5602 19.4433 83.5945 19.6049 83.5406 19.7421C83.4867 19.8841 83.3496 19.9772 83.1978 19.9772H73.0157L73.0108 19.9869Z" fill="#C50018"/>
<path d="M83.0598 0.739535L73.0002 10.1576L83.1969 19.6197H73.0148L65.1738 12.0676V19.6197H56.5198V0.739535H65.1738V8.29161L72.2557 0.739535H83.0647M83.0598 0.00489758H72.2508C72.05 0.00489758 71.8541 0.0881565 71.717 0.235084L65.9085 6.43053V0.739535C65.9085 0.333036 65.5803 0.00489758 65.1738 0.00489758H56.5198C56.1133 0.00489758 55.7852 0.333036 55.7852 0.739535V19.6197C55.7852 20.0262 56.1133 20.3543 56.5198 20.3543H65.1738C65.5803 20.3543 65.9085 20.0262 65.9085 19.6197V13.7965L72.5055 20.1487C72.6426 20.2809 72.8238 20.3543 73.0148 20.3543H83.1969C83.5006 20.3543 83.7699 20.1682 83.8826 19.8891C83.9952 19.6099 83.9218 19.2867 83.6965 19.081L74.0776 10.1527L83.5642 1.27337C83.7846 1.06767 83.8581 0.74933 83.7455 0.46527C83.6328 0.181211 83.3634 0 83.0598 0V0.00489758Z" fill="white"/>
<path d="M188.342 46.1901C188.142 46.1901 187.975 46.0236 187.975 45.8228V33.1087H178.224C178.023 33.1087 177.857 32.9421 177.857 32.7413V26.9426C177.857 26.7418 178.023 26.5753 178.224 26.5753H206.317C206.517 26.5753 206.684 26.7418 206.684 26.9426V32.7413C206.684 32.9421 206.517 33.1087 206.317 33.1087H196.565V45.8228C196.565 46.0236 196.399 46.1901 196.198 46.1901H188.342Z" fill="#C50018"/>
<path d="M206.317 26.9427V32.7414H196.198V45.8229H188.342V32.7414H178.224V26.9427H206.317ZM206.317 26.208H178.224C177.818 26.208 177.489 26.5362 177.489 26.9427V32.7414C177.489 33.1479 177.818 33.4761 178.224 33.4761H187.608V45.8229C187.608 46.2294 187.936 46.5575 188.342 46.5575H196.198C196.605 46.5575 196.933 46.2294 196.933 45.8229V33.4761H206.317C206.723 33.4761 207.051 33.1479 207.051 32.7414V26.9427C207.051 26.5362 206.723 26.208 206.317 26.208Z" fill="white"/>
<path d="M222.382 46.4302C216.774 46.4302 212.748 45.5242 210.407 43.7366C208.037 41.9245 206.837 39.4414 206.837 36.3559C206.837 33.2704 208.037 30.7874 210.407 28.9752C212.748 27.1876 216.774 26.2816 222.382 26.2816C227.99 26.2816 232.04 27.1876 234.381 28.9752C236.751 30.7874 237.951 33.2704 237.951 36.3559C237.951 39.4414 236.751 41.9245 234.381 43.7366C232.04 45.5242 228.004 46.4302 222.382 46.4302ZM222.387 32.5162C220.766 32.5162 219.492 32.6729 218.611 32.9864C217.773 33.2851 217.191 33.7014 216.877 34.2255C216.554 34.7691 216.392 35.4841 216.392 36.351C216.392 37.2179 216.554 37.9133 216.877 38.4668C217.186 39.0006 217.768 39.4169 218.606 39.7156C219.487 40.0291 220.756 40.1858 222.382 40.1858C224.008 40.1858 225.301 40.0291 226.178 39.7156C227.015 39.4218 227.598 39.0006 227.906 38.4668C228.23 37.9133 228.391 37.2032 228.391 36.351C228.391 35.4988 228.23 34.7642 227.916 34.2206C227.613 33.6965 227.03 33.2851 226.187 32.9864C225.296 32.6729 224.018 32.5162 222.377 32.5162H222.387Z" fill="#C50018"/>
<path d="M222.386 26.6437C227.95 26.6437 231.878 27.5155 234.16 29.2639C236.447 31.0124 237.588 33.373 237.588 36.3507C237.588 39.3285 236.447 41.694 234.16 43.4424C231.873 45.1909 227.95 46.0627 222.386 46.0627C216.822 46.0627 212.919 45.1909 210.637 43.4424C208.35 41.694 207.208 39.3334 207.208 36.3507C207.208 33.3681 208.35 31.0075 210.637 29.2639C212.924 27.5155 216.837 26.6437 222.386 26.6437ZM222.391 40.5578C224.076 40.5578 225.383 40.3961 226.309 40.068C227.235 39.7399 227.876 39.2697 228.234 38.6575C228.591 38.0453 228.768 37.2764 228.768 36.3556C228.768 35.4349 228.591 34.6464 228.244 34.044C227.896 33.4416 227.254 32.9763 226.319 32.6482C225.383 32.32 224.076 32.1535 222.386 32.1535C220.696 32.1535 219.413 32.32 218.488 32.6482C217.562 32.9763 216.92 33.4416 216.563 34.044C216.205 34.6464 216.029 35.4202 216.029 36.3556C216.029 37.2911 216.205 38.0453 216.563 38.6575C216.92 39.2697 217.562 39.7399 218.488 40.068C219.413 40.3961 220.711 40.5578 222.386 40.5578M222.386 25.9091C216.617 25.9091 212.63 26.8152 210.191 28.6811C207.728 30.5667 206.474 33.1477 206.474 36.3556C206.474 39.5636 207.723 42.1446 210.191 44.0302C212.63 45.8961 216.622 46.8022 222.386 46.8022C228.15 46.8022 232.166 45.8961 234.605 44.0302C237.069 42.1446 238.323 39.5636 238.323 36.3556C238.323 33.1477 237.074 30.5667 234.605 28.6811C232.166 26.8152 228.17 25.9091 222.386 25.9091ZM222.391 39.8231C220.809 39.8231 219.58 39.6713 218.737 39.3726C217.983 39.1081 217.469 38.7408 217.199 38.2853C216.91 37.7906 216.764 37.1393 216.764 36.3556C216.764 35.572 216.91 34.9011 217.195 34.4162C217.459 33.9705 217.978 33.6081 218.732 33.3387C219.575 33.04 220.804 32.8882 222.386 32.8882C223.968 32.8882 225.222 33.04 226.074 33.3387C226.833 33.6081 227.347 33.9656 227.607 34.4113C227.891 34.8962 228.033 35.5524 228.033 36.3556C228.033 37.1588 227.886 37.7906 227.597 38.2853C227.333 38.7408 226.813 39.1081 226.064 39.3726C225.222 39.6713 223.988 39.8231 222.391 39.8231Z" fill="white"/>
<path d="M152.472 46.1897C152.271 46.1897 152.104 46.0232 152.104 45.8224V26.9471C152.104 26.7463 152.271 26.5798 152.472 26.5798H176.759C176.96 26.5798 177.126 26.7463 177.126 26.9471V32.4275C177.126 32.6283 176.96 32.7948 176.759 32.7948H160.533V33.9457H175.975C176.176 33.9457 176.343 34.1123 176.343 34.3131V38.4956C176.343 38.6964 176.176 38.8629 175.975 38.8629H160.533V40.0971H176.906C177.107 40.0971 177.273 40.2636 177.273 40.4644V45.8224C177.273 46.0232 177.107 46.1897 176.906 46.1897H152.472Z" fill="#C50018"/>
<path d="M176.759 26.9427V32.4231H160.166V34.3087H175.975V38.4912H160.166V40.46H176.906V45.818H152.472V26.9427H176.759ZM176.759 26.208H152.472C152.065 26.208 151.737 26.5362 151.737 26.9427V45.818C151.737 46.2245 152.065 46.5526 152.472 46.5526H176.906C177.312 46.5526 177.64 46.2245 177.64 45.818V40.46C177.64 40.0535 177.312 39.7254 176.906 39.7254H160.901V39.2258H175.975C176.382 39.2258 176.71 38.8977 176.71 38.4912V34.3087C176.71 33.9022 176.382 33.574 175.975 33.574H160.901V33.1577H176.759C177.165 33.1577 177.494 32.8296 177.494 32.4231V26.9427C177.494 26.5362 177.165 26.208 176.759 26.208Z" fill="white"/>
<path d="M126.111 46.4883C124.867 46.4883 123.809 46.3561 122.972 46.0965C122.82 46.0476 122.712 45.9055 122.712 45.7439V39.4897C122.712 39.3771 122.766 39.2693 122.854 39.2007C122.918 39.1518 123.001 39.1224 123.079 39.1224C123.109 39.1224 123.138 39.1224 123.168 39.1322C123.579 39.235 124.02 39.284 124.48 39.284C125.029 39.284 126.841 39.1028 126.998 36.7911C127.164 34.3521 127.375 29.2733 127.463 26.9323C127.468 26.7364 127.634 26.5797 127.83 26.5797H150.996C151.196 26.5797 151.363 26.7462 151.363 26.947V45.8272C151.363 46.028 151.196 46.1945 150.996 46.1945H143.272C143.071 46.1945 142.905 46.028 142.905 45.8272V33.4608H134.995C134.941 34.0975 134.907 34.7097 134.873 35.2974C134.76 37.325 134.652 39.2399 133.761 41.8699C132.4 45.8859 128.384 46.4883 126.111 46.4883Z" fill="#C50018"/>
<path d="M150.996 26.943V45.8232H143.272V33.0895H134.662C134.378 36.0721 134.599 38.2711 133.418 41.7484C132.076 45.7105 127.943 46.117 126.111 46.117C124.896 46.117 123.888 45.9897 123.079 45.7399V39.4857C123.52 39.5934 123.986 39.6473 124.475 39.6473C124.941 39.6473 127.174 39.5151 127.36 36.8165C127.541 34.2012 127.762 28.7159 127.825 26.943H150.991M150.996 26.2083H127.83C127.433 26.2083 127.11 26.5218 127.096 26.9136C127.007 29.2546 126.797 34.3285 126.63 36.7626C126.498 38.7021 125.083 38.9127 124.48 38.9127C124.049 38.9127 123.638 38.8637 123.256 38.7707C123.197 38.756 123.138 38.7511 123.079 38.7511C122.918 38.7511 122.756 38.8049 122.624 38.9078C122.448 39.0449 122.345 39.2604 122.345 39.4857V45.7399C122.345 46.0632 122.555 46.3472 122.859 46.4403C123.731 46.7145 124.828 46.8517 126.106 46.8517C130.142 46.8517 133.056 45.0787 134.109 41.9835C135.015 39.3094 135.123 37.3699 135.235 35.313C135.26 34.8281 135.289 34.3334 135.328 33.8192H142.533V45.8183C142.533 46.2248 142.861 46.5529 143.267 46.5529H150.991C151.397 46.5529 151.725 46.2248 151.725 45.8183V26.9381C151.725 26.5316 151.397 26.2035 150.991 26.2035L150.996 26.2083Z" fill="white"/>
<path d="M10.8529 46.0913C10.6521 46.0913 10.4856 45.9248 10.4856 45.724V33.005H0.734506C0.533705 33.005 0.367188 32.8385 0.367188 32.6377V26.8389C0.367188 26.6381 0.533705 26.4716 0.734506 26.4716H28.827C29.0278 26.4716 29.1944 26.6381 29.1944 26.8389V32.6377C29.1944 32.8385 29.0278 33.005 28.827 33.005H19.076V45.724C19.076 45.9248 18.9094 46.0913 18.7086 46.0913H10.8529Z" fill="#C50018"/>
<path d="M28.8272 26.8387V32.6375H18.7088V45.7238H10.853V32.6375H0.734638V26.8387H28.8272ZM28.8272 26.1041H0.734638C0.328138 26.1041 0 26.4322 0 26.8387V32.6375C0 33.044 0.328138 33.3721 0.734638 33.3721H10.1184V45.7238C10.1184 46.1303 10.4465 46.4585 10.853 46.4585H18.7088C19.1153 46.4585 19.4434 46.1303 19.4434 45.7238V33.3721H28.8272C29.2337 33.3721 29.5618 33.044 29.5618 32.6375V26.8387C29.5618 26.4322 29.2337 26.1041 28.8272 26.1041Z" fill="white"/>
<path d="M30.3064 46.0913C30.1056 46.0913 29.9391 45.9248 29.9391 45.724V26.8389C29.9391 26.6381 30.1056 26.4716 30.3064 26.4716H49.6812C54.76 26.4716 57.7916 28.4943 57.7916 31.8834C57.7916 33.6956 56.8856 35.1648 55.2155 36.0905C57.3215 36.9329 58.4283 38.4658 58.4283 40.5718C58.4283 44.0295 55.3331 46.0913 50.1514 46.0913H30.3064ZM47.2814 40.2044C48.2707 40.2044 48.7752 39.8567 48.7752 39.1662C48.7752 38.2895 47.9622 38.1034 47.2814 38.1034H39.4747V40.2044H47.2814ZM46.9484 34.3714C48.4128 34.3714 48.4128 33.5731 48.4128 33.3086C48.4128 32.6377 47.9181 32.2997 46.9484 32.2997H39.4747V34.3714H46.9484Z" fill="#C50018"/>
<path d="M49.6773 26.8388C54.6484 26.8388 57.4204 28.7831 57.4204 31.8833C57.4204 33.8521 56.2842 35.3361 54.2272 36.1442C56.7544 36.8445 58.0571 38.3579 58.0571 40.5667C58.0571 43.7746 55.1969 45.7189 50.1475 45.7189H30.3025V26.8339H49.6773M39.1084 34.7386H46.9494C48.115 34.7386 48.7811 34.2537 48.7811 33.3085C48.7811 32.4171 48.115 31.9322 46.9494 31.9322H39.1084V34.7386ZM39.1084 40.5716H47.2824C48.4481 40.5716 49.1435 40.0867 49.1435 39.166C49.1435 38.2452 48.4481 37.7359 47.2824 37.7359H39.1084V40.5667M49.6773 26.1041H30.3025C29.896 26.1041 29.5679 26.4323 29.5679 26.8388V45.7238C29.5679 46.1303 29.896 46.4585 30.3025 46.4585H50.1475C55.5593 46.4585 58.7917 44.2595 58.7917 40.5716C58.7917 39.0778 58.2628 37.1971 55.9903 36.0364C57.4008 35.0422 58.1551 33.6072 58.1551 31.8833C58.1551 28.264 54.9863 26.1041 49.6773 26.1041ZM39.843 32.6669H46.9494C48.0464 32.6669 48.0465 33.1322 48.0465 33.3085C48.0465 33.5338 48.0464 34.0039 46.9494 34.0039H39.843V32.6669ZM39.843 38.4754H47.2824C48.4089 38.4754 48.4089 38.9995 48.4089 39.1709C48.4089 39.3521 48.4089 39.8418 47.2824 39.8418H39.843V38.4803V38.4754Z" fill="white"/>
<path d="M73.6602 46.3358C68.0524 46.3358 64.0266 45.4297 61.6856 43.6421C59.3151 41.83 58.1152 39.3469 58.1152 36.2614C58.1152 33.176 59.3151 30.6929 61.6856 28.8808C64.0266 27.0932 68.0524 26.1871 73.6602 26.1871C79.2679 26.1871 83.3182 27.0932 85.6592 28.8808C88.0297 30.6929 89.2296 33.176 89.2296 36.2614C89.2296 39.3469 88.0297 41.83 85.6592 43.6421C83.3182 45.4297 79.2826 46.3358 73.6602 46.3358ZM73.6651 32.4217C72.044 32.4217 70.7706 32.5785 69.889 32.8919C69.0515 33.1907 68.4687 33.607 68.1602 34.131C67.8369 34.6746 67.6753 35.3897 67.6753 36.2565C67.6753 37.1234 67.8369 37.8189 68.1602 38.3723C68.4687 38.9061 69.0515 39.3273 69.889 39.6212C70.7706 39.9346 72.0391 40.0914 73.6651 40.0914C75.291 40.0914 76.584 39.9346 77.4607 39.6212C78.2982 39.3273 78.881 38.9061 79.1895 38.3723C79.5128 37.8189 79.6744 37.1087 79.6744 36.2565C79.6744 35.4044 79.5128 34.6697 79.1993 34.1261C78.8957 33.6021 78.3129 33.1907 77.4705 32.8919C76.5791 32.5785 75.296 32.4217 73.6602 32.4217H73.6651Z" fill="#C50018"/>
<path d="M73.6522 26.5498C79.2159 26.5498 83.1437 27.4215 85.426 29.17C87.7132 30.9184 88.8543 33.279 88.8543 36.2568C88.8543 39.2345 87.7132 41.6 85.426 43.3485C83.1388 45.0969 79.2159 45.9687 73.6522 45.9687C68.0886 45.9687 64.1852 45.0969 61.9029 43.3485C59.6158 41.6 58.4746 39.2394 58.4746 36.2568C58.4746 33.2741 59.6158 30.9135 61.9029 29.17C64.1901 27.4215 68.1033 26.5498 73.6522 26.5498ZM73.6571 40.4638C75.3419 40.4638 76.6495 40.3022 77.5752 39.974C78.5008 39.6459 79.1424 39.1757 79.4999 38.5635C79.8575 37.9513 80.0338 37.1824 80.0338 36.2617C80.0338 35.3409 79.8575 34.5524 79.5097 33.95C79.162 33.3476 78.5204 32.8823 77.585 32.5542C76.6496 32.2261 75.3419 32.0595 73.6522 32.0595C71.9626 32.0595 70.6794 32.2261 69.7537 32.5542C68.8281 32.8823 68.1865 33.3476 67.829 33.95C67.4715 34.5524 67.2952 35.3262 67.2952 36.2617C67.2952 37.1971 67.4715 37.9513 67.829 38.5635C68.1865 39.1757 68.8281 39.6459 69.7537 39.974C70.6794 40.3022 71.9773 40.4638 73.6522 40.4638M73.6522 25.8151C67.8829 25.8151 63.8962 26.7212 61.4573 28.5872C58.9938 30.4727 57.74 33.0538 57.74 36.2617C57.74 39.4696 58.9889 42.0506 61.4573 43.9362C63.8962 45.8022 67.8878 46.7082 73.6522 46.7082C79.4167 46.7082 83.4327 45.8022 85.8717 43.9362C88.3352 42.0506 89.589 39.4696 89.589 36.2617C89.589 33.0538 88.3401 30.4727 85.8717 28.5872C83.4327 26.7212 79.4363 25.8151 73.6522 25.8151ZM73.6571 39.7292C72.0752 39.7292 70.8459 39.5773 70.0035 39.2786C69.2493 39.0141 68.7351 38.6468 68.4657 38.1913C68.1767 37.6967 68.0298 37.0453 68.0298 36.2617C68.0298 35.4781 68.1767 34.8071 68.4608 34.3222C68.7253 33.8766 69.2444 33.5141 69.9986 33.2448C70.841 32.946 72.0703 32.7942 73.6522 32.7942C75.2342 32.7942 76.4879 32.946 77.3401 33.2448C78.0992 33.5141 78.6135 33.8717 78.8731 34.3173C79.1571 34.8022 79.2991 35.4585 79.2991 36.2617C79.2991 37.0649 79.1522 37.6967 78.8633 38.1913C78.5988 38.6468 78.0796 39.0141 77.3303 39.2786C76.4879 39.5773 75.2537 39.7292 73.6571 39.7292Z" fill="white"/>
<path d="M90.3399 46.0912C90.1391 46.0912 89.9725 45.9247 89.9725 45.7239V26.8388C89.9725 26.638 90.1391 26.4715 90.3399 26.4715H114.627C114.828 26.4715 114.994 26.638 114.994 26.8388V32.3192C114.994 32.52 114.828 32.6866 114.627 32.6866H98.4013V33.8424H113.843C114.044 33.8424 114.211 34.0089 114.211 34.2097V38.3971C114.211 38.5979 114.044 38.7645 113.843 38.7645H98.4013V39.9986H114.774C114.975 39.9986 115.141 40.1652 115.141 40.366V45.7288C115.141 45.9296 114.975 46.0961 114.774 46.0961H90.3399V46.0912Z" fill="#C50018"/>
<path d="M114.615 26.8388V32.3192H98.022V34.2097H113.831V38.3971H98.022V40.3659H114.762V45.7288H90.3279V26.8437H114.615M114.615 26.1042H90.3279C89.9214 26.1042 89.5933 26.4323 89.5933 26.8388V45.7239C89.5933 46.1304 89.9214 46.4585 90.3279 46.4585H114.762C115.168 46.4585 115.497 46.1304 115.497 45.7239V40.361C115.497 39.9545 115.168 39.6264 114.762 39.6264H98.7566V39.1268H113.831C114.238 39.1268 114.566 38.7987 114.566 38.3922V34.2048C114.566 33.7983 114.238 33.4701 113.831 33.4701H98.7566V33.0489H114.615C115.022 33.0489 115.35 32.7208 115.35 32.3143V26.8339C115.35 26.4274 115.022 26.0993 114.615 26.0993V26.1042Z" fill="white"/>
<path d="M107.111 26.4275C106.136 26.4275 105.338 26.1973 104.735 25.7369C104.099 25.2569 103.775 24.6154 103.775 23.8268C103.775 23.0383 104.099 22.4016 104.735 21.9168C105.343 21.4564 106.141 21.2262 107.111 21.2262C108.08 21.2262 108.884 21.4564 109.496 21.9168C110.142 22.3968 110.465 23.0432 110.465 23.8268C110.465 24.6105 110.137 25.252 109.496 25.7369C108.884 26.1924 108.08 26.4275 107.111 26.4275Z" fill="#C50018"/>
<path d="M107.115 21.5987C108.011 21.5987 108.731 21.8044 109.279 22.2158C109.828 22.6272 110.102 23.1659 110.102 23.832C110.102 24.498 109.828 25.0368 109.279 25.4482C108.731 25.8596 108.006 26.0653 107.115 26.0653C106.223 26.0653 105.503 25.8596 104.96 25.4482C104.416 25.0368 104.147 24.498 104.147 23.832C104.147 23.1659 104.416 22.6272 104.96 22.2158C105.503 21.8044 106.218 21.5987 107.115 21.5987ZM107.115 20.864C106.062 20.864 105.185 21.1236 104.514 21.6281C103.794 22.1766 103.412 22.9357 103.412 23.8271C103.412 24.7184 103.794 25.4825 104.514 26.0261C105.185 26.5354 106.057 26.7901 107.115 26.7901C108.173 26.7901 109.044 26.5354 109.72 26.0261C110.45 25.4776 110.837 24.7184 110.837 23.8222C110.837 22.9259 110.45 22.1668 109.72 21.6183C109.044 21.1138 108.168 20.8542 107.115 20.8542V20.864Z" fill="white"/>
<path d="M98.0463 26.3887C97.0717 26.3887 96.2734 26.1585 95.671 25.6981C95.0343 25.2182 94.7111 24.5766 94.7111 23.7881C94.7111 22.9996 95.0343 22.3629 95.6661 21.878C96.2734 21.4176 97.0717 21.1875 98.0414 21.1875C99.0111 21.1875 99.8143 21.4176 100.427 21.878C101.073 22.3629 101.396 23.0045 101.396 23.7881C101.396 24.5717 101.068 25.2133 100.427 25.6981C99.8143 26.1536 99.0111 26.3887 98.0414 26.3887H98.0463Z" fill="#C50018"/>
<path d="M98.0424 21.5597C98.9387 21.5597 99.6586 21.7654 100.207 22.1768C100.756 22.5881 101.03 23.1269 101.03 23.793C101.03 24.459 100.756 24.9978 100.207 25.4092C99.6586 25.8206 98.9338 26.0263 98.0424 26.0263C97.1511 26.0263 96.4311 25.8206 95.8875 25.4092C95.3439 24.9978 95.0745 24.459 95.0745 23.793C95.0745 23.1269 95.3439 22.5881 95.8875 22.1768C96.4311 21.7654 97.1462 21.5597 98.0424 21.5597ZM98.0424 20.825C96.9894 20.825 96.1128 21.0846 95.4418 21.589C94.7219 22.1376 94.3398 22.8967 94.3398 23.7881C94.3398 24.6794 94.7219 25.4434 95.4418 25.9871C96.1128 26.4964 96.9845 26.7511 98.0424 26.7511C99.1003 26.7511 99.9721 26.4964 100.648 25.9871C101.378 25.4385 101.765 24.6794 101.765 23.7832C101.765 22.8869 101.378 22.1278 100.648 21.5792C99.9721 21.0748 99.0954 20.8152 98.0424 20.8152V20.825Z" fill="white"/>
<path d="M146.107 10.1383C148.159 9.33015 149.301 7.84129 149.301 5.87246C149.301 2.76739 146.524 0.823051 141.557 0.823051H122.183H119.225V1.70462H122.183V7.84618H130.989V5.91654H138.83C139.995 5.91654 140.661 6.4014 140.661 7.29276C140.661 8.23799 139.995 8.72285 138.83 8.72285H133.046H122.188V14.7175H105.085H105.026C105.002 14.7175 104.977 14.7175 104.953 14.7126C100.413 14.3355 100.457 12.0483 100.457 12.0483L92.2927 12.827C92.2144 14.1983 93.8551 16.6569 96.343 17.9744C98.831 19.2967 102.362 19.9579 106.946 19.9579C111.06 19.9579 114.097 19.5073 116.653 18.4495C118.363 17.7442 119.484 16.7696 120.042 15.5942H122.173V19.7081H142.018C147.067 19.7081 149.927 17.7638 149.927 14.551C149.927 12.3373 148.625 10.8239 146.098 10.1236L146.107 10.1383ZM139.153 14.5706H130.979V11.7349H139.153C140.318 11.7349 141.014 12.2491 141.014 13.165C141.014 14.0808 140.318 14.5706 139.153 14.5706Z" fill="#C50018"/>
<path d="M152.429 13.0131V19.1694C154.638 19.6494 156.866 19.8893 159.109 19.8893C161.352 19.8893 163.189 19.6885 164.619 19.2918C166.049 18.8902 167.303 18.234 168.38 17.3181C168.699 17.0487 169.027 16.7353 169.355 16.3925H175.335V15.5109H163.943V14.6391H170.868C171.182 14.2375 171.495 13.8114 171.818 13.356L179.606 0.823051H170.153L164.732 9.56034L158.463 0.823051H148.702L159.026 13.4882C156.577 14.0122 153.805 13.7478 152.419 13.0082L152.429 13.0131Z" fill="#C50018"/>
<path d="M185.154 13.9876C186.75 14.5018 188.89 14.7565 191.56 14.7565C193.2 14.7565 194.679 14.6684 195.987 14.4871C197.3 14.3059 198.539 14.0268 199.513 13.6497V19.7227H207.594V0.827789H199.513H197.197V1.70935H199.513V7.19465H193.347V8.07621H199.513H205.679V8.96757H197.877C197.5 9.06552 197.123 9.15368 196.756 9.21735C195.84 9.37897 194.743 9.46223 193.465 9.46223C192.186 9.46223 191.158 9.33979 190.423 9.09981C189.689 8.85493 189.165 8.47781 188.851 7.96847C188.538 7.45422 188.381 6.76856 188.381 5.90168V0.827789H180.52V6.84692C180.52 8.81085 180.893 10.3585 181.632 11.5045C182.377 12.6457 183.547 13.4733 185.144 13.9876H185.154Z" fill="#C50018"/>
<path d="M219.54 18.224H223.855V17.3375H220.485H220.49H211.175V16.456H221.44L229.702 8.77657L229.683 17.1416V17.3375L229.673 19.7227H237.46V0.827789H228.61L216.831 11.7984L216.861 0.827789H209.074V19.7227H217.924L219.54 18.224Z" fill="#C50018"/>
<path d="M92.2997 7.68439L100.464 8.46311C100.464 8.46311 100.405 5.74495 106.292 5.74495C110.411 5.74495 111.449 6.52856 111.474 7.24851C111.493 7.88519 110.886 8.468 108.614 8.468H102.937V12.0579H108.614C110.886 12.0579 111.498 12.6407 111.474 13.2774C111.469 13.4684 111.386 13.6643 111.195 13.8504H120.471C120.471 13.8064 120.475 13.7623 120.475 13.7133C120.49 11.1519 117.41 10.3095 117.214 10.2605C117.405 10.2115 120.49 9.37406 120.475 6.80772C120.466 4.76543 119.217 3.11495 116.66 2.05707C114.104 0.999193 111.062 0.548615 106.953 0.548615C102.369 0.548615 98.8331 1.20979 96.35 2.53213C96.1982 2.61539 96.0463 2.69865 95.8994 2.78681H101.233V3.66837H94.6946H90.4778V4.54994H93.8081C92.8237 5.66659 92.2556 6.8665 92.3046 7.67949L92.2997 7.68439Z" fill="#C50018"/>
<path d="M267.032 1.91015V0.827789H238.944V3.68308H256.713V4.56465H238.944V6.63143H249.062V19.7227H256.913V8.39945H262.472V7.51789H256.913H251.482V6.63632H256.913V6.63143H267.032V2.79172H269.314V1.91015H267.032Z" fill="#C50018"/>
<defs>
<linearGradient id="paint0_linear_62_3208" x1="82.4008" y1="1.34707" x2="274.108" y2="1.34707" gradientUnits="userSpaceOnUse">
<stop stop-color="white" stop-opacity="0"/>
<stop offset="0.05" stop-color="white"/>
<stop offset="0.95" stop-color="white"/>
<stop offset="1" stop-color="white" stop-opacity="0"/>
</linearGradient>
<linearGradient id="paint1_linear_62_3208" x1="74.8284" y1="4.87806" x2="278.652" y2="4.87806" gradientUnits="userSpaceOnUse">
<stop stop-color="white" stop-opacity="0"/>
<stop offset="0.05" stop-color="white"/>
<stop offset="0.95" stop-color="white"/>
<stop offset="1" stop-color="white" stop-opacity="0"/>
</linearGradient>
<linearGradient id="paint2_linear_62_3208" x1="78.9679" y1="7.51787" x2="275.705" y2="7.51787" gradientUnits="userSpaceOnUse">
<stop stop-color="white" stop-opacity="0"/>
<stop offset="0.05" stop-color="white"/>
<stop offset="0.95" stop-color="white"/>
<stop offset="1" stop-color="white" stop-opacity="0"/>
</linearGradient>
<linearGradient id="paint3_linear_62_3208" x1="77.2673" y1="10.5105" x2="277.55" y2="10.5105" gradientUnits="userSpaceOnUse">
<stop stop-color="white" stop-opacity="0"/>
<stop offset="0.05" stop-color="white"/>
<stop offset="0.95" stop-color="white"/>
<stop offset="1" stop-color="white" stop-opacity="0"/>
</linearGradient>
<linearGradient id="paint4_linear_62_3208" x1="70.8406" y1="14.071" x2="279.998" y2="14.071" gradientUnits="userSpaceOnUse">
<stop stop-color="white" stop-opacity="0"/>
<stop offset="0.05" stop-color="white"/>
<stop offset="0.95" stop-color="white"/>
<stop offset="1" stop-color="white" stop-opacity="0"/>
</linearGradient>
<linearGradient id="paint5_linear_62_3208" x1="79.5267" y1="17.602" x2="275.412" y2="17.602" gradientUnits="userSpaceOnUse">
<stop stop-color="white" stop-opacity="0"/>
<stop offset="0.05" stop-color="white"/>
<stop offset="0.95" stop-color="white"/>
<stop offset="1" stop-color="white" stop-opacity="0"/>
</linearGradient>
<linearGradient id="paint6_linear_62_3208" x1="85.3068" y1="19.0908" x2="271.337" y2="19.0908" gradientUnits="userSpaceOnUse">
<stop stop-color="white" stop-opacity="0"/>
<stop offset="0.05" stop-color="white"/>
<stop offset="0.95" stop-color="white"/>
<stop offset="1" stop-color="white" stop-opacity="0"/>
</linearGradient>
</defs>
</svg>
