<svg width="1134" height="380" viewBox="0 0 1134 380" fill="none" xmlns="http://www.w3.org/2000/svg">
<g clip-path="url(#clip0_333_1770)">
<g opacity="0.05">
<path d="M126.024 339.523H126.665C140.964 339.523 154.737 339.816 167.868 340.167L167.87 340.168C181.587 340.461 194.535 340.87 206.541 341.747C222.021 342.86 235.878 344.205 246.797 346.829H246.799C271.307 352.644 284.996 364.663 298.154 380H295.338C281.723 364.405 268.679 354.151 246.326 348.843C234.731 346.08 219.626 344.732 206.438 343.795C193.584 342.857 179.735 342.506 167.894 342.213C153.53 341.862 140.508 341.568 126.724 341.568H126.605L126.5 341.621L126.487 341.627C122.566 341.628 118.612 341.66 114.626 341.726L110.59 341.803C78.8509 342.447 45.7656 345.435 10.71 348.538C7.16656 348.852 3.59458 349.17 0 349.487V347.194C38.4483 343.781 75.6304 340.225 110.67 339.465H110.675C115.841 339.297 121.009 339.289 126.082 339.289L126.024 339.523Z" fill="#F5F6FF"/>
<path d="M146.094 295.606H147.303C163.472 295.606 179.175 296.25 194.185 296.895L199.913 297.144C213.202 297.745 225.94 298.518 237.821 300.053C254.762 302.219 270.058 305.082 281.357 310.201L281.358 310.202C308.849 322.592 316.635 341.277 328.436 363.383C331.207 368.606 333.856 374.238 336.804 380H334.41C333.93 379.051 333.455 378.106 332.984 377.163L331.437 374.052C329.799 370.722 328.211 367.433 326.506 364.319C325.446 362.32 324.396 360.398 323.4 358.469L323.398 358.465L321.473 354.832C311.928 336.904 303.281 322.495 280.479 312.159C268.207 306.62 251.074 303.92 237.595 302.223C223.443 300.463 207.711 299.702 194.171 299.058L194.159 299.057H192.682C178.092 298.471 163.02 297.827 147.42 297.827C141.877 297.827 136.689 297.872 131.584 298.04L129.4 298.12C93.3663 299.468 56.4575 305.447 17.4766 311.711C11.7054 312.628 5.87372 313.559 0 314.484V312.155C44.6249 305.081 87.8142 297.363 129.321 295.781C135.003 295.618 140.632 295.507 146.208 295.492L146.094 295.606Z" fill="#F5F6FF"/>
<path d="M169.144 251.516C186.892 251.534 204.182 252.518 220.913 253.446C237.916 254.383 254.365 255.495 269.518 258.124L271.237 258.429C288.96 261.623 305.024 266.016 316.353 273.334L316.354 273.335C345.6 292.187 347.362 316.354 357.135 344.167L358.007 346.675C361.62 357.191 365.155 368.83 371.289 380H368.795C363.74 370.509 360.451 360.763 357.435 351.862L357.434 351.857L356.232 348.383C355.836 347.232 355.438 346.086 355.027 344.944C353.155 339.568 351.517 334.365 349.994 329.277V329.275L348.812 325.387C342.899 306.099 336.677 289.184 315.195 275.305L314.244 274.706C304.28 268.574 289.913 264.054 269.22 260.477C253.593 257.778 236.74 256.663 220.854 255.727L220.839 255.726H219.369C202.959 254.789 186.008 253.852 168.644 253.852H168.144V253.911C161.229 253.919 154.755 254.094 148.394 254.38H148.391C108.005 256.432 67.3327 265.402 24.3662 274.827C16.3476 276.596 8.20941 278.382 0 280.137V277.731C50.8375 266.852 100.091 254.543 148.267 252.041L148.266 252.04C155.114 251.689 161.907 251.573 168.644 251.573H169.144V251.516Z" fill="#F5F6FF"/>
<path d="M189.893 208.242H190.16C209.957 208.242 229.229 209.587 247.937 210.817C266.698 212.047 284.783 213.51 301.57 217.073C321.43 221.286 339.563 227.356 351.719 237.348C367.157 250.032 373.837 263.793 377.62 278.55C379.515 285.939 380.683 293.576 381.858 301.469C383.033 309.354 384.215 317.492 386.141 325.844C389.767 341.618 393.009 359.873 403.502 376.241C404.29 377.474 405.125 378.728 405.999 380H403.262C402.878 379.431 402.501 378.867 402.134 378.306L401.472 377.283C391.912 362.379 388.233 345.894 384.947 331.245L383.833 326.209L383.832 326.205L383.489 324.687C381.815 317.11 380.721 309.783 379.677 302.646L379.006 298.18C375.632 276.033 371.552 256.557 350.185 238.976C339.831 230.408 323.671 224.005 301.016 219.198L301.015 219.197L299.412 218.868C282.807 215.526 264.746 214.116 247.708 212.981L246.311 212.865L246.303 212.864L239.438 212.405C223.422 211.35 206.971 210.412 190.25 210.404L190.19 210.346H189.984C182.059 210.346 174.721 210.58 167.501 210.99H167.498C122.764 213.805 78.3314 225.765 31.3213 238.352C21.0165 241.11 10.5481 243.911 0 246.637V244.286C23.3703 238.229 46.4639 231.746 69.3232 225.969C102.388 217.612 135.009 210.726 167.443 208.709L170.294 208.548C176.848 208.206 183.354 208.07 189.775 208.066L189.893 208.242Z" fill="#F5F6FF"/>
<path d="M211.518 164.677C233.103 164.681 254.225 166.316 274.725 167.896C295.129 169.477 314.968 171.29 333.334 175.729C354.65 180.876 374.24 188.639 386.863 201.014C403.121 216.989 408.773 233.752 411.05 251.4C412.189 260.237 412.482 269.288 412.834 278.589C413.186 287.882 413.597 297.418 414.979 307.182C417.613 325.538 419.966 346.734 431.523 365.402L432.256 366.573C434.978 370.861 438.233 375.371 441.815 380H438.97C435.427 375.371 432.227 370.868 429.559 366.573C418.484 348.701 415.678 328.722 413.214 311.026L412.744 307.513V307.51C411.465 298.364 410.991 289.438 410.657 280.759L410.521 277.054C409.524 249.538 408.592 225.514 385.338 202.643C374.456 191.893 357.291 183.842 332.924 177.919L331.189 177.509C313.244 173.349 294.224 171.652 274.688 170.178L273.34 170.061H273.335C253.364 168.54 232.669 166.958 211.619 166.955C202.931 166.955 194.828 167.249 186.961 167.776H186.959C137.819 171.295 89.5692 186.187 38.5723 201.994C25.916 205.904 13.0104 209.89 0 213.719V211.367C26.8699 203.444 53.4035 194.798 79.7178 187.135C115.625 176.678 151.173 168.038 186.796 165.495L186.795 165.494C195.092 164.911 203.333 164.678 211.518 164.677Z" fill="#F5F6FF"/>
<path d="M233.194 121.462C256.621 121.462 279.583 123.451 301.984 125.325C324.088 127.14 345.623 129.305 365.567 134.679C388.342 140.818 409.334 150.271 422.428 165.034C439.477 184.333 444.087 204.103 444.854 224.639C445.237 234.919 444.657 245.379 444.192 256.083C443.728 266.778 443.379 277.706 444.231 288.879C445.812 309.756 447.22 333.892 459.897 354.858C464.62 362.675 471.19 371.247 478.485 380H475.384C468.549 371.726 462.456 363.685 457.938 356.214L457.358 355.243C445.349 334.813 443.622 311.802 442.062 291.38V291.378L441.887 289.153C440.893 276.541 441.477 264.218 442.005 252.325C443.353 222.358 444.666 193.818 420.656 166.656L420.655 166.655C409.365 153.904 390.615 143.914 364.949 136.992C345.083 131.592 323.698 129.481 301.772 127.666L300.487 127.55H300.485C278.619 125.676 256.025 123.8 233.136 123.8H232.545L232.604 124.153C223.323 124.165 214.76 124.458 206.363 125.09H206.361C156.218 129.048 107.375 145.065 56.1133 162.681L45.8271 166.222C30.7942 171.387 15.4592 176.668 0 181.678V178.89C30.3745 169.022 60.3519 158.079 90.1309 148.432C128.888 135.875 167.364 125.496 206.146 122.456L206.146 122.455C215.218 121.754 224.235 121.462 233.136 121.462H233.194Z" fill="#F5F6FF"/>
<path d="M254.211 78.0723H254.711C280.012 78.0723 304.791 80.3536 329.067 82.5791C352.814 84.7459 376.045 87.2025 397.626 93.5107C421.859 100.643 444.255 111.789 457.821 128.942C475.636 151.568 479.2 174.348 478.455 197.771C478.082 209.495 476.63 221.364 475.345 233.47C474.06 245.566 472.943 257.887 473.252 270.468C473.838 293.864 474.299 320.936 488.096 344.255C494.578 355.224 504.634 367.599 515.526 380H512.522C502.066 368.008 492.385 355.994 486.083 345.385C472.206 321.916 471.496 295.171 470.909 271.438V270.443C470.558 255.784 472.079 241.469 473.604 227.588L474.286 221.275C477.594 190.075 479.214 160.296 456.545 131.051L455.969 130.314C444.154 115.328 424.285 103.693 396.971 95.6553L396.97 95.6543C375.694 89.4323 352.608 86.9699 328.866 84.8037L327.634 84.6865C303.951 82.5203 279.479 80.293 254.711 80.293H254.594C244.381 80.293 234.928 80.6448 225.649 81.4072H225.647C167.758 86.3328 111.934 107.324 52.9082 129.453C35.5912 135.979 17.8683 142.638 0 148.873V146.373C33.9194 134.512 67.3579 121.156 100.624 109.43C142.224 94.7659 183.612 82.6319 225.556 79.0654C235.163 78.3186 244.715 77.968 254.211 77.9561V78.0723Z" fill="#F5F6FF"/>
<path d="M276.846 34.3916C303.79 34.4236 330.276 37.0382 356.21 39.541L360.985 40.0059C384.826 42.3613 408.092 45.2055 429.805 52.0508L431.007 52.4346C456.24 60.5783 479.519 73.3194 493.338 92.5615L494.198 93.7764C512.025 119.293 514.444 144.69 512.228 170.597C511.101 183.768 508.778 197.051 506.673 210.562C504.569 224.063 502.684 237.779 502.449 251.767C501.98 277.743 501.556 307.749 516.411 333.36L516.412 333.361C524.672 347.533 538.737 363.961 553.377 380H550.219C536.015 364.358 522.429 348.316 514.345 334.438C499.124 308.287 499.637 278.275 500.048 251.667C500.34 235.078 502.915 218.775 505.437 202.96C511.414 165.446 517.091 129.758 491.395 93.9111C479.055 76.6937 458.071 63.3536 429.049 54.2588C406.362 47.1561 381.513 44.3418 355.953 41.8828L354.845 41.7666L354.84 41.7656C329.454 39.3177 303.17 36.8097 276.705 36.7871L276.646 36.6104H276.287C265.311 36.6104 255.094 37.0206 245.169 37.9004C182.877 43.5296 123.239 67.5116 60.2266 92.8604C40.5231 100.8 20.3269 108.92 0 116.436V114.07C37.4621 100.197 74.3592 84.3328 111.129 70.457C155.57 53.6863 199.886 39.7983 245.02 35.7344L245.021 35.7354C255.5 34.8583 265.981 34.4482 276.346 34.4482H276.846V34.3916Z" fill="#F5F6FF"/>
<path d="M412.589 0C429.611 2.30108 446.225 5.44165 462.044 10.708C489.197 19.7086 514.345 34.2399 528.915 56.2412C548.289 85.4988 549.788 114.304 546.037 143.509C544.16 158.123 540.971 172.815 538.051 187.727C535.132 202.628 532.485 217.737 531.706 233.131C530.3 261.681 528.873 294.622 544.846 322.524C554.78 339.902 573.173 360.497 591.475 380H588.295C570.724 361.269 553.286 341.602 543.42 324.729L542.841 323.727C526.333 294.83 528.012 260.668 529.421 233.063C530.357 214.544 533.984 196.31 537.503 178.62L539.039 170.885C546.613 132.318 551.957 95.3519 526.993 57.6221C514.306 38.4676 491.562 23.0725 461.304 12.9795C439.855 5.83898 417.35 2.63686 392.67 0H412.589Z" fill="#F5F6FF"/>
<path d="M547.402 0C553.952 6.0211 559.685 12.7592 564.318 20.2744L564.319 20.2754C584.429 52.8359 584.878 84.6393 579.619 116.724C576.988 132.777 572.932 148.877 569.195 165.188C565.461 181.489 562.05 197.989 560.728 214.789C558.326 245.916 555.956 281.732 573.044 311.982C583.838 331.135 604.566 354.001 625.005 375.453C626.456 376.977 627.907 378.493 629.352 380H626.452C604.883 357.473 582.62 333.252 571.16 312.955L571.159 312.954C553.306 281.43 556.211 244.346 558.559 214.456L558.716 212.539C560.431 192.749 564.962 173.288 569.394 154.394C579.941 109.038 590.033 66.0303 562.414 21.3301C557.359 13.1587 551.07 6.0948 544.144 0H547.402Z" fill="#F5F6FF"/>
<path d="M607.739 0C620.343 30.273 619.063 59.9176 613.312 89.6787C609.929 107.178 605.007 124.693 600.456 142.409C596.05 159.561 591.995 176.89 590.05 194.508L589.868 196.214C586.411 229.919 583.157 268.667 601.303 301.206C612.743 321.708 635.128 346.259 657.253 369.241C660.751 372.875 664.244 376.467 667.685 380H664.668C639.921 354.626 613.417 326.742 600.093 303.489L599.421 302.3C580.339 268.088 584.586 226.502 587.696 195.965C589.978 173.642 595.772 151.662 601.344 130.341L602.555 125.729C613.717 83.1062 623.378 42.2693 605.403 0H607.739Z" fill="#F5F6FF"/>
<path d="M651.873 0C654.115 21.052 651.583 41.8802 647.041 62.7178C642.912 81.6597 637.129 100.583 631.768 119.699C626.409 138.804 621.475 158.088 619.066 177.7C614.672 213.863 610.417 255.544 629.679 290.43L630.252 291.457C642.487 313.1 666.165 338.899 689.618 363.028C695.236 368.808 700.841 374.491 706.273 380H703.188C674.982 351.37 643.601 319.295 628.519 292.81L627.798 291.527C607.486 254.685 612.961 210.06 616.952 177.354C619.937 153.216 626.726 129.362 633.353 106.227C643.673 70.1508 653.628 35.368 649.796 0H651.873Z" fill="#F5F6FF"/>
<path d="M687.384 0C686.188 11.9614 683.943 23.875 681.092 35.7793C676.208 56.1672 669.558 76.5022 663.381 97.0156C657.207 117.518 651.51 138.186 648.559 159.188C643.109 197.929 637.971 242.539 658.289 279.713C670.992 302.913 696.723 330.833 722.24 356.874C730.025 364.819 737.786 372.59 745.159 380H741.956L739.639 377.669C723.866 361.828 707.034 344.914 692.138 328.296C677.703 312.193 665.107 296.39 657.058 282.13L656.293 280.755C636.332 244.38 640.166 202.38 646.266 158.8C649.894 132.847 657.796 107.121 665.42 82.2275C673.952 54.3847 682.281 27.2373 685.059 0H687.384Z" fill="#F5F6FF"/>
<path d="M716.979 0C716.297 2.93424 715.576 5.86718 714.82 8.79883C709.189 30.6327 701.679 52.3819 694.691 74.2998C687.708 96.2067 681.251 118.269 677.757 140.677C671.311 181.993 665.232 229.534 686.665 268.995C699.984 293.514 727.357 323.12 754.553 350.698C764.571 360.857 774.563 370.741 783.829 380H780.388L774.053 373.686C757.048 356.732 738.898 338.648 722.873 320.888C706.845 303.124 692.967 285.709 684.495 270.1C663.42 231.268 668.131 186.636 675.345 140.304C679.676 112.536 688.633 84.9945 697.312 58.2861C703.716 38.6112 710.006 19.2692 714.55 0H716.979Z" fill="#F5F6FF"/>
<path d="M743.282 0C737.921 17.2048 731.834 34.3851 726.06 51.6523C718.266 74.959 711.051 98.412 707.014 122.226C699.572 166.118 692.552 216.531 715.041 258.337C728.976 284.205 758.022 315.493 786.918 344.602C799.215 356.989 811.482 368.98 822.562 380H819.287C815.884 376.621 812.366 373.145 808.76 369.585C791.375 352.427 771.89 333.172 754.51 314.043C737.125 294.909 721.871 275.929 712.931 259.326C690.744 218.216 696.681 168.904 704.658 121.749C709.693 92.1662 719.704 62.8092 729.38 34.3438L731.457 28.2461C734.679 18.7744 737.84 9.36788 740.781 0H743.282Z" fill="#F5F6FF"/>
<path d="M767.46 0C764.071 9.62469 760.615 19.2541 757.254 28.9053C748.65 53.6134 740.676 78.453 736.096 103.657C727.657 150.126 719.694 203.469 743.299 247.562L743.994 248.842C758.839 275.808 789.061 308.244 819.165 338.41C833.83 353.106 848.462 367.264 861.301 380H858.062C853.358 375.347 848.41 370.497 843.291 365.484C824.762 347.301 803.959 326.89 785.429 306.612C767.472 286.963 751.675 267.466 742.151 250.269L741.25 248.612C718.008 205.044 724.822 152.981 733.854 103.191C739.533 71.7941 750.599 40.6222 761.331 10.4004C762.565 6.925 763.794 3.45827 765.014 0H767.46Z" fill="#F5F6FF"/>
<path d="M790.956 0C790.217 2.02714 789.48 4.05439 788.748 6.08301C779.329 32.1911 770.593 58.4224 765.47 85.0322C756.035 134.077 747.133 190.291 771.793 236.728C786.99 265.292 819.365 299.964 851.646 332.139C868.784 349.22 885.892 365.595 900.422 380H896.932C891.007 374.146 884.664 367.959 878.058 361.502C858.327 342.265 836.204 320.682 816.53 299.248C796.851 277.808 779.651 256.547 769.744 237.956C745.331 192.049 753.08 137.178 763.168 84.7529C768.711 56.1681 778.463 27.7512 788.55 0H790.956Z" fill="#F5F6FF"/>
<path d="M813.979 0C806.129 22.0587 799.143 44.2246 794.609 66.6406C784.178 118.203 774.335 177.346 800.11 226.069C815.952 256.011 850 292.382 883.975 326.094C903.549 345.517 923.094 364.056 939.164 380H935.979C928.793 372.891 920.926 365.258 912.648 357.227C891.745 336.965 868.303 314.226 847.486 291.643C826.989 269.406 809.065 247.351 798.613 227.985L798.121 227.065C772.595 178.76 781.28 121.139 792.424 66.0781C796.915 43.9086 803.856 21.8061 811.592 0H813.979Z" fill="#F5F6FF"/>
<path d="M837.175 0C832.184 15.0104 827.796 30.0832 824.46 45.2598L823.866 48.0156C812.38 102.155 801.655 164.168 828.486 215.235C844.915 246.496 880.605 284.551 916.265 319.8C938.43 341.709 960.579 362.532 978.14 380H974.881C966.544 371.741 957.204 362.735 947.297 353.186C925.221 331.899 900.445 308.004 878.471 284.271C856.49 260.533 837.342 236.989 826.498 216.409C799.8 165.764 809.421 105.334 821.62 47.6367C824.998 31.7095 829.588 15.8033 834.827 0H837.175Z" fill="#F5F6FF"/>
<path d="M860.981 0C858.037 9.84036 855.417 19.7117 853.24 29.626C840.817 86.3398 829.093 151.283 857.038 204.636C874.112 237.244 911.474 276.983 948.827 313.762C967.508 332.156 986.214 349.834 1002.39 365.515C1007.6 370.564 1012.54 375.407 1017.15 380H1013.81C1004.38 370.63 993.562 360.241 982.005 349.145C958.727 326.804 932.618 301.737 909.493 276.849C886.362 251.954 866.247 227.269 854.935 205.694C827.123 152.65 837.68 89.4106 850.935 29.0781C853.06 19.3789 855.622 9.67944 858.501 0H860.981Z" fill="#F5F6FF"/>
<path d="M885.272 0C884.57 2.71714 883.896 5.43649 883.254 8.15918L882.557 11.1768C869.078 70.4683 856.531 138.281 885.473 193.978L885.474 193.979C903.251 227.905 942.284 269.328 981.315 307.644C1000.84 326.807 1020.38 345.216 1037.28 361.528C1044.04 368.048 1050.37 374.234 1056.11 380H1052.68C1044.67 372.002 1035.56 363.211 1025.77 353.827L1016.54 344.986C992.116 321.621 964.702 295.398 940.434 269.367C916.159 243.33 895.062 217.518 883.252 194.979C854.444 139.359 865.88 73.4862 880.131 10.5781C880.93 7.05129 881.787 3.52524 882.691 0H885.272Z" fill="#F5F6FF"/>
<path d="M909.745 0C896.141 60.0255 884.765 127.379 913.557 183.085V183.087C931.95 218.361 972.641 261.467 1013.36 301.312C1033.73 321.241 1054.13 340.377 1071.77 357.316C1080.22 365.432 1088.04 373.045 1094.92 380H1091.78C1080.33 368.499 1066.42 355.265 1051.3 340.887C1025.65 316.497 996.889 289.117 971.463 261.938C946.031 234.752 923.967 207.798 911.688 184.264C883.079 128.966 893.278 63.3039 907.576 0H909.745Z" fill="#F5F6FF"/>
<path d="M934.867 0C922.389 57.7289 914.968 120.15 941.991 172.546C960.972 209.168 1003.32 253.958 1045.74 295.333C1066.95 316.027 1088.21 335.889 1106.58 353.455C1116.64 363.07 1125.83 371.997 1133.69 380H1130.71C1118.38 367.533 1102.92 352.876 1086.01 336.846C1059.19 311.402 1029.09 282.85 1002.51 254.515C976.332 226.615 953.592 198.956 940.729 174.701L940.124 173.549C913.171 121.235 919.785 60.1056 932.688 0H934.867Z" fill="#F5F6FF"/>
<path d="M960.314 0C949.486 54.9298 945.409 112.635 970.66 161.828L970.661 161.83C990.287 199.799 1034.29 246.273 1078.39 289.178C1097.56 307.822 1116.76 325.809 1134 342.14V345.31C1132.93 344.294 1131.85 343.269 1130.76 342.239L1120.66 332.688C1092.63 306.219 1061.19 276.511 1033.44 247.026C1006.12 217.996 982.41 189.213 969.069 163.975L968.441 162.775C943.083 113.505 946.625 56.6978 957.764 0H960.314Z" fill="#F5F6FF"/>
<path d="M985.535 0C976.592 51.8235 975.25 105.03 998.803 150.996C1019.04 190.284 1064.72 238.456 1110.52 282.905C1118.38 290.535 1126.25 298.056 1134 305.407V308.591C1110.74 286.544 1086.45 263.048 1064.4 239.685C1035.5 209.044 1010.5 178.667 996.818 152.119C973.075 105.818 974.046 53.1667 983.237 0H985.535Z" fill="#F5F6FF"/>
<path d="M1011.37 0C1004.42 48.504 1005.34 97.4216 1027.24 140.221L1027.24 140.222C1046.81 178.297 1089.61 224.468 1134 267.96V271.375C1120.79 258.467 1107.72 245.341 1095.34 232.255C1065.27 200.465 1039.29 168.946 1025.14 141.404C1003.04 98.1034 1001.86 49.5159 1009 0H1011.37Z" fill="#F5F6FF"/>
<path d="M1037.74 0C1032.75 45.0574 1035.49 89.888 1055.73 129.622C1071.1 159.625 1100.51 194.509 1134 229.314V232.747C1131.45 230.108 1128.92 227.471 1126.42 224.833C1095.67 192.401 1069.07 160.246 1054.32 132.029L1053.63 130.689C1033.12 90.4527 1030.16 45.7961 1035.28 0H1037.74Z" fill="#F5F6FF"/>
<path d="M1064.42 0C1061.32 41.4855 1065.47 82.3379 1084.11 118.964L1084.11 118.965C1094.97 140.247 1112.72 163.914 1134 188.301V191.874C1111.8 166.623 1093.29 142.096 1082.01 119.974C1063.74 84.0401 1059.3 43.823 1062.01 2.82227C1062.07 1.88187 1062.14 0.941139 1062.21 0H1064.42Z" fill="#F5F6FF"/>
<path d="M1091.67 0C1090.36 37.6718 1095.6 74.4966 1112.54 107.896L1113.08 108.946C1118.55 119.518 1125.65 130.651 1134 142.156V146.419C1124.86 134.028 1117.11 122.03 1111.18 110.634L1110.44 109.2C1100.56 89.7178 1091.21 66.4086 1089.45 28.8086C1089.04 20.0302 1089.05 10.4717 1089.55 0H1091.67Z" fill="#F5F6FF"/>
<path d="M1119.17 0C1119.34 28.5219 1123.57 56.3927 1134 82.542V88.0996C1122.1 60.4073 1117.34 30.5997 1117.17 0H1119.17Z" fill="#F5F6FF"/>
<path d="M229.372 0C175.373 10.7663 122.706 33.1914 67.6055 56.6182C45.486 66.0408 22.8181 75.7011 0 84.5361V81.9922C41.0047 66.0883 81.3699 47.6454 121.661 31.5654C153.828 18.7279 185.976 7.3861 218.449 0H229.372Z" fill="#F5F6FF"/>
<path d="M120.633 0C105.488 6.50801 90.2395 13.3135 74.8076 20.2002C50.3739 31.1297 25.267 42.3563 0 52.5146V50.0098C38.6883 34.4138 76.8136 16.4603 114.848 0H120.633Z" fill="#F5F6FF"/>
<path d="M46.7744 0C31.3003 7.04631 15.67 13.9799 0 20.4863V18.1533C13.9239 12.3617 27.7774 6.25626 41.5801 0H46.7744Z" fill="#F5F6FF"/>
</g>
</g>
<defs>
<clipPath id="clip0_333_1770">
<rect width="1134" height="380" fill="white"/>
</clipPath>
</defs>
</svg>
