<svg width="296" height="599" viewBox="0 0 296 599" fill="none" xmlns="http://www.w3.org/2000/svg">
<g clip-path="url(#clip0_333_912)">
<g opacity="0.05">
<path d="M183.257 572.803C202.776 572.803 221.91 574.459 240.579 576.021C259 577.534 276.94 579.338 293.553 583.814C294.372 584.035 295.187 584.263 296 584.494V586.399C295.039 586.123 294.067 585.849 293.081 585.583C276.517 581.08 258.688 579.319 240.416 577.807L239.346 577.71H239.343C221.12 576.148 202.288 574.584 183.208 574.584H182.617L182.666 574.879C174.968 574.891 167.86 575.135 160.891 575.659H160.889C126.86 578.346 93.5497 587.695 59.292 599H52.7695C56.5363 597.739 60.2984 596.495 64.0566 595.277C96.3542 584.813 128.412 576.164 160.723 573.631L160.722 573.63C168.28 573.045 175.792 572.803 183.208 572.803H183.257Z" fill="#F5F6FF"/>
<path d="M200.688 536.639H201.188C222.269 536.639 242.917 538.54 263.148 540.395C274.294 541.412 285.3 542.504 296 544.204V545.927C285.291 544.213 274.23 543.108 262.996 542.083L261.971 541.985H261.969C242.232 540.18 221.834 538.322 201.188 538.322H201.091C192.578 538.322 184.696 538.616 176.961 539.252C128.703 543.358 82.1691 560.859 32.9805 579.302C22.1466 583.385 11.1222 587.529 0 591.541V589.63C24.4906 580.79 48.7049 571.265 72.8027 562.77C107.468 550.549 141.951 540.438 176.895 537.466L176.896 537.467C184.872 536.847 192.804 536.555 200.688 536.543V536.639Z" fill="#F5F6FF"/>
<path d="M219.719 500.231C242.14 500.263 264.182 502.439 285.769 504.522C289.193 504.853 292.605 505.191 296 505.549V507.358C292.544 506.992 289.068 506.646 285.575 506.31L284.646 506.212H284.643C263.506 504.174 241.618 502.084 219.578 502.062L219.529 501.914H219.17C210.021 501.914 201.503 502.257 193.229 502.99C141.302 507.683 91.5878 527.676 39.0771 548.803C26.2532 553.971 13.1795 559.23 0 564.271V562.471C27.4374 551.969 54.5437 540.482 81.5586 530.286C118.594 516.309 155.52 504.736 193.123 501.351L193.122 501.35C201.853 500.619 210.584 500.279 219.219 500.279H219.719V500.231Z" fill="#F5F6FF"/>
<path d="M237.553 464.018C257.299 464.029 276.785 465.671 296 467.552V469.35C276.774 467.466 257.088 465.799 237.297 465.799C227.512 465.799 218.407 466.19 209.546 467.021C157.47 471.971 107.728 492.087 55.6689 514.16L45.2246 518.597C30.3874 524.918 15.2547 531.367 0 537.482V535.536C30.3866 523.346 60.3918 509.823 90.3379 497.87C129.743 482.142 169.109 469.109 209.347 465.284L211.102 465.126C219.873 464.366 228.605 464.066 237.297 464.066H237.505L237.553 464.018Z" fill="#F5F6FF"/>
<path d="M254.294 427.951H255.229C268.933 427.951 282.527 428.719 296 429.832V431.486C282.72 430.382 269.295 429.606 255.827 429.587V429.537H255.327C244.906 429.537 235.214 429.977 225.766 430.906C170.204 436.406 117.494 458.746 62.2998 483.307L51.2266 488.244C34.4514 495.749 17.2959 503.42 0 510.624V508.707C33.3552 494.793 66.256 479.157 99.1289 465.394C140.903 447.903 182.697 433.408 225.57 429.169C235.203 428.226 244.84 427.831 254.39 427.807L254.294 427.951Z" fill="#F5F6FF"/>
<path d="M273.259 391.641C280.863 391.641 288.445 391.874 296 392.273V394.003C288.604 393.613 281.187 393.381 273.766 393.374L273.717 393.227H273.356C262.25 393.227 252.02 393.715 241.985 394.742C182.985 400.791 127.267 425.356 68.9727 452.404L57.2783 457.842C38.5293 466.538 19.3303 475.467 0 483.779V482.015C36.3226 466.376 72.1181 448.576 107.931 432.961C152.074 413.714 196.31 397.754 241.843 393.102L243.826 392.908C253.685 391.982 263.467 391.596 273.25 391.592L273.259 391.641Z" fill="#F5F6FF"/>
<path d="M291.483 355.428C292.99 355.428 294.496 355.438 296 355.455V357.138C294.559 357.121 293.119 357.111 291.68 357.111H291.581C279.742 357.111 268.828 357.649 258.157 358.773C191.604 365.763 126.294 397.238 63.2822 427.635C42.5674 437.621 21.3576 447.84 0 457.266V455.38C39.2949 437.998 77.978 417.997 116.719 400.503C163.232 379.499 209.897 362.078 258.066 356.986L258.065 356.985C269.259 355.824 280.359 355.336 291.46 355.33L291.483 355.428Z" fill="#F5F6FF"/>
<path d="M296 321C288.718 321.268 281.697 321.76 274.769 322.513C204.5 330.138 135.913 364.25 69.6768 397.184C46.9051 408.519 23.5311 420.138 0 430.748V428.85C42.2686 409.729 83.849 387.478 125.537 368.07C174.426 345.31 223.533 326.425 274.338 320.919C281.576 320.145 288.797 319.645 296 319.372V321Z" fill="#F5F6FF"/>
<path d="M296 286.067C294.224 286.229 292.457 286.403 290.697 286.593H290.695C221.38 294.291 153.846 327.071 88.4814 360.366L75.4375 367.025C50.7854 379.629 25.4592 392.566 0 404.288V402.383C45.2382 381.524 89.6918 356.997 134.312 335.655C185.559 311.144 237.095 290.798 290.562 284.854L292.894 284.606C293.929 284.501 294.965 284.402 296 284.307V286.067Z" fill="#F5F6FF"/>
<path d="M296 252.002C222.34 263.103 150.837 300.539 81.6875 336.769C54.9889 350.707 27.5698 365.069 0 377.971V375.965C48.2342 353.344 95.5813 326.49 143.148 303.181C193.305 278.602 243.768 257.93 296 250.159V252.002Z" fill="#F5F6FF"/>
<path d="M296 218.781C224.443 233.253 155.05 270.396 87.7422 306.414C59.1022 321.754 29.6273 337.509 0 351.562V349.627C51.2273 325.279 101.468 296.082 151.996 270.784C199.307 247.097 246.919 226.799 296 216.976V218.781Z" fill="#F5F6FF"/>
<path d="M296 186.395C231.844 202.372 169.496 234.99 108.796 268.012L93.9443 276.108C63.275 292.853 31.7241 310.071 0 325.307V323.298C54.2268 297.209 107.356 265.648 160.831 238.352C205.3 215.652 250.05 195.881 296 184.564V186.395Z" fill="#F5F6FF"/>
<path d="M296 154.785C234.165 172.741 174.024 204.825 115.36 237.319L99.9023 245.9C67.2859 263.976 33.7102 282.624 0 299.012V297C57.2286 269.153 113.244 235.205 169.666 205.896C211.283 184.277 253.156 165.164 296 152.813V154.785Z" fill="#F5F6FF"/>
<path d="M296 123.679C230.885 145.057 167.653 180.776 106.006 215.595C71.4351 235.13 35.7821 255.263 0 272.788V270.761C60.2031 241.193 119.093 204.829 178.47 173.481C217.229 153.019 256.223 134.68 296 121.707V123.679Z" fill="#F5F6FF"/>
<path d="M296 93.1885C233.099 116.019 171.941 151.069 112.209 185.289C75.6089 206.27 37.8804 227.915 0 246.621V244.523C63.2082 213.224 124.98 174.448 187.305 141.068C223.193 121.847 259.287 104.402 296 91.1621V93.1885Z" fill="#F5F6FF"/>
<path d="M296 63.0273C235.599 86.8412 176.814 120.991 119.291 154.397C80.4419 176.987 40.2946 200.307 0 220.276V218.371C66.2837 185.447 130.935 144.223 196.193 108.752C229.187 90.8188 262.351 74.3473 296 61.1328V63.0273Z" fill="#F5F6FF"/>
<path d="M296 33.3564C237.734 57.9584 180.941 91.3577 125.299 124.091C84.4701 148.119 42.3019 172.901 0 194.027V192.122C69.2693 157.474 136.787 113.812 204.991 76.29C235.105 59.7233 265.367 44.3481 296 31.4502V33.3564Z" fill="#F5F6FF"/>
<path d="M296 4.30371C239.925 29.4365 185.19 61.9958 131.502 93.9307C88.6614 119.405 44.39 145.705 0 168.017V165.984C72.2793 129.591 142.673 83.4575 213.824 43.8643C241.043 28.7181 268.381 14.5222 296 2.18066V4.30371Z" fill="#F5F6FF"/>
<path d="M246.996 0C209.901 19.9384 173.355 41.9198 137.266 63.625C92.5546 90.5172 46.3297 118.303 0 141.707V139.867C75.2765 101.724 148.552 53.0921 222.676 11.4141C229.557 7.5451 236.446 3.73605 243.345 0H246.996Z" fill="#F5F6FF"/>
<path d="M199.147 0C180.383 11.0927 161.747 22.411 143.225 33.6602C96.6577 61.9683 48.4969 91.192 0.242188 115.73L0.241211 115.731C0.161138 115.772 0.0801805 115.813 0 115.854V113.667C66.0157 80.0551 130.51 38.4513 195.318 0H199.147Z" fill="#F5F6FF"/>
<path d="M149.135 3.25586C101.199 32.6379 51.6208 63.0333 1.94922 88.5479C1.30333 88.8814 0.652628 89.2138 0 89.5488V87.5781C0.410774 87.3671 0.823216 87.1589 1.2334 86.9473L1.23438 86.9482C51.8087 60.9882 101.506 30.4178 151.116 0H154.446C152.675 1.08592 150.904 2.17092 149.135 3.25586Z" fill="#F5F6FF"/>
<path d="M111.524 0C76.0436 21.6398 39.9725 42.907 3.80469 61.6084C2.5489 62.261 1.28028 62.9165 0 63.5742V61.4531C0.999417 60.9389 1.99905 60.4258 2.99512 59.9082C38.3031 41.6276 73.1932 21.1423 107.926 0H111.524Z" fill="#F5F6FF"/>
<path d="M67.3076 0C46.7493 12.0488 26.0735 23.6711 5.36719 34.4736C3.60219 35.3982 1.81163 36.3259 0 37.2598V35.2881C1.5886 34.4697 3.17438 33.6482 4.75488 32.8213C24.5826 22.4753 44.2814 11.4477 63.8955 0H67.3076Z" fill="#F5F6FF"/>
<path d="M20.6865 0C16.2322 2.4151 11.7775 4.79966 7.32031 7.14453C4.92255 8.41002 2.48067 9.68383 0 10.9648V9.22949C2.17876 8.10519 4.35089 6.97251 6.51465 5.83203L6.51562 5.83301C10.1685 3.91141 13.8162 1.96534 17.4609 0H20.6865Z" fill="#F5F6FF"/>
</g>
</g>
<defs>
<clipPath id="clip0_333_912">
<rect width="296" height="599" fill="white"/>
</clipPath>
</defs>
</svg>
