<svg width="1038" height="1940" viewBox="0 0 1038 1940" fill="none" xmlns="http://www.w3.org/2000/svg">
<g opacity="0.15">
<path d="M368.683 1643.11C440.775 1643.11 512.844 1671.59 567.679 1696.44L570.95 1697.93C639.643 1729.25 708.145 1766.33 774.445 1802.2C860.303 1848.67 947.837 1896.05 1038 1932.01V1933.96C992.994 1916.04 948.585 1895.22 904.457 1872.94C791.786 1816.05 680.875 1749.61 566.695 1697.86C503.52 1669.23 435.251 1644.76 368.795 1644.76C345.184 1644.76 321.79 1647.84 298.951 1654.93C224.378 1678.08 170.105 1738.51 116.668 1800.91C79.5548 1844.25 42.8432 1888.53 0 1922.1V1919.63C39.1359 1888.58 73.2583 1848.62 106.587 1809.62C161.953 1744.82 219.104 1677.94 298.074 1653.42C320.082 1646.59 343.822 1643.11 368.683 1643.11Z" fill="white"/>
<path d="M371.755 1618.77C442.061 1618.77 512.398 1646.42 565.893 1670.52C634.061 1701.23 702.067 1737.84 767.856 1773.21C855.754 1820.5 945.46 1868.77 1038 1904.2V1906.28C989.567 1887.79 941.866 1865.71 894.494 1841.93C784.538 1786.72 676.267 1722.24 564.796 1672.03C503.184 1644.24 436.591 1620.52 371.755 1620.52C348.703 1620.52 325.923 1623.5 303.643 1630.4C230.857 1652.88 177.772 1711.54 125.5 1772.11C85.9366 1817.95 46.8386 1864.88 0 1898.25V1895.79C43.0974 1864.68 79.8436 1822 115.633 1780.4C169.826 1717.46 225.748 1652.53 302.82 1628.75C324.325 1622.12 347.508 1618.77 371.755 1618.77Z" fill="white"/>
<path d="M374.658 1594.71C443.178 1594.71 511.785 1621.52 563.939 1644.88C630.489 1674.7 696.875 1710.2 761.101 1744.54C851.094 1792.69 943.015 1841.86 1038 1876.58V1878.42C986.116 1859.52 935.124 1836.24 884.511 1810.98C778.939 1758.27 674.933 1696.85 567.991 1648.49L562.896 1646.2C502.793 1619.25 437.875 1596.22 374.715 1596.22C352.278 1596.22 330 1599.12 308.278 1605.79C237.253 1627.57 185.355 1684.45 134.256 1743.18C92.3451 1791.36 50.9714 1840.77 0 1873.35V1871.26C47.1384 1840.68 86.3865 1795.46 124.567 1751.5C177.118 1690.95 231.37 1628.48 305.695 1604.96L307.455 1604.42C328.401 1597.96 351.025 1594.71 374.658 1594.71Z" fill="white"/>
<path d="M377.396 1570.56C444.129 1570.56 511.005 1596.53 561.818 1619.19C626.748 1648.08 691.515 1682.51 754.121 1715.79C846.26 1764.76 940.478 1814.82 1038 1848.61V1850.49C982.51 1831.35 928.102 1806.88 874.123 1780.1C771.217 1729.04 669.796 1669.55 565.518 1622.69L560.55 1620.47C502.01 1594.35 438.768 1572.07 377.228 1572.07C356.033 1572.07 335.041 1574.7 314.509 1580.76L312.523 1581.36C243.286 1602.46 192.574 1657.57 142.641 1714.47C98.5661 1764.69 55.0974 1816.3 0 1847.46V1845.57C51.2414 1816.16 92.8854 1768.59 133.277 1722.47C185.069 1663.3 238.478 1602.32 311.866 1579.94C332.311 1573.72 354.321 1570.56 377.396 1570.56Z" fill="white"/>
<path d="M379.964 1546.36C444.911 1546.36 510.056 1571.5 559.529 1593.41L559.53 1593.41C622.841 1621.37 685.987 1654.73 747.029 1686.98C841.316 1736.77 937.874 1787.74 1038 1820.35V1822.11C978.98 1802.97 921.261 1777.41 864.027 1749.2C762.196 1699.01 661.828 1640.38 558.538 1594.73L558.537 1594.73C501.505 1569.46 439.995 1547.87 380.02 1547.87C358.756 1547.87 337.651 1550.58 316.991 1556.88C249.542 1577.31 200.018 1630.64 151.25 1685.7C105.037 1737.87 59.5019 1791.6 0 1820.74V1818.89C55.4144 1791.31 99.3732 1741.54 141.877 1693.43C192.439 1636.17 244.675 1577.1 316.165 1555.46C336.051 1549.43 357.504 1546.36 379.964 1546.36Z" fill="white"/>
<path d="M382.868 1522.26C446.085 1522.26 509.387 1546.55 557.576 1567.77C619.267 1594.85 680.795 1627.09 740.273 1658.27C836.619 1708.77 935.381 1760.55 1038 1791.74V1793.34C975.46 1774.43 914.461 1747.86 854.002 1718.27C754.865 1669.76 657.108 1613.09 556.526 1568.95L556.527 1568.95C501.059 1544.56 441.168 1523.68 382.868 1523.68C362.162 1523.68 341.618 1526.33 321.573 1532.35C255.912 1552.11 207.573 1603.67 159.978 1656.89C112.344 1710.16 65.4539 1765.1 2.63965 1791.95C1.76198 1792.32 0.881806 1792.69 0 1793.05V1791.35C0.528032 1791.13 1.05535 1790.9 1.58105 1790.68C60.7311 1765.41 106.598 1714.03 150.811 1664.44C199.814 1609.52 250.356 1552.86 319.171 1531.53L320.8 1531.03C340.183 1525.18 361.021 1522.26 382.868 1522.26Z" fill="white"/>
<path d="M385.493 1497.78C446.923 1497.78 508.495 1521.24 555.344 1541.71C615.415 1567.86 675.267 1599.03 733.238 1629.14C831.719 1680.36 932.805 1732.93 1038 1762.38V1764.23C971.89 1745.83 907.608 1718.31 843.927 1687.37C749.011 1641.26 655.361 1587.53 559.101 1545.22L554.515 1543.22C500.554 1519.66 442.396 1499.48 385.716 1499.48C365.569 1499.48 345.638 1502.04 326.097 1507.88C262.223 1526.95 215.071 1576.74 168.642 1628.13C122.174 1679.56 76.4296 1732.6 15.3184 1758.49C10.2802 1760.63 5.17013 1762.56 0 1764.3V1762.37C4.7661 1760.73 9.44601 1758.94 14.0342 1756.99C71.5643 1732.6 116.258 1682.99 159.409 1635.13C207.626 1581.63 257.348 1526.52 325.099 1506.27C343.925 1500.66 364.261 1497.78 385.493 1497.78Z" fill="white"/>
<path d="M388.564 1473.49C448.208 1473.49 508.049 1496.11 553.558 1515.84L553.559 1515.84C612.01 1541.05 670.242 1571.15 726.649 1600.24C827.114 1652.06 930.346 1705.34 1038 1732.75V1734.64C968.285 1717.04 900.725 1688.64 833.832 1656.4C740.118 1611.24 647.64 1558.48 552.503 1517.39L552.502 1517.39C500.106 1494.67 443.623 1475.23 388.564 1475.23C369.032 1475.23 349.605 1477.7 330.678 1483.3C268.592 1501.68 222.627 1549.69 177.362 1599.25C132.06 1648.85 87.4614 1700 28.0527 1724.98C18.9176 1728.83 9.54473 1731.99 0 1734.5V1732.7C9.32641 1730.22 18.3498 1727.14 27.0439 1723.48L28.3516 1722.93C83.6344 1699.23 126.859 1651.78 168.565 1606C215.553 1554.41 264.048 1501.2 329.9 1481.7C348.225 1476.27 367.946 1473.49 388.564 1473.49Z" fill="white"/>
<path d="M391.301 1449.33C449.159 1449.34 507.269 1471.12 551.437 1490.15C608.213 1514.48 664.883 1543.47 719.671 1571.48C822.24 1623.95 927.751 1677.91 1038 1702.87V1704.64C964.672 1688.18 893.862 1659 823.778 1625.5C732.773 1582 642.92 1531.19 550.491 1491.61C499.658 1469.73 444.851 1451.03 391.412 1451.03C372.439 1451.03 353.626 1453.41 335.202 1458.83C274.904 1476.53 230.141 1522.77 186.049 1570.49C141.92 1618.26 98.4646 1667.51 40.7305 1691.57C27.5915 1697.05 13.9443 1701.07 0 1703.78V1702.04C13.8809 1699.31 27.1361 1695.31 39.6641 1690.07C93.9539 1667.45 136.357 1621.38 177.331 1576.96C223.146 1527.28 270.357 1476.03 334.367 1457.23C352.132 1451.98 371.296 1449.33 391.301 1449.33Z" fill="white"/>
<path d="M394.205 1425C450.277 1425 506.656 1445.95 549.483 1464.23C604.641 1487.63 659.691 1515.5 712.915 1542.49C817.493 1595.48 925.234 1650.08 1038 1672.23V1674.13C961.001 1659.16 886.944 1629.28 813.683 1594.58C725.385 1552.76 638.172 1503.92 548.479 1465.87C499.154 1444.83 446.023 1426.84 394.261 1426.83C375.846 1426.83 357.593 1429.12 339.783 1434.3C281.274 1451.33 237.696 1495.79 194.77 1541.67C151.806 1587.59 109.497 1634.94 53.4658 1658.06L53.4648 1658.06C36.366 1665.16 18.3744 1669.71 0 1672.07V1670.25C18.5543 1667.83 36.0798 1663.23 52.3936 1656.47C105.063 1634.74 146.352 1590.49 186.209 1547.79C230.795 1499.97 276.832 1450.71 338.945 1432.61C356.208 1427.55 374.759 1425 394.205 1425Z" fill="white"/>
<path d="M397.053 1401.08C451.394 1401.08 505.931 1421.19 547.475 1438.73L547.476 1438.73C601.013 1461.2 654.443 1488 706.104 1513.92C812.663 1567.39 922.674 1622.6 1038 1641.43V1643.02C957.293 1629.97 880.007 1599.47 803.586 1563.63C717.997 1523.48 633.422 1476.58 546.467 1440.04L546.468 1440.04C498.706 1419.84 447.251 1402.59 397.108 1402.59C379.308 1402.59 361.614 1404.78 344.308 1409.78C287.586 1426.13 245.196 1468.82 203.442 1512.87C161.652 1556.96 120.501 1602.41 66.2002 1624.6C45.1802 1633.23 22.7958 1637.94 0 1639.41V1637.89C23.3229 1636.37 45.1548 1631.48 65.127 1623.29C116.176 1602.44 156.345 1559.96 195.086 1518.98C238.499 1473.08 283.252 1425.77 343.523 1408.36C360.229 1403.54 378.22 1401.08 397.053 1401.08Z" fill="white"/>
<path d="M400.124 1376.79C452.679 1376.79 505.487 1396.06 545.689 1412.91C597.608 1434.49 649.419 1460.17 699.516 1485.02C808.011 1538.86 920.218 1594.54 1038 1609.67V1611.32C953.549 1600.64 873.05 1569.63 793.47 1532.69C710.581 1494.21 628.618 1449.26 544.343 1414.26L544.344 1414.26C498.09 1394.9 448.367 1378.34 399.789 1378.34C382.548 1378.34 365.468 1380.44 348.72 1385.25C293.759 1400.93 252.556 1441.83 211.975 1484.05C171.357 1526.3 131.365 1569.85 78.7666 1591.14C53.914 1601.27 27.0796 1605.73 0 1605.81V1604.25C28.2179 1604.2 54.5043 1599.36 78.0264 1589.74C127.455 1569.73 166.451 1529.07 204.131 1489.81L212.061 1481.55C251.821 1440.25 293.544 1399.37 348.27 1383.79C364.473 1379.15 381.906 1376.79 400.124 1376.79Z" fill="white"/>
<path d="M402.693 1352.63C453.463 1352.63 504.539 1371.07 543.401 1387.17C593.7 1407.83 643.892 1432.44 692.425 1456.26C800.693 1509.4 912.746 1564.36 1030.41 1576.65C1032.93 1576.92 1035.46 1577.16 1038 1577.39V1578.93C1035.35 1578.7 1032.71 1578.45 1030.06 1578.17C944.728 1569.25 863.587 1538.58 783.373 1501.77C703.192 1464.97 623.869 1421.99 542.33 1388.53C497.64 1370 449.538 1354.19 402.638 1354.19C385.955 1354.19 369.434 1356.2 353.245 1360.77C300.073 1375.78 260.056 1414.91 220.641 1455.29C181.189 1495.7 142.342 1537.35 91.4463 1557.68C67.1653 1567.43 41.0368 1571.75 14.6758 1571.75C9.78264 1571.75 4.88907 1571.6 0 1571.31V1569.75C4.97474 1570.04 9.90988 1570.19 14.7871 1570.19C42.2074 1570.19 67.681 1565.52 90.5312 1556.33C138.34 1537.21 176.221 1498.31 212.729 1460.77C253.739 1418.64 296.035 1375.24 352.567 1359.32L352.568 1359.32C368.212 1354.86 385.088 1352.63 402.693 1352.63Z" fill="white"/>
<path d="M405.541 1328.34C454.524 1328.34 503.871 1345.94 541.393 1361.34L541.395 1361.35C590.074 1381.07 638.646 1404.61 685.559 1427.37L705.21 1436.88C803.686 1484.43 905.431 1531.21 1011.81 1542.22C1020.39 1543.1 1029.08 1543.76 1038 1544.22V1545.76C1029.16 1545.31 1020.32 1544.64 1011.47 1543.74C929.174 1535.23 850.825 1505.96 773.319 1470.82C695.847 1435.69 619.149 1394.65 540.318 1362.7L540.317 1362.7C497.136 1345.01 450.765 1329.9 405.485 1329.9C389.418 1329.9 373.455 1331.81 357.825 1336.2C306.442 1350.51 267.612 1387.86 229.362 1426.4C191.077 1464.98 153.374 1504.75 104.181 1524.18L104.18 1524.18C80.7364 1533.5 55.5575 1537.59 30.0889 1537.59C20.0532 1537.59 9.9857 1536.95 0 1535.75V1534.16C10.1891 1535.39 20.3092 1536.03 30.1445 1536.03C56.5588 1536.03 81.1945 1531.6 103.263 1522.83C149.451 1504.59 186.16 1467.46 221.605 1431.64C261.444 1391.42 302.455 1349.97 357.146 1334.75L358.563 1334.36C373.253 1330.39 389.082 1328.34 405.541 1328.34Z" fill="white"/>
<path d="M408.39 1304.05C455.364 1304.05 503.091 1320.82 539.497 1335.47C586.055 1354.17 632.504 1376.41 677.463 1397.91C778.806 1446.35 883.709 1496.51 993.381 1507.73C1007.73 1509.2 1022.43 1510.02 1038 1510.26V1511.92C1024.13 1511.7 1010.24 1510.99 996.309 1509.68L992.868 1509.35C913.591 1501.23 837.977 1473.43 763.159 1440C688.375 1406.59 614.315 1367.52 538.307 1336.96C496.578 1320.21 451.882 1305.75 408.222 1305.75C392.769 1305.75 377.422 1307.57 362.407 1311.72C312.812 1325.35 275.17 1360.93 238.092 1397.65C200.979 1434.39 164.435 1472.26 116.972 1490.76C94.3652 1499.62 70.0784 1503.53 45.5586 1503.53C32.519 1503.53 19.4208 1502.41 6.48828 1500.37C4.31915 1500.03 2.15626 1499.66 0 1499.27V1497.54C2.36291 1497.98 4.73475 1498.38 7.11523 1498.75C20.2061 1500.8 33.1882 1501.87 45.7256 1501.87C71.191 1501.87 94.8774 1497.63 116.163 1489.27C160.73 1471.92 196.32 1436.56 230.649 1402.47L237.905 1395.28C274.288 1359.31 312.393 1323.75 361.835 1310.13C376.363 1306.09 392.068 1304.05 408.39 1304.05Z" fill="white"/>
<path d="M411.07 1279.85C456.259 1279.85 502.256 1295.78 537.321 1309.69C582.204 1327.46 627.034 1348.58 670.373 1369.01L688.725 1377.65C780.686 1420.84 875.729 1463.34 974.618 1473.3C990.975 1474.93 1007.7 1475.73 1025.78 1475.76L1025.72 1475.81H1027.11C1030.74 1475.81 1034.37 1475.78 1038 1475.72V1477.42C1034.54 1477.47 1031.07 1477.51 1027.61 1477.51V1477.47H1027.11C1009.53 1477.47 991.899 1476.72 974.271 1474.96C898.008 1467.26 825.172 1440.86 753.062 1409.1C680.986 1377.35 609.565 1340.22 536.293 1311.18C496.128 1295.26 453.053 1281.55 411.015 1281.55C396.121 1281.55 381.332 1283.28 366.875 1287.25C319.07 1300.2 282.614 1334 246.702 1368.87C210.756 1403.78 175.357 1439.76 129.595 1457.35C107.826 1465.79 84.432 1469.46 60.8604 1469.46C49.1069 1469.46 37.3017 1468.52 25.6289 1466.84L23.2959 1466.49C15.4388 1465.29 7.66393 1463.7 0 1461.75V1459.83C7.82041 1461.86 15.7682 1463.5 23.8135 1464.73L26.1729 1465.09C37.9614 1466.81 49.6379 1467.67 60.9717 1467.67C85.4299 1467.67 108.221 1463.66 128.724 1455.72C171.67 1439.25 206.145 1405.67 239.357 1373.34C276.501 1337.21 314.746 1299.97 365.054 1285.93L366.245 1285.61L366.246 1285.6C380.272 1281.76 395.362 1279.85 411.07 1279.85Z" fill="white"/>
<path d="M413.862 1255.65C457.209 1255.65 501.475 1270.75 535.257 1283.91C578.465 1300.8 621.62 1320.8 663.396 1340.12L681.064 1348.3C769.603 1389.21 861.061 1429.43 956.021 1438.86L959.046 1439.15C974.154 1440.54 989.661 1441.23 1006.43 1441.24L1006.44 1441.28C1017 1441.28 1027.52 1441.01 1038 1440.53V1442.13C1027.48 1442.61 1016.95 1442.89 1006.39 1442.89H1005.01L1005.06 1442.93C988.615 1442.9 972.169 1442.19 955.673 1440.57L955.674 1440.57C882.454 1433.27 812.409 1408.27 743.001 1378.19C673.626 1348.12 604.816 1312.95 534.225 1285.4C495.568 1270.32 454.225 1257.31 413.807 1257.31C399.528 1257.31 385.299 1258.94 371.401 1262.67C325.385 1274.95 290.116 1306.98 255.369 1340.02C220.589 1373.08 186.334 1407.16 142.274 1423.8L142.273 1423.8C121.341 1431.78 98.8958 1435.3 76.2178 1435.3C64.1821 1435.3 52.0891 1434.33 40.1064 1432.47H40.1045C26.4289 1430.41 13.0053 1427.17 0 1422.83V1421.05C13.0468 1425.43 26.6122 1428.71 40.5674 1430.81L42.833 1431.15C54.1503 1432.79 65.3555 1433.61 76.2178 1433.61C99.7272 1433.61 121.624 1429.78 141.344 1422.31C182.67 1406.73 215.97 1374.91 248.121 1344.31C284.327 1309.76 321.711 1274.21 370.711 1261.13C384.18 1257.51 398.713 1255.65 413.862 1255.65Z" fill="white"/>
<path d="M416.822 1231.5C458.384 1231.5 500.92 1245.76 533.361 1258.18L537.26 1259.68C577.541 1275.32 617.684 1293.59 656.585 1311.31L673.562 1319.03C758.63 1357.64 846.504 1395.66 937.537 1404.57C952.967 1406.06 968.845 1406.8 986.004 1406.8L986.008 1406.75C1003.45 1406.75 1020.8 1405.98 1038 1404.78V1406.52C1020.79 1407.72 1003.5 1408.49 986.175 1408.5L986.119 1408.36H985.781C969.599 1408.36 953.308 1407.71 937.076 1406.13C866.87 1399.25 799.603 1375.64 732.903 1347.24C666.236 1318.85 600.066 1285.63 532.211 1259.62L532.21 1259.62C495.117 1245.38 455.451 1233.11 416.654 1233.11C402.935 1233.11 389.322 1234.65 375.983 1238.2C331.755 1249.8 297.675 1280.04 264.093 1311.24C230.478 1342.47 197.368 1374.65 155.01 1390.38C134.914 1397.9 113.361 1401.24 91.6318 1401.24C80.0987 1401.24 68.507 1400.31 57.0254 1398.59C37.3064 1395.67 18.1185 1390.25 0 1382.55V1380.69C18.0704 1388.44 37.3923 1393.95 57.5479 1396.93C69.1309 1398.7 80.6044 1399.59 91.7432 1399.59C114.245 1399.59 135.247 1396 154.185 1388.9C193.889 1374.15 226.073 1344.16 257.108 1315.27C292.142 1282.63 328.241 1248.99 375.399 1236.65H375.401C388.368 1233.22 402.286 1231.5 416.822 1231.5Z" fill="white"/>
<path d="M419.503 1207.26C459.279 1207.26 500.03 1220.68 531.187 1232.4C571.1 1247.43 610.961 1265.2 649.496 1282.42C736.209 1321.13 825.918 1361.18 918.773 1370.13C933.589 1371.53 948.741 1372.23 965.174 1372.23C989.722 1372.22 1014.06 1370.66 1038 1368.54V1370.16C1013.85 1372.3 989.531 1373.83 965.086 1373.83C950.554 1373.83 935.976 1373.3 921.396 1372.01L918.479 1371.74C851.287 1365.25 786.798 1343.05 722.807 1316.32C658.847 1289.6 595.317 1258.34 530.198 1233.84C494.613 1220.43 456.623 1208.86 419.447 1208.86C406.287 1208.86 393.232 1210.31 380.453 1213.62C338.015 1224.53 305.107 1252.96 272.684 1282.32C240.735 1311.25 209.261 1341.06 169.531 1356.17L167.634 1356.88C148.319 1363.93 127.659 1367.04 106.821 1367.04C95.7908 1367.04 84.757 1366.16 73.7764 1364.58L73.7773 1364.58C47.8083 1360.76 22.7725 1352.55 0 1340.46V1338.5C22.5891 1350.68 47.7068 1359.05 74.3018 1362.96L76.3682 1363.26C86.6973 1364.69 96.963 1365.38 106.934 1365.38C128.486 1365.38 148.649 1362.03 166.804 1355.4C204.775 1341.49 235.786 1313.31 265.704 1286.19C299.564 1255.46 334.491 1223.77 379.81 1212.13H379.812C392.22 1208.88 405.58 1207.26 419.503 1207.26Z" fill="white"/>
<path d="M422.351 1183.01C460.342 1183.01 499.362 1195.59 529.179 1206.57C567.417 1220.67 605.602 1237.37 642.575 1253.47C725.603 1289.76 811.568 1327.31 900.233 1335.69C914.379 1337 928.86 1337.65 944.566 1337.65C976.272 1337.64 1007.52 1334.99 1038 1331.95V1333.53C1007.13 1336.6 975.955 1339.21 944.511 1339.21H944.228L944.172 1339.3C929.425 1339.29 914.679 1338.69 899.824 1337.35L899.825 1337.35C835.676 1331.28 773.978 1310.48 712.695 1285.43C651.444 1260.39 590.539 1231.07 528.129 1208.06C494.108 1195.53 457.794 1184.66 422.239 1184.66C409.695 1184.66 397.199 1186.02 384.979 1189.15C344.303 1199.37 312.582 1226.03 281.338 1253.54C250.551 1280.65 220.231 1308.58 182.187 1322.75L180.369 1323.42C161.891 1330.05 142.124 1332.93 122.234 1332.93C111.705 1332.93 101.174 1332.14 90.6982 1330.6C58.0024 1325.9 26.8175 1314.09 0 1296.25V1294.18C26.4497 1312.12 57.6034 1324.22 91.168 1329.04C101.691 1330.57 112.215 1331.32 122.291 1331.32C142.893 1331.32 162.162 1328.15 179.534 1321.94C215.884 1308.92 245.776 1282.51 274.578 1257.06C307.265 1228.2 340.964 1198.5 384.387 1187.56L385.501 1187.28C397.039 1184.45 409.457 1183.01 422.351 1183.01Z" fill="white"/>
<path d="M424.976 1158.81C461.293 1158.81 498.528 1170.56 526.948 1180.79C563.512 1193.96 600.078 1209.54 635.431 1224.62C714.773 1258.45 796.94 1293.48 881.415 1301.3C894.89 1302.51 908.756 1303.12 923.681 1303.12H923.792C960.399 1303.12 996.276 1299.49 1030.95 1296C1033.32 1295.77 1035.67 1295.54 1038 1295.3V1296.94C1035.77 1297.16 1033.54 1297.39 1031.3 1297.61C995.949 1301.19 960.063 1304.73 923.848 1304.73H923.666L923.61 1304.77C909.554 1304.77 895.389 1304.21 881.227 1302.91C820.092 1297.24 761.171 1277.83 702.597 1254.46C644.053 1231.1 585.788 1203.75 526.114 1182.27C493.601 1170.59 458.964 1160.47 425.031 1160.47C413.42 1160.47 401.908 1161.65 390.599 1164.36L389.505 1164.62C350.646 1174.24 320.114 1199.12 290.027 1224.79C259.911 1250.48 230.248 1276.94 193.05 1289.96C175.408 1296.12 156.533 1298.86 137.593 1298.86C127.565 1298.86 117.48 1298.12 107.562 1296.73C67.5141 1291.09 29.755 1274.62 0 1249.34V1246.89C29.1554 1272.25 66.6934 1289.23 107.869 1295.02L109.747 1295.27C119.137 1296.51 128.508 1297.16 137.537 1297.16C157.188 1297.16 175.507 1294.22 192.096 1288.43L193.722 1287.85C227.779 1275.48 256.088 1251.29 283.396 1227.94C314.854 1201.03 347.269 1173.28 388.796 1163.03C400.147 1160.25 412.281 1158.81 424.976 1158.81Z" fill="white"/>
<path d="M428.159 1134.75C462.637 1134.75 498.142 1145.62 525.277 1155.16L528.554 1156.31C562.401 1168.29 596.166 1182.29 628.845 1195.86L628.846 1195.86C704.558 1227.27 782.926 1259.79 863.21 1267.05C876.072 1268.22 889.211 1268.73 903.464 1268.73L903.497 1268.59C938.218 1268.57 973.753 1265.09 1005.1 1261.98C1016.43 1260.9 1027.38 1259.79 1038 1258.45V1260.12C1027.24 1261.47 1016.36 1262.55 1005.45 1263.59H1005.45C971.879 1266.9 937.725 1270.2 903.296 1270.2H903.196L903.104 1270.23L903.084 1270.24C889.671 1270.24 876.205 1269.73 862.686 1268.52C804.592 1263.27 748.449 1245.26 692.568 1223.56C636.718 1201.86 581.066 1176.46 524.101 1156.49C493.096 1145.64 460.191 1136.27 427.88 1136.27C416.864 1136.27 405.896 1137.36 395.129 1139.85L394.088 1140.1C357.02 1149.04 327.674 1172.14 298.753 1195.96C269.803 1219.81 241.284 1244.38 205.786 1256.5C188.925 1262.24 171.054 1264.75 153.006 1264.75C143.481 1264.75 133.898 1264.06 124.481 1262.76C75.8704 1256.08 30.6504 1233.18 0 1197.78V1194.62C29.7341 1230.31 74.615 1254.35 125.127 1261.28C134.643 1262.59 144.159 1263.24 153.285 1263.24C171.929 1263.24 189.408 1260.53 205.215 1255.12C238.377 1243.82 265.98 1221 292.604 1199C322.888 1174 354.075 1148.25 393.706 1138.7C404.499 1136.1 416.078 1134.75 428.159 1134.75Z" fill="white"/>
<path d="M430.616 1110.42C463.142 1110.42 495.466 1119.93 522.88 1129.24L525.999 1130.3C558.224 1141.37 590.37 1154.29 621.534 1166.83L635.069 1172.27C702.895 1199.47 772.938 1226.23 844.224 1232.48L846.513 1232.67C857.977 1233.61 869.728 1234.06 882.41 1234.06H882.521C915.61 1234.06 949.365 1230.8 979.183 1227.96C1000 1226.04 1019.45 1224.03 1038 1220.53V1222.09C1018.89 1225.68 999.142 1227.68 979.201 1229.53H979.199C947.365 1232.6 915.052 1235.62 882.298 1235.62L882.279 1235.71C869.584 1235.71 856.89 1235.24 844.088 1234.13C789.008 1229.28 735.656 1212.66 682.49 1192.63C629.354 1172.61 576.341 1149.16 522.085 1130.71C492.644 1120.7 461.361 1112.02 430.728 1112.02C420.254 1112.02 409.88 1113.03 399.608 1115.34L398.614 1115.57C363.337 1123.84 335.18 1145.16 307.424 1167.15C279.64 1189.16 252.265 1211.83 218.469 1222.99C202.443 1228.27 185.464 1230.59 168.308 1230.59C159.285 1230.59 150.204 1229.94 141.233 1228.74C89.7447 1221.86 42.1247 1196.52 12.7861 1157.27C7.74187 1150.52 3.55478 1143.58 0 1136.6V1132.15C3.90579 1140.37 8.64561 1148.57 14.6104 1156.56L15.2773 1157.45C43.6808 1194.92 89.6233 1220.32 141.547 1227.22L143.246 1227.44C151.734 1228.5 160.115 1229.04 168.252 1229.04C185.946 1229.04 202.53 1226.52 217.553 1221.56C249.093 1211.15 275.576 1190.11 301.085 1169.78C330.14 1146.69 360.101 1122.89 397.894 1114.03C408.128 1111.62 419.147 1110.42 430.616 1110.42Z" fill="white"/>
<path d="M0 1042.76C2.64668 1049.17 4.93291 1056.5 7.44043 1064.55L7.44141 1064.55C13.7497 1084.65 20.8643 1107.54 37.459 1128.61C64.7477 1163.35 108.88 1186.95 158.525 1193.34L160.13 1193.54C168.146 1194.53 176.056 1195.02 183.722 1195.02C200.408 1195.02 216.152 1192.73 230.337 1188.15C260.254 1178.58 285.564 1159.31 310.012 1140.75L310.013 1140.75C337.894 1119.56 366.627 1097.72 402.524 1089.6C412.259 1087.42 422.665 1086.31 433.521 1086.31C464.262 1086.31 494.913 1095.04 520.931 1103.55C552.525 1113.92 584.121 1126.2 614.671 1138.02C686.197 1165.8 753.838 1192.03 825.739 1198.18C837.203 1199.16 848.89 1199.62 861.579 1199.62H861.919L861.975 1199.49C888.662 1199.47 915.302 1197.34 941.288 1195L952.431 1193.99L952.44 1193.99L953.273 1193.9C983.928 1191.11 1011.39 1188.13 1037.08 1180.34C1037.39 1180.25 1037.69 1180.15 1038 1180.05V1181.75C1037.89 1181.78 1037.79 1181.81 1037.68 1181.85C1012.76 1189.42 985.97 1192.47 958.786 1195.01L953.345 1195.51C923.184 1198.25 892.491 1201.09 861.468 1201.09L861.461 1201.14C850.273 1201.13 839.088 1200.77 827.812 1199.88L825.545 1199.7C773.479 1195.26 722.904 1180.04 672.446 1161.68C622.018 1143.34 571.646 1121.84 520.126 1104.93C492.193 1095.76 462.643 1087.82 433.576 1087.82C423.381 1087.82 413.179 1088.8 403.198 1091.05C369.712 1098.64 342.756 1118.18 316.172 1138.33C289.562 1158.5 263.33 1179.27 231.206 1189.53C216.018 1194.4 199.93 1196.48 183.722 1196.48C175.201 1196.48 166.621 1195.88 158.151 1194.81C109.282 1188.5 63.8958 1165.33 35.5645 1129.29C22.1031 1112.17 14.7252 1093.65 9.12598 1076.73C7.7262 1072.5 6.43823 1068.37 5.19336 1064.39C3.94901 1060.41 2.74741 1056.57 1.52246 1052.93C1.02118 1051.44 0.514573 1049.98 0 1048.56V1042.76Z" fill="white"/>
<path d="M0 992.972C8.87269 1000.71 15.2228 1008.54 18.333 1013.35C23.319 1021.01 26.7629 1030.91 30.79 1042.46C37.1551 1060.75 44.439 1081.49 60.252 1100.51C86.5374 1132.08 128.546 1153.49 175.506 1159.32H175.508C183.567 1160.3 191.518 1160.81 199.246 1160.81C214.983 1160.81 229.777 1158.71 243.232 1154.6C271.527 1145.92 295.718 1128.41 319.05 1111.53C345.701 1092.26 373.208 1072.41 407.212 1064.99C416.389 1062.99 426.238 1061.97 436.425 1061.97C465.382 1061.97 494.36 1069.91 518.926 1077.63L521.736 1078.52C550.77 1087.77 579.726 1098.58 607.752 1109.04C675.48 1134.25 739.49 1158.11 807.2 1163.7C817.994 1164.58 829.066 1165 840.973 1165H841.473V1164.96C870.202 1164.93 898.758 1162.38 926.404 1159.97H926.409L927.354 1159.88C956.222 1157.32 982.126 1154.67 1006.42 1147.58L1008.42 1146.99C1017.57 1144.23 1027.94 1140.44 1038 1135.31V1137.13C1028.75 1141.73 1018.71 1145.53 1008.36 1148.62L1007.09 1148.99C982.009 1156.28 954.97 1158.98 927.49 1161.4C899.117 1163.91 870.209 1166.47 840.86 1166.47H839.82L839.93 1166.61C829.001 1166.58 817.973 1166.21 806.947 1165.31C757.922 1161.26 710.137 1147.44 662.388 1130.76C614.666 1114.09 566.921 1094.55 518.109 1079.14C491.741 1070.81 463.813 1063.58 436.425 1063.58C426.789 1063.58 417.202 1064.47 407.78 1066.52C376.085 1073.41 350.319 1091.18 324.907 1109.5C299.47 1127.85 274.397 1146.74 244 1156.07C229.646 1160.47 214.45 1162.42 199.19 1162.42C191.172 1162.42 183.094 1161.86 175.126 1160.89L175.125 1160.89C128.875 1155.13 85.7763 1134.19 58.3965 1101.31C45.4391 1085.77 38.1051 1068.89 32.4297 1053.42C29.6045 1045.73 27.1576 1038.28 24.6641 1031.63C22.16 1024.96 19.5658 1018.96 16.3809 1014.01C13.0224 1008.81 7.37823 1002.03 0 995.387V992.972Z" fill="white"/>
<path d="M0 960.047C4.72214 962.2 9.2169 964.718 13.4189 967.453C25.8711 975.558 35.7223 985.544 41.2959 993.492C46.2811 1000.6 49.8904 1009.71 54.085 1020.33C60.5609 1036.75 67.9039 1055.45 82.9932 1072.37C108.275 1100.72 148.157 1119.99 192.374 1125.26C199.931 1126.14 207.435 1126.61 214.66 1126.61C229.445 1126.61 243.343 1124.74 256.016 1121.01C282.687 1113.21 305.758 1097.48 327.974 1082.31C353.452 1064.95 379.732 1047.05 411.842 1040.37C420.46 1038.56 429.697 1037.68 439.328 1037.68C466.503 1037.68 493.808 1044.78 516.977 1051.81C545.277 1060.32 573.524 1070.37 600.891 1080.09C664.766 1102.75 725.199 1124.23 788.661 1129.26C798.784 1130.05 809.185 1130.43 820.365 1130.43C847.475 1130.43 874.414 1128.14 900.49 1125.96H900.494L901.494 1125.86C928.577 1123.58 952.859 1121.16 975.862 1114.77L977.208 1114.39C1005 1106.47 1026.01 1094.58 1038 1079.83V1082.92C1023.88 1098.87 1001.11 1109.59 976.601 1116.37C953.029 1122.92 927.607 1125.33 901.746 1127.52C875.162 1129.75 848.103 1132.07 820.603 1132.08L820.547 1132.03H820.365C809.765 1132.03 799.111 1131.71 788.404 1130.87C742.392 1127.22 697.384 1114.79 652.343 1099.79C607.328 1084.8 562.224 1067.23 516.149 1053.36C491.289 1045.87 465.094 1039.38 439.272 1039.38C430.196 1039.38 421.226 1040.17 412.363 1042.04C382.433 1048.25 357.857 1064.24 333.617 1080.73C309.733 1096.97 286.184 1113.7 258.08 1122.25L256.738 1122.65C243.222 1126.64 228.918 1128.36 214.604 1128.36C207.086 1128.36 199.51 1127.89 191.989 1127.01C148.357 1121.81 107.544 1103.05 81.1143 1073.42L81.1133 1073.43C68.688 1059.48 61.3991 1044.24 55.6406 1030.23C52.7718 1023.24 50.2558 1016.49 47.7002 1010.43C45.1362 1004.36 42.4944 998.884 39.3223 994.36C34.4276 987.399 25.1821 977.653 13.1191 969.534C9.05122 966.796 4.65809 964.242 0 962.04V960.047Z" fill="white"/>
<path d="M1038 848.071C1034.29 852.185 1031.02 856.176 1028.37 859.966C1014.19 880.361 1014.6 904.261 1015.05 924.901C1015.27 936.032 1017.07 946.944 1019.07 957.675C1021.08 968.418 1023.29 978.965 1024.36 989.423C1026.5 1010.3 1024.1 1030.75 1006.4 1051.33C993.042 1066.85 970.377 1077.05 945.891 1083.51C923.825 1089.32 900.076 1091.5 875.78 1093.46C851.085 1095.44 825.863 1097.52 800.202 1097.55V1097.5H799.702C789.829 1097.5 779.845 1097.18 769.861 1096.48C726.862 1093.25 684.644 1082.21 642.311 1068.88C600.003 1055.56 557.525 1039.94 514.131 1027.58L514.132 1027.58C490.835 1020.92 466.263 1015.13 442.12 1015.13C433.66 1015.13 425.195 1015.84 416.894 1017.47C388.756 1023.01 365.368 1037.21 342.293 1051.87C319.196 1066.53 296.422 1081.63 269.423 1089.1C256.741 1092.62 243.383 1094.15 229.962 1094.15C222.889 1094.15 215.871 1093.73 208.852 1092.95C167.838 1088.35 129.31 1071.73 103.831 1045.3C91.9375 1032.96 84.6912 1019.37 78.8496 1006.81C75.9384 1000.55 73.3499 994.482 70.7334 989.019C68.1092 983.539 65.4209 978.586 62.2617 974.473C57.3704 968.125 48.6172 959.302 37.3936 951.9C26.7757 944.899 13.9169 939.149 0 937.993V936.421C14.442 937.574 27.6697 943.387 38.6035 950.555C50.1074 958.096 59.0447 967.12 64.1504 973.732C69.1886 980.237 72.9062 988.554 77.2695 998.25L78.5166 1001.01C84.816 1014.94 92.2088 1030.48 105.623 1044.42C129.844 1069.6 167.601 1086.72 209.187 1091.38L210.509 1091.52C217.114 1092.22 223.66 1092.59 229.962 1092.59C243.796 1092.59 256.797 1090.91 268.684 1087.64L268.686 1087.64C293.732 1080.68 315.685 1066.73 336.84 1053.29L341.406 1050.38C364.29 1035.88 388.032 1021.55 416.36 1015.99C424.425 1014.41 433.104 1013.58 442.12 1013.58C467.511 1013.58 493.088 1019.89 514.861 1026.12C541.487 1033.7 568.116 1042.63 593.862 1051.29L605.08 1055.05C660.995 1073.76 714.393 1090.77 770.011 1094.96L771.786 1095.09C780.682 1095.7 789.846 1095.99 799.646 1095.99H799.984L800.04 1095.85C825.247 1095.83 850.282 1093.84 874.464 1091.89L874.468 1091.89L875.528 1091.8C899.873 1089.85 923.536 1087.61 945.14 1081.97C972.773 1074.74 992.767 1064.14 1004.53 1050.44C1029.05 1021.9 1023.63 993.467 1017.94 963.654C1015.53 951.084 1013.09 938.14 1012.81 924.973C1012.42 903.823 1011.93 880.024 1026.4 859.282C1029.51 854.826 1033.48 850.088 1038 845.203V848.071Z" fill="white"/>
<path d="M1038 813.142C1023.87 826.111 1009.62 839.698 1001.4 851.308C988.232 869.878 987.793 891.442 987.235 910.031C986.941 920.043 988.007 929.846 989.23 939.46C990.456 949.085 991.837 958.508 992.192 967.815C992.901 986.394 989.517 1004.46 972.572 1022.41C960.065 1035.61 939.658 1044.33 917.399 1050.02L915.24 1050.56C894.678 1055.58 872.546 1057.53 849.926 1059.25C826.803 1061.02 803.198 1062.83 779.095 1062.83H778.595V1062.93C769.556 1062.92 760.464 1062.64 751.318 1062.04C711.359 1059.21 671.931 1049.56 632.306 1037.91C592.704 1026.26 552.854 1012.59 512.169 1001.75C490.381 995.931 467.543 990.89 445.024 990.89C437.125 990.89 429.275 991.497 421.533 992.946C395.19 997.804 372.993 1010.23 351.084 1023.04C329.154 1035.86 307.521 1049.07 282.22 1055.64C270.316 1058.7 257.904 1060.04 245.431 1060.04C238.86 1060.04 232.344 1059.67 225.826 1058.97C187.429 1054.93 151.185 1040.54 126.656 1017.27C115.294 1006.51 108.092 994.559 102.167 983.453C96.2593 972.38 91.5833 962.058 85.3096 954.721C80.4232 949.011 72.1777 941.112 61.7939 934.417C51.4116 927.723 38.862 922.212 25.375 921.32H25.373C22.3468 921.133 19.2091 921.04 16.0723 921.04C10.7605 921.04 5.34033 921.266 0 921.524V919.814C5.3177 919.558 10.7042 919.341 16.0156 919.341C19.4683 919.341 22.5845 919.434 25.4756 919.619C50.8099 921.328 74.4313 939.043 87.0068 953.788C92.0442 959.692 96.0942 967.546 100.459 975.893C107.103 988.732 114.675 1003.37 128.258 1016.23C151.474 1038.24 187.102 1053.21 225.999 1057.32C232.551 1058.02 239.047 1058.34 245.319 1058.34C258.145 1058.34 270.307 1056.9 281.466 1054C303.476 1048.31 323.114 1037.2 341.993 1026.18L345.76 1023.98C368.834 1010.43 392.608 996.516 420.935 991.276C428.497 989.886 436.564 989.19 444.913 989.19C468.466 989.191 492.427 994.713 512.805 1000.16C537.811 1006.81 562.764 1014.62 586.891 1022.21C643.116 1039.79 696.284 1056.47 751.416 1060.39C760.253 1060.99 769.257 1061.27 778.983 1061.27H779.095C802.684 1061.27 825.991 1059.5 848.55 1057.78L849.724 1057.69C872.338 1055.97 894.323 1054.01 914.584 1049.07L914.585 1049.07C940.592 1042.68 959.522 1033.44 970.787 1021.52C994.476 996.479 991.134 970.933 987.617 944.092L987.616 944.091C986.164 933.058 984.718 921.695 985.052 910.061V909.27C985.611 890.406 986.288 869.197 999.479 850.584L1000.42 849.294C1009.19 837.44 1023.93 823.542 1038 810.632V813.142Z" fill="white"/>
<path d="M1038 778.411C1031.03 786.401 1020.11 796.421 1008.89 806.925C996.284 818.722 983.315 831.122 975.302 841.849L974.542 842.881C962.441 859.577 961.099 878.801 959.594 895.388L959.454 897.053C958.822 905.366 959.142 913.507 959.557 921.476C960 929.986 960.551 938.289 960.186 946.449C959.457 962.731 955.082 978.408 938.862 993.726C926.398 1005.45 906.404 1012.97 884.701 1017.85C865.7 1022.12 845.183 1023.84 824.129 1025.28C802.792 1026.77 780.917 1028.35 758.6 1028.35H758.544C751.124 1028.35 743.62 1028.17 736.069 1027.75L732.831 1027.56C695.883 1025.14 659.23 1016.89 622.312 1006.92C585.417 996.942 548.208 985.228 510.26 975.921C490.036 970.94 468.878 966.599 447.929 966.599C440.646 966.599 433.357 967.112 426.177 968.327C401.628 972.484 380.622 983.131 359.884 994.118C339.128 1005.12 318.65 1016.45 295.073 1022.08C284.004 1024.73 272.483 1025.88 260.9 1025.88C254.831 1025.88 248.76 1025.56 242.798 1025L242.799 1025C206.962 1021.52 173.057 1009.31 149.477 989.287C138.674 980.123 131.515 969.82 125.5 960.168C119.502 950.543 114.602 941.487 108.355 934.969C98.6176 924.802 77.3997 907.053 53.1992 904.849L53.2002 904.848C45.2447 904.101 36.791 904.008 28.5811 904.008H19.9814C14.5602 904.008 9.38418 904.008 4.71387 903.684L4.70703 903.683C3.08179 903.592 1.51336 903.435 0 903.219V901.285C1.60379 901.529 3.26486 901.701 4.98535 901.796L6.7959 901.889C11.0746 902.076 15.698 902.076 20.0928 902.076H28.6367C36.2888 902.076 45.0915 902.123 53.498 902.912C67.291 904.182 79.8752 910.221 89.8125 916.786C99.7464 923.349 107.006 930.418 110.146 933.705C115.183 939.01 119.4 945.895 123.874 953.258C130.628 964.327 138.261 977.007 151.119 987.909C173.664 1007.02 206.326 1019.52 243.092 1023.11L245.356 1023.33C250.635 1023.79 255.86 1024 260.956 1024C272.83 1024 284.151 1022.74 294.469 1020.26L295.491 1020.01C316.934 1014.71 336.273 1004.47 354.9 994.577C376.802 982.984 399.294 971.02 425.729 966.521L425.73 966.521C432.736 965.316 440.192 964.713 447.984 964.713C469.756 964.713 491.989 969.446 510.972 974.099C534.304 979.82 557.582 986.518 580.146 992.987L589.942 995.802C638.771 1009.8 685.29 1022.53 733.045 1025.67H733.047C741.028 1026.17 749.169 1026.41 757.989 1026.42L757.934 1026.7H758.544C780.344 1026.7 801.862 1025.21 822.69 1023.72H822.692L823.921 1023.63C844.805 1022.18 865.167 1020.51 884.084 1016.22C908.522 1010.72 926.384 1002.78 937.146 992.638C960.057 971.014 958.804 948.268 957.52 924.445C957.016 914.992 956.461 905.21 957.406 895.201L957.574 893.434V893.432C959.06 877.2 960.703 858.952 972.119 842.749L972.671 841.979L973.508 840.843C982.337 829.057 996.781 815.58 1010.81 802.448C1021.66 792.315 1031.98 782.708 1038 775.265V778.411Z" fill="white"/>
<path fill-rule="evenodd" clip-rule="evenodd" d="M739.221 636.032C813.06 636.032 843.433 693.277 843.433 728.092C843.433 762.904 813.063 819.732 739.221 819.778C697.085 819.778 622.558 819.836 539.544 819.895C456.529 819.953 365.024 820.012 288.935 820.012C251.007 820.012 223.022 808.483 204.578 791.243C186.133 774.001 177.196 751.015 177.415 728.026C177.852 682.076 214.886 636.032 285.919 636.032H739.221ZM285.919 637.639C216.191 637.639 179.592 683.447 179.592 728.836C179.592 752.476 189.2 774.388 206.613 790.49C226.066 808.5 254.069 818.097 287.614 818.353L287.552 818.405H288.935C391.635 818.405 522.483 818.312 622.615 818.219C670.754 818.219 711.801 818.172 739.222 818.126C779.65 818.126 803.959 800.691 817.217 786.039C834.953 766.49 841.249 743.285 841.249 728.045C841.249 691.551 808.778 637.639 739.221 637.639H285.919Z" fill="white"/>
<path fill-rule="evenodd" clip-rule="evenodd" d="M671.368 590.241C712.744 590.241 750.16 599.255 769.054 603.121L769.055 603.122C799.086 609.228 814.862 630.517 833.815 648.46L833.817 648.462C839.177 653.487 844.376 657.821 849.168 662.149C853.975 666.492 858.417 670.866 862.354 676.042C872.855 689.884 879.234 706.865 879.788 722.106C880.342 737.162 875.854 751.175 869.012 764.201L868.438 765.257C862.34 776.221 851.023 788.957 841.328 799.653C837.943 803.383 834.822 807.116 831.748 810.711C828.671 814.31 825.638 817.775 822.414 820.994L821.182 822.213C808.443 834.715 795.357 844.536 771.57 849.245C761.165 851.332 747.96 852.401 733.216 853.285C721.779 853.983 709.444 854.308 696.378 854.541H696.376C683.868 854.82 670.749 855.053 657.128 855.053H656.456L656.511 855.238C651.699 855.238 646.797 855.233 641.896 855.1H641.891C598.179 854.309 550.964 849.704 502.132 846.538C489.679 845.747 476.986 845.001 464.291 845.001C459.816 845.001 455.397 845.094 450.979 845.28C435.404 845.979 420.405 847.751 405.522 849.583C390.635 851.416 375.866 853.31 360.722 854.263C353.75 854.681 346.724 854.913 339.755 854.913C337.078 854.913 334.431 854.887 331.77 854.835L329.102 854.773C307.043 854.188 285.783 852.511 266.736 849.155L264.899 848.825C251.075 846.31 239.982 841.81 229.442 837.539L224.953 835.729C220.055 833.781 214.875 831.356 209.601 828.899C204.332 826.446 198.971 823.961 193.732 821.907L193.731 821.908C185.532 818.655 177.799 815.221 171.131 811.285C158.232 803.666 150.418 791.006 146.239 776.87C142.06 762.733 141.53 747.156 143.171 733.783C146.932 703.187 157.041 676.045 174.192 654.552C191.073 633.398 214.796 617.689 246.068 609.548L247.563 609.166L248.517 608.933C258.428 606.576 270.273 605.877 283.518 605.877C293.587 605.877 304.398 606.284 315.653 606.691C326.906 607.099 338.6 607.506 350.422 607.506C368.251 607.506 386.436 606.575 403.792 603.263C419.836 600.199 435.72 599.177 451.559 599.177C468.905 599.177 486.158 600.431 503.354 601.688C520.545 602.944 537.68 604.202 554.762 604.202C574.392 604.202 593.929 602.525 613.474 597.298L615.271 596.824C633.868 592.029 653.005 590.241 671.368 590.241ZM671.368 591.987C650.613 591.987 631.357 594.317 614.219 598.938C596.399 603.717 577.568 605.947 554.817 605.947C537.75 605.947 520.344 604.693 503.477 603.437C486.502 602.18 469.003 600.922 451.614 600.922C434.221 600.922 418.664 602.227 404.33 604.979C388.957 607.903 371.79 609.252 350.422 609.252C338.091 609.252 325.926 608.788 314.195 608.369L314.196 608.368C303.364 607.949 293.134 607.576 283.518 607.576C268.199 607.576 256.983 608.6 248.271 610.755L248.27 610.756C227.631 615.913 204.449 625.941 185.149 645.078C166.146 663.922 150.937 691.567 145.607 732.006L145.361 733.94C143.763 746.838 144.266 762.125 148.295 776.046C152.324 789.967 159.895 802.568 172.465 810.006L172.467 810.007C178.36 813.468 185.422 816.782 194.706 820.464L194.708 820.465C200.163 822.598 205.733 825.198 211.151 827.758L211.154 827.759C216.343 830.177 221.217 832.464 225.924 834.332L225.928 834.333C227.484 834.935 229.043 835.585 230.607 836.236L230.611 836.238C241.054 840.473 251.875 844.819 265.333 847.296C283.292 850.606 304.765 852.562 329.075 853.214C332.598 853.307 336.121 853.354 339.644 853.354C345.956 853.354 352.098 853.175 357.917 852.881L360.391 852.748L360.394 852.747C374.317 851.862 388.238 850.139 401.694 848.464C417.502 846.509 433.901 844.463 450.743 843.72C454.983 843.534 459.554 843.395 464.235 843.395C477.286 843.395 490.172 844.139 502.233 844.93C517.253 845.907 532.218 847.023 546.683 848.094C580.074 850.56 611.587 852.934 641.816 853.446L645.661 853.508C649.461 853.56 653.231 853.585 656.97 853.586L656.991 853.595L657.083 853.633H657.184C670.313 853.633 682.715 853.4 696.397 853.121C707.677 852.889 720.867 852.609 733.108 851.863C745.671 851.119 760.055 850.047 771.095 847.853L772.161 847.637C794.399 843.029 806.874 834.002 820.772 820.169L821.505 819.437C824.178 816.733 826.709 813.839 829.291 810.839L832.136 807.528L832.14 807.525C834.243 805.039 836.382 802.49 838.637 799.964L839.611 798.883L839.612 798.882C848.644 788.893 861.037 775.161 867.048 763.738L867.049 763.737C874.675 749.206 878.167 735.624 877.66 722.302C877.115 707.583 871.187 691.616 861.427 678.257L860.47 676.973C855.129 669.946 848.669 664.237 841.803 658.283C838.676 655.538 835.443 652.705 832.1 649.595C828.645 646.345 825.304 642.912 822.004 639.603L822.005 639.602C806.825 624.302 792.375 609.668 768.473 604.794H768.47C766.353 604.376 763.955 603.865 761.387 603.307L761.384 603.306C741.336 599.071 707.782 591.987 671.368 591.987Z" fill="white"/>
<path fill-rule="evenodd" clip-rule="evenodd" d="M690.244 545.056C737.389 545.056 782.213 561.825 799.438 569.721C812.341 575.638 820.793 586.41 828.646 598.22C836.478 609.996 843.73 622.838 854.201 632.64L854.202 632.641C860.797 638.791 867.462 643.222 873.856 647.568C880.258 651.92 886.389 656.187 891.989 662.031C905.77 676.385 915.594 696.567 916.759 715.697C917.887 735.311 911.783 751.203 903.709 765.163L902.922 766.508C899.264 772.673 893.194 779.852 886.624 787.166C880.07 794.462 873.014 801.893 867.451 808.509C859.605 817.802 854.699 827.652 849.318 836.111C843.689 844.91 839.043 852.987 832.513 860.124C826.203 867.02 818.128 873.036 805.712 877.887L804.496 878.353C793.728 882.423 779.152 884.698 763.014 886.42C751.694 887.64 739.559 888.256 726.9 888.733L721.444 888.931C707.147 889.443 692.189 889.954 676.785 889.954H675.403L675.512 890.045C670.275 890.031 664.989 889.944 659.655 889.815L659.656 889.814C609.924 888.233 557.654 878.934 503.329 872.646C489.254 871.017 474.821 869.572 460.494 869.572C455.512 869.572 450.528 869.759 445.602 870.132H445.599C428.219 871.531 412.006 875.076 395.943 878.734C379.873 882.395 363.958 886.169 347.127 888.05C339.387 888.932 331.474 889.303 323.56 889.303C319.491 889.303 315.422 889.21 311.409 889.024C286.028 887.816 261.674 884.098 241.406 877.092C232.906 874.152 225.873 870.413 219.459 866.611C213.063 862.821 207.227 858.934 201.211 855.763C191.485 850.622 178.341 842.48 165.209 838.646H165.207C155.363 835.803 145.622 833.159 137.441 829.913L137.442 829.912C121.076 823.391 112.641 808.319 109.028 791.045C105.416 773.772 106.65 754.391 109.546 739.449C124.495 662.802 154.369 612.282 209.875 581.71L209.876 581.709C219.418 576.423 232.599 574.838 248.111 574.838C259.54 574.838 272.171 575.697 285.482 576.559C298.787 577.419 312.763 578.281 326.854 578.281C347.488 578.281 368.435 576.418 387.885 569.973C405.693 564.037 423.062 561.994 440.222 561.994C459.867 561.994 479.239 564.688 498.645 567.388C518.038 570.086 537.465 572.79 557.163 572.79C579.78 572.79 602.753 569.244 626.456 558.038C646.589 548.584 668.628 545.056 690.244 545.056ZM690.3 546.754C666.673 546.754 645.6 551.047 627.651 559.507C605.944 569.711 583.567 574.49 557.219 574.49C537.322 574.49 517.531 571.749 498.315 569.05C479.388 566.398 459.696 563.693 440.222 563.693C420.739 563.693 404.601 566.26 388.741 571.537C371.383 577.286 351.725 579.98 326.854 579.98C311.963 579.98 297.347 579.052 283.217 578.121C270.71 577.284 258.853 576.537 248.111 576.537C231.589 576.537 220.02 578.458 211.899 582.654L211.124 583.067C157.679 612.524 127.068 660.889 111.691 739.723C108.275 757.365 108.047 776.002 111.135 790.83C115.178 810.155 124.304 822.896 138.413 828.515C145.253 831.224 153.152 833.512 161.525 835.884L165.936 837.14L166.939 837.438C177.317 840.608 187.647 846.315 196.041 850.963C198.28 852.222 200.463 853.388 202.474 854.458L202.476 854.459C206.423 856.544 210.204 858.907 214.23 861.377C222.491 866.446 231.024 871.78 242.309 875.663C261.298 882.198 284.58 886.159 311.53 887.417C315.614 887.603 319.643 887.696 323.56 887.696C331.674 887.696 339.512 887.278 346.793 886.438C362.35 884.666 377.455 881.215 392.025 877.912C409.008 874.048 426.565 870.008 445.343 868.522L447.152 868.39C451.405 868.096 455.865 867.919 460.494 867.919C473.293 867.919 485.951 869.021 500.686 870.692L503.661 871.034C520.354 872.988 536.991 875.221 553.132 877.361L566.966 879.211C599.038 883.47 629.706 887.225 659.735 888.162L661.814 888.226C666.677 888.359 671.618 888.395 676.897 888.395C691.756 888.395 706.112 887.883 720.01 887.418H721.416L721.426 887.417C734.323 886.905 749.306 886.3 762.783 884.902C775.622 883.553 791.936 881.408 803.62 877.008C815.185 872.634 822.942 867.338 829.049 861.163C835.145 854.999 839.585 847.971 844.521 840.185L844.525 840.18C845.472 838.649 846.468 837.125 847.478 835.537L848.083 834.602C849.485 832.403 850.816 830.108 852.182 827.792C856.094 821.226 860.094 814.421 865.703 807.757L865.705 807.755C869.382 803.345 873.672 798.702 878.144 793.812L878.145 793.811C886.677 784.45 895.58 774.726 900.523 766.717L900.99 765.947C911.417 748.29 915.642 732.834 914.63 715.869C913.577 698.148 904.521 678.286 890.96 663.794L890.311 663.108C884.572 657.108 878.16 652.797 871.523 648.243L871.521 648.241C865.323 644.054 858.985 639.697 852.594 633.77L852.593 633.771C843.99 625.723 837.601 615.772 831.341 606.037C822.142 591.729 813.301 578.05 798.403 571.185C792.961 568.66 743.684 546.754 690.3 546.754Z" fill="white"/>
<path fill-rule="evenodd" clip-rule="evenodd" d="M713.476 499.729C739.852 499.73 765.849 505.312 786.853 512.696C797.353 516.388 806.6 520.527 814.016 524.639C821.441 528.755 826.999 532.828 830.155 536.372L830.215 536.438L830.292 536.479C836.391 539.757 840.813 545.05 844.37 551.524C847.93 558.004 850.605 565.631 853.23 573.547C855.851 581.448 858.422 589.638 861.768 597.174C865.115 604.713 869.254 611.636 875.033 617.005C882.846 624.264 890.965 628.816 898.938 633.173C906.919 637.535 914.742 641.698 922.063 648.192C938.962 663.154 952.456 686.447 954.12 709.467C955.952 734.863 947.244 753.415 937.278 769.004C932.897 775.751 925.185 784.022 916.995 792.558C908.824 801.075 900.187 809.846 894.026 817.547C885.091 828.692 881.093 840.884 876.645 851.402L876.644 851.403C867.328 873.522 865.667 892.681 837.831 907.651C827.386 913.281 812.714 916.733 796.476 919.251L793.208 919.742C778.771 921.832 763.1 922.715 746.904 923.46C730.976 924.197 714.513 924.979 697.613 924.994V924.949H697.113C691.498 924.949 685.842 924.877 680.145 924.673L677.7 924.577C621.891 922.159 564.558 908.211 504.857 898.802L504.856 898.803C489.271 896.336 473.1 894.189 457.144 894.188C451.598 894.188 446.051 894.469 440.503 895.076C421.321 897.176 403.91 902.484 386.682 907.97C369.442 913.459 352.393 919.122 333.871 921.977C325.298 923.275 316.5 923.879 307.699 923.879C303.13 923.879 298.561 923.74 294.048 923.462L294.049 923.461C266.056 921.695 239.319 915.935 218.23 905.596C209.152 901.131 202.095 895.749 195.783 890.478C189.88 885.548 184.591 880.678 178.934 876.793L177.797 876.029C168.202 869.724 153.36 859.464 137.719 855.837L136.973 855.669C125.525 853.191 113.645 851.437 104.049 848.834C84.117 843.443 75.109 825.953 72.1191 805.524C69.1301 785.101 72.1888 761.891 76.2568 745.383C98.9763 653.329 125.527 597.505 172.443 554.464C181.564 546.085 195.8 543.52 213.264 543.52C226.136 543.52 240.7 544.901 256.179 546.286C271.647 547.671 288.016 549.058 304.46 549.058C327.614 549.058 350.981 546.309 372.235 536.869C391.819 528.2 410.793 525.139 429.443 525.139C451.417 525.139 472.954 529.373 494.596 533.621C516.221 537.866 537.951 542.124 560.234 542.124C585.384 542.124 611.249 536.692 638.505 519.778L640.841 518.315C662.683 504.813 688.251 499.73 713.476 499.729ZM713.644 501.382C685.918 501.382 661.905 507.531 642.267 519.677L641.335 520.26C615.948 536.311 590.24 543.822 560.347 543.822C537.73 543.822 515.55 539.459 494.042 535.223C473.053 531.083 451.225 526.791 429.556 526.791C409.274 526.791 390.943 530.574 373.452 538.281C354.378 546.715 332.503 550.663 304.572 550.663C287.007 550.663 269.883 549.131 253.238 547.642L253.239 547.641C238.892 546.338 225.353 545.126 213.319 545.126C194.132 545.126 182.019 548.29 174.17 555.447L174.169 555.448C129.483 596.403 102.779 648.781 79.5186 741.179L78.4131 745.608C74.3551 762.002 71.425 784.768 74.2432 804.735C77.0595 824.69 85.6519 842.018 104.79 847.193L105.883 847.486C111.394 848.934 117.616 850.08 124.15 851.344H124.152C128.569 852.182 133.139 853.018 137.598 853.993L137.599 853.994C153.016 857.322 167.683 867.036 177.413 873.513L177.416 873.515L179.259 874.725L180.128 875.305C184.453 878.239 188.479 881.719 192.779 885.39C200.373 891.903 208.289 898.69 219.409 904.165L219.41 904.166C239.143 913.835 265.012 919.942 294.209 921.76C298.798 922.04 303.333 922.18 307.699 922.18C316.768 922.18 325.395 921.573 333.466 920.312C350.544 917.7 366.831 912.521 382.463 907.497C400.674 901.679 419.503 895.692 440.221 893.418C445.56 892.815 451.239 892.536 457.144 892.536C473.465 892.536 489.907 894.764 505.316 897.184C523.682 900.068 541.994 903.417 559.697 906.675C600.625 914.166 639.362 921.293 677.825 922.924H677.827C683.878 923.151 690.037 923.289 696.613 923.296V923.343H697.113C713.657 923.343 729.808 922.598 745.443 921.854H746.841C761.973 921.109 778.023 920.224 792.904 918.079L794.793 917.802C814.113 914.911 827.466 911.253 836.686 906.298C847.586 900.422 854.38 893.853 859.203 886.649C863.415 880.358 866.115 873.595 868.742 866.443L869.868 863.355V863.354C871.318 859.312 872.878 855.18 874.66 850.911L875.238 849.546C875.429 849.09 875.619 848.634 875.808 848.176L876.951 845.415L876.953 845.41C880.641 836.33 884.75 826.158 892.293 816.729C897.693 810.003 904.992 802.388 912.089 794.984C920.839 785.893 929.956 776.4 934.964 769.002L935.436 768.292L935.438 768.289C944.678 753.868 953.955 735.563 952.102 709.535C950.583 688.168 938.505 665.11 920.605 649.259C913.744 643.166 906.489 639.232 898.902 635.048L898.9 635.047C890.521 630.485 881.861 625.764 873.536 617.995C862.479 607.722 857.317 592.174 852.337 576.975C849.604 568.677 846.925 560.551 843.399 553.687C839.872 546.818 835.47 541.157 829.257 537.832L828.834 537.598L828.556 537.29L828.557 537.289C825.261 533.584 819.583 529.497 812.167 525.453C804.742 521.404 795.541 517.381 785.17 513.816C764.43 506.688 738.979 501.382 713.644 501.382Z" fill="white"/>
<path fill-rule="evenodd" clip-rule="evenodd" d="M733.972 454.544C763.41 454.544 792.705 461.751 815.915 471.363C827.519 476.169 837.591 481.571 845.393 486.966C853.207 492.37 858.695 497.733 861.193 502.442L861.241 502.532L861.321 502.597C866.703 506.945 870.041 513.749 872.387 521.953C874.732 530.156 876.063 539.68 877.489 549.415C878.913 559.133 880.429 569.054 883.146 577.983C885.865 586.914 889.798 594.899 896.088 600.719L896.938 601.492C905.738 609.375 914.982 613.9 924.212 618.135C933.75 622.511 943.254 626.57 952.356 633.692C972.265 649.262 989.541 675.622 991.705 702.537L991.81 703.962C993.812 733.742 983.2 754.226 971.8 770.806L971.311 771.499C966.136 778.721 957.058 787.804 947.558 797.256C937.773 806.99 927.553 817.103 920.826 825.885C910.813 838.917 907.719 853.456 904.267 865.983C902.43 872.63 901.302 879.104 900.184 885.369C899.063 891.642 897.953 897.702 896.151 903.564C892.558 915.258 886.213 926.177 871.517 936.252C859.939 944.191 842.662 949.017 823.74 952.366C807.746 955.199 790.516 956.362 772.646 957.339C754.827 958.316 736.468 959.386 717.608 959.386H717.368L717.256 959.525C710.248 959.522 703.133 959.382 695.966 959.015C634.134 955.806 571.68 937.117 506.55 924.586C489.4 921.281 471.601 918.388 453.96 918.388C447.797 918.388 441.687 918.761 435.633 919.555L435.632 919.556C414.65 922.357 396.044 929.44 377.65 936.752C359.243 944.069 341.057 951.61 320.843 955.392C311.441 957.153 301.699 957.896 292.007 957.896C286.937 957.896 281.869 957.71 276.858 957.293H276.854C246.248 954.97 217.07 947.074 195.211 933.494C185.55 927.48 178.465 920.456 172.257 913.715C166.258 907.201 161.037 900.901 155.119 896.105L154.544 895.646C144.778 887.973 127.597 875.093 108.914 871.998C102.42 870.925 95.6477 870.191 89.124 869.476C83.0015 868.804 77.0999 868.151 71.8242 867.25L70.7773 867.066C58.9941 864.962 50.7396 858.927 45.127 850.492C39.5041 842.042 36.5195 831.16 35.3408 819.368C32.9832 795.781 37.8667 768.707 43.0791 750.613L45.9434 740.671C75.2842 639.278 96.902 579.229 135.149 526.561L135.553 526.016C144.128 514.7 159.141 511.224 178.248 511.224C192.594 511.224 209.148 513.174 226.856 515.13C244.551 517.084 263.383 519.042 282.233 519.042C307.909 519.042 333.69 515.407 356.743 503.161C378.219 491.756 398.8 487.724 419.056 487.724C443.418 487.724 467.177 493.57 491.09 499.437C514.982 505.298 539.026 511.178 563.864 511.178C592.284 511.178 621.767 503.465 653.299 479.29C676.699 461.366 705.398 454.544 733.972 454.544ZM733.972 456.336C702.935 456.336 676.636 464.251 655.801 479.843L654.812 480.591C626.019 502.681 597.084 512.97 563.809 512.97C538.581 512.97 513.955 506.937 490.1 501.071C466.935 495.397 442.973 489.516 419 489.516C397.768 489.516 378.371 494.163 359.749 503.712L357.949 504.651C337.489 515.538 312.724 520.834 282.233 520.834C261.993 520.834 242.139 518.651 222.98 516.51C206.792 514.696 191.461 513.016 178.248 513.016C157.15 513.016 144.315 517.396 137.021 527.463C99.2565 579.428 77.723 638.512 48.0332 741.024L45.1338 751.082C40.517 767.193 37.0316 786.668 36.8496 804.958C36.6678 823.23 39.7816 840.411 48.4551 851.853L48.9863 852.539C54.5431 859.547 62.0133 863.895 71.2158 865.538C76.7633 866.519 83.0922 867.219 89.7324 867.963H89.7344C96.1579 868.661 102.846 869.404 109.252 870.472H109.254C127.322 873.427 143.652 884.892 155.992 894.57L156.91 895.309C161.471 899.056 165.595 903.626 169.944 908.517L169.946 908.519C176.926 916.289 184.898 925.087 196.412 932.295L196.414 932.296C216.884 945.007 245.449 953.353 276.891 955.73C281.925 956.103 286.965 956.337 291.839 956.337C301.807 956.337 311.388 955.497 320.188 953.862C338.896 950.362 356.253 943.454 373.001 936.756C392.442 928.982 412.491 921.003 435.149 917.987C441.046 917.199 447.336 916.781 453.849 916.781C471.948 916.781 490.059 919.751 506.975 923.008L510.722 923.739C529.455 927.427 548.156 931.606 566.324 935.663C611.104 945.666 653.422 955.17 696.025 957.406H696.028C702.904 957.732 709.893 957.919 717.44 957.919H717.621L717.678 957.872C735.893 957.866 753.772 956.891 771.081 955.917H771.088L772.42 955.824C789.172 954.894 806.96 953.729 823.188 950.885C844.762 947.066 860.153 941.978 870.017 935.168C880.865 927.721 887.054 919.835 890.954 911.396C894.36 904.027 896.011 896.251 897.51 888.039L898.148 884.492C899.21 878.442 900.323 872.227 902.103 865.784L902.104 865.779L903.165 861.778L903.757 859.579C906.753 848.507 910.361 836.322 918.883 825.237C925.504 816.614 935.418 806.727 945.03 797.18C954.809 787.455 964.062 778.208 969.331 770.913L969.828 770.214L969.83 770.21C980.919 754.062 991.989 733.378 989.519 702.782C987.551 678.427 972.334 651.826 950.795 634.952C942.644 628.582 934.325 624.79 925.506 620.79C915.114 616.041 904.406 611.185 894.365 601.894C887.782 595.788 883.699 587.505 880.893 578.173C878.085 568.838 876.567 558.498 875.086 548.3C873.719 539.026 872.403 529.972 870.179 522.231C867.957 514.498 864.807 507.994 859.721 503.872L859.357 503.568L859.182 503.201L859.178 503.193L859.174 503.185C856.7 498.49 851.181 493.231 843.477 487.991C835.756 482.741 825.787 477.475 814.342 472.788C791.453 463.415 762.613 456.336 733.972 456.336Z" fill="white"/>
<path fill-rule="evenodd" clip-rule="evenodd" d="M754.69 409.637C787.22 409.637 819.791 418.458 845.159 430.281C857.842 436.192 868.712 442.848 876.87 449.515C885.042 456.193 890.437 462.838 892.264 468.711L892.295 468.81L892.362 468.889C897.034 474.329 899.28 482.671 900.397 492.617C901.514 502.552 901.495 513.976 901.715 525.526C901.935 537.058 902.394 548.705 904.479 559.016C906.565 569.325 910.288 578.362 917.087 584.618L918.051 585.492C928.035 594.384 938.66 599.03 949.401 603.277C960.502 607.666 971.702 611.622 982.587 619.373L983.66 620.146C1006.16 636.563 1026.61 665.508 1029.23 695.839C1032.35 731.551 1019.46 754.7 1006.26 772.844C1000.49 780.756 989.486 791.212 978.056 802.193C967.008 812.807 955.572 823.901 948.215 833.569L947.516 834.5C936.485 849.366 934.239 866.249 931.731 880.83C930.413 888.6 930.021 896.188 929.687 903.573C929.351 910.968 929.073 918.151 927.989 925.163C925.827 939.152 920.46 952.447 904.99 965.13C892.971 974.96 874.309 981.131 853.997 985.223C836.499 988.752 817.598 990.193 798.162 991.449C778.629 992.705 758.501 994.006 737.93 994.008C730.14 994.007 722.297 993.821 714.399 993.357C680.462 991.336 646.598 984.468 612.395 976.158C578.211 967.853 543.646 958.095 508.405 950.323L508.406 950.322C489.691 946.179 470.212 942.586 450.944 942.586C444.223 942.586 437.495 943.006 430.875 944.034C408.123 947.513 388.323 956.385 368.758 965.534C349.176 974.691 329.838 984.121 307.93 988.807C297.693 990.985 287.062 991.96 276.426 991.96C270.858 991.96 265.288 991.683 259.771 991.219L259.771 991.218C226.55 988.292 195.038 978.26 172.291 961.438L172.29 961.438C162.045 953.85 154.918 945.181 148.807 936.981C142.712 928.805 137.585 921.028 131.396 915.355C121.67 906.412 102.47 891.142 81.0264 888.469C73.7178 887.559 66.0078 887.14 58.5742 886.779C51.1326 886.418 43.9744 886.117 37.7383 885.444C24.1351 883.948 14.8512 877.604 8.73926 868.326C4.29288 861.577 1.51643 853.257 0 844.089V801.985C2.11157 784.784 6.17506 768.23 10.0703 756.025L11.8867 750.31C49.6777 631.104 65.5315 563.209 97.9971 498.804C105.679 483.578 121.713 478.975 143.01 478.975C158.802 478.975 177.361 481.505 197.326 484.043C217.276 486.579 238.611 489.119 259.896 489.119C288.202 489.119 316.506 484.598 341.409 469.596C364.781 455.499 387.141 450.495 409.004 450.495C434.083 450.495 458.513 457.081 483.061 464.1L492.883 466.914C517.452 473.932 542.233 480.557 567.886 480.557C599.174 480.557 631.737 470.69 666.84 439.807C691.687 417.944 723.166 409.637 754.69 409.637ZM754.746 411.289C719.855 411.289 690.859 421.232 668.525 440.871C636.49 469.052 604.491 482.163 567.941 482.163C540.101 482.163 513.139 474.415 486.935 466.919C461.594 459.663 435.334 452.101 409.004 452.101C385.658 452.101 364.318 458.033 343.716 470.247L342.735 470.834C320.607 484.223 293.506 490.726 259.839 490.726C236.812 490.726 213.276 487.707 192.496 485.054L192.497 485.053C174.467 482.727 157.401 480.581 142.954 480.581C120.296 480.581 106.981 486.101 100.268 498.724L99.9531 499.33C76.1954 546.47 61.1048 596.354 40.2217 665.355L33.9473 686.024C27.4607 707.368 20.2993 730.758 12.1328 756.373C7.3205 771.434 2.25636 793.441 1.00391 814.938C-0.24694 836.406 2.29472 857.502 12.834 870.617C19.0131 878.317 27.237 882.609 38.0205 883.785C43.6222 884.392 50.0046 884.718 56.7031 885.044H56.7051C64.86 885.416 73.2739 885.835 81.3486 886.855C102.131 889.442 120.912 903.173 133.066 914.323L133.536 914.76C138.375 919.307 142.575 925.048 147.017 931.187C153.828 940.585 161.631 951.302 173.819 960.288C195.301 976.225 225.944 986.577 260.019 989.607L260.021 989.608C265.56 990.075 271.104 990.354 276.426 990.354C287.346 990.354 297.769 989.327 307.357 987.271C327.638 982.93 346.118 974.248 363.98 965.876C384.651 956.193 405.922 946.221 430.467 942.464C436.919 941.49 443.82 940.979 450.944 940.979C470.879 940.98 490.604 944.739 508.972 948.786C530.63 953.577 552.29 959.159 573.233 964.558C621.811 977.12 667.764 988.953 714.563 991.749L714.565 991.75C722.041 992.168 729.739 992.401 737.992 992.402C758.059 992.402 777.789 991.144 796.83 989.935H796.834L798.113 989.842C817.323 988.632 836.008 987.234 853.581 983.689L855.736 983.244C877.799 978.583 893.456 972.322 903.503 964.041C914.576 954.954 920.357 945.625 923.479 935.804C926.596 926.004 927.056 915.732 927.53 904.809L927.66 901.864C927.956 895.461 928.365 888.895 929.396 882.178L929.646 880.625V880.621L930.094 877.829C932.441 863.766 935.109 847.923 945.637 833.747C953.369 823.364 965.789 811.436 977.862 799.838C988.344 789.798 998.299 780.192 1003.87 772.835L1004.39 772.131L1004.39 772.129C1017.13 754.58 1029.79 732.005 1027.24 697.631L1027.1 695.985C1024.18 662.331 1000.5 634.339 981.156 620.605C971.661 613.864 961.663 609.981 952.065 606.215C939.775 601.42 927.125 596.469 915.476 585.698L915.475 585.697C907.94 578.754 904.032 568.711 901.967 557.143C900.16 547.02 899.774 535.784 899.574 524.522L899.496 519.697C899.329 509.398 899.175 499.35 898.04 490.684C896.907 482.037 894.786 474.672 890.618 469.787L890.619 469.786L890.336 469.433L890.196 469.045C888.372 463.241 882.997 456.75 875.045 450.293C867.067 443.816 856.436 437.325 844.018 431.55C819.181 420.001 787.137 411.289 754.746 411.289Z" fill="white"/>
<path d="M773.063 364.916C807.845 364.916 842.895 375.488 870.561 389.555C884.392 396.587 896.366 404.487 905.53 412.364C914.705 420.25 921.022 428.078 923.604 434.954C926.245 441.983 926.713 452.138 926.345 463.91C925.976 475.687 924.782 488.923 924.145 502.189C923.509 515.421 923.433 528.621 925.321 540.172C927.209 551.718 931.07 561.684 938.364 568.378C949.863 578.944 962.232 583.903 974.866 588.306C987.514 592.712 1000.4 596.554 1013.09 604.865L1014.31 605.672C1022.56 611.248 1030.69 618.379 1038 626.636V629.484C1030.17 620.27 1021.41 612.488 1012.82 606.69L1011.69 605.937C1000.79 598.777 989.51 594.943 978.684 591.223C964.494 586.381 949.956 581.382 936.695 569.223L936.694 569.224C927.675 560.928 923.714 547.844 922.286 532.764C920.86 517.693 921.972 500.739 923.006 484.791C923.676 474.837 924.32 465.15 924.292 456.607C924.264 448.075 923.567 440.624 921.523 435.161C918.966 428.364 912.536 420.618 903.481 412.903C894.697 405.42 883.397 397.928 870.641 391.319L869.401 390.682C838.512 374.967 804.312 366.336 773.119 366.336C736.371 366.336 705.86 377.964 682.355 400.915C647.187 435.236 612.291 451.217 572.409 451.217C542.009 451.217 512.653 441.799 484.158 432.627C456.586 423.743 427.972 414.547 399.343 414.547C374.172 414.547 351.066 421.658 328.757 436.222L327.694 436.921C303.783 452.814 274.232 460.524 237.333 460.524C214.745 460.524 191.723 457.678 170.717 454.753L161.844 453.502C141.976 450.712 123.172 448.006 107.548 448.006C94.9197 448.006 85.2493 449.708 78.0059 453.454C70.7407 457.212 65.9564 463.007 63.0703 471.094L63.0693 471.095C51.221 504.626 42.7827 537.969 33.0664 576.543C24.1288 612.009 14.358 650.822 0 697.798V690.341C11.0589 653.566 19.3624 621.778 26.6572 593.022C38.2691 547.249 47.324 509.188 60.8848 470.917C64.1904 461.552 70.0441 455.487 77.9395 451.75C85.8562 448.003 95.8508 446.586 107.436 446.586C124.62 446.586 145.171 449.708 167.4 452.84C189.612 455.969 213.476 459.104 237.222 459.104C268.325 459.104 299.318 453.744 326.182 435.893L327.367 435.113C352.26 418.918 376.016 413.127 399.286 413.127C426.66 413.127 453.251 421.159 479.966 429.721L490.655 433.154C517.392 441.715 544.362 449.797 572.354 449.797C606.451 449.797 642.092 437.777 680.598 400.141C706.731 374.611 739.766 364.916 773.063 364.916Z" fill="white"/>
<path d="M794.452 319.73C832.216 319.73 870.361 331.846 900.062 348.102C914.91 356.228 927.634 365.383 937.138 374.56C946.651 383.746 952.894 392.915 954.858 401.063C956.789 409.062 956.151 420.698 954.55 434.171C953.751 440.896 952.714 448.059 951.647 455.431C950.581 462.8 949.484 470.376 948.565 477.92C946.729 493.002 945.599 507.986 946.853 520.967C948.105 533.939 951.745 544.998 959.53 552.137C972.236 563.778 986.008 568.877 1000.19 573.303C1012.6 577.174 1025.31 580.527 1038 587.264V589.383C1026.97 583.324 1015.82 579.925 1005.03 576.651L1005.02 576.652C988.989 571.764 972.51 566.763 957.806 553.216L957.805 553.215C947.912 544.147 944.424 529.114 944.124 511.542C943.825 493.988 946.707 474.042 949.417 455.278C950.98 444.486 952.505 433.977 953.281 424.698C954.057 415.43 954.092 407.334 952.647 401.387C950.716 393.363 944.55 384.383 935.245 375.428C926.221 366.742 914.201 358.04 900.104 350.213L898.733 349.458C866.166 331.646 828.164 321.383 794.396 321.383C754.121 321.383 720.98 334.877 695.912 361.467C657.78 401.976 619.927 420.782 576.821 420.782C543.916 420.782 512.164 409.648 481.379 398.8C451.519 388.335 420.553 377.458 389.514 377.458C362.035 377.458 336.804 385.966 312.323 403.472C286.628 421.87 254.57 430.788 214.213 430.788C185.553 430.788 156.327 426.327 130.521 422.371L130.52 422.37C108.864 419.068 88.3828 415.943 71.583 415.943C58.0024 415.943 47.7456 417.971 40.2891 422.436C32.8093 426.915 28.2041 433.812 25.8613 443.408C19.2115 470.649 14.3503 497.421 9.26855 525.807C6.40369 541.768 3.44233 558.264 0 575.699V564.84C8.40798 520.788 14.1114 482.508 23.7617 443.134L24.0264 442.104C26.8566 431.576 32.5021 424.711 40.3867 420.437C48.5516 416.01 59.1624 414.337 71.6387 414.337C90.1877 414.337 112.716 418.04 137.203 421.754C161.67 425.465 188.063 429.182 214.269 429.182C248.28 429.182 282.018 422.936 310.895 402.284C338.173 382.754 364.207 375.806 389.569 375.806C421.189 375.806 451.823 386.602 482.681 397.439C513.507 408.265 544.554 419.13 576.877 419.13C613.838 419.13 652.386 404.957 694.238 360.524C722.102 330.957 758.09 319.731 794.452 319.73Z" fill="white"/>
<path d="M815.897 274.823C856.701 274.823 897.983 288.496 929.719 306.952C945.585 316.179 959.05 326.594 968.869 337.076C978.697 347.568 984.831 358.083 986.123 367.51C987.367 376.515 985.629 389.648 982.797 404.82C981.383 412.396 979.7 420.461 977.989 428.751C976.279 437.039 974.54 445.552 973.017 454.014C969.972 470.931 967.782 487.679 968.402 502.074C969.022 516.457 972.451 528.595 980.753 536.176C994.692 548.915 1009.85 554.176 1025.57 558.631C1029.68 559.795 1033.83 560.905 1038 562.076V563.896C1035.82 563.277 1033.64 562.677 1031.48 562.083L1031.48 562.082C1012.82 556.961 995.289 552.146 979.026 537.253L979.025 537.252C968.286 527.456 965.339 510.494 966.245 490.457C967.151 470.448 971.888 447.547 976.33 426.037L978.108 417.368C979.853 408.787 981.46 400.515 982.604 392.982C984.126 382.949 984.835 374.173 983.931 367.697C982.709 358.789 976.811 348.643 967.417 338.458C958.012 328.262 945.057 317.979 929.632 308.801C898.784 290.446 857.999 276.476 815.842 276.476C772.655 276.476 735.933 292.21 709.693 322.064C668.653 368.716 627.899 390.349 581.567 390.349C548.422 390.349 516.289 379.052 485.147 367.359L478.932 365.019C446.783 352.927 413.467 340.369 379.964 340.369C350.523 340.369 323.445 350.093 297.178 370.021C269.642 390.926 234.964 401.098 191.148 401.098C159.698 401.098 127.626 395.94 99.251 391.332C75.8102 387.565 53.649 383.973 35.7295 383.973C21.2246 383.973 10.3973 386.328 2.7373 391.505C1.77417 392.156 0.861972 392.851 0 393.59V391.222C0.900906 390.538 1.83921 389.898 2.81641 389.304C11.203 384.203 22.4167 382.273 35.7852 382.273C55.6717 382.273 80.1666 386.545 106.903 390.83C133.618 395.111 162.54 399.398 191.205 399.398C228.179 399.398 264.77 392.268 295.66 368.816C324.949 346.591 352.822 338.67 380.02 338.67C414.09 338.67 447.064 351.137 480.269 363.65C513.438 376.151 546.837 388.696 581.624 388.696C621.39 388.696 662.845 372.324 707.932 321.143L708.626 320.359C738.081 287.382 776.778 274.823 815.897 274.823Z" fill="white"/>
<path d="M837.398 229.87C881.269 229.87 925.717 245.111 959.503 265.769C976.394 276.096 990.603 287.768 1000.74 299.547C1010.88 311.335 1016.9 323.184 1017.5 333.87C1018.07 343.895 1015.25 358.533 1011.19 375.41C1007.14 392.244 1001.87 411.316 997.614 430.055C993.358 448.807 990.1 467.316 990.072 483.118C990.045 498.902 993.242 512.11 1002.03 520.121C1013.34 530.437 1025.43 536.069 1038 540.123V541.84C1025.15 537.778 1012.87 532.189 1001.25 521.855L1000.41 521.104C988.881 510.601 986.503 491.753 988.646 469.291C990.784 446.867 997.404 421.045 1003.63 396.79C1006.84 384.252 1009.97 372.035 1012.2 361.213C1014.36 350.738 1015.69 341.527 1015.41 334.573L1015.38 333.907C1014.77 323.092 1008.62 311.288 998.494 299.692C988.36 288.088 974.198 276.643 957.46 266.542C923.987 246.343 880.144 231.476 837.454 231.476C790.799 231.476 751.393 249.123 723.591 282.566C679.641 335.362 636.097 359.867 586.538 359.867C548.676 359.867 512.132 345.299 476.651 331.145L476.65 331.144C442.215 317.424 406.492 303.141 370.582 303.141C339.123 303.141 310.2 314.033 282.09 336.43C252.712 359.843 215.414 371.269 168.028 371.269C133.732 371.269 98.8135 365.366 67.9238 360.153C42.8078 355.93 18.963 351.881 0 351.863V350.305C21.1942 350.332 47.5734 355.147 76.4639 359.977C105.412 364.816 136.849 369.663 167.973 369.663C207.286 369.663 246.174 361.894 278.924 336.569L280.479 335.351C311.723 310.429 341.548 301.535 370.526 301.535C407.076 301.535 442.405 315.661 477.963 329.839C513.484 344.002 549.232 358.215 586.482 358.215C628.996 358.215 673.413 339.692 721.679 281.717C752.951 244.159 794.905 229.87 837.398 229.87Z" fill="white"/>
<path d="M1038 350.812C1033 368.087 1027.05 387.156 1022.07 405.902C1016.6 426.478 1012.28 446.734 1011.61 463.934C1010.94 481.111 1013.91 495.383 1023.2 503.834C1028 508.203 1032.94 511.769 1038 514.743V516.865C1032.43 513.693 1027 509.83 1021.69 505.003C1015.55 499.414 1012.03 491.445 1010.47 481.74C1008.92 472.033 1009.33 460.625 1011.04 448.213C1014.44 423.385 1022.98 394.654 1030.99 367.677C1033.43 359.462 1035.83 351.376 1038 343.677V350.812Z" fill="white"/>
<path d="M1038 414.484C1035.6 425.281 1033.88 435.593 1033.21 445.029C1032.24 458.612 1033.45 470.464 1038 479.329V483.136C1034.52 477.857 1032.44 471.327 1031.49 463.805C1030.16 453.242 1031.06 440.767 1033.42 427.161C1034.61 420.266 1036.17 413.089 1038 405.732V414.484Z" fill="white"/>
<path d="M858.787 184.684C905.754 184.684 953.383 201.517 989.212 224.388C1007.12 235.822 1022.07 248.755 1032.5 261.827C1034.51 264.337 1036.34 266.85 1038 269.357V273.095C1037.74 272.674 1037.49 272.251 1037.22 271.829C1030.97 261.916 1021.79 251.721 1010.12 241.924C969.93 208.204 910.619 186.43 858.898 186.43C807.153 186.43 766.684 205.991 737.321 242.973C690.519 301.867 644.185 329.247 591.396 329.247C551.082 329.247 512.141 312.96 474.369 297.176C437.644 281.828 399.517 265.865 361.088 265.865C327.668 265.865 296.843 277.972 266.892 302.79C235.617 328.758 195.697 341.393 144.685 341.393C107.598 341.393 69.7767 334.794 36.4297 328.976C23.8368 326.781 11.5586 324.634 0 322.97V321.229C14.2852 323.275 29.7612 326.08 45.9971 328.891C77.1794 334.289 111.13 339.694 144.685 339.694C187.695 339.694 230.103 330.839 265.241 301.652C298.553 274.034 330.217 264.167 361.032 264.167C400.034 264.167 437.732 279.964 475.658 295.818C513.544 311.656 551.656 327.548 591.341 327.548C636.656 327.548 683.979 306.828 735.368 242.06C768.317 200.552 813.227 184.684 858.787 184.684Z" fill="white"/>
<path d="M880.176 139.73C930.239 139.73 981.063 158.155 1018.95 183.239C1025.74 187.738 1032.12 192.452 1038 197.309V199.649C995.905 164.172 934.536 141.43 880.344 141.43C824.795 141.43 781.979 162.858 751.054 203.473C701.456 268.511 652.33 298.72 596.367 298.72C556.273 298.72 517.432 282.936 479.678 266.576L472.142 263.301C433.072 246.325 392.541 228.684 351.65 228.684C316.714 228.684 284.51 241.592 253.187 268.021L251.695 269.29C218.522 297.767 175.925 311.656 121.342 311.656C81.4642 311.656 40.7956 304.36 4.87988 297.891C3.24816 297.597 1.62088 297.307 0 297.016V295.236C5.03066 296.139 10.1489 297.064 15.3418 297.99C48.7512 303.947 85.216 309.911 121.229 309.911C167.258 309.911 212.683 300.171 249.944 268.142C285.267 237.826 318.829 226.984 351.538 226.984C393.02 226.984 433.089 244.442 473.376 261.961C513.62 279.461 554.081 297.02 596.199 297.021C644.316 297.02 694.487 274.151 749.001 202.589C783.681 157.084 831.549 139.731 880.176 139.73Z" fill="white"/>
<path d="M901.621 94.7305C950.151 94.7306 999.395 111.424 1038 135.1V137.039C997.287 111.726 947.315 96.4297 901.788 96.4297C842.493 96.4298 797.274 119.77 764.787 163.924C712.45 235.06 660.531 268.1 601.337 268.1C556.061 268.099 512.266 248.422 469.802 229.286C428.388 210.636 385.452 191.315 342.156 191.315C304.65 191.315 270.024 205.849 236.444 235.695L234.79 237.135C199.897 267.105 155.076 281.734 97.7744 281.734C64.7244 281.734 31.2349 276.949 0 271.508V269.76C31.3465 275.231 64.7528 280.035 97.7744 280.035C146.876 280.035 195.264 269.41 234.76 234.585L234.762 234.584C272.039 201.478 307.554 189.616 342.101 189.616C386.036 189.616 428.475 208.759 471.144 227.965C513.767 247.151 556.618 266.4 601.226 266.4C652.086 266.4 705.161 241.382 762.743 163.074C799.156 113.617 849.982 94.7305 901.621 94.7305Z" fill="white"/>
<path d="M923.345 49.6836C962.977 49.6836 1003.08 60.4092 1038 77.0605V78.9502C1001.71 61.5194 961.236 51.4298 923.457 51.4297C881.251 51.4297 821.815 64.075 778.8 124.421C723.667 201.702 668.957 237.572 606.643 237.572C558.969 237.572 512.775 216.177 467.964 195.411C424.206 175.133 378.81 154.087 333.054 154.087C293.477 154.087 257.005 169.835 221.528 202.148C184.503 235.645 136.494 251.951 74.6543 251.951C49.6683 251.951 24.4444 249.329 0 245.695V243.932C24.4292 247.578 49.596 250.206 74.543 250.206C126.366 250.206 177.267 238.875 218.818 201.861L219.798 200.981L219.8 200.98C259.088 165.177 296.555 152.342 332.997 152.342C379.414 152.342 424.24 173.144 469.282 194.015C514.278 214.864 559.491 235.78 606.531 235.78C660.191 235.78 716.115 208.567 776.766 123.513L777.662 122.266C815.75 69.7394 869.065 49.6837 923.345 49.6836Z" fill="white"/>
<path d="M944.734 4.68457C976.41 4.68462 1008.38 11.2941 1038 22.2744V24.0508C1007.47 12.6825 975.26 6.33693 944.622 6.33691C899.956 6.33701 837.279 19.9613 792.255 84.7773C734.383 168.157 676.937 206.858 611.39 206.858C564.395 206.858 518.749 186.584 474.463 165.597L465.623 161.396C419.521 139.49 371.721 116.719 323.504 116.719C281.857 116.719 243.486 133.634 206.167 168.414L205.252 169.256C166.449 204.74 115.987 221.982 50.9756 221.982C33.9936 221.982 16.9069 220.822 0 218.955V217.361C16.9447 219.246 34.0656 220.423 51.0869 220.423C105.959 220.423 159.855 208.22 203.526 168.372L204.557 167.426L204.558 167.425C245.914 128.923 285.279 115.113 323.56 115.113C372.458 115.113 419.668 137.588 467.085 160.135C514.453 182.658 562.028 205.253 611.501 205.253C667.903 205.253 726.676 175.892 790.451 84.0449C830.273 26.6358 887.015 4.6846 944.734 4.68457Z" fill="white"/>
<path d="M848.021 0C833.208 11.5656 819.036 26.3712 806.269 45.2275C745.658 134.752 685.421 176.285 616.751 176.285C567.507 176.285 519.612 154.498 473.073 131.979L463.784 127.473C415.336 103.892 365.078 79.4903 314.345 79.4902C270.628 79.4903 230.358 97.618 191.141 134.865L190.182 135.767C149.482 173.768 96.2996 192.246 27.6875 192.246C18.4707 192.246 9.22825 191.916 0 191.327V189.674C9.21198 190.264 18.4358 190.594 27.6318 190.594C85.5527 190.594 142.499 177.52 188.291 134.837L189.37 133.823L189.371 133.822C232.738 92.5758 274.056 77.8379 314.233 77.8379C365.614 77.838 415.21 101.974 465.001 126.185C514.742 150.371 564.678 174.632 616.583 174.632C675.783 174.632 737.405 143.079 804.193 44.4854C816.349 26.5356 830.053 11.8278 844.88 0H848.021Z" fill="white"/>
<path d="M823.666 0C822.358 1.8529 821.062 3.7438 819.781 5.67578L819.78 5.67676C756.431 101.299 693.457 145.664 621.609 145.664C566.628 145.664 513.237 119.204 461.498 93.5498C410.705 68.3409 357.988 42.2159 304.795 42.2158C259.009 42.216 216.783 61.5553 175.779 101.27L174.775 102.229C132.18 142.702 76.3315 162.417 4.00879 162.417C2.67304 162.417 1.33668 162.408 0 162.395V160.836C1.3553 160.849 2.71023 160.857 4.06445 160.857C65.0895 160.857 124.975 146.912 172.995 101.396L174.128 100.314L174.129 100.313C219.507 56.3689 262.779 40.6563 304.852 40.6562C358.715 40.6564 410.711 66.4531 462.89 92.3281C515.017 118.178 567.328 144.104 621.665 144.104C683.606 144.104 748.076 110.405 817.934 5.01855C819.06 3.31808 820.201 1.64607 821.353 0H823.666Z" fill="white"/>
<path d="M810.246 0C751.948 78.3687 693.051 115.05 626.914 115.091C569.534 115.091 513.743 86.9568 459.714 59.6738C406.576 32.8368 351.456 4.98735 295.748 4.9873C247.893 4.98741 203.767 25.5392 160.866 67.7197L159.816 68.7393C119.103 108.032 66.7197 128.912 0 132.214V130.696C57.3471 127.848 112.718 111.494 157.868 68.001L159.052 66.8525L159.053 66.8516C206.498 20.2084 251.668 3.52054 295.692 3.52051C352.039 3.52055 406.42 30.9793 460.974 58.5186C515.474 86.031 570.146 113.624 626.915 113.624C684.51 113.624 744.101 85.2521 807.863 0H810.246Z" fill="white"/>
<path d="M186.662 0C172.819 9.339 159.161 20.733 145.617 34.2168L144.522 35.2959C106.763 72.2951 59.2247 93.8472 0 100.613V98.9941C52.4583 92.9549 102.402 74.368 143.809 33.251C157.126 19.964 170.28 8.97131 183.286 0H186.662Z" fill="white"/>
<path d="M793.107 0C742.017 57.4591 689.685 84.6562 632.053 84.6562C572.218 84.6562 514.082 54.8494 457.707 25.8906C440.481 17.0616 423.063 8.1268 405.493 0H409.634C426.063 7.70517 442.453 16.1102 458.855 24.5234C515.735 53.6987 572.768 82.9569 631.94 82.957C682.74 82.957 735.03 61.398 790.178 0H793.107Z" fill="white"/>
<path d="M130.369 0.574219L129.229 1.71387C94.6157 36.1024 51.9936 57.8515 0 67.4307V65.8506C46.8184 57.147 91.0159 37.4649 128.374 0H130.942C130.752 0.191591 130.56 0.381822 130.369 0.574219Z" fill="white"/>
<path d="M769.345 0C727.289 36.5038 683.861 53.9891 637.079 53.9893C580.333 53.9892 524.999 27.7764 471.164 0H474.891C528.181 27.4404 581.76 52.4037 637.135 52.3828L638.781 52.376C680.091 52.0047 722.374 37.6051 766.26 0H769.345Z" fill="white"/>
<path d="M75.2773 0C52.8203 14.7083 27.803 25.618 0 32.8115V31.1436C25.1338 24.5622 49.3329 14.5262 71.9668 0H75.2773Z" fill="white"/>
<path d="M732.423 0C703.496 15.6908 673.669 23.3222 642.384 23.3223C607.76 23.3222 573.624 13.7928 540.009 0H544.296C576.581 12.9684 609.178 21.7278 642.384 21.7158C670.587 21.7158 699.205 15.3916 728.432 0H732.423Z" fill="white"/>
</g>
</svg>
