<svg width="70" height="70" viewBox="0 0 70 70" fill="none" xmlns="http://www.w3.org/2000/svg">
<circle cx="35" cy="35" r="35" fill="white"/>
<path fill-rule="evenodd" clip-rule="evenodd" d="M53.0806 9.4992C50.3671 16.4591 44.1895 17.9072 35.2408 17.9072C34.2804 17.9072 33.3291 17.8921 32.4109 17.8785C31.5231 17.8664 30.6834 17.8529 29.8604 17.8529C29.1296 17.8529 28.3927 17.8619 27.6664 17.8936C28.9197 14.8161 30.9206 12.7247 33.7686 11.4562C37.7385 9.68946 42.8999 9.67134 47.4542 9.65776C49.4384 9.65021 51.3381 9.64266 53.0806 9.4992Z" fill="#008F32"/>
<path fill-rule="evenodd" clip-rule="evenodd" d="M55.8777 11.7312C51.8639 20.4745 42.9183 21.3503 35.2502 21.3503C33.5665 21.3503 31.9537 21.3095 30.4603 21.3005L28.5289 28.8538C38.4199 20.7902 51.4999 28.7844 50.1016 40.9524C49.1594 49.1475 43.317 54.5068 37.1363 56.047C30.403 57.7263 22.9433 55.2134 19.5984 48.3517C19.2435 47.6269 18.626 46.1742 18.3904 45.398L25.4907 43.5739C25.616 43.9831 25.829 44.3788 26.0524 44.7397C30.8062 52.4062 40.4388 48.5722 41.526 40.6187C42.6329 32.5278 31.2803 28.2181 26.1068 37.6741L19.8098 34.9907L19.7011 34.9424L22.7378 22.7517C22.9251 21.8848 23.5563 19.4642 23.6651 19.0671C27.0973 6.44602 38.2008 6.24669 47.1073 6.21347C43.4241 4.68076 39.3863 3.8321 35.1475 3.8321C17.9328 3.8321 3.97986 17.7851 3.97986 34.9998C3.97986 52.2145 17.9328 66.1674 35.1475 66.1674C52.3623 66.1674 66.3152 52.2145 66.3152 34.9998C66.3152 25.7461 62.2803 17.4393 55.8777 11.7312Z" fill="#EB2316"/>
</svg>
