<svg width="689" height="102" viewBox="0 0 689 102" fill="none" xmlns="http://www.w3.org/2000/svg">
<g clip-path="url(#clip0_333_1861)">
<path d="M639.363 96.3424C624.457 96.3353 613.469 92.8982 606.4 86.0308C599.331 79.1635 595.8 69.6285 595.806 57.4258C595.811 45.2925 599.352 35.8301 606.427 29.0388C613.572 22.1782 624.563 18.7514 639.4 18.7584C654.237 18.7654 665.19 22.2026 672.259 29.0699C679.328 35.868 682.859 45.3336 682.854 57.467C682.848 69.6696 679.307 79.2013 672.232 86.0619C665.157 92.9226 654.201 96.3494 639.363 96.3424ZM639.476 78.1424C645.855 78.1455 650.501 76.2063 653.415 72.325C656.328 68.3744 657.787 63.4178 657.79 57.4551C657.792 51.5618 656.339 46.6731 653.429 42.789C650.518 38.8357 645.874 36.8575 639.495 36.8544C632.909 36.8513 628.124 38.8251 625.141 42.7757C622.227 46.657 620.768 51.5443 620.766 57.4376C620.763 63.3309 622.216 68.2543 625.127 72.2077C628.106 76.1611 632.889 78.1393 639.476 78.1424Z" fill="#5D279E"/>
<path d="M543.996 96.2972C529.089 96.2902 518.102 92.853 511.033 85.9856C503.964 79.1183 500.433 69.5833 500.439 57.3806C500.444 45.2473 503.985 35.785 511.06 28.9936C518.205 22.133 529.195 18.7062 544.033 18.7132C558.87 18.7202 569.823 22.1574 576.892 29.0248C583.961 35.8228 587.492 45.2885 587.487 57.4218C587.481 69.6245 583.94 79.1561 576.865 86.0168C569.79 92.8774 558.833 96.3042 543.996 96.2972ZM544.109 78.0973C550.487 78.1003 555.134 76.1612 558.047 72.2799C560.961 68.3292 562.42 63.3726 562.422 57.4099C562.425 51.5166 560.972 46.6279 558.061 42.7439C555.151 38.7905 550.507 36.8123 544.128 36.8093C537.542 36.8062 532.757 38.7799 529.773 42.7305C526.86 46.6118 525.401 51.4991 525.399 57.3924C525.396 63.2858 526.849 68.2091 529.76 72.1625C532.739 76.1159 537.522 78.0942 544.109 78.0973Z" fill="#5D279E"/>
<path d="M448.629 96.2521C433.722 96.245 422.735 92.8078 415.666 85.9405C408.597 79.0731 405.066 69.5381 405.071 57.3355C405.077 45.2021 408.618 35.7398 415.693 28.9485C422.837 22.0879 433.828 18.661 448.666 18.6681C463.503 18.6751 474.456 22.1123 481.525 28.9796C488.594 35.7776 492.125 45.2433 492.119 57.3766C492.114 69.5793 488.573 79.111 481.498 85.9716C474.423 92.8323 463.466 96.2591 448.629 96.2521ZM448.742 78.0521C455.12 78.0551 459.766 76.116 462.68 72.2347C465.594 68.2841 467.053 63.3274 467.055 57.3648C467.058 51.4714 465.604 46.5828 462.694 42.6987C459.784 38.7453 455.14 36.7671 448.761 36.7641C442.174 36.761 437.389 38.7347 434.406 42.6853C431.492 46.5666 430.034 51.4539 430.031 57.3473C430.029 63.2406 431.482 68.1639 434.392 72.1173C437.372 76.0707 442.155 78.049 448.742 78.0521Z" fill="#5D279E"/>
<path d="M332.441 96.1971C317.535 96.1901 306.547 92.7529 299.478 85.8855C292.41 79.0182 288.878 69.4832 288.884 57.2805C288.89 45.1472 292.43 35.6849 299.505 28.8935C306.65 22.0329 317.641 18.6061 332.478 18.6131C347.315 18.6201 358.268 22.0573 365.337 28.9247C372.406 35.7227 375.938 45.1884 375.932 57.3217C375.926 69.5244 372.386 79.056 365.31 85.9167C358.235 92.7773 347.279 96.2041 332.441 96.1971ZM332.554 77.9972C338.933 78.0002 343.579 76.0611 346.493 72.1798C349.407 68.2291 350.865 63.2725 350.868 57.3098C350.871 51.4165 349.417 46.5278 346.507 42.6438C343.597 38.6904 338.952 36.7122 332.574 36.7092C325.987 36.7061 321.202 38.6798 318.219 42.6304C315.305 46.5117 313.847 51.399 313.844 57.2923C313.841 63.1857 315.295 68.109 318.205 72.0624C321.184 76.0158 325.967 77.9941 332.554 77.9972Z" fill="#5D279E"/>
<path d="M237.074 96.152C222.168 96.1449 211.18 92.7077 204.111 85.8404C197.042 78.973 193.511 69.438 193.517 57.2354C193.522 45.102 197.063 35.6397 204.138 28.8484C211.283 21.9878 222.274 18.561 237.111 18.568C251.948 18.575 262.901 22.0122 269.97 28.8795C277.039 35.6775 280.57 45.1432 280.565 57.2765C280.559 69.4792 277.018 79.0109 269.943 85.8715C262.868 92.7322 251.912 96.159 237.074 96.152ZM237.187 77.952C243.566 77.955 248.212 76.0159 251.126 72.1346C254.039 68.184 255.498 63.2273 255.501 57.2647C255.503 51.3713 254.05 46.4827 251.14 42.5986C248.229 38.6452 243.585 36.667 237.206 36.664C230.62 36.6609 225.835 38.6346 222.852 42.5852C219.938 46.4665 218.479 51.3538 218.477 57.2472C218.474 63.1405 219.928 68.0638 222.838 72.0172C225.817 75.9706 230.6 77.9489 237.187 77.952Z" fill="#5D279E"/>
<path d="M141.707 96.107C126.8 96.1 115.813 92.6628 108.744 85.7955C101.675 78.9281 98.1437 69.3931 98.1495 57.1904C98.1552 45.0571 101.696 35.5948 108.771 28.8035C115.915 21.9428 126.906 18.516 141.744 18.523C156.581 18.5301 167.534 21.9672 174.603 28.8346C181.672 35.6326 185.203 45.0983 185.197 57.2316C185.192 69.4343 181.651 78.9659 174.576 85.8266C167.501 92.6872 156.544 96.1141 141.707 96.107ZM141.82 77.9071C148.198 77.9101 152.845 75.971 155.758 72.0897C158.672 68.1391 160.131 63.1824 160.133 57.2197C160.136 51.3264 158.683 46.4377 155.772 42.5537C152.862 38.6003 148.218 36.6221 141.839 36.6191C135.253 36.616 130.468 38.5897 127.484 42.5403C124.571 46.4216 123.112 51.3089 123.109 57.2022C123.107 63.0956 124.56 68.0189 127.47 71.9723C130.45 75.9257 135.233 77.904 141.82 77.9071Z" fill="#5D279E"/>
<path d="M57.9877 75.7874C64.2278 75.6517 68.8385 75.5152 71.8199 75.3779L71.8106 95.0339L16.7946 95.0079L16.8039 75.3519C24.2918 75.6328 29.9424 75.7741 33.7557 75.7759L33.7727 39.8959C31.2741 45.3721 26.1764 48.9057 18.4797 50.4967C18.2755 42.3153 17.5164 34.8616 16.2022 28.1356C21.7493 27.3756 25.5977 26.4414 27.7476 25.3331C29.9668 24.1555 31.6661 22.8736 32.8454 21.4875C34.094 20.1014 34.9265 19.1658 35.3427 18.6807L35.3428 18.4727L58.0148 18.4834L57.9877 75.7874Z" fill="#5D279E"/>
<path d="M682.854 57.4664C682.859 45.3333 679.327 35.8677 672.259 29.0698C665.411 22.4171 654.918 18.9832 640.779 18.7688L639.4 18.7583C624.563 18.7513 613.571 22.178 606.427 29.0386C599.352 35.8299 595.812 45.2922 595.806 57.4252L595.815 58.5619C596.024 70.2216 599.552 79.3781 606.4 86.0308C613.247 92.6835 623.773 96.1173 637.977 96.3319L639.364 96.3423C653.969 96.3492 664.814 93.0288 671.898 86.3811L672.232 86.062C679.086 79.4157 682.623 70.2627 682.842 58.6031L682.854 57.4664ZM653.789 57.4526C653.791 52.3982 652.594 48.4915 650.439 45.4764L650.228 45.1873L650.217 45.1736L650.207 45.1599C648.268 42.5256 645.019 40.8567 639.493 40.8541C633.712 40.8514 630.325 42.5484 628.333 45.1857C626.046 48.2357 624.768 52.2262 624.766 57.4389L624.769 57.9252C624.844 62.8869 626.101 66.7668 628.321 69.8C630.311 72.4393 633.696 74.1394 639.478 74.1422L639.476 78.1422C632.889 78.139 628.106 76.1609 625.127 72.2076C622.308 68.3777 620.855 63.6374 620.769 57.9868L620.766 57.437C620.768 51.7279 622.137 46.963 624.872 43.1421L625.141 42.776C628.124 38.8254 632.909 36.851 639.495 36.8541C645.874 36.8571 650.519 38.836 653.429 42.7894C656.339 46.6733 657.792 51.5616 657.789 57.4545C657.786 63.417 656.329 68.374 653.415 72.3245C650.501 76.2058 645.854 78.1452 639.476 78.1422L639.478 74.1422C645.018 74.1448 648.271 72.5023 650.204 69.9373C652.504 66.8124 653.787 62.7416 653.789 57.4526ZM686.842 58.6812C686.606 71.1425 682.794 81.3914 675.016 88.9334C666.892 96.8118 654.722 100.35 639.362 100.342C624.179 100.335 612.116 96.8984 603.997 89.266L603.613 88.8996C595.592 81.1068 591.8 70.4333 591.806 57.4233C591.812 44.477 595.618 33.8692 603.657 26.1526C611.846 18.2899 624.038 14.7511 639.402 14.7583C654.753 14.7656 666.913 18.3106 675.031 26.1863L675.031 26.1863C683.063 33.9105 686.86 44.5219 686.854 57.4683L686.842 58.6812Z" fill="#5D279E"/>
<path d="M587.487 57.4215C587.492 45.2883 583.96 35.8228 576.892 29.0248C570.044 22.3722 559.551 18.9383 545.412 18.7238L544.033 18.7134C529.196 18.7064 518.204 22.1331 511.06 28.9937C503.985 35.7849 500.445 45.2473 500.439 57.3803L500.448 58.517C500.657 70.1767 504.185 79.3332 511.033 85.9859C517.88 92.6386 528.406 96.0724 542.61 96.287L543.996 96.2974C558.602 96.3042 569.446 92.9839 576.53 86.3362L576.865 86.017C583.719 79.3708 587.256 70.2177 587.475 58.5582L587.487 57.4215ZM558.422 57.4077C558.424 52.3532 557.227 48.4466 555.072 45.4315L554.861 45.1424L554.85 45.1287L554.84 45.115C552.901 42.4807 549.652 40.8118 544.126 40.8092C538.345 40.8065 534.958 42.5035 532.966 45.1408C530.679 48.1908 529.401 52.1812 529.399 57.394L529.402 57.8803C529.477 62.8419 530.734 66.7219 532.954 69.7551C534.944 72.3944 538.329 74.0945 544.11 74.0972L544.109 78.0972C537.522 78.0941 532.739 76.116 529.76 72.1627C526.941 68.3328 525.488 63.5925 525.402 57.9419L525.399 57.3921C525.401 51.6829 526.77 46.918 529.505 43.0972L529.774 42.7311C532.757 38.7805 537.542 36.8061 544.128 36.8092C550.507 36.8122 555.152 38.7911 558.062 42.7445C560.972 46.6283 562.425 51.5167 562.422 57.4096C562.419 63.3721 560.962 68.3291 558.048 72.2796C555.134 76.1609 550.487 78.1003 544.109 78.0972L544.11 74.0972C549.651 74.0999 552.904 72.4574 554.837 69.8924C557.137 66.7675 558.42 62.6967 558.422 57.4077ZM591.475 58.6362C591.239 71.0976 587.427 81.3465 579.649 88.8885C571.524 96.7669 559.355 100.305 543.995 100.297C528.811 100.29 516.749 96.8535 508.63 89.2211L508.246 88.8547C500.225 81.0619 496.433 70.3884 496.439 57.3784C496.445 44.4321 500.251 33.8242 508.29 26.1076C516.479 18.245 528.671 14.7061 544.035 14.7134C559.386 14.7207 571.546 18.2657 579.663 26.1414L579.664 26.1414C587.696 33.8656 591.493 44.477 591.487 57.4234L591.475 58.6362Z" fill="#5D279E"/>
<path d="M492.119 57.3763C492.125 45.2432 488.593 35.7776 481.524 28.9797C474.676 22.327 464.183 18.8931 450.045 18.6787L448.666 18.6682C433.829 18.6612 422.837 22.0879 415.692 28.9486C408.617 35.7398 405.077 45.2021 405.072 57.3351L405.081 58.4719C405.289 70.1316 408.818 79.288 415.665 85.9407C422.513 92.5934 433.039 96.0272 447.243 96.2418L448.629 96.2522C463.235 96.2591 474.079 92.9387 481.163 86.291L481.497 85.9719C488.352 79.3256 491.888 70.1726 492.108 58.513L492.119 57.3763ZM463.055 57.3626C463.057 52.3081 461.86 48.4014 459.705 45.3864L459.493 45.0972L459.483 45.0835L459.473 45.0698C457.534 42.4355 454.284 40.7666 448.759 40.764C442.978 40.7613 439.59 42.4583 437.599 45.0956C435.312 48.1457 434.034 52.1361 434.031 57.3488L434.035 57.8352C434.11 62.7968 435.367 66.6768 437.587 69.7099C439.576 72.3492 442.962 74.0493 448.743 74.0521L448.741 78.0521C442.155 78.0489 437.372 76.0708 434.393 72.1176C431.573 68.2877 430.121 63.5473 430.035 57.8967L430.031 57.3469C430.034 51.6378 431.403 46.8729 434.138 43.052L434.407 42.6859C437.39 38.7354 442.174 36.7609 448.761 36.764C455.14 36.767 459.785 38.7459 462.695 42.6993C465.605 46.5832 467.058 51.4716 467.055 57.3644C467.052 63.3269 465.594 68.2839 462.681 72.2345C459.767 76.1157 455.12 78.0551 448.741 78.0521L448.743 74.0521C454.284 74.0547 457.537 72.4122 459.47 69.8472C461.77 66.7223 463.052 62.6515 463.055 57.3626ZM496.108 58.5911C495.872 71.0525 492.06 81.3013 484.282 88.8433C476.157 96.7218 463.988 100.259 448.627 100.252C433.444 100.245 421.382 96.8084 413.263 89.1759L412.879 88.8095C404.858 81.0167 401.065 70.3432 401.072 57.3332C401.078 44.3869 404.884 33.7791 412.923 26.0625C421.112 18.1998 433.303 14.661 448.668 14.6682C464.019 14.6756 476.179 18.2205 484.296 26.0962L484.297 26.0962C492.329 33.8204 496.125 44.4318 496.119 57.3782L496.108 58.5911Z" fill="#5D279E"/>
<path d="M375.932 57.3214C375.938 45.1882 372.406 35.7227 365.337 28.9248C358.489 22.2721 347.996 18.8382 333.857 18.6237L332.478 18.6133C317.641 18.6063 306.649 22.033 299.505 28.8936C292.43 35.6848 288.89 45.1472 288.884 57.2802L288.893 58.4169C289.102 70.0766 292.63 79.2331 299.478 85.8858C306.326 92.5385 316.852 95.9723 331.055 96.1869L332.442 96.1973C347.047 96.2041 357.892 92.8838 364.976 86.2361L365.31 85.9169C372.164 79.2707 375.701 70.1176 375.921 58.4581L375.932 57.3214ZM346.867 57.3076C346.87 52.2531 345.672 48.3465 343.518 45.3314L343.306 45.0423L343.295 45.0286L343.285 45.0149C341.346 42.3806 338.097 40.7117 332.572 40.7091C326.791 40.7064 323.403 42.4034 321.411 45.0407C319.125 48.0907 317.847 52.0811 317.844 57.2939L317.848 57.7802C317.922 62.7418 319.18 66.6218 321.4 69.655C323.389 72.2943 326.775 73.9944 332.556 73.9971L332.554 77.9971C325.967 77.994 321.185 76.0159 318.205 72.0626C315.386 68.2327 313.933 63.4924 313.848 57.8418L313.844 57.292C313.847 51.5828 315.216 46.8179 317.95 42.9971L318.219 42.631C321.202 38.6804 325.987 36.706 332.573 36.7091C338.952 36.7121 343.597 38.691 346.507 42.6444C349.417 46.5282 350.87 51.4166 350.867 57.3095C350.865 63.272 349.407 68.229 346.493 72.1795C343.579 76.0608 338.933 78.0002 332.554 77.9971L332.556 73.9971C338.096 73.9998 341.349 72.3573 343.282 69.7923C345.583 66.6674 346.865 62.5966 346.867 57.3076ZM379.921 58.5361C379.684 70.9975 375.873 81.2464 368.095 88.7884C359.97 96.6668 347.801 100.205 332.44 100.197C317.257 100.19 305.194 96.7534 297.075 89.121L296.691 88.7546C288.67 80.9618 284.878 70.2883 284.884 57.2783C284.89 44.332 288.697 33.7241 296.736 26.0075C304.924 18.1449 317.116 14.6061 332.48 14.6133C347.832 14.6206 359.991 18.1656 368.109 26.0413L368.11 26.0413C376.142 33.7655 379.938 44.3769 379.932 57.3233L379.921 58.5361Z" fill="#5D279E"/>
<path d="M280.565 57.2762C280.57 45.1431 277.038 35.6775 269.97 28.8796C263.122 22.2269 252.629 18.793 238.49 18.5786L237.111 18.5681C222.274 18.5611 211.282 21.9878 204.138 28.8485C197.063 35.6397 193.523 45.102 193.517 57.235L193.526 58.3718C193.735 70.0315 197.263 79.1879 204.111 85.8406C210.959 92.4933 221.485 95.9271 235.688 96.1417L237.075 96.1521C251.68 96.159 262.525 92.8386 269.609 86.1909L269.943 85.8718C276.797 79.2255 280.334 70.0725 280.553 58.4129L280.565 57.2762ZM251.5 57.2625C251.503 52.208 250.305 48.3013 248.15 45.2863L247.939 44.9971L247.928 44.9834L247.918 44.9697C245.979 42.3354 242.73 40.6665 237.204 40.6639C231.423 40.6612 228.036 42.3582 226.044 44.9955C223.758 48.0456 222.479 52.036 222.477 57.2487L222.48 57.7351C222.555 62.6967 223.812 66.5767 226.032 69.6098C228.022 72.2491 231.407 73.9492 237.189 73.952L237.187 77.952C230.6 77.9488 225.817 75.9707 222.838 72.0175C220.019 68.1876 218.566 63.4472 218.48 57.7966L218.477 57.2468C218.48 51.5377 219.848 46.7728 222.583 42.9519L222.852 42.5858C225.835 38.6353 230.62 36.6608 237.206 36.6639C243.585 36.6669 248.23 38.6458 251.14 42.5992C254.05 46.4831 255.503 51.3715 255.5 57.2643C255.497 63.2268 254.04 68.1838 251.126 72.1344C248.212 76.0156 243.565 77.955 237.187 77.952L237.189 73.952C242.729 73.9546 245.982 72.3121 247.915 69.7471C250.215 66.6222 251.498 62.5514 251.5 57.2625ZM284.553 58.491C284.317 70.9524 280.505 81.2012 272.728 88.7432C264.603 96.6217 252.434 100.159 237.073 100.152C221.89 100.145 209.827 96.7083 201.708 89.0758L201.324 88.7094C193.303 80.9166 189.511 70.2431 189.517 57.2331C189.523 44.2868 193.329 33.679 201.369 25.9624C209.557 18.0997 221.749 14.5609 237.113 14.5682C252.464 14.5755 264.624 18.1204 272.742 25.9961L272.743 25.9961C280.774 33.7203 284.571 44.3317 284.565 57.2781L284.553 58.491Z" fill="#5D279E"/>
<path d="M185.197 57.231C185.203 45.0979 181.671 35.6323 174.603 28.8344C167.755 22.1818 157.262 18.7478 143.123 18.5334L141.744 18.523C126.907 18.516 115.915 21.9427 108.77 28.8033C101.695 35.5945 98.1555 45.0569 98.1496 57.1899L98.1589 58.3266C98.3675 69.9863 101.896 79.1428 108.744 85.7955C115.591 92.4482 126.117 95.882 140.321 96.0965L141.707 96.107C156.313 96.1138 167.157 92.7935 174.241 86.1458L174.576 85.8266C181.43 79.1804 184.967 70.0273 185.186 58.3677L185.197 57.231ZM156.133 57.2173C156.135 52.1628 154.938 48.2562 152.783 45.2411L152.571 44.9519L152.561 44.9383L152.551 44.9246C150.612 42.2903 147.363 40.6213 141.837 40.6187C136.056 40.616 132.669 42.3131 130.677 44.9504C128.39 48.0004 127.112 51.9908 127.11 57.2036L127.113 57.6899C127.188 62.6515 128.445 66.5315 130.665 69.5646C132.654 72.204 136.04 73.9041 141.821 73.9068L141.82 77.9068C135.233 77.9037 130.45 75.9255 127.471 71.9723C124.652 68.1424 123.199 63.4021 123.113 57.7515L123.11 57.2017C123.112 51.4925 124.481 46.7276 127.216 42.9067L127.485 42.5407C130.468 38.5901 135.252 36.6157 141.839 36.6187C148.218 36.6217 152.863 38.6007 155.773 42.554C158.683 46.4379 160.136 51.3263 160.133 57.2192C160.13 63.1816 158.672 68.1386 155.759 72.0892C152.845 75.9705 148.198 77.9098 141.82 77.9068L141.821 73.9068C147.362 73.9094 150.615 72.2669 152.548 69.7019C154.848 66.577 156.131 62.5062 156.133 57.2173ZM189.186 58.4458C188.95 70.9072 185.138 81.156 177.36 88.698C169.235 96.5765 157.066 100.114 141.706 100.107C126.522 100.1 114.46 96.6631 106.341 89.0307L105.957 88.6643C97.9357 80.8715 94.1435 70.198 94.1496 57.188C94.1559 44.2416 97.9622 33.6338 106.001 25.9172C114.19 18.0545 126.382 14.5157 141.746 14.523C157.097 14.5303 169.257 18.0752 177.374 25.951L177.375 25.951C185.407 33.6752 189.204 44.2866 189.197 57.2329L189.186 58.4458Z" fill="#5D279E"/>
<path d="M35.3427 18.4727L35.3426 18.6807C34.9264 19.1659 34.0938 20.1012 32.8452 21.4872C31.6659 22.8733 29.9669 24.1558 27.7477 25.3334C25.5979 26.4417 21.7493 27.3755 16.2024 28.1355C17.5166 34.8615 18.2758 42.3155 18.4799 50.497C26.1766 48.9059 31.2745 45.3719 33.773 39.8958L33.7561 75.7757L32.2395 75.7691C28.501 75.737 23.3558 75.5974 16.8041 75.3516L16.7948 95.0079L71.8104 95.0339L71.8197 75.3777C68.8383 75.5149 64.2274 75.6514 57.9875 75.7871L58.0146 18.4834L35.3427 18.4727ZM61.9895 71.6924C66.1768 71.5884 69.3888 71.4859 71.6361 71.3825L75.8217 71.1891L75.8086 99.0358L12.7929 99.006L12.8061 71.1994L16.9535 71.3546C22.1175 71.5484 26.3825 71.6726 29.758 71.7328L29.7681 50.3314C26.8158 52.2436 23.2853 53.5884 19.2896 54.4143L14.6007 55.3828L14.4809 50.5966C14.2813 42.5977 13.5401 35.3708 12.2763 28.9022L11.4648 24.7476L15.6594 24.1724C21.1614 23.4185 24.3935 22.5516 25.889 21.7895C27.81 20.7682 29.0479 19.778 29.7986 18.8959L29.8357 18.8519L29.8738 18.81C30.463 18.1559 30.951 17.6095 31.3434 17.1691L31.3446 14.4708L62.0165 14.4853L61.9895 71.6924Z" fill="#5D279E"/>
<path d="M631.369 84.3387C616.462 84.3317 605.475 80.8945 598.406 74.0271C591.337 67.1598 587.806 57.6248 587.811 45.4221C587.817 33.2888 591.358 23.8265 598.433 17.0352C605.577 10.1745 616.568 6.74772 631.406 6.75474C646.243 6.76175 657.196 10.1989 664.265 17.0663C671.334 23.8643 674.865 33.33 674.859 45.4633C674.854 57.666 671.313 67.1976 664.238 74.0583C657.163 80.9189 646.206 84.3457 631.369 84.3387ZM631.482 66.1388C637.86 66.1418 642.506 64.2027 645.42 60.3214C648.334 56.3707 649.793 51.4141 649.795 45.4514C649.798 39.5581 648.344 34.6694 645.434 30.7854C642.524 26.832 637.88 24.8538 631.501 24.8508C624.914 24.8477 620.129 26.8214 617.146 30.772C614.232 34.6533 612.774 39.5406 612.771 45.4339C612.769 51.3273 614.222 56.2506 617.132 60.204C620.112 64.1574 624.895 66.1357 631.482 66.1388Z" fill="white"/>
<path d="M536.002 84.2936C521.095 84.2865 510.107 80.8493 503.039 73.982C495.97 67.1146 492.438 57.5796 492.444 45.377C492.45 33.2436 495.99 23.7813 503.066 16.99C510.21 10.1294 521.201 6.70255 536.038 6.70957C550.876 6.71659 561.829 10.1538 568.898 17.0211C575.966 23.8191 579.498 33.2848 579.492 45.4181C579.486 57.6208 575.946 67.1525 568.871 74.0131C561.795 80.8738 550.839 84.3006 536.002 84.2936ZM536.114 66.0936C542.493 66.0966 547.139 64.1575 550.053 60.2762C552.967 56.3256 554.425 51.3689 554.428 45.4063C554.431 39.5129 552.977 34.6243 550.067 30.7402C547.157 26.7868 542.513 24.8086 536.134 24.8056C529.547 24.8025 524.762 26.7762 521.779 30.7268C518.865 34.6081 517.407 39.4954 517.404 45.3888C517.401 51.2821 518.855 56.2055 521.765 60.1588C524.745 64.1122 529.528 66.0905 536.114 66.0936Z" fill="white"/>
<path d="M440.635 84.2484C425.728 84.2414 414.74 80.8042 407.671 73.9368C400.603 67.0695 397.071 57.5345 397.077 45.3318C397.083 33.1985 400.623 23.7361 407.698 16.9448C414.843 10.0842 425.834 6.65739 440.671 6.6644C455.509 6.67142 466.462 10.1086 473.53 16.9759C480.599 23.774 484.131 33.2396 484.125 45.373C484.119 57.5756 480.579 67.1073 473.503 73.9679C466.428 80.8286 455.472 84.2554 440.635 84.2484ZM440.747 66.0484C447.126 66.0515 451.772 64.1123 454.686 60.231C457.6 56.2804 459.058 51.3238 459.061 45.3611C459.064 39.4678 457.61 34.5791 454.7 30.695C451.79 26.7417 447.145 24.7635 440.767 24.7605C434.18 24.7573 429.395 26.7311 426.412 30.6817C423.498 34.563 422.04 39.4503 422.037 45.3436C422.034 51.2369 423.488 56.1603 426.398 60.1137C429.377 64.0671 434.16 66.0453 440.747 66.0484Z" fill="white"/>
<path d="M324.447 84.1935C309.54 84.1864 298.553 80.7492 291.484 73.8819C284.415 67.0145 280.884 57.4795 280.889 45.2769C280.895 33.1435 284.436 23.6812 291.511 16.8899C298.655 10.0293 309.646 6.60246 324.484 6.60947C339.321 6.61649 350.274 10.0537 357.343 16.921C364.412 23.719 367.943 33.1847 367.937 45.318C367.932 57.5207 364.391 67.0524 357.316 73.913C350.241 80.7737 339.284 84.2005 324.447 84.1935ZM324.56 65.9935C330.938 65.9965 335.585 64.0574 338.498 60.1761C341.412 56.2255 342.871 51.2688 342.873 45.3062C342.876 39.4128 341.423 34.5242 338.512 30.6401C335.602 26.6867 330.958 24.7085 324.579 24.7055C317.993 24.7024 313.208 26.6761 310.224 30.6267C307.311 34.508 305.852 39.3953 305.849 45.2887C305.847 51.182 307.3 56.1054 310.21 60.0587C313.19 64.0121 317.973 65.9904 324.56 65.9935Z" fill="white"/>
<path d="M229.08 84.1483C214.173 84.1413 203.186 80.7041 196.117 73.8367C189.048 66.9694 185.517 57.4344 185.522 45.2317C185.528 33.0984 189.069 23.636 196.144 16.8447C203.288 9.9841 214.279 6.55729 229.117 6.56431C243.954 6.57132 254.907 10.0085 261.976 16.8758C269.045 23.6739 272.576 33.1395 272.57 45.2729C272.565 57.4755 269.024 67.0072 261.949 73.8678C254.874 80.7285 243.917 84.1553 229.08 84.1483ZM229.193 65.9484C235.571 65.9514 240.217 64.0122 243.131 60.1309C246.045 56.1803 247.503 51.2237 247.506 45.261C247.509 39.3677 246.055 34.479 243.145 30.595C240.235 26.6416 235.591 24.6634 229.212 24.6604C222.625 24.6572 217.84 26.631 214.857 30.5816C211.943 34.4629 210.485 39.3502 210.482 45.2435C210.48 51.1368 211.933 56.0602 214.843 60.0136C217.823 63.967 222.606 65.9452 229.193 65.9484Z" fill="white"/>
<path d="M133.713 84.1034C118.806 84.0963 107.818 80.6591 100.75 73.7918C93.6809 66.9245 90.1494 57.3894 90.1551 45.1868C90.1609 33.0534 93.7013 23.5911 100.777 16.7998C107.921 9.93917 118.912 6.51237 133.749 6.51938C148.587 6.5264 159.54 9.96358 166.609 16.8309C173.677 23.6289 177.209 33.0946 177.203 45.2279C177.197 57.4306 173.657 66.9623 166.582 73.8229C159.506 80.6836 148.55 84.1104 133.713 84.1034ZM133.825 65.9034C140.204 65.9064 144.85 63.9673 147.764 60.086C150.678 56.1354 152.136 51.1788 152.139 45.2161C152.142 39.3228 150.688 34.4341 147.778 30.55C144.868 26.5967 140.224 24.6184 133.845 24.6154C127.258 24.6123 122.473 26.5861 119.49 30.5367C116.576 34.4179 115.118 39.3052 115.115 45.1986C115.112 51.0919 116.566 56.0153 119.476 59.9686C122.456 63.9221 127.239 65.9003 133.825 65.9034Z" fill="white"/>
<path d="M49.9934 63.7837C56.2335 63.648 60.8442 63.5115 63.8256 63.3743L63.8163 83.0303L8.8003 83.0043L8.80959 63.3483C16.2975 63.6291 21.9481 63.7705 25.7614 63.7723L25.7784 27.8923C23.2798 33.3684 18.1821 36.902 10.4853 38.493C10.2812 30.3116 9.52207 22.8579 8.20792 16.132C13.7549 15.3719 17.6034 14.4377 19.7532 13.3294C21.9725 12.1518 23.6717 10.8699 24.8511 9.48384C26.0997 8.09776 26.9322 7.16215 27.3484 6.67701L27.3485 6.46901L50.0205 6.47973L49.9934 63.7837Z" fill="white"/>
<path d="M674.859 45.4627C674.865 33.3296 671.333 23.864 664.264 17.0661C657.416 10.4134 646.923 6.97948 632.785 6.76506L631.406 6.75464C616.569 6.74763 605.577 10.1743 598.432 17.035C591.357 23.8262 587.817 33.2885 587.811 45.4215L587.821 46.5583C588.029 58.2179 591.558 67.3744 598.405 74.0271C605.253 80.6798 615.779 84.1136 629.982 84.3282L631.369 84.3386C645.974 84.3455 656.819 81.0251 663.903 74.3774L664.237 74.0583C671.091 67.412 674.628 58.259 674.848 46.5994L674.859 45.4627ZM643.795 45.448C643.797 40.8731 642.753 37.4693 640.994 34.8881L640.632 34.383L640.617 34.3625L640.602 34.342C639.148 32.3672 636.597 30.8528 631.498 30.8504C626.119 30.8479 623.431 32.4069 621.935 34.3879C619.962 37.0226 618.774 40.5645 618.771 45.4362L618.785 46.3366C618.92 50.7423 620.073 54.062 621.942 56.6154C623.439 58.5868 626.126 60.1359 631.484 60.1385L631.481 66.1385C624.895 66.1353 620.112 64.1572 617.133 60.204C614.313 56.3741 612.86 51.6337 612.775 45.9831L612.771 45.4333C612.774 39.7242 614.143 34.9593 616.878 31.1384L617.146 30.7723C620.13 26.8218 624.914 24.8473 631.501 24.8504C637.88 24.8534 642.524 26.8323 645.435 30.7857C648.344 34.6696 649.798 39.5579 649.795 45.4508C649.792 51.4133 648.334 56.3703 645.421 60.3208C642.507 64.2021 637.86 66.1415 631.481 66.1385L631.484 60.1385C636.607 60.1409 639.166 58.6454 640.609 56.7336C642.6 54.0218 643.792 50.3956 643.795 45.448ZM680.847 46.7175C680.602 59.5793 676.655 70.3762 668.415 78.3659C659.765 86.7533 646.989 90.346 631.366 90.3386C615.929 90.3313 603.273 86.8419 594.634 78.7207L594.225 78.3308C585.727 70.0753 581.805 58.8323 581.811 45.4187C581.818 32.066 585.756 20.886 594.277 12.7068L594.688 12.3183C603.388 4.23094 616.024 0.747368 631.409 0.754643C647.031 0.76208 659.804 4.36677 668.446 12.7624L668.445 12.7624C676.944 20.9479 680.865 32.1238 680.859 45.4655L680.847 46.7175Z" fill="#FF49B8"/>
<path d="M579.492 45.4175C579.498 33.2844 575.966 23.8188 568.897 17.0209C562.049 10.3683 551.556 6.93432 537.418 6.71989L536.039 6.70948C521.201 6.70246 510.21 10.1292 503.065 16.9898C495.99 23.781 492.45 33.2434 492.444 45.3764L492.454 46.5131C492.662 58.1728 496.191 67.3293 503.038 73.982C509.886 80.6346 520.412 84.0685 534.615 84.283L536.002 84.2935C550.607 84.3003 561.452 80.98 568.536 74.3323L568.87 74.0131C575.724 67.3669 579.261 58.2138 579.481 46.5542L579.492 45.4175ZM548.428 45.4028C548.43 40.8279 547.386 37.4241 545.627 34.8429L545.265 34.3379L545.25 34.3174L545.235 34.2968C543.781 32.322 541.23 30.8076 536.131 30.8052C530.752 30.8027 528.064 32.3617 526.568 34.3427C524.595 36.9774 523.407 40.5194 523.404 45.391L523.418 46.2914C523.553 50.6971 524.706 54.0169 526.575 56.5702C528.072 58.5417 530.759 60.0907 536.117 60.0933L536.114 66.0933C529.528 66.0902 524.745 64.112 521.765 60.1588C518.946 56.3289 517.493 51.5885 517.408 45.938L517.404 45.3882C517.407 39.679 518.776 34.9141 521.511 31.0932L521.779 30.7272C524.763 26.7766 529.547 24.8021 536.134 24.8052C542.512 24.8082 547.157 26.7871 550.067 30.7405C552.977 34.6244 554.43 39.5128 554.428 45.4057C554.425 51.3681 552.967 56.3251 550.054 60.2757C547.14 64.157 542.493 66.0963 536.114 66.0933L536.117 60.0933C541.24 60.0957 543.799 58.6002 545.242 56.6884C547.233 53.9766 548.425 50.3504 548.428 45.4028ZM585.48 46.6723C585.235 59.5341 581.287 70.3311 573.048 78.3207C564.398 86.7082 551.622 90.3008 535.999 90.2935C520.562 90.2862 507.906 86.7968 499.266 78.6755L498.858 78.2857C490.36 70.0301 486.438 58.7872 486.444 45.3735C486.451 32.0209 490.389 20.8409 498.91 12.6616L499.321 12.2732C508.021 4.18577 520.657 0.702202 536.042 0.709477C551.664 0.716914 564.437 4.3216 573.079 12.7172L573.078 12.7172C581.577 20.9027 585.498 32.0787 585.492 45.4204L585.48 46.6723Z" fill="#FF49B8"/>
<path d="M484.125 45.3724C484.131 33.2392 480.599 23.7737 473.53 16.9757C466.682 10.3231 456.189 6.88915 442.051 6.67473L440.672 6.66431C425.834 6.65729 414.843 10.084 407.698 16.9446C400.623 23.7358 397.083 33.1982 397.077 45.3312L397.086 46.4679C397.295 58.1276 400.823 67.2841 407.671 73.9368C414.519 80.5895 425.045 84.0233 439.248 84.2379L440.635 84.2483C455.24 84.2551 466.085 80.9348 473.169 74.2871L473.503 73.9679C480.357 67.3217 483.894 58.1686 484.114 46.5091L484.125 45.3724ZM453.061 45.3577C453.063 40.7828 452.019 37.3789 450.26 34.7978L449.898 34.2927L449.883 34.2722L449.868 34.2517C448.414 32.2768 445.862 30.7625 440.764 30.7601C435.385 30.7575 432.696 32.3165 431.201 34.2975C429.228 36.9322 428.039 40.4742 428.037 45.3458L428.05 46.2462C428.186 50.652 429.338 53.9717 431.208 56.5251C432.705 58.4965 435.392 60.0456 440.75 60.0481L440.747 66.0481C434.161 66.045 429.378 64.0669 426.398 60.1136C423.579 56.2837 422.126 51.5434 422.041 45.8928L422.037 45.343C422.04 39.6338 423.409 34.8689 426.143 31.0481L426.412 30.682C429.395 26.7314 434.18 24.757 440.767 24.7601C447.145 24.7631 451.79 26.742 454.7 30.6954C457.61 34.5792 459.063 39.4676 459.061 45.3605C459.058 51.323 457.6 56.28 454.686 60.2305C451.773 64.1118 447.126 66.0512 440.747 66.0481L440.75 60.0481C445.873 60.0506 448.432 58.5551 449.875 56.6433C451.866 53.9314 453.058 50.3052 453.061 45.3577ZM490.113 46.6271C489.868 59.489 485.92 70.2859 477.681 78.2756C469.031 86.663 456.255 90.2556 440.632 90.2483C425.194 90.241 412.538 86.7516 403.899 78.6303L403.49 78.2405C394.993 69.985 391.071 58.742 391.077 45.3284C391.084 31.9757 395.022 20.7957 403.543 12.6165L403.954 12.228C412.654 4.14061 425.29 0.657036 440.674 0.664311C456.297 0.671748 469.07 4.27644 477.712 12.6721L477.711 12.6721C486.209 20.8575 490.131 32.0335 490.125 45.3752L490.113 46.6271Z" fill="#FF49B8"/>
<path d="M367.938 45.3174C367.943 33.1843 364.411 23.7187 357.343 16.9208C350.495 10.2682 340.002 6.83422 325.863 6.6198L324.484 6.60938C309.647 6.60236 298.655 10.0291 291.511 16.8897C284.436 23.6809 280.895 33.1433 280.89 45.2763L280.899 46.413C281.107 58.0727 284.636 67.2292 291.484 73.8819C298.331 80.5345 308.857 83.9684 323.061 84.1829L324.447 84.1934C339.053 84.2002 349.897 80.8799 356.981 74.2322L357.316 73.913C364.17 67.2668 367.707 58.1137 367.926 46.4541L367.938 45.3174ZM336.873 45.3027C336.875 40.7278 335.832 37.324 334.072 34.7428L333.71 34.2378L333.696 34.2173L333.68 34.1967C332.226 32.2219 329.675 30.7075 324.576 30.7051C319.198 30.7026 316.509 32.2616 315.013 34.2426C313.04 36.8773 311.852 40.4193 311.85 45.2909L311.863 46.1913C311.998 50.597 313.151 53.9168 315.02 56.4701C316.518 58.4416 319.205 59.9906 324.562 59.9932L324.56 65.9932C317.973 65.9901 313.19 64.0119 310.211 60.0587C307.392 56.2288 305.939 51.4884 305.853 45.8379L305.85 45.2881C305.852 39.5789 307.221 34.814 309.956 30.9931L310.225 30.6271C313.208 26.6765 317.992 24.702 324.579 24.7051C330.958 24.7081 335.603 26.687 338.513 30.6404C341.423 34.5243 342.876 39.4127 342.873 45.3056C342.87 51.268 341.413 56.225 338.499 60.1756C335.585 64.0569 330.938 65.9962 324.56 65.9932L324.562 59.9932C329.686 59.9956 332.244 58.5001 333.687 56.5883C335.678 53.8765 336.871 50.2503 336.873 45.3027ZM373.925 46.5722C373.681 59.434 369.733 70.231 361.493 78.2206C352.843 86.6081 340.067 90.2007 324.445 90.1934C309.007 90.1861 296.351 86.6967 287.712 78.5754L287.303 78.1856C278.805 69.93 274.883 58.6871 274.89 45.2734C274.896 31.9208 278.835 20.7408 287.355 12.5615L287.767 12.1731C296.467 4.08568 309.102 0.602105 324.487 0.609379C340.11 0.616816 352.882 4.2215 361.524 12.6171L361.523 12.6171C370.022 20.8026 373.944 31.9786 373.938 45.3203L373.925 46.5722Z" fill="#FF49B8"/>
<path d="M272.57 45.2725C272.576 33.1394 269.044 23.6738 261.975 16.8759C255.127 10.2232 244.634 6.7893 230.496 6.57487L229.117 6.56446C214.28 6.55744 203.288 9.98414 196.143 16.8448C189.068 23.636 185.528 33.0983 185.522 45.2313L185.532 46.3681C185.74 58.0278 189.269 67.1842 196.116 73.8369C202.964 80.4896 213.49 83.9234 227.694 84.138L229.08 84.1484C243.685 84.1553 254.53 80.8349 261.614 74.1873L261.948 73.8681C268.803 67.2218 272.339 58.0688 272.559 46.4092L272.57 45.2725ZM241.506 45.2578C241.508 40.6829 240.464 37.2791 238.705 34.6979L238.343 34.1928L238.328 34.1723L238.313 34.1518C236.859 32.177 234.308 30.6626 229.209 30.6602C223.83 30.6577 221.142 32.2167 219.646 34.1977C217.673 36.8324 216.485 40.3744 216.482 45.246L216.496 46.1464C216.631 50.5521 217.784 53.8718 219.653 56.4252C221.15 58.3966 223.838 59.9457 229.195 59.9483L229.192 65.9483C222.606 65.9451 217.823 63.967 214.844 60.0138C212.024 56.1839 210.572 51.4435 210.486 45.793L210.482 45.2431C210.485 39.534 211.854 34.7691 214.589 30.9482L214.858 30.5821C217.841 26.6316 222.625 24.6571 229.212 24.6602C235.591 24.6632 240.235 26.6421 243.146 30.5955C246.055 34.4794 247.509 39.3678 247.506 45.2607C247.503 51.2231 246.045 56.1801 243.132 60.1307C240.218 64.0119 235.571 65.9513 229.192 65.9483L229.195 59.9483C234.318 59.9507 236.877 58.4552 238.32 56.5434C240.311 53.8316 241.504 50.2054 241.506 45.2578ZM278.558 46.5273C278.313 59.3891 274.366 70.1861 266.126 78.1757C257.476 86.5632 244.7 90.1558 229.077 90.1484C213.64 90.1411 200.984 86.6518 192.345 78.5305L191.936 78.1406C183.438 69.8851 179.516 58.6422 179.522 45.2285C179.529 31.8759 183.467 20.6959 191.988 12.5166L192.399 12.1282C201.099 4.04076 213.735 0.557183 229.12 0.564457C244.742 0.571894 257.515 4.17658 266.157 12.5722L266.156 12.5722C274.655 20.7577 278.577 31.9337 278.57 45.2753L278.558 46.5273Z" fill="#FF49B8"/>
<path d="M177.203 45.2273C177.209 33.0942 173.677 23.6287 166.608 16.8307C159.76 10.1781 149.267 6.74413 135.129 6.52971L133.75 6.51929C118.912 6.51227 107.921 9.93897 100.776 16.7996C93.7011 23.5908 90.1611 33.0532 90.1553 45.1862L90.1645 46.3229C90.3731 57.9826 93.9014 67.1391 100.749 73.7918C107.597 80.4445 118.123 83.8783 132.326 84.0928L133.713 84.1033C148.318 84.1101 159.163 80.7898 166.247 74.1421L166.581 73.8229C173.435 67.1767 176.972 58.0236 177.192 46.3641L177.203 45.2273ZM146.139 45.2127C146.141 40.6377 145.097 37.2339 143.338 34.6527L142.976 34.1477L142.961 34.1272L142.946 34.1066C141.492 32.1318 138.941 30.6175 133.842 30.615C128.463 30.6125 125.775 32.1715 124.279 34.1525C122.306 36.7872 121.118 40.3292 121.115 45.2008L121.128 46.1012C121.264 50.5069 122.417 53.8267 124.286 56.3801C125.783 58.3515 128.47 59.9006 133.828 59.9031L133.825 65.9031C127.239 65.9 122.456 63.9218 119.476 59.9686C116.657 56.1387 115.204 51.3984 115.119 45.7478L115.115 45.198C115.118 39.4888 116.487 34.7239 119.222 30.903L119.49 30.537C122.474 26.5864 127.258 24.612 133.845 24.615C140.223 24.6181 144.868 26.597 147.778 30.5503C150.688 34.4342 152.141 39.3226 152.139 45.2155C152.136 51.1779 150.678 56.1349 147.764 60.0855C144.851 63.9668 140.204 65.9061 133.825 65.9031L133.828 59.9031C138.951 59.9055 141.51 58.41 142.953 56.4983C144.944 53.7864 146.136 50.1602 146.139 45.2127ZM183.191 46.4821C182.946 59.3439 178.998 70.1409 170.759 78.1305C162.109 86.518 149.333 90.1106 133.71 90.1033C118.273 90.096 105.617 86.6066 96.9774 78.4853L96.5684 78.0955C88.0708 69.84 84.1489 58.597 84.1553 45.1833C84.1617 31.8307 88.1002 20.6507 96.621 12.4715L97.0323 12.083C105.732 3.99559 118.368 0.512017 133.753 0.519291C149.375 0.526728 162.148 4.13142 170.79 12.527L170.789 12.527C179.287 20.7125 183.209 31.8885 183.203 45.2302L183.191 46.4821Z" fill="#FF49B8"/>
<path d="M27.3484 6.46895L27.3483 6.67696C26.932 7.16211 26.0994 8.09744 24.8509 9.4834C23.6715 10.8695 21.9726 12.152 19.7533 13.3296C17.6035 14.4379 13.755 15.3717 8.20807 16.1318C9.52222 22.8577 10.2815 30.3118 10.4856 38.4932C18.1822 36.9022 23.2801 33.3682 25.7787 27.892L25.7617 63.7719L24.2451 63.7653C20.5066 63.7332 15.3615 63.5936 8.80977 63.3479L8.80047 83.0041L63.8161 83.0301L63.8254 63.3739C60.844 63.5112 56.2331 63.6477 49.9932 63.7834L50.0203 6.47967L27.3484 6.46895ZM55.9961 57.6348C59.1864 57.5488 61.7015 57.4657 63.5499 57.3806L69.8284 57.0916L69.8133 89.033L2.79764 89.0013L2.81271 57.1185L9.03428 57.3519C13.2027 57.5083 16.7769 57.6192 19.7646 57.688L19.7721 41.7232C17.3174 42.8924 14.608 43.7676 11.6996 44.3688L4.66669 45.8225L4.48747 38.6427C4.3025 31.2294 3.64758 24.5148 2.54583 18.4807L2.31886 17.2823L1.1011 11.0493L7.3935 10.1871C12.8772 9.43568 15.8067 8.60178 16.9766 8.00897C18.7409 7.06852 19.7455 6.22543 20.2814 5.59549L20.3361 5.53107L20.3928 5.46762C20.7497 5.07141 21.0675 4.71542 21.3494 4.40069L21.3512 0.466116L56.0231 0.48251L55.9961 57.6348Z" fill="#FF49B8"/>
<path d="M631.369 84.3387C616.462 84.3317 605.475 80.8945 598.406 74.0271C591.337 67.1598 587.806 57.6248 587.811 45.4221C587.817 33.2888 591.358 23.8265 598.433 17.0352C605.577 10.1745 616.568 6.74772 631.406 6.75474C646.243 6.76175 657.196 10.1989 664.265 17.0663C671.334 23.8643 674.865 33.33 674.859 45.4633C674.854 57.666 671.313 67.1976 664.238 74.0583C657.163 80.9189 646.206 84.3457 631.369 84.3387ZM631.482 66.1388C637.86 66.1418 642.506 64.2027 645.42 60.3214C648.334 56.3707 649.793 51.4141 649.795 45.4514C649.798 39.5581 648.344 34.6694 645.434 30.7854C642.524 26.832 637.88 24.8538 631.501 24.8508C624.914 24.8477 620.129 26.8214 617.146 30.772C614.232 34.6533 612.774 39.5406 612.771 45.4339C612.769 51.3273 614.222 56.2506 617.132 60.204C620.112 64.1574 624.895 66.1357 631.482 66.1388Z" fill="white"/>
<path d="M536.002 84.2936C521.095 84.2865 510.107 80.8493 503.039 73.982C495.97 67.1146 492.438 57.5796 492.444 45.377C492.45 33.2436 495.99 23.7813 503.066 16.99C510.21 10.1294 521.201 6.70255 536.038 6.70957C550.876 6.71659 561.829 10.1538 568.898 17.0211C575.966 23.8191 579.498 33.2848 579.492 45.4181C579.486 57.6208 575.946 67.1525 568.871 74.0131C561.795 80.8738 550.839 84.3006 536.002 84.2936ZM536.114 66.0936C542.493 66.0966 547.139 64.1575 550.053 60.2762C552.967 56.3256 554.425 51.3689 554.428 45.4063C554.431 39.5129 552.977 34.6243 550.067 30.7402C547.157 26.7868 542.513 24.8086 536.134 24.8056C529.547 24.8025 524.762 26.7762 521.779 30.7268C518.865 34.6081 517.407 39.4954 517.404 45.3888C517.401 51.2821 518.855 56.2055 521.765 60.1588C524.745 64.1122 529.528 66.0905 536.114 66.0936Z" fill="white"/>
<path d="M440.635 84.2484C425.728 84.2414 414.74 80.8042 407.671 73.9368C400.603 67.0695 397.071 57.5345 397.077 45.3318C397.083 33.1985 400.623 23.7361 407.698 16.9448C414.843 10.0842 425.834 6.65739 440.671 6.6644C455.509 6.67142 466.462 10.1086 473.53 16.9759C480.599 23.774 484.131 33.2396 484.125 45.373C484.119 57.5756 480.579 67.1073 473.503 73.9679C466.428 80.8286 455.472 84.2554 440.635 84.2484ZM440.747 66.0484C447.126 66.0515 451.772 64.1123 454.686 60.231C457.6 56.2804 459.058 51.3238 459.061 45.3611C459.064 39.4678 457.61 34.5791 454.7 30.695C451.79 26.7417 447.145 24.7635 440.767 24.7605C434.18 24.7573 429.395 26.7311 426.412 30.6817C423.498 34.563 422.04 39.4503 422.037 45.3436C422.034 51.2369 423.488 56.1603 426.398 60.1137C429.377 64.0671 434.16 66.0453 440.747 66.0484Z" fill="white"/>
<path d="M324.447 84.1935C309.54 84.1864 298.553 80.7492 291.484 73.8819C284.415 67.0145 280.884 57.4795 280.889 45.2769C280.895 33.1435 284.436 23.6812 291.511 16.8899C298.655 10.0293 309.646 6.60246 324.484 6.60947C339.321 6.61649 350.274 10.0537 357.343 16.921C364.412 23.719 367.943 33.1847 367.937 45.318C367.932 57.5207 364.391 67.0524 357.316 73.913C350.241 80.7737 339.284 84.2005 324.447 84.1935ZM324.56 65.9935C330.938 65.9965 335.585 64.0574 338.498 60.1761C341.412 56.2255 342.871 51.2688 342.873 45.3062C342.876 39.4128 341.423 34.5242 338.512 30.6401C335.602 26.6867 330.958 24.7085 324.579 24.7055C317.993 24.7024 313.208 26.6761 310.224 30.6267C307.311 34.508 305.852 39.3953 305.849 45.2887C305.847 51.182 307.3 56.1054 310.21 60.0587C313.19 64.0121 317.973 65.9904 324.56 65.9935Z" fill="white"/>
<path d="M229.08 84.1483C214.173 84.1413 203.186 80.7041 196.117 73.8367C189.048 66.9694 185.517 57.4344 185.522 45.2317C185.528 33.0984 189.069 23.636 196.144 16.8447C203.288 9.9841 214.279 6.55729 229.117 6.56431C243.954 6.57132 254.907 10.0085 261.976 16.8758C269.045 23.6739 272.576 33.1395 272.57 45.2729C272.565 57.4755 269.024 67.0072 261.949 73.8678C254.874 80.7285 243.917 84.1553 229.08 84.1483ZM229.193 65.9484C235.571 65.9514 240.217 64.0122 243.131 60.1309C246.045 56.1803 247.503 51.2237 247.506 45.261C247.509 39.3677 246.055 34.479 243.145 30.595C240.235 26.6416 235.591 24.6634 229.212 24.6604C222.625 24.6572 217.84 26.631 214.857 30.5816C211.943 34.4629 210.485 39.3502 210.482 45.2435C210.48 51.1368 211.933 56.0602 214.843 60.0136C217.823 63.967 222.606 65.9452 229.193 65.9484Z" fill="white"/>
<path d="M133.713 84.1034C118.806 84.0963 107.818 80.6591 100.75 73.7918C93.6809 66.9245 90.1494 57.3894 90.1551 45.1868C90.1609 33.0534 93.7013 23.5911 100.777 16.7998C107.921 9.93917 118.912 6.51237 133.749 6.51938C148.587 6.5264 159.54 9.96358 166.609 16.8309C173.677 23.6289 177.209 33.0946 177.203 45.2279C177.197 57.4306 173.657 66.9623 166.582 73.8229C159.506 80.6836 148.55 84.1104 133.713 84.1034ZM133.825 65.9034C140.204 65.9064 144.85 63.9673 147.764 60.086C150.678 56.1354 152.136 51.1788 152.139 45.2161C152.142 39.3228 150.688 34.4341 147.778 30.55C144.868 26.5967 140.224 24.6184 133.845 24.6154C127.258 24.6123 122.473 26.5861 119.49 30.5367C116.576 34.4179 115.118 39.3052 115.115 45.1986C115.112 51.0919 116.566 56.0153 119.476 59.9686C122.456 63.9221 127.239 65.9003 133.825 65.9034Z" fill="white"/>
<path d="M49.9934 63.7837C56.2335 63.648 60.8442 63.5115 63.8256 63.3743L63.8163 83.0303L8.8003 83.0043L8.80959 63.3483C16.2975 63.6291 21.9481 63.7705 25.7614 63.7723L25.7784 27.8923C23.2798 33.3684 18.1821 36.902 10.4853 38.493C10.2812 30.3116 9.52207 22.8579 8.20792 16.132C13.7549 15.3719 17.6034 14.4377 19.7532 13.3294C21.9725 12.1518 23.6717 10.8699 24.8511 9.48384C26.0997 8.09776 26.9322 7.16215 27.3484 6.67701L27.3485 6.46901L50.0205 6.47973L49.9934 63.7837Z" fill="white"/>
<path d="M674.859 45.4627C674.865 33.3296 671.333 23.8641 664.264 17.0661C657.416 10.4135 646.923 6.97953 632.785 6.76511L631.406 6.75469C616.569 6.74767 605.577 10.1744 598.432 17.035C591.357 23.8262 587.817 33.2886 587.811 45.4216L587.821 46.5583C588.029 58.218 591.558 67.3745 598.405 74.0272C605.253 80.6799 615.779 84.1137 629.983 84.3282L631.369 84.3387C645.975 84.3455 656.819 81.0252 663.903 74.3775L664.237 74.0583C671.092 67.4121 674.628 58.259 674.848 46.5995L674.859 45.4627ZM646.795 45.4495C646.797 40.2313 645.558 36.1103 643.259 32.8931L643.033 32.5844L643.026 32.5737L643.018 32.5639C640.836 29.5998 637.238 27.8532 631.499 27.8504C625.517 27.8476 621.78 29.6144 619.54 32.5801C617.097 35.8378 615.774 40.0521 615.771 45.4348L615.775 45.9368C615.852 51.078 617.162 55.177 619.538 58.4112C621.776 61.3714 625.509 63.1357 631.483 63.1385L631.481 66.1385C624.895 66.1354 620.112 64.1572 617.133 60.204C614.313 56.3741 612.861 51.6338 612.775 45.9832L612.771 45.4334C612.774 39.7242 614.143 34.9593 616.878 31.1384L617.147 30.7724C620.13 26.8218 624.914 24.8474 631.501 24.8504C637.88 24.8535 642.525 26.8324 645.435 30.7857C648.344 34.6696 649.798 39.558 649.795 45.4509C649.792 51.4133 648.334 56.3703 645.421 60.3209C642.507 64.2022 637.86 66.1415 631.481 66.1385L631.483 63.1385C637.23 63.1412 640.83 61.4262 643.008 58.5356C645.464 55.2036 646.792 50.9099 646.795 45.4495ZM677.848 46.6585C677.616 58.9191 673.873 68.8937 666.326 76.2116C658.464 83.8357 646.598 87.3458 631.368 87.3387C616.312 87.3315 604.545 83.9214 596.686 76.5332L596.316 76.1785C588.532 68.6171 584.805 58.2283 584.811 45.4202C584.818 32.6772 588.557 22.3562 596.355 14.8709L596.729 14.5176C604.655 7.14984 616.412 3.7476 631.407 3.75469C646.63 3.76194 658.488 7.2801 666.344 14.904L666.344 14.904C674.135 22.3966 677.865 32.7212 677.859 45.4642L677.848 46.6585Z" fill="#5D279E"/>
<path d="M579.492 45.4176C579.498 33.2845 575.966 23.8189 568.897 17.021C562.049 10.3683 551.556 6.93436 537.418 6.71994L536.039 6.70952C521.201 6.70251 510.21 10.1292 503.065 16.9898C495.99 23.7811 492.45 33.2434 492.444 45.3764L492.454 46.5131C492.662 58.1728 496.19 67.3293 503.038 73.982C509.886 80.6347 520.412 84.0685 534.615 84.2831L536.002 84.2935C550.607 84.3004 561.452 80.98 568.536 74.3323L568.87 74.0131C575.724 67.3669 579.261 58.2138 579.481 46.5543L579.492 45.4176ZM551.428 45.4043C551.43 40.1862 550.19 36.0651 547.892 32.8479L547.666 32.5392L547.658 32.5285L547.651 32.5187C545.469 29.5546 541.871 27.808 536.132 27.8053C530.15 27.8025 526.413 29.5692 524.173 32.535C521.73 35.7926 520.407 40.007 520.404 45.3896L520.408 45.8916C520.485 51.0328 521.795 55.1319 524.171 58.366C526.408 61.3262 530.142 63.0905 536.116 63.0934L536.114 66.0934C529.528 66.0902 524.745 64.1121 521.765 60.1588C518.946 56.3289 517.493 51.5886 517.408 45.938L517.404 45.3882C517.407 39.679 518.776 34.9142 521.511 31.0933L521.779 30.7272C524.763 26.7766 529.547 24.8022 536.134 24.8053C542.512 24.8083 547.157 26.7872 550.067 30.7406C552.977 34.6244 554.43 39.5128 554.428 45.4057C554.425 51.3682 552.967 56.3252 550.053 60.2757C547.14 64.157 542.493 66.0964 536.114 66.0934L536.116 63.0934C541.863 63.0961 545.463 61.381 547.641 58.4904C550.097 55.1584 551.425 50.8647 551.428 45.4043ZM582.481 46.6133C582.249 58.8739 578.506 68.8485 570.959 76.1665C563.097 83.7905 551.231 87.3006 536.001 87.2935C520.945 87.2864 509.178 83.8762 501.319 76.488L500.948 76.1334C493.165 68.5719 489.438 58.1831 489.444 45.375C489.45 32.632 493.19 22.311 500.988 14.8258L501.362 14.4724C509.288 7.10467 521.045 3.70243 536.04 3.70952C551.263 3.71677 563.121 7.23494 570.976 14.8589L570.977 14.8589C578.768 22.3515 582.498 32.6761 582.492 45.419L582.481 46.6133Z" fill="#5D279E"/>
<path d="M484.125 45.3724C484.131 33.2393 480.599 23.7737 473.53 16.9758C466.682 10.3231 456.189 6.8892 442.05 6.67477L440.672 6.66436C425.834 6.65734 414.843 10.084 407.698 16.9447C400.623 23.7359 397.083 33.1982 397.077 45.3312L397.086 46.468C397.295 58.1277 400.823 67.2841 407.671 73.9368C414.519 80.5895 425.045 84.0233 439.248 84.2379L440.635 84.2483C455.24 84.2552 466.085 80.9348 473.169 74.2872L473.503 73.968C480.357 67.3217 483.894 58.1687 484.114 46.5091L484.125 45.3724ZM456.061 45.3591C456.063 40.141 454.823 36.0199 452.524 32.8028L452.299 32.4941L452.291 32.4833L452.283 32.4736C450.101 29.5095 446.504 27.7628 440.765 27.7601C434.783 27.7573 431.045 29.524 428.806 32.4898C426.363 35.7475 425.04 39.9618 425.037 45.3445L425.041 45.8464C425.118 50.9877 426.428 55.0867 428.803 58.3209C431.041 61.281 434.774 63.0453 440.748 63.0482L440.747 66.0482C434.161 66.045 429.378 64.0669 426.398 60.1137C423.579 56.2838 422.126 51.5434 422.041 45.8929L422.037 45.343C422.04 39.6339 423.409 34.869 426.143 31.0481L426.412 30.682C429.395 26.7315 434.18 24.757 440.767 24.7601C447.145 24.7631 451.79 26.742 454.7 30.6954C457.61 34.5793 459.063 39.4677 459.061 45.3606C459.058 51.323 457.6 56.28 454.686 60.2306C451.772 64.1118 447.126 66.0512 440.747 66.0482L440.748 63.0482C446.496 63.0509 450.095 61.3359 452.274 58.4452C454.73 55.1133 456.058 50.8195 456.061 45.3591ZM487.114 46.5682C486.882 58.8288 483.139 68.8034 475.592 76.1213C467.729 83.7453 455.863 87.2555 440.633 87.2483C425.578 87.2412 413.811 83.831 405.952 76.4429L405.581 76.0882C397.798 68.5268 394.071 58.138 394.077 45.3298C394.083 32.5869 397.823 22.2658 405.621 14.7806L405.995 14.4273C413.921 7.05951 425.678 3.65727 440.673 3.66436C455.896 3.67161 467.754 7.18977 475.609 14.8137L475.61 14.8137C483.401 22.3063 487.131 32.6309 487.125 45.3738L487.114 46.5682Z" fill="#5D279E"/>
<path d="M367.937 45.3175C367.943 33.1844 364.411 23.7188 357.342 16.9209C350.495 10.2682 340.002 6.83426 325.863 6.61984L324.484 6.60943C309.647 6.60241 298.655 10.0291 291.51 16.8897C284.435 23.681 280.895 33.1433 280.89 45.2763L280.899 46.413C281.107 58.0727 284.636 67.2292 291.484 73.8819C298.331 80.5346 308.857 83.9684 323.061 84.183L324.447 84.1934C339.053 84.2003 349.897 80.8799 356.981 74.2322L357.316 73.913C364.17 67.2668 367.707 58.1138 367.926 46.4542L367.937 45.3175ZM339.873 45.3042C339.875 40.0861 338.636 35.965 336.337 32.7478L336.112 32.4391L336.104 32.4284L336.096 32.4186C333.914 29.4545 330.316 27.7079 324.578 27.7052C318.595 27.7024 314.858 29.4691 312.618 32.4349C310.175 35.6925 308.852 39.9069 308.85 45.2895L308.853 45.7915C308.931 50.9327 310.24 55.0318 312.616 58.2659C314.854 61.2261 318.587 62.9904 324.561 62.9933L324.56 65.9933C317.973 65.9901 313.19 64.012 310.211 60.0587C307.392 56.2288 305.939 51.4885 305.853 45.8379L305.85 45.2881C305.852 39.579 307.221 34.8141 309.956 30.9932L310.225 30.6271C313.208 26.6765 317.992 24.7021 324.579 24.7052C330.958 24.7082 335.603 26.6871 338.513 30.6405C341.423 34.5243 342.876 39.4127 342.873 45.3056C342.87 51.2681 341.412 56.2251 338.499 60.1756C335.585 64.0569 330.938 65.9963 324.56 65.9933L324.561 62.9933C330.308 62.996 333.908 61.2809 336.087 58.3903C338.543 55.0583 339.87 50.7646 339.873 45.3042ZM370.926 46.5132C370.694 58.7739 366.951 68.7484 359.404 76.0664C351.542 83.6904 339.676 87.2006 324.446 87.1934C309.39 87.1863 297.624 83.7761 289.765 76.3879L289.394 76.0333C281.61 68.4718 277.884 58.083 277.89 45.2749C277.896 32.5319 281.635 22.2109 289.433 14.7257L289.808 14.3723C297.733 7.00458 309.49 3.60234 324.485 3.60943C339.708 3.61667 351.566 7.13484 359.422 14.7588L359.423 14.7588C367.214 22.2514 370.943 32.576 370.937 45.3189L370.926 46.5132Z" fill="#5D279E"/>
<path d="M272.57 45.2726C272.576 33.1394 269.044 23.6739 261.975 16.8759C255.127 10.2233 244.634 6.78934 230.496 6.57492L229.117 6.5645C214.28 6.55749 203.288 9.98419 196.143 16.8448C189.068 23.636 185.528 33.0984 185.522 45.2314L185.532 46.3681C185.74 58.0278 189.269 67.1843 196.116 73.837C202.964 80.4897 213.49 83.9235 227.694 84.1381L229.08 84.1485C243.686 84.1553 254.53 80.835 261.614 74.1873L261.948 73.8681C268.803 67.2219 272.339 58.0688 272.559 46.4093L272.57 45.2726ZM244.506 45.2593C244.508 40.0412 243.269 35.9201 240.97 32.7029L240.744 32.3942L240.737 32.3835L240.729 32.3737C238.547 29.4096 234.949 27.663 229.21 27.6603C223.228 27.6575 219.491 29.4242 217.251 32.39C214.808 35.6476 213.485 39.862 213.482 45.2446L213.486 45.7466C213.563 50.8878 214.873 54.9869 217.249 58.221C219.487 61.1812 223.22 62.9455 229.194 62.9483L229.192 65.9483C222.606 65.9452 217.823 63.9671 214.844 60.0138C212.024 56.1839 210.572 51.4436 210.486 45.793L210.482 45.2432C210.485 39.534 211.854 34.7691 214.589 30.9483L214.858 30.5822C217.841 26.6316 222.625 24.6572 229.212 24.6603C235.591 24.6633 240.235 26.6422 243.146 30.5956C246.055 34.4794 247.509 39.3678 247.506 45.2607C247.503 51.2232 246.045 56.1802 243.132 60.1307C240.218 64.012 235.571 65.9514 229.192 65.9483L229.194 62.9483C234.941 62.9511 238.541 61.236 240.719 58.3454C243.175 55.0134 244.503 50.7197 244.506 45.2593ZM275.559 46.4683C275.327 58.7289 271.584 68.7035 264.037 76.0215C256.175 83.6455 244.309 87.1556 229.079 87.1485C214.023 87.1414 202.256 83.7312 194.397 76.343L194.027 75.9883C186.243 68.4269 182.516 58.0381 182.522 45.23C182.529 32.487 186.268 22.166 194.066 14.6807L194.44 14.3274C202.366 6.95966 214.123 3.55741 229.118 3.5645C244.341 3.57175 256.199 7.08992 264.055 14.7138L264.055 14.7138C271.846 22.2065 275.576 32.5311 275.57 45.274L275.559 46.4683Z" fill="#5D279E"/>
<path d="M177.203 45.2274C177.209 33.0943 173.677 23.6287 166.608 16.8308C159.76 10.1781 149.267 6.74418 135.129 6.52975L133.75 6.51934C118.912 6.51232 107.921 9.93902 100.776 16.7996C93.7012 23.5909 90.1611 33.0532 90.1553 45.1862L90.1645 46.323C90.3731 57.9826 93.9015 67.1391 100.749 73.7918C107.597 80.4445 118.123 83.8783 132.326 84.0929L133.713 84.1033C148.318 84.1102 159.163 80.7898 166.247 74.1421L166.581 73.823C173.435 67.1767 176.972 58.0237 177.192 46.3641L177.203 45.2274ZM149.139 45.2141C149.141 39.996 147.901 35.8749 145.603 32.6578L145.377 32.3491L145.369 32.3383L145.362 32.3285C143.18 29.3644 139.582 27.6178 133.843 27.6151C127.861 27.6123 124.124 29.379 121.884 32.3448C119.441 35.6025 118.118 39.8168 118.115 45.1994L118.119 45.7014C118.196 50.8426 119.506 54.9417 121.882 58.1758C124.119 61.136 127.853 62.9003 133.827 62.9032L133.825 65.9032C127.239 65.9 122.456 63.9219 119.476 59.9686C116.657 56.1387 115.204 51.3984 115.119 45.7478L115.115 45.198C115.118 39.4889 116.487 34.724 119.222 30.9031L119.49 30.537C122.474 26.5865 127.258 24.612 133.845 24.6151C140.223 24.6181 144.868 26.597 147.778 30.5504C150.688 34.4343 152.141 39.3226 152.139 45.2155C152.136 51.178 150.678 56.135 147.764 60.0855C144.851 63.9668 140.204 65.9062 133.825 65.9032L133.827 62.9032C139.574 62.9059 143.174 61.1908 145.352 58.3002C147.808 54.9683 149.136 50.6745 149.139 45.2141ZM180.192 46.4231C179.96 58.6838 176.217 68.6583 168.67 75.9763C160.808 83.6003 148.942 87.1105 133.712 87.1033C118.656 87.0962 106.889 83.686 99.0302 76.2978L98.6593 75.9432C90.8762 68.3818 87.1492 57.9929 87.1553 45.1848C87.1614 32.4418 90.901 22.1208 98.699 14.6356L99.0732 14.2822C106.999 6.91449 118.756 3.51225 133.751 3.51934C148.974 3.52659 160.832 7.04475 168.687 14.6687L168.688 14.6687C176.479 22.1613 180.209 32.4859 180.203 45.2288L180.192 46.4231Z" fill="#5D279E"/>
<path d="M27.3484 6.46898L27.3483 6.67699C26.9321 7.16214 26.0994 8.09747 24.8509 9.48342C23.6716 10.8695 21.9726 12.152 19.7534 13.3296L19.3304 13.5355C17.1159 14.5541 13.4083 15.4193 8.20809 16.1318C9.52224 22.8578 10.2815 30.3118 10.4856 38.4932C18.1823 36.9022 23.2801 33.3682 25.7787 27.8921L25.7617 63.7719L24.2451 63.7654C20.5066 63.7333 15.3615 63.5937 8.80978 63.3479L8.80049 83.0042L63.8161 83.0302L63.8254 63.3739C60.844 63.5112 56.2331 63.6477 49.9932 63.7834L50.0203 6.4797L27.3484 6.46898ZM52.9946 60.7126C57.6888 60.6002 61.2496 60.49 63.6872 60.3778L66.8269 60.2328L66.8147 86.0316L5.79907 86.0027L5.81126 60.2332L8.92253 60.3499C14.6195 60.5636 19.2296 60.6946 22.7632 60.7461L22.7747 36.3897C19.6715 38.8131 15.7297 40.4725 11.0926 41.431L7.57566 42.1579L7.48654 38.568C7.29837 31.0262 6.63067 24.1536 5.49629 17.9411L5.26348 16.7076L4.6546 13.5911L7.80031 13.1599C13.3252 12.4029 16.7134 11.5172 18.3679 10.6679C20.3594 9.60865 21.7102 8.5466 22.5666 7.53996L22.594 7.50775L22.6223 7.47554C23.3441 6.67437 23.9174 6.0321 24.3488 5.54569L24.3498 3.46756L53.0217 3.48112L52.9946 60.7126Z" fill="#5D279E"/>
</g>
<defs>
<clipPath id="clip0_333_1861">
<rect width="688" height="101" fill="white" transform="translate(0.0477581) rotate(0.0270925)"/>
</clipPath>
</defs>
</svg>
