<svg width="1212" height="1053" viewBox="0 0 1212 1053" fill="none" xmlns="http://www.w3.org/2000/svg">
<g opacity="0.3">
<path d="M630.819 494.322C632.311 493.594 633.831 492.829 635.073 491.708C635.795 491.056 636.389 490.364 636.891 489.528C637.31 488.831 637.597 488.071 637.897 487.317C638.038 486.96 638.183 486.605 638.348 486.259C638.433 486.081 638.534 485.911 638.621 485.735C638.728 485.518 638.403 486.025 638.639 485.706C638.701 485.621 638.76 485.535 638.824 485.452C638.94 485.302 639.066 485.163 639.194 485.024C639.326 484.881 639.199 484.928 639.166 485.046C639.175 485.014 639.319 484.92 639.357 484.891C639.438 484.829 639.522 484.771 639.607 484.716C639.66 484.682 639.889 484.578 639.682 484.666C639.437 484.769 639.803 484.624 639.822 484.617C639.859 484.605 639.897 484.592 639.934 484.579C640.108 484.53 640.086 484.532 639.868 484.585C639.968 484.501 640.228 484.578 640.349 484.55C640.059 484.616 640.047 484.522 640.193 484.55C640.248 484.561 640.303 484.566 640.357 484.576C640.424 484.589 640.491 484.614 640.557 484.624C640.752 484.653 640.179 484.47 640.445 484.592C640.57 484.65 640.695 484.7 640.817 484.766C640.862 484.79 640.916 484.833 640.962 484.848C640.942 484.841 640.632 484.623 640.832 484.769C640.936 484.845 641.041 484.918 641.142 484.998C641.361 485.171 641.569 485.358 641.771 485.551C642.626 486.365 643.389 487.211 644.421 487.813C645.849 488.645 647.654 488.498 648.982 487.533C650.506 486.425 651.161 484.624 651.431 482.826C651.701 481.025 651.879 479.207 652.098 477.4C652.328 475.512 652.557 473.624 652.786 471.736C653.007 469.912 653.212 468.083 653.218 466.244C653.223 464.288 652.922 462.443 651.963 460.718C651.551 459.977 651.028 459.33 650.488 458.68C649.937 458.016 649.438 457.302 648.866 456.658C646.773 454.3 643.216 453.255 640.234 454.473C639.819 454.642 639.424 454.864 639.038 455.09C638.963 455.134 638.888 455.178 638.813 455.222C638.507 455.4 638.838 455.22 638.843 455.207C638.831 455.238 638.65 455.285 638.609 455.305C638.308 455.45 638.845 455.308 638.54 455.312C638.594 455.312 638.648 455.313 638.701 455.314C638.568 455.282 638.569 455.285 638.702 455.32C638.736 455.329 638.769 455.338 638.803 455.348C638.686 455.286 638.689 455.291 638.809 455.36C638.84 455.378 638.871 455.396 638.902 455.415C638.777 455.304 638.801 455.337 638.974 455.514C638.976 455.505 638.85 455.351 638.855 455.358C638.86 455.366 638.756 455.186 638.748 455.186C638.85 455.195 638.885 455.5 638.807 455.277C638.747 455.106 638.676 454.94 638.622 454.766C638.407 454.067 638.264 453.361 637.97 452.687C637.636 451.921 637.218 451.166 636.676 450.527C635.588 449.248 634.099 448.247 632.384 448.113C630.634 447.977 628.907 448.478 627.695 449.799C627.191 450.348 626.874 451.05 626.553 451.715C626.49 451.845 626.427 451.975 626.36 452.102C626.327 452.164 626.291 452.226 626.258 452.288C626.103 452.59 626.428 452.106 626.282 452.254C626.266 452.27 625.995 452.585 626 452.603C625.988 452.56 626.317 452.373 626.081 452.516C625.77 452.706 626.105 452.505 626.118 452.516C626.094 452.495 625.958 452.611 625.927 452.585C625.887 452.552 626.258 452.571 625.987 452.552C626.354 452.577 626.076 452.56 625.982 452.544C625.932 452.535 625.683 452.471 625.883 452.53C626.117 452.599 625.746 452.467 625.733 452.461C625.658 452.426 625.586 452.386 625.512 452.349C625.441 452.313 625.279 452.185 625.537 452.371C625.431 452.294 625.322 452.222 625.218 452.142C624.913 451.91 624.627 451.654 624.354 451.386C624.274 451.307 624.196 451.226 624.116 451.146C624.073 451.103 623.907 450.927 624.115 451.149C623.96 450.984 623.809 450.814 623.658 450.645C622.525 449.374 621.417 448.112 619.879 447.321C618.431 446.576 616.665 446.426 615.173 447.134C613.781 447.794 612.758 448.917 611.745 450.046C611.533 450.282 611.32 450.518 611.101 450.748C610.986 450.868 610.869 450.987 610.75 451.104C610.709 451.144 610.526 451.304 610.699 451.155C610.891 450.99 610.6 451.239 610.563 451.271C610.329 451.469 610.084 451.655 609.825 451.818C609.764 451.857 609.702 451.891 609.641 451.929C609.336 452.119 609.898 451.819 609.682 451.906C609.52 451.971 609.364 452.045 609.197 452.101C609.117 452.128 609.034 452.149 608.953 452.176C608.784 452.232 608.852 452.12 609.071 452.156C608.957 452.137 608.789 452.208 608.672 452.224C608.333 452.268 607.995 452.273 607.654 452.271C607.416 452.27 607.739 452.295 607.753 452.276C607.746 452.286 607.536 452.26 607.546 452.261C607.406 452.249 607.267 452.235 607.129 452.217C606.776 452.175 606.426 452.117 606.077 452.054C604.715 451.808 603.381 451.514 601.99 451.488C600.54 451.461 599.023 451.896 597.891 452.825C596.702 453.8 595.904 455.123 595.435 456.576C594.929 458.142 594.756 459.72 594.714 461.36C594.668 463.142 594.773 464.925 594.986 466.694C595.422 470.323 596.265 473.92 597.267 477.431C599.117 483.913 602.137 490.455 607.764 494.495C610.3 496.316 613.261 497.602 616.394 497.87C619.839 498.164 623.243 497.431 626.46 496.226C627.946 495.669 629.392 495.015 630.819 494.322C631.558 493.963 632.108 493.139 631.756 492.298C631.453 491.575 630.527 490.975 629.732 491.361C628.306 492.054 626.86 492.708 625.374 493.265C624.611 493.55 623.839 493.811 623.056 494.036C622.711 494.135 622.363 494.227 622.014 494.312C621.927 494.333 621.839 494.353 621.752 494.374C622.074 494.294 621.841 494.355 621.772 494.37C621.554 494.415 621.335 494.459 621.115 494.499C620.351 494.636 619.578 494.732 618.802 494.775C618.426 494.796 618.05 494.805 617.674 494.8C617.587 494.799 617.079 494.778 617.417 494.797C617.195 494.784 616.973 494.768 616.751 494.746C616.025 494.674 615.304 494.548 614.597 494.368C614.423 494.324 614.249 494.276 614.077 494.226C614.002 494.204 613.919 494.185 613.847 494.156C613.892 494.175 614.162 494.262 613.89 494.167C613.551 494.048 613.214 493.925 612.882 493.787C612.236 493.518 611.609 493.206 611.002 492.859C610.845 492.769 610.69 492.676 610.536 492.582C610.469 492.542 610.278 492.453 610.571 492.605C610.503 492.569 610.433 492.515 610.369 492.473C610.067 492.273 609.77 492.064 609.48 491.848C608.913 491.424 608.369 490.97 607.85 490.489C607.597 490.255 607.35 490.014 607.108 489.768C607.052 489.71 606.996 489.651 606.939 489.593C606.736 489.384 606.931 489.592 606.968 489.626C606.821 489.489 606.692 489.325 606.56 489.174C605.538 488.009 604.646 486.738 603.863 485.401C603.762 485.229 603.663 485.056 603.566 484.882C603.518 484.795 603.469 484.708 603.422 484.62C603.432 484.638 603.202 484.206 603.309 484.412C603.399 484.582 603.255 484.305 603.236 484.267C603.19 484.178 603.146 484.089 603.101 484C602.99 483.777 602.881 483.552 602.775 483.327C602.402 482.535 602.061 481.73 601.744 480.915C601.109 479.277 600.578 477.601 600.107 475.909C599.873 475.068 599.653 474.223 599.444 473.376C599.344 472.972 599.247 472.567 599.153 472.161C599.108 471.971 599.065 471.779 599.022 471.588C599.087 471.876 599.03 471.626 599.018 471.57C598.987 471.427 598.956 471.283 598.925 471.139C598.218 467.795 597.758 464.378 597.863 460.953C597.866 460.855 597.871 460.758 597.874 460.66C597.872 460.708 597.855 460.965 597.872 460.697C597.882 460.546 597.892 460.394 597.905 460.243C597.935 459.897 597.976 459.553 598.03 459.211C598.084 458.866 598.152 458.524 598.235 458.185C598.271 458.035 598.313 457.887 598.353 457.738C598.415 457.512 598.385 457.778 598.333 457.793C598.351 457.788 598.437 457.492 598.445 457.47C598.548 457.188 598.666 456.911 598.799 456.643C598.874 456.494 598.958 456.353 599.036 456.207C599.138 456.017 598.871 456.444 598.995 456.27C599.048 456.197 599.097 456.121 599.15 456.048C599.245 455.917 599.346 455.791 599.452 455.67C599.499 455.616 599.547 455.564 599.597 455.512C599.609 455.499 599.621 455.486 599.633 455.473C599.756 455.352 599.733 455.371 599.565 455.53C599.592 455.444 599.822 455.315 599.896 455.259C600.014 455.171 600.261 455.08 600.347 454.963C600.325 454.993 599.996 455.126 600.265 455.008C600.333 454.978 600.399 454.946 600.468 454.917C600.595 454.864 600.724 454.817 600.856 454.775C600.921 454.755 600.987 454.739 601.052 454.718C601.323 454.634 600.964 454.754 600.936 454.74C601.014 454.777 601.339 454.675 601.437 454.664C601.726 454.634 602.014 454.643 602.304 454.633C602.531 454.626 601.908 454.6 602.257 454.631C602.326 454.637 602.396 454.641 602.465 454.647C602.64 454.663 602.814 454.682 602.988 454.705C604.225 454.869 605.437 455.194 606.678 455.335C608.067 455.492 609.533 455.458 610.818 454.844C612.166 454.2 613.192 453.154 614.178 452.055C614.389 451.82 614.599 451.583 614.814 451.352C614.914 451.244 615.015 451.137 615.117 451.032C615.168 450.979 615.218 450.927 615.27 450.876C615.422 450.724 615.471 450.717 615.282 450.856C615.521 450.679 615.73 450.463 615.974 450.291C616.101 450.202 616.232 450.123 616.364 450.041C616.563 449.917 616.326 450.128 616.26 450.095C616.289 450.109 616.462 450.004 616.493 449.992C616.512 449.983 616.93 449.852 616.93 449.844C616.93 449.862 616.519 449.909 616.824 449.868C616.894 449.858 616.964 449.845 617.035 449.837C617.157 449.823 617.377 449.774 617.493 449.817C617.252 449.728 617.293 449.797 617.423 449.821C617.534 449.841 617.647 449.852 617.758 449.876C617.832 449.891 617.905 449.911 617.979 449.928C618.27 449.997 617.945 449.907 617.92 449.908C618.041 449.901 618.287 450.054 618.398 450.107C618.528 450.169 618.76 450.249 618.859 450.353C618.833 450.326 618.573 450.158 618.816 450.327C618.897 450.382 618.978 450.438 619.058 450.496C619.328 450.692 619.585 450.907 619.829 451.134C619.948 451.244 620.064 451.357 620.177 451.473C620.241 451.537 620.303 451.603 620.366 451.668C620.128 451.421 620.407 451.714 620.457 451.769C621.051 452.424 621.625 453.098 622.25 453.725C623.506 454.983 625.312 456.199 627.158 455.497C628.028 455.166 628.608 454.484 629.068 453.706C629.222 453.443 629.354 453.169 629.485 452.894C629.548 452.762 629.61 452.631 629.676 452.5C629.716 452.419 629.757 452.339 629.8 452.259C629.828 452.207 629.937 451.93 629.853 452.152C629.777 452.35 629.847 452.162 629.89 452.102C629.943 452.029 629.998 451.958 630.057 451.889C630.084 451.857 630.195 451.76 630.201 451.731C630.194 451.767 629.911 451.966 630.137 451.794C630.25 451.708 630.36 451.62 630.481 451.544C630.467 451.552 630.659 451.43 630.664 451.435C630.461 451.539 630.416 451.565 630.527 451.512C630.576 451.489 630.625 451.467 630.674 451.447C630.807 451.391 630.945 451.352 631.081 451.304C631.338 451.213 631.034 451.315 630.983 451.317C631.051 451.314 631.129 451.289 631.197 451.278C631.36 451.253 631.523 451.237 631.687 451.23C631.76 451.227 631.834 451.23 631.907 451.226C632.025 451.227 631.98 451.224 631.773 451.216C631.828 451.219 631.883 451.224 631.938 451.23C632.084 451.245 632.229 451.267 632.373 451.296C632.463 451.314 632.551 451.338 632.641 451.358C632.828 451.4 632.701 451.311 632.571 451.334C632.665 451.317 632.888 451.458 632.976 451.5C633.046 451.533 633.115 451.568 633.182 451.605C633.277 451.656 633.571 451.746 633.26 451.644C633.53 451.732 633.804 452.075 634.013 452.26C634.306 452.52 633.875 452.083 634.028 452.271C634.08 452.334 634.135 452.394 634.187 452.458C634.317 452.617 634.439 452.781 634.553 452.952C634.645 453.089 634.732 453.229 634.815 453.372C634.871 453.468 635.041 453.66 634.824 453.38C634.867 453.436 634.904 453.545 634.932 453.605C635.089 453.943 635.222 454.293 635.332 454.65C635.525 455.272 635.629 455.918 635.912 456.51C636.349 457.426 637.018 458.163 638.045 458.399C639.084 458.637 640.004 458.165 640.872 457.658C640.893 457.645 641.244 457.415 641.005 457.574C640.81 457.703 641.007 457.574 641.066 457.546C641.216 457.476 641.37 457.412 641.526 457.356C641.665 457.306 641.806 457.265 641.947 457.223C642.066 457.188 642.182 457.222 641.856 457.239C641.96 457.233 642.079 457.196 642.182 457.181C642.474 457.138 642.769 457.118 643.064 457.119C643.129 457.119 643.219 457.112 643.286 457.123C642.913 457.059 643.161 457.121 643.265 457.131C643.431 457.148 643.596 457.171 643.761 457.2C643.925 457.23 644.088 457.266 644.25 457.308C644.322 457.327 644.393 457.349 644.465 457.368C644.689 457.429 644.113 457.228 644.451 457.369C644.761 457.497 645.067 457.619 645.362 457.781C645.398 457.801 645.53 457.895 645.555 457.892C645.529 457.895 645.249 457.684 645.494 457.855C645.615 457.94 645.736 458.024 645.852 458.115C645.983 458.218 646.108 458.325 646.23 458.439C646.284 458.489 646.334 458.542 646.388 458.592C646.531 458.724 646.188 458.347 646.372 458.577C647.404 459.868 648.567 461.118 649.396 462.554C649.212 462.235 649.484 462.754 649.524 462.847C649.596 463.014 649.661 463.184 649.72 463.356C649.788 463.554 649.843 463.755 649.897 463.957C649.88 463.893 649.843 463.652 649.895 463.963C649.919 464.107 649.944 464.252 649.962 464.397C650.064 465.215 650.085 466.046 650.069 466.869C650.067 466.966 650.065 467.063 650.062 467.16C650.062 467.139 650.044 467.615 650.054 467.392C650.062 467.208 650.047 467.511 650.044 467.552C650.039 467.648 650.033 467.746 650.026 467.842C649.994 468.303 649.953 468.764 649.905 469.223C649.82 470.056 649.716 470.888 649.615 471.719C649.395 473.531 649.175 475.343 648.955 477.156C648.743 478.902 648.58 480.664 648.305 482.402C648.246 482.772 648.175 483.141 648.076 483.502C648.063 483.548 647.974 483.81 648.041 483.625C648.121 483.404 647.968 483.806 647.969 483.803C647.896 483.985 647.793 484.154 647.72 484.335C647.634 484.547 647.939 484.056 647.707 484.361C647.657 484.428 647.61 484.495 647.559 484.561C647.465 484.679 647.352 484.843 647.225 484.929C647.533 484.72 647.131 484.982 647.046 485.038C647.001 485.068 646.9 485.149 646.839 485.166C647.221 485.06 646.872 485.136 646.775 485.17C646.728 485.186 646.604 485.241 646.545 485.24C646.909 485.248 646.683 485.213 646.602 485.211C646.552 485.21 646.173 485.187 646.478 485.229C646.734 485.265 646.536 485.233 646.473 485.223C646.371 485.207 646.21 485.147 646.111 485.152C646.133 485.151 646.486 485.294 646.263 485.199C646.201 485.173 646.137 485.15 646.075 485.122C645.962 485.072 645.855 485.011 645.746 484.953C645.524 484.833 646.062 485.172 645.737 484.939C645.525 484.787 645.325 484.619 645.132 484.444C644.364 483.75 643.701 482.924 642.84 482.339C641.56 481.467 639.991 481.075 638.515 481.75C636.844 482.514 635.836 484.027 635.16 485.678C634.862 486.408 634.6 487.155 634.228 487.853C634.186 487.932 634.137 488.008 634.097 488.088C633.992 488.3 634.237 487.897 634.103 488.082C633.991 488.238 633.885 488.395 633.765 488.546C633.66 488.678 633.549 488.806 633.434 488.93C633.377 488.993 633.319 489.054 633.259 489.114C633.216 489.158 632.903 489.422 633.19 489.186C632.624 489.653 632.052 490.086 631.421 490.465C631.124 490.643 630.823 490.818 630.514 490.976C630.854 490.802 630.403 491.03 630.311 491.077C630.119 491.173 629.925 491.268 629.732 491.363C628.993 491.724 628.442 492.545 628.794 493.387C629.097 494.107 630.025 494.71 630.819 494.322Z" fill="white"/>
<path d="M640.14 533.992C643.964 532.127 647.837 530.141 651.013 527.264C652.627 525.803 654.015 524.189 655.14 522.321C656.282 520.423 657.053 518.338 657.869 516.288C659.25 512.816 661.2 508.391 665.249 507.432C666.083 507.234 666.632 507.262 667.324 507.383C668.058 507.512 668.247 507.583 668.954 507.922C669.69 508.276 669.882 508.411 670.523 508.894C671.085 509.317 671.617 509.777 672.133 510.254C674.323 512.278 676.24 514.606 678.798 516.193C681.889 518.111 685.597 518.118 688.63 516.027C692.345 513.468 693.752 509.04 694.385 504.782C695.116 499.851 695.61 494.876 696.211 489.928C696.829 484.837 697.448 479.745 698.066 474.654C698.639 469.93 699.189 465.189 699.194 460.424C699.197 458.048 699.117 455.617 698.648 453.283C698.18 450.953 697.359 448.784 696.2 446.711C695.056 444.663 693.57 442.887 692.081 441.087C690.608 439.305 689.28 437.366 687.718 435.664C682.642 430.134 673.878 427.918 666.947 431.138C666.001 431.577 665.127 432.136 664.216 432.639C663.511 433.028 662.642 433.467 661.816 433.238C661.349 433.108 661.009 432.789 660.639 432.231C660.28 431.689 659.984 430.899 659.75 430.153C659.181 428.338 658.819 426.491 658.083 424.727C657.288 422.821 656.253 420.979 654.937 419.383C652.413 416.325 648.897 414.049 644.876 413.726C641.056 413.42 637.058 414.588 634.498 417.562C633.28 418.976 632.559 420.731 631.744 422.387C631.385 423.114 631.045 423.788 630.559 424.412C630.124 424.972 629.671 425.393 629.085 425.62C627.469 426.244 625.706 425.238 624.428 424.301C622.668 423.01 621.15 421.433 619.698 419.812C616.867 416.651 614.111 413.387 610.284 411.392C606.746 409.549 602.651 409.294 599.075 411.168C595.841 412.863 593.459 415.712 591.052 418.383C588.749 420.939 586.285 423.521 582.957 424.537C579.967 425.45 576.577 424.994 573.417 424.423C569.922 423.792 566.452 422.961 562.881 422.918C559.336 422.876 555.767 423.889 553.039 426.22C550.108 428.723 548.355 432.167 547.252 435.806C546.101 439.601 545.788 443.561 545.717 447.508C545.632 452.276 545.942 457.045 546.53 461.775C547.717 471.311 549.933 480.754 552.58 489.983C555.27 499.36 558.735 508.582 563.837 516.934C568.108 523.924 573.633 530.234 580.321 535.005C586.853 539.665 594.46 542.848 602.5 543.511C611.359 544.242 620.15 542.227 628.403 539.124C632.402 537.62 636.298 535.859 640.14 533.992C640.906 533.62 641.391 532.826 641.077 531.968C640.806 531.23 639.824 530.656 639.053 531.031C631.409 534.747 623.426 538.168 615.02 539.694C607.044 541.141 598.901 540.699 591.363 537.588C584.395 534.713 578.226 530.016 573.237 524.396C567.338 517.752 563.054 509.867 559.809 501.634C556.352 492.862 553.889 483.656 551.908 474.447C549.959 465.385 548.659 456.13 548.869 446.842C549.017 440.305 550.123 431.914 555.971 427.947C558.592 426.169 561.757 425.861 564.845 426.165C568.236 426.498 571.542 427.382 574.91 427.865C578.306 428.352 581.891 428.441 585.121 427.113C588.537 425.71 591.13 423.007 593.554 420.313C595.703 417.925 597.995 415.081 600.86 413.781C604.029 412.345 607.445 413.111 610.321 415.063C613.78 417.411 616.251 420.835 619.13 423.805C621.822 426.582 625.894 430.125 630.081 428.613C633.662 427.32 634.445 423.296 636.267 420.449C638.032 417.691 641.433 416.522 644.625 416.86C648.251 417.244 651.212 419.448 653.255 422.389C654.329 423.935 655.13 425.635 655.722 427.42C656.282 429.109 656.552 430.892 657.26 432.532C657.977 434.193 659.099 435.687 660.892 436.236C663.168 436.932 665.191 435.707 667.091 434.598C669.97 432.918 673.424 432.473 676.726 433.074C679.972 433.664 683.135 435.261 685.357 437.726C686.898 439.436 688.223 441.367 689.695 443.14C691.126 444.864 692.536 446.582 693.634 448.546C695.869 452.546 696.116 457.14 696.042 461.624C695.965 466.229 695.359 470.809 694.805 475.375C694.203 480.329 693.602 485.283 693 490.237C692.42 495.017 691.968 499.834 691.223 504.591C690.657 508.204 689.412 512.525 685.693 514.076C685.309 514.236 684.911 514.372 684.501 514.44C684.28 514.477 684.056 514.498 683.831 514.509C683.745 514.513 683.207 514.504 683.429 514.518C683.123 514.498 682.818 514.452 682.518 514.389C682.346 514.353 682.174 514.31 682.005 514.26C681.833 514.21 682.001 514.258 682.031 514.268C681.936 514.236 681.842 514.201 681.748 514.164C680.456 513.662 679.716 513.098 678.631 512.16C676.467 510.29 674.663 508.01 672.341 506.32C669.612 504.335 666.226 503.439 663.012 504.878C658.988 506.679 656.773 510.583 655.194 514.496C654.398 516.467 653.678 518.478 652.651 520.346C651.723 522.035 650.448 523.579 649.004 524.854C646.056 527.457 642.568 529.317 639.053 531.031C638.288 531.404 637.801 532.196 638.116 533.054C638.386 533.792 639.369 534.368 640.14 533.992Z" fill="white"/>
<path d="M649.462 573.662C655.624 570.657 661.851 567.445 666.968 562.808C669.463 560.547 671.636 558.024 673.377 555.135C675.242 552.039 676.5 548.635 677.831 545.289C680.208 539.313 683.556 532.057 690.433 530.323C695.188 529.123 699.332 532.037 702.643 535.096C706.146 538.332 709.218 542.106 713.303 544.651C718.042 547.604 723.673 547.695 728.348 544.474C734.195 540.445 736.343 533.45 737.336 526.759C738.529 518.713 739.335 510.595 740.316 502.522C741.324 494.214 742.334 485.907 743.342 477.599C744.267 469.976 745.163 462.326 745.171 454.637C745.18 446.954 744.266 439.557 740.469 432.758C738.602 429.416 736.176 426.519 733.747 423.581C731.343 420.675 729.179 417.508 726.627 414.733C718.621 406.027 704.772 402.646 693.888 407.703C692.427 408.382 691.072 409.241 689.67 410.028C688.294 410.8 686.613 411.607 684.997 411.175C682.556 410.522 681.541 407.656 680.867 405.504C679.939 402.543 679.348 399.528 678.148 396.65C676.883 393.618 675.231 390.706 673.138 388.168C669.174 383.363 663.661 379.844 657.357 379.338C651.49 378.867 645.296 380.686 641.366 385.25C639.435 387.493 638.302 390.282 637.008 392.908C635.909 395.14 634.573 397.746 632.109 398.699C629.117 399.855 625.908 398.123 623.532 396.38C620.591 394.223 618.064 391.575 615.639 388.867C611.14 383.844 606.75 378.621 600.669 375.453C595.163 372.584 588.838 372.148 583.259 375.055C572.97 380.416 568.293 393.436 556.842 396.932C551.627 398.523 546.013 397.742 540.756 396.792C535.143 395.778 529.555 394.417 523.822 394.348C518.194 394.281 512.592 395.852 508.259 399.553C503.693 403.453 500.936 408.892 499.217 414.56C497.365 420.67 496.84 427.043 496.726 433.397C496.587 441.177 497.092 448.959 498.053 456.677C499.978 472.15 503.571 487.468 507.867 502.443C512.23 517.655 517.833 532.634 526.111 546.184C533.04 557.525 541.981 567.742 552.832 575.482C563.358 582.99 575.612 588.081 588.563 589.149C602.836 590.326 617.019 587.034 630.311 582.036C636.836 579.582 643.194 576.708 649.462 573.662C651.27 572.783 650.202 569.813 648.375 570.701C635.812 576.807 622.712 582.387 608.898 584.894C595.716 587.286 582.25 586.508 569.796 581.369C558.263 576.609 548.083 568.818 539.827 559.519C530.147 548.615 523.117 535.652 517.793 522.141C512.118 507.743 508.094 492.634 504.843 477.518C501.663 462.732 499.541 447.63 499.884 432.476C500.022 426.37 500.632 420.177 502.567 414.352C504.323 409.068 507.186 403.939 511.886 400.751C521.319 394.352 533.353 398.984 543.545 400.446C548.917 401.217 554.576 401.366 559.687 399.266C565.089 397.046 569.189 392.729 573.022 388.47C576.642 384.448 580.321 379.8 585.369 377.511C590.948 374.982 596.876 376.438 601.783 379.769C607.429 383.601 611.459 389.186 616.157 394.034C620.257 398.265 626.609 404.038 633.048 401.713C638.631 399.697 639.818 393.141 642.718 388.692C645.827 383.921 651.794 381.905 657.299 382.489C663.458 383.141 668.546 386.918 672.016 391.912C673.816 394.504 675.173 397.366 676.166 400.357C677.08 403.113 677.52 406.022 678.675 408.699C679.718 411.114 681.346 413.349 683.963 414.143C687.34 415.168 690.394 413.241 693.203 411.603C698.168 408.707 704.058 407.923 709.678 408.946C715.233 409.957 720.608 412.704 724.396 416.938C726.903 419.738 729.073 422.877 731.476 425.772C733.811 428.585 736.115 431.388 737.902 434.593C741.643 441.301 742.138 448.903 742.014 456.431C741.888 464.032 740.899 471.589 739.984 479.126C739.002 487.21 738.021 495.294 737.039 503.378C736.092 511.177 735.355 519.037 734.139 526.799C733.156 533.079 730.903 540.355 724.478 543.035C719.817 544.979 715.508 542.793 711.978 539.742C708.446 536.69 705.502 532.97 701.713 530.213C697.532 527.17 692.387 525.824 687.469 528.026C681.162 530.85 677.74 537.089 675.273 543.203C673.975 546.42 672.798 549.702 671.124 552.75C669.519 555.671 667.336 558.287 664.847 560.497C659.988 564.814 654.18 567.87 648.374 570.7C646.568 571.582 647.636 574.552 649.462 573.662Z" fill="white"/>
<path d="M658.782 613.331C667.283 609.187 675.864 604.748 682.921 598.352C686.299 595.291 689.256 591.858 691.612 587.949C694.2 583.654 695.944 578.932 697.79 574.291C701.157 565.83 705.916 555.696 715.616 553.213C722.436 551.468 728.386 555.533 733.152 559.936C737.967 564.385 742.195 569.603 747.806 573.108C754.193 577.097 761.747 577.272 768.064 572.92C776.044 567.422 778.932 557.86 780.286 548.735C781.942 537.576 783.06 526.314 784.42 515.115C785.819 503.591 787.22 492.067 788.618 480.543C789.894 470.022 791.136 459.463 791.148 448.849C791.16 438.313 789.947 428.134 784.736 418.806C782.146 414.17 778.782 410.15 775.412 406.076C772.078 402.044 769.076 397.651 765.536 393.802C754.605 381.917 735.662 377.377 720.829 384.268C717.062 386.018 712.624 390.24 708.178 389.112C704.541 388.189 702.987 384.059 701.983 380.854C700.696 376.747 699.877 372.565 698.211 368.573C696.476 364.415 694.209 360.432 691.338 356.951C685.935 350.401 678.425 345.638 669.837 344.949C661.922 344.314 653.534 346.782 648.234 352.938C645.589 356.01 644.043 359.831 642.271 363.428C640.669 366.681 638.717 370.392 635.132 371.778C630.767 373.466 626.11 371.008 622.636 368.459C618.513 365.436 614.978 361.717 611.579 357.921C605.413 351.037 599.388 343.855 591.053 339.512C583.578 335.618 575.026 335.003 567.442 338.942C553.118 346.38 546.689 364.453 530.725 369.326C523.381 371.567 515.499 370.498 508.094 369.16C500.364 367.764 492.657 365.872 484.762 365.778C477.051 365.685 469.416 367.814 463.479 372.885C457.277 378.183 453.516 385.617 451.182 393.314C448.628 401.738 447.891 410.523 447.734 419.285C447.54 430.077 448.242 440.871 449.575 451.578C452.238 472.988 457.209 494.182 463.152 514.902C469.19 535.949 476.929 556.685 488.383 575.432C497.971 591.125 510.327 605.247 525.341 615.957C539.861 626.315 556.763 633.312 574.625 634.786C594.312 636.409 613.886 631.839 632.217 624.946C641.269 621.544 650.088 617.557 658.782 613.331C660.59 612.453 659.523 609.482 657.696 610.37C640.214 618.867 621.996 626.606 602.775 630.094C584.387 633.431 565.598 632.318 548.228 625.149C532.129 618.506 517.939 607.62 506.416 594.641C492.955 579.478 483.179 561.436 475.775 542.648C467.882 522.623 462.297 501.61 457.776 480.589C453.365 460.079 450.421 439.13 450.896 418.109C451.246 402.638 453.861 383.009 467.799 373.555C481.066 364.556 497.836 370.97 512.178 373.027C519.527 374.082 527.26 374.291 534.251 371.418C541.639 368.382 547.248 362.45 552.488 356.627C557.59 350.958 562.764 344.466 569.876 341.241C577.817 337.64 586.269 339.74 593.244 344.475C601.077 349.791 606.666 357.537 613.183 364.263C618.689 369.944 627.327 377.949 636.015 374.812C643.584 372.08 645.221 362.962 649.167 356.935C653.619 350.138 662.123 347.286 669.973 348.118C678.664 349.038 685.88 354.387 690.776 361.435C693.302 365.073 695.216 369.095 696.609 373.295C697.878 377.118 698.488 381.153 700.09 384.866C701.456 388.03 703.593 391.018 707.034 392.051C711.516 393.397 715.593 390.778 719.313 388.608C726.346 384.505 734.664 383.369 742.63 384.818C750.492 386.248 758.086 390.15 763.436 396.15C766.907 400.043 769.922 404.387 773.256 408.405C776.495 412.307 779.692 416.193 782.17 420.64C787.418 430.053 788.161 440.668 787.986 451.237C787.811 461.835 786.439 472.37 785.162 482.878C783.801 494.091 782.439 505.304 781.078 516.518C779.764 527.336 778.741 538.239 777.055 549.007C775.654 557.953 772.392 568.186 763.262 571.994C756.597 574.773 750.381 571.694 745.324 567.324C736.013 559.279 726.195 544.785 711.926 551.174C703.336 555.02 698.706 563.596 695.351 571.911C693.551 576.373 691.919 580.925 689.596 585.153C687.315 589.304 684.226 592.998 680.691 596.14C673.915 602.166 665.795 606.421 657.696 610.37C655.889 611.251 656.956 614.222 658.782 613.331Z" fill="white"/>
<path d="M668.103 653.001C678.942 647.716 689.876 642.052 698.875 633.897C703.134 630.036 706.876 625.693 709.848 620.763C713.159 615.269 715.389 609.23 717.751 603.293C722.104 592.351 728.275 579.33 740.799 576.104C749.685 573.815 757.439 579.029 763.661 584.778C769.789 590.44 775.173 597.1 782.311 601.566C790.344 606.593 799.825 606.848 807.782 601.366C817.893 594.399 821.522 582.27 823.237 570.712C825.355 556.437 826.785 542.033 828.524 527.708C830.314 512.968 832.106 498.228 833.894 483.488C835.522 470.068 837.11 456.6 837.125 443.062C837.14 429.672 835.629 416.712 829.004 404.853C825.691 398.923 821.388 393.782 817.077 388.57C812.813 383.413 808.975 377.791 804.445 372.871C790.581 357.812 766.558 352.104 747.771 360.833C742.828 363.129 737.193 368.501 731.359 367.049C726.528 365.848 724.434 360.467 723.099 356.205C721.453 350.952 720.405 345.603 718.274 340.497C716.07 335.212 713.186 330.159 709.538 325.736C702.695 317.44 693.189 311.434 682.316 310.561C672.354 309.762 661.771 312.88 655.102 320.627C651.743 324.527 649.785 329.382 647.535 333.95C645.429 338.223 642.86 343.038 638.155 344.857C632.416 347.076 626.312 343.893 621.739 340.539C616.435 336.649 611.891 331.859 607.518 326.976C599.686 318.231 592.027 309.09 581.437 303.573C571.995 298.654 561.211 297.856 551.625 302.829C533.271 312.353 525.083 335.472 504.609 341.722C495.136 344.613 484.985 343.256 475.431 341.53C465.584 339.751 455.76 337.329 445.701 337.209C435.908 337.092 426.24 339.777 418.698 346.22C410.861 352.914 406.096 362.343 403.147 372.07C399.891 382.808 398.942 394.006 398.742 405.175C398.495 418.979 399.392 432.786 401.096 446.481C404.498 473.828 410.845 500.897 418.437 527.363C426.149 554.246 436.026 580.739 450.655 604.683C462.902 624.727 478.673 642.756 497.85 656.435C516.363 669.641 537.915 678.547 560.686 680.425C585.787 682.495 610.754 676.646 634.124 667.859C645.702 663.505 656.982 658.406 668.103 653.001C669.911 652.123 668.843 649.152 667.016 650.04C644.617 660.928 621.28 670.825 596.653 675.294C573.058 679.576 548.946 678.127 526.66 668.93C505.995 660.402 487.795 646.423 473.006 629.764C455.763 610.342 443.241 587.221 433.757 563.156C423.648 537.504 416.501 510.587 410.71 483.66C405.068 457.426 401.302 430.631 401.91 403.742C402.361 383.794 405.746 358.545 423.712 346.359C440.813 334.759 462.32 342.957 480.811 345.609C490.137 346.946 499.945 347.216 508.816 343.57C518.19 339.718 525.306 332.172 531.955 324.785C538.54 317.468 545.208 309.133 554.384 304.971C564.687 300.299 575.661 303.042 584.706 309.181C594.726 315.983 601.873 325.889 610.21 334.492C617.12 341.623 628.047 351.861 638.982 347.913C648.535 344.463 650.624 332.782 655.617 325.178C661.41 316.357 672.451 312.668 682.646 313.747C693.871 314.936 703.213 321.858 709.535 330.959C712.789 335.643 715.258 340.826 717.052 346.233C718.675 351.123 719.454 356.284 721.504 361.034C723.195 364.951 725.838 368.683 730.104 369.959C735.687 371.631 740.796 368.313 745.423 365.613C754.523 360.305 765.268 358.814 775.582 360.691C785.757 362.542 795.554 367.599 802.474 375.362C806.914 380.343 810.771 385.899 815.036 391.038C819.178 396.028 823.267 401 826.438 406.688C833.192 418.804 834.182 432.435 833.957 446.044C833.732 459.638 831.977 473.151 830.34 486.63C828.598 500.972 826.856 515.316 825.115 529.658C823.435 543.497 822.126 557.443 819.969 571.215C818.151 582.827 813.878 596.018 802.045 600.953C793.376 604.569 785.252 600.595 778.668 594.907C766.899 584.738 754.431 566.241 736.381 574.323C725.509 579.191 719.67 590.103 715.428 600.618C713.125 606.326 711.038 612.149 708.067 617.556C705.11 622.939 701.114 627.71 696.533 631.784C687.837 639.517 677.408 644.973 667.016 650.04C665.21 650.921 666.277 653.892 668.103 653.001Z" fill="white"/>
<path d="M677.425 692.671C690.603 686.246 703.89 679.355 714.83 669.441C719.971 664.781 724.499 659.528 728.086 653.576C732.118 646.884 734.835 639.527 737.713 632.295C743.053 618.872 750.638 602.962 765.984 598.995C776.936 596.165 786.493 602.524 794.172 609.619C801.615 616.496 808.156 624.588 816.816 630.023C826.49 636.094 837.91 636.42 847.5 629.811C859.743 621.376 864.113 606.68 866.189 592.688C868.77 575.299 870.511 557.752 872.631 540.301C874.811 522.345 876.994 504.388 879.172 486.432C881.152 470.113 883.085 453.736 883.104 437.274C883.122 421.031 881.312 405.289 873.274 390.9C869.239 383.677 863.996 377.413 858.745 371.064C853.55 364.783 848.877 357.931 843.357 351.939C826.559 333.706 797.457 326.832 774.714 337.398C768.602 340.238 761.759 346.765 754.543 344.986C748.52 343.502 745.885 336.876 744.218 331.556C742.213 325.156 740.936 318.64 738.341 312.419C735.666 306.009 732.167 299.885 727.741 294.519C719.458 284.478 707.955 277.228 694.799 276.172C682.79 275.208 670.011 278.976 661.972 288.314C657.9 293.044 655.53 298.931 652.801 304.469C650.193 309.763 647.005 315.684 641.181 317.936C634.068 320.685 626.517 316.777 620.846 312.618C614.361 307.861 608.808 302 603.461 296.03C593.961 285.424 584.668 274.323 571.824 267.632C560.416 261.689 547.399 260.707 535.812 266.715C513.427 278.323 503.48 306.488 478.495 314.115C466.894 317.656 454.475 316.011 442.772 313.897C430.808 311.736 418.865 308.784 406.644 308.638C394.768 308.495 383.068 311.738 373.921 319.552C364.449 327.643 358.68 339.067 355.115 350.822C351.157 363.876 349.996 377.485 349.752 391.063C349.451 407.878 350.545 424.699 352.62 441.382C356.762 474.665 364.486 507.609 373.726 539.822C383.111 572.539 395.126 604.789 412.931 633.931C427.836 658.326 447.022 680.261 470.363 696.91C492.869 712.965 519.069 723.778 546.75 726.061C577.265 728.578 607.624 721.451 636.033 710.769C650.136 705.467 663.878 699.256 677.425 692.671C679.234 691.792 678.166 688.822 676.339 689.71C649.021 702.988 620.566 715.044 590.531 720.494C561.729 725.721 532.295 723.937 505.093 712.711C479.862 702.299 457.652 685.225 439.597 664.887C418.572 641.205 403.305 613.005 391.741 583.663C379.414 552.385 370.706 519.565 363.644 486.732C356.771 454.773 352.184 422.131 352.924 389.375C353.476 364.951 357.631 334.082 379.627 319.162C400.56 304.963 426.806 314.943 449.445 318.19C460.748 319.812 472.631 320.14 483.381 315.723C494.742 311.054 503.366 301.894 511.423 292.942C519.49 283.979 527.652 273.799 538.893 268.702C551.558 262.958 565.055 266.344 576.168 273.888C588.374 282.173 597.081 294.241 607.237 304.721C615.551 313.3 628.769 325.772 641.95 321.013C653.487 316.847 656.03 302.601 662.068 293.422C669.203 282.575 682.781 278.048 695.32 279.377C709.078 280.834 720.548 289.328 728.297 300.483C732.277 306.212 735.302 312.557 737.497 319.171C739.474 325.128 740.424 331.416 742.921 337.202C744.936 341.871 748.086 346.347 753.176 347.868C759.86 349.865 766.001 345.848 771.536 342.619C782.703 336.105 795.876 334.26 808.535 336.563C821.025 338.836 833.024 345.048 841.515 354.575C846.924 360.642 851.622 367.411 856.817 373.671C861.863 379.751 866.845 385.808 870.708 392.736C878.97 407.555 880.206 424.203 879.93 440.852C879.656 457.442 877.517 473.932 875.52 490.382C873.398 507.855 871.277 525.327 869.155 542.8C867.108 559.657 865.514 576.646 862.887 593.424C860.651 607.702 855.368 623.851 840.832 629.913C830.159 634.364 820.126 629.497 812.016 622.49C797.79 610.197 782.668 587.699 760.84 597.473C747.686 603.362 740.638 616.613 735.508 629.328C732.703 636.28 730.161 643.374 726.542 649.961C722.908 656.574 718.007 662.423 712.378 667.429C701.764 676.87 689.025 683.526 676.339 689.711C674.532 690.591 675.599 693.561 677.425 692.671Z" fill="white"/>
<path d="M686.746 732.341C702.262 724.775 717.902 716.659 730.783 704.985C736.806 699.526 742.119 693.363 746.321 686.39C751.076 678.499 754.28 669.825 757.672 661.297C763.999 645.395 772.998 626.593 791.167 621.886C804.185 618.513 815.546 626.019 824.681 634.459C833.437 642.55 841.135 652.08 851.32 658.48C862.638 665.592 875.989 665.994 887.217 658.257C901.592 648.353 906.702 631.089 909.14 614.665C912.183 594.161 914.237 573.471 916.735 552.895C919.306 531.722 921.879 510.549 924.448 489.376C926.779 470.16 929.058 450.873 929.081 431.487C929.102 412.39 926.993 393.867 917.542 376.947C912.784 368.43 906.602 361.045 900.411 353.559C894.285 346.152 888.776 338.071 882.266 331.008C862.535 309.602 828.354 301.559 801.655 313.963C794.374 317.345 786.321 325.029 777.723 322.923C770.508 321.156 767.332 313.285 765.334 306.907C762.97 299.361 761.464 291.677 758.404 284.342C755.26 276.806 751.144 269.611 745.941 263.303C736.218 251.516 722.719 243.023 707.278 241.784C693.222 240.656 678.249 245.073 668.839 256.003C664.054 261.562 661.271 268.481 658.064 274.991C654.953 281.305 651.148 288.331 644.203 291.016C635.717 294.296 626.718 289.662 619.948 284.698C612.283 279.075 605.72 272.143 599.4 265.085C588.234 252.618 577.306 239.559 562.207 231.693C548.833 224.725 533.584 223.56 519.995 230.603C493.58 244.294 481.873 277.507 452.378 286.511C438.648 290.702 423.96 288.769 410.109 286.267C396.027 283.724 381.967 280.241 367.583 280.069C353.623 279.902 339.891 283.702 329.139 292.887C318.032 302.375 311.259 315.794 307.079 329.578C302.419 344.946 301.046 360.968 300.759 376.953C300.404 396.78 301.694 416.613 304.141 436.285C309.021 475.506 318.122 514.325 329.011 552.283C340.069 590.835 354.222 628.843 375.202 663.181C392.766 691.929 415.367 717.769 442.871 737.388C469.371 756.291 500.219 769.012 532.811 771.7C568.74 774.664 604.49 766.259 637.938 753.682C654.569 747.429 670.772 740.105 686.746 732.341C688.554 731.462 687.486 728.492 685.659 729.38C653.423 745.048 619.849 759.262 584.408 765.694C550.4 771.866 515.643 769.746 483.525 756.491C453.728 744.195 427.508 724.026 406.185 700.009C381.379 672.068 363.366 638.789 349.722 604.17C335.178 567.265 324.909 528.542 316.577 489.802C308.473 452.119 303.064 413.63 303.937 375.008C304.591 346.107 309.515 309.618 335.54 291.966C360.306 275.166 391.29 286.929 418.078 290.771C431.357 292.676 445.314 293.065 457.945 287.874C471.292 282.39 481.424 271.615 490.889 261.099C500.438 250.489 510.095 238.465 523.4 232.431C538.427 225.616 554.447 229.645 567.629 238.593C582.022 248.363 592.287 262.592 604.263 274.95C613.98 284.977 629.489 299.682 644.916 294.111C658.443 289.227 661.423 272.417 668.517 261.664C677.007 248.796 693.099 243.427 707.993 245.005C724.284 246.73 737.881 256.797 747.056 270.005C751.762 276.781 755.343 284.287 757.939 292.108C760.27 299.132 761.39 306.546 764.334 313.368C766.675 318.789 770.331 324.01 776.246 325.775C784.03 328.097 791.203 323.381 797.645 319.623C810.88 311.902 826.48 309.704 841.486 312.434C856.29 315.127 870.491 322.496 880.553 333.786C886.93 340.94 892.47 348.921 898.596 356.302C904.546 363.471 910.42 370.612 914.975 378.782C924.744 396.304 926.227 415.968 925.901 435.657C925.577 455.243 923.056 474.711 920.697 494.131C918.195 514.734 915.694 535.336 913.192 555.938C910.778 575.815 908.9 595.847 905.802 615.63C903.148 632.573 896.855 651.681 879.615 658.87C866.938 664.157 854.997 658.396 845.361 650.07C828.677 635.654 810.903 609.154 785.295 620.619C769.86 627.53 761.603 643.118 755.586 658.033C752.278 666.231 749.281 674.595 745.013 682.362C740.703 690.205 734.896 697.133 728.221 703.07C715.687 714.218 700.639 722.074 685.659 729.379C683.852 730.261 684.92 733.231 686.746 732.341Z" fill="white"/>
<path d="M696.067 772.011C713.922 763.305 731.915 753.962 746.738 740.529C753.643 734.271 759.741 727.198 764.558 719.204C770.035 710.114 773.726 700.122 777.634 690.299C784.946 671.918 795.359 650.224 816.351 644.777C831.435 640.864 844.599 649.515 855.191 659.301C865.261 668.606 874.115 679.573 885.825 686.938C898.787 695.09 914.069 695.568 926.935 686.704C943.442 675.33 949.293 655.499 952.091 636.642C955.596 613.023 957.962 589.191 960.84 565.488C963.801 541.099 966.766 516.711 969.725 492.321C972.407 470.206 975.032 448.01 975.058 425.7C975.082 403.75 972.674 382.444 961.81 362.996C956.329 353.184 949.208 344.677 942.077 336.054C935.021 327.524 928.679 318.208 921.175 310.078C898.496 285.507 859.264 276.281 828.597 290.529C820.148 294.455 810.884 303.294 800.905 300.862C792.499 298.812 788.781 289.695 786.451 282.259C783.728 273.567 781.993 264.716 778.468 256.267C774.854 247.604 770.122 239.339 764.142 232.088C752.979 218.556 737.483 208.819 719.759 207.396C703.655 206.104 686.487 211.171 675.708 223.692C670.208 230.08 667.013 238.033 663.328 245.512C659.714 252.847 655.291 260.978 647.227 264.096C637.368 267.907 626.92 262.549 619.053 256.778C610.206 250.289 602.635 242.286 595.34 234.141C582.507 219.813 569.945 204.795 552.593 195.754C537.251 187.762 519.77 186.414 504.179 194.492C473.734 210.266 460.267 248.527 426.262 258.907C410.404 263.748 393.447 261.528 377.448 258.638C361.248 255.712 345.07 251.699 328.524 251.501C312.481 251.309 296.716 255.666 284.36 266.221C271.617 277.107 263.84 292.52 259.045 308.334C253.683 326.016 252.097 344.451 251.768 362.844C251.359 385.682 252.844 408.529 255.664 431.188C261.282 476.346 271.76 521.04 284.297 564.745C297.029 609.132 313.32 652.896 337.475 692.432C357.697 725.531 383.714 755.277 415.381 777.866C445.875 799.618 481.371 814.246 518.874 817.339C560.216 820.749 601.358 811.067 639.845 796.595C659.003 789.391 677.667 780.954 696.067 772.011C697.876 771.132 696.808 768.162 694.981 769.05C657.827 787.108 619.134 803.481 578.287 810.894C539.072 818.011 498.992 815.556 461.958 800.272C427.595 786.092 397.365 762.829 372.776 735.132C344.188 702.931 323.43 664.574 307.706 624.677C290.944 582.146 279.114 537.519 269.512 492.874C260.176 449.466 253.946 405.131 254.952 360.641C255.706 327.263 261.4 285.155 291.454 264.77C320.053 245.37 355.775 258.916 386.712 263.353C401.968 265.541 418 265.99 432.511 260.027C447.844 253.726 459.484 241.337 470.357 229.256C481.388 217 492.539 203.132 507.908 196.162C525.298 188.275 543.84 192.948 559.091 203.3C575.671 214.554 587.495 230.945 601.29 245.18C612.411 256.654 630.211 273.593 647.884 267.212C663.394 261.612 666.83 242.236 674.968 229.908C684.798 215.014 703.429 208.809 720.667 210.635C739.492 212.629 755.216 224.268 765.817 239.529C771.25 247.351 775.387 256.018 778.384 265.046C781.069 273.138 782.358 281.677 785.75 289.536C788.415 295.71 792.579 301.675 799.318 303.683C808.203 306.331 816.407 300.916 823.757 296.629C839.059 287.702 857.087 285.15 874.44 288.307C891.557 291.422 907.962 299.945 919.594 312.999C926.939 321.24 933.322 330.433 940.378 338.935C947.232 347.193 953.998 355.419 959.244 364.83C970.521 385.055 972.251 407.736 971.874 430.464C971.501 453.047 968.596 475.492 965.877 497.884C962.995 521.615 960.113 545.347 957.232 569.079C954.451 591.975 952.287 615.05 948.719 637.839C945.648 657.447 938.344 679.513 918.401 687.83C903.72 693.953 889.87 687.297 878.708 677.653C859.566 661.113 839.139 630.61 809.753 643.768C792.037 651.701 782.571 669.626 775.665 686.741C771.855 696.185 768.402 705.82 763.486 714.767C758.501 723.84 751.787 731.845 744.065 738.714C729.612 751.57 712.255 760.627 694.981 769.05C693.174 769.931 694.242 772.901 696.067 772.011Z" fill="white"/>
<path d="M702.907 801.121C722.479 791.578 742.198 781.336 758.445 766.612C765.998 759.767 772.671 752.026 777.94 743.283C783.947 733.315 787.995 722.355 792.281 711.581C800.293 691.442 811.775 667.472 834.831 661.575C851.465 657.319 865.885 666.723 877.579 677.529C888.614 687.725 898.316 699.747 911.145 707.82C925.313 716.736 942.014 717.269 956.08 707.577C974.151 695.125 980.546 673.411 983.609 652.768C987.454 626.864 990.049 600.725 993.205 574.729C996.453 547.98 999.705 521.231 1002.95 494.481C1005.89 470.238 1008.77 445.908 1008.8 421.452C1008.82 397.408 1006.2 374.061 994.295 352.756C988.284 341.995 980.474 332.664 972.653 323.207C964.915 313.851 957.96 303.632 949.729 294.717C924.894 267.819 881.939 257.734 848.368 273.331C839.062 277.655 828.909 287.343 817.917 284.671C808.636 282.414 804.521 272.382 801.948 264.17C798.961 254.637 797.059 244.929 793.192 235.662C789.233 226.174 784.05 217.122 777.499 209.18C765.279 194.367 748.319 183.717 728.918 182.16C711.312 180.748 692.533 186.291 680.749 199.98C674.726 206.976 671.228 215.687 667.192 223.879C663.209 231.962 658.332 240.905 649.447 244.339C638.58 248.54 627.07 242.649 618.397 236.288C608.683 229.163 600.371 220.374 592.362 211.431C578.306 195.737 564.544 179.281 545.538 169.379C528.754 160.635 509.634 159.153 492.574 167.99C459.172 185.293 444.414 227.258 407.099 238.648C389.679 243.966 371.058 241.534 353.481 238.359C335.728 235.152 317.996 230.751 299.862 230.533C282.291 230.323 265.035 235.089 251.5 246.651C237.558 258.561 229.044 275.439 223.797 292.741C217.92 312.122 216.179 332.327 215.819 352.487C215.37 377.536 216.999 402.593 220.091 427.445C226.252 476.96 237.74 525.965 251.487 573.887C265.446 622.555 283.306 670.544 309.791 713.894C331.964 750.186 360.487 782.798 395.209 807.567C428.634 831.409 467.541 847.436 508.647 850.827C553.962 854.565 599.061 843.944 641.246 828.083C662.256 820.183 682.727 810.93 702.907 801.121C704.716 800.242 703.648 797.272 701.821 798.16C661.058 817.973 618.609 835.93 573.794 844.063C530.758 851.873 486.772 849.171 446.131 832.399C408.418 816.836 375.245 791.303 348.258 760.905C316.896 725.579 294.123 683.495 276.873 639.725C258.484 593.066 245.508 544.106 234.974 495.127C224.734 447.519 217.902 398.893 219.005 350.098C219.833 313.435 226.092 267.203 259.103 244.812C290.514 223.505 329.714 238.358 363.695 243.232C380.401 245.628 397.955 246.122 413.846 239.592C430.637 232.692 443.383 219.118 455.289 205.889C467.408 192.424 479.655 177.203 496.539 169.546C515.663 160.873 536.056 166.018 552.825 177.4C571.009 189.744 583.978 207.72 599.108 223.333C611.257 235.87 630.74 254.448 650.06 247.472C667.025 241.346 670.797 220.088 679.7 206.603C690.515 190.224 711.009 183.404 729.967 185.412C750.65 187.603 767.935 200.396 779.583 217.164C785.549 225.753 790.095 235.272 793.385 245.187C796.33 254.062 797.744 263.428 801.465 272.046C804.368 278.773 808.903 285.284 816.247 287.471C825.94 290.357 834.902 284.43 842.917 279.754C859.736 269.943 879.545 267.131 898.62 270.601C917.435 274.024 935.456 283.396 948.242 297.744C956.297 306.783 963.297 316.864 971.037 326.189C978.554 335.247 985.974 344.269 991.729 354.59C1004.11 376.799 1006.02 401.693 1005.61 426.652C1005.2 451.434 1002.01 476.064 999.029 500.636C995.869 526.664 992.708 552.693 989.547 578.721C986.498 603.834 984.124 629.141 980.21 654.135C976.833 675.699 968.787 699.936 946.861 709.081C930.71 715.817 915.459 708.505 903.178 697.893C882.232 679.795 859.858 646.356 827.699 660.755C808.308 669.437 797.955 689.078 790.398 707.807C786.219 718.165 782.432 728.732 777.041 738.545C771.56 748.521 764.181 757.317 755.691 764.87C739.829 778.979 720.778 788.916 701.821 798.16C700.015 799.041 701.082 802.011 702.907 801.121Z" fill="white"/>
<path d="M709.748 830.232C731.035 819.852 752.481 808.711 770.153 792.695C778.352 785.264 785.602 776.855 791.322 767.363C797.86 756.515 802.265 744.588 806.929 732.864C815.661 710.913 828.186 684.804 853.311 678.373C871.465 673.727 887.201 683.962 899.968 695.759C911.967 706.845 922.517 719.921 936.465 728.703C951.839 738.383 969.958 738.972 985.226 728.452C1004.86 714.923 1011.8 691.324 1015.13 668.896C1019.31 640.706 1022.14 612.261 1025.57 583.971C1029.11 554.861 1032.64 525.752 1036.17 496.642C1039.37 470.273 1042.51 443.807 1042.54 417.206C1042.57 391.068 1039.72 365.679 1026.78 342.517C1020.24 330.807 1011.74 320.653 1003.23 310.362C994.808 300.18 987.24 289.058 978.281 279.358C951.292 250.133 904.615 239.188 868.139 256.134C857.975 260.856 846.934 271.394 834.929 268.481C824.773 266.016 820.261 255.071 817.444 246.082C814.194 235.708 812.123 225.144 807.916 215.059C803.613 204.745 797.977 194.907 790.855 186.274C777.579 170.179 759.153 158.617 738.077 156.926C718.968 155.392 698.579 161.413 685.789 176.269C679.242 183.873 675.442 193.342 671.055 202.247C666.703 211.079 661.373 220.832 651.666 224.585C639.791 229.176 627.218 222.752 617.739 215.8C607.159 208.04 598.107 198.464 589.383 188.724C574.103 171.663 559.143 153.771 538.482 143.007C520.254 133.511 499.496 131.894 480.967 141.491C444.608 160.322 428.559 205.991 387.934 218.392C368.952 224.186 348.666 221.544 329.513 218.084C310.206 214.597 290.92 209.806 271.199 209.57C252.099 209.341 233.352 214.515 218.64 227.083C203.497 240.019 194.246 258.36 188.548 277.152C182.156 298.231 180.259 320.206 179.867 342.132C179.379 369.392 181.152 396.66 184.516 423.705C191.219 477.576 203.718 530.893 218.674 583.031C233.863 635.982 253.291 688.195 282.107 735.36C306.231 774.845 337.259 810.323 375.037 837.271C411.391 863.204 453.71 880.631 498.419 884.318C547.708 888.384 596.763 876.825 642.645 859.574C665.509 850.976 687.786 840.906 709.748 830.232C711.556 829.353 710.488 826.383 708.661 827.271C664.289 848.838 618.084 868.379 569.301 877.232C522.445 885.736 474.553 882.788 430.304 864.527C389.241 847.582 353.125 819.777 323.741 786.679C289.604 748.228 264.816 702.416 246.039 654.774C226.023 603.986 211.901 550.694 200.435 497.381C189.292 445.572 181.857 392.656 183.057 339.556C183.96 299.607 190.784 249.252 226.751 224.855C260.975 201.64 303.652 217.802 340.677 223.112C358.834 225.716 377.91 226.253 395.181 219.156C413.429 211.658 427.281 196.899 440.221 182.522C453.428 167.848 466.772 151.274 485.171 142.93C506.028 133.471 528.272 139.087 546.559 151.501C566.349 164.933 580.461 184.495 596.926 201.486C610.105 215.086 631.27 235.303 652.238 227.731C670.657 221.081 674.764 197.941 684.433 183.299C696.232 165.433 718.589 158 739.267 160.19C761.809 162.578 780.656 176.525 793.35 194.8C799.849 204.156 804.802 214.528 808.386 225.328C811.591 234.986 813.131 245.179 817.179 254.558C820.321 261.836 825.228 268.894 833.177 271.26C843.677 274.385 853.396 267.945 862.078 262.88C880.414 252.184 902.004 249.113 922.801 252.896C943.314 256.628 962.952 266.848 976.89 282.49C985.655 292.327 993.273 303.298 1001.7 313.446C1009.88 323.302 1017.95 333.121 1024.21 344.352C1037.7 368.544 1039.79 395.653 1039.34 422.842C1038.9 449.823 1035.43 476.638 1032.18 503.39C1028.74 531.715 1025.3 560.04 1021.86 588.365C1018.55 615.693 1015.96 643.234 1011.7 670.433C1008.02 693.953 999.232 720.36 975.322 730.332C957.7 737.681 941.049 729.713 927.648 718.134C904.899 698.478 880.578 662.101 845.646 677.742C824.581 687.174 813.34 708.531 805.133 728.874C800.585 740.145 796.464 751.645 790.596 762.324C784.619 773.203 776.575 782.791 767.317 791.026C750.047 806.389 729.302 817.206 708.661 827.271C706.854 828.152 707.922 831.122 709.748 830.232Z" fill="white"/>
<path d="M716.587 859.342C739.591 848.126 762.763 836.085 781.86 818.778C790.707 810.76 798.532 801.683 804.704 791.442C811.772 779.714 816.534 766.821 821.576 754.146C831.029 730.382 844.595 702.134 871.791 695.171C891.465 690.133 908.516 701.2 922.356 713.987C935.319 725.964 946.719 740.095 961.785 749.585C978.365 760.029 997.903 760.674 1014.37 749.326C1035.57 734.718 1043.05 709.236 1046.65 685.022C1051.17 654.546 1054.22 623.795 1057.94 593.211C1061.76 561.742 1065.58 530.272 1069.4 498.802C1072.86 470.305 1076.24 441.705 1076.28 412.958C1076.31 384.727 1073.24 357.296 1059.27 332.278C1052.19 319.618 1043.01 308.641 1033.8 297.515C1024.7 286.508 1016.52 274.483 1006.83 263.997C977.689 232.445 927.29 220.64 887.909 238.936C876.852 244.073 864.996 255.394 851.939 252.29C840.913 249.668 835.988 237.722 832.94 227.993C829.426 216.778 827.187 205.357 822.639 194.455C817.991 183.314 811.903 172.691 804.211 163.366C789.878 145.99 769.988 133.516 747.235 131.69C726.624 130.036 704.624 136.533 690.829 152.557C683.758 160.769 679.655 170.996 674.917 180.613C670.197 190.194 664.413 200.759 653.885 204.829C641.002 209.809 627.367 202.853 617.082 195.31C605.635 186.914 595.842 176.552 586.404 166.014C569.901 147.588 553.741 128.258 531.426 116.632C511.755 106.384 489.359 104.633 469.361 114.989C430.044 135.349 412.704 184.723 368.769 198.134C348.226 204.405 326.275 201.551 305.545 197.807C284.685 194.039 263.844 188.859 242.536 188.604C221.908 188.356 201.669 193.94 185.779 207.514C169.437 221.474 159.449 241.28 153.299 261.56C146.392 284.338 144.34 308.083 143.915 331.776C143.388 361.246 145.304 390.725 148.942 419.963C156.187 478.191 169.696 535.819 185.861 592.174C202.278 649.406 223.275 705.844 254.421 756.822C280.496 799.5 314.03 837.845 354.863 866.973C394.148 894.996 439.878 913.822 488.191 917.807C541.452 922.2 594.464 909.704 644.044 891.062C668.762 881.768 692.846 870.882 716.587 859.342C718.396 858.464 717.328 855.493 715.501 856.381C667.52 879.702 617.559 900.827 564.809 910.401C514.132 919.598 462.334 916.403 414.478 896.654C370.063 878.326 331.004 848.251 299.224 812.453C262.311 770.876 235.508 721.338 215.205 669.823C193.562 614.906 178.295 557.282 165.896 499.635C153.85 443.625 145.811 386.419 147.109 329.013C148.086 285.78 155.475 231.3 194.398 204.897C231.435 179.775 277.589 197.244 317.659 202.991C337.267 205.803 357.864 206.384 376.515 198.721C396.221 190.623 411.18 174.68 425.153 159.155C439.447 143.272 453.888 125.344 473.802 116.314C496.392 106.069 520.487 112.157 540.293 125.601C561.687 140.123 576.943 161.271 594.743 179.639C608.952 194.301 631.799 216.157 654.414 207.991C674.288 200.815 678.731 175.792 689.166 159.995C701.949 140.642 726.168 132.595 748.567 134.968C772.968 137.553 793.375 152.653 807.116 172.435C814.148 182.559 819.51 193.782 823.388 205.469C826.853 215.909 828.517 226.929 832.894 237.068C836.274 244.898 841.552 252.503 850.107 255.047C861.415 258.41 871.891 251.458 881.238 246.005C901.091 234.424 924.463 231.093 946.982 235.19C969.193 239.231 990.447 250.298 1005.54 267.234C1015.01 277.869 1023.25 289.729 1032.35 300.7C1041.2 311.355 1049.93 321.97 1056.7 334.112C1071.29 360.288 1073.57 389.61 1073.08 419.03C1072.6 448.209 1068.85 477.209 1065.34 506.141C1061.62 536.763 1057.9 567.384 1054.18 598.006C1050.59 627.55 1047.8 657.324 1043.2 686.728C1039.21 712.204 1029.68 740.783 1003.78 751.582C984.691 759.545 966.639 750.921 952.118 738.373C927.566 717.159 901.297 677.846 863.592 694.728C840.853 704.91 828.725 727.982 819.866 749.94C814.95 762.125 810.495 774.557 804.151 786.102C797.678 797.883 788.969 808.262 778.943 817.181C760.265 833.797 737.825 845.496 715.5 856.381C713.694 857.262 714.761 860.233 716.587 859.342Z" fill="white"/>
<path d="M723.428 888.453C748.147 876.4 773.046 863.459 793.567 844.861C803.061 836.257 811.463 826.512 818.086 815.521C825.684 802.914 830.803 789.054 836.224 775.428C846.398 749.852 861.005 719.465 890.272 711.968C911.465 706.54 929.833 718.438 944.745 732.216C958.672 745.084 970.92 760.269 987.106 770.468C1004.89 781.676 1025.85 782.376 1043.52 770.2C1066.28 754.515 1074.31 727.148 1078.17 701.149C1083.03 668.388 1086.31 635.33 1090.3 602.452C1094.41 568.623 1098.52 534.793 1102.62 500.963C1106.34 470.339 1109.98 439.604 1110.01 408.711C1110.05 378.386 1106.76 348.914 1091.75 322.039C1084.15 308.43 1074.27 296.63 1064.38 284.669C1054.59 272.837 1045.8 259.908 1035.39 248.637C1004.09 214.758 949.966 202.093 907.68 221.739C895.766 227.274 883.022 239.442 868.951 236.099C857.05 233.273 851.727 220.409 848.436 209.905C844.659 197.848 842.252 185.572 837.363 173.852C832.371 161.884 825.83 150.475 817.568 140.459C802.178 121.802 780.823 108.415 756.394 106.455C734.28 104.68 710.67 111.655 695.869 128.846C688.275 137.667 683.87 148.652 678.781 158.981C673.692 169.311 667.454 180.687 656.104 185.075C642.214 190.444 627.516 182.956 616.425 174.821C604.111 165.79 593.578 154.642 583.425 143.306C565.698 123.514 548.34 102.746 524.37 90.2591C503.256 79.2593 479.223 77.3741 457.755 88.489C415.481 110.377 396.849 163.455 349.605 177.877C327.5 184.624 303.884 181.56 281.578 177.53C259.163 173.482 236.768 167.913 213.874 167.638C191.716 167.373 169.986 173.365 152.919 187.945C135.377 202.931 124.652 224.201 118.051 245.97C110.629 270.446 108.421 295.962 107.965 321.422C107.398 353.101 109.458 384.791 113.368 416.221C121.155 478.806 135.675 540.746 153.05 601.317C170.695 662.831 193.26 723.494 226.737 778.286C254.762 824.158 290.803 865.369 334.691 896.675C376.907 926.789 426.047 947.015 477.963 951.298C535.198 956.018 592.167 942.585 645.444 922.552C672.016 912.561 697.905 900.858 723.428 888.453C725.236 887.574 724.168 884.604 722.341 885.492C670.751 910.567 617.034 933.276 560.316 943.57C505.818 953.461 450.114 950.019 398.65 928.782C350.886 909.071 308.885 876.725 274.707 838.227C235.019 793.524 206.202 740.259 184.372 684.871C161.102 625.826 144.689 563.869 131.359 501.889C118.409 441.678 109.767 380.181 111.162 318.47C112.214 271.952 120.167 213.348 162.048 184.94C201.897 157.909 251.529 176.687 294.642 182.871C315.701 185.891 337.821 186.517 357.851 178.286C379.014 169.589 395.08 152.461 410.086 135.788C425.468 118.697 441.006 99.4159 462.434 89.6983C486.758 78.6676 512.704 85.2276 534.028 99.702C557.026 115.313 573.426 138.047 592.562 157.792C607.8 173.517 632.329 197.012 656.592 188.251C677.921 180.55 682.7 153.644 693.9 136.691C707.667 115.852 733.749 107.191 757.868 109.746C784.127 112.527 806.096 128.782 820.883 150.071C828.449 160.962 834.218 173.038 838.391 185.61C842.115 196.834 843.904 208.679 848.609 219.58C852.227 227.962 857.878 236.113 867.038 238.836C879.153 242.438 890.386 234.973 900.399 229.132C921.77 216.665 946.923 213.074 971.164 217.485C995.072 221.834 1017.94 233.75 1034.19 251.98C1044.37 263.413 1053.23 276.162 1063.02 287.956C1072.52 299.411 1081.91 310.821 1089.18 323.874C1104.89 352.033 1107.34 383.569 1106.82 415.22C1106.3 446.598 1102.27 477.782 1098.49 508.895C1094.49 541.813 1090.49 574.731 1086.5 607.649C1082.64 639.409 1079.64 671.416 1074.69 703.025C1070.39 730.457 1060.12 761.207 1032.24 772.834C1011.68 781.409 992.229 772.129 976.588 758.614C950.233 735.842 922.017 693.592 881.54 711.716C857.126 722.647 844.111 747.435 834.601 771.007C829.316 784.106 824.527 797.471 817.707 809.881C810.738 822.565 801.364 833.736 790.57 843.338C770.483 861.207 746.349 873.786 722.341 885.493C720.534 886.373 721.602 889.344 723.428 888.453Z" fill="white"/>
<path d="M730.267 917.564C756.703 904.674 783.328 890.833 805.274 870.945C815.416 861.754 824.393 851.341 831.468 839.602C839.596 826.115 845.072 811.287 850.871 796.711C861.767 769.322 877.414 736.796 908.752 728.767C931.464 722.947 951.149 735.676 967.133 750.446C982.024 764.204 995.12 780.448 1012.43 791.351C1031.42 803.319 1053.79 804.08 1072.66 791.075C1096.99 774.312 1105.56 745.061 1109.68 717.276C1114.88 682.23 1118.39 646.865 1122.67 611.694C1127.06 575.504 1131.46 539.315 1135.85 503.124C1139.82 470.373 1143.72 437.504 1143.75 404.464C1143.79 372.046 1140.29 340.532 1124.24 311.8C1116.1 297.242 1105.54 284.618 1094.95 271.823C1084.49 259.166 1075.08 245.334 1063.94 233.277C1030.48 197.072 972.641 183.547 927.45 204.542C914.679 210.476 901.047 223.49 885.962 219.91C873.188 216.877 867.466 203.097 863.932 191.817C859.891 178.92 857.317 165.786 852.087 153.248C846.749 140.455 839.757 128.26 830.924 117.552C814.478 97.6143 791.657 83.3147 765.552 81.22C741.936 79.325 716.715 86.776 700.909 105.135C692.792 114.564 688.083 126.307 682.643 137.348C677.185 148.427 670.494 160.614 658.322 165.319C643.424 171.078 627.664 163.058 615.767 154.332C602.587 144.665 591.313 132.731 580.446 120.598C561.496 99.4396 542.938 77.2344 517.314 63.8852C494.757 52.1335 469.085 50.1139 446.149 61.9883C400.916 85.405 380.994 142.188 330.441 157.619C306.773 164.844 281.493 161.568 257.61 157.254C233.642 152.925 209.692 146.967 185.211 146.673C161.525 146.389 138.303 152.791 120.058 168.377C101.316 184.387 89.8542 207.121 82.8015 230.379C74.8648 256.553 72.501 283.84 72.0134 311.067C71.4065 344.957 73.6103 378.857 77.794 412.48C86.1228 479.422 101.654 545.673 120.238 610.461C139.111 676.257 163.245 741.144 199.052 799.751C229.028 848.815 267.574 892.892 314.517 926.378C359.664 958.582 412.215 980.208 467.735 984.788C528.942 989.836 589.868 975.464 646.843 954.042C675.269 943.353 702.964 930.834 730.267 917.564C732.075 916.685 731.008 913.715 729.181 914.603C673.982 941.432 616.509 965.725 555.823 976.739C497.504 987.323 437.894 983.636 382.823 960.909C331.708 939.816 286.764 905.199 250.189 864.001C207.727 816.172 176.894 759.18 153.539 699.92C128.641 636.746 111.082 570.457 96.8198 504.142C82.9668 439.732 73.7223 373.944 75.2145 307.927C76.3403 258.124 84.8587 195.397 129.696 164.983C172.358 136.044 225.466 156.13 271.624 162.75C294.133 165.978 317.775 166.648 339.186 157.85C361.807 148.555 378.979 130.242 395.018 112.421C411.488 94.1214 428.122 73.487 451.065 63.0825C477.123 51.2655 504.92 58.2976 527.762 73.8024C552.365 90.5023 569.91 114.822 590.38 135.946C606.648 152.732 632.859 177.867 658.77 168.511C681.552 160.285 686.667 131.497 698.633 113.387C713.384 91.0616 741.329 81.7865 767.168 84.5237C795.286 87.5021 818.816 104.91 834.65 127.707C842.749 139.365 848.926 152.293 853.392 165.751C857.377 177.758 859.291 190.43 864.324 202.091C868.181 211.025 874.203 219.723 883.968 222.625C896.891 226.465 908.882 218.488 919.561 212.258C942.448 198.906 969.383 195.056 995.345 199.78C1020.95 204.438 1045.44 217.202 1062.83 236.726C1073.73 248.956 1083.2 262.595 1093.67 275.211C1103.84 287.465 1113.88 299.672 1121.67 313.636C1138.48 343.778 1141.11 377.528 1140.55 411.409C1140 444.986 1135.68 478.356 1131.64 511.648C1127.37 546.863 1123.09 582.077 1118.81 617.292C1114.69 651.268 1111.48 685.507 1106.18 719.322C1101.58 748.71 1090.57 781.631 1060.71 794.085C1038.67 803.274 1017.82 793.337 1001.06 778.855C972.9 754.525 942.737 709.338 899.487 728.703C873.399 740.383 859.496 766.887 849.335 792.073C843.681 806.086 838.558 820.383 831.263 833.659C823.797 847.246 813.759 859.208 802.197 869.494C780.701 888.615 754.873 902.076 729.181 914.603C727.374 915.484 728.442 918.454 730.267 917.564Z" fill="white"/>
<path d="M737.108 946.675C765.261 932.947 793.609 918.205 816.982 897.028C827.772 887.252 837.325 876.169 844.851 863.681C853.509 849.314 859.342 833.52 865.519 817.993C877.136 788.792 893.825 754.126 927.233 745.565C951.465 739.354 972.465 752.914 989.523 768.674C1005.38 783.323 1019.32 800.623 1037.75 812.234C1057.95 824.965 1081.73 825.782 1101.81 811.949C1127.7 794.108 1136.81 762.973 1141.2 733.403C1146.74 696.071 1150.48 658.4 1155.03 620.935C1159.71 582.385 1164.4 543.835 1169.07 505.285C1173.31 470.407 1177.45 435.402 1177.49 400.217C1177.53 365.705 1173.81 332.149 1156.72 301.561C1148.06 286.053 1136.8 272.607 1125.53 258.977C1114.38 245.494 1104.36 230.759 1092.49 217.917C1056.88 179.384 995.317 164.999 947.221 187.345C933.592 193.677 919.072 207.539 902.973 203.719C889.325 200.481 883.205 185.783 879.428 173.728C875.124 159.99 872.382 146 866.81 132.645C861.128 119.024 853.684 106.044 844.28 94.6446C826.777 73.4261 802.492 58.214 774.71 55.9846C749.592 53.9691 722.76 61.8971 705.949 81.4234C697.308 91.4608 692.297 103.962 686.506 115.715C680.679 127.542 673.534 140.541 660.541 145.564C644.635 151.713 627.812 143.16 615.11 133.843C601.062 123.54 589.049 110.821 577.467 97.889C557.294 75.3652 537.536 51.7224 510.258 37.5114C486.258 25.0078 458.948 22.8541 434.543 35.4874C386.353 60.4326 365.14 120.92 311.276 137.362C286.047 145.063 259.101 141.576 233.642 136.977C208.12 132.367 182.617 126.02 156.548 125.707C131.333 125.405 106.621 132.215 87.1978 148.808C67.2557 165.843 55.0571 190.041 47.553 214.788C39.1012 242.661 36.5817 271.718 36.0628 300.711C35.4165 336.811 37.7642 372.922 42.2203 408.739C51.091 480.038 67.632 550.6 87.4258 619.604C107.527 689.682 133.23 758.794 171.367 821.214C203.294 873.472 244.347 920.415 294.346 956.081C342.422 990.376 398.384 1013.4 457.508 1018.28C522.688 1023.65 587.57 1008.34 648.243 985.531C678.523 974.146 708.025 960.811 737.108 946.675C738.916 945.796 737.849 942.825 736.022 943.713C677.214 972.297 615.984 998.174 551.331 1009.91C489.192 1021.19 425.675 1017.25 366.997 993.037C312.531 970.56 264.644 933.673 225.672 889.775C180.435 838.821 147.588 778.102 122.706 714.969C96.1811 647.666 77.4767 577.045 62.2822 506.396C47.5259 437.784 37.6784 367.707 39.268 297.384C40.4682 244.296 49.5515 177.445 97.345 145.025C142.82 114.179 199.405 135.573 248.607 142.63C272.567 146.066 297.731 146.779 320.522 137.414C344.6 127.52 362.879 108.023 379.951 89.0533C397.509 69.5456 415.24 47.5577 439.697 36.4662C467.488 23.8632 497.137 31.3672 521.497 47.9028C547.705 65.6922 566.393 91.5978 588.199 114.099C605.496 131.947 633.39 158.721 660.947 148.771C685.185 140.019 690.635 109.349 703.366 90.0828C719.102 66.2709 748.909 56.3817 776.468 59.3009C806.446 62.4762 831.536 81.038 848.417 105.342C857.049 117.768 863.634 131.547 868.395 145.892C872.639 158.682 874.678 172.18 880.039 184.601C884.134 194.088 890.529 203.331 900.898 206.412C914.628 210.491 927.377 202.001 938.721 195.383C963.126 181.146 991.842 177.036 1019.53 182.073C1046.83 187.041 1072.93 200.652 1091.48 221.47C1103.09 234.498 1113.18 249.026 1124.33 262.466C1135.17 275.519 1145.86 288.522 1154.15 303.396C1172.07 335.522 1174.88 371.486 1174.29 407.597C1173.69 443.373 1169.1 478.927 1164.8 514.4C1160.24 551.912 1155.69 589.423 1151.13 626.934C1146.74 663.125 1143.31 699.598 1137.67 735.619C1132.77 766.962 1121.01 802.054 1089.17 815.335C1065.66 825.137 1043.41 814.545 1025.53 799.095C995.567 773.206 963.456 725.082 917.434 745.689C889.672 758.12 874.882 786.339 864.069 813.139C858.047 828.066 852.589 843.295 844.818 857.437C836.857 871.927 826.153 884.68 813.823 895.649C790.919 916.024 763.396 930.365 736.021 943.713C734.215 944.594 735.283 947.565 737.108 946.675Z" fill="white"/>
<path d="M743.948 975.785C773.817 961.221 803.892 945.579 828.69 923.111C840.127 912.748 850.256 900.998 858.234 887.76C867.421 872.514 873.612 855.753 880.167 839.275C892.505 808.262 910.235 771.457 945.714 762.362C971.465 755.76 993.782 770.152 1011.91 786.903C1028.73 802.443 1043.52 820.797 1063.07 833.116C1084.47 846.611 1109.68 847.484 1130.95 832.823C1158.41 813.905 1168.07 780.886 1172.72 749.53C1178.6 709.912 1182.57 669.935 1187.4 630.176C1192.37 589.266 1197.34 548.356 1202.3 507.446C1206.79 470.441 1211.19 433.301 1211.23 395.971C1211.28 359.365 1207.33 323.767 1189.21 291.323C1180.01 274.865 1168.07 260.595 1156.11 246.131C1144.27 231.823 1133.64 216.184 1121.05 202.558C1083.28 161.698 1017.99 146.453 966.992 170.148C952.506 176.878 937.099 191.587 919.986 187.528C905.464 184.085 898.945 168.469 894.926 155.64C890.358 141.06 887.448 126.214 881.535 112.041C875.508 97.5947 867.612 83.8287 857.638 71.7373C839.078 49.2376 813.328 33.113 783.87 30.7492C757.249 28.6129 728.807 37.0178 710.991 57.7121C701.826 68.358 696.512 81.6167 690.371 94.0822C684.175 106.658 676.576 120.468 662.762 125.808C645.848 132.347 627.962 123.262 614.454 113.354C599.54 102.415 586.786 88.9097 574.489 75.1801C553.092 51.2906 532.136 26.2101 503.204 11.1374C477.76 -2.11817 448.813 -4.4059 422.938 8.98659C371.79 35.4599 349.286 99.6518 292.113 117.104C265.321 125.282 236.711 121.584 209.675 116.7C182.6 111.809 155.542 105.073 127.886 104.742C101.143 104.422 74.9386 111.64 54.3379 129.239C33.196 147.3 20.2606 172.962 12.3049 199.198C3.33795 228.769 0.662929 259.596 0.112215 290.356C-0.573495 328.666 1.91765 366.988 6.64665 404.998C16.0586 480.653 33.6102 555.527 54.6136 628.748C75.9435 703.107 103.215 776.444 143.682 842.678C177.561 898.129 221.119 947.939 274.173 985.783C325.18 1022.17 384.553 1046.59 447.28 1051.77C516.433 1057.47 585.272 1041.22 649.643 1017.02C681.776 1004.94 713.084 990.787 743.948 975.785C745.757 974.906 744.689 971.936 742.862 972.824C680.445 1003.16 615.459 1030.62 546.839 1043.08C480.878 1055.05 413.456 1050.87 351.17 1025.16C293.354 1001.3 242.525 962.147 201.155 915.549C153.143 861.469 118.281 797.023 91.8725 730.017C63.7202 658.585 43.8703 583.632 27.7438 508.65C12.0841 435.838 1.63346 361.469 3.32029 286.842C4.59457 230.468 14.2428 159.493 64.9929 125.069C113.28 92.3143 173.343 115.016 225.589 122.51C251 126.154 277.686 126.912 301.856 116.98C327.392 106.486 346.777 85.8045 364.883 65.687C383.528 44.9706 402.356 21.6297 428.328 9.85117C457.852 -3.53786 489.352 4.438 515.231 22.004C543.043 40.8825 562.875 68.374 586.016 92.2528C604.342 111.164 633.918 139.577 663.124 129.031C688.816 119.754 694.602 87.2008 708.098 66.7793C724.818 41.4809 756.488 30.9776 785.768 34.0794C817.604 37.4518 844.255 57.1674 862.183 82.9777C871.348 96.1715 878.341 110.803 883.396 126.033C887.9 139.606 890.063 153.931 895.753 167.113C900.081 177.139 906.854 186.96 917.827 190.201C932.38 194.5 945.856 185.524 957.881 178.509C983.803 163.387 1014.3 159.018 1043.71 164.368C1072.71 169.645 1100.43 184.104 1120.13 206.216C1132.45 220.042 1143.16 235.459 1154.99 249.721C1166.49 263.574 1177.84 277.373 1186.64 293.158C1205.66 327.267 1208.66 365.445 1208.02 403.787C1207.39 441.761 1202.52 479.501 1197.95 517.154C1193.11 556.962 1188.28 596.77 1183.45 636.577C1178.78 674.984 1175.15 713.69 1169.17 751.916C1163.95 785.215 1151.46 822.478 1117.63 836.586C1092.65 847.002 1069 835.754 1050 819.336C1018.23 791.889 984.176 740.828 935.38 762.677C905.944 775.856 890.267 805.792 878.803 834.206C872.412 850.047 866.62 866.208 858.373 881.217C849.916 896.609 838.548 910.154 825.449 921.806C801.136 943.434 771.919 958.656 742.861 972.825C741.055 973.705 742.122 976.675 743.948 975.785Z" fill="white"/>
</g>
</svg>
