<svg width="358" height="358" viewBox="0 0 358 358" fill="none" xmlns="http://www.w3.org/2000/svg">
<g clip-path="url(#clip0_192_11)">
<path d="M358 179C358 277.859 277.859 358 179 358C80.1415 358 0.000366211 277.859 0.000366211 179C0.000366211 80.1412 80.1415 0 179 0C277.859 0 358 80.1412 358 179Z" fill="#3BCFFF"/>
<g clip-path="url(#clip1_192_11)">
<path d="M79.8225 350.98C-10.0731 306.873 91.6029 157.136 175.789 178.491C93.4216 183.98 54.8305 280.726 79.8225 350.98Z" fill="#51ADDE"/>
<path d="M117.521 368.059C79.2991 305.018 96.3254 199.43 175.792 180.192C39.7003 248.429 207.909 409.434 117.521 368.059Z" fill="#51ADDE"/>
<path d="M18.1224 296.328C-47.5951 219.377 110.276 122.049 175.781 178.49C98.7803 148.249 22.989 222.306 18.1224 296.328Z" fill="#51ADDE"/>
<path d="M199.786 376.599C140.854 333.859 110.476 229.788 177.509 180.192C78.9414 300.882 298.997 375.432 199.786 376.599Z" fill="#51ADDE"/>
<path d="M-16.1519 221.182C-41.328 124.458 135.147 100.658 177.497 176.777C117.758 120.674 18.9457 155.426 -16.1519 221.182Z" fill="#51ADDE"/>
<path d="M278.619 350.98C205.917 336.178 139.313 254.127 177.509 180.192C144.268 335.655 364.127 307.62 278.619 350.98Z" fill="#51ADDE"/>
<path d="M-16.1538 139.204C-5.4655 39.5347 175.38 89.8826 177.498 176.771C146.917 99.6278 43.8693 95.1228 -16.1538 139.204Z" fill="#51ADDE"/>
<path d="M338.603 294.621C264.651 312.408 172.911 262.66 177.509 180.192C205.626 334.141 405.474 220.781 338.603 294.621Z" fill="#51ADDE"/>
<path d="M177.503 176.778C185.315 94.4924 86.489 44.5155 16.4087 64.061C68.5187 -21.0219 210.704 94.1586 177.503 176.778Z" fill="#51ADDE"/>
<path d="M179.219 180.193C222.498 250.045 327.903 234.852 376.303 178.484C385.061 278.697 198.544 264.211 179.219 180.193Z" fill="#51ADDE"/>
<path d="M179.219 176.778C216.033 103.34 151.642 20.9355 78.1031 7.70193C160.841 -47.8282 240.523 117.391 179.219 176.778Z" fill="#51ADDE"/>
<path d="M179.219 180.193C247.775 224.654 338.719 169.514 359.165 98.214C407.905 187.173 233.704 247.405 179.219 180.193Z" fill="#51ADDE"/>
<path d="M179.219 180.193C258.404 190.798 319.136 109.073 311.176 31.6046C388.64 96.3585 257.586 215.465 179.219 180.193Z" fill="#51ADDE"/>
<path d="M179.219 178.485C244.966 126.623 216.707 25.8265 156.936 -17.9184C256.691 -31.2995 259.386 143.538 179.219 178.484V178.485Z" fill="#51ADDE"/>
<path d="M179.219 178.486C260.007 157.743 276.405 55.9727 239.198 -9.37988C337.143 13.4692 266.114 187.515 179.219 178.486Z" fill="#51ADDE"/>
<circle opacity="0.5" cx="203.075" cy="-1.92497" r="2.07528" fill="white"/>
<circle opacity="0.5" cx="2.77681" cy="2.77681" r="2.77681" transform="matrix(-1 0 0 1 73.5529 15.9998)" fill="white"/>
<circle opacity="0.5" cx="2.77681" cy="2.77681" r="2.77681" transform="matrix(-1 0 0 1 297.552 21.9998)" fill="white"/>
</g>
</g>
<defs>
<clipPath id="clip0_192_11">
<rect width="358" height="358" rx="179" fill="white"/>
</clipPath>
<clipPath id="clip1_192_11">
<rect width="395.202" height="395.245" fill="white" transform="translate(-18.5984 -18.6467)"/>
</clipPath>
</defs>
</svg>
