<svg width="585" height="82" viewBox="0 0 585 82" fill="none" xmlns="http://www.w3.org/2000/svg">
<path d="M573.085 63.04L558.245 81H547.445V51.24H558.245V69.2L573.085 51.24H583.845V81H573.085V63.04ZM565.365 49.28C563.419 49.28 561.859 49.0267 560.685 48.52C559.512 47.9867 558.619 47.36 558.005 46.64C557.392 45.8933 556.979 45.1067 556.765 44.28C556.579 43.4533 556.485 42.72 556.485 42.08V42H563.365C563.392 42.2133 563.432 42.4533 563.485 42.72C563.565 42.9867 563.685 43.24 563.845 43.48C564.032 43.6933 564.272 43.88 564.565 44.04C564.885 44.2 565.299 44.28 565.805 44.28H565.845C566.325 44.28 566.712 44.2 567.005 44.04C567.325 43.88 567.579 43.6933 567.765 43.48C567.952 43.24 568.072 42.9867 568.125 42.72C568.205 42.4533 568.245 42.2133 568.245 42H575.045V42.08C575.045 42.72 574.912 43.4533 574.645 44.28C574.405 45.1067 573.952 45.8933 573.285 46.64C572.645 47.36 571.752 47.9867 570.605 48.52C569.459 49.0267 567.992 49.28 566.205 49.28H565.365Z" fill="#EE0926"/>
<path d="M522.885 59.04L518.365 69.2H527.485L522.885 59.04ZM530.605 76.16H515.205L513.045 81H502.285L516.045 51.24H530.165L544.245 81H532.805L530.605 76.16Z" fill="#EE0926"/>
<path d="M463.539 51.24H488.339C490.472 51.24 492.246 51.4267 493.659 51.8C495.099 52.1733 496.246 52.68 497.099 53.32C497.952 53.96 498.552 54.7067 498.899 55.56C499.272 56.3867 499.459 57.2667 499.459 58.2V58.48C499.459 59.4933 499.259 60.36 498.859 61.08C498.486 61.8 498.006 62.4 497.419 62.88C496.832 63.36 496.206 63.7333 495.539 64C494.872 64.2667 494.259 64.44 493.699 64.52C494.472 64.6267 495.286 64.8267 496.139 65.12C497.019 65.4133 497.819 65.8533 498.539 66.44C499.286 67 499.899 67.72 500.379 68.6C500.859 69.48 501.099 70.56 501.099 71.84V72.24C501.099 73.4667 500.886 74.6133 500.459 75.68C500.059 76.7467 499.366 77.68 498.379 78.48C497.392 79.2533 496.086 79.8667 494.459 80.32C492.832 80.7733 490.806 81 488.379 81H463.539V51.24ZM474.339 58.2V62.52H485.339C486.486 62.52 487.272 62.32 487.699 61.92C488.126 61.52 488.339 61.0133 488.339 60.4V60.32C488.339 59.68 488.112 59.1733 487.659 58.8C487.232 58.4 486.459 58.2 485.339 58.2H474.339ZM474.339 68.96V73.72H486.139C486.859 73.72 487.432 73.6533 487.859 73.52C488.312 73.36 488.659 73.1733 488.899 72.96C489.139 72.72 489.299 72.4667 489.379 72.2C489.459 71.9067 489.499 71.6133 489.499 71.32V71.16C489.499 70.8667 489.459 70.5867 489.379 70.32C489.299 70.0533 489.139 69.8267 488.899 69.64C488.659 69.4267 488.312 69.2667 487.859 69.16C487.432 69.0267 486.859 68.96 486.139 68.96H474.339Z" fill="#EE0926"/>
<path d="M418.206 60.16H429.326C432.046 60.16 434.3 60.4133 436.086 60.92C437.873 61.4 439.286 62.08 440.326 62.96C441.366 63.84 442.1 64.9067 442.526 66.16C442.953 67.4133 443.166 68.8 443.166 70.32V70.76C443.166 72.1733 442.94 73.5067 442.486 74.76C442.06 76.0133 441.313 77.1067 440.246 78.04C439.206 78.9467 437.793 79.6667 436.006 80.2C434.22 80.7333 431.98 81 429.286 81H407.406V51.24H418.206V60.16ZM428.406 73.48C429.58 73.48 430.446 73.2267 431.006 72.72C431.593 72.1867 431.886 71.5067 431.886 70.68V70.4C431.886 69.5733 431.593 68.92 431.006 68.44C430.446 67.96 429.58 67.72 428.406 67.72H418.206V73.48H428.406ZM456.806 81H446.006V51.24H456.806V81Z" fill="#EE0926"/>
<path d="M377.308 72.12V81H366.508V51.24H388.228C391.001 51.24 393.281 51.4933 395.068 52C396.881 52.48 398.308 53.1733 399.348 54.08C400.415 54.96 401.148 56.0133 401.548 57.24C401.974 58.4667 402.188 59.8133 402.188 61.28V61.8C402.188 63.2933 401.974 64.6667 401.548 65.92C401.121 67.1733 400.374 68.2667 399.308 69.2C398.241 70.1067 396.814 70.8267 395.028 71.36C393.241 71.8667 390.974 72.12 388.228 72.12H377.308ZM377.308 64.52H387.228C388.695 64.52 389.681 64.24 390.188 63.68C390.721 63.12 390.988 62.4533 390.988 61.68V61.6C390.988 61.2533 390.921 60.92 390.788 60.6C390.681 60.2533 390.481 59.9467 390.188 59.68C389.921 59.4133 389.534 59.2133 389.028 59.08C388.548 58.92 387.948 58.84 387.228 58.84H377.308V64.52Z" fill="#EE0926"/>
<path d="M334.945 51.24H362.305V58.76H345.745V81H334.945V51.24Z" fill="#EE0926"/>
<path d="M317.46 63.04L302.62 81H291.82V51.24H302.62V69.2L317.46 51.24H328.22V81H317.46V63.04Z" fill="#EE0926"/>
<path d="M246.488 60.16H257.607C260.327 60.16 262.581 60.4133 264.368 60.92C266.154 61.4 267.567 62.08 268.607 62.96C269.647 63.84 270.381 64.9067 270.808 66.16C271.234 67.4133 271.447 68.8 271.447 70.32V70.76C271.447 72.1733 271.221 73.5067 270.768 74.76C270.341 76.0133 269.594 77.1067 268.528 78.04C267.488 78.9467 266.074 79.6667 264.287 80.2C262.501 80.7333 260.261 81 257.567 81H235.688V51.24H246.488V60.16ZM256.688 73.48C257.861 73.48 258.727 73.2267 259.287 72.72C259.874 72.1867 260.167 71.5067 260.167 70.68V70.4C260.167 69.5733 259.874 68.92 259.287 68.44C258.727 67.96 257.861 67.72 256.688 67.72H246.488V73.48H256.688ZM285.088 81H274.287V51.24H285.088V81Z" fill="#EE0926"/>
<path d="M193.031 51.24H217.831C219.965 51.24 221.738 51.4267 223.151 51.8C224.591 52.1733 225.738 52.68 226.591 53.32C227.445 53.96 228.045 54.7067 228.391 55.56C228.765 56.3867 228.951 57.2667 228.951 58.2V58.48C228.951 59.4933 228.751 60.36 228.351 61.08C227.978 61.8 227.498 62.4 226.911 62.88C226.325 63.36 225.698 63.7333 225.031 64C224.365 64.2667 223.751 64.44 223.191 64.52C223.965 64.6267 224.778 64.8267 225.631 65.12C226.511 65.4133 227.311 65.8533 228.031 66.44C228.778 67 229.391 67.72 229.871 68.6C230.351 69.48 230.591 70.56 230.591 71.84V72.24C230.591 73.4667 230.378 74.6133 229.951 75.68C229.551 76.7467 228.858 77.68 227.871 78.48C226.885 79.2533 225.578 79.8667 223.951 80.32C222.325 80.7733 220.298 81 217.871 81H193.031V51.24ZM203.831 58.2V62.52H214.831C215.978 62.52 216.765 62.32 217.191 61.92C217.618 61.52 217.831 61.0133 217.831 60.4V60.32C217.831 59.68 217.605 59.1733 217.151 58.8C216.725 58.4 215.951 58.2 214.831 58.2H203.831ZM203.831 68.96V73.72H215.631C216.351 73.72 216.925 73.6533 217.351 73.52C217.805 73.36 218.151 73.1733 218.391 72.96C218.631 72.72 218.791 72.4667 218.871 72.2C218.951 71.9067 218.991 71.6133 218.991 71.32V71.16C218.991 70.8667 218.951 70.5867 218.871 70.32C218.791 70.0533 218.631 69.8267 218.391 69.64C218.151 69.4267 217.805 69.2667 217.351 69.16C216.925 69.0267 216.351 68.96 215.631 68.96H203.831Z" fill="#EE0926"/>
<path d="M163.476 63.04L148.636 81H137.836V51.24H148.636V69.2L163.476 51.24H174.236V81H163.476V63.04Z" fill="#EE0926"/>
<path d="M549.203 10.24H583.843V40H573.083V17.76H560.003V40H549.203V10.24Z" fill="#EE0926"/>
<path d="M524.624 9.71997C527.264 9.71997 529.571 9.94664 531.544 10.4C533.517 10.8266 535.211 11.4133 536.624 12.16C538.064 12.9066 539.237 13.7733 540.144 14.76C541.077 15.7466 541.811 16.7866 542.344 17.88C542.877 18.9733 543.251 20.0933 543.464 21.24C543.677 22.36 543.784 23.4266 543.784 24.44V25.64C543.784 26.6533 543.677 27.7333 543.464 28.88C543.251 30 542.877 31.1066 542.344 32.2C541.811 33.2933 541.077 34.3466 540.144 35.36C539.237 36.3733 538.077 37.2666 536.664 38.04C535.251 38.7866 533.544 39.3866 531.544 39.84C529.571 40.2933 527.264 40.52 524.624 40.52H522.824C520.184 40.52 517.877 40.2933 515.904 39.84C513.931 39.3866 512.237 38.7866 510.824 38.04C509.411 37.2666 508.237 36.3733 507.304 35.36C506.371 34.3466 505.637 33.2933 505.104 32.2C504.571 31.1066 504.197 30 503.984 28.88C503.771 27.7333 503.664 26.6533 503.664 25.64V24.44C503.664 23.4 503.771 22.32 503.984 21.2C504.197 20.08 504.571 18.9733 505.104 17.88C505.664 16.7866 506.397 15.7466 507.304 14.76C508.237 13.7733 509.411 12.9066 510.824 12.16C512.237 11.4133 513.931 10.8266 515.904 10.4C517.877 9.94664 520.184 9.71997 522.824 9.71997H524.624ZM532.504 24.76C532.504 24.04 532.397 23.28 532.184 22.48C531.971 21.6533 531.544 20.8933 530.904 20.2C530.291 19.5066 529.411 18.9333 528.264 18.48C527.117 18.0266 525.597 17.8 523.704 17.8C521.811 17.8 520.291 18.0266 519.144 18.48C517.997 18.9333 517.117 19.5066 516.504 20.2C515.891 20.8933 515.477 21.6533 515.264 22.48C515.051 23.28 514.944 24.04 514.944 24.76V25.2C514.944 25.92 515.051 26.6933 515.264 27.52C515.477 28.3466 515.904 29.12 516.544 29.84C517.184 30.56 518.077 31.16 519.224 31.64C520.371 32.0933 521.877 32.32 523.744 32.32C525.611 32.32 527.117 32.0933 528.264 31.64C529.411 31.16 530.291 30.56 530.904 29.84C531.544 29.12 531.971 28.3466 532.184 27.52C532.397 26.6933 532.504 25.92 532.504 25.2V24.76Z" fill="#EE0926"/>
<path d="M482.096 30.48L474.536 40H461.816L473.936 24.56L462.296 10.24H475.656L482.576 19L489.536 10.24H501.816L490.416 24.56L502.616 40H489.696L482.096 30.48Z" fill="#EE0926"/>
<path d="M460.612 23.96V31.96H446.412V23.96H460.612Z" fill="#EE0926"/>
<path d="M405.805 10.24H440.445V40H429.685V17.76H416.605V40H405.805V10.24Z" fill="#EE0926"/>
<path d="M388.32 22.04L373.48 40H362.68V10.24H373.48V28.2L388.32 10.24H399.08V40H388.32V22.04Z" fill="#EE0926"/>
<path d="M339.01 30.48L331.45 40H318.73L330.85 24.56L319.21 10.24H332.57L339.49 19L346.45 10.24H358.73L347.33 24.56L359.53 40H346.61L339.01 30.48Z" fill="#EE0926"/>
<path d="M292.734 22.04L277.894 40H267.094V10.24H277.894V28.2L292.734 10.24H303.494V40H292.734V22.04ZM285.014 8.28C283.067 8.28 281.507 8.02667 280.334 7.52C279.16 6.98667 278.267 6.36 277.654 5.64C277.04 4.89333 276.627 4.10667 276.414 3.28C276.227 2.45333 276.134 1.72 276.134 1.08V1H283.014C283.04 1.21333 283.08 1.45333 283.134 1.72C283.214 1.98667 283.334 2.24 283.494 2.48C283.68 2.69333 283.92 2.88 284.214 3.04C284.534 3.2 284.947 3.28 285.454 3.28H285.494C285.974 3.28 286.36 3.2 286.654 3.04C286.974 2.88 287.227 2.69333 287.414 2.48C287.6 2.24 287.72 1.98667 287.774 1.72C287.854 1.45333 287.894 1.21333 287.894 1H294.694V1.08C294.694 1.72 294.56 2.45333 294.294 3.28C294.054 4.10667 293.6 4.89333 292.934 5.64C292.294 6.36 291.4 6.98667 290.254 7.52C289.107 8.02667 287.64 8.28 285.854 8.28H285.014Z" fill="#EE0926"/>
<path d="M242.534 18.04L238.014 28.2H247.134L242.534 18.04ZM250.254 35.16H234.854L232.694 40H221.934L235.694 10.24H249.814L263.894 40H252.454L250.254 35.16Z" fill="#EE0926"/>
<path d="M207.928 29.44C206.728 29.5733 205.394 29.7067 203.928 29.84C202.488 29.9467 201.088 30 199.728 30C196.874 30 194.381 29.8133 192.248 29.44C190.141 29.04 188.381 28.3733 186.968 27.44C185.581 26.5067 184.541 25.2533 183.848 23.68C183.181 22.1067 182.848 20.1333 182.848 17.76V10.24H193.608V16.32C193.608 17.4933 193.754 18.4667 194.048 19.24C194.368 19.9867 194.861 20.5867 195.528 21.04C196.221 21.4667 197.101 21.7733 198.168 21.96C199.234 22.12 200.514 22.2 202.008 22.2C202.461 22.2 202.968 22.1867 203.528 22.16C204.114 22.1333 204.674 22.1067 205.208 22.08C205.768 22.0267 206.288 21.9733 206.768 21.92C207.248 21.8667 207.634 21.8133 207.928 21.76V10.24H218.728V40H207.928V29.44Z" fill="#EE0926"/>
<path d="M178.595 25.64C178.595 26.6533 178.488 27.7333 178.275 28.88C178.088 30 177.728 31.1066 177.195 32.2C176.661 33.2933 175.941 34.3466 175.035 35.36C174.155 36.3733 173.021 37.2666 171.635 38.04C170.248 38.7866 168.581 39.3866 166.635 39.84C164.688 40.2933 162.421 40.52 159.835 40.52H158.035C154.781 40.52 152.035 40.1733 149.795 39.48C147.555 38.76 145.728 37.84 144.315 36.72C142.901 35.6 141.821 34.3466 141.075 32.96C140.355 31.5466 139.861 30.1333 139.595 28.72H135.355V40H124.555V10.24H135.355V20.72H139.715C140.035 19.36 140.581 18.0266 141.355 16.72C142.128 15.4133 143.221 14.24 144.635 13.2C146.075 12.16 147.875 11.32 150.035 10.68C152.221 10.04 154.888 9.71997 158.035 9.71997H159.835C162.421 9.71997 164.675 9.94664 166.595 10.4C168.541 10.8266 170.208 11.4133 171.595 12.16C173.008 12.9066 174.155 13.7733 175.035 14.76C175.941 15.7466 176.661 16.7866 177.195 17.88C177.728 18.9733 178.088 20.0933 178.275 21.24C178.488 22.36 178.595 23.4266 178.595 24.44V25.64ZM167.315 24.76C167.315 24.04 167.208 23.28 166.995 22.48C166.808 21.6533 166.408 20.8933 165.795 20.2C165.208 19.5066 164.368 18.9333 163.275 18.48C162.181 18.0266 160.741 17.8 158.955 17.8C157.141 17.8 155.688 18.0266 154.595 18.48C153.501 18.9333 152.648 19.5066 152.035 20.2C151.448 20.8933 151.048 21.6533 150.835 22.48C150.648 23.28 150.555 24.04 150.555 24.76V25.2C150.555 25.92 150.661 26.6933 150.875 27.52C151.088 28.3466 151.488 29.12 152.075 29.84C152.688 30.56 153.541 31.16 154.635 31.64C155.755 32.0933 157.195 32.32 158.955 32.32C160.741 32.32 162.181 32.0933 163.275 31.64C164.368 31.16 165.208 30.56 165.795 29.84C166.408 29.12 166.808 28.3466 166.995 27.52C167.208 26.6933 167.315 25.92 167.315 25.2V24.76Z" fill="#EE0926"/>
<path d="M107.017 17.76H96.7368C96.7368 21.8667 96.6035 25.2533 96.3368 27.92C96.0968 30.56 95.6835 32.6267 95.0968 34.12C94.7235 35.0533 94.2568 35.8933 93.6968 36.64C93.1368 37.36 92.4301 37.9733 91.5768 38.48C90.7501 38.96 89.7635 39.3333 88.6168 39.6C87.4968 39.8667 86.1635 40 84.6168 40H81.2168V31.56H81.8568C82.7901 31.56 83.5368 31.36 84.0968 30.96C84.6568 30.5333 85.0968 29.9733 85.4168 29.28C85.6301 28.8 85.8035 28.2 85.9368 27.48C86.0701 26.76 86.1635 25.72 86.2168 24.36C86.2968 22.9733 86.3501 21.16 86.3768 18.92C86.4035 16.68 86.4168 13.7867 86.4168 10.24H117.817V40H107.017V17.76Z" fill="#EE0926"/>
<path d="M54.4162 26.72V40H43.6562V10.24H54.4162V21.76L66.6562 10.24H79.3363L64.8562 23.68L80.3363 40H66.6963L54.4162 26.72Z" fill="#EE0926"/>
<path d="M1 10.24H25.8C27.9333 10.24 29.7067 10.4267 31.12 10.8C32.56 11.1733 33.7067 11.68 34.56 12.32C35.4133 12.96 36.0133 13.7067 36.36 14.56C36.7333 15.3867 36.92 16.2667 36.92 17.2V17.48C36.92 18.4933 36.72 19.36 36.32 20.08C35.9467 20.8 35.4667 21.4 34.88 21.88C34.2933 22.36 33.6667 22.7333 33 23C32.3333 23.2667 31.72 23.44 31.16 23.52C31.9333 23.6267 32.7467 23.8267 33.6 24.12C34.48 24.4133 35.28 24.8533 36 25.44C36.7467 26 37.36 26.72 37.84 27.6C38.32 28.48 38.56 29.56 38.56 30.84V31.24C38.56 32.4667 38.3467 33.6133 37.92 34.68C37.52 35.7467 36.8267 36.68 35.84 37.48C34.8533 38.2533 33.5467 38.8667 31.92 39.32C30.2933 39.7733 28.2667 40 25.84 40H1V10.24ZM11.8 17.2V21.52H22.8C23.9467 21.52 24.7333 21.32 25.16 20.92C25.5867 20.52 25.8 20.0133 25.8 19.4V19.32C25.8 18.68 25.5733 18.1733 25.12 17.8C24.6933 17.4 23.92 17.2 22.8 17.2H11.8ZM11.8 27.96V32.72H23.6C24.32 32.72 24.8933 32.6533 25.32 32.52C25.7733 32.36 26.12 32.1733 26.36 31.96C26.6 31.72 26.76 31.4667 26.84 31.2C26.92 30.9067 26.96 30.6133 26.96 30.32V30.16C26.96 29.8667 26.92 29.5867 26.84 29.32C26.76 29.0533 26.6 28.8267 26.36 28.64C26.12 28.4267 25.7733 28.2667 25.32 28.16C24.8933 28.0267 24.32 27.96 23.6 27.96H11.8Z" fill="#EE0926"/>
<path d="M573.085 51.2402L558.245 69.2002V51.2402H547.445V81H558.245L573.085 63.04V81H583.845V51.2402H573.085ZM565.845 43.2803V44.2803H565.805V43.2803H565.845ZM567.245 41H576.045V42.0801L576.037 42.373C576.003 43.064 575.849 43.8043 575.598 44.585C575.308 45.5661 574.774 46.4715 574.031 47.3037L574.032 47.3047C573.278 48.1534 572.26 48.853 571.026 49.4268L571.009 49.4346C569.693 50.016 568.076 50.2803 566.205 50.2803H565.365C563.473 50.2803 561.85 50.0508 560.545 49.543L560.288 49.4385L560.28 49.4346L560.271 49.4307C559.089 48.8931 558.109 48.2403 557.385 47.4482L557.244 47.2881L557.232 47.2744C556.626 46.5358 556.176 45.743 555.903 44.8965L555.797 44.5303L555.793 44.5146L555.789 44.5C555.591 43.623 555.485 42.8135 555.485 42.0801V41H564.248L564.357 41.876C564.379 42.0473 564.411 42.246 564.456 42.4736C564.499 42.6063 564.56 42.7356 564.639 42.8633C564.73 42.9571 564.854 43.0551 565.024 43.1504C565.162 43.2162 565.405 43.2802 565.805 43.2803V44.2803L565.619 44.2764C565.197 44.2589 564.845 44.1799 564.565 44.04C564.272 43.8801 564.031 43.6937 563.845 43.4805C563.685 43.2405 563.565 42.9864 563.485 42.7197C563.432 42.4531 563.392 42.2133 563.365 42H556.485V42.0801C556.485 42.7201 556.578 43.4536 556.765 44.2803C556.978 45.1068 557.392 45.8931 558.005 46.6396C558.618 47.3595 559.511 47.9862 560.685 48.5195C561.711 48.9629 563.034 49.2132 564.653 49.2686L565.365 49.2803H566.205L566.86 49.2686C568.353 49.2131 569.601 48.9628 570.604 48.5195C571.608 48.0528 572.418 47.515 573.033 46.9053L573.285 46.6396C573.952 45.8932 574.405 45.1067 574.645 44.2803C574.911 43.4536 575.045 42.7201 575.045 42.0801V42H568.245L568.237 42.165C568.222 42.3349 568.185 42.5198 568.125 42.7197C568.072 42.9864 567.951 43.2405 567.765 43.4805C567.578 43.6936 567.325 43.8801 567.005 44.04L566.891 44.0967C566.614 44.2191 566.265 44.2803 565.845 44.2803V43.2803C566.226 43.2803 566.43 43.2146 566.526 43.1621L566.542 43.1533L566.558 43.1455C566.775 43.037 566.909 42.9296 566.993 42.8398C567.083 42.7185 567.126 42.6145 567.145 42.5234L567.153 42.4775L567.167 42.4326C567.227 42.2324 567.245 42.0916 567.245 42V41ZM584.845 82H572.085V65.8193L558.716 82H546.445V50.2402H559.245V66.4189L572.614 50.2402H584.845V82Z" fill="white"/>
<path d="M530.8 50.2402L545.826 82H532.162L529.963 77.1602H515.854L513.695 82H500.723L515.407 50.2402H530.8ZM516.046 51.2402L502.286 81H513.046L515.206 76.1602H530.606L532.807 81H544.246L530.166 51.2402H516.046ZM527.486 69.2002H518.366L522.887 59.04L527.486 69.2002ZM519.906 68.2002H525.936L522.894 61.4814L519.906 68.2002Z" fill="white"/>
<path d="M462.539 50.2402H488.339V51.2402H463.539V81H488.379L489.27 80.9893C491.015 80.9468 492.535 80.777 493.83 80.4795L494.459 80.3203C495.882 79.9236 497.061 79.4044 497.994 78.7627L498.379 78.4805C499.366 77.6805 500.059 76.7464 500.459 75.6797C500.832 74.7465 501.042 73.752 501.089 72.6963L501.099 72.2402V71.8398C501.099 70.72 500.915 69.7531 500.548 68.9395L500.379 68.5996C499.899 67.7199 499.285 67.0003 498.539 66.4404C497.819 65.8538 497.019 65.4135 496.139 65.1201C495.285 64.8268 494.472 64.6262 493.698 64.5195C494.258 64.4395 494.872 64.2667 495.539 64C496.122 63.7666 496.675 63.4514 497.197 63.0547L497.419 62.8799C497.932 62.46 498.364 61.9483 498.714 61.3447L498.858 61.0801C499.208 60.4502 499.405 59.7079 499.449 58.8535L499.459 58.4805V58.2002C499.459 57.2669 499.272 56.3862 498.898 55.5596C498.595 54.8133 498.098 54.1486 497.407 53.5654L497.099 53.3203C496.352 52.7603 495.381 52.3021 494.185 51.9463L493.659 51.7998C492.423 51.4732 490.91 51.2899 489.122 51.249L488.339 51.2402V50.2402C490.521 50.2402 492.386 50.4299 493.91 50.832C495.43 51.226 496.708 51.7773 497.698 52.5195C498.663 53.2428 499.383 54.1171 499.811 55.1484C500.244 56.1082 500.459 57.1292 500.459 58.2002V58.4805L500.448 58.9043C500.399 59.8722 500.173 60.7585 499.745 61.5391L499.746 61.54C499.315 62.3722 498.751 63.0822 498.052 63.6543C497.72 63.9261 497.374 64.1684 497.015 64.3818C497.78 64.6965 498.488 65.1154 499.138 65.6396H499.139C499.899 66.2102 500.534 66.9193 501.045 67.7549L501.257 68.1211C501.836 69.1831 502.099 70.4379 502.099 71.8398V72.2402L502.088 72.7412C502.037 73.8948 501.806 74.9928 501.394 76.0303L501.396 76.0312C500.926 77.2831 500.117 78.358 499.009 79.2568L498.995 79.2666C497.876 80.1438 496.439 80.8061 494.728 81.2832C492.985 81.7689 490.86 82 488.379 82H462.539V50.2402ZM488.499 71.1602C488.499 71.0091 488.483 70.8684 488.454 70.7363L488.421 70.6074C488.41 70.5705 488.39 70.529 488.343 70.4805L488.285 70.4297L488.259 70.4092L488.234 70.3877C488.18 70.3393 488.069 70.2684 487.865 70.2002L487.63 70.1338L487.595 70.125L487.561 70.1143C487.271 70.0238 486.811 69.96 486.139 69.96H475.339V72.7197H486.139V73.7197H474.339V68.96H486.139C486.859 68.96 487.432 69.0269 487.858 69.1602C488.312 69.2668 488.658 69.4265 488.898 69.6396C489.138 69.8263 489.299 70.0536 489.379 70.3203C489.459 70.5869 489.499 70.8669 489.499 71.1602V71.3203L489.491 71.54C489.476 71.76 489.439 71.9802 489.379 72.2002C489.299 72.4668 489.138 72.72 488.898 72.96C488.658 73.1732 488.312 73.3596 487.858 73.5195C487.432 73.6528 486.859 73.7197 486.139 73.7197V72.7197C486.802 72.7197 487.258 72.6568 487.548 72.5684C487.898 72.4429 488.102 72.3205 488.213 72.2285C488.339 72.0971 488.393 71.9945 488.417 71.9219C488.472 71.7164 488.499 71.5168 488.499 71.3203V71.1602ZM487.339 60.3203C487.339 59.9948 487.25 59.7918 487.094 59.6357L487.023 59.5723L486.998 59.5518L486.975 59.5293C486.858 59.4205 486.512 59.2499 485.711 59.209L485.339 59.2002H475.339V61.5195H485.339V62.5195H474.339V58.2002H485.339C486.459 58.2002 487.233 58.3998 487.659 58.7998C488.112 59.1731 488.339 59.6804 488.339 60.3203V60.4004L488.329 60.625C488.282 61.1383 488.072 61.5699 487.698 61.9199C487.272 62.3198 486.485 62.5195 485.339 62.5195V61.5195C486.443 61.5195 486.885 61.312 487.015 61.1904C487.229 60.9897 487.339 60.7522 487.339 60.4004V60.3203Z" fill="white"/>
<path d="M446.006 51.2402V81H456.806V51.2402H446.006ZM430.886 70.4004C430.886 69.9126 430.747 69.578 430.49 69.3203L430.373 69.2139L430.364 69.207L430.355 69.1992C430.094 68.9755 429.615 68.7768 428.784 68.7305L428.406 68.7197H419.206V72.4805H428.406V73.4805H418.206V67.7197H428.406C429.579 67.7198 430.446 67.9605 431.006 68.4404C431.592 68.9204 431.886 69.5738 431.886 70.4004V70.6797C431.886 71.5063 431.592 72.1864 431.006 72.7197C430.446 73.2263 429.579 73.4804 428.406 73.4805V72.4805C429.463 72.4804 430.037 72.2476 430.335 71.9785C430.702 71.644 430.886 71.2373 430.886 70.6797V70.4004ZM418.206 51.2402H407.406V81H429.286L430.274 80.9873C432.371 80.9331 434.168 80.7032 435.666 80.2969L436.006 80.2002C437.681 79.7002 439.028 79.0362 440.047 78.208L440.246 78.04C441.313 77.1067 442.06 76.0131 442.486 74.7598C442.883 73.6632 443.106 72.5052 443.155 71.2861L443.166 70.7598V70.3203C443.166 68.9905 443.002 67.7624 442.676 66.6367L442.526 66.1602C442.126 64.9852 441.457 63.9738 440.518 63.127L440.326 62.96C439.416 62.1899 438.22 61.5731 436.738 61.1094L436.086 60.9199C434.523 60.4766 432.602 60.2273 430.324 60.1719L429.326 60.1602V59.1602C432.093 59.1602 434.441 59.4163 436.345 59.9541C438.225 60.4593 439.787 61.1937 440.972 62.1963C442.072 63.1277 442.879 64.2565 443.377 65.5723L443.473 65.8379C443.939 67.209 444.166 68.7067 444.166 70.3203V70.7598L444.154 71.3271C444.101 72.643 443.859 73.9019 443.426 75.0996C442.938 76.5235 442.089 77.7567 440.904 78.793L440.903 78.7939C439.725 79.8213 438.17 80.5976 436.292 81.1582C434.381 81.7285 432.037 82 429.286 82H406.406V50.2402H419.206V59.1602H429.326V60.1602H418.206V51.2402ZM457.806 82H445.006V50.2402H457.806V82Z" fill="white"/>
<path d="M365.508 50.2402H388.228V51.2402H366.508V81H377.308V72.1201H388.228L389.235 72.1084C391.533 72.053 393.464 71.8036 395.027 71.3604L395.3 72.3223C393.393 72.8629 391.027 73.1201 388.228 73.1201H378.308V82H365.508V50.2402ZM402.188 61.7998V61.2803C402.188 59.8137 401.974 58.4668 401.548 57.2402C401.148 56.0136 400.414 54.9601 399.348 54.0801C398.308 53.1734 396.881 52.48 395.067 52C393.504 51.5567 391.563 51.3074 389.244 51.252L388.228 51.2402V50.2402C391.044 50.2402 393.418 50.4957 395.322 51.0332H395.323C397.234 51.5391 398.815 52.2892 400.005 53.3262H400.004C401.19 54.3103 402.029 55.5072 402.491 56.9111C402.959 58.2561 403.188 59.7161 403.188 61.2803V61.7998L403.177 62.3906C403.127 63.758 402.902 65.0438 402.494 66.2422C402.007 67.6735 401.155 68.9116 399.966 69.9521L399.961 69.957L399.955 69.9619C398.754 70.9829 397.191 71.7579 395.313 72.3184L395.301 72.3223L395.027 71.3604C396.814 70.827 398.241 70.1069 399.308 69.2002C400.308 68.3252 401.026 67.3095 401.464 66.1533L401.548 65.9199C401.921 64.8233 402.131 63.6348 402.178 62.3545L402.188 61.7998ZM389.987 61.5996C389.987 61.3851 389.947 61.1824 389.864 60.9844L389.846 60.9404L389.832 60.8945C389.783 60.7349 389.688 60.5776 389.515 60.4199L389.497 60.4043L389.48 60.3867C389.404 60.3102 389.268 60.2164 389.037 60.1299L388.773 60.0469L388.742 60.0391L388.711 60.0283C388.452 59.9421 388.115 59.8796 387.687 59.8535L387.228 59.8398H378.308V63.5195H387.228V64.5195H377.308V58.8398H387.228C387.947 58.8398 388.547 58.9201 389.027 59.0801C389.534 59.2134 389.921 59.4131 390.188 59.6797C390.481 59.9462 390.68 60.2531 390.787 60.5996C390.92 60.9195 390.987 61.2531 390.987 61.5996V61.6797C390.987 62.4529 390.721 63.1197 390.188 63.6797C389.681 64.2397 388.694 64.5195 387.228 64.5195V63.5195C388.65 63.5195 389.245 63.2313 389.446 63.0088L389.454 63L389.463 62.9902C389.819 62.6162 389.987 62.1962 389.987 61.6797V61.5996Z" fill="white"/>
<path d="M334.945 51.2402V81H345.745V58.7598H362.305V51.2402H334.945ZM363.305 59.7598H346.745V82H333.945V50.2402H363.305V59.7598Z" fill="white"/>
<path d="M317.46 51.2402L302.62 69.2002V51.2402H291.82V81H302.62L317.46 63.04V81H328.22V51.2402H317.46ZM329.22 82H316.46V65.8193L303.091 82H290.82V50.2402H303.62V66.4189L316.989 50.2402H329.22V82Z" fill="white"/>
<path d="M274.287 51.2402V81H285.087V51.2402H274.287ZM259.167 70.4004C259.167 69.9126 259.028 69.578 258.771 69.3203L258.654 69.2139L258.646 69.207L258.637 69.1992C258.376 68.9755 257.896 68.7768 257.065 68.7305L256.688 68.7197H247.487V72.4805H256.688V73.4805H246.487V67.7197H256.688C257.861 67.7198 258.727 67.9605 259.287 68.4404C259.874 68.9204 260.167 69.5738 260.167 70.4004V70.6797C260.167 71.5063 259.874 72.1864 259.287 72.7197C258.727 73.2263 257.861 73.4804 256.688 73.4805V72.4805C257.744 72.4804 258.319 72.2476 258.616 71.9785C258.983 71.644 259.167 71.2373 259.167 70.6797V70.4004ZM246.487 51.2402H235.688V81H257.567L258.556 80.9873C260.652 80.9331 262.449 80.7032 263.947 80.2969L264.287 80.2002C265.962 79.7002 267.309 79.0362 268.328 78.208L268.527 78.04C269.594 77.1067 270.341 76.0131 270.768 74.7598C271.164 73.6632 271.387 72.5052 271.437 71.2861L271.447 70.7598V70.3203C271.447 68.9905 271.284 67.7624 270.957 66.6367L270.808 66.1602C270.408 64.9852 269.738 63.9738 268.799 63.127L268.607 62.96C267.697 62.1899 266.501 61.5731 265.02 61.1094L264.367 60.9199C262.804 60.4766 260.883 60.2273 258.605 60.1719L257.607 60.1602V59.1602C260.374 59.1602 262.722 59.4163 264.626 59.9541C266.507 60.4593 268.068 61.1937 269.253 62.1963C270.354 63.1277 271.161 64.2565 271.658 65.5723L271.754 65.8379C272.221 67.209 272.447 68.7067 272.447 70.3203V70.7598L272.436 71.3271C272.382 72.643 272.14 73.9019 271.707 75.0996C271.219 76.5235 270.37 77.7567 269.186 78.793L269.185 78.7939C268.006 79.8213 266.451 80.5976 264.573 81.1582C262.663 81.7285 260.318 82 257.567 82H234.688V50.2402H247.487V59.1602H257.607V60.1602H246.487V51.2402ZM286.087 82H273.287V50.2402H286.087V82Z" fill="white"/>
<path d="M192.031 50.2402H217.831V51.2402H193.031V81H217.871L218.762 80.9893C220.507 80.9468 222.027 80.777 223.322 80.4795L223.951 80.3203C225.578 79.867 226.884 79.2537 227.871 78.4805C228.796 77.7306 229.463 76.8631 229.872 75.8789L229.951 75.6797C230.324 74.7465 230.534 73.752 230.581 72.6963L230.591 72.2402V71.8398C230.591 70.72 230.407 69.7531 230.04 68.9395L229.871 68.5996C229.391 67.7199 228.778 67.0003 228.031 66.4404C227.311 65.8538 226.511 65.4135 225.631 65.1201C224.778 64.8268 223.964 64.6262 223.19 64.5195C223.75 64.4395 224.365 64.2667 225.031 64C225.615 63.7666 226.167 63.4514 226.689 63.0547L226.911 62.8799C227.498 62.4 227.977 61.7999 228.351 61.0801C228.701 60.4502 228.898 59.7079 228.941 58.8535L228.951 58.4805V58.2002C228.951 57.2669 228.764 56.3862 228.391 55.5596C228.087 54.8133 227.59 54.1486 226.899 53.5654L226.591 53.3203C225.844 52.7603 224.873 52.3021 223.677 51.9463L223.151 51.7998C221.915 51.4732 220.402 51.2899 218.614 51.249L217.831 51.2402V50.2402C220.013 50.2402 221.878 50.4299 223.402 50.832C224.922 51.226 226.201 51.7773 227.19 52.5195C228.155 53.2428 228.876 54.1171 229.303 55.1484C229.736 56.1082 229.951 57.1292 229.951 58.2002V58.4805L229.94 58.9043C229.891 59.8722 229.665 60.7585 229.237 61.5391L229.238 61.54C228.807 62.3722 228.243 63.0822 227.544 63.6543C227.212 63.9261 226.866 64.1684 226.507 64.3818C227.272 64.6965 227.98 65.1154 228.63 65.6396H228.631C229.392 66.2102 230.026 66.9193 230.537 67.7549L230.749 68.1211C231.328 69.1831 231.591 70.4379 231.591 71.8398V72.2402L231.58 72.7412C231.529 73.8948 231.298 74.9928 230.886 76.0303L230.888 76.0312C230.418 77.2831 229.61 78.358 228.501 79.2568L228.487 79.2666C227.368 80.1438 225.931 80.8061 224.22 81.2832C222.477 81.7689 220.352 82 217.871 82H192.031V50.2402ZM217.991 71.1602C217.991 71.0091 217.975 70.8684 217.946 70.7363L217.913 70.6074C217.902 70.5705 217.883 70.529 217.835 70.4805L217.777 70.4297L217.751 70.4092L217.727 70.3877C217.672 70.3393 217.561 70.2684 217.357 70.2002L217.122 70.1338L217.087 70.125L217.053 70.1143C216.763 70.0238 216.303 69.96 215.631 69.96H204.831V72.7197H215.631V73.7197H203.831V68.96H215.631C216.351 68.96 216.924 69.0269 217.351 69.1602C217.804 69.2668 218.151 69.4265 218.391 69.6396C218.631 69.8263 218.791 70.0536 218.871 70.3203C218.951 70.5869 218.991 70.8669 218.991 71.1602V71.3203L218.983 71.54C218.968 71.76 218.931 71.9802 218.871 72.2002C218.791 72.4668 218.631 72.72 218.391 72.96C218.151 73.1732 217.804 73.3596 217.351 73.5195C216.924 73.6528 216.351 73.7197 215.631 73.7197V72.7197C216.294 72.7197 216.75 72.6568 217.04 72.5684C217.39 72.4429 217.594 72.3205 217.705 72.2285C217.831 72.0971 217.886 71.9945 217.909 71.9219C217.964 71.7164 217.991 71.5168 217.991 71.3203V71.1602ZM216.831 60.3203C216.831 59.9948 216.742 59.7918 216.586 59.6357L216.516 59.5723L216.49 59.5518L216.467 59.5293C216.351 59.4205 216.004 59.2499 215.203 59.209L214.831 59.2002H204.831V61.5195H214.831V62.5195H203.831V58.2002H214.831C215.951 58.2002 216.725 58.3998 217.151 58.7998C217.605 59.1731 217.831 59.6804 217.831 60.3203V60.4004L217.821 60.625C217.775 61.1383 217.564 61.5699 217.19 61.9199C216.764 62.3198 215.977 62.5195 214.831 62.5195V61.5195C215.935 61.5195 216.377 61.312 216.507 61.1904C216.721 60.9897 216.831 60.7522 216.831 60.4004V60.3203Z" fill="white"/>
<path d="M163.476 51.2402L148.636 69.2002V51.2402H137.836V81H148.636L163.476 63.04V81H174.235V51.2402H163.476ZM175.235 82H162.476V65.8193L149.106 82H136.836V50.2402H149.636V66.4189L163.005 50.2402H175.235V82Z" fill="white"/>
<path d="M549.203 10.2402V40H560.003V17.7598H573.083V40H583.843V10.2402H549.203ZM584.843 41H572.083V18.7598H561.003V41H548.203V9.24023H584.843V41Z" fill="white"/>
<path d="M502.664 24.4404C502.664 23.332 502.778 22.1885 503.002 21.0127C503.233 19.8 503.635 18.609 504.205 17.4414L504.21 17.4326L504.214 17.4238C504.818 16.2435 505.605 15.13 506.567 14.083L506.577 14.0732C507.597 12.9946 508.863 12.0643 510.356 11.2754C511.868 10.4767 513.652 9.86397 515.692 9.42285C517.755 8.95034 520.136 8.71973 522.824 8.71973V9.71973L521.85 9.73047C519.613 9.78005 517.631 10.0038 515.904 10.4004L515.177 10.5674C513.512 10.9757 512.061 11.5069 510.824 12.1602L510.306 12.4453C509.121 13.125 508.12 13.8963 507.304 14.7598C506.397 15.7463 505.664 16.7867 505.104 17.8799C504.571 18.9732 504.198 20.0802 503.984 21.2002L503.909 21.6182C503.746 22.5894 503.664 23.5304 503.664 24.4404V25.6396L503.669 26.0234C503.692 26.9246 503.798 27.8767 503.984 28.8799C504.198 29.9999 504.571 31.1069 505.104 32.2002C505.638 33.2934 506.37 34.3471 507.304 35.3604C508.237 36.3737 509.411 37.2667 510.824 38.04C512.238 38.7867 513.931 39.3865 515.904 39.8398C517.631 40.2365 519.613 40.4602 521.85 40.5098L522.824 40.5195H524.624C527.264 40.5195 529.571 40.2932 531.544 39.8398C533.294 39.4432 534.819 38.9347 536.12 38.3135L536.664 38.04C538.077 37.2668 539.237 36.3735 540.144 35.3604C540.96 34.4737 541.624 33.5563 542.135 32.6084L542.344 32.2002C542.877 31.1069 543.251 29.9999 543.464 28.8799C543.651 27.8767 543.756 26.9246 543.779 26.0234L543.784 25.6396V24.4404C543.784 23.5537 543.702 22.6257 543.539 21.6572L543.464 21.2402C543.251 20.0936 542.877 18.9732 542.344 17.8799C541.81 16.7866 541.077 15.7464 540.144 14.7598C539.237 13.7733 538.064 12.9067 536.624 12.1602C535.387 11.5068 533.936 10.9757 532.271 10.5674L531.544 10.4004C529.571 9.94706 527.264 9.71973 524.624 9.71973V8.71973C527.312 8.71973 529.692 8.9506 531.754 9.42285H531.755C533.795 9.86394 535.579 10.4768 537.091 11.2754H537.09C538.61 12.0641 539.881 12.996 540.88 14.083H540.879C541.746 15.0006 542.461 15.9712 543.015 16.9971L543.243 17.4414C543.814 18.6109 544.216 19.8153 544.446 21.0527C544.67 22.2269 544.784 23.3571 544.784 24.4404V25.6396L544.778 26.0488C544.753 27.0092 544.642 28.0142 544.447 29.0625L544.446 29.0674C544.215 30.28 543.813 31.471 543.243 32.6387C542.664 33.8257 541.874 34.9533 540.889 36.0254L540.89 36.0264C539.895 37.1385 538.639 38.0989 537.144 38.917L537.138 38.9209L537.131 38.9238C535.622 39.7212 533.827 40.3479 531.765 40.8154L531.764 40.8145C529.7 41.2882 527.316 41.5195 524.624 41.5195H522.824C520.13 41.5195 517.745 41.2889 515.68 40.8145C513.643 40.3466 511.864 39.7201 510.356 38.9238L510.351 38.9209L510.344 38.917C508.851 38.1001 507.587 37.1427 506.568 36.0371C505.702 35.0961 504.987 34.1116 504.433 33.082L504.205 32.6387C503.707 31.6168 503.336 30.5769 503.097 29.5205L503.002 29.0674L503.001 29.0625C502.778 27.8645 502.664 26.7226 502.664 25.6396V24.4404ZM531.504 24.7598C531.504 24.1387 531.412 23.4654 531.218 22.7373L531.216 22.7295C531.048 22.0792 530.709 21.4628 530.169 20.8779L530.155 20.8623C529.735 20.3873 529.122 19.9489 528.274 19.5693L527.896 19.4102C526.912 19.0211 525.532 18.7998 523.704 18.7998C521.876 18.7998 520.496 19.021 519.512 19.4102C518.465 19.824 517.733 20.3194 517.253 20.8623C516.735 21.4474 516.403 22.0686 516.232 22.7295L516.23 22.7373C516.036 23.4654 515.944 24.1387 515.944 24.7598V25.2002L515.948 25.4365C515.966 25.9154 516.036 26.4319 516.164 26.9883L516.232 27.2705C516.38 27.8428 516.661 28.3999 517.096 28.9434L517.291 29.1758C517.805 29.7536 518.557 30.2738 519.597 30.7109C520.582 31.0994 521.948 31.3203 523.744 31.3203V32.3203L523.061 32.3096C521.506 32.26 520.227 32.0363 519.224 31.6396C518.077 31.1597 517.184 30.5597 516.544 29.8398C515.904 29.1199 515.477 28.3461 515.264 27.5195C515.077 26.7965 514.973 26.1141 514.949 25.4727L514.944 25.2002V24.7598C514.944 24.1299 515.026 23.4695 515.189 22.7783L515.264 22.4805C515.45 21.7571 515.79 21.0842 516.283 20.4629L516.504 20.2002C517.041 19.5935 517.781 19.0782 518.727 18.6553L519.144 18.4805C520.29 18.0271 521.811 17.7998 523.704 17.7998L524.396 17.8105C525.971 17.8601 527.26 18.0838 528.264 18.4805C529.41 18.9338 530.291 19.5069 530.904 20.2002C531.544 20.8935 531.97 21.6539 532.184 22.4805C532.397 23.2803 532.504 24.0399 532.504 24.7598V25.2002L532.499 25.4727C532.476 26.1142 532.37 26.7964 532.184 27.5195C531.97 28.3461 531.544 29.1199 530.904 29.8398C530.291 30.5598 529.41 31.1596 528.264 31.6396C527.117 32.0929 525.611 32.3203 523.744 32.3203V31.3203C525.54 31.3203 526.906 31.0995 527.892 30.7109C528.93 30.2745 529.66 29.7578 530.143 29.1914L530.156 29.1758C530.704 28.5592 531.047 27.9246 531.216 27.2705C531.412 26.5109 531.504 25.822 531.504 25.2002V24.7598ZM524.624 8.71973V9.71973H522.824V8.71973H524.624Z" fill="white"/>
<path d="M476.14 9.24023L476.44 9.62012L482.578 17.3896L489.053 9.24023H503.89L491.691 24.5625L504.681 41H489.215L488.914 40.624L482.098 32.085L475.019 41H459.76L472.655 24.5703L460.194 9.24023H476.14ZM462.296 10.2402L473.936 24.5596L461.815 40H474.535L482.096 30.4805L489.695 40H502.615L490.416 24.5596L501.815 10.2402H489.535L482.575 19L475.655 10.2402H462.296Z" fill="white"/>
<path d="M446.412 23.96V31.96H460.612V23.96H446.412ZM461.612 32.96H445.412V22.96H461.612V32.96Z" fill="white"/>
<path d="M405.805 10.2402V40H416.604V17.7598H429.685V40H440.444V10.2402H405.805ZM441.444 41H428.685V18.7598H417.604V41H404.805V9.24023H441.444V41Z" fill="white"/>
<path d="M388.319 10.2402L373.479 28.2002V10.2402H362.68V40H373.479L388.319 22.04V40H399.079V10.2402H388.319ZM400.079 41H387.319V24.8193L373.95 41H361.68V9.24023H374.479V25.4189L387.849 9.24023H400.079V41Z" fill="white"/>
<path d="M333.054 9.24023L333.354 9.62012L339.492 17.3896L345.967 9.24023H360.804L348.605 24.5625L361.595 41H346.129L345.828 40.624L339.012 32.085L331.933 41H316.674L329.569 24.5703L317.108 9.24023H333.054ZM319.21 10.2402L330.85 24.5596L318.729 40H331.449L339.01 30.4805L346.609 40H359.529L347.33 24.5596L358.729 10.2402H346.449L339.489 19L332.569 10.2402H319.21Z" fill="white"/>
<path d="M292.733 10.2402L277.894 28.2002V10.2402H267.094V40H277.894L292.733 22.04V40H303.493V10.2402H292.733ZM285.493 2.28027V3.28027H285.453V2.28027H285.493ZM286.894 0H295.693V1.08008C295.693 1.85339 295.534 2.69286 295.246 3.58496C294.957 4.56605 294.422 5.47148 293.68 6.30371L293.681 6.30469C292.926 7.15337 291.908 7.85299 290.675 8.42676L290.657 8.43457C289.341 9.01599 287.724 9.28026 285.854 9.28027H285.014C283.121 9.28027 281.498 9.05079 280.193 8.54297L279.937 8.43848L279.929 8.43457L279.92 8.43066C278.737 7.89312 277.758 7.24029 277.033 6.44824L276.893 6.28809L276.881 6.27441C276.274 5.53581 275.825 4.74299 275.552 3.89648L275.445 3.53027L275.441 3.51465L275.438 3.5C275.239 2.62298 275.134 1.81347 275.134 1.08008V0H283.896L284.006 0.875977C284.027 1.04757 284.06 1.24661 284.104 1.47461C284.148 1.60722 284.208 1.73659 284.287 1.86426C284.378 1.95791 284.502 2.05526 284.673 2.15039C284.811 2.21616 285.053 2.28024 285.453 2.28027V3.28027L285.268 3.27637C284.845 3.25886 284.494 3.1799 284.214 3.04004C283.921 2.88008 283.68 2.69374 283.493 2.48047C283.333 2.24047 283.214 1.98639 283.134 1.71973C283.08 1.45315 283.04 1.21327 283.014 1H276.134V1.08008C276.134 1.72006 276.226 2.45364 276.413 3.28027C276.626 4.10678 277.04 4.89311 277.653 5.63965C278.267 6.35955 279.16 6.98625 280.333 7.51953C281.36 7.96289 282.683 8.21316 284.302 8.26855L285.014 8.28027H285.854L286.509 8.26855C288.002 8.21311 289.25 7.96277 290.253 7.51953C291.256 7.05281 292.066 6.51495 292.682 5.90527L292.934 5.63965C293.6 4.89318 294.053 4.1067 294.293 3.28027C294.56 2.45364 294.693 1.72006 294.693 1.08008V1H287.894L287.886 1.16504C287.871 1.33495 287.833 1.51985 287.773 1.71973C287.72 1.98639 287.6 2.24047 287.413 2.48047C287.226 2.69363 286.973 2.88014 286.653 3.04004L286.539 3.09668C286.262 3.21914 285.913 3.28027 285.493 3.28027V2.28027C285.874 2.28027 286.079 2.21461 286.175 2.16211L286.19 2.15332L286.206 2.14551C286.424 2.03678 286.559 1.92966 286.643 1.83984C286.732 1.71871 286.775 1.61435 286.793 1.52344L286.802 1.47754L286.815 1.43262C286.875 1.23244 286.894 1.09157 286.894 1V0ZM304.493 41H291.733V24.8193L278.364 41H266.094V9.24023H278.894V25.4189L292.263 9.24023H304.493V41Z" fill="white"/>
<path d="M250.448 9.24023L265.475 41H251.811L249.611 36.1602H235.503L233.344 41H220.371L235.056 9.24023H250.448ZM235.694 10.2402L221.935 40H232.694L234.854 35.1602H250.255L252.455 40H263.895L249.814 10.2402H235.694ZM247.135 28.2002H238.015L242.535 18.04L247.135 28.2002ZM239.555 27.2002H245.584L242.542 20.4814L239.555 27.2002Z" fill="white"/>
<path d="M193.607 16.3203V10.2402H182.848V17.7598L182.852 18.2002C182.891 20.3783 183.223 22.2047 183.848 23.6797C184.541 25.253 185.581 26.5071 186.968 27.4404C188.381 28.3736 190.141 29.0405 192.247 29.4404C194.114 29.7671 196.257 29.9504 198.675 29.9912L199.728 30C200.747 30 201.79 29.9701 202.854 29.9102L203.928 29.8398C205.394 29.7065 206.728 29.5738 207.928 29.4404V40H218.728V10.2402H207.928V21.7598C207.634 21.8131 207.248 21.8666 206.768 21.9199L205.207 22.0801L203.527 22.1602C202.968 22.1868 202.461 22.2002 202.008 22.2002V21.2002C202.442 21.2002 202.932 21.1872 203.479 21.1611H203.482L205.144 21.0811C205.687 21.0291 206.192 20.9775 206.657 20.9258C206.752 20.9153 206.842 20.9029 206.928 20.8926V9.24023H219.728V41H206.928V30.5498C206.023 30.6441 205.053 30.7418 204.018 30.8359L204.01 30.8369H204.001C202.538 30.9453 201.114 31 199.728 31C197.195 31 194.923 30.8553 192.918 30.5605L192.075 30.4248L192.068 30.4238L192.061 30.4229C189.857 30.0045 187.965 29.2973 186.416 28.2744L186.409 28.2695C184.958 27.2926 183.847 25.998 183.081 24.4053L182.933 24.083L182.93 24.0771L182.927 24.0703C182.192 22.3355 181.848 20.2185 181.848 17.7598V9.24023H194.607V16.3203L194.614 16.7197C194.644 17.6123 194.772 18.3181 194.974 18.8604C195.216 19.4196 195.579 19.8596 196.073 20.2002C196.625 20.5353 197.366 20.8031 198.329 20.9727C199.33 21.1218 200.553 21.2002 202.008 21.2002V22.2002L201.457 22.1963C200.197 22.1788 199.1 22.0999 198.167 21.96C197.101 21.7733 196.221 21.4666 195.527 21.04C194.861 20.5868 194.368 19.9867 194.048 19.2402C193.791 18.5636 193.646 17.7337 193.614 16.751L193.607 16.3203Z" fill="white"/>
<path d="M166.314 24.7598C166.314 24.2162 166.243 23.633 166.096 23.0078L166.028 22.7373L166.019 22.7002C165.872 22.0526 165.557 21.4415 165.045 20.8623L165.038 20.8545L165.031 20.8457C164.631 20.3726 164.05 19.9378 163.248 19.5615L162.892 19.4033C161.965 19.0192 160.67 18.7998 158.954 18.7998C157.21 18.7998 155.902 19.0199 154.978 19.4033C153.992 19.8119 153.28 20.3038 152.791 20.8525C152.302 21.432 151.98 22.0516 151.807 22.7148C151.636 23.4476 151.555 24.1283 151.555 24.7598V25.2002L151.559 25.4365C151.576 25.9154 151.647 26.4319 151.774 26.9883L151.843 27.2705C152.016 27.9412 152.343 28.5818 152.841 29.1963C153.33 29.7687 154.039 30.2834 155.015 30.7148C155.974 31.1019 157.272 31.3203 158.954 31.3203V32.3203L158.31 32.3096C156.84 32.26 155.615 32.0363 154.635 31.6396C153.541 31.1596 152.688 30.5598 152.074 29.8398C151.488 29.1199 151.087 28.3461 150.874 27.5195C150.687 26.7965 150.583 26.1141 150.56 25.4727L150.555 25.2002V24.7598C150.555 24.1299 150.626 23.4694 150.769 22.7783L150.834 22.4805C151.047 21.6539 151.448 20.8935 152.034 20.2002C152.571 19.5935 153.291 19.0782 154.195 18.6553L154.595 18.4805C155.688 18.0272 157.141 17.7998 158.954 17.7998C160.741 17.7998 162.181 18.0271 163.274 18.4805C164.368 18.9338 165.207 19.5069 165.794 20.2002C166.407 20.8935 166.807 21.6538 166.994 22.4805C167.207 23.2802 167.314 24.04 167.314 24.7598V25.2002L167.31 25.4727C167.286 26.1142 167.181 26.7964 166.994 27.5195C166.807 28.3462 166.407 29.1198 165.794 29.8398C165.207 30.5598 164.368 31.1597 163.274 31.6396C162.181 32.093 160.741 32.3203 158.954 32.3203V31.3203C160.668 31.3203 161.962 31.1 162.888 30.7168C163.745 30.3387 164.381 29.9004 164.835 29.4189L165.026 29.2002L165.033 29.1914C165.554 28.5803 165.872 27.9508 166.019 27.2998L166.026 27.2705C166.222 26.5109 166.314 25.822 166.314 25.2002V24.7598ZM158.034 8.71973V9.71973C154.888 9.71974 152.221 10.0397 150.034 10.6797C147.874 11.3197 146.075 12.1603 144.635 13.2002C143.222 14.2401 142.128 15.4132 141.354 16.7197L141.075 17.2109C140.448 18.3602 139.994 19.5297 139.714 20.7197H135.354V10.2402H124.555V40H135.354V28.7197H139.595C139.861 30.133 140.354 31.5467 141.074 32.96C141.821 34.3466 142.901 35.5997 144.314 36.7197C145.728 37.8397 147.554 38.7605 149.794 39.4805C152.034 40.1738 154.781 40.5195 158.034 40.5195H159.834C162.097 40.5195 164.116 40.3462 165.89 39.999L166.635 39.8398C168.581 39.3865 170.248 38.7866 171.635 38.04C172.848 37.3634 173.867 36.5947 174.692 35.7344L175.034 35.3604C175.827 34.4738 176.478 33.5562 176.985 32.6084L177.194 32.2002C177.661 31.2437 177.995 30.2768 178.196 29.2998L178.274 28.8799C178.461 27.8767 178.566 26.9246 178.589 26.0234L178.595 25.6396V24.4404C178.595 23.4272 178.488 22.3601 178.274 21.2402C178.088 20.0936 177.728 18.9732 177.194 17.8799C176.661 16.7866 175.941 15.7464 175.034 14.7598C174.264 13.8966 173.29 13.1248 172.112 12.4453L171.595 12.1602C170.381 11.5069 168.953 10.9757 167.312 10.5674L166.595 10.4004C164.675 9.94706 162.421 9.71973 159.834 9.71973V8.71973C162.468 8.71973 164.797 8.94986 166.808 9.42285C168.819 9.86362 170.575 10.4769 172.061 11.2754C173.552 12.0635 174.797 12.9961 175.77 14.083H175.771C176.736 15.1336 177.513 16.253 178.093 17.4414C178.664 18.6124 179.054 19.8197 179.258 21.0605C179.481 22.232 179.595 23.3594 179.595 24.4404V25.6396L179.589 26.0488C179.564 27.0092 179.453 28.0142 179.258 29.0625L179.257 29.0615C179.052 30.2772 178.663 31.4704 178.093 32.6387C177.517 33.8198 176.744 34.944 175.788 36.0146L175.789 36.0156C174.821 37.1308 173.591 38.0934 172.121 38.9131L172.115 38.917L172.108 38.9209C170.626 39.7189 168.872 40.3452 166.861 40.8135C164.822 41.2883 162.476 41.5195 159.834 41.5195H158.034C154.924 41.5195 152.222 41.2101 149.948 40.5684L149.499 40.4355L149.488 40.4316C147.312 39.7322 145.469 38.8374 143.985 37.7285L143.693 37.5039C142.283 36.3861 141.162 35.1255 140.352 33.7178L140.194 33.4346L140.188 33.4238L140.184 33.4141C139.561 32.192 139.097 30.9597 138.792 29.7197H136.354V41H123.555V9.24023H136.354V19.7197H138.948C139.303 18.523 139.818 17.3529 140.494 16.2109C141.346 14.772 142.537 13.5019 144.042 12.3945L144.049 12.3896L144.344 12.1816C145.841 11.1585 147.65 10.344 149.75 9.72168L149.754 9.7207C152.059 9.04609 154.826 8.71974 158.034 8.71973ZM159.834 8.71973V9.71973H158.034V8.71973H159.834Z" fill="white"/>
<path d="M117.815 10.2402H86.415L86.4053 15.0703C86.3986 16.5168 86.3883 17.8 86.375 18.9199L86.3496 20.5195C86.3196 22.0397 86.2748 23.3202 86.2148 24.3604C86.1615 25.7202 86.0679 26.7605 85.9346 27.4805L85.8271 27.9971C85.7121 28.4922 85.5751 28.9202 85.415 29.2803L85.2891 29.5342C84.9828 30.1115 84.5846 30.5867 84.0947 30.96C83.5347 31.3599 82.7877 31.5596 81.8545 31.5596V30.5596C82.6463 30.5596 83.1663 30.3909 83.5059 30.1514C83.9158 29.8346 84.2502 29.4145 84.5039 28.8672C84.6745 28.4815 84.8287 27.9647 84.9521 27.2979C85.0722 26.6493 85.1631 25.6663 85.2158 24.3213V24.3115L85.2168 24.3027C85.2956 22.9376 85.3484 21.1409 85.375 18.9082C85.4016 16.6738 85.415 13.7848 85.415 10.2402V9.24023H118.815V41H106.015V18.7598H97.7305C97.7103 22.4359 97.5785 25.5215 97.3301 28.0098C97.0863 30.6912 96.6618 32.8653 96.0254 34.4854L96.0234 34.4912C95.62 35.4998 95.1117 36.4182 94.4951 37.2402L94.4893 37.2471L94.4844 37.2539C93.8412 38.0809 93.0371 38.775 92.0859 39.3398L92.0771 39.3447C91.1485 39.884 90.0659 40.2881 88.8457 40.5723C87.6292 40.8618 86.2147 41 84.6152 41H80.2148V40H80.3359L80.2148 39.8721V30.5596H81.8545V31.5596H81.2148V40H84.6152L85.1846 39.9941C86.4914 39.965 87.6351 39.833 88.6152 39.5996C89.6185 39.3663 90.4995 39.0519 91.2578 38.6553L91.5752 38.4805C92.3219 38.0371 92.9564 37.512 93.4785 36.9053L93.6953 36.6396C94.1851 35.9865 94.6032 35.2618 94.9502 34.4658L95.0947 34.1201C95.6814 32.6268 96.095 30.5599 96.335 27.9199C96.6016 25.2533 96.7354 21.8664 96.7354 17.7598H107.015V40H117.815V10.2402Z" fill="white"/>
<path d="M43.6562 10.2402V40H54.416V26.7197L66.6963 40H80.3359L64.8555 23.6797L79.3359 10.2402H66.6562L54.416 21.7598V10.2402H43.6562ZM55.416 19.4453L65.9707 9.51172L66.2598 9.24023H81.8828L66.2764 23.7256L81.0615 39.3115L81.2148 39.4727V40H81.7148L82.6631 41H66.2588L55.416 29.2734V41H42.6562V9.24023H55.416V19.4453Z" fill="white"/>
<path d="M0 9.24023H25.7998V10.2402H1V40H25.8398L26.7305 39.9893C28.4757 39.9468 29.9959 39.777 31.291 39.4795L31.9199 39.3203C33.5464 38.867 34.8532 38.2537 35.8398 37.4805C36.7647 36.7306 37.4314 35.8631 37.8408 34.8789L37.9199 34.6797C38.2932 33.7465 38.5031 32.752 38.5498 31.6963L38.5596 31.2402V30.8398C38.5596 29.72 38.3762 28.7531 38.0088 27.9395L37.8398 27.5996C37.36 26.7199 36.7464 26.0003 36 25.4404C35.28 24.8538 34.4796 24.4135 33.5996 24.1201C32.7463 23.8268 31.9325 23.6262 31.1592 23.5195C31.7192 23.4395 32.3333 23.2667 33 23C33.5834 22.7666 34.1361 22.4514 34.6582 22.0547L34.8799 21.8799C35.4664 21.4 35.9461 20.7999 36.3193 20.0801C36.6693 19.4502 36.8664 18.7079 36.9102 17.8535L36.9199 17.4805V17.2002C36.9199 16.2669 36.7327 15.3862 36.3594 14.5596C36.0561 13.8133 35.559 13.1486 34.8682 12.5654L34.5596 12.3203C33.8128 11.7603 32.8415 11.3021 31.6455 10.9463L31.1201 10.7998C29.8835 10.4732 28.3708 10.2899 26.583 10.249L25.7998 10.2402V9.24023C27.9817 9.24024 29.8466 9.42986 31.3711 9.83203C32.8905 10.226 34.1693 10.7773 35.1592 11.5195C36.1235 12.2428 36.8444 13.1171 37.2715 14.1484C37.7049 15.1082 37.9199 16.1292 37.9199 17.2002V17.4805L37.9092 17.9043C37.8596 18.8722 37.6339 19.7585 37.2061 20.5391L37.207 20.54C36.7755 21.3722 36.2119 22.0822 35.5127 22.6543C35.1805 22.9261 34.8345 23.1684 34.4756 23.3818C35.2405 23.6965 35.9491 24.1154 36.5986 24.6396H36.5996C37.3603 25.2102 37.995 25.9193 38.5059 26.7549L38.7178 27.1211C39.297 28.1831 39.5596 29.4379 39.5596 30.8398V31.2402L39.5488 31.7412C39.4977 32.8948 39.2668 33.9928 38.8545 35.0303L38.8564 35.0312C38.387 36.2831 37.5783 37.358 36.4697 38.2568L36.4561 38.2666C35.3369 39.1438 33.9002 39.8061 32.1885 40.2832C30.4455 40.7689 28.3212 41 25.8398 41H0V9.24023ZM25.96 30.1602C25.96 30.0091 25.9441 29.8684 25.915 29.7363L25.8818 29.6074C25.8708 29.5705 25.8514 29.529 25.8037 29.4805L25.7461 29.4297L25.7197 29.4092L25.6953 29.3877C25.6409 29.3393 25.53 29.2684 25.3262 29.2002L25.0908 29.1338L25.0557 29.125L25.0215 29.1143C24.7319 29.0238 24.2722 28.96 23.5996 28.96H12.7998V31.7197H23.5996V32.7197H11.7998V27.96H23.5996C24.3195 27.96 24.8927 28.0269 25.3193 28.1602C25.7725 28.2668 26.1194 28.4265 26.3594 28.6396C26.5994 28.8263 26.7598 29.0536 26.8398 29.3203C26.9198 29.5869 26.96 29.8669 26.96 30.1602V30.3203L26.9521 30.54C26.9371 30.76 26.8998 30.9802 26.8398 31.2002C26.7598 31.4668 26.5993 31.72 26.3594 31.96C26.1194 32.1732 25.7726 32.3596 25.3193 32.5195C24.8927 32.6528 24.3195 32.7197 23.5996 32.7197V31.7197C24.2628 31.7197 24.7186 31.6568 25.0088 31.5684C25.3585 31.4429 25.5628 31.3205 25.6738 31.2285C25.7999 31.0971 25.8544 30.9945 25.8779 30.9219C25.9327 30.7164 25.9599 30.5168 25.96 30.3203V30.1602ZM24.7998 19.3203C24.7998 18.9948 24.7111 18.7918 24.5547 18.6357L24.4844 18.5723L24.459 18.5518L24.4355 18.5293C24.3193 18.4205 23.973 18.2499 23.1719 18.209L22.7998 18.2002H12.7998V20.5195H22.7998V21.5195H11.7998V17.2002H22.7998C23.9197 17.2002 24.6935 17.3998 25.1201 17.7998C25.5733 18.1731 25.7998 18.6804 25.7998 19.3203V19.4004L25.79 19.625C25.7434 20.1383 25.5325 20.5699 25.1592 20.9199C24.7325 21.3198 23.9462 21.5195 22.7998 21.5195V20.5195C23.9041 20.5195 24.3458 20.312 24.4756 20.1904C24.6897 19.9897 24.7997 19.7522 24.7998 19.4004V19.3203Z" fill="white"/>
</svg>
