<svg width="1134" height="280" viewBox="0 0 1134 280" fill="none" xmlns="http://www.w3.org/2000/svg">
<g clip-path="url(#clip0_333_1939)">
<g opacity="0.04">
<path d="M0 215.462C9.68573 237.431 20.2772 259.02 31.9131 280H27.6572C17.6924 261.911 8.5102 243.413 0 224.6V215.462Z" fill="white"/>
<path d="M0 101.827C6.55987 121.809 13.6212 141.606 21.2705 161.151C37.3455 202.226 56.4221 242.383 79.4688 280H75.0986C75.0668 279.948 75.0348 279.895 75.0029 279.843C43.3252 227.629 19.3864 171.222 0 113.31V101.827Z" fill="white"/>
<path d="M12.3916 0C24.7914 48.6084 39.4523 96.696 57.6758 143.261C76.4209 191.158 99.5326 237.719 128.771 280H124.266C118.501 271.6 112.975 263.034 107.691 254.325C68.169 189.181 41.5275 117.057 20.6953 43.9219C16.5434 29.3458 12.5321 14.7023 8.69434 0H12.3916Z" fill="white"/>
<path d="M53.9863 0C65.0839 42.5276 78.1106 84.5772 94.0752 125.37C115.673 180.557 143.504 233.834 180.681 280H175.975C163.032 263.734 151.162 246.587 140.374 228.806C103.602 168.196 78.8134 101.096 59.4316 33.0518C56.3047 22.0742 53.2641 11.0553 50.3242 0H53.9863Z" fill="white"/>
<path d="M95.6445 0C105.414 36.4429 116.775 72.4612 130.479 107.478C152.646 164.121 181.912 218.586 222.215 264.303C226.936 269.658 231.805 274.895 236.814 280H231.66C209.339 256.8 189.793 230.867 173.061 203.288C139.04 147.213 116.103 85.1347 98.1709 22.1807C96.0705 14.8066 94.0117 7.41244 92 0H95.6445Z" fill="white"/>
<path d="M137.371 0C145.776 30.3564 155.441 60.3508 166.882 89.585C187.248 141.624 214.135 191.659 251.161 233.658C266.08 250.581 282.601 266.236 300.523 280H294.483C258.922 251.867 229.299 216.588 205.746 177.766C174.477 126.226 153.391 69.1702 136.91 11.3076C135.838 7.54414 134.779 3.77452 133.731 0H137.371Z" fill="white"/>
<path d="M179.2 0C186.19 24.2692 194.111 48.2497 203.286 71.6934C221.85 119.128 246.359 164.732 280.109 203.016C308.877 235.647 344.184 263.1 384.297 280H375.224C359.521 272.784 344.513 263.954 330.41 253.823C293.023 226.966 262.307 191.601 238.433 152.249C209.915 105.244 190.681 53.2108 175.649 0.438477C175.608 0.292446 175.567 0.146049 175.525 0H179.2Z" fill="white"/>
<path d="M1127.23 45.2715C1122.51 84.3603 1118.64 123.664 1112.9 162.614C1108.34 193.526 1098.87 226.062 1071.99 244.711C1058.34 254.182 1043.03 257.098 1028.2 254.252C1034.78 259.725 1041.15 265.715 1047.35 271.797C1061.31 277.999 1076.54 279.718 1092.28 273.106C1112.7 264.53 1125.66 247.789 1134 228.43V237.271C1127.49 249.861 1118.63 261.042 1106.4 269.528C1090.07 280.86 1071.52 283.399 1053.95 278.348C1054.5 278.899 1055.05 279.45 1055.6 280H1046.04C1042.36 276.729 1038.79 273.325 1035.28 269.854C1024.55 263.043 1015.18 254.477 1006.16 245.51C1005.91 245.351 1005.65 245.192 1005.39 245.029C1002.1 242.941 998.949 240.677 995.9 238.281C983.695 233.46 970.54 231.772 956.523 235.391C932.106 241.694 914.81 259.195 901.744 280H897.363C908.887 261.281 923.762 245.035 944.324 235.764C960.05 228.673 974.48 228.042 987.911 231.535C984.193 228.195 980.595 224.704 977.049 221.154C976.53 220.844 976.012 220.527 975.498 220.201C974.78 219.746 974.069 219.28 973.364 218.807C961.429 213.769 948.511 211.857 934.704 215.42C903.232 223.542 884.328 251.425 871.006 280H866.857C879.054 253.374 895.748 227.917 923.136 215.568C937.699 209.002 951.082 208.307 963.553 211.398C958.934 207.541 954.551 203.388 950.26 199.127C938.758 194.035 926.267 191.996 912.886 195.448C875.888 204.994 857.414 243.666 844.551 276.229C844.055 277.484 843.563 278.742 843.069 280H839.072C840.286 276.9 841.501 273.801 842.737 270.715C854.734 240.771 871.148 209.26 901.947 195.372C915.614 189.21 928.175 188.546 939.879 191.434C934.571 187.501 929.649 183.08 924.887 178.466C914.447 174.047 903.147 172.363 891.07 175.478C856.517 184.39 839.272 220.518 827.26 250.926C823.421 260.644 819.708 270.463 815.417 280H811.323C816.472 268.771 820.75 257.135 825.344 245.67C836.571 217.645 851.938 188.174 880.761 175.178C894.26 169.091 906.605 168.732 918.071 171.961C917.279 171.51 916.492 171.038 915.712 170.544C909.944 166.889 904.712 162.552 899.725 157.914C890.29 154.092 880.108 152.707 869.25 155.507C837.141 163.786 821.126 197.37 809.965 225.623C804.012 240.692 798.39 256.022 790.046 269.966C787.978 273.421 785.752 276.765 783.387 280H778.735C782.682 274.822 786.26 269.359 789.394 263.616C796.882 249.891 802.142 235.11 807.946 220.623C818.405 194.517 832.724 167.086 859.57 154.98C871.748 149.489 882.917 148.999 893.309 151.7C892.027 150.419 890.753 149.128 889.482 147.834C888.247 147.185 887.026 146.479 885.822 145.717C881.966 143.274 878.372 140.498 874.937 137.525C866.405 134.18 857.216 133.014 847.433 135.535C817.769 143.181 802.983 174.222 792.673 200.32C787.166 214.26 781.965 228.439 774.247 241.337C767.493 252.622 758.935 262.62 749.254 271.455C745.984 274.44 742.604 277.281 739.133 280H732.969C737.428 276.689 741.753 273.192 745.907 269.471C756.837 259.68 766.334 248.28 773.391 235.347C780.318 222.651 785.183 208.977 790.552 195.577C800.242 171.391 813.513 145.999 838.383 134.785C849.145 129.932 859.055 129.293 868.301 131.411C864.655 127.874 861.118 124.206 857.549 120.59C847.899 115.251 837.213 112.574 825.615 115.562C798.395 122.574 784.838 151.072 775.38 175.016C770.32 187.825 765.541 200.855 758.448 212.707C752.228 223.102 744.349 232.305 735.433 240.443C717.077 257.196 694.964 269.066 672.846 280H664.376C665.779 279.319 667.181 278.636 668.581 277.951C690.963 266.961 713.454 255.147 732.181 238.372C742.204 229.393 750.915 218.934 757.387 207.073C763.752 195.407 768.224 182.843 773.157 170.529C782.078 148.262 794.301 124.909 817.194 114.587C826.932 110.196 835.911 109.547 844.296 111.372C838.441 107.548 833.275 102.853 828.299 97.9326C820.74 94.6237 812.543 93.3065 803.8 95.5908C779.017 102.066 766.723 127.859 758.09 149.713C753.476 161.392 749.119 173.272 742.652 184.078C736.965 193.582 729.765 201.992 721.613 209.433C704.114 225.404 682.871 236.511 661.791 246.861C640.068 257.494 618.032 267.525 595.415 276.091C591.879 277.43 588.323 278.735 584.75 280H573.359C601.837 270.626 629.459 258.414 656.391 245.348L660.509 243.341C680.903 233.327 701.395 222.559 718.458 207.274C727.575 199.108 735.501 189.59 741.387 178.803C747.191 168.165 751.268 156.71 755.766 145.482C763.918 125.134 775.094 103.822 796.011 94.3906C805.467 90.1268 814.139 89.7192 822.207 91.7812C819.386 88.9069 816.559 86.0465 813.632 83.3232C813.049 82.7805 812.457 82.2414 811.858 81.707C809.29 80.8042 806.774 79.582 804.351 78.0508C800.598 75.679 797.183 72.88 793.928 69.8848C787.763 67.4187 781.12 66.5337 774.065 68.374C752.614 73.9706 741.99 96.3253 734.521 115.231C730.516 125.37 726.734 135.684 721.12 145.064C716.159 153.354 709.886 160.682 702.775 167.172C687.568 181.051 669.103 190.702 650.784 199.697L647.245 201.421C629.533 210.011 611.569 218.1 593.161 225.07C553.672 240.023 511.465 250.016 469.047 246.492C430.568 243.296 394.148 228.172 362.862 205.698C330.391 182.372 303.707 151.65 282.972 117.472C260.797 80.9221 245.084 40.8759 232.667 0H236.433C241.368 15.9778 246.812 31.7807 252.89 47.3115C268.998 88.4713 290.265 128.037 319.551 161.257C344.725 189.812 375.68 213.791 410.858 228.41C448.777 244.168 489.812 246.69 529.963 239.352C571.799 231.705 611.432 214.808 649.485 196.183C649.49 196.18 649.496 196.177 649.501 196.175C667.186 187.491 684.953 178.15 699.75 164.896C707.631 157.837 714.488 149.601 719.575 140.276C724.614 131.042 728.152 121.098 732.058 111.351C739.162 93.6182 748.91 75.0849 767.133 66.8682C774.622 63.4912 781.545 62.8848 788.021 64.1436C784.569 60.6596 781.18 57.1068 777.616 53.791C775.064 51.4161 772.335 49.1106 769.443 47.0986C767.45 46.3679 765.496 45.4051 763.61 44.2168C762.716 43.6532 761.845 43.0582 760.994 42.4404C755.823 40.3691 750.252 39.6215 744.337 41.1611C726.219 45.8777 717.263 64.7934 710.959 80.752C707.562 89.3503 704.355 98.0977 699.594 106.054C695.359 113.13 690.013 119.376 683.943 124.915C671.027 136.703 655.341 144.895 639.783 152.534C623.79 160.363 607.566 167.748 590.915 174.052C557.375 186.752 521.533 195.225 485.507 192.232C452.826 189.518 421.894 176.662 395.322 157.574C367.766 137.779 345.114 111.701 327.518 82.6963C311.784 56.7626 299.879 28.758 290.239 0H294.124C296.753 7.70929 299.536 15.3591 302.5 22.9316C316.153 57.8174 334.177 91.3454 358.999 119.501C380.316 143.681 406.537 163.981 436.325 176.36C468.44 189.707 503.191 191.829 537.195 185.614C572.654 179.134 606.249 164.8 638.5 149.014C638.512 149.008 638.525 149.003 638.537 148.997C653.503 141.648 668.528 133.738 681.05 122.523C687.694 116.572 693.481 109.617 697.771 101.756C702.044 93.9243 705.045 85.4898 708.357 77.2236C714.414 62.1065 722.735 46.3526 738.264 39.3506C743.924 36.7986 749.202 36.0975 754.171 36.7119C749.876 32.6718 745.889 28.2549 741.592 24.2568C734.246 17.4218 725.092 11.2234 714.602 13.9443C699.816 17.7799 692.529 33.2605 687.39 46.2705C684.601 53.3287 681.968 60.5091 678.06 67.04C674.551 72.9019 670.133 78.0657 665.104 82.6553C654.481 92.3516 641.571 99.0853 628.774 105.369C615.646 111.795 602.328 117.858 588.658 123.034C561.067 133.481 531.591 140.435 501.957 137.974C475.073 135.74 449.629 125.153 427.772 109.452C405.131 93.1879 386.511 71.7529 372.053 47.9219C362.809 32.6851 355.173 16.5795 348.675 0H352.677C363.804 28.0887 378.428 55.0404 398.44 77.7412C415.901 97.5469 437.388 114.169 461.785 124.308C488.096 135.242 516.563 136.964 544.42 131.873C573.492 126.56 601.041 114.795 627.483 101.853C627.486 101.851 627.489 101.85 627.491 101.849C639.76 95.8239 652.074 89.3374 662.34 80.1436C667.749 75.2993 672.466 69.6265 675.957 63.2275C679.465 56.7986 681.929 49.8754 684.647 43.0898C689.656 30.5884 696.549 17.6136 709.385 11.8262C713.708 9.87669 717.761 9.22852 721.591 9.53418C717.653 6.82221 714.272 3.41727 710.911 0H716.176C717.445 1.23483 718.698 2.41992 719.945 3.50488C725.916 8.6997 733.255 12.3615 741.124 9.05664C745.647 7.15708 748.95 3.91235 751.383 0H755.663C753.529 3.95573 750.671 7.46698 746.793 10.1582C742.863 12.8851 738.526 14.1152 734.2 13.9766C743.501 19.6708 751.535 29.5341 759.31 36.2988C760.476 37.3141 761.686 38.2819 762.931 39.1816C765.521 40.3146 768.027 41.7608 770.464 43.4219C775.603 45.4685 781.154 45.9043 786.909 43.4873C800.879 37.6203 805.924 21.9378 808.07 8.13184C808.491 5.42646 808.882 2.71515 809.255 0H812.985C812.647 2.51378 812.298 5.02536 811.929 7.5332C809.904 21.2747 805.619 35.6954 793.682 43.9785C788.573 47.5231 782.933 49.0484 777.324 48.7432C783.923 54.4254 790.049 61.1314 795.999 66.6709C802.077 69.3264 807.764 73.4446 813.181 78.1396C819.308 80.4023 825.895 80.7789 832.703 77.9199C849.865 70.7123 856.102 51.5123 858.742 34.5371C860.523 23.0818 861.899 11.5436 863.208 0H866.94C865.645 11.2437 864.289 22.4805 862.641 33.6621C860.189 50.2968 855.03 67.7693 840.576 77.7988C833.818 82.4883 826.29 84.2394 818.891 83.3555C822.873 87.1527 826.724 91.0995 830.493 94.8076C838.956 98.8086 846.762 105.225 854.161 112.188C861.763 115.247 869.986 115.917 878.489 112.346C898.842 103.798 906.273 81.0803 909.405 60.9365C912.546 40.7412 914.626 20.3278 916.955 0H920.714C918.424 19.9484 916.27 39.942 913.346 59.7891C910.468 79.3161 904.435 99.8413 887.464 111.617C878.941 117.531 869.383 119.443 860.093 117.81C869.161 123.158 877.553 130.8 885.545 138.642C889.631 141.1 893.589 143.983 897.444 147.124C905.876 150.208 914.936 150.702 924.281 146.777C947.826 136.889 956.45 110.655 960.075 87.3418C964.288 60.2478 966.843 32.8131 970.126 5.59082C970.351 3.72723 970.575 1.86359 970.8 0H974.545C974.492 0.440741 974.439 0.881525 974.386 1.32227C970.988 29.5027 968.195 57.8383 964.057 85.9189C960.753 108.339 953.844 131.916 934.356 145.438C924.858 152.029 914.243 154.276 903.881 152.664C906.408 154.947 908.893 157.305 911.343 159.69C917.122 163.263 922.668 167.607 928.034 172.318C937.403 175.81 947.483 176.409 957.88 172.043C983.766 161.171 993.265 132.355 997.252 106.717C1001.87 77.0013 1004.68 46.9122 1008.28 17.0557C1008.96 11.3704 1009.65 5.68521 1010.33 0H1014.08C1013.58 4.10286 1013.09 8.20574 1012.59 12.3086C1008.87 43.216 1005.8 74.2939 1001.26 105.092C997.648 129.634 990.099 155.452 968.764 170.256C957.992 177.73 945.912 180.087 934.188 177.93C935.181 178.865 936.167 179.809 937.148 180.757C944.474 185.389 951.453 191.155 958.179 197.338C968.61 201.389 979.867 202.188 991.48 197.311C1019.71 185.455 1030.08 154.058 1034.43 126.095C1039.46 93.7574 1042.51 61.0125 1046.43 28.5215C1047.57 19.0144 1048.72 9.50718 1049.87 0H1053.61C1052.68 7.76595 1051.74 15.5319 1050.8 23.2979C1046.75 56.9325 1043.41 90.7516 1038.48 124.267C1034.55 150.933 1026.35 178.99 1003.17 195.075C991.337 203.288 978.05 205.806 965.182 203.309C973.149 208.716 980.738 215.306 988.055 222.238C999.623 226.945 1012.15 228.006 1025.08 222.575C1055.65 209.736 1066.9 175.758 1071.61 145.469C1077.05 110.509 1080.34 75.1106 1084.58 39.9854C1086.19 26.6569 1087.79 13.3284 1089.4 0H1093.15C1091.77 11.428 1090.39 22.8562 1089.01 34.2842C1084.63 70.646 1081.03 107.208 1075.69 143.44C1071.44 172.229 1062.61 202.525 1037.58 219.893C1024.96 228.651 1010.81 231.399 997.079 228.853C1003.11 233.492 1008.95 238.675 1014.63 244.055C1016.57 245.346 1018.49 246.701 1020.4 248.11C1032.41 252.636 1045.35 253.442 1058.69 247.842C1091.6 234.019 1103.72 197.459 1108.79 164.845C1114.64 127.264 1118.18 89.2099 1122.74 51.4502C1124.8 34.3002 1126.87 17.1501 1128.94 0H1132.69C1130.87 15.0904 1129.05 30.181 1127.23 45.2715Z" fill="white"/>
<path d="M669.341 0C667.107 3.80738 665.346 7.94256 663.827 11.7881C661.647 17.3062 659.588 22.9204 656.532 28.0264C653.751 32.6741 650.26 36.7558 646.272 40.3945C637.94 47.9992 627.808 53.2762 617.772 58.2041C607.508 63.2283 597.096 67.9682 586.41 72.0137C564.768 80.2081 541.658 85.6422 518.416 83.7119C497.329 81.9603 477.372 73.6401 460.23 61.3262C442.504 48.5926 427.917 31.8019 416.598 13.1445C413.99 8.84649 411.547 4.45964 409.248 0H413.444C420.225 12.8749 428.256 25.0584 437.888 35.9834C451.492 51.4142 468.244 64.3562 487.251 72.2549C507.758 80.777 529.941 82.1016 551.65 78.1338C574.342 73.9866 595.852 64.7854 616.49 54.6836C616.492 54.6825 616.495 54.6808 616.497 54.6797C626.056 49.9856 635.64 44.9271 643.639 37.7656C647.812 34.0292 651.459 29.6381 654.152 24.7021C656.895 19.676 658.822 14.2631 660.947 8.95801C662.155 5.94451 663.503 2.90297 665.08 0H669.341Z" fill="white"/>
<path d="M625.262 0C619.673 4.53637 613.189 7.88523 606.764 11.04L603.983 12.3877C597.484 15.5077 590.895 18.4427 584.154 20.9951C568.462 26.9373 551.717 30.8525 534.866 29.4531C519.577 28.183 505.109 22.1299 492.682 13.2031C487.239 9.29306 482.204 4.84976 477.584 0H482.801C491.448 8.49236 501.54 15.5604 512.709 20.2021C527.412 26.3123 543.311 27.2379 558.874 24.3936C575.174 21.4144 590.634 14.7848 605.459 7.5293C605.466 7.52587 605.473 7.52192 605.479 7.51855C610.083 5.25801 614.689 2.87533 618.955 0H625.262Z" fill="white"/>
</g>
</g>
<defs>
<clipPath id="clip0_333_1939">
<rect width="1134" height="280" fill="white"/>
</clipPath>
</defs>
</svg>
