<svg width="296" height="382" viewBox="0 0 296 382" fill="none" xmlns="http://www.w3.org/2000/svg">
<g clip-path="url(#clip0_333_905)">
<rect width="296" height="382" fill="#5A9E87"/>
<g opacity="0.04">
<path d="M0 314.163C13.7797 338.051 29.3514 360.851 47.0527 382H43.5303C28.91 364.347 15.643 345.533 3.74219 325.917C2.47986 323.836 1.23327 321.747 0 319.65V314.163Z" fill="white"/>
<path d="M0 247.939C19.6608 291.014 44.1866 331.911 75.4951 367.425C79.8723 372.39 84.3789 377.252 89.0088 382H85.208C63.4147 359.308 44.3243 333.958 27.9707 307.003C17.6686 290.022 8.40433 272.479 0 254.522V247.939Z" fill="white"/>
<path d="M0 166.278C3.88369 177.649 7.99686 188.932 12.3691 200.104C32.8084 252.33 59.7909 302.558 96.9512 344.709C108.686 358.02 121.406 370.55 135.015 382H130.764C99.6944 355.344 73.4791 323.161 52.1992 288.085C30.535 252.376 13.7535 214.021 0 174.586V166.278Z" fill="white"/>
<path d="M0 57.0186C10.3617 101.074 22.8979 144.796 39.3535 186.844C58.4571 235.657 83.6773 282.599 118.409 321.996C138.794 345.119 162.361 365.722 188.535 382H183.403C179.166 379.281 174.998 376.447 170.904 373.507C132.496 345.916 100.955 309.597 76.4287 269.171C47.1325 220.882 27.3844 167.42 11.9424 113.208C7.74747 98.4811 3.74338 83.6619 0 68.7646V57.0186Z" fill="white"/>
<path d="M18.4443 0C19.923 7.8891 21.5084 15.7554 23.1826 23.5947C34.0329 74.3987 47.394 125.184 66.335 173.582C84.1028 218.982 107.56 262.64 139.863 299.282C167.676 330.83 201.858 357.336 240.727 373.488C248.857 376.867 257.119 379.694 265.478 382H255.938C231.929 374.092 209.223 362.176 188.556 347.33C152.821 321.66 123.474 287.867 100.654 250.255C73.397 205.328 55.0222 155.588 40.6553 105.149C30.8075 70.5771 22.0885 35.4601 15.5586 0H18.4443Z" fill="white"/>
<path d="M49.0674 0C50.4235 7.22477 51.8768 14.4287 53.4102 21.6084C63.4445 68.593 75.8034 115.56 93.3203 160.319C109.752 202.306 131.445 242.68 161.32 276.567C187.035 305.736 218.642 330.24 254.578 345.175C268.057 350.776 281.922 354.741 296 357.216V360.221C263.608 354.38 233.053 340.434 206.212 321.153C173.151 297.404 145.997 266.137 124.885 231.339C99.6669 189.773 82.6644 143.757 69.3721 97.0918C60.2788 65.1681 52.2251 32.7422 46.1875 0H49.0674Z" fill="white"/>
<path d="M79.6885 0C80.9221 6.56046 82.2433 13.1021 83.6357 19.6221C92.8546 62.7869 104.211 105.935 120.304 147.056C135.4 185.63 155.33 222.719 182.776 253.852C206.393 280.641 235.424 303.144 268.428 316.859C277.45 320.609 286.662 323.559 296 325.764V328.699C270.086 322.445 245.644 310.62 223.864 294.975C193.477 273.146 168.516 244.405 149.111 212.421C125.933 174.217 110.304 131.924 98.0869 89.0332C89.7483 59.7585 82.3597 30.0242 76.8145 0H79.6885Z" fill="white"/>
<path d="M110.314 0C111.425 5.89573 112.613 11.775 113.864 17.6348C122.267 56.9803 132.621 96.311 147.29 133.793C161.051 168.954 179.217 202.759 204.235 231.138C225.754 255.547 252.211 276.049 282.282 288.546C286.806 290.426 291.382 292.085 296 293.532V296.421C276.558 290.293 258.186 280.77 241.521 268.799C213.807 248.891 191.039 222.675 173.342 193.506C152.203 158.663 137.946 120.093 126.804 80.9756C119.219 54.3496 112.496 27.3065 107.443 0H110.314Z" fill="white"/>
<path d="M152.043 0C152.987 4.99 153.992 9.96647 155.052 14.9268C162.343 49.0674 171.33 83.1951 184.059 115.719C195.999 146.229 211.763 175.558 233.472 200.183C250.893 219.943 272.049 236.745 296 247.708V250.693C285.32 245.918 275.126 239.984 265.577 233.125C241.507 215.834 221.728 193.061 206.357 167.727C187.997 137.464 175.612 103.968 165.934 69.9922C159.378 46.9766 153.561 23.6019 149.18 0H152.043Z" fill="white"/>
<path d="M193.774 0C194.551 4.08561 195.376 8.16057 196.243 12.2227C202.423 41.1584 210.044 70.0831 220.832 97.6484C230.952 123.508 244.313 148.361 262.712 169.231C272.493 180.326 283.668 190.318 296 198.498V201.788C293.844 200.397 291.722 198.952 289.637 197.454C269.21 182.781 252.42 163.449 239.376 141.949C223.795 116.267 213.279 87.845 205.066 59.0117C199.539 39.6056 194.631 19.8981 190.921 0H193.774Z" fill="white"/>
<path d="M235.503 0C236.111 3.18031 236.755 6.35277 237.431 9.51562C242.499 33.2465 248.753 56.9685 257.601 79.5752C265.901 100.783 276.859 121.16 291.949 138.276C293.268 139.772 294.62 141.242 296 142.687V146.636C286.948 137.503 279.069 127.184 272.389 116.173C259.586 95.0711 250.942 71.7223 244.193 48.0312C239.694 32.2349 235.695 16.1946 232.657 0H235.503Z" fill="white"/>
<path d="M277.235 0C277.675 2.27513 278.139 4.54496 278.622 6.80859C282.579 25.3347 287.467 43.8537 294.374 61.502C294.902 62.8499 295.444 64.193 296 65.5312V72.457C290.825 61.0405 286.761 49.1029 283.327 37.0488C279.856 24.8627 276.765 12.4903 274.399 0H277.235Z" fill="white"/>
</g>
</g>
<defs>
<clipPath id="clip0_333_905">
<rect width="296" height="382" fill="white"/>
</clipPath>
</defs>
</svg>
