<svg width="482" height="86" viewBox="0 0 482 86" fill="none" xmlns="http://www.w3.org/2000/svg">
<path d="M441.044 82.0791C428.379 82.0791 419.042 79.1632 413.033 73.3312C407.024 67.4993 404.02 59.3994 404.02 49.0315C404.02 38.7226 407.024 30.6816 413.033 24.9085C419.101 19.0766 428.438 16.1606 441.044 16.1606C453.65 16.1606 462.958 19.0766 468.966 24.9085C474.975 30.6816 477.979 38.7226 477.979 49.0315C477.979 59.3994 474.975 67.4993 468.966 73.3312C462.958 79.1632 453.65 82.0791 441.044 82.0791ZM441.132 66.6157C446.552 66.6157 450.499 64.9662 452.973 61.6674C455.447 58.3096 456.684 54.0976 456.684 49.0315C456.684 44.0243 455.447 39.8713 452.973 36.5724C450.499 33.2146 446.552 31.5357 441.132 31.5357C435.536 31.5357 431.471 33.2146 428.938 36.5724C426.464 39.8713 425.227 44.0243 425.227 49.0315C425.227 54.0387 426.464 58.2212 428.938 61.579C431.471 64.9368 435.536 66.6157 441.132 66.6157Z" fill="#231F20"/>
<path d="M360.016 82.0791C347.351 82.0791 338.014 79.1632 332.005 73.3312C325.997 67.4993 322.992 59.3994 322.992 49.0315C322.992 38.7226 325.997 30.6816 332.005 24.9085C338.073 19.0766 347.41 16.1606 360.016 16.1606C372.622 16.1606 381.93 19.0766 387.939 24.9085C393.947 30.6816 396.952 38.7226 396.952 49.0315C396.952 59.3994 393.947 67.4993 387.939 73.3312C381.93 79.1632 372.622 82.0791 360.016 82.0791ZM360.104 66.6157C365.524 66.6157 369.471 64.9662 371.945 61.6674C374.419 58.3096 375.656 54.0976 375.656 49.0315C375.656 44.0243 374.419 39.8713 371.945 36.5724C369.471 33.2146 365.524 31.5357 360.104 31.5357C354.508 31.5357 350.443 33.2146 347.91 36.5724C345.436 39.8713 344.199 44.0243 344.199 49.0315C344.199 54.0387 345.436 58.2212 347.91 61.579C350.443 64.9368 354.508 66.6157 360.104 66.6157Z" fill="#231F20"/>
<path d="M278.988 82.0791C266.323 82.0791 256.986 79.1632 250.977 73.3312C244.969 67.4993 241.964 59.3994 241.964 49.0315C241.964 38.7226 244.969 30.6816 250.977 24.9085C257.045 19.0766 266.382 16.1606 278.988 16.1606C291.595 16.1606 300.902 19.0766 306.911 24.9085C312.92 30.6816 315.924 38.7226 315.924 49.0315C315.924 59.3994 312.92 67.4993 306.911 73.3312C300.902 79.1632 291.595 82.0791 278.988 82.0791ZM279.077 66.6157C284.496 66.6157 288.443 64.9662 290.917 61.6674C293.391 58.3096 294.628 54.0976 294.628 49.0315C294.628 44.0243 293.391 39.8713 290.917 36.5724C288.443 33.2146 284.496 31.5357 279.077 31.5357C273.48 31.5357 269.416 33.2146 266.883 36.5724C264.408 39.8713 263.171 44.0243 263.171 49.0315C263.171 54.0387 264.408 58.2212 266.883 61.579C269.416 64.9368 273.48 66.6157 279.077 66.6157Z" fill="#231F20"/>
<path d="M180.271 82.0791C167.605 82.0791 158.268 79.1632 152.26 73.3312C146.251 67.4993 143.247 59.3994 143.247 49.0315C143.247 38.7226 146.251 30.6816 152.26 24.9085C158.327 19.0766 167.664 16.1606 180.271 16.1606C192.877 16.1606 202.185 19.0766 208.193 24.9085C214.202 30.6816 217.206 38.7226 217.206 49.0315C217.206 59.3994 214.202 67.4993 208.193 73.3312C202.185 79.1632 192.877 82.0791 180.271 82.0791ZM180.359 66.6157C185.779 66.6157 189.726 64.9662 192.2 61.6674C194.674 58.3096 195.911 54.0976 195.911 49.0315C195.911 44.0243 194.674 39.8713 192.2 36.5724C189.726 33.2146 185.779 31.5357 180.359 31.5357C174.763 31.5357 170.698 33.2146 168.165 36.5724C165.691 39.8713 164.454 44.0243 164.454 49.0315C164.454 54.0387 165.691 58.2212 168.165 61.579C170.698 64.9368 174.763 66.6157 180.359 66.6157Z" fill="#231F20"/>
<path d="M99.2429 82.0791C86.5776 82.0791 77.2406 79.1632 71.232 73.3312C65.2233 67.4993 62.219 59.3994 62.219 49.0315C62.219 38.7226 65.2233 30.6816 71.232 24.9085C77.2995 19.0766 86.6365 16.1606 99.2429 16.1606C111.849 16.1606 121.157 19.0766 127.165 24.9085C133.174 30.6816 136.178 38.7226 136.178 49.0315C136.178 59.3994 133.174 67.4993 127.165 73.3312C121.157 79.1632 111.849 82.0791 99.2429 82.0791ZM99.3313 66.6157C104.751 66.6157 108.698 64.9662 111.172 61.6674C113.646 58.3096 114.883 54.0976 114.883 49.0315C114.883 44.0243 113.646 39.8713 111.172 36.5724C108.698 33.2146 104.751 31.5357 99.3313 31.5357C93.735 31.5357 89.6703 33.2146 87.1372 36.5724C84.6631 39.8713 83.426 44.0243 83.426 49.0315C83.426 54.0387 84.6631 58.2212 87.1372 61.579C89.6703 64.9368 93.735 66.6157 99.3313 66.6157Z" fill="#231F20"/>
<path d="M50.1941 64.8484C55.4959 64.7306 59.4133 64.6128 61.9463 64.495V81.1955H15.2025V64.495C21.5646 64.7306 26.3657 64.8484 29.6056 64.8484V34.3633C27.4849 39.0171 23.1552 42.0214 16.6163 43.3763C16.4396 36.4251 15.7916 30.0925 14.6724 24.3784C19.385 23.7304 22.6544 22.9351 24.4806 21.9926C26.3657 20.9911 27.8089 19.9013 28.8104 18.7232C29.8707 17.545 30.5776 16.7497 30.9311 16.3374V16.1606H50.1941V64.8484Z" fill="#231F20"/>
<path d="M477.98 49.0317C477.98 38.7228 474.975 30.6817 468.966 24.9087C463.145 19.2592 454.229 16.346 442.216 16.1694L441.044 16.1606C428.438 16.1606 419.1 19.0768 413.033 24.9087C407.024 30.6817 404.02 38.7229 404.02 49.0317C404.02 59.3995 407.024 67.4996 413.033 73.3315C418.854 78.9813 427.799 81.8943 439.867 82.0708L441.044 82.0796C453.257 82.0795 462.373 79.3429 468.394 73.8696L468.966 73.3315C474.787 67.6819 477.789 59.9039 477.971 49.9976L477.98 49.0317ZM453.286 49.0317C453.286 44.8757 452.331 41.6337 450.609 39.1079L450.254 38.6118L450.237 38.5884C448.588 36.351 445.827 34.9351 441.132 34.9351C436.22 34.9351 433.342 36.377 431.651 38.6187C429.709 41.211 428.626 44.6027 428.625 49.0317C428.625 53.4536 429.707 56.8847 431.663 59.5464C433.355 61.7801 436.231 63.2173 441.132 63.2173V66.6157C435.536 66.6157 431.471 64.9373 428.938 61.5796C426.464 58.2218 425.227 54.039 425.227 49.0317C425.227 44.1809 426.388 40.1318 428.71 36.8843L428.938 36.5728C431.471 33.215 435.536 31.5356 441.132 31.5356C446.552 31.5356 450.499 33.215 452.973 36.5728C455.447 39.8716 456.684 44.0246 456.684 49.0317C456.684 54.0977 455.447 58.3097 452.973 61.6675C450.499 64.9664 446.552 66.6157 441.132 66.6157V63.2173C445.838 63.2173 448.6 61.8215 450.242 59.6431C452.196 56.9867 453.286 53.5271 453.286 49.0317ZM481.369 50.062C481.173 60.6497 477.939 69.3589 471.333 75.77C464.433 82.4671 454.096 85.478 441.044 85.478C428.349 85.478 418.22 82.6546 411.324 76.3872L410.667 75.77C403.848 69.1522 400.622 60.0856 400.622 49.0317C400.622 38.032 403.851 29.0181 410.678 22.4585L411.34 21.8423C418.283 15.5889 428.398 12.7622 441.044 12.7622C454.096 12.7623 464.433 15.7731 471.333 22.4702H471.333C478.152 29.0289 481.378 38.0383 481.378 49.0317L481.369 50.062Z" fill="#231F20"/>
<path d="M396.952 49.0317C396.952 38.7228 393.948 30.6817 387.939 24.9087C381.93 19.0768 372.623 16.1606 360.016 16.1606C347.41 16.1607 338.073 19.0769 332.005 24.9087L331.451 25.4565C325.812 31.1865 322.993 39.0449 322.993 49.0317L323.001 49.9976C323.183 59.9039 326.185 67.6819 332.005 73.3315C337.826 78.9812 346.771 81.8942 358.838 82.0708L360.016 82.0796C372.229 82.0796 381.345 79.3428 387.366 73.8696L387.939 73.3315C393.948 67.4996 396.952 59.3996 396.952 49.0317ZM372.258 49.0317C372.258 44.5985 371.171 41.2051 369.226 38.6118L369.217 38.6001L369.209 38.5884C367.561 36.3509 364.799 34.9351 360.105 34.9351C355.193 34.9351 352.315 36.3779 350.624 38.6196C348.682 41.212 347.598 44.6029 347.598 49.0317L347.611 49.8511C347.737 53.8878 348.806 57.063 350.645 59.5601C352.339 61.786 355.213 63.2173 360.105 63.2173V66.6157L359.584 66.6108C354.256 66.5092 350.365 64.8323 347.911 61.5796C345.591 58.4318 344.358 54.5589 344.213 49.9614L344.2 49.0317C344.2 44.181 345.36 40.1318 347.682 36.8843L347.911 36.5728C350.444 33.215 354.509 31.5356 360.105 31.5356L360.608 31.5405C365.769 31.6421 369.548 33.3199 371.945 36.5728C374.419 39.8716 375.657 44.0246 375.657 49.0317L375.642 49.9722C375.497 54.6214 374.264 58.5197 371.945 61.6675C369.471 64.9662 365.524 66.6156 360.105 66.6157V63.2173C364.821 63.2172 367.586 61.8155 369.226 59.6284C371.173 56.9741 372.258 53.5185 372.258 49.0317ZM400.35 49.0317C400.35 60.0854 397.124 69.1522 390.306 75.77C383.406 82.4672 373.067 85.478 360.016 85.478C346.911 85.478 336.541 82.4696 329.638 75.77C322.82 69.1522 319.593 60.0855 319.593 49.0317C319.593 38.0322 322.823 29.0181 329.65 22.4585C336.604 15.7742 346.961 12.7622 360.016 12.7622C373.067 12.7622 383.406 15.773 390.306 22.4702H390.305C397.124 29.0289 400.35 38.0384 400.35 49.0317Z" fill="#231F20"/>
<path d="M315.924 49.0317C315.924 38.7228 312.919 30.6817 306.911 24.9087C301.09 19.2592 292.173 16.346 280.161 16.1694L278.989 16.1606C266.382 16.1606 257.045 19.0768 250.977 24.9087C244.969 30.6817 241.964 38.7229 241.964 49.0317C241.964 59.3995 244.969 67.4996 250.977 73.3315C256.798 78.9813 265.743 81.8943 277.811 82.0708L278.989 82.0796C291.201 82.0795 300.318 79.3429 306.338 73.8696L306.911 73.3315C312.731 67.6819 315.734 59.9039 315.916 49.9976L315.924 49.0317ZM291.23 49.0317C291.23 44.8757 290.275 41.6337 288.553 39.1079L288.199 38.6118L288.181 38.5884C286.532 36.351 283.771 34.9351 279.077 34.9351C274.165 34.9351 271.287 36.3779 269.596 38.6196C267.655 41.212 266.57 44.6028 266.57 49.0317C266.57 53.4535 267.652 56.8847 269.607 59.5464C271.299 61.7801 274.175 63.2173 279.077 63.2173V66.6157C273.48 66.6157 269.415 64.9373 266.882 61.5796C264.408 58.2218 263.171 54.0389 263.171 49.0317C263.171 44.1809 264.333 40.1318 266.655 36.8843L266.882 36.5728C269.415 33.215 273.48 31.5357 279.077 31.5356C284.496 31.5356 288.443 33.215 290.917 36.5728C293.392 39.8716 294.628 44.0246 294.628 49.0317C294.628 54.0978 293.392 58.3097 290.917 61.6675C288.443 64.9664 284.496 66.6157 279.077 66.6157V63.2173C283.782 63.2173 286.544 61.8215 288.186 59.6431C290.14 56.9867 291.23 53.5272 291.23 49.0317ZM319.313 50.062C319.117 60.6498 315.883 69.3589 309.278 75.77C302.378 82.4672 292.04 85.478 278.989 85.478C266.293 85.478 256.164 82.6546 249.268 76.3872L248.611 75.77C241.792 69.1522 238.566 60.0856 238.566 49.0317C238.566 38.0321 241.795 29.0181 248.623 22.4585L249.285 21.8423C256.227 15.5889 266.342 12.7622 278.989 12.7622C292.04 12.7623 302.378 15.7731 309.278 22.4702H309.277C316.096 29.0289 319.323 38.0383 319.323 49.0317L319.313 50.062Z" fill="#231F20"/>
<path d="M217.207 49.0317C217.207 38.7229 214.202 30.6817 208.194 24.9087C202.373 19.259 193.456 16.346 181.443 16.1694L180.271 16.1606C167.665 16.1606 158.328 19.0769 152.26 24.9087L151.706 25.4565C146.066 31.1865 143.247 39.0449 143.247 49.0317C143.247 59.3996 146.252 67.4996 152.26 73.3315C158.081 78.9811 167.025 81.8943 179.093 82.0708L180.271 82.0796C192.483 82.0796 201.6 79.3428 207.621 73.8696L208.194 73.3315C214.015 67.682 217.016 59.9038 217.198 49.9976L217.207 49.0317ZM192.512 49.0317C192.512 44.5985 191.426 41.2051 189.481 38.6118L189.463 38.5884C187.815 36.3511 185.053 34.9351 180.359 34.9351C175.447 34.9351 172.57 36.3779 170.878 38.6196C168.937 41.212 167.852 44.6028 167.852 49.0317C167.852 53.4535 168.934 56.8847 170.889 59.5464C172.582 61.7801 175.457 63.2172 180.359 63.2173V66.6157C174.763 66.6157 170.699 64.9371 168.166 61.5796C165.691 58.2218 164.454 54.039 164.454 49.0317C164.454 44.1809 165.615 40.1318 167.937 36.8843L168.166 36.5728C170.699 33.2151 174.763 31.5357 180.359 31.5356C185.778 31.5356 189.726 33.215 192.2 36.5728C194.674 39.8716 195.911 44.0246 195.911 49.0317C195.911 54.0978 194.674 58.3097 192.2 61.6675C189.726 64.9664 185.778 66.6157 180.359 66.6157V63.2173C185.064 63.2173 187.826 61.8214 189.468 59.6431C191.423 56.9867 192.512 53.5272 192.512 49.0317ZM220.605 49.0317C220.605 60.0856 217.378 69.1522 210.56 75.77C203.66 82.4671 193.322 85.478 180.271 85.478C167.576 85.478 157.447 82.6547 150.55 76.3872L149.893 75.77C143.075 69.1522 139.848 60.0855 139.848 49.0317C139.848 38.0321 143.078 29.0181 149.905 22.4585C156.859 15.7742 167.216 12.7622 180.271 12.7622C193.314 12.7622 203.647 15.7698 210.547 22.4585H210.548C217.375 29.0181 220.605 38.0321 220.605 49.0317Z" fill="#231F20"/>
<path d="M136.178 49.0317C136.178 38.7228 133.174 30.6817 127.165 24.9087C121.157 19.0768 111.849 16.1606 99.2426 16.1606C86.6364 16.1607 77.2993 19.0768 71.2318 24.9087C65.2232 30.6817 62.2191 38.7228 62.2191 49.0317L62.2279 49.9976C62.4099 59.9039 65.4111 67.6819 71.2318 73.3315C77.0528 78.9813 85.9976 81.8943 98.0658 82.0708L99.2426 82.0796C111.455 82.0796 120.572 79.3427 126.592 73.8696L127.165 73.3315C133.174 67.4996 136.178 59.3996 136.178 49.0317ZM111.485 49.0317C111.485 44.8758 110.53 41.6337 108.808 39.1079L108.453 38.6118L108.436 38.5884C106.787 36.351 104.026 34.9351 99.3314 34.9351C94.4194 34.9351 91.5411 36.3779 89.85 38.6196C87.9087 41.2119 86.8246 44.603 86.8246 49.0317C86.8246 53.4611 87.9099 56.8965 89.8715 59.5601C91.5654 61.7861 94.4395 63.2173 99.3314 63.2173V66.6157L98.8109 66.6108C93.4824 66.5091 89.591 64.8323 87.1371 61.5796C84.8176 58.4318 83.5858 54.5589 83.4408 49.9614L83.4261 49.0317C83.4262 44.1811 84.5867 40.1317 86.9086 36.8843L87.1371 36.5728C89.6701 33.215 93.7351 31.5356 99.3314 31.5356L99.8353 31.5405C104.996 31.6422 108.775 33.32 111.172 36.5728C113.646 39.8716 114.883 44.0247 114.883 49.0317L114.869 49.9722C114.723 54.6212 113.492 58.5197 111.172 61.6675C108.698 64.9663 104.751 66.6157 99.3314 66.6157V63.2173C104.036 63.2173 106.799 61.8221 108.441 59.644C110.396 56.9876 111.485 53.5275 111.485 49.0317ZM139.568 50.062C139.372 60.6497 136.138 69.3589 129.533 75.77C122.632 82.4672 112.294 85.478 99.2426 85.478C86.1378 85.478 75.7672 82.4696 68.8646 75.77C65.8811 72.8741 63.5852 69.5094 61.9467 65.7144V64.4956C61.7897 64.5029 61.627 64.5078 61.4594 64.5151C59.6849 59.9271 58.8207 54.7453 58.8207 49.0317C58.8207 38.032 62.0501 29.0181 68.8773 22.4585L69.5385 21.8423C76.4808 15.5887 86.596 12.7623 99.2426 12.7622C112.294 12.7622 122.632 15.773 129.533 22.4702H129.532C136.351 29.0289 139.577 38.0383 139.578 49.0317L139.568 50.062Z" fill="#231F20"/>
<path d="M30.931 16.1606V16.3374C30.5776 16.7498 29.8703 17.545 28.8099 18.7231C27.8085 19.9012 26.3658 20.9913 24.4808 21.9927C22.6547 22.9352 19.3849 23.7304 14.6722 24.3784C15.7915 30.0925 16.4398 36.4253 16.6166 43.3765C23.1553 42.0216 27.4852 39.0174 29.6058 34.3638V64.8491L28.3177 64.8433C25.1413 64.8175 20.7695 64.7018 15.2025 64.4956V81.1958H61.9467V64.4956C59.4136 64.6134 55.4955 64.7313 50.1937 64.8491V16.1606H30.931ZM53.5931 61.3677C57.1505 61.2777 59.8792 61.1889 61.7885 61.1001L63.8441 61.0044C64.2633 62.3926 64.7634 63.7193 65.3451 64.9849V84.5942H11.8041V60.9683L15.3285 61.0991C19.7161 61.2616 23.3395 61.3658 26.2074 61.4155V43.2319C23.6998 44.8578 20.7005 46.0012 17.306 46.7046L13.3226 47.5298L13.2191 43.4634C13.0571 37.0919 12.4906 31.2973 11.5336 26.0698L11.3373 25.0317L10.6459 21.5015L14.2094 21.0122C18.8845 20.3694 21.6306 19.6311 22.9008 18.9829C24.5325 18.1143 25.5837 17.2718 26.2211 16.522L26.2523 16.4858L26.2845 16.4497C26.7846 15.8941 27.1995 15.4304 27.5326 15.0562V12.7622H53.5931V61.3677Z" fill="#231F20"/>
<path d="M433.5 71.8838C420.835 71.8838 411.498 68.9679 405.489 63.1359C399.481 57.304 396.476 49.2041 396.476 38.8362C396.476 28.5272 399.481 20.4863 405.489 14.7132C411.557 8.8813 420.894 5.96533 433.5 5.96533C446.107 5.96533 455.414 8.8813 461.423 14.7132C467.431 20.4863 470.436 28.5272 470.436 38.8362C470.436 49.2041 467.431 57.304 461.423 63.1359C455.414 68.9679 446.107 71.8838 433.5 71.8838ZM433.589 56.4204C439.008 56.4204 442.955 54.7709 445.429 51.4721C447.903 48.1143 449.14 43.9023 449.14 38.8362C449.14 33.829 447.903 29.676 445.429 26.3771C442.955 23.0193 439.008 21.3404 433.589 21.3404C427.992 21.3404 423.928 23.0193 421.395 26.3771C418.92 29.676 417.683 33.829 417.683 38.8362C417.683 43.8434 418.92 48.0259 421.395 51.3837C423.928 54.7415 427.992 56.4204 433.589 56.4204Z" fill="white"/>
<path d="M352.472 71.8838C339.807 71.8838 330.47 68.9679 324.461 63.1359C318.453 57.304 315.448 49.2041 315.448 38.8362C315.448 28.5272 318.453 20.4863 324.461 14.7132C330.529 8.8813 339.866 5.96533 352.472 5.96533C365.079 5.96533 374.386 8.8813 380.395 14.7132C386.404 20.4863 389.408 28.5272 389.408 38.8362C389.408 49.2041 386.404 57.304 380.395 63.1359C374.386 68.9679 365.079 71.8838 352.472 71.8838ZM352.561 56.4204C357.98 56.4204 361.927 54.7709 364.401 51.4721C366.875 48.1143 368.113 43.9023 368.113 38.8362C368.113 33.829 366.875 29.676 364.401 26.3771C361.927 23.0193 357.98 21.3404 352.561 21.3404C346.964 21.3404 342.9 23.0193 340.367 26.3771C337.893 29.676 336.655 33.829 336.655 38.8362C336.655 43.8434 337.893 48.0259 340.367 51.3837C342.9 54.7415 346.964 56.4204 352.561 56.4204Z" fill="white"/>
<path d="M271.445 71.8838C258.779 71.8838 249.442 68.9679 243.434 63.1359C237.425 57.304 234.421 49.2041 234.421 38.8362C234.421 28.5272 237.425 20.4863 243.434 14.7132C249.501 8.8813 258.838 5.96533 271.445 5.96533C284.051 5.96533 293.358 8.8813 299.367 14.7132C305.376 20.4863 308.38 28.5272 308.38 38.8362C308.38 49.2041 305.376 57.304 299.367 63.1359C293.358 68.9679 284.051 71.8838 271.445 71.8838ZM271.533 56.4204C276.953 56.4204 280.899 54.7709 283.374 51.4721C285.848 48.1143 287.085 43.9023 287.085 38.8362C287.085 33.829 285.848 29.676 283.374 26.3771C280.899 23.0193 276.953 21.3404 271.533 21.3404C265.937 21.3404 261.872 23.0193 259.339 26.3771C256.865 29.676 255.628 33.829 255.628 38.8362C255.628 43.8434 256.865 48.0259 259.339 51.3837C261.872 54.7415 265.937 56.4204 271.533 56.4204Z" fill="white"/>
<path d="M172.727 71.8838C160.062 71.8838 150.725 68.9679 144.716 63.1359C138.707 57.304 135.703 49.2041 135.703 38.8362C135.703 28.5272 138.707 20.4863 144.716 14.7132C150.784 8.8813 160.121 5.96533 172.727 5.96533C185.333 5.96533 194.641 8.8813 200.65 14.7132C206.658 20.4863 209.663 28.5272 209.663 38.8362C209.663 49.2041 206.658 57.304 200.65 63.1359C194.641 68.9679 185.333 71.8838 172.727 71.8838ZM172.815 56.4204C178.235 56.4204 182.182 54.7709 184.656 51.4721C187.13 48.1143 188.367 43.9023 188.367 38.8362C188.367 33.829 187.13 29.676 184.656 26.3771C182.182 23.0193 178.235 21.3404 172.815 21.3404C167.219 21.3404 163.154 23.0193 160.621 26.3771C158.147 29.676 156.91 33.829 156.91 38.8362C156.91 43.8434 158.147 48.0259 160.621 51.3837C163.154 54.7415 167.219 56.4204 172.815 56.4204Z" fill="white"/>
<path d="M91.6992 71.8838C79.0339 71.8838 69.6969 68.9679 63.6883 63.1359C57.6796 57.304 54.6753 49.2041 54.6753 38.8362C54.6753 28.5272 57.6796 20.4863 63.6883 14.7132C69.7558 8.8813 79.0928 5.96533 91.6992 5.96533C104.306 5.96533 113.613 8.8813 119.622 14.7132C125.63 20.4863 128.635 28.5272 128.635 38.8362C128.635 49.2041 125.63 57.304 119.622 63.1359C113.613 68.9679 104.306 71.8838 91.6992 71.8838ZM91.7876 56.4204C97.2072 56.4204 101.154 54.7709 103.628 51.4721C106.102 48.1143 107.339 43.9023 107.339 38.8362C107.339 33.829 106.102 29.676 103.628 26.3771C101.154 23.0193 97.2072 21.3404 91.7876 21.3404C86.1913 21.3404 82.1266 23.0193 79.5935 26.3771C77.1194 29.676 75.8823 33.829 75.8823 38.8362C75.8823 43.8434 77.1194 48.0259 79.5935 51.3837C82.1266 54.7415 86.1913 56.4204 91.7876 56.4204Z" fill="white"/>
<path d="M42.6504 54.6531C47.9522 54.5353 51.8696 54.4175 54.4026 54.2997V71.0002H7.65884V54.2997C14.0209 54.5353 18.822 54.6531 22.0619 54.6531V24.168C19.9412 28.8218 15.6115 31.8261 9.07264 33.181C8.89591 26.2298 8.24792 19.8972 7.12866 14.1831C11.8413 13.5351 15.1107 12.7398 16.9369 11.7973C18.822 10.7958 20.2652 9.70602 21.2667 8.52785C22.327 7.34968 23.0339 6.55442 23.3874 6.14206V5.96533H42.6504V54.6531Z" fill="white"/>
<path d="M470.436 38.8359C470.436 28.527 467.431 20.4859 461.423 14.7129C455.414 8.88097 446.106 5.96484 433.5 5.96484C420.894 5.96487 411.557 8.88104 405.489 14.7129L404.935 15.2607C399.296 20.9907 396.477 28.8492 396.477 38.8359L396.485 39.8018C396.667 49.7081 399.668 57.4861 405.489 63.1357C411.31 68.7854 420.254 71.6984 432.322 71.875L433.5 71.8838C445.712 71.8838 454.829 69.1469 460.85 63.6738L461.423 63.1357C467.431 57.3038 470.436 49.2038 470.436 38.8359ZM444.043 38.8359C444.043 34.6896 443.031 31.6761 441.351 29.4355L441.338 29.418L441.325 29.4014C440.089 27.724 437.921 26.4385 433.589 26.4385C429.019 26.4385 426.734 27.7635 425.464 29.4473C423.789 31.6866 422.781 34.6968 422.781 38.8359L422.793 39.6006C422.91 43.3485 423.893 46.171 425.485 48.3408C426.76 50.0114 429.044 51.3223 433.589 51.3223V56.4199L433.068 56.415C427.74 56.3134 423.848 54.6365 421.395 51.3838C419.075 48.236 417.843 44.3631 417.698 39.7656L417.684 38.8359C417.684 33.9852 418.844 29.936 421.166 26.6885L421.395 26.377C423.928 23.0192 427.993 21.3398 433.589 21.3398L434.093 21.3447C439.253 21.4465 443.032 23.1243 445.429 26.377C447.903 29.6758 449.141 33.8288 449.141 38.8359L449.126 39.7764C448.981 44.4256 447.748 48.3239 445.429 51.4717C442.955 54.7704 439.008 56.4199 433.589 56.4199V51.3223C437.946 51.3222 440.119 50.0475 441.344 48.4199C443.032 46.1157 444.043 43.0362 444.043 38.8359ZM475.533 38.8359C475.533 50.2326 472.197 59.7832 464.974 66.7939C457.628 73.9238 446.774 76.9814 433.5 76.9814C420.384 76.9814 409.629 74.0217 402.286 67.125L401.938 66.7939C394.715 59.7831 391.378 50.2327 391.378 38.8359C391.378 27.4907 394.72 17.99 401.957 11.0371C409.355 3.92702 420.221 0.867213 433.5 0.867188C446.774 0.867188 457.628 3.92485 464.974 11.0547H464.973C472.197 18.0061 475.533 27.5001 475.533 38.8359Z" fill="#FBAC2F"/>
<path d="M389.408 38.8359C389.408 28.527 386.403 20.4859 380.395 14.7129C374.574 9.06339 365.657 6.15018 353.645 5.97363L352.473 5.96484C339.866 5.96484 330.529 8.88116 324.462 14.7129L323.907 15.2607C318.268 20.9907 315.448 28.849 315.448 38.8359C315.448 49.2038 318.453 57.3038 324.462 63.1357C330.283 68.7853 339.227 71.6985 351.295 71.875L352.473 71.8838C364.685 71.8837 373.802 69.147 379.822 63.6738L380.395 63.1357C386.215 57.4861 389.217 49.7081 389.399 39.8018L389.408 38.8359ZM363.015 38.8359C363.015 34.9488 362.126 32.0576 360.63 29.8652L360.323 29.4355L360.311 29.418L360.297 29.4014C359.061 27.7239 356.893 26.4385 352.561 26.4385C347.991 26.4385 345.707 27.7635 344.437 29.4473C342.761 31.6866 341.753 34.6967 341.753 38.8359C341.753 42.9626 342.756 46.0181 344.451 48.332C345.724 50.0067 348.008 51.3222 352.561 51.3223V56.4199C346.965 56.4199 342.9 54.7413 340.367 51.3838C337.893 48.026 336.655 43.8432 336.655 38.8359C336.655 33.9851 337.817 29.936 340.139 26.6885L340.367 26.377C342.9 23.0193 346.964 21.3399 352.561 21.3398C357.98 21.3398 361.927 23.0192 364.401 26.377C366.875 29.6758 368.112 33.8288 368.112 38.8359C368.112 43.902 366.875 48.1139 364.401 51.4717C361.927 54.7705 357.98 56.4199 352.561 56.4199V51.3223C356.91 51.3223 359.084 50.0528 360.31 48.4297C362.002 46.1244 363.015 43.0419 363.015 38.8359ZM394.496 39.8994C394.293 50.8274 390.943 60.0023 383.945 66.7939C376.599 73.9236 365.746 76.9814 352.473 76.9814C339.356 76.9814 328.601 74.0219 321.258 67.125L320.911 66.7939C313.688 59.7831 310.351 50.2327 310.351 38.8359C310.351 27.4906 313.693 17.99 320.93 11.0371C328.327 3.92714 339.194 0.867188 352.473 0.867188C365.746 0.867228 376.599 3.92505 383.945 11.0547H383.944C391.169 18.0061 394.506 27.5 394.506 38.8359L394.496 39.8994Z" fill="#FBAC2F"/>
<path d="M308.38 38.8359C308.38 28.527 305.376 20.4859 299.367 14.7129C293.359 8.881 284.051 5.96484 271.444 5.96484C258.838 5.96488 249.501 8.88103 243.434 14.7129C237.425 20.4859 234.421 28.527 234.421 38.8359L234.43 39.8018C234.612 49.7081 237.613 57.4861 243.434 63.1357C249.254 68.7854 258.199 71.6984 270.267 71.875L271.444 71.8838C283.657 71.8838 292.773 69.1469 298.794 63.6738L299.367 63.1357C305.376 57.3038 308.38 49.2038 308.38 38.8359ZM281.987 38.8359C281.987 34.6896 280.975 31.6761 279.295 29.4355L279.282 29.418L279.27 29.4014C278.034 27.724 275.865 26.4385 271.533 26.4385C266.963 26.4385 264.678 27.7635 263.408 29.4473C261.733 31.6866 260.726 34.6969 260.726 38.8359L260.737 39.6006C260.854 43.3485 261.837 46.171 263.43 48.3408C264.704 50.0115 266.988 51.3223 271.533 51.3223V56.4199L271.013 56.415C265.684 56.3134 261.793 54.6365 259.339 51.3838C257.019 48.236 255.788 44.3631 255.643 39.7656L255.628 38.8359C255.628 33.9852 256.788 29.936 259.11 26.6885L259.339 26.377C261.872 23.0192 265.937 21.3398 271.533 21.3398L272.037 21.3447C277.198 21.4465 280.977 23.1242 283.374 26.377C285.848 29.6758 287.085 33.8289 287.085 38.8359L287.07 39.7764C286.925 44.4254 285.693 48.3239 283.374 51.4717C280.9 54.7705 276.953 56.4199 271.533 56.4199V51.3223C275.891 51.3222 278.064 50.0475 279.288 48.4199C280.976 46.1157 281.987 43.0362 281.987 38.8359ZM313.478 38.8359C313.478 50.2327 310.141 59.7831 302.918 66.7939C295.572 73.9238 284.718 76.9814 271.444 76.9814C258.328 76.9814 247.574 74.0217 240.23 67.125L239.883 66.7939C232.66 59.7832 229.323 50.2327 229.323 38.8359C229.323 27.4907 232.665 17.99 239.901 11.0371C247.299 3.927 258.166 0.867227 271.444 0.867188C284.718 0.867188 295.572 3.92485 302.918 11.0547H302.917C310.141 18.0061 313.478 27.5001 313.478 38.8359Z" fill="#FBAC2F"/>
<path d="M209.663 38.8359C209.663 28.527 206.658 20.4859 200.649 14.7129C194.641 8.88108 185.333 5.96484 172.727 5.96484C160.12 5.96492 150.783 8.88103 144.716 14.7129C138.707 20.4859 135.703 28.5271 135.703 38.8359C135.703 49.2037 138.707 57.3038 144.716 63.1357C150.537 68.7855 159.482 71.6985 171.55 71.875L172.727 71.8838C184.939 71.8838 194.056 69.1468 200.076 63.6738L200.649 63.1357C206.47 57.4861 209.471 49.7081 209.653 39.8018L209.663 38.8359ZM183.27 38.8359C183.27 34.9489 182.38 32.0576 180.885 29.8652L180.578 29.4355L180.564 29.418L180.552 29.4014C179.316 27.7239 177.148 26.4385 172.815 26.4385C168.246 26.4385 165.961 27.7626 164.69 29.4463C163.015 31.6857 162.008 34.6966 162.008 38.8359C162.008 42.9627 163.011 46.0181 164.706 48.332C165.979 50.0067 168.263 51.3223 172.815 51.3223V56.4199L172.295 56.415C166.966 56.3133 163.075 54.6365 160.621 51.3838C158.302 48.236 157.07 44.3631 156.925 39.7656L156.91 38.8359C156.91 33.9853 158.071 29.9359 160.393 26.6885L160.621 26.377C163.154 23.0192 167.219 21.3398 172.815 21.3398L173.319 21.3447C178.48 21.4464 182.259 23.1241 184.656 26.377C187.13 29.6758 188.367 33.8288 188.367 38.8359C188.367 43.9019 187.13 48.1139 184.656 51.4717C182.182 54.7705 178.235 56.4199 172.815 56.4199V51.3223C177.165 51.3223 179.338 50.0526 180.563 48.4297C182.256 46.1244 183.27 43.0421 183.27 38.8359ZM214.751 39.8994C214.548 50.8274 211.198 60.0023 204.2 66.7939C196.854 73.9238 186 76.9814 172.727 76.9814C159.61 76.9814 148.856 74.0218 141.513 67.125L141.166 66.7939C133.943 59.7831 130.605 50.2327 130.605 38.8359C130.605 27.4906 133.948 17.99 141.185 11.0371C148.582 3.92731 159.448 0.867262 172.727 0.867188C186 0.867188 196.854 3.92492 204.2 11.0547H204.199C211.423 18.0061 214.761 27.5 214.761 38.8359L214.751 39.8994Z" fill="#FBAC2F"/>
<path d="M128.635 38.8359C128.635 28.527 125.631 20.4859 119.622 14.7129C113.613 8.88096 104.306 5.96484 91.6992 5.96484C79.093 5.96485 69.756 8.88106 63.6885 14.7129L63.1338 15.2607C57.4948 20.9907 54.6758 28.8491 54.6758 38.8359L54.6846 39.8018C54.8665 49.7081 57.8677 57.4861 63.6885 63.1357C69.5093 68.7853 78.4536 71.6984 90.5215 71.875L91.6992 71.8838C103.912 71.8838 113.028 69.147 119.049 63.6738L119.622 63.1357C125.631 57.3038 128.635 49.2037 128.635 38.8359ZM102.241 38.8359C102.241 34.6896 101.23 31.6761 99.5498 29.4355L99.5371 29.418L99.5244 29.4014C98.2885 27.724 96.12 26.4386 91.7881 26.4385C87.2181 26.4385 84.9333 27.7635 83.6631 29.4473C81.9879 31.6866 80.9805 34.6968 80.9805 38.8359L80.9922 39.6006C81.109 43.3434 82.089 46.1634 83.6777 48.332C84.9507 50.0068 87.2352 51.3223 91.7881 51.3223V56.4199L91.2676 56.415C85.939 56.3134 82.0477 54.6365 79.5938 51.3838C77.2743 48.236 76.0415 44.3631 75.8965 39.7656L75.8828 38.8359C75.8828 33.9852 77.0433 29.936 79.3652 26.6885L79.5938 26.377C82.1268 23.0192 86.1918 21.3398 91.7881 21.3398L92.291 21.3447C97.4522 21.4463 101.231 23.1241 103.628 26.377C106.102 29.6758 107.34 33.8288 107.34 38.8359L107.325 39.7764C107.18 44.4256 105.947 48.3239 103.628 51.4717C101.154 54.7704 97.2074 56.4198 91.7881 56.4199V51.3223C96.1457 51.3222 98.3185 50.0475 99.543 48.4199C101.231 46.1157 102.241 43.0361 102.241 38.8359ZM133.732 38.8359C133.732 50.2327 130.395 59.7831 123.172 66.7939C115.826 73.9236 104.973 76.9814 91.6992 76.9814C78.5827 76.9814 67.8287 74.0217 60.4854 67.125L60.1377 66.7939C57.8369 64.5608 55.9323 62.0688 54.4023 59.3428V54.2998C53.7384 54.3307 52.9792 54.3607 52.125 54.3916C50.4048 49.7204 49.5771 44.5069 49.5771 38.8359C49.5772 27.4907 52.9196 17.99 60.1562 11.0371C67.554 3.92704 78.4207 0.867194 91.6992 0.867188C104.973 0.867188 115.826 3.92511 123.172 11.0547H123.171C130.395 18.0061 133.732 27.4999 133.732 38.8359Z" fill="#FBAC2F"/>
<path d="M23.3877 5.96484V6.1416C23.0343 6.55394 22.3269 7.34925 21.2666 8.52734C20.2652 9.70551 18.8216 10.7954 16.9365 11.7969C15.1104 12.7393 11.8412 13.5347 7.12891 14.1826C8.24816 19.8967 8.89553 26.2295 9.07227 33.1807C15.611 31.8258 19.9408 28.8216 22.0615 24.168V54.6533L20.7734 54.6475C17.5971 54.6217 13.2257 54.506 7.65918 54.2998V71H54.4023V54.2998C51.8693 54.4176 47.9519 54.5355 42.6504 54.6533V5.96484H23.3877ZM47.748 49.4268C50.4587 49.3524 52.5955 49.2801 54.166 49.207L55.8398 49.1289C56.6435 52.3832 57.8641 55.322 59.501 57.9473V76.0977H2.56055V49.0098L7.84766 49.2051C11.3891 49.3362 14.4255 49.4281 16.9639 49.4854V35.9219C14.8789 36.9161 12.578 37.6609 10.1074 38.1729L4.13184 39.4111L3.97656 33.3105C3.81643 27.0119 3.2569 21.3071 2.31836 16.1807L2.12598 15.1631L1.08887 9.86719L6.43457 9.13281C11.0974 8.49166 13.5862 7.78059 14.5781 7.27637C16.0752 6.47716 16.928 5.76071 17.3828 5.22559L17.4297 5.1709L17.4775 5.11719L18.29 4.20996V0.867188H47.748V49.4268Z" fill="#FBAC2F"/>
<path d="M433.5 71.8838C420.835 71.8838 411.498 68.9679 405.489 63.1359C399.481 57.304 396.476 49.2041 396.476 38.8362C396.476 28.5272 399.481 20.4863 405.489 14.7132C411.557 8.8813 420.894 5.96533 433.5 5.96533C446.107 5.96533 455.414 8.8813 461.423 14.7132C467.431 20.4863 470.436 28.5272 470.436 38.8362C470.436 49.2041 467.431 57.304 461.423 63.1359C455.414 68.9679 446.107 71.8838 433.5 71.8838ZM433.589 56.4204C439.008 56.4204 442.955 54.7709 445.429 51.4721C447.903 48.1143 449.14 43.9023 449.14 38.8362C449.14 33.829 447.903 29.676 445.429 26.3771C442.955 23.0193 439.008 21.3404 433.589 21.3404C427.992 21.3404 423.928 23.0193 421.395 26.3771C418.92 29.676 417.683 33.829 417.683 38.8362C417.683 43.8434 418.92 48.0259 421.395 51.3837C423.928 54.7415 427.992 56.4204 433.589 56.4204Z" fill="white"/>
<path d="M352.472 71.8838C339.807 71.8838 330.47 68.9679 324.461 63.1359C318.453 57.304 315.448 49.2041 315.448 38.8362C315.448 28.5272 318.453 20.4863 324.461 14.7132C330.529 8.8813 339.866 5.96533 352.472 5.96533C365.079 5.96533 374.386 8.8813 380.395 14.7132C386.404 20.4863 389.408 28.5272 389.408 38.8362C389.408 49.2041 386.404 57.304 380.395 63.1359C374.386 68.9679 365.079 71.8838 352.472 71.8838ZM352.561 56.4204C357.98 56.4204 361.927 54.7709 364.401 51.4721C366.875 48.1143 368.113 43.9023 368.113 38.8362C368.113 33.829 366.875 29.676 364.401 26.3771C361.927 23.0193 357.98 21.3404 352.561 21.3404C346.964 21.3404 342.9 23.0193 340.367 26.3771C337.893 29.676 336.655 33.829 336.655 38.8362C336.655 43.8434 337.893 48.0259 340.367 51.3837C342.9 54.7415 346.964 56.4204 352.561 56.4204Z" fill="white"/>
<path d="M271.445 71.8838C258.779 71.8838 249.442 68.9679 243.434 63.1359C237.425 57.304 234.421 49.2041 234.421 38.8362C234.421 28.5272 237.425 20.4863 243.434 14.7132C249.501 8.8813 258.838 5.96533 271.445 5.96533C284.051 5.96533 293.358 8.8813 299.367 14.7132C305.376 20.4863 308.38 28.5272 308.38 38.8362C308.38 49.2041 305.376 57.304 299.367 63.1359C293.358 68.9679 284.051 71.8838 271.445 71.8838ZM271.533 56.4204C276.953 56.4204 280.899 54.7709 283.374 51.4721C285.848 48.1143 287.085 43.9023 287.085 38.8362C287.085 33.829 285.848 29.676 283.374 26.3771C280.899 23.0193 276.953 21.3404 271.533 21.3404C265.937 21.3404 261.872 23.0193 259.339 26.3771C256.865 29.676 255.628 33.829 255.628 38.8362C255.628 43.8434 256.865 48.0259 259.339 51.3837C261.872 54.7415 265.937 56.4204 271.533 56.4204Z" fill="white"/>
<path d="M172.727 71.8838C160.062 71.8838 150.725 68.9679 144.716 63.1359C138.707 57.304 135.703 49.2041 135.703 38.8362C135.703 28.5272 138.707 20.4863 144.716 14.7132C150.784 8.8813 160.121 5.96533 172.727 5.96533C185.333 5.96533 194.641 8.8813 200.65 14.7132C206.658 20.4863 209.663 28.5272 209.663 38.8362C209.663 49.2041 206.658 57.304 200.65 63.1359C194.641 68.9679 185.333 71.8838 172.727 71.8838ZM172.815 56.4204C178.235 56.4204 182.182 54.7709 184.656 51.4721C187.13 48.1143 188.367 43.9023 188.367 38.8362C188.367 33.829 187.13 29.676 184.656 26.3771C182.182 23.0193 178.235 21.3404 172.815 21.3404C167.219 21.3404 163.154 23.0193 160.621 26.3771C158.147 29.676 156.91 33.829 156.91 38.8362C156.91 43.8434 158.147 48.0259 160.621 51.3837C163.154 54.7415 167.219 56.4204 172.815 56.4204Z" fill="white"/>
<path d="M91.6992 71.8838C79.0339 71.8838 69.6969 68.9679 63.6883 63.1359C57.6796 57.304 54.6753 49.2041 54.6753 38.8362C54.6753 28.5272 57.6796 20.4863 63.6883 14.7132C69.7558 8.8813 79.0928 5.96533 91.6992 5.96533C104.306 5.96533 113.613 8.8813 119.622 14.7132C125.63 20.4863 128.635 28.5272 128.635 38.8362C128.635 49.2041 125.63 57.304 119.622 63.1359C113.613 68.9679 104.306 71.8838 91.6992 71.8838ZM91.7876 56.4204C97.2072 56.4204 101.154 54.7709 103.628 51.4721C106.102 48.1143 107.339 43.9023 107.339 38.8362C107.339 33.829 106.102 29.676 103.628 26.3771C101.154 23.0193 97.2072 21.3404 91.7876 21.3404C86.1913 21.3404 82.1266 23.0193 79.5935 26.3771C77.1194 29.676 75.8823 33.829 75.8823 38.8362C75.8823 43.8434 77.1194 48.0259 79.5935 51.3837C82.1266 54.7415 86.1913 56.4204 91.7876 56.4204Z" fill="white"/>
<path d="M42.6504 54.6531C47.9522 54.5353 51.8696 54.4175 54.4026 54.2997V71.0002H7.65884V54.2997C14.0209 54.5353 18.822 54.6531 22.0619 54.6531V24.168C19.9412 28.8218 15.6115 31.8261 9.07264 33.181C8.89591 26.2298 8.24792 19.8972 7.12866 14.1831C11.8413 13.5351 15.1107 12.7398 16.9369 11.7973C18.822 10.7958 20.2652 9.70602 21.2667 8.52785C22.327 7.34968 23.0339 6.55442 23.3874 6.14206V5.96533H42.6504V54.6531Z" fill="white"/>
<path d="M470.436 38.8359C470.436 28.8492 467.616 20.9907 461.978 15.2607L461.423 14.7129C455.414 8.88097 446.106 5.96484 433.5 5.96484C420.894 5.96487 411.557 8.88104 405.489 14.7129L404.935 15.2607C399.296 20.9907 396.477 28.8492 396.477 38.8359L396.485 39.8018C396.667 49.7081 399.668 57.4861 405.489 63.1357C411.31 68.7854 420.254 71.6984 432.322 71.875L433.5 71.8838C445.712 71.8838 454.829 69.1469 460.85 63.6738L461.423 63.1357C467.431 57.3038 470.436 49.2038 470.436 38.8359ZM446.592 38.8359C446.592 34.2592 445.467 30.676 443.39 27.9062L443.384 27.8975L443.377 27.8887C441.522 25.3713 438.464 23.8887 433.589 23.8887C428.506 23.8887 425.331 25.3914 423.43 27.9121C421.355 30.681 420.232 34.2623 420.232 38.8359L420.245 39.6826C420.376 43.8541 421.483 47.2003 423.438 49.8584C425.34 52.373 428.513 53.8711 433.589 53.8711V56.4199L433.068 56.415C427.74 56.3134 423.848 54.6365 421.395 51.3838C419.075 48.236 417.843 44.3631 417.698 39.7656L417.684 38.8359C417.684 33.8288 418.92 29.6758 421.395 26.377C423.928 23.0192 427.993 21.3398 433.589 21.3398L434.093 21.3447C439.253 21.4465 443.032 23.1243 445.429 26.377C447.903 29.6758 449.141 33.8288 449.141 38.8359L449.126 39.7764C448.981 44.4256 447.748 48.3239 445.429 51.4717C442.955 54.7704 439.008 56.4199 433.589 56.4199V53.8711C438.481 53.871 441.541 52.4074 443.39 49.9424C445.469 47.1123 446.592 43.4679 446.592 38.8359ZM472.984 38.8359C472.984 49.7182 469.814 58.5435 463.198 64.9648C456.521 71.4457 446.44 74.4326 433.5 74.4326C420.911 74.4326 411.028 71.6311 404.351 65.5625L403.714 64.9648C397.098 58.5435 393.928 49.7183 393.928 38.8359C393.928 28.009 397.1 19.2379 403.723 12.875C410.455 6.40386 420.557 3.41604 433.5 3.41602C446.44 3.41602 456.521 6.40291 463.198 12.8838H463.197C469.814 19.2461 472.984 28.0136 472.984 38.8359Z" fill="#1C6B89"/>
<path d="M389.408 38.8359C389.408 28.527 386.403 20.4859 380.395 14.7129C374.574 9.06339 365.657 6.15018 353.645 5.97363L352.473 5.96484C339.866 5.96484 330.529 8.88116 324.462 14.7129L323.907 15.2607C318.268 20.9907 315.448 28.849 315.448 38.8359C315.448 49.2038 318.453 57.3038 324.462 63.1357C330.283 68.7853 339.227 71.6985 351.295 71.875L352.473 71.8838C364.685 71.8837 373.802 69.147 379.822 63.6738L380.395 63.1357C386.215 57.4861 389.217 49.7081 389.399 39.8018L389.408 38.8359ZM365.563 38.8359C365.563 34.5453 364.575 31.1281 362.74 28.4355L362.362 27.9062L362.355 27.8975L362.35 27.8887C360.495 25.3711 357.436 23.8887 352.561 23.8887C347.482 23.8887 344.307 25.3882 342.405 27.9053L342.406 27.9062C340.329 30.676 339.204 34.2592 339.204 38.8359C339.204 43.4109 340.328 47.0337 342.419 49.8711C344.322 52.3781 347.493 53.8711 352.561 53.8711V56.4199C346.965 56.4199 342.9 54.7413 340.367 51.3838C337.893 48.026 336.655 43.8432 336.655 38.8359C336.655 33.8288 337.893 29.6758 340.367 26.377C342.9 23.0193 346.964 21.3399 352.561 21.3398C357.98 21.3398 361.927 23.0192 364.401 26.377C366.875 29.6758 368.112 33.8288 368.112 38.8359C368.112 43.902 366.875 48.1139 364.401 51.4717C361.927 54.7705 357.98 56.4199 352.561 56.4199V53.8711C357.453 53.8711 360.513 52.4075 362.362 49.9424C364.441 47.1124 365.563 43.4678 365.563 38.8359ZM391.947 39.8506C391.755 50.2678 388.579 58.7442 382.17 64.9648C375.493 71.4456 365.412 74.4326 352.473 74.4326C339.884 74.4326 330 71.6313 323.322 65.5625L322.687 64.9648C316.071 58.5435 312.899 49.7183 312.899 38.8359C312.899 28.0089 316.073 19.238 322.695 12.875L323.336 12.2793C330.062 6.22054 339.934 3.41602 352.473 3.41602C365.406 3.41606 375.483 6.40066 382.16 12.875C388.783 19.238 391.957 28.0088 391.957 38.8359L391.947 39.8506Z" fill="#1C6B89"/>
<path d="M308.38 38.8359C308.38 28.8492 305.561 20.9907 299.922 15.2607L299.367 14.7129C293.359 8.881 284.051 5.96484 271.444 5.96484C258.838 5.96488 249.501 8.88103 243.434 14.7129C237.425 20.4859 234.421 28.527 234.421 38.8359L234.43 39.8018C234.612 49.7081 237.613 57.4861 243.434 63.1357C249.254 68.7854 258.199 71.6984 270.267 71.875L271.444 71.8838C283.657 71.8838 292.773 69.1469 298.794 63.6738L299.367 63.1357C305.376 57.3038 308.38 49.2038 308.38 38.8359ZM284.536 38.8359C284.536 34.2592 283.411 30.676 281.334 27.9062L281.328 27.8975L281.321 27.8887C279.466 25.3713 276.409 23.8887 271.533 23.8887C266.45 23.8887 263.276 25.3914 261.374 27.9121C259.299 30.681 258.177 34.2623 258.177 38.8359L258.189 39.6826C258.32 43.8544 259.427 47.2012 261.382 49.8594C263.284 52.3736 266.457 53.8711 271.533 53.8711V56.4199L271.013 56.415C265.684 56.3134 261.793 54.6365 259.339 51.3838C257.019 48.236 255.788 44.3631 255.643 39.7656L255.628 38.8359C255.628 33.8288 256.865 29.6758 259.339 26.377C261.872 23.0192 265.937 21.3398 271.533 21.3398L272.037 21.3447C277.198 21.4465 280.977 23.1242 283.374 26.377C285.848 29.6758 287.085 33.8289 287.085 38.8359L287.07 39.7764C286.925 44.4254 285.693 48.3239 283.374 51.4717C280.9 54.7705 276.953 56.4199 271.533 56.4199V53.8711C276.425 53.871 279.485 52.4073 281.334 49.9424C283.413 47.1123 284.536 43.4679 284.536 38.8359ZM310.929 38.8359C310.929 49.7182 307.758 58.5435 301.143 64.9648C294.465 71.4457 284.384 74.4326 271.444 74.4326C258.856 74.4326 248.973 71.6311 242.295 65.5625L241.658 64.9648C235.042 58.5435 231.872 49.7182 231.872 38.8359C231.872 28.009 235.045 19.2379 241.667 12.875C248.4 6.40384 258.502 3.41605 271.444 3.41602C284.384 3.41602 294.465 6.40292 301.143 12.8838H301.142C307.758 19.2461 310.929 28.0136 310.929 38.8359Z" fill="#1C6B89"/>
<path d="M209.663 38.8359C209.663 28.527 206.658 20.4859 200.649 14.7129C194.641 8.88108 185.333 5.96484 172.727 5.96484C160.12 5.96492 150.783 8.88103 144.716 14.7129C138.707 20.4859 135.703 28.5271 135.703 38.8359C135.703 49.2037 138.707 57.3038 144.716 63.1357C150.537 68.7855 159.482 71.6985 171.55 71.875L172.727 71.8838C184.939 71.8838 194.056 69.1468 200.076 63.6738L200.649 63.1357C206.47 57.4861 209.471 49.7081 209.653 39.8018L209.663 38.8359ZM185.818 38.8359C185.818 34.5454 184.83 31.1281 182.995 28.4355L182.617 27.9062L182.604 27.8887C180.748 25.3713 177.691 23.8887 172.815 23.8887C167.732 23.8887 164.558 25.3913 162.656 27.9121C160.582 30.681 159.459 34.2624 159.459 38.8359C159.459 43.411 160.583 47.0337 162.674 49.8711C164.577 52.3781 167.748 53.8711 172.815 53.8711V56.4199L172.295 56.415C166.966 56.3133 163.075 54.6365 160.621 51.3838C158.302 48.236 157.07 44.3631 156.925 39.7656L156.91 38.8359C156.91 33.8288 158.147 29.6758 160.621 26.377C163.154 23.0192 167.219 21.3398 172.815 21.3398L173.319 21.3447C178.48 21.4464 182.259 23.1241 184.656 26.377C187.13 29.6758 188.367 33.8288 188.367 38.8359C188.367 43.9019 187.13 48.1139 184.656 51.4717C182.182 54.7705 178.235 56.4199 172.815 56.4199V53.8711C177.696 53.8711 180.753 52.4144 182.604 49.96C184.691 47.1275 185.818 43.4773 185.818 38.8359ZM212.202 39.8506C212.01 50.2678 208.834 58.7442 202.425 64.9648C195.748 71.4457 185.667 74.4326 172.727 74.4326C160.138 74.4325 150.255 71.6312 143.577 65.5625L142.94 64.9648C136.325 58.5435 133.154 49.7182 133.154 38.8359C133.154 28.0088 136.328 19.238 142.95 12.875C149.683 6.40414 159.784 3.41609 172.727 3.41602C185.66 3.41602 195.738 6.40054 202.415 12.875C209.038 19.238 212.212 28.0088 212.212 38.8359L212.202 39.8506Z" fill="#1C6B89"/>
<path d="M128.635 38.8359C128.635 28.8492 125.816 20.9906 120.177 15.2607L119.622 14.7129C113.613 8.88096 104.306 5.96484 91.6992 5.96484C79.093 5.96485 69.756 8.88106 63.6885 14.7129L63.1338 15.2607C57.4948 20.9907 54.6758 28.8491 54.6758 38.8359L54.6846 39.8018C54.8665 49.7081 57.8677 57.4861 63.6885 63.1357C69.5093 68.7853 78.4536 71.6984 90.5215 71.875L91.6992 71.8838C103.912 71.8838 113.028 69.147 119.049 63.6738L119.622 63.1357C125.631 57.3038 128.635 49.2037 128.635 38.8359ZM104.79 38.8359C104.79 34.2592 103.666 30.676 101.589 27.9062L101.583 27.8975L101.576 27.8887C99.7211 25.3712 96.6636 23.8888 91.7881 23.8887C86.7051 23.8887 83.5305 25.3914 81.6289 27.9121C79.5543 30.6811 78.4317 34.2623 78.4316 38.8359L78.4443 39.6826C78.5752 43.8542 79.6825 47.2003 81.6367 49.8584C83.5392 52.3729 86.7119 53.8711 91.7881 53.8711V56.4199L91.2676 56.415C85.939 56.3134 82.0477 54.6365 79.5938 51.3838C77.2743 48.236 76.0415 44.3631 75.8965 39.7656L75.8828 38.8359C75.8828 33.8288 77.1196 29.6758 79.5938 26.377C82.1268 23.0192 86.1918 21.3398 91.7881 21.3398L92.291 21.3447C97.4522 21.4463 101.231 23.1241 103.628 26.377C106.102 29.6758 107.34 33.8288 107.34 38.8359L107.325 39.7764C107.18 44.4256 105.947 48.3239 103.628 51.4717C101.154 54.7704 97.2074 56.4198 91.7881 56.4199V53.8711C96.68 53.871 99.7401 52.4074 101.589 49.9424C103.668 47.1124 104.79 43.4678 104.79 38.8359ZM131.184 38.8359C131.184 49.7182 128.013 58.5435 121.397 64.9648C114.72 71.4457 104.639 74.4326 91.6992 74.4326C79.1102 74.4326 69.2266 71.6314 62.5488 65.5625L61.9131 64.9648C55.2971 58.5435 52.126 49.7183 52.126 38.8359C52.126 28.0089 55.2994 19.2379 61.9219 12.875C68.6545 6.40388 78.7567 3.41602 91.6992 3.41602C104.639 3.41602 114.72 6.40291 121.397 12.8838H121.396C128.013 19.2461 131.184 28.0137 131.184 38.8359Z" fill="#1C6B89"/>
<path d="M23.3877 5.96484V6.1416C23.0343 6.55394 22.3269 7.34925 21.2666 8.52734C20.2652 9.70551 18.8216 10.7954 16.9365 11.7969C15.1104 12.7393 11.8412 13.5347 7.12891 14.1826C8.24816 19.8967 8.89553 26.2295 9.07227 33.1807C15.611 31.8258 19.9408 28.8216 22.0615 24.168V54.6533L20.7734 54.6475C17.5971 54.6217 13.2257 54.506 7.65918 54.2998V71H54.4023V54.2998C51.8693 54.4176 47.9519 54.5355 42.6504 54.6533V5.96484H23.3877ZM45.1992 52.042C49.1877 51.9446 52.2131 51.8493 54.2842 51.7529L56.5654 51.6465C56.6883 52.0168 56.8163 52.3828 56.9512 52.7441V73.5488H5.11035V51.6543L7.75293 51.752C12.5933 51.9312 16.5104 52.0407 19.5127 52.083V31.3887C16.8771 33.4488 13.5292 34.8605 9.58984 35.6768L6.60254 36.2959L6.52441 33.2451C6.36149 26.8375 5.79249 20.9986 4.82617 15.7207L4.62695 14.6729L4.1084 12.0254L6.78125 11.6572C11.47 11.0125 14.3468 10.2597 15.7539 9.53809C17.4479 8.63662 18.5963 7.73327 19.3242 6.87695L19.3477 6.84961L19.3721 6.82227C19.9852 6.14102 20.4724 5.59515 20.8389 5.18164V3.41602H45.1992V52.042Z" fill="#1C6B89"/>
</svg>
