<svg width="336" height="386" viewBox="0 0 336 386" fill="none" xmlns="http://www.w3.org/2000/svg">
<g opacity="0.05">
<path d="M336 112.355C326.646 120.115 316.76 127.242 306.283 133.578C268.647 156.34 224.962 166.756 181.075 166.926C135.428 167.103 90.2156 156.569 48.1533 138.852C31.6305 131.892 15.5983 123.909 0 115.133V112.601C34.7749 132.273 71.7866 148.052 110.76 156.826C153.407 166.427 198.339 167.911 240.908 157.811C276.426 149.384 308.357 132.334 336 109.344V112.355Z" fill="white"/>
<path d="M336 81.793C324.376 92.4485 311.838 102.079 298.247 110.299C262.773 131.753 221.597 141.568 180.232 141.729C137.214 141.895 94.6022 131.967 54.9619 115.271C35.9868 107.278 17.6987 97.853 0 87.3887V84.8262C35.5386 105.954 73.6516 123.004 113.996 132.087C154.172 141.132 196.501 142.527 236.604 133.013C274.353 124.056 307.802 104.761 336 78.7539V81.793Z" fill="white"/>
<path d="M336 50.2422C322.271 64.2642 307.107 76.8023 290.212 87.0205C256.9 107.167 218.231 116.382 179.388 116.532C138.998 116.689 98.9881 107.367 61.7705 91.6904C40.2968 82.6454 19.7598 71.6477 0 59.3408V56.7432C36.2414 79.445 75.463 97.9451 117.233 107.349C154.938 115.837 194.663 117.144 232.299 108.215C272.498 98.6771 307.497 76.645 336 47.0967V50.2422Z" fill="white"/>
<path d="M336 17.4219C320.372 35.3675 302.631 51.3702 282.178 63.7402C251.028 82.5793 214.867 91.1942 178.545 91.335C140.784 91.4811 103.376 82.7656 68.5801 68.1094C44.5512 57.9881 21.7758 45.2537 0 30.9336V28.2939C2.00772 29.6189 4.02179 30.9339 6.04492 32.2334C41.2617 54.8534 79.5576 73.3988 120.471 82.6094C155.705 90.5414 192.827 91.7609 227.996 83.417C265.888 74.4265 298.835 53.5553 325.596 25.5801C329.174 21.8398 332.637 18.0019 336 14.0801V17.4219Z" fill="white"/>
<path d="M321.9 0C307.929 15.6281 292.167 29.5596 274.143 40.4609C245.155 57.9925 211.503 66.0066 177.702 66.1377C142.57 66.2737 107.762 58.1652 75.3887 44.5293C48.7346 33.3023 23.7388 18.6199 0 2.10156V0H0.789062C6.2263 3.77007 11.7232 7.44729 17.2832 11.0186C50.0377 32.057 85.6553 49.3044 123.708 57.8711C156.471 65.2467 190.99 66.3781 223.692 58.6191C258.928 50.2591 289.563 30.8486 314.447 4.83496C315.971 3.24198 317.472 1.62962 318.953 0H321.9Z" fill="white"/>
<path d="M289.73 0C282.348 6.33078 274.493 12.1106 266.108 17.1816C239.283 33.4056 208.139 40.8191 176.859 40.9404C144.356 41.0663 112.151 33.564 82.1992 20.9482C67.932 14.9387 54.1783 7.85891 40.8662 0H45.2373C70.8184 14.772 98.126 26.6447 126.945 33.1328C157.237 39.9522 189.155 40.9955 219.39 33.8223C244.304 27.911 266.728 16.0231 286.19 0H289.73Z" fill="white"/>
<path d="M246.86 0C224.92 10.6879 200.512 15.647 176.014 15.7422C148.474 15.8488 121.165 9.99837 95.499 0H101.753C111.037 3.38222 120.517 6.21697 130.181 8.39258C158.001 14.6557 187.315 15.6115 215.083 9.02344C224.22 6.85556 232.991 3.81084 241.371 0H246.86Z" fill="white"/>
</g>
</svg>
