<svg width="1134" height="773" viewBox="0 0 1134 773" fill="none" xmlns="http://www.w3.org/2000/svg">
<g clip-path="url(#clip0_333_2005)">
<rect width="1134" height="773" fill="#EA001E"/>
<g opacity="0.1">
<path d="M1134 436.818C1123.63 437.187 1113.68 437.91 1103.88 438.993H1103.88C1010.78 449.546 920.527 496.793 833.365 542.456C794.549 562.718 754.462 583.732 714.318 601.467C683.014 615.284 642.058 631.111 602.187 631.111C588.22 631.111 574.783 629.185 562.346 625.395C516.766 611.621 481.385 574.259 447.064 537.931C416.829 505.92 385.45 472.69 347.286 456.305C329.044 448.488 308.808 444.495 287.17 444.495C276.588 444.495 265.536 445.434 254.485 447.371C191.006 458.291 135.77 498.912 102.812 558.703C82.2455 596.028 75.0233 637.214 69.1621 670.229C65.6414 690.038 62.6002 707.082 57.5791 720.144C52.4814 733.41 39.8538 752.479 22.126 768.229C20.291 769.859 18.4013 771.452 16.4609 773H12.7451C15.4573 770.932 18.0731 768.77 20.584 766.539C37.8937 751.16 50.3011 732.505 55.3467 719.392C58.7645 710.564 61.2628 699.733 63.5996 687.553C64.7684 681.461 65.8981 675.023 67.082 668.323C68.2663 661.622 69.5047 654.656 70.8926 647.502C76.4446 618.884 84.3778 587.282 100.697 557.663C134.632 496.073 191.728 455.883 254.012 445.136H254.014C265.008 443.208 276.061 442.216 287.111 442.216C307.984 442.216 328.729 445.836 348.123 454.179C388.96 471.725 421.292 507.454 454.128 542.109C486.924 576.722 520.223 610.262 562.934 623.131C575.768 627.07 588.893 628.773 602.069 628.773C639.41 628.773 677.542 615.092 713.257 599.336C778.778 570.379 842.721 533.487 907.023 501.979C971.362 470.454 1036.13 444.281 1103.47 436.649L1103.46 436.648C1113.68 435.544 1123.85 434.839 1134 434.479V436.818Z" fill="white"/>
<path d="M1128.47 477.7H1128.68C1130.45 477.7 1132.23 477.713 1134 477.731V480.012C1132.21 479.992 1130.42 479.979 1128.62 479.979H1128.5C1112.83 479.98 1098.27 480.741 1084.13 482.266L1084.12 482.267C995.427 492.116 909.157 536.199 825.864 578.759C788.75 597.732 750.362 617.341 711.978 633.904C682.139 646.785 643.056 661.561 604.941 661.561C591.619 661.56 578.887 659.751 566.975 656.252C523.385 643.355 489.353 608.448 456.322 574.58C427.201 544.734 396.993 513.792 360.474 498.463C343.053 491.174 323.815 487.475 303.176 487.475C293.061 487.475 282.539 488.414 272.02 490.175C211.891 500.31 159.179 537.664 127.252 592.701L126.502 594.005C106.755 628.518 99.3562 666.894 93.3779 697.685L93.377 697.686C89.9096 715.909 86.8381 731.649 82.0332 743.903L81.5625 745.079C78.5506 752.4 72.5737 762.586 64.1328 773H61.1318C69.7814 762.686 76.1031 752.267 79.4395 744.111C82.8436 735.81 85.3908 725.639 87.79 714.213C88.9901 708.498 90.1545 702.461 91.3711 696.182C92.5879 689.901 93.8567 683.376 95.2666 676.678C100.906 649.882 108.794 620.343 124.556 592.744C157.433 535.194 212.183 497.811 271.717 487.765C282.127 486.012 292.711 485.078 303.234 485.078C323.111 485.078 342.92 488.523 361.437 496.282C400.487 512.659 431.632 545.961 463.251 578.287C494.831 610.574 526.884 641.885 567.687 653.99C579.933 657.636 592.412 659.223 605.001 659.223C640.638 659.223 677.009 646.479 711.142 631.777C773.79 604.753 834.962 570.335 896.422 540.942C957.917 511.533 1019.77 487.115 1083.94 479.98L1083.94 479.979C1098.8 478.35 1113.66 477.648 1128.41 477.642L1128.47 477.7Z" fill="white"/>
<path d="M1106.99 521.148H1107.1C1116.09 521.148 1125.06 521.405 1134 521.854V524.154C1125.6 523.727 1117.17 523.466 1108.78 523.434L1109.09 523.252H1107.28C1092.31 523.252 1078.52 523.897 1065.01 525.363C980.715 534.51 898.434 575.429 818.951 614.944C784.643 632.02 749.196 649.637 713.662 664.716L710.223 666.167C681.734 678.169 644.467 691.834 608.284 691.834C596.003 691.834 584.217 690.246 573.195 687.178L572.131 686.876C530.532 674.855 497.789 642.461 465.99 610.996C438.041 583.316 409.067 554.603 374.249 540.388C357.649 533.568 339.292 530.161 319.71 530.161C310.125 530.161 300.13 530.984 290.138 532.628C232.296 542.139 181.515 577.245 150.72 629.014C131.735 660.89 124.158 696.453 118.121 724.961C114.306 742.722 111.092 757.948 105.957 769.72C105.505 770.755 104.989 771.851 104.41 773H101.698C102.404 771.617 103.037 770.283 103.591 769.007L103.906 768.271C107.143 760.622 109.65 751.368 112.03 741.032C113.259 735.695 114.456 730.062 115.703 724.207C116.95 718.35 118.247 712.269 119.677 706.03C125.397 681.072 133.239 653.611 148.472 628.002C180.291 574.492 232.696 539.856 289.479 530.511L291.335 530.213C300.62 528.769 310.044 528 319.416 528C338.356 528 357.111 531.152 374.808 538.385C412.072 553.622 442.015 584.542 472.41 614.555C502.768 644.53 533.576 673.597 572.499 684.851C584.158 688.203 596.048 689.672 607.991 689.672C641.926 689.672 676.478 677.867 709.027 664.22C768.832 639.098 827.261 607.126 885.893 579.833C944.559 552.524 1003.5 529.861 1064.47 523.253C1078.66 521.737 1092.79 521.093 1106.87 521.09L1106.99 521.148Z" fill="white"/>
<path d="M1085.06 564.655C1101.48 564.655 1117.79 565.523 1134 566.851V569.093C1117.94 567.772 1101.54 566.876 1085.29 566.876H1085.18C1070.97 566.876 1057.88 567.52 1045.08 568.869C965.242 577.253 886.89 615.009 811.276 651.48C778.559 667.251 744.811 683.509 710.98 697.439L707.706 698.78C678.924 710.489 644.998 722.458 610.863 722.458C598.828 722.458 587.264 720.941 576.524 717.91C536.856 706.766 505.402 676.825 474.895 647.762C448.117 622.188 420.315 595.704 387.2 582.604C371.424 576.372 354.006 573.2 335.422 573.2C326.876 573.2 318.074 573.871 309.161 575.213L307.377 575.49C252.414 584.238 203.86 616.645 174.118 664.372C155.952 693.554 148.609 724.96 142.104 752.59C140.391 759.866 138.781 766.694 137.085 773H134.773C135.228 771.317 135.676 769.597 136.119 767.845C137.373 762.889 138.599 757.661 139.873 752.229C141.147 746.797 142.47 741.159 143.918 735.377C149.711 712.248 157.508 686.851 172.212 663.262C203.032 613.849 253.034 581.959 307.066 573.315C316.481 571.797 326.011 570.98 335.48 570.979C353.484 570.979 371.303 573.899 388.122 580.548L389.78 581.216C424.499 595.478 452.798 623.541 481.513 650.807C510.647 678.47 540.207 705.308 577.251 715.711C588.381 718.828 599.625 720.18 610.98 720.18C643.153 720.18 676.004 709.255 706.911 696.661C763.872 673.443 819.53 643.933 875.312 618.746C931.128 593.544 987.134 572.637 1044.95 566.526L1044.95 566.525C1058.38 565.131 1071.71 564.546 1085.03 564.538L1085.06 564.655Z" fill="white"/>
<path d="M1063.19 608.104C1087.01 608.104 1110.64 610.014 1134 612.391V614.66C1110.87 612.307 1087.31 610.403 1063.73 610.384L1063.67 610.207H1063.31C1049.98 610.207 1037.71 610.794 1025.67 612.025C954.897 619.281 888.054 648.746 818.104 681.198L804.071 687.723C771.998 702.597 738.828 718.049 705.66 731.101C678.344 741.814 646.174 752.79 613.912 752.79C602.52 752.79 591.599 751.389 581.384 748.649C546.061 739.077 517.342 714.321 489.769 689.297L479.443 679.908C455.263 657.96 430.069 635.936 400.62 624.645C385.724 618.882 369.187 616.004 351.662 616.004C343.612 616.004 335.305 616.624 326.887 617.862L325.202 618.118C273.467 626.099 227.459 655.407 198.778 698.533L198.104 699.555C182.308 723.592 174.703 749.511 168.481 773H166.101C166.824 770.259 167.57 767.473 168.349 764.651C174.229 743.352 181.981 720.034 196.126 698.464C225.888 653.089 273.544 623.945 324.827 616.002C333.717 614.659 342.72 613.9 351.662 613.9C368.672 613.9 385.554 616.527 401.494 622.65L401.495 622.651C435.217 635.551 462.758 661.692 490.696 687.075C518.6 712.427 546.9 737.019 582.063 746.57C592.547 749.394 603.262 750.628 613.971 750.628C644.499 750.628 675.529 740.643 704.854 729.104C758.942 707.818 811.828 680.767 864.768 657.688C917.74 634.593 970.831 615.442 1025.48 609.857C1038.12 608.578 1050.65 608.05 1063.18 608.045L1063.19 608.104Z" fill="white"/>
<path d="M367.903 656.764C383.917 656.764 399.863 659.215 414.927 664.755C446.835 676.486 473.159 700.26 499.866 723.344C522.791 743.159 545.996 762.461 573.195 773H567.298C540.041 761.14 516.6 740.861 493.755 721.058C469.263 699.815 443.866 677.79 414.157 666.861C400.027 661.687 384.49 659.043 367.962 659.043C359.845 659.043 351.493 659.689 343.029 660.922C293.708 668.261 249.611 695.21 222.032 734.911C213.459 747.269 207.279 760.207 202.383 773H199.904C204.903 759.815 211.253 746.387 220.099 733.667C248.86 692.272 294.113 665.932 342.648 658.69L342.647 658.689C351.011 657.463 359.488 656.764 367.903 656.764Z" fill="white"/>
<path d="M384.085 699.626C399.105 699.626 414.116 701.786 428.301 706.8L428.302 706.801C458.425 717.393 483.534 738.787 509.009 759.556C514.593 764.109 520.196 768.631 525.871 773H522.007C515.624 768.028 509.351 762.908 503.125 757.821C479.805 738.744 455.581 718.949 427.576 709.136C414.267 704.431 399.671 702.081 384.144 702.081C376.555 702.081 368.674 702.669 360.738 703.784C314.297 710.419 272.431 734.668 245.904 770.324C245.243 771.212 244.597 772.104 243.964 773H240.922C241.899 771.576 242.906 770.159 243.95 768.754L243.951 768.755C271.713 731.455 314.564 707.861 360.352 701.319L360.351 701.318C368.244 700.209 376.195 699.626 384.085 699.626Z" fill="white"/>
<path d="M400.208 742.665C414.293 742.665 428.31 744.591 441.619 749.021C458.009 754.456 472.915 763.105 487.265 773H483.239C469.881 764.006 455.912 756.122 440.879 751.117H440.877C428.393 747 414.738 744.885 400.208 744.885C393.148 744.885 385.797 745.414 378.39 746.412C352 749.959 327.087 759.232 305.893 773H301.725C324.193 757.718 350.596 747.871 378.054 744.183C385.42 743.19 392.786 742.665 400.208 742.665Z" fill="white"/>
<path d="M1040.62 651.669H1041.56C1072.36 651.669 1102.71 654.886 1132.5 658.049C1133 658.102 1133.5 658.156 1134 658.209V660.391C1133.46 660.333 1132.92 660.275 1132.37 660.217L1131.38 660.1H1131.37C1102.34 657.072 1072.35 653.867 1042.17 653.832V653.772H1041.67C1029.95 653.772 1019 654.237 1008.34 655.213L1006.21 655.415C935.117 662.451 867.909 692.47 796.808 724.2C767.384 737.362 736.986 750.956 706.506 762.594L703.556 763.714C695.094 766.902 686.134 770.117 676.841 773H668.76C680.255 769.736 691.629 765.753 702.737 761.546L702.736 761.545C753.981 742.162 804.11 717.574 854.208 696.601C904.337 675.614 954.498 658.218 1005.96 653.131L1008.2 652.919C1019.08 651.933 1029.95 651.518 1040.74 651.495L1040.62 651.669Z" fill="white"/>
<path d="M1020.3 694.941C1049.17 694.955 1077.57 697.873 1105.47 700.678C1115.06 701.65 1124.59 702.659 1134 703.92V706.297C1124.72 705.046 1115.15 704.022 1105.22 703.021L1104.17 702.903H1104.16C1076.79 700.152 1048.5 697.279 1020.04 697.279C1008.3 697.279 997.377 697.748 986.748 698.745C920.113 705.078 856.662 732.108 789.605 760.618C779.954 764.73 770.197 768.886 760.369 773H754.249C784.244 760.546 813.973 747.414 843.661 735.565C890.947 716.694 938.194 701.052 986.491 696.462L986.49 696.461C997.728 695.409 1008.91 695 1020.04 695H1020.25L1020.3 694.941Z" fill="white"/>
<path d="M998.846 738.392C1025.79 738.424 1052.28 741.038 1078.21 743.541L1082.99 744.006C1100.43 745.729 1117.56 747.716 1134 751.337V753.753C1116.14 749.799 1097.25 747.739 1077.95 745.883L1076.84 745.767L1076.84 745.766C1051.45 743.318 1025.17 740.81 998.705 740.787L998.646 740.61H998.287C987.311 740.61 977.094 741.021 967.169 741.9C925.27 745.687 884.571 757.776 843.239 773H837.012C880.153 756.886 923.201 743.68 967.02 739.734L967.021 739.735C977.5 738.858 987.981 738.448 998.346 738.448H998.846V738.392Z" fill="white"/>
<path d="M1134 394.603C1130.42 394.911 1126.88 395.263 1123.35 395.662C1025.85 406.918 931.662 457.33 840.631 506.037C800.174 527.704 758.328 550.064 716.426 568.97C683.714 583.724 640.941 600.604 599.196 600.604C584.585 600.604 570.565 598.561 557.543 594.479L557.541 594.478L556.428 594.13C512.359 580.145 477.647 544.535 444.429 508.538L431.843 494.871C402.242 462.799 371.296 430.611 333.923 414.205C314.858 405.86 293.682 401.632 271.047 401.632C260.576 401.632 249.796 402.509 238.949 404.312L236.778 404.685C170.999 416.275 113.857 459.01 79.7471 522.024L78.9463 523.517C57.6191 563.477 50.4571 607.534 44.7715 642.834C41.4271 663.696 38.5014 681.619 33.4795 695.324C28.6565 708.564 16.8331 727.269 0 743.308V739.803C15.5575 724.51 26.6001 707.054 31.1943 694.496C34.611 685.142 37.0578 673.65 39.334 660.711C40.4725 654.239 41.5692 647.397 42.7236 640.273C43.8783 633.149 45.0913 625.741 46.4609 618.13C51.9399 587.683 59.932 554.015 76.7803 522.406C111.713 456.777 171.211 413.839 236.246 402.39L236.247 402.391C247.773 400.404 259.353 399.294 270.93 399.294C292.797 399.294 314.479 403.207 334.752 412.076C377.405 430.792 410.969 468.918 445.044 505.895C479.078 542.827 513.623 578.611 558.183 592.33C571.604 596.504 585.315 598.325 599.138 598.325C638.18 598.325 678.072 583.763 715.43 566.895C783.794 536.064 850.493 496.725 917.639 463.11C984.821 429.478 1052.52 401.535 1123.05 393.377L1123.05 393.376C1126.7 392.958 1130.35 392.597 1134 392.286V394.603Z" fill="white"/>
<path d="M1134 353.503C1035.28 367.465 940.108 419.456 848.073 469.676C807.234 491.97 765.09 514.971 722.802 534.639L718.709 536.531C684.649 552.164 640.001 570.097 596.382 570.097C581.127 570.097 566.521 567.936 552.913 563.62H552.911C503.408 548.093 465.507 505.761 428.723 464.687C396.398 428.628 362.887 391.191 321.65 372.484L320.675 372.046C300.789 363.115 278.733 358.594 255.1 358.594C243.402 358.594 231.353 359.708 219.189 361.938C150.072 374.207 90.3225 420.283 55.1982 488.272C33.1102 531.044 26.1251 577.91 20.5566 615.493C17.3735 636.612 14.6388 654.917 9.95703 669.088L9.49707 670.446C7.57374 676.016 4.35265 682.635 0 689.685V684.947C3.17738 679.394 5.61333 674.154 7.21777 669.544C10.6482 659.677 13.0502 647.534 15.2686 633.844C17.4927 620.117 19.5217 604.909 22.2256 588.743C27.6241 556.466 35.6613 520.721 53.0381 487.092C89.0293 417.421 150.876 371.619 218.662 359.586C230.713 357.424 242.878 356.256 254.982 356.256C277.786 356.256 300.405 360.46 321.498 369.914H321.5C365.969 389.711 400.733 430.207 436.024 469.505C471.275 508.757 507.052 546.813 553.491 561.411C567.499 565.878 581.797 567.817 596.206 567.817C636.951 567.817 678.603 552.376 717.544 534.453C788.781 501.719 858.251 459.921 928.239 424.199C995.545 389.847 1063.39 361.076 1134 351.207V353.503Z" fill="white"/>
<path d="M1134 313.603C1037.84 331.979 945.101 383.485 855.223 433.432C812.735 456.974 768.89 481.332 724.951 502.148L720.699 504.151C685.232 520.721 638.768 539.706 593.274 539.706C577.376 539.706 562.125 537.371 547.989 532.82C496.553 516.358 457.302 471.628 419.286 428.152C385.535 389.645 350.578 349.615 307.191 330.004C286.485 320.604 263.49 315.789 238.801 315.789C227.393 315.789 215.626 316.822 203.741 318.885L201.363 319.311C129.991 332.182 68.3633 380.296 32.0684 451.401L31.2158 453.085C13.3471 488.549 5.27431 526.612 0 560.562V546.332C5.35494 515.831 13.4979 483.087 29.1191 452.012C66.1675 378.242 130.359 329.692 200.897 316.957H200.9C213.477 314.62 226.169 313.394 238.801 313.394C262.601 313.394 286.157 317.831 308.128 327.869L308.129 327.87C354.385 348.808 390.351 391.687 426.867 433.299C463.341 474.862 500.364 515.161 548.681 530.61C563.276 535.312 578.22 537.368 593.216 537.368C635.663 537.368 679.075 520.99 719.657 502.013C793.768 467.346 866.008 423.087 938.84 385.258C1002.78 352.045 1067.24 323.757 1134 311.12V313.603Z" fill="white"/>
<path d="M222.678 270.413C247.416 270.413 271.967 275.027 294.815 285.649L294.817 285.65C342.86 307.787 380.03 353.065 417.77 396.99C455.466 440.865 493.735 483.393 543.929 499.692C559.111 504.688 574.642 506.861 590.284 506.861C634.433 506.861 679.664 489.603 721.829 469.571C798.754 433.031 873.736 386.312 949.403 346.368C1009.97 314.397 1071.02 286.741 1134 272.001V274.47C1040.46 296.586 950.179 347.581 862.549 397.07C817.05 422.778 769.984 449.354 722.865 471.713C686.049 489.219 637.769 509.257 590.343 509.257C573.858 509.257 558.022 506.863 543.303 502.021L543.301 502.021L542.051 501.608C489.24 483.943 449.084 437.079 410.084 391.617C375.219 350.944 339.034 308.688 293.947 287.963C272.418 277.975 248.482 272.927 222.795 272.927C210.892 272.927 198.63 274.01 186.251 276.176L183.773 276.624C110.077 290.124 44.1725 342.94 7.46875 417.897C4.76414 423.421 2.28318 428.999 0 434.61V428.264C1.6718 424.39 3.4408 420.532 5.31836 416.698C43.4238 338.888 109.961 287.589 183.252 274.152C196.3 271.756 209.52 270.413 222.678 270.413Z" fill="white"/>
<path d="M206.613 227.551C232.346 227.551 257.835 232.457 281.563 243.605L281.564 243.606C331.395 266.884 369.766 314.545 408.729 360.784C447.65 406.972 487.164 451.741 539.236 468.892C555.005 474.122 571.123 476.412 587.353 476.412C633.203 476.412 680.136 458.215 723.942 437.13C803.74 398.687 881.493 349.522 960.004 307.479C1017.18 276.862 1074.79 250.001 1134 233.711V236.229C1043.15 261.498 955.364 311.805 869.992 360.709C822.792 387.763 774.027 415.744 725.149 439.274C686.927 457.718 636.83 478.808 587.529 478.809C570.401 478.809 553.92 476.239 538.672 471.163C486.771 454.03 446.762 409.277 408.562 364.017L400.942 354.966C364.904 312.067 327.544 267.584 280.756 245.745C258.405 235.23 233.532 229.888 206.789 229.888C193.623 229.888 179.99 231.238 166.243 233.819C99.6754 246.177 39.4081 289.891 0 353.03V348.343C40.4525 285.12 100.397 243.647 165.606 231.523C179.181 228.952 192.928 227.551 206.613 227.551Z" fill="white"/>
<path d="M190.373 184.688C217.102 184.688 243.528 189.828 268.135 201.562L268.136 201.562C319.783 226.01 359.371 276.055 399.566 324.601C439.717 373.093 480.477 420.09 534.427 438.091C550.841 443.614 567.606 446.021 584.48 446.021C632.032 446.021 680.723 427.005 726.055 404.748C808.815 364.547 889.337 312.909 970.67 268.706C1024.42 239.495 1078.55 213.516 1134 196.156V198.554C1046.17 226.258 961.249 275.587 878.49 323.645C829.239 352.28 778.247 381.9 727.142 406.718L727.14 406.719C687.745 426.098 635.949 448.242 584.539 448.242C566.709 448.242 549.583 445.498 533.748 440.188C476.336 421.035 433.275 368.878 391.447 318.255C354.237 273.191 315.704 226.48 267.215 203.527C244.042 192.485 218.172 186.908 190.432 186.908C176.737 186.908 162.517 188.317 148.301 191.016C91.553 201.679 39.337 234.622 0 282.864V279.124C39.905 230.977 91.9704 199.359 147.842 188.837L147.843 188.836C161.885 186.148 176.16 184.688 190.373 184.688Z" fill="white"/>
<path d="M174.191 141.708C201.857 141.708 229.279 147.14 254.766 159.4L254.767 159.401C308.201 184.99 348.991 237.405 390.41 288.257C431.785 339.054 473.791 388.293 529.618 407.173C546.619 412.931 563.97 415.455 581.49 415.455C630.743 415.455 681.252 395.56 728.167 372.249C813.771 330.145 897.049 276.061 981.226 229.758C1031.56 202.07 1082.24 177.15 1134 159.182V161.611C1048.78 191.378 966.239 239.908 885.699 287.283C834.748 317.265 782.056 348.232 729.25 374.221L729.249 374.222C688.447 394.48 634.834 417.676 581.549 417.676C563.072 417.676 545.361 414.873 528.942 409.271C469.597 389.241 425.188 334.626 382.128 281.602C343.803 234.371 304.04 185.434 253.85 161.368C229.856 149.798 203.105 143.929 174.309 143.929C160.532 143.929 146.315 145.251 132.033 147.947L130.651 148.212C82.2361 157.447 37.0819 182.519 0 219.33V215.788C37.3816 179.283 82.3646 155.125 130.078 146.032L131.45 145.772C145.629 143.133 159.912 141.708 174.191 141.708Z" fill="white"/>
<path d="M158.068 98.8447C186.731 98.8448 215.148 104.453 241.454 117.298L241.455 117.299C296.677 144.086 338.669 198.901 381.312 252.066C423.911 305.176 467.163 356.642 524.867 376.372C542.455 382.423 560.393 385.065 578.5 385.065C629.513 385.065 681.723 364.23 730.279 339.865L730.28 339.866C818.757 295.83 904.805 239.272 991.824 190.854C1038.73 164.757 1085.93 141.015 1134 122.829V125.506C1055.33 155.466 978.899 200.131 904.174 244.538L893.144 251.097C840.55 282.367 786.156 314.681 731.65 341.841C689.441 363.036 634.011 387.286 578.852 387.286C559.732 387.286 541.436 384.307 524.43 378.471L522.996 377.974C462.436 356.671 417.046 300 373.101 245.065C333.545 195.669 292.61 144.505 240.719 119.326C215.903 107.17 188.155 101.065 158.361 101.065C143.612 101.065 128.395 102.591 113.122 105.583L111.134 105.976C70.9717 114.087 33.0667 132.874 0 160.106V156.713C33.7091 129.462 72.0836 111.166 112.373 103.403H112.375C127.53 100.423 142.859 98.8447 158.068 98.8447Z" fill="white"/>
<path d="M142.062 55.9238C171.721 55.9239 201.076 61.8251 228.262 75.1963L229.596 75.8564C285.947 104.019 328.823 160.757 372.354 215.803C416.184 271.224 460.682 324.933 520.234 345.513C538.408 351.798 556.992 354.558 575.686 354.558C628.341 354.558 682.369 332.844 732.509 307.425L732.51 307.426C823.8 261.457 912.591 202.438 1002.45 151.92C1045.89 127.495 1089.6 105.047 1134 86.9893V89.4941C1053.93 122.194 976.154 168.975 900.06 214.735C845.824 247.353 789.732 281.07 733.526 309.343L733.525 309.344C689.908 331.418 632.662 356.72 575.627 356.72C555.863 356.72 536.981 353.624 519.448 347.554C487.826 336.608 460.258 316.255 434.893 291.404C409.526 266.552 386.387 237.227 363.605 208.354C322.936 156.792 280.769 103.343 227.177 77.1084C201.482 64.4832 172.854 58.086 142.004 58.0859C127.26 58.0859 112.022 59.5724 96.7188 62.4922L95.2383 62.7793C61.4853 69.3499 29.262 83.2953 0 103.367V100.595C29.3387 80.7763 61.4441 67.1808 94.8438 60.6572H94.8457C110.469 57.5598 126.326 55.9238 142.062 55.9238Z" fill="white"/>
<path d="M125.88 13.0029C156.476 13.0029 186.828 19.1377 214.893 33.0938C273.719 62.1925 318.145 121.777 363.251 179.562C408.311 237.289 454.055 293.224 515.484 314.653C534.187 321.173 553.356 324.05 572.695 324.05C627.053 324.05 682.841 301.398 734.623 274.925C828.786 227.053 920.347 165.591 1013.04 112.973C1053.03 90.2742 1093.25 69.2157 1134 51.5781V54.4688C1056.5 88.1164 981.1 133.911 907.21 178.783C851.333 212.747 793.54 247.812 735.634 277.256C690.669 300.266 631.488 326.622 572.637 326.622C552.228 326.622 532.76 323.409 514.642 317.047C482.052 305.662 453.664 284.475 427.566 258.601C401.467 232.724 377.682 202.184 354.285 172.11L346.42 162.021C306.98 111.534 265.65 60.9978 213.812 35.3594C187.297 22.2063 157.729 15.5157 125.822 15.5156C110.567 15.5156 94.8178 17.0581 79.0029 20.0879L77.4727 20.3857C50.452 25.6921 24.399 35.6234 0 49.5713V46.7012C24.4027 32.9596 50.3334 23.2437 77.0801 17.9707L77.0811 17.9697C93.2334 14.755 109.617 13.003 125.88 13.0029Z" fill="white"/>
<path d="M217.774 0C270.481 32.5145 311.999 88.6778 354.096 143.292C400.38 203.338 447.369 261.515 510.676 283.794C530.023 290.607 549.78 293.602 569.706 293.602C625.824 293.601 683.371 270.071 736.735 242.544L736.734 242.543C833.77 192.739 928.102 128.801 1023.64 74.0684C1060.17 53.1462 1096.87 33.5651 1134 16.6123V19.2803C1059.03 53.5767 985.978 98.3586 914.303 142.304C856.784 177.556 797.292 214.026 737.686 244.641L737.685 244.642C691.312 268.589 630.314 295.997 569.588 295.997C548.593 295.997 528.481 292.668 509.835 286.071C476.25 274.248 447.056 252.213 420.239 225.307C393.421 198.398 369.007 166.643 344.965 135.398C305.189 83.7121 264.132 30.2602 213.109 0H217.774Z" fill="white"/>
<path d="M1103.58 0C1041.79 31.8221 981.245 69.2652 921.63 106.117C862.411 142.717 801.277 180.592 739.912 212.318L739.911 212.319C692.131 237.145 629.317 265.607 566.716 265.607C545.077 265.607 524.378 262.102 505.146 255.271C470.594 243.01 440.579 220.141 413.03 192.21C385.479 164.277 360.419 131.307 335.762 98.8623C309.546 64.3697 282.759 29.129 253.027 0H256.447C288.05 31.3565 316.382 69.5859 344.977 107.109C392.492 169.461 440.742 229.864 505.926 252.993C525.801 260.041 546.203 263.152 566.716 263.152C624.535 263.152 683.842 238.685 738.848 210.104L743.527 207.669C841.761 156.325 937.351 91.1249 1034.2 35.1797C1055.4 22.931 1076.67 11.1254 1098.04 0H1103.58Z" fill="white"/>
<path d="M1042.93 0C1004.39 22.4816 966.284 46.2314 928.547 69.7549C867.686 107.643 804.851 146.865 741.785 179.763C692.598 205.526 627.967 235.041 563.491 235.041C541.208 235.041 519.865 231.419 500.105 224.354C464.557 211.625 433.722 187.922 405.439 158.974C377.155 130.023 351.45 95.8534 326.147 62.208C310.392 41.2605 294.44 20.0494 277.794 0H281.178C299.857 22.6473 317.789 46.8444 335.821 70.7666C384.56 135.423 434.055 198.067 501.116 222.075C521.637 229.416 542.567 232.645 563.726 232.645C623.246 232.644 684.312 207.239 740.959 177.604L745.773 175.08C844.64 123 940.886 57.1577 1038.32 0H1042.93Z" fill="white"/>
<path d="M988.854 0C971.132 10.9864 953.494 22.0675 935.933 33.1006C874.465 71.7216 810.914 111.636 747.166 145.37L744.13 146.973C693.536 173.672 627.087 204.241 560.735 204.241C537.806 204.241 515.937 200.56 495.592 193.203L493.882 192.578C458.059 179.267 426.938 155.016 398.383 125.504C369.373 95.5215 343.038 60.137 317.12 25.3203C310.85 16.8917 304.546 8.42403 298.183 0H300.902C309.546 11.4617 318.125 23.0496 326.726 34.5771C376.688 101.546 427.428 166.416 496.366 191.274L496.367 191.275C517.416 198.85 538.991 202.196 560.735 202.196C621.956 202.196 684.84 175.911 743.07 145.222L743.071 145.223C824.798 102.236 904.748 49.8084 984.968 0H988.854Z" fill="white"/>
<path d="M938.244 0C876.649 39.0002 813.066 79.0955 749.296 113.055L746.181 114.709C694.238 142.287 625.855 173.909 557.687 173.909C534.114 173.909 511.599 170.053 490.727 162.462L488.972 161.815C452.201 148.06 420.273 122.986 390.997 92.4658C364.323 64.6578 339.873 32.3501 315.972 0H318.795C369.592 68.682 421.31 134.913 491.558 160.415C513.253 168.342 535.415 171.747 557.745 171.747C620.726 171.747 685.311 144.583 745.184 112.781L750.264 110.077C812.275 76.9101 873.304 38.5344 934.216 0H938.244Z" fill="white"/>
<path d="M888.487 0C842.39 28.8947 795.527 57.2345 748.583 82.2695C695.233 110.785 625.033 143.46 554.989 143.46C531.529 143.46 509.116 139.732 488.229 132.385L486.213 131.662C447.706 117.587 414.422 91.3691 383.963 59.3467C366.564 41.0544 350.095 20.8765 334.105 0H336.764C380.556 57.0964 427.143 107.795 486.866 129.614C509.089 137.776 531.838 141.298 554.813 141.298C619.437 141.298 685.84 113.256 747.296 80.3994C793.358 55.8284 838.876 28.3702 884.19 0H888.487Z" fill="white"/>
<path d="M837.805 0C808.936 17.4727 779.888 34.3298 750.81 49.9473C696.052 79.3407 624.036 113.069 552.117 113.069C527.314 113.069 503.568 108.98 481.582 100.862C442.108 86.3482 408.004 59.282 376.812 26.2275C368.891 17.8338 361.161 9.05446 353.578 0H356.385C393.384 44.06 433.591 80.9299 482.409 98.873C505.219 107.269 528.613 110.907 552.176 110.907C618.5 110.907 686.662 81.9274 749.759 48.0176L755.107 45.1328C781.417 30.8732 807.557 15.7115 833.589 0H837.805Z" fill="white"/>
<path d="M784.738 0C774.121 6.03854 763.493 11.9438 752.861 17.6836C696.697 48.014 622.863 82.7958 549.068 82.7959C524.415 82.7959 500.81 78.8484 478.838 71.0088L476.717 70.2383C438.957 56.2769 406.02 31.0267 375.838 0H379.15C408.616 30.0005 440.67 54.2478 477.542 67.8965L479.736 68.6963C502.433 76.8164 525.617 80.3418 549.068 80.3418C617.152 80.3417 687.073 50.4826 751.753 15.5186C761.129 10.4562 770.483 5.27748 779.819 0H784.738Z" fill="white"/>
<path d="M726.308 0C673.373 26.7196 609.615 52.1718 545.844 52.1719C519.752 52.1719 494.834 47.7899 471.734 39.2041C447.565 30.2094 425.338 16.6796 404.531 0H408.182C428.146 15.6849 449.447 28.4149 472.616 37.0371C496.599 45.9605 521.166 49.834 545.961 49.834C604.443 49.8339 664.255 28.2043 721.13 0H726.308Z" fill="white"/>
</g>
</g>
<defs>
<clipPath id="clip0_333_2005">
<rect width="1134" height="773" fill="white"/>
</clipPath>
</defs>
</svg>
