<svg width="296" height="700" viewBox="0 0 296 700" fill="none" xmlns="http://www.w3.org/2000/svg">
<g clip-path="url(#clip0_333_907)">
<g opacity="0.15">
<path d="M296 481.082C261.166 490.16 231.049 513.501 212.262 546.391C199.388 568.892 194.565 593.91 190.67 613.97V613.972C188.337 626.23 186.282 636.753 182.978 644.833C179.966 652.154 172.392 663.894 161.433 673.799C150.475 683.702 136.178 691.733 119.719 691.733H117.901C104.771 691.239 89.4546 687.626 75.9219 684.419C68.8997 682.78 62.2368 681.173 56.3398 680.141C52.9583 679.527 49.6873 679.219 46.6816 679.219C35.0219 679.219 26.2948 683.588 20.0996 692.56C18.5389 694.818 17.1755 697.308 15.9902 700H14.6094C17.3651 693.447 21.118 688.099 26.0469 684.302C31.4298 680.154 38.244 677.832 46.7588 677.832C49.8284 677.832 53.09 678.097 56.6172 678.741C65.353 680.303 75.7354 683.016 86.4375 685.438C97.1219 687.857 108.108 689.982 117.985 690.346H119.757C135.153 690.346 149.009 682.842 159.819 673.356C170.629 663.872 178.443 652.366 181.755 644.27C183.976 638.853 185.637 632.219 187.2 624.773C187.982 621.049 188.741 617.115 189.533 613.024C190.326 608.932 191.153 604.681 192.071 600.317C195.745 582.862 200.882 563.626 211.145 545.656C230.517 511.746 261.551 488.59 296 479.646V481.082Z" fill="white"/>
<path d="M70.6328 693.131C73.2831 693.131 76.1275 693.358 79.124 693.851C87.3628 695.184 97.1444 697.563 107.229 699.68C107.743 699.787 108.258 699.894 108.772 700H103.22C101.364 699.599 99.5307 699.196 97.7295 698.801C91.0078 697.313 84.6538 695.937 79.0254 695.02C76.1413 694.559 73.3685 694.327 70.7471 694.327C63.2245 694.327 56.9572 696.189 51.834 700H49.7871C50.1074 699.736 50.4326 699.479 50.7637 699.229C55.9503 695.32 62.489 693.131 70.6328 693.131Z" fill="white"/>
<path d="M296 512.372C267.972 522.591 243.927 542.494 228.041 569.199C215.663 589.983 210.725 613.168 206.792 631.741C204.306 643.317 202.213 653.227 198.872 660.887C195.861 667.79 188.449 678.854 177.909 688.188C172.718 692.786 166.778 696.954 160.243 700H157.06C164.16 697.083 170.648 692.767 176.29 687.895C186.631 678.964 194.177 668.128 197.489 660.492C199.702 655.41 201.392 649.203 202.993 642.25C203.794 638.772 204.574 635.101 205.387 631.286C206.199 627.47 207.044 623.509 207.976 619.444C211.702 603.185 216.809 585.304 226.727 568.63C243.148 541.013 267.992 521.118 296 511.024V512.372Z" fill="white"/>
<path d="M296 544.944C275.08 554.961 257.072 570.739 244.205 590.785L243.287 592.236C231.443 611.264 226.655 631.741 222.417 649.741C219.854 660.628 217.648 669.968 214.308 677.17C211.536 683.158 205.637 692.005 197.467 700H195.657C203.999 692.092 210.154 683.094 213.147 676.678C215.342 671.948 217.054 666.177 218.688 659.722C219.505 656.492 220.304 653.085 221.134 649.546C221.964 646.006 222.825 642.333 223.769 638.566C227.542 623.499 232.62 606.963 242.192 591.604C255.558 570.174 274.467 553.808 296 543.604V544.944Z" fill="white"/>
<path d="M296 579.013C281.719 587.894 269.327 599.708 259.799 613.829L258.916 615.157C247.567 632.429 242.701 651.188 238.387 667.662C235.83 677.507 233.609 686.042 230.403 692.696L230.09 693.335C229.054 695.415 227.751 697.666 226.21 700H224.633C226.389 697.42 227.819 694.991 228.881 692.864C231.067 688.469 232.81 683.123 234.484 677.156C235.322 674.171 236.144 671.025 236.995 667.761C237.847 664.495 238.728 661.111 239.686 657.643C243.516 643.768 248.565 628.585 257.773 614.542C267.817 599.23 280.99 586.757 296 577.573V579.013Z" fill="white"/>
<path d="M296 615.087C288.188 621.428 281.226 628.776 275.358 636.984L274.508 638.192C263.692 653.783 258.711 670.785 254.357 685.773C252.854 690.946 251.467 695.714 249.964 700H248.528C249.14 698.277 249.731 696.478 250.314 694.614C252.021 689.162 253.692 683.064 255.626 676.748C259.509 664.065 264.527 650.227 273.391 637.48C279.788 628.273 287.439 620.211 296 613.396V615.087Z" fill="white"/>
<path d="M296 654.005C293.91 656.335 291.928 658.756 290.062 661.264C280.731 673.806 275.733 687.534 271.587 700H270.079C270.542 698.605 271.014 697.191 271.503 695.766C275.443 684.27 280.431 671.776 288.93 660.345C291.144 657.37 293.506 654.53 296 651.827V654.005Z" fill="white"/>
<path d="M296 698.911C295.81 699.274 295.622 699.637 295.437 700H293.919C294.581 698.689 295.273 697.379 296 696.073V698.911Z" fill="white"/>
<path d="M296 450.759C295.903 450.776 295.805 450.792 295.708 450.809C254.321 457.928 218.312 484.413 196.826 523.391C183.419 547.724 178.711 574.574 174.893 596.083C172.67 608.589 170.742 619.393 167.653 627.784L167.351 628.589C164.035 637.218 155.816 649.631 144.274 659.885C132.735 670.137 117.921 678.189 101.422 678.189C101.027 678.189 100.63 678.18 100.229 678.17C99.8343 678.161 99.4347 678.152 99.0342 678.151C85.1031 677.505 68.8344 673.397 54.4219 669.77C47.053 667.901 40.0885 666.143 33.9248 664.958L33.9238 664.957C30.0833 664.228 26.3896 663.844 22.96 663.844C13.4851 663.844 5.90872 666.626 0 672.32V670.521C0.448497 670.124 0.906697 669.741 1.37598 669.372C6.95389 664.988 14.0407 662.533 22.9219 662.533C26.3706 662.533 30.1256 662.874 34.1484 663.67H34.1504C43.4021 665.461 54.4047 668.497 65.7324 671.221C77.0422 673.94 88.6588 676.342 99.0713 676.84L99.6523 676.862C100.233 676.879 100.812 676.878 101.384 676.878C117.564 676.878 132.097 668.944 143.386 658.914C154.673 648.885 162.766 636.719 166.059 628.16L166.058 628.159C168.287 622.4 169.917 615.338 171.439 607.402C172.201 603.432 172.938 599.236 173.709 594.871C174.481 590.505 175.287 585.967 176.191 581.307C179.808 562.664 184.974 542.083 195.601 522.797C217.698 482.69 254.877 456.522 295.43 449.524L295.431 449.523C295.62 449.49 295.81 449.458 296 449.426V450.759Z" fill="white"/>
<path d="M296 421.45C292.552 421.74 289.074 422.173 285.586 422.753L284.172 422.996C240.948 430.612 203.448 458.854 181.276 500.466C168.242 524.889 163.324 551.657 159.708 573.857L159.001 578.234C156.821 591.83 154.916 603.499 151.647 612.419C148.331 621.523 139.921 634.612 127.946 645.423C115.974 656.231 100.483 664.722 83.0098 664.722C82.0282 664.722 81.0457 664.684 80.0537 664.646C65.2827 663.809 48.0602 659.244 32.8076 655.197C25.1305 653.137 17.8238 651.227 11.3936 649.889H11.3906C7.36239 649.077 3.55514 648.622 0 648.555V647.167C3.60611 647.233 7.47826 647.686 11.6455 648.561C21.3942 650.58 32.9981 653.95 44.9424 656.979C56.8682 660.003 69.1157 662.682 80.083 663.295C81.0535 663.372 81.9843 663.372 82.9336 663.372C99.9362 663.372 115.148 654.979 126.909 644.381C138.669 633.784 147.03 620.939 150.322 611.939L150.733 610.779C152.751 604.897 154.239 597.815 155.63 589.911C156.372 585.694 157.087 581.235 157.839 576.595C158.591 571.953 159.381 567.126 160.273 562.168C163.843 542.333 169.048 520.407 180.019 499.824C202.767 457.086 241.511 429.128 283.856 421.673L283.855 421.672C287.895 420.976 291.946 420.447 296 420.105V421.45Z" fill="white"/>
<path d="M296 392.964C288.888 392.971 281.578 393.61 274.195 394.881L272.709 395.146C227.648 403.145 188.698 433.184 165.803 477.504C151.404 505.386 146.851 535.936 143.224 560.422C141.082 574.629 139.253 586.87 136.021 596.211C132.82 605.482 124.097 619.248 111.595 630.693C99.0952 642.137 82.8695 651.216 64.6738 651.216C63.4991 651.216 62.361 651.177 61.1855 651.102C45.6519 650.113 27.4363 645.053 11.3428 640.586C7.44187 639.51 3.64571 638.46 0 637.493V636.016C7.61295 638.031 15.869 640.428 24.2822 642.661C36.8229 645.989 49.6946 648.944 61.1934 649.674C62.3258 649.791 63.4939 649.79 64.5977 649.79C82.4034 649.79 98.2937 640.958 110.533 629.806C122.77 618.655 131.409 605.141 134.701 595.681L135.113 594.456C137.134 588.25 138.595 580.768 139.95 572.405C141.4 563.455 142.721 553.557 144.483 543.021C148 521.993 153.234 498.713 164.55 476.814C187.988 431.443 228.262 401.618 272.398 393.783C280.23 392.378 288.135 391.618 296 391.615V392.964Z" fill="white"/>
<path d="M285.504 363.688C289.014 363.688 292.516 363.837 296 364.143V365.532C292.558 365.228 289.058 365.075 285.504 365.075C277.571 365.075 269.371 365.84 261.098 367.37C214.566 375.761 174.391 407.13 150.732 453.48L150.177 454.578C135.244 484.216 130.807 516.637 127.256 542.61C125.293 557.001 123.586 569.441 120.543 579.078L120.244 580.002C117.042 589.73 108.118 604.17 95.1768 616.178C82.239 628.182 65.3359 637.71 46.1855 637.71C44.8623 637.71 43.4975 637.634 42.1592 637.558C29.082 636.641 14.1567 632.881 0 628.907V627.556C1.16384 627.884 2.33129 628.211 3.50195 628.534C16.6715 632.168 30.1781 635.402 42.2148 636.245C43.5291 636.361 44.8411 636.399 46.1475 636.399C64.7562 636.399 81.3346 627.127 94.0566 615.421C106.776 603.717 115.692 589.534 118.965 579.612L119.378 578.321C121.403 571.775 122.837 563.878 124.156 555.046C125.568 545.601 126.844 535.131 128.579 524.002C132.044 501.778 137.307 477.153 148.967 453.957L149.535 452.834C173.747 405.422 215.254 374.236 260.824 366.009L260.826 366.008C269.015 364.486 277.28 363.688 285.504 363.688Z" fill="white"/>
<path d="M274.999 335.685C282.05 335.685 289.079 336.26 296 337.487V338.967C289.259 337.757 282.273 337.147 275.076 337.147C267.316 337.147 259.321 337.854 251.251 339.267L249.636 339.558C201.59 348.36 158.628 382.792 134.704 431.652C119.275 463.16 114.954 497.412 111.479 524.873C109.59 539.855 107.956 552.851 104.917 562.904L104.619 563.868C101.397 574.053 92.2623 589.17 78.8779 601.739C65.497 614.305 47.9165 624.28 27.8115 624.28C26.2973 624.28 24.7809 624.205 23.2598 624.091C15.9228 623.52 8.0294 622.084 0 620.215V618.773C8.05922 620.661 15.9685 622.102 23.3477 622.663C24.8133 622.779 26.3153 622.816 27.7734 622.816C47.185 622.816 64.4418 613.105 77.6416 600.846C90.8385 588.589 100.033 573.736 103.306 563.354C105.552 556.232 107.055 547.45 108.423 537.54C109.794 527.609 111.026 516.576 112.736 504.854C116.153 481.438 121.456 455.459 133.46 430.947C158.276 380.272 201.606 346.868 249.327 338.119L250.922 337.835C258.9 336.453 266.968 335.685 274.999 335.685Z" fill="white"/>
<path d="M264.533 307.757C275.171 307.757 285.744 309.047 296 311.845V313.214C286.102 310.485 275.615 309.105 264.647 309.105C256.599 309.105 248.284 309.88 239.893 311.363L238.214 311.669C188.331 320.929 143.881 357.196 119.271 408.65C104.341 439.835 99.7106 473.564 96.3896 501.512L95.7402 507.022C93.9255 522.632 92.3305 536.149 89.3271 546.617L89.0312 547.621C85.6187 558.925 75.8012 574.717 61.7812 587.683C47.7641 600.646 29.6001 610.736 9.51367 610.736C7.80707 610.736 6.10038 610.66 4.43262 610.509H4.42969C2.97313 610.388 1.49563 610.233 0 610.05V608.732C1.49772 608.917 2.97762 609.074 4.4375 609.195H4.44336C6.09175 609.31 7.74459 609.388 9.39941 609.388C29.595 609.388 47.5306 599.236 61.2129 586.423C74.8919 573.612 84.3726 558.091 87.6445 547.249C89.8995 539.783 91.3735 530.571 92.7041 520.166C94.0372 509.743 95.2245 498.148 96.9082 485.832C100.273 461.224 105.603 433.9 117.952 408.091C143.457 354.745 188.316 319.55 237.83 310.344H237.832C246.671 308.669 255.623 307.757 264.533 307.757Z" fill="white"/>
<path d="M253.951 279.829C268.286 279.829 282.486 282.102 296 287.172V288.503C283.029 283.584 268.924 281.103 253.989 281.103C245.619 281.103 236.949 281.909 228.262 283.46L226.523 283.78C174.805 293.5 128.865 331.599 103.568 385.647C88.1739 418.549 83.5823 453.996 80.3623 483.409L79.7344 489.209C77.9376 505.971 76.374 520.39 73.1777 531.373C69.7645 543.153 59.7179 559.62 45.2402 573.144C32.8869 584.682 17.3457 594.041 0 596.536V595.263C17.2954 592.759 32.6319 583.364 44.7217 571.942C58.8779 558.569 68.6367 542.37 71.9082 531.068L72.3232 529.585C74.3523 522.06 75.698 512.952 76.9102 502.738C78.2052 491.826 79.3457 479.673 81.0029 466.763C84.3149 440.962 89.675 412.283 102.368 385.158C128.562 329.18 174.95 292.194 226.258 282.531C235.402 280.781 244.697 279.829 253.951 279.829Z" fill="white"/>
<path d="M243.408 251.826C261.422 251.826 279.276 255.363 295.868 263.345L295.869 263.346C295.913 263.367 295.956 263.388 296 263.409V264.789C295.782 264.683 295.564 264.575 295.346 264.47C279.701 256.926 262.259 253.099 243.485 253.099C234.215 253.099 224.638 254.016 215.025 255.891C161.471 266.106 114.042 306.04 88.0586 362.645C71.1034 399.571 67.1269 439.431 63.9189 471.395C62.1987 488.767 60.7114 503.721 57.5146 515.124C54.1008 527.398 43.8248 544.542 28.8936 558.618C20.5655 566.469 10.805 573.349 0 577.899V576.455C10.5928 571.898 20.1222 565.076 28.2246 557.367C42.8633 543.44 52.8998 526.573 56.1709 514.812C58.4344 506.669 59.8461 496.601 61.0996 485.212C62.3549 473.807 63.4508 461.093 65.084 447.588C68.3483 420.595 73.7468 390.572 86.7842 362.149C113.667 303.538 161.583 264.762 214.684 254.642L216.471 254.309C225.41 252.695 234.41 251.826 243.408 251.826Z" fill="white"/>
<path d="M232.903 223.898C251.567 223.898 270.07 227.551 287.195 235.913C290.188 237.365 293.121 238.946 296 240.64V242.053C292.989 240.259 289.922 238.596 286.794 237.078C270.612 229.151 252.519 225.171 233.095 225.171C223.479 225.171 213.558 226.166 203.602 228.116C148.251 238.791 99.3331 280.558 72.6631 339.756C56.3026 376.056 51.8527 415.001 48.8115 447.322L48.2188 453.695C46.5368 471.678 45.0881 487.165 41.9287 498.989C38.5143 511.74 28.0093 529.56 12.6201 544.193C8.71304 547.908 4.49362 551.414 0 554.578V552.843C4.18052 549.816 8.11065 546.497 11.7578 543.002C26.8785 528.512 37.2021 510.966 40.4727 498.745C42.7453 490.26 44.1279 479.76 45.3438 467.876C46.5612 455.977 47.61 442.702 49.2168 428.6C52.4287 400.41 57.8567 369.032 71.2383 339.294C98.8095 278.049 148.254 237.445 203.148 226.867L203.149 226.866C213.018 224.925 223 223.898 232.903 223.898Z" fill="white"/>
<path d="M222.476 195.933C241.787 195.933 260.9 199.775 278.599 208.48L278.6 208.481C284.623 211.432 290.409 214.887 296 218.756V220.318C290.71 216.6 285.254 213.261 279.602 210.386L277.97 209.571C261.216 201.339 242.55 197.167 222.438 197.167C213.136 197.167 203.533 198.076 193.882 199.859L191.951 200.228C134.765 211.36 84.3187 254.961 57 316.753C39.0526 357.304 35.3071 400.942 32.29 435.919C30.7347 453.932 29.3973 469.531 26.4424 481.585L26.1514 482.74C23.02 494.868 13.7343 511.418 0 525.787V523.793C13.0857 509.779 21.9495 493.92 24.8877 482.527C27.1695 473.699 28.5228 462.767 29.7012 450.389C30.8808 437.996 31.8844 424.161 33.4648 409.464C36.6243 380.082 42.0818 347.36 55.8076 316.324C84.0673 252.447 135.04 210.088 191.729 199.016C201.903 196.999 212.229 195.933 222.476 195.933Z" fill="white"/>
<path d="M211.933 167.968C231.855 167.968 251.617 171.963 269.889 181.049C279.088 185.599 287.746 191.297 296 197.847V199.741C288.044 193.336 279.726 187.731 270.945 183.219L269.262 182.369C251.973 173.793 232.695 169.431 211.895 169.431C202.27 169.431 192.345 170.372 182.371 172.223L180.376 172.605C121.354 184.197 69.4194 229.631 41.4141 294.017C22.9707 336.437 19.3391 381.906 16.3984 418.409C14.8801 437.014 13.6158 453.097 10.665 465.562L10.374 466.758C8.73071 473.351 5.16882 481.376 0 489.722V487.214C4.48452 479.629 7.60151 472.383 9.1123 466.348L9.32422 465.482C11.4861 456.474 12.7665 445.425 13.875 432.956C15.0205 420.071 15.9821 405.676 17.541 390.381C20.6576 359.802 26.1527 325.725 40.2227 293.393C69.1709 226.883 121.672 182.732 180.154 171.202C190.673 169.109 201.343 167.968 211.933 167.968Z" fill="white"/>
<path d="M201.39 140.002C221.961 140.002 242.334 144.15 261.178 153.579L262.101 154.045C274.22 160.219 285.42 168.341 296 177.768V179.693C285.195 169.942 273.758 161.544 261.423 155.263L260.554 154.824C242.767 145.904 222.84 141.389 201.39 141.389C191.479 141.389 181.233 142.364 170.937 144.313L168.876 144.717C108.495 156.748 55.4312 203.336 26.5811 269.485L25.9043 271.052C8.14837 312.539 3.9474 356.771 1.16309 393.441L0.62207 400.672C0.413823 403.518 0.207701 406.307 0 409.034V390.929C0.48909 384.586 1.02487 378.026 1.67383 371.298C4.73794 339.532 10.2625 304.11 24.6768 270.461C54.3133 201.28 108.343 155.339 168.619 143.352C179.443 141.182 190.456 140.002 201.39 140.002Z" fill="white"/>
<path d="M190.885 112.075C212.105 112.075 233.088 116.374 252.505 126.185L253.455 126.669C268.903 134.614 282.887 145.66 296 158.543V160.495C282.677 147.281 268.453 135.92 252.817 127.887L251.922 127.432C233.563 118.168 213.062 113.462 190.923 113.462C180.008 113.462 168.711 114.609 157.378 116.903C94.7245 129.488 39.7734 178.55 10.3945 248.124C6.25038 257.931 2.83667 267.882 0 277.851V272.939C2.5753 264.416 5.58742 255.92 9.13086 247.529C39.4559 175.716 95.0134 127.982 157.083 115.538C168.289 113.292 179.608 112.075 190.885 112.075Z" fill="white"/>
<path d="M180.342 84.0713C202.173 84.0714 223.806 88.5236 243.795 98.7148C263.072 108.504 280.112 123.03 296 139.979V142.229C279.873 124.859 262.527 109.873 243.023 99.9629C224.128 90.3166 202.977 85.458 180.188 85.458C169.668 85.458 158.78 86.5345 147.84 88.6221L145.65 89.0527C84.804 101.359 31.1234 147.363 0 213.138V210.307C32.0952 143.792 85.8605 99.7455 145.547 87.6875H145.549C157.059 85.3274 168.721 84.0713 180.342 84.0713Z" fill="white"/>
<path d="M169.837 56.1055C192.317 56.1055 214.56 60.7486 235.122 71.2832C257.91 82.9561 277.635 101.113 296 122.112V124.035C277.458 102.708 257.442 84.0879 234.505 72.3408C215.076 62.3895 193.313 57.3399 169.837 57.3398C158.271 57.3399 146.287 58.6021 134.268 61.0488C80.8661 71.9199 32.8146 108.394 0 161.417V158.866C33.3854 105.659 81.3882 70.5432 134.013 59.8359C145.867 57.3995 157.872 56.1055 169.837 56.1055Z" fill="white"/>
<path d="M159.256 28.1787C182.385 28.1788 205.239 32.9353 226.373 43.8506C252.774 57.4673 275.14 79.6105 296 104.879V106.945C275.251 81.6768 252.855 59.1982 226.731 45.4551L225.759 44.9482L224.819 44.4697C205.057 34.4911 183.005 29.4132 159.256 29.4131C148.091 29.4131 136.591 30.5221 125.009 32.7715L122.691 33.2363C75.5314 42.8904 32.4833 72.0887 0 114.892V112.563C32.8788 69.7967 75.8731 41.5536 122.399 32.0234L122.398 32.0225C134.598 29.5475 146.948 28.1787 159.256 28.1787Z" fill="white"/>
<path d="M148.789 0.250977C172.567 0.251019 196.07 5.19846 217.739 16.457L218.799 17.0127C248.349 32.6594 272.939 58.7869 296 88.0664V90.0498C272.85 60.5582 247.899 33.7985 218.203 18.0801L217.203 17.5557C196.703 6.87844 173.717 1.48535 148.903 1.48535C137.416 1.48538 125.593 2.66185 113.689 4.98242L111.308 5.46191C69.625 14.0621 31.1216 37.5991 0 72.1611V69.9316C31.3824 35.5357 69.812 12.7259 110.94 4.24805L113.288 3.77637C125.036 1.48836 136.964 0.251006 148.789 0.250977Z" fill="white"/>
<path d="M227.131 0C243.105 11.2218 257.685 25.3948 271.495 41.1875C279.906 50.8059 288.027 61.0206 296 71.5303V73.666C274.421 45.1481 251.512 18.348 224.865 0H227.131Z" fill="white"/>
<path d="M250.212 0C254.994 4.8894 259.671 10.0009 264.263 15.29C275.226 27.9182 285.704 41.5443 296 55.5264V57.9199C280.873 37.3212 265.202 17.2446 248.161 0H250.212Z" fill="white"/>
<path d="M265.771 0C276.132 12.755 286.121 26.2701 296 39.9902V42.3477C285.611 27.8986 275.022 13.534 263.968 0H265.771Z" fill="white"/>
<path d="M42.2275 0C27.2742 8.67803 13.1161 19.3701 0 31.8447V29.8438C12.3678 18.2273 25.6064 8.23488 39.5029 0H42.2275Z" fill="white"/>
</g>
</g>
<defs>
<clipPath id="clip0_333_907">
<rect width="296" height="700" fill="white"/>
</clipPath>
</defs>
</svg>
