<svg width="608" height="158" viewBox="0 0 608 158" fill="none" xmlns="http://www.w3.org/2000/svg">
<mask id="mask0_2003_3024" style="mask-type:alpha" maskUnits="userSpaceOnUse" x="0" y="0" width="608" height="158">
<rect width="608" height="158" fill="#D9D9D9"/>
</mask>
<g mask="url(#mask0_2003_3024)">
<rect x="-0.00012207" y="-8" width="1216" height="218" fill="#8D33B3"/>
<mask id="mask1_2003_3024" style="mask-type:alpha" maskUnits="userSpaceOnUse" x="0" y="0" width="608" height="158">
<rect width="608" height="158" fill="#D9D9D9"/>
</mask>
<g mask="url(#mask1_2003_3024)">
<path d="M500.922 135.603C497.833 115.943 486.961 103.049 467.025 97.958C449.13 93.3915 426.713 102.505 409.816 121.149C390.846 142.088 387.406 178.384 409.592 199.125C417.222 206.256 446.7 222.232 477.182 193.823C496.618 175.71 504.133 156.05 500.922 135.603Z" fill="#8D33B3"/>
<path d="M348.187 168.995C360.221 168.995 369.977 160.046 369.977 149.008C369.977 137.97 360.221 129.022 348.187 129.022C336.153 129.022 326.397 137.97 326.397 149.008C326.397 160.046 336.153 168.995 348.187 168.995Z" fill="#FBD0CF"/>
<path d="M412.95 117.337C407.629 121.596 409.912 138.283 402.48 138.283C395.049 138.283 392.356 116.653 392.356 109.835C392.356 103.017 396.321 104.808 403.702 103.9C416.698 102.301 426.24 106.701 412.95 117.337Z" fill="#FBD0CF"/>
<path d="M412.95 117.337C407.629 121.596 409.912 138.283 402.48 138.283C395.049 138.283 392.356 116.653 392.356 109.835C392.356 103.017 396.321 104.808 403.702 103.9C416.698 102.301 426.24 106.701 412.95 117.337Z" fill="#FBD0CF"/>
<path d="M415.164 68.7181C418.421 74.7054 435.249 75.3922 433.942 82.7082C432.635 90.0241 410.868 88.8709 404.157 87.6719C397.445 86.4729 399.905 82.8843 400.309 75.459C401.021 62.3844 407.031 53.7645 415.164 68.7181Z" fill="#FBD0CF"/>
<path d="M501.594 92.7559C496.273 97.0154 498.556 113.702 491.124 113.702C483.693 113.702 481 92.0716 481 85.2538C481 78.436 484.965 80.2268 492.346 79.3186C505.342 77.7196 514.884 82.1199 501.594 92.7559Z" fill="#FBD0CF"/>
<path d="M495.629 91.1529C493.658 92.7486 494.504 98.9995 491.751 98.9995C488.997 98.9995 488 90.8965 488 88.3425C488 85.7884 489.469 86.4593 492.203 86.119C497.018 85.5201 500.553 87.1685 495.629 91.1529Z" fill="#8D33B3"/>
<path d="M456.953 99.8213C452.207 98.5612 443.515 107.027 440.334 102.721C437.153 98.4142 448.534 87.5951 452.484 84.6767C456.435 81.7583 457.095 84.8226 460.78 88.7105C467.27 95.5567 468.805 102.97 456.953 99.8213Z" fill="#FBD0CF"/>
<path d="M454.62 96.4473C452.896 96.0082 449.7 99.1037 448.557 97.5564C447.414 96.0091 451.598 92.0521 453.047 90.9816C454.496 89.911 454.725 91.0178 456.054 92.4118C458.392 94.8665 458.925 97.5442 454.62 96.4473Z" fill="#8D33B3"/>
<path d="M358.826 95.8227C339.479 93.7058 335.418 107.405 328.837 99.641C322.256 91.8766 327.788 68.3981 338.61 66.4794C347.8 64.8485 357.195 67.3556 364.678 74.2629C377.847 86.4211 381.992 98.3554 358.826 95.8227Z" fill="#FBD0CF"/>
<path d="M310.282 108.719C300.097 107.604 297.958 114.824 294.494 110.732C291.029 106.64 293.941 94.2644 299.639 93.253C304.477 92.3934 309.424 93.7149 313.363 97.3556C320.296 103.764 322.478 110.054 310.282 108.719Z" fill="#F6884D"/>
<path d="M278.106 47.4994C274.636 42.7131 270.711 44.6085 271.123 41.536C271.534 38.4636 277.97 34.8941 280.612 36.935C282.856 38.6681 284.207 41.2956 284.173 44.3952C284.113 49.8505 282.261 53.2298 278.106 47.4994Z" fill="#F6884D"/>
<path d="M237.106 152.499C233.636 147.713 229.711 149.608 230.123 146.536C230.534 143.464 236.97 139.894 239.612 141.935C241.856 143.668 243.207 146.296 243.173 149.395C243.113 154.85 241.261 158.23 237.106 152.499Z" fill="#F6884D"/>
<path d="M31.106 154.499C27.636 149.713 23.711 151.608 24.1227 148.536C24.5343 145.464 30.9696 141.894 33.6118 143.935C35.856 145.668 37.2068 148.296 37.1729 151.395C37.1126 156.85 35.2612 160.23 31.106 154.499Z" fill="#F6884D"/>
<path d="M159.106 14.4994C155.636 9.71314 151.711 11.6085 152.123 8.53603C152.534 5.46359 158.97 1.8941 161.612 3.93503C163.856 5.66809 165.207 8.29565 165.173 11.3952C165.113 16.8505 163.261 20.2298 159.106 14.4994Z" fill="#F6884D"/>
<path d="M48.106 129.499C44.636 124.713 40.711 126.608 41.1227 123.536C41.5343 120.464 47.9696 116.894 50.6118 118.935C52.856 120.668 54.2068 123.296 54.1729 126.395C54.1126 131.85 52.2612 135.23 48.106 129.499Z" fill="#F6884D"/>
<path d="M278.106 47.4994C274.636 42.7131 270.711 44.6085 271.123 41.536C271.534 38.4636 277.97 34.8941 280.612 36.935C282.856 38.6681 284.207 41.2956 284.173 44.3952C284.113 49.8505 282.261 53.2298 278.106 47.4994Z" fill="#F6884D"/>
<path d="M278.106 47.4994C274.636 42.7131 270.711 44.6085 271.123 41.536C271.534 38.4636 277.97 34.8941 280.612 36.935C282.856 38.6681 284.207 41.2956 284.173 44.3952C284.113 49.8505 282.261 53.2298 278.106 47.4994Z" fill="#F6884D"/>
<path d="M278.106 47.4994C274.636 42.7131 270.711 44.6085 271.123 41.536C271.534 38.4636 277.97 34.8941 280.612 36.935C282.856 38.6681 284.207 41.2956 284.173 44.3952C284.113 49.8505 282.261 53.2298 278.106 47.4994Z" fill="#F6884D"/>
<path d="M526.929 127.51C512.826 125.983 509.866 135.864 505.068 130.264C500.271 124.664 504.304 107.729 512.192 106.346C518.892 105.169 525.74 106.978 531.195 111.96C540.795 120.729 543.816 129.337 526.929 127.51Z" fill="#FBD0CF"/>
<path d="M521.312 121.618C517.002 121.148 516.098 124.188 514.632 122.465C513.166 120.742 514.398 115.532 516.809 115.106C518.856 114.744 520.948 115.3 522.615 116.833C525.548 119.531 526.471 122.18 521.312 121.618Z" fill="#F6884D"/>
<path d="M576.929 60.5108C562.826 58.9839 559.866 68.865 555.068 63.2648C550.271 57.6646 554.304 40.7302 562.192 39.3463C568.892 38.17 575.74 39.9783 581.195 44.9603C590.795 53.7297 593.816 62.3376 576.929 60.5108Z" fill="#FBD0CF"/>
<path d="M571.312 54.6187C567.002 54.1489 566.098 57.1892 564.632 55.4661C563.166 53.743 564.398 48.5324 566.809 48.1065C568.856 47.7446 570.948 48.301 572.615 49.834C575.548 52.5322 576.471 55.1808 571.312 54.6187Z" fill="#F6884D"/>
<path d="M584.095 99.131C575.202 88.0788 566.122 92.9724 566.689 85.6202C567.257 78.268 582.083 69.1451 588.639 73.7446C594.209 77.6501 597.773 83.7716 598.107 91.1516C598.694 104.14 594.744 112.363 584.095 99.131Z" fill="#FBD0CF"/>
<path d="M584.289 90.9924C581.574 87.613 578.784 89.1232 578.966 86.8683C579.148 84.6133 583.704 81.8002 585.71 83.2035C587.413 84.395 588.499 86.2682 588.594 88.5308C588.76 92.5128 587.54 95.0384 584.289 90.9924Z" fill="#F6884D"/>
<path d="M584.566 132.108C574.803 133.165 572.753 126.324 569.432 130.201C566.11 134.078 568.902 145.802 574.364 146.76C579.002 147.575 583.743 146.323 587.52 142.874C594.166 136.803 596.257 130.843 584.566 132.108Z" fill="#FBD0CF"/>
<path d="M572.677 159.187C569.694 159.512 569.068 157.408 568.053 158.6C567.038 159.793 567.891 163.401 569.56 163.696C570.977 163.946 572.426 163.561 573.58 162.5C575.61 160.632 576.249 158.798 572.677 159.187Z" fill="#F6884D"/>
<path d="M328.584 39.5942C318.244 48.1175 323.104 56.7468 316.085 56.2395C309.066 55.7322 300.051 41.6478 304.292 35.3798C307.894 30.0559 313.65 26.6321 320.676 26.2799C333.042 25.6614 340.964 29.3878 328.584 39.5942Z" fill="#FBD0CF"/>
<path d="M256.584 35.594C246.244 44.1173 251.104 52.7466 244.085 52.2393C237.066 51.732 228.051 37.6476 232.292 31.3796C235.894 26.0556 241.65 22.6318 248.676 22.2797C261.042 21.6611 268.964 25.3875 256.584 35.594Z" fill="#FBD0CF"/>
<path d="M134.584 18.5942C124.244 27.1175 129.104 35.7468 122.085 35.2395C115.066 34.7322 106.051 20.6478 110.292 14.3798C113.894 9.05585 119.65 5.63206 126.676 5.27991C139.042 4.66137 146.964 8.38776 134.584 18.5942Z" fill="#FBD0CF"/>
<path d="M66.5844 89.5942C56.244 98.1175 61.1044 106.747 54.0852 106.24C47.0661 105.732 38.0509 91.6478 42.2923 85.3798C45.8937 80.0559 51.6505 76.6321 58.6765 76.2799C71.0423 75.6614 78.9645 79.3878 66.5844 89.5942Z" fill="#FBD0CF"/>
<path d="M83.5047 120.385C95.2235 126.884 101.472 119.201 103.572 125.918C105.671 132.635 95.8682 146.183 88.4822 144.532C82.209 143.132 76.9143 139.029 74.0128 132.621C68.9073 121.341 69.4726 112.605 83.5047 120.385Z" fill="#FBD0CF"/>
<path d="M186.505 8.38509C198.223 14.8843 204.472 7.2007 206.572 13.9177C208.671 20.6347 198.868 34.1828 191.482 32.5324C185.209 31.1316 179.914 27.0293 177.013 20.6207C171.907 9.34108 172.473 0.604533 186.505 8.38509Z" fill="#FBD0CF"/>
<path d="M256.584 35.594C246.244 44.1173 251.104 52.7466 244.085 52.2393C237.066 51.732 228.051 37.6476 232.292 31.3796C235.894 26.0556 241.65 22.6318 248.676 22.2797C261.042 21.6611 268.964 25.3875 256.584 35.594Z" fill="#FBD0CF"/>
<path d="M328.584 39.5942C318.244 48.1175 323.104 56.7468 316.085 56.2395C309.066 55.7322 300.051 41.6478 304.292 35.3798C307.894 30.0559 313.65 26.6321 320.676 26.2799C333.042 25.6614 340.964 29.3878 328.584 39.5942Z" fill="#FBD0CF"/>
<path d="M212.309 7.33162C210.753 0.944882 200.817 4.72391 205.074 0.00154589C209.33 -4.72081 226.137 -11.6122 229.115 -9.16301C231.646 -7.0834 231.397 -3.44649 227.862 1.22764C221.641 9.45418 214.174 14.9781 212.309 7.33162Z" fill="#FBD0CF"/>
<path d="M153.309 147.332C151.753 140.945 141.817 144.724 146.074 140.002C150.33 135.279 167.137 128.388 170.115 130.837C172.646 132.917 172.397 136.554 168.862 141.228C162.641 149.454 155.174 154.978 153.309 147.332Z" fill="#FBD0CF"/>
<path d="M145.309 44.3316C143.753 37.9449 133.817 41.7239 138.074 37.0015C142.33 32.2792 159.137 25.3878 162.115 27.837C164.646 29.9166 164.397 33.5535 160.862 38.2276C154.641 46.4542 147.174 51.9781 145.309 44.3316Z" fill="#FBD0CF"/>
<path d="M328.584 39.5942C318.244 48.1175 323.104 56.7468 316.085 56.2395C309.066 55.7322 300.051 41.6478 304.292 35.3798C307.894 30.0559 313.65 26.6321 320.676 26.2799C333.042 25.6614 340.964 29.3878 328.584 39.5942Z" fill="#FBD0CF"/>
<path d="M282.033 23.6059C273.653 13.1493 264.957 17.8905 265.561 10.879C266.165 3.86756 280.372 -4.95312 286.581 -0.62595C291.855 3.04841 295.199 8.8517 295.455 15.8819C295.903 28.255 292.068 36.1252 282.033 23.6059Z" fill="#FBD0CF"/>
<path d="M282.033 23.6059C273.653 13.1493 264.957 17.8905 265.561 10.879C266.165 3.86756 280.372 -4.95312 286.581 -0.62595C291.855 3.04841 295.199 8.8517 295.455 15.8819C295.903 28.255 292.068 36.1252 282.033 23.6059Z" fill="#FBD0CF"/>
<path d="M30.5844 13.5942C20.244 22.1175 25.1044 30.7468 18.0852 30.2395C11.0661 29.7322 2.05089 15.6478 6.29226 9.37983C9.89373 4.05585 15.6505 0.632059 22.6765 0.279906C35.0423 -0.338632 42.9645 3.38776 30.5844 13.5942Z" fill="#FBD0CF"/>
<path d="M7.9225 46.404C7.07665 41.3849 3.31501 41.3493 4.81229 39.135C6.30957 36.9207 12.6543 36.6225 13.9137 39.2065C14.9836 41.401 15.0195 43.9448 13.8039 46.3243C11.6639 50.512 8.93581 52.4134 7.9225 46.404Z" fill="#FBD0CF"/>
<path d="M9.00738 179.238C7.28067 168.992 -0.39826 168.919 2.65826 164.399C5.71478 159.879 18.6668 159.27 21.2376 164.545C23.4217 169.025 23.4952 174.218 21.0135 179.075C16.6449 187.624 11.0759 191.506 9.00738 179.238Z" fill="#FBD0CF"/>
<path d="M321.064 130.352C321.064 130.352 340.289 112.464 362.175 123.503C384.061 134.541 376.828 156.242 393.962 165.759C411.089 175.275 408.806 166.52 408.806 166.52C408.806 166.52 397.006 157.956 390.156 138.353C383.307 118.751 365.034 103.9 339.528 108.85C314.022 113.8 308.886 129.214 308.886 129.214L321.07 130.359L321.064 130.352Z" fill="#FBD0CF"/>
<path d="M118.035 67.7813C118.035 67.7813 130.722 56.0096 145.163 63.2738C159.605 70.538 154.832 84.8181 166.138 91.0806C177.44 97.3431 175.933 91.5814 175.933 91.5814C175.933 91.5814 168.147 85.946 163.627 73.0464C159.107 60.1467 147.05 50.3741 130.219 53.6317C113.389 56.8892 110 67.0321 110 67.0321L118.04 67.7855L118.035 67.7813Z" fill="#FBD0CF"/>
<path d="M227.986 115.061C227.986 115.061 232.986 127.487 223.74 135.917C214.495 144.347 205.492 136.947 197.838 143.387C190.185 149.824 194.767 150.329 194.767 150.329C194.767 150.329 200.994 146.259 211.569 146.56C222.144 146.861 232.543 140.849 234.844 127.782C237.145 114.715 230.75 109.46 230.75 109.46L227.982 115.063L227.986 115.061Z" fill="#FBD0CF"/>
<path d="M163.965 164.219C163.965 164.219 151.278 175.99 136.837 168.726C122.395 161.462 127.168 147.182 115.862 140.919C104.56 134.657 106.067 140.419 106.067 140.419C106.067 140.419 113.853 146.054 118.373 158.954C122.893 171.853 134.95 181.626 151.781 178.368C168.611 175.111 172 164.968 172 164.968L163.96 164.215L163.965 164.219Z" fill="#FBD0CF"/>
<path d="M108.965 -7.78128C108.965 -7.78128 96.2785 3.99042 81.8367 -3.27378C67.395 -10.538 72.1681 -24.8181 60.862 -31.0806C49.5601 -37.3431 51.0668 -31.5814 51.0668 -31.5814C51.0668 -31.5814 58.8531 -25.946 63.3731 -13.0464C67.893 -0.146713 79.9503 9.62587 96.7807 6.36835C113.611 3.11082 117 -7.03214 117 -7.03214L108.96 -7.78549L108.965 -7.78128Z" fill="#FBD0CF"/>
<path d="M527.841 76.3933C527.841 76.3933 552.719 84.8002 553.415 109.303C554.111 133.805 531.581 137.76 531.356 157.359C531.128 176.951 537.745 170.779 537.745 170.779C537.745 170.779 539.668 156.327 553.655 140.98C567.643 125.633 572.019 102.497 555.536 82.4124C539.054 62.3282 523.052 65.1394 523.052 65.1394L527.838 76.402L527.841 76.3933Z" fill="#FBD0CF"/>
<path d="M516.528 163.863C516.528 163.863 512.778 178.316 524.217 186.279C535.656 194.242 544.555 184.756 553.948 190.754C563.339 196.748 558.342 197.973 558.342 197.973C558.342 197.973 550.868 194.386 539.21 196.26C527.553 198.133 515.184 193.009 510.765 178.912C506.345 164.815 512.666 158.079 512.666 158.079L516.533 163.864L516.528 163.863Z" fill="#FBD0CF"/>
<path d="M459.374 62.9953C459.374 62.9953 434.27 55.2899 432.887 30.8166C431.504 6.3433 453.914 1.75744 453.588 -17.8394C453.266 -37.4308 446.825 -31.0755 446.825 -31.0755C446.825 -31.0755 445.309 -16.5745 431.757 -0.841097C418.206 14.8923 414.481 38.1421 431.521 57.7558C448.561 77.3695 464.477 74.1104 464.477 74.1104L459.377 62.9865L459.374 62.9953Z" fill="#FBD0CF"/>
<path d="M486.053 170.984C493.939 157.342 495.205 141.519 487.39 128.99C480.38 117.746 469.399 112.374 450.551 115.246C429.387 118.475 409.42 141.116 410.085 163.923C410.316 171.764 416.334 201.274 447.308 197.52C466.207 195.23 478.992 183.206 486.06 170.99L486.053 170.984Z" fill="#FBD0CF"/>
<path d="M486.053 170.984C493.939 157.342 495.205 141.519 487.39 128.99C480.38 117.746 469.399 112.374 450.551 115.246C429.387 118.475 409.42 141.116 410.085 163.923C410.316 171.764 416.334 201.274 447.308 197.52C466.207 195.23 478.992 183.206 486.06 170.99L486.053 170.984Z" fill="#FBD0CF"/>
<path d="M475.507 132.872C479.024 135.827 481.928 141.276 482.779 145.926C485.759 162.19 474.714 178.339 460.112 184.21C430.513 196.113 411.902 164.735 430.008 141.084C431.786 138.756 435.189 135.725 437.485 133.819C438.418 133.045 439.512 132.335 440.58 131.606C450.845 124.526 465.67 124.603 475.507 132.866V132.872ZM467.832 136.594C454.51 129.201 438.521 137.963 432.733 150.742C428.659 159.734 430.11 171.169 438.84 176.676C439.263 176.938 441.245 178.122 441.386 178.173C456.345 183.763 473.121 170.914 475.884 156.191C477.272 148.791 474.567 140.336 467.832 136.594Z" fill="#F6884D"/>
<path d="M446.873 142.804C454.611 138.398 466.136 140.291 468.771 149.769C473.466 166.648 448.906 181.888 439.14 167.46C433.224 158.723 438.52 147.563 446.873 142.804ZM461.09 149.693C453.786 141.199 437.586 154.816 445.267 163.814C452.737 172.564 468.394 158.186 461.09 149.693Z" fill="#F6884D"/>
<path d="M332.024 -3.59706C330.837 -8.15427 327.784 -11.7856 323.492 -12.8098C319.64 -13.7296 316.177 -12.5669 312.771 -7.99906C308.947 -2.86901 309.454 6.13861 314.383 10.85C316.078 12.4694 323.554 17.4826 329.354 10.1813C332.893 5.72651 333.088 0.484939 332.026 -3.59704L332.024 -3.59706Z" fill="#FBD0CF"/>
<path d="M332.024 -3.59706C330.837 -8.15427 327.784 -11.7856 323.492 -12.8098C319.64 -13.7296 316.177 -12.5669 312.771 -7.99906C308.947 -2.86901 309.454 6.13861 314.383 10.85C316.078 12.4694 323.554 17.4826 329.354 10.1813C332.893 5.72651 333.088 0.484939 332.026 -3.59704L332.024 -3.59706Z" fill="#FBD0CF"/>
<path d="M321.779 -9.48932C323.148 -9.59934 324.909 -9.04991 326.067 -8.23952C330.115 -5.40585 331.156 0.347914 329.283 4.66216C325.486 13.4079 314.94 10.6413 313.826 1.80951C313.715 0.941065 313.803 -0.418069 313.891 -1.30549C313.927 -1.66613 314.01 -2.04673 314.085 -2.42605C314.782 -6.08703 317.951 -9.18315 321.778 -9.49068L321.779 -9.48932ZM320.928 -7.08633C316.543 -5.862 314.981 -0.641511 316.433 3.29164C317.454 6.0596 320.164 8.18711 323.177 7.52556C323.322 7.49271 323.992 7.32814 324.032 7.30948C328.388 5.3578 329.258 -0.897111 326.755 -4.6087C325.497 -6.47399 323.146 -7.70441 320.928 -7.08633Z" fill="#F6884D"/>
<path d="M317.774 -1.36522C318.495 -3.9272 321.344 -5.94413 323.894 -4.48129C328.436 -1.87688 326.412 6.5209 321.306 5.50229C318.213 4.88607 316.996 1.40048 317.774 -1.36522ZM322.244 -2.885C318.907 -3.15816 318.32 3.13915 321.843 3.44055C325.269 3.73321 325.581 -2.61184 322.244 -2.885Z" fill="#F6884D"/>
<path d="M342.582 49.5392C342.091 47.6558 340.83 46.155 339.056 45.7318C337.464 45.3516 336.032 45.8322 334.625 47.72C333.045 49.8401 333.254 53.5628 335.291 55.51C335.992 56.1793 339.081 58.2511 341.478 55.2336C342.941 53.3925 343.022 51.2263 342.583 49.5392L342.582 49.5392Z" fill="#FBD0CF"/>
<path d="M342.582 49.5392C342.091 47.6558 340.83 46.155 339.056 45.7318C337.464 45.3516 336.032 45.8322 334.625 47.72C333.045 49.8401 333.254 53.5628 335.291 55.51C335.992 56.1793 339.081 58.2511 341.478 55.2336C342.941 53.3925 343.022 51.2263 342.583 49.5392L342.582 49.5392Z" fill="#FBD0CF"/>
<path d="M338.348 47.1041C338.913 47.0586 339.642 47.2857 340.12 47.6206C341.793 48.7917 342.223 51.1696 341.449 52.9526C339.88 56.5671 335.521 55.4237 335.061 51.7737C335.015 51.4148 335.051 50.8531 335.088 50.4863C335.103 50.3373 335.137 50.18 335.168 50.0232C335.456 48.5102 336.766 47.2306 338.347 47.1035L338.348 47.1041ZM337.996 48.0972C336.184 48.6032 335.538 50.7607 336.138 52.3862C336.56 53.5302 337.68 54.4094 338.925 54.136C338.985 54.1225 339.262 54.0544 339.279 54.0467C341.079 53.2401 341.439 50.6551 340.404 49.1211C339.884 48.3503 338.913 47.8417 337.996 48.0972Z" fill="#F6884D"/>
<path d="M336.693 50.4616C336.99 49.4028 338.168 48.5692 339.222 49.1738C341.099 50.2501 340.262 53.7208 338.152 53.2998C336.874 53.0451 336.371 51.6046 336.693 50.4616ZM338.54 49.8335C337.161 49.7206 336.918 52.3232 338.374 52.4477C339.79 52.5687 339.919 49.9464 338.54 49.8335Z" fill="#F6884D"/>
<path d="M321.582 73.5387C321.091 71.6553 319.83 70.1545 318.055 69.7313C316.464 69.3511 315.032 69.8317 313.625 71.7195C312.045 73.8396 312.254 77.5623 314.291 79.5095C314.992 80.1788 318.081 82.2506 320.478 79.2331C321.941 77.392 322.021 75.2258 321.583 73.5388L321.582 73.5387Z" fill="#FBD0CF"/>
<path d="M321.582 73.5387C321.091 71.6553 319.83 70.1545 318.055 69.7313C316.464 69.3511 315.032 69.8317 313.625 71.7195C312.045 73.8396 312.254 77.5623 314.291 79.5095C314.992 80.1788 318.081 82.2506 320.478 79.2331C321.941 77.392 322.021 75.2258 321.583 73.5388L321.582 73.5387Z" fill="#FBD0CF"/>
<path d="M317.348 71.1036C317.913 71.0581 318.642 71.2852 319.12 71.6201C320.793 72.7912 321.223 75.1691 320.449 76.9522C318.88 80.5666 314.521 79.4232 314.061 75.7732C314.015 75.4143 314.051 74.8526 314.088 74.4858C314.103 74.3368 314.137 74.1795 314.168 74.0227C314.456 72.5097 315.766 71.2301 317.347 71.103L317.348 71.1036ZM316.996 72.0967C315.184 72.6027 314.538 74.7602 315.138 76.3857C315.56 77.5297 316.68 78.409 317.925 78.1355C317.985 78.122 318.262 78.054 318.279 78.0462C320.079 77.2396 320.439 74.6546 319.404 73.1207C318.884 72.3498 317.913 71.8413 316.996 72.0967Z" fill="#F6884D"/>
<path d="M315.693 74.4611C315.99 73.4023 317.168 72.5687 318.222 73.1733C320.099 74.2496 319.262 77.7203 317.152 77.2993C315.874 77.0447 315.371 75.6041 315.693 74.4611ZM317.54 73.833C316.161 73.7201 315.918 76.3227 317.374 76.4473C318.79 76.5682 318.919 73.9459 317.54 73.833Z" fill="#F6884D"/>
<path d="M390.582 81.5385C390.091 79.6551 388.83 78.1543 387.056 77.731C385.464 77.3509 384.032 77.8314 382.625 79.7192C381.045 81.8394 381.254 85.5621 383.291 87.5092C383.992 88.1785 387.081 90.2504 389.478 87.2329C390.941 85.3918 391.022 83.2255 390.583 81.5385L390.582 81.5385Z" fill="#FBD0CF"/>
<path d="M390.582 81.5385C390.091 79.6551 388.83 78.1543 387.056 77.731C385.464 77.3509 384.032 77.8314 382.625 79.7192C381.045 81.8394 381.254 85.5621 383.291 87.5092C383.992 88.1785 387.081 90.2504 389.478 87.2329C390.941 85.3918 391.022 83.2255 390.583 81.5385L390.582 81.5385Z" fill="#FBD0CF"/>
<path d="M386.348 79.1033C386.914 79.0579 387.642 79.2849 388.12 79.6199C389.793 80.791 390.223 83.1689 389.449 84.9519C387.88 88.5664 383.521 87.423 383.061 83.773C383.015 83.414 383.051 82.8523 383.088 82.4856C383.103 82.3365 383.137 82.1792 383.168 82.0225C383.456 80.5094 384.766 79.2299 386.347 79.1028L386.348 79.1033ZM385.996 80.0965C384.184 80.6024 383.538 82.76 384.138 84.3855C384.561 85.5294 385.68 86.4087 386.926 86.1353C386.985 86.1217 387.262 86.0537 387.279 86.046C389.079 85.2394 389.439 82.6544 388.404 81.1204C387.884 80.3495 386.913 79.841 385.996 80.0965Z" fill="#F6884D"/>
<path d="M384.693 82.4609C384.991 81.402 386.168 80.5685 387.222 81.173C389.099 82.2494 388.263 85.7201 386.152 85.2991C384.874 85.0444 384.371 83.6039 384.693 82.4609ZM386.54 81.8328C385.161 81.7199 384.919 84.3224 386.375 84.447C387.79 84.568 387.919 81.9457 386.54 81.8328Z" fill="#F6884D"/>
<path d="M454.582 22.5385C454.091 20.6551 452.83 19.1543 451.056 18.731C449.464 18.3509 448.032 18.8314 446.625 20.7192C445.045 22.8394 445.254 26.5621 447.291 28.5092C447.992 29.1785 451.081 31.2504 453.478 28.2329C454.941 26.3918 455.022 24.2255 454.583 22.5385L454.582 22.5385Z" fill="#FBD0CF"/>
<path d="M454.582 22.5385C454.091 20.6551 452.83 19.1543 451.056 18.731C449.464 18.3509 448.032 18.8314 446.625 20.7192C445.045 22.8394 445.254 26.5621 447.291 28.5092C447.992 29.1785 451.081 31.2504 453.478 28.2329C454.941 26.3918 455.022 24.2255 454.583 22.5385L454.582 22.5385Z" fill="#FBD0CF"/>
<path d="M450.348 20.1033C450.914 20.0579 451.642 20.2849 452.12 20.6199C453.793 21.791 454.223 24.1689 453.449 25.9519C451.88 29.5664 447.521 28.423 447.061 24.773C447.015 24.414 447.051 23.8523 447.088 23.4856C447.103 23.3365 447.137 23.1792 447.168 23.0225C447.456 21.5094 448.766 20.2299 450.347 20.1028L450.348 20.1033ZM449.996 21.0965C448.184 21.6024 447.538 23.76 448.138 25.3855C448.561 26.5294 449.68 27.4087 450.926 27.1353C450.985 27.1217 451.262 27.0537 451.279 27.046C453.079 26.2394 453.439 23.6544 452.404 22.1204C451.884 21.3495 450.913 20.841 449.996 21.0965Z" fill="#F6884D"/>
<path d="M448.693 23.4611C448.991 22.4023 450.168 21.5687 451.222 22.1733C453.099 23.2496 452.263 26.7203 450.152 26.2993C448.874 26.0447 448.371 24.6041 448.693 23.4611ZM450.54 22.833C449.161 22.7201 448.919 25.3227 450.375 25.4473C451.79 25.5682 451.919 22.9459 450.54 22.833Z" fill="#F6884D"/>
<path d="M418.582 5.5385C418.091 3.65508 416.83 2.1543 415.056 1.73105C413.464 1.35088 412.033 1.83143 410.625 3.71923C409.045 5.83939 409.254 9.5621 411.291 11.5092C411.992 12.1785 415.081 14.2504 417.478 11.2329C418.941 9.39178 419.022 7.22553 418.583 5.53851L418.582 5.5385Z" fill="#FBD0CF"/>
<path d="M418.582 5.5385C418.091 3.65508 416.83 2.1543 415.056 1.73105C413.464 1.35088 412.033 1.83143 410.625 3.71923C409.045 5.83939 409.254 9.5621 411.291 11.5092C411.992 12.1785 415.081 14.2504 417.478 11.2329C418.941 9.39178 419.022 7.22553 418.583 5.53851L418.582 5.5385Z" fill="#FBD0CF"/>
<path d="M414.348 3.10333C414.914 3.05786 415.642 3.28493 416.12 3.61986C417.793 4.79096 418.223 7.1689 417.449 8.95191C415.88 12.5664 411.522 11.423 411.061 7.77295C411.015 7.41404 411.051 6.85233 411.088 6.48558C411.103 6.33653 411.137 6.17923 411.168 6.02247C411.456 4.50944 412.766 3.22987 414.348 3.10277L414.348 3.10333ZM413.996 4.09645C412.184 4.60244 411.539 6.75999 412.139 8.38549C412.561 9.52945 413.68 10.4087 414.926 10.1353C414.986 10.1217 415.262 10.0537 415.279 10.046C417.079 9.2394 417.439 6.65435 416.405 5.12042C415.885 4.34952 414.913 3.84101 413.996 4.09645Z" fill="#F6884D"/>
<path d="M412.693 6.4611C412.991 5.40228 414.168 4.56872 415.222 5.17328C417.099 6.24964 416.263 9.72031 414.152 9.29933C412.874 9.04466 412.371 7.60412 412.693 6.4611ZM414.54 5.833C413.161 5.72011 412.919 8.32269 414.375 8.44725C415.79 8.5682 415.919 5.9459 414.54 5.833Z" fill="#F6884D"/>
<path d="M260.582 5.53875C260.091 3.65533 258.83 2.15454 257.056 1.73129C255.464 1.35112 254.033 1.83167 252.625 3.71947C251.045 5.83964 251.254 9.56234 253.291 11.5095C253.992 12.1788 257.081 14.2506 259.478 11.2331C260.941 9.39202 261.022 7.22577 260.583 5.53875L260.582 5.53875Z" fill="#FBD0CF"/>
<path d="M260.582 5.53875C260.091 3.65533 258.83 2.15454 257.056 1.73129C255.464 1.35112 254.033 1.83167 252.625 3.71947C251.045 5.83964 251.254 9.56234 253.291 11.5095C253.992 12.1788 257.081 14.2506 259.478 11.2331C260.941 9.39202 261.022 7.22577 260.583 5.53875L260.582 5.53875Z" fill="#FBD0CF"/>
<path d="M256.348 3.10358C256.914 3.05811 257.642 3.28518 258.12 3.6201C259.793 4.79121 260.223 7.16915 259.449 8.95215C257.88 12.5666 253.521 11.4232 253.061 7.7732C253.015 7.41429 253.051 6.85258 253.088 6.48582C253.103 6.33677 253.137 6.17948 253.168 6.02271C253.456 4.50969 254.766 3.23011 256.347 3.10301L256.348 3.10358ZM255.996 4.09669C254.184 4.60269 253.538 6.76023 254.138 8.38574C254.561 9.52969 255.68 10.409 256.926 10.1355C256.985 10.122 257.262 10.054 257.279 10.0462C259.079 9.23965 259.439 6.6546 258.404 5.12066C257.884 4.34976 256.913 3.84125 255.996 4.09669Z" fill="#F6884D"/>
<path d="M254.693 6.4611C254.991 5.40228 256.168 4.56872 257.222 5.17328C259.099 6.24964 258.263 9.72031 256.152 9.29933C254.874 9.04466 254.371 7.60412 254.693 6.4611ZM256.54 5.833C255.161 5.72011 254.919 8.32269 256.375 8.44725C257.79 8.5682 257.919 5.9459 256.54 5.833Z" fill="#F6884D"/>
<path d="M11.5816 145.539C11.0912 143.655 9.82962 142.155 8.0555 141.731C6.46376 141.351 5.03231 141.832 3.62463 143.719C2.04451 145.84 2.25373 149.562 4.29106 151.509C4.99164 152.179 8.08111 154.251 10.4782 151.233C11.9408 149.392 12.0214 147.226 11.5828 145.539L11.5816 145.539Z" fill="#FBD0CF"/>
<path d="M7.34789 143.104C7.91348 143.058 8.64152 143.285 9.11973 143.62C10.7929 144.791 11.2231 147.169 10.449 148.952C8.87984 152.567 4.52134 151.423 4.06085 147.773C4.01515 147.414 4.05121 146.853 4.08768 146.486C4.10261 146.337 4.13715 146.179 4.16778 146.023C4.45583 144.51 5.76569 143.23 7.34734 143.103L7.34789 143.104ZM6.9962 144.097C5.18363 144.603 4.53835 146.76 5.13829 148.386C5.56038 149.53 6.68021 150.409 7.92542 150.136C7.98528 150.122 8.26222 150.054 8.27903 150.046C10.079 149.24 10.4389 146.655 9.40432 145.121C8.88427 144.35 7.91284 143.841 6.9962 144.097Z" fill="#F6884D"/>
<path d="M5.69256 146.461C5.9905 145.402 7.16785 144.569 8.22189 145.173C10.099 146.25 9.2625 149.72 7.15209 149.299C5.87401 149.045 5.37118 147.604 5.69256 146.461ZM7.54001 145.833C6.16102 145.72 5.91838 148.323 7.37438 148.447C8.79018 148.568 8.919 145.946 7.54001 145.833Z" fill="#F6884D"/>
<path d="M11.5816 145.539C11.0912 143.655 9.82962 142.155 8.0555 141.731C6.46376 141.351 5.03231 141.832 3.62463 143.719C2.04451 145.84 2.25373 149.562 4.29106 151.509C4.99164 152.179 8.08111 154.251 10.4782 151.233C11.9408 149.392 12.0214 147.226 11.5828 145.539L11.5816 145.539Z" fill="#FBD0CF"/>
<path d="M7.34789 143.104C7.91348 143.058 8.64152 143.285 9.11973 143.62C10.7929 144.791 11.2231 147.169 10.449 148.952C8.87984 152.567 4.52134 151.423 4.06085 147.773C4.01515 147.414 4.05121 146.853 4.08768 146.486C4.10261 146.337 4.13715 146.179 4.16778 146.023C4.45583 144.51 5.76569 143.23 7.34734 143.103L7.34789 143.104ZM6.9962 144.097C5.18363 144.603 4.53835 146.76 5.13829 148.386C5.56038 149.53 6.68021 150.409 7.92542 150.136C7.98528 150.122 8.26222 150.054 8.27903 150.046C10.079 149.24 10.4389 146.655 9.40432 145.121C8.88427 144.35 7.91284 143.841 6.9962 144.097Z" fill="#F6884D"/>
<path d="M5.69256 146.461C5.9905 145.402 7.16785 144.569 8.22189 145.173C10.099 146.25 9.2625 149.72 7.15209 149.299C5.87401 149.045 5.37118 147.604 5.69256 146.461ZM7.54001 145.833C6.16102 145.72 5.91838 148.323 7.37438 148.447C8.79018 148.568 8.919 145.946 7.54001 145.833Z" fill="#F6884D"/>
<path d="M53.5818 143.539C53.0913 141.656 51.8297 140.155 50.0556 139.732C48.4639 139.351 47.0324 139.832 45.6248 141.72C44.0446 143.84 44.2538 147.563 46.2912 149.51C46.9918 150.179 50.0812 152.251 52.4783 149.233C53.9409 147.392 54.0215 145.226 53.5829 143.539L53.5818 143.539Z" fill="#FBD0CF"/>
<path d="M49.348 141.104C49.9136 141.058 50.6416 141.285 51.1199 141.62C52.793 142.791 53.2233 145.169 52.4492 146.952C50.88 150.567 46.5215 149.423 46.061 145.773C46.0153 145.415 46.0513 144.853 46.0878 144.486C46.1027 144.337 46.1373 144.18 46.1679 144.023C46.4559 142.51 47.7658 141.23 49.3475 141.103L49.348 141.104ZM48.9963 142.097C47.1837 142.603 46.5385 144.76 47.1384 146.386C47.5605 147.53 48.6803 148.409 49.9255 148.136C49.9854 148.122 50.2623 148.054 50.2792 148.046C52.0792 147.24 52.439 144.655 51.4044 143.121C50.8844 142.35 49.913 141.841 48.9963 142.097Z" fill="#F6884D"/>
<path d="M47.6927 144.461C47.9906 143.403 49.168 142.569 50.222 143.174C52.0991 144.25 51.2626 147.721 49.1522 147.3C47.8741 147.045 47.3713 145.604 47.6927 144.461ZM49.5401 143.833C48.1611 143.72 47.9185 146.323 49.3745 146.447C50.7903 146.568 50.9191 143.946 49.5401 143.833Z" fill="#F6884D"/>
<path d="M37.3773 65.7456C35.5404 58.6917 30.8154 53.0707 24.1708 51.4855C18.2092 50.0617 12.848 51.8615 7.57582 58.9319C1.65779 66.8726 2.44136 80.8152 10.0718 88.1079C12.6957 90.6146 24.2667 98.3743 33.2444 87.0728C38.7225 80.1774 39.0244 72.0641 37.3815 65.7457L37.3773 65.7456Z" fill="#FBD0CF"/>
<path d="M21.5205 56.6252C23.6388 56.4549 26.3656 57.3054 28.1566 58.5598C34.4231 62.9459 36.0345 71.852 33.1353 78.5299C27.2581 92.0672 10.9342 87.785 9.20952 74.1144C9.03837 72.7702 9.17343 70.6664 9.31001 69.2928C9.36595 68.7345 9.49531 68.1454 9.61002 67.5583C10.6888 61.8915 15.5947 57.0991 21.5184 56.6231L21.5205 56.6252ZM20.2033 60.3448C13.4147 62.2399 10.9979 70.3205 13.2449 76.4085C14.8257 80.693 19.0198 83.9861 23.6835 82.9621C23.9077 82.9113 24.945 82.6565 25.0079 82.6277C31.7495 79.6067 33.0972 69.9249 29.2225 64.1798C27.2747 61.2926 23.6364 59.388 20.2033 60.3448Z" fill="#F6884D"/>
<path d="M15.3208 69.2C16.4366 65.2344 20.8462 62.1125 24.7939 64.3767C31.8242 68.408 28.6913 81.4068 20.7872 79.8301C16.0004 78.8762 14.1171 73.481 15.3208 69.2ZM22.24 66.8476C17.0753 66.4248 16.1666 76.1722 21.6197 76.6388C26.9223 77.0918 27.4048 67.2704 22.24 66.8476Z" fill="#F6884D"/>
<path d="M284.377 126.746C282.54 119.692 277.815 114.071 271.171 112.486C265.209 111.062 259.848 112.861 254.576 119.932C248.658 127.873 249.441 141.815 257.072 149.108C259.696 151.615 271.267 159.374 280.244 148.073C285.723 141.177 286.024 133.064 284.381 126.746L284.377 126.746Z" fill="#FBD0CF"/>
<path d="M268.521 117.625C270.639 117.455 273.366 118.305 275.157 119.56C281.423 123.946 283.035 132.852 280.135 139.53C274.258 153.067 257.934 148.785 256.21 135.114C256.038 133.77 256.173 131.666 256.31 130.293C256.366 129.735 256.495 129.145 256.61 128.558C257.689 122.892 262.595 118.099 268.518 117.623L268.521 117.625ZM267.203 121.345C260.415 123.24 257.998 131.321 260.245 137.409C261.826 141.693 266.02 144.986 270.684 143.962C270.908 143.911 271.945 143.657 272.008 143.628C278.75 140.607 280.097 130.925 276.222 125.18C274.275 122.293 270.636 120.388 267.203 121.345Z" fill="#F6884D"/>
<path d="M262.321 130.2C263.437 126.234 267.846 123.112 271.794 125.377C278.824 129.408 275.691 142.407 267.787 140.83C263 139.876 261.117 134.481 262.321 130.2ZM269.24 127.848C264.075 127.425 263.167 137.172 268.62 137.639C273.922 138.092 274.405 128.27 269.24 127.848Z" fill="#F6884D"/>
<path d="M51.5819 5.53875C51.0914 3.65533 49.8299 2.15454 48.0557 1.73129C46.464 1.35112 45.0325 1.83167 43.6249 3.71947C42.0448 5.83964 42.254 9.56234 44.2913 11.5095C44.9919 12.1788 48.0814 14.2506 50.4784 11.2331C51.9411 9.39202 52.0217 7.22577 51.583 5.53875L51.5819 5.53875Z" fill="#FBD0CF"/>
<path d="M51.5819 5.53875C51.0914 3.65533 49.8299 2.15454 48.0557 1.73129C46.464 1.35112 45.0325 1.83167 43.6249 3.71947C42.0448 5.83964 42.254 9.56234 44.2913 11.5095C44.9919 12.1788 48.0814 14.2506 50.4784 11.2331C51.9411 9.39202 52.0217 7.22577 51.583 5.53875L51.5819 5.53875Z" fill="#FBD0CF"/>
<path d="M47.348 3.10358C47.9136 3.05811 48.6416 3.28518 49.1199 3.6201C50.793 4.79121 51.2233 7.16915 50.4492 8.95215C48.88 12.5666 44.5215 11.4232 44.061 7.7732C44.0153 7.41429 44.0513 6.85258 44.0878 6.48582C44.1027 6.33677 44.1373 6.17948 44.1679 6.02271C44.4559 4.50969 45.7658 3.23011 47.3475 3.10301L47.348 3.10358ZM46.9963 4.09669C45.1837 4.60269 44.5385 6.76023 45.1384 8.38574C45.5605 9.52969 46.6803 10.409 47.9255 10.1355C47.9854 10.122 48.2623 10.054 48.2792 10.0462C50.0792 9.23965 50.439 6.6546 49.4044 5.12066C48.8844 4.34976 47.913 3.84125 46.9963 4.09669Z" fill="#F6884D"/>
<path d="M45.6927 6.4611C45.9906 5.40228 47.168 4.56872 48.222 5.17328C50.0991 6.24964 49.2626 9.72031 47.1522 9.29933C45.8741 9.04466 45.3713 7.60412 45.6927 6.4611ZM47.5401 5.833C46.1611 5.72011 45.9185 8.32269 47.3745 8.44725C48.7903 8.5682 48.9191 5.9459 47.5401 5.833Z" fill="#F6884D"/>
<path d="M394.885 6.06331C384.991 -0.645468 373.087 -2.4639 363.181 2.76883C354.292 7.46167 349.63 15.479 350.778 29.8972C352.072 46.0867 368.118 62.4266 385.412 63.1632C391.358 63.4153 414.014 60.4656 412.858 36.8237C412.152 22.3985 403.749 12.0706 394.89 6.05881L394.885 6.06331Z" fill="#FBD0CF"/>
<path d="M365.473 11.9716C367.9 9.47046 372.181 7.56957 375.746 7.1787C388.215 5.80769 399.834 15.0435 403.483 26.4113C410.88 49.4556 386.125 61.8328 369.213 46.8463C367.548 45.3744 365.439 42.6349 364.122 40.7939C363.587 40.0453 363.11 39.1792 362.616 38.3313C357.817 30.179 358.681 18.9651 365.468 11.9712L365.473 11.9716ZM367.872 17.9813C361.554 27.6601 367.314 40.2352 376.669 45.3097C383.252 48.8814 391.984 48.4045 396.625 42.0979C396.847 41.7928 397.85 40.3569 397.896 40.2532C402.939 29.2374 394.129 15.8449 383.138 12.9538C377.614 11.5013 371.07 13.0887 367.872 17.9813Z" fill="#F6884D"/>
<path d="M371.432 34.1788C368.518 28.0834 370.577 19.4656 377.892 17.987C390.919 15.3524 401.117 34.7647 389.668 41.3702C382.735 45.3718 374.578 40.7579 371.432 34.1788ZM377.417 23.7951C370.593 28.86 380.015 41.8588 387.242 36.5358C394.269 31.3589 384.241 18.7301 377.417 23.7951Z" fill="#F6884D"/>
<path d="M143.451 79.7531C136.392 74.9665 127.899 73.6691 120.832 77.4026C114.489 80.7508 111.163 86.4711 111.982 96.7581C112.905 108.309 124.354 119.967 136.693 120.493C140.935 120.673 157.1 118.568 156.275 101.7C155.772 91.4079 149.776 84.0392 143.455 79.7499L143.451 79.7531Z" fill="#FBD0CF"/>
<path d="M122.467 83.9684C124.198 82.184 127.253 80.8277 129.796 80.5488C138.692 79.5706 146.982 86.1602 149.586 94.2709C154.864 110.713 137.202 119.543 125.135 108.851C123.947 107.801 122.443 105.846 121.503 104.533C121.121 103.998 120.78 103.381 120.428 102.776C117.004 96.9591 117.62 88.9582 122.463 83.9682L122.467 83.9684ZM124.178 88.2563C119.67 95.1619 123.78 104.134 130.455 107.755C135.152 110.303 141.382 109.963 144.693 105.463C144.851 105.245 145.567 104.221 145.6 104.147C149.198 96.2873 142.912 86.732 135.07 84.6692C131.129 83.6329 126.46 84.7655 124.178 88.2563Z" fill="#F6884D"/>
<path d="M126.718 99.813C124.639 95.464 126.108 89.3154 131.328 88.2604C140.622 86.3807 147.898 100.231 139.729 104.944C134.783 107.799 128.963 104.507 126.718 99.813ZM130.988 92.4044C126.12 96.0181 132.842 105.292 137.999 101.495C143.012 97.801 135.857 88.7906 130.988 92.4044Z" fill="#F6884D"/>
<mask id="mask2_2003_3024" style="mask-type:alpha" maskUnits="userSpaceOnUse" x="243" y="53" width="46" height="51">
<path d="M279.901 62.1206C273.529 55.5619 264.893 52.3553 256.662 54.7403C249.276 56.8784 244.542 62.1618 243.168 73.1404C241.628 85.4685 251.117 100.195 263.957 103.426C268.372 104.537 285.802 105.838 288.598 87.9481C290.305 77.0328 285.611 67.9941 279.906 62.118L279.901 62.1206Z" fill="#F6884D"/>
</mask>
<g mask="url(#mask2_2003_3024)">
<path d="M279.901 62.1206C273.529 55.5619 264.893 52.3553 256.662 54.7403C249.276 56.8784 244.542 62.1618 243.168 73.1404C241.628 85.4685 251.117 100.195 263.957 103.426C268.372 104.537 285.802 105.838 288.598 87.9481C290.305 77.0328 285.611 67.9941 279.906 62.118L279.901 62.1206Z" fill="#F6884D"/>
<path d="M279.901 62.1206C273.529 55.5619 264.893 52.3553 256.662 54.7403C249.276 56.8784 244.542 62.1618 243.168 73.1404C241.628 85.4685 251.117 100.195 263.957 103.426C268.372 104.537 285.802 105.838 288.598 87.9481C290.305 77.0328 285.611 67.9941 279.906 62.118L279.901 62.1206Z" fill="#F6884D"/>
<path d="M274.808 49.8813C261.865 46.6891 241.501 69.2267 232.936 80.8945L226.746 93.4255L247.415 109.325L279.111 117.834C286.597 115.925 299.053 109.145 288.989 97.3007C278.925 85.4563 285.166 74.5195 289.545 70.5316C292.004 66.9991 294.365 60.9729 284.135 65.1283C273.905 69.2838 277.251 93.0001 280.202 104.339L274.842 107.551L269.48 108.96C270.239 104.506 270.949 94.9466 267.712 92.3464C264.475 89.7461 260.067 98.7098 258.268 103.517L252.859 99.9155C255.67 96.2216 260.518 88.2276 257.422 85.8031C254.327 83.3786 249.22 89.3683 247.053 92.6662C237.311 95.661 222.864 98.8431 243.006 87.6138C263.149 76.3845 275.504 62.9063 279.164 57.5709C276.291 55.7851 271.073 52.8725 273.184 55.5085C275.296 58.1446 251.951 74.3193 240.014 82.0772C241.949 83.8929 244.157 86.9801 237.51 84.8039C230.863 82.6276 255.592 63.1086 268.788 53.6211C276.187 53.7046 287.75 53.0736 274.808 49.8813Z" fill="#FBD0CF"/>
</g>
<mask id="mask3_2003_3024" style="mask-type:alpha" maskUnits="userSpaceOnUse" x="35" y="24" width="24" height="26">
<path d="M53.9456 28.3054C50.7077 24.9728 46.3197 23.3434 42.1373 24.5553C38.3843 25.6417 35.9785 28.3264 35.2803 33.9049C34.498 40.1691 39.3194 47.6521 45.8442 49.2941C48.0875 49.8582 56.9438 50.5192 58.3649 41.4291C59.2322 35.8827 56.8468 31.2899 53.9479 28.3041L53.9456 28.3054Z" fill="#F6884D"/>
</mask>
<g mask="url(#mask3_2003_3024)">
<path d="M53.9456 28.3054C50.7077 24.9728 46.3197 23.3434 42.1373 24.5553C38.3843 25.6417 35.9785 28.3264 35.2803 33.9049C34.498 40.1691 39.3194 47.6521 45.8442 49.2941C48.0875 49.8582 56.9438 50.5192 58.3649 41.4291C59.2322 35.8827 56.8468 31.2899 53.9479 28.3041L53.9456 28.3054Z" fill="#F6884D"/>
<path d="M53.9456 28.3054C50.7077 24.9728 46.3197 23.3434 42.1373 24.5553C38.3843 25.6417 35.9785 28.3264 35.2803 33.9049C34.498 40.1691 39.3194 47.6521 45.8442 49.2941C48.0875 49.8582 56.9438 50.5192 58.3649 41.4291C59.2322 35.8827 56.8468 31.2899 53.9479 28.3041L53.9456 28.3054Z" fill="#F6884D"/>
<path d="M51.3574 22.0865C44.781 20.4644 34.4333 31.9164 30.0815 37.8452L26.936 44.2125L37.4382 52.2916L53.5443 56.615C57.3481 55.6449 63.6773 52.2001 58.5635 46.1816C53.4497 40.1631 56.6209 34.6058 58.8458 32.5795C60.0955 30.7845 61.2953 27.7224 56.0969 29.8339C50.8986 31.9454 52.5987 43.9963 54.0986 49.7578L51.3747 51.3899L48.6503 52.1062C49.0361 49.8427 49.3965 44.9854 47.7519 43.6642C46.1072 42.3429 43.8675 46.8976 42.9532 49.3401L40.2049 47.5102C41.6333 45.6333 44.0966 41.5713 42.5235 40.3394C40.9504 39.1074 38.3554 42.1509 37.2545 43.8267C32.3045 45.3484 24.9632 46.9653 35.1982 41.2594C45.4331 35.5535 51.7112 28.7048 53.5708 25.9938C52.111 25.0863 49.4597 23.6064 50.5326 24.9458C51.6055 26.2853 39.7431 34.5041 33.6777 38.4461C34.661 39.3687 35.7832 40.9374 32.4055 39.8316C29.0278 38.7258 41.5935 28.8076 48.2985 23.9868C52.0583 24.0292 57.9337 23.7086 51.3574 22.0865Z" fill="#FBD0CF"/>
</g>
<mask id="mask4_2003_3024" style="mask-type:alpha" maskUnits="userSpaceOnUse" x="174" y="100" width="24" height="26">
<path d="M192.946 104.305C189.708 100.973 185.32 99.3434 181.137 100.555C177.384 101.642 174.978 104.326 174.28 109.905C173.498 116.169 178.319 123.652 184.844 125.294C187.088 125.858 195.944 126.519 197.365 117.429C198.232 111.883 195.847 107.29 192.948 104.304L192.946 104.305Z" fill="#F6884D"/>
</mask>
<g mask="url(#mask4_2003_3024)">
<path d="M192.946 104.305C189.708 100.973 185.32 99.3434 181.137 100.555C177.384 101.642 174.978 104.326 174.28 109.905C173.498 116.169 178.319 123.652 184.844 125.294C187.088 125.858 195.944 126.519 197.365 117.429C198.232 111.883 195.847 107.29 192.948 104.304L192.946 104.305Z" fill="#F6884D"/>
<path d="M192.946 104.305C189.708 100.973 185.32 99.3434 181.137 100.555C177.384 101.642 174.978 104.326 174.28 109.905C173.498 116.169 178.319 123.652 184.844 125.294C187.088 125.858 195.944 126.519 197.365 117.429C198.232 111.883 195.847 107.29 192.948 104.304L192.946 104.305Z" fill="#F6884D"/>
<path d="M190.357 98.0865C183.781 96.4644 173.433 107.916 169.081 113.845L165.936 120.213L176.438 128.292L192.544 132.615C196.348 131.645 202.677 128.2 197.563 122.182C192.45 116.163 195.621 110.606 197.846 108.579C199.095 106.784 200.295 103.722 195.097 105.834C189.899 107.945 191.599 119.996 193.099 125.758L190.375 127.39L187.65 128.106C188.036 125.843 188.396 120.985 186.752 119.664C185.107 118.343 182.867 122.898 181.953 125.34L179.205 123.51C180.633 121.633 183.097 117.571 181.524 116.339C179.95 115.107 177.355 118.151 176.255 119.827C171.305 121.348 163.963 122.965 174.198 117.259C184.433 111.553 190.711 104.705 192.571 101.994C191.111 101.086 188.46 99.6064 189.533 100.946C190.605 102.285 178.743 110.504 172.678 114.446C173.661 115.369 174.783 116.937 171.405 115.832C168.028 114.726 180.593 104.808 187.299 99.9868C191.058 100.029 196.934 99.7086 190.357 98.0865Z" fill="#FBD0CF"/>
</g>
<mask id="mask5_2003_3024" style="mask-type:alpha" maskUnits="userSpaceOnUse" x="79" y="81" width="30" height="32">
<path d="M102.871 86.225C98.8035 82.0389 93.2918 79.9922 88.0383 81.5145C83.3242 82.8792 80.3022 86.2513 79.4253 93.2585C78.4426 101.127 84.4988 110.526 92.6945 112.589C95.5123 113.297 106.637 114.128 108.422 102.71C109.511 95.7429 106.515 89.9739 102.874 86.2234L102.871 86.225Z" fill="#F6884D"/>
</mask>
<g mask="url(#mask5_2003_3024)">
<path d="M102.871 86.225C98.8035 82.0389 93.2918 79.9922 88.0383 81.5145C83.3242 82.8792 80.3022 86.2513 79.4253 93.2585C78.4426 101.127 84.4988 110.526 92.6945 112.589C95.5123 113.297 106.637 114.128 108.422 102.71C109.511 95.7429 106.515 89.9739 102.874 86.2234L102.871 86.225Z" fill="#F6884D"/>
<path d="M99.6196 78.4132C91.359 76.3757 78.3613 90.7605 72.895 98.2076L68.944 106.206L82.1358 116.354L102.367 121.784C107.144 120.566 115.095 116.239 108.671 108.679C102.248 101.119 106.231 94.1386 109.026 91.5934C110.595 89.3387 112.102 85.4924 105.573 88.1447C99.0433 90.7969 101.179 105.934 103.063 113.171L99.6413 115.221L96.2192 116.121C96.7038 113.278 97.1565 107.176 95.0907 105.517C93.0249 103.857 90.2116 109.578 89.0631 112.646L85.611 110.348C87.4052 107.99 90.4994 102.888 88.5234 101.341C86.5474 99.7931 83.2878 103.616 81.905 105.721C75.6874 107.632 66.466 109.663 79.3221 102.496C92.1782 95.329 100.064 86.7265 102.4 83.3211C100.566 82.1813 97.236 80.3223 98.5836 82.0048C99.9312 83.6873 85.0309 94.0109 77.4123 98.9624C78.6474 100.121 80.0569 102.092 75.8142 100.703C71.5715 99.3137 87.3552 86.8556 95.7774 80.8001C100.5 80.8534 107.88 80.4506 99.6196 78.4132Z" fill="#FBD0CF"/>
</g>
<mask id="mask6_2003_3024" style="mask-type:alpha" maskUnits="userSpaceOnUse" x="198" y="38" width="30" height="32">
<path d="M221.871 43.225C217.804 39.0389 212.292 36.9922 207.038 38.5145C202.324 39.8792 199.302 43.2513 198.425 50.2585C197.443 58.127 203.499 67.5263 211.694 69.5888C214.512 70.2973 225.637 71.1277 227.422 59.7096C228.511 52.7429 225.515 46.9739 221.874 43.2234L221.871 43.225Z" fill="#F6884D"/>
</mask>
<g mask="url(#mask6_2003_3024)">
<path d="M221.871 43.225C217.804 39.0389 212.292 36.9922 207.038 38.5145C202.324 39.8792 199.302 43.2513 198.425 50.2585C197.443 58.127 203.499 67.5263 211.694 69.5888C214.512 70.2973 225.637 71.1277 227.422 59.7096C228.511 52.7429 225.515 46.9739 221.874 43.2234L221.871 43.225Z" fill="#F6884D"/>
<path d="M218.62 35.4132C210.359 33.3757 197.361 47.7605 191.895 55.2076L187.944 63.2055L201.136 73.3536L221.367 78.7842C226.144 77.5657 234.095 73.2387 227.671 65.6789C221.248 58.1192 225.231 51.1386 228.026 48.5934C229.595 46.3387 231.102 42.4924 224.573 45.1447C218.043 47.7969 220.179 62.934 222.063 70.171L218.641 72.2211L215.219 73.1208C215.704 70.2777 216.157 64.1764 214.091 62.5168C212.025 60.8572 209.212 66.5783 208.063 69.6463L204.611 67.3478C206.405 64.9902 209.499 59.888 207.523 58.3405C205.547 56.7931 202.288 60.616 200.905 62.7209C194.687 64.6324 185.466 66.6634 198.322 59.4962C211.178 52.329 219.064 43.7265 221.4 40.3211C219.566 39.1813 216.236 37.3223 217.584 39.0048C218.931 40.6873 204.031 51.0109 196.412 55.9624C197.647 57.1213 199.057 59.0917 194.814 57.7027C190.571 56.3137 206.355 43.8556 214.777 37.8001C219.5 37.8534 226.88 37.4506 218.62 35.4132Z" fill="#FBD0CF"/>
</g>
<mask id="mask7_2003_3024" style="mask-type:alpha" maskUnits="userSpaceOnUse" x="5" y="97" width="33" height="40">
<path d="M36.7274 110.466C34.7806 104.006 30.2128 98.9725 24.0111 97.7395C18.4468 96.6318 13.5511 98.4848 8.92273 105.21C3.72755 112.762 4.94187 125.631 12.2558 132.109C14.7709 134.335 25.7461 141.107 33.6534 130.338C38.4784 123.768 38.4727 116.252 36.7312 110.466L36.7274 110.466Z" fill="#F6884D"/>
</mask>
<g mask="url(#mask7_2003_3024)">
<path d="M36.7274 110.466C34.7806 104.006 30.2128 98.9725 24.0111 97.7395C18.4468 96.6318 13.5511 98.4848 8.92273 105.21C3.72755 112.762 4.94187 125.631 12.2558 132.109C14.7709 134.335 25.7461 141.107 33.6534 130.338C38.4784 123.768 38.4727 116.252 36.7312 110.466L36.7274 110.466Z" fill="#F6884D"/>
<path d="M37.5472 100.719C30.1534 94.2324 9.15981 102.08 -0.412763 106.815L-8.72329 112.921L-0.583914 130.355L17.2897 146.693C22.8417 147.984 33.3032 147.774 30.7332 136.597C28.1631 125.421 35.9655 120.376 40.188 119.251C42.9987 117.772 46.5919 114.626 38.4793 113.874C30.3667 113.122 24.5043 129.794 22.5871 138.223L17.9849 138.507L13.9939 137.609C16.004 134.949 19.715 128.928 18.4779 126.126C17.2408 123.323 11.3094 127.698 8.4983 130.236L6.17831 126.04C9.27409 124.575 15.1645 120.985 13.9599 118.345C12.7553 115.706 7.37582 117.895 4.83664 119.32C-2.56167 117.973 -13.1063 115.151 3.90155 114.636C20.9094 114.12 33.58 109.487 37.7892 107.235C36.5139 105.09 34.0851 101.41 34.573 103.854C35.0608 106.298 14.2754 108.965 3.82172 109.993C4.47271 111.839 4.87087 114.612 1.25558 110.929C-2.35972 107.246 20.4681 102.858 32.3339 101.124C37.1524 103.692 44.941 107.205 37.5472 100.719Z" fill="#FBD0CF"/>
</g>
<path d="M520.175 44.1377C525.229 33.3044 525.135 21.2625 518.397 12.3131C512.352 4.28156 503.697 0.95087 489.644 4.37284C473.865 8.21925 460.278 26.6555 462.296 43.847C462.991 49.7574 469.499 71.6589 492.657 66.7645C506.788 63.779 515.651 53.8432 520.181 44.1421L520.175 44.1377Z" fill="#FBD0CF"/>
<path d="M509.674 16.0363C512.529 18.0356 515.085 21.9608 516.036 25.4182C519.369 37.5115 512.094 50.4493 501.45 55.8561C479.871 66.8168 463.722 44.3404 475.835 25.2641C477.024 23.3867 479.394 20.8697 481.003 19.2769C481.657 18.63 482.436 18.0209 483.195 17.3989C490.482 11.3666 501.691 10.44 509.674 16.0314L509.674 16.0363ZM504.121 19.359C493.562 14.6564 482.061 22.34 478.535 32.3815C476.054 39.4478 477.91 47.9934 484.874 51.5751C485.21 51.7453 486.787 52.5078 486.897 52.5371C498.573 55.7679 510.398 44.9435 511.508 33.6336C512.065 27.9493 509.459 21.7392 504.121 19.359Z" fill="#F6884D"/>
<path d="M488.694 25.4441C494.25 21.5999 503.085 22.2651 505.706 29.2532C510.375 41.6966 492.827 54.8456 484.488 44.5902C479.437 38.3807 482.698 29.5948 488.694 25.4441ZM499.896 29.7053C493.812 23.7717 482.474 35.1379 488.876 41.4283C495.103 47.5442 505.98 35.6389 499.896 29.7053Z" fill="#F6884D"/>
<path d="M590.197 -11.8149C587.256 -23.4015 579.564 -32.6671 568.683 -35.3339C558.921 -37.7291 550.111 -34.8318 541.394 -23.2901C531.608 -10.3279 532.752 12.545 545.192 24.5814C549.47 28.7187 568.367 41.5611 583.204 23.1181C592.257 11.8656 592.834 -1.43656 590.204 -11.8148L590.197 -11.8149Z" fill="#FBD0CF"/>
<path d="M564.285 -26.9318C567.76 -27.1896 572.223 -25.7674 575.148 -23.6922C585.38 -16.4359 587.933 -1.81429 583.11 9.10766C573.336 31.2484 546.609 24.0608 543.919 1.62471C543.652 -0.58148 543.894 -4.03013 544.132 -6.28138C544.23 -7.19626 544.448 -8.16108 544.642 -9.12277C546.468 -18.4049 554.562 -26.2145 564.281 -26.9352L564.285 -26.9318ZM562.087 -20.8453C550.935 -17.8061 546.89 -4.57888 550.513 5.42771C553.062 12.4699 559.907 17.9127 567.566 16.2806C567.934 16.1995 569.637 15.7922 569.741 15.7455C580.827 10.8595 583.135 -5.00434 576.839 -14.465C573.674 -19.2195 567.727 -22.3796 562.087 -20.8453Z" fill="#F6884D"/>
<path d="M553.991 -6.37222C555.861 -12.8643 563.123 -17.9394 569.574 -14.1863C581.063 -7.50422 575.794 13.781 562.848 11.1155C555.007 9.50289 551.973 0.63605 553.991 -6.37222ZM565.361 -10.1601C556.896 -10.9057 555.307 5.0702 564.245 5.8904C572.936 6.68688 573.827 -9.41451 565.361 -10.1601Z" fill="#F6884D"/>
<path d="M80.5389 40.246C76.8959 39.7808 76.0849 42.3711 74.8687 40.8741C73.6526 39.3771 74.7732 34.9331 76.8211 34.6037C78.5603 34.3236 80.3245 34.8307 81.7136 36.1677C84.1581 38.5211 84.9009 40.8027 80.5389 40.246Z" fill="#FBD0CF"/>
<path d="M68.3778 38.5116C64.7348 38.0464 63.9237 40.6367 62.7076 39.1397C61.4915 37.6427 62.6121 33.1988 64.6599 32.8693C66.3991 32.5893 68.1634 33.0963 69.5525 34.4333C71.997 36.7868 72.7398 39.0683 68.3778 38.5116Z" fill="#8D33B3"/>
<path d="M66.4927 19.5808C65.8489 20.7458 67.8551 21.545 66.5697 21.665C65.2842 21.7851 61.8222 20.5075 61.7126 19.7342C61.6192 19.0774 62.1558 18.5697 63.3265 18.3578C65.3872 17.9852 67.2632 18.1858 66.4927 19.5808Z" fill="#8D33B3"/>
<path d="M90.4131 35.9991C91.7428 35.9403 91.3777 33.812 92.1509 34.8458C92.9241 35.8797 93.641 39.4996 93.0386 39.9967C92.527 40.419 91.8139 40.2263 91.0222 39.3382C89.6289 37.7749 88.8211 36.0699 90.4131 35.9991Z" fill="#8D33B3"/>
<path d="M76.5663 22.2766C74.9129 22.0654 74.5448 23.241 73.9928 22.5616C73.4409 21.8822 73.9495 19.8653 74.8789 19.7158C75.6682 19.5887 76.4689 19.8188 77.0994 20.4256C78.2088 21.4937 78.546 22.5292 76.5663 22.2766Z" fill="#FBD0CF"/>
<path d="M66.4516 53.9172C66.0082 50.2715 63.298 50.1212 64.4506 48.5747C65.6032 47.0283 70.1863 47.0236 71.0084 48.9279C71.7069 50.5451 71.6485 52.3798 70.6935 54.0547C69.0122 57.0022 66.9829 58.2823 66.4516 53.9172Z" fill="#FBD0CF"/>
<path d="M215.539 119.246C211.896 118.781 211.085 121.371 209.869 119.874C208.653 118.377 209.773 113.933 211.821 113.604C213.56 113.324 215.325 113.831 216.714 115.168C219.158 117.521 219.901 119.803 215.539 119.246Z" fill="#FBD0CF"/>
<path d="M203.378 117.512C199.735 117.046 198.924 119.637 197.708 118.14C196.491 116.643 197.612 112.199 199.66 111.869C201.399 111.589 203.163 112.096 204.552 113.433C206.997 115.787 207.74 118.068 203.378 117.512Z" fill="#8D33B3"/>
<path d="M201.493 98.5808C200.849 99.7458 202.855 100.545 201.57 100.665C200.284 100.785 196.822 99.5075 196.713 98.7342C196.619 98.0774 197.156 97.5697 198.327 97.3578C200.387 96.9852 202.263 97.1858 201.493 98.5808Z" fill="#8D33B3"/>
<path d="M225.413 114.999C226.743 114.94 226.378 112.812 227.151 113.846C227.924 114.88 228.641 118.5 228.039 118.997C227.527 119.419 226.814 119.226 226.022 118.338C224.629 116.775 223.821 115.07 225.413 114.999Z" fill="#8D33B3"/>
<path d="M211.566 101.277C209.913 101.065 209.545 102.241 208.993 101.562C208.441 100.882 208.949 98.8653 209.879 98.7158C210.668 98.5887 211.469 98.8188 212.099 99.4256C213.209 100.494 213.546 101.529 211.566 101.277Z" fill="#FBD0CF"/>
<path d="M201.452 132.917C201.008 129.271 198.298 129.121 199.451 127.575C200.603 126.028 205.186 126.024 206.008 127.928C206.707 129.545 206.649 131.38 205.693 133.055C204.012 136.002 201.983 137.282 201.452 132.917Z" fill="#FBD0CF"/>
<path d="M30.5844 13.5942C20.244 22.1175 25.1044 30.7468 18.0852 30.2395C11.0661 29.7322 2.05089 15.6478 6.29226 9.37983C9.89373 4.05585 15.6505 0.632059 22.6765 0.279906C35.0423 -0.338632 42.9645 3.38776 30.5844 13.5942Z" fill="#FBD0CF"/>
<path d="M541.582 40.5392C541.091 38.6558 539.83 37.155 538.055 36.7318C536.464 36.3516 535.032 36.8322 533.625 38.72C532.045 40.8401 532.254 44.5628 534.291 46.51C534.992 47.1793 538.081 49.2511 540.478 46.2336C541.941 44.3925 542.021 42.2263 541.583 40.5392L541.582 40.5392Z" fill="#FBD0CF"/>
<path d="M541.582 40.5392C541.091 38.6558 539.83 37.155 538.055 36.7318C536.464 36.3516 535.032 36.8322 533.625 38.72C532.045 40.8401 532.254 44.5628 534.291 46.51C534.992 47.1793 538.081 49.2511 540.478 46.2336C541.941 44.3925 542.021 42.2263 541.583 40.5392L541.582 40.5392Z" fill="#FBD0CF"/>
<path d="M537.348 38.1041C537.913 38.0586 538.642 38.2857 539.12 38.6206C540.793 39.7917 541.223 42.1696 540.449 43.9526C538.88 47.5671 534.521 46.4237 534.061 42.7737C534.015 42.4148 534.051 41.8531 534.088 41.4863C534.103 41.3373 534.137 41.18 534.168 41.0232C534.456 39.5102 535.766 38.2306 537.347 38.1035L537.348 38.1041ZM536.996 39.0972C535.184 39.6032 534.538 41.7607 535.138 43.3862C535.56 44.5302 536.68 45.4094 537.925 45.136C537.985 45.1225 538.262 45.0544 538.279 45.0467C540.079 44.2401 540.439 41.6551 539.404 40.1211C538.884 39.3503 537.913 38.8417 536.996 39.0972Z" fill="#F6884D"/>
<path d="M535.693 41.4616C535.99 40.4028 537.168 39.5692 538.222 40.1738C540.099 41.2501 539.262 44.7208 537.152 44.2998C535.874 44.0451 535.371 42.6046 535.693 41.4616ZM537.54 40.8335C536.161 40.7206 535.918 43.3232 537.374 43.4477C538.79 43.5687 538.919 40.9464 537.54 40.8335Z" fill="#F6884D"/>
<path d="M601.582 33.539C601.091 31.6556 599.83 30.1548 598.056 29.7315C596.464 29.3514 595.032 29.8319 593.625 31.7197C592.045 33.8399 592.254 37.5626 594.291 39.5097C594.992 40.179 598.081 42.2509 600.478 39.2333C601.941 37.3923 602.022 35.226 601.583 33.539L601.582 33.539Z" fill="#FBD0CF"/>
<path d="M601.582 33.539C601.091 31.6556 599.83 30.1548 598.056 29.7315C596.464 29.3514 595.032 29.8319 593.625 31.7197C592.045 33.8399 592.254 37.5626 594.291 39.5097C594.992 40.179 598.081 42.2509 600.478 39.2333C601.941 37.3923 602.022 35.226 601.583 33.539L601.582 33.539Z" fill="#FBD0CF"/>
<path d="M597.348 31.1038C597.913 31.0584 598.642 31.2854 599.12 31.6203C600.793 32.7915 601.223 35.1694 600.449 36.9524C598.88 40.5669 594.521 39.4235 594.061 35.7734C594.015 35.4145 594.051 34.8528 594.088 34.4861C594.103 34.337 594.137 34.1797 594.168 34.023C594.456 32.5099 595.766 31.2304 597.347 31.1033L597.348 31.1038ZM596.996 32.0969C595.184 32.6029 594.538 34.7605 595.138 36.386C595.56 37.5299 596.68 38.4092 597.925 38.1358C597.985 38.1222 598.262 38.0542 598.279 38.0465C600.079 37.2399 600.439 34.6548 599.404 33.1209C598.884 32.35 597.913 31.8415 596.996 32.0969Z" fill="#F6884D"/>
<path d="M595.693 34.4613C595.99 33.4025 597.168 32.569 598.222 33.1735C600.099 34.2499 599.262 37.7206 597.152 37.2996C595.874 37.0449 595.371 35.6044 595.693 34.4613ZM597.54 33.8332C596.161 33.7204 595.918 36.3229 597.374 36.4475C598.79 36.5684 598.919 33.9461 597.54 33.8332Z" fill="#F6884D"/>
<path d="M528.582 94.5392C528.091 92.6558 526.83 91.155 525.056 90.7318C523.464 90.3516 522.032 90.8322 520.625 92.72C519.045 94.8401 519.254 98.5628 521.291 100.51C521.992 101.179 525.081 103.251 527.478 100.234C528.941 98.3925 529.022 96.2263 528.583 94.5392L528.582 94.5392Z" fill="#FBD0CF"/>
<path d="M528.582 94.5392C528.091 92.6558 526.83 91.155 525.056 90.7318C523.464 90.3516 522.032 90.8322 520.625 92.72C519.045 94.8401 519.254 98.5628 521.291 100.51C521.992 101.179 525.081 103.251 527.478 100.234C528.941 98.3925 529.022 96.2263 528.583 94.5392L528.582 94.5392Z" fill="#FBD0CF"/>
<path d="M524.348 92.1041C524.913 92.0586 525.642 92.2857 526.12 92.6206C527.793 93.7917 528.223 96.1696 527.449 97.9526C525.88 101.567 521.521 100.424 521.061 96.7737C521.015 96.4148 521.051 95.8531 521.088 95.4863C521.103 95.3373 521.137 95.18 521.168 95.0232C521.456 93.5102 522.766 92.2306 524.347 92.1035L524.348 92.1041ZM523.996 93.0972C522.184 93.6032 521.538 95.7607 522.138 97.3862C522.56 98.5302 523.68 99.4094 524.925 99.136C524.985 99.1225 525.262 99.0544 525.279 99.0467C527.079 98.2401 527.439 95.6551 526.404 94.1211C525.884 93.3503 524.913 92.8417 523.996 93.0972Z" fill="#F6884D"/>
<path d="M522.693 95.4616C522.99 94.4028 524.168 93.5692 525.222 94.1738C527.099 95.2501 526.262 98.7208 524.152 98.2998C522.874 98.0451 522.371 96.6046 522.693 95.4616ZM524.54 94.8335C523.161 94.7206 522.918 97.3232 524.374 97.4477C525.79 97.5687 525.919 94.9464 524.54 94.8335Z" fill="#F6884D"/>
<path d="M528.582 94.5392C528.091 92.6558 526.83 91.155 525.056 90.7318C523.464 90.3516 522.032 90.8322 520.625 92.72C519.045 94.8401 519.254 98.5628 521.291 100.51C521.992 101.179 525.081 103.251 527.478 100.234C528.941 98.3925 529.022 96.2263 528.583 94.5392L528.582 94.5392Z" fill="#FBD0CF"/>
<path d="M528.582 94.5392C528.091 92.6558 526.83 91.155 525.056 90.7318C523.464 90.3516 522.032 90.8322 520.625 92.72C519.045 94.8401 519.254 98.5628 521.291 100.51C521.992 101.179 525.081 103.251 527.478 100.234C528.941 98.3925 529.022 96.2263 528.583 94.5392L528.582 94.5392Z" fill="#FBD0CF"/>
<path d="M524.348 92.1041C524.913 92.0586 525.642 92.2857 526.12 92.6206C527.793 93.7917 528.223 96.1696 527.449 97.9526C525.88 101.567 521.521 100.424 521.061 96.7737C521.015 96.4148 521.051 95.8531 521.088 95.4863C521.103 95.3373 521.137 95.18 521.168 95.0232C521.456 93.5102 522.766 92.2306 524.347 92.1035L524.348 92.1041ZM523.996 93.0972C522.184 93.6032 521.538 95.7607 522.138 97.3862C522.56 98.5302 523.68 99.4094 524.925 99.136C524.985 99.1225 525.262 99.0544 525.279 99.0467C527.079 98.2401 527.439 95.6551 526.404 94.1211C525.884 93.3503 524.913 92.8417 523.996 93.0972Z" fill="#F6884D"/>
<path d="M522.693 95.4616C522.99 94.4028 524.168 93.5692 525.222 94.1738C527.099 95.2501 526.262 98.7208 524.152 98.2998C522.874 98.0451 522.371 96.6046 522.693 95.4616ZM524.54 94.8335C523.161 94.7206 522.918 97.3232 524.374 97.4477C525.79 97.5687 525.919 94.9464 524.54 94.8335Z" fill="#F6884D"/>
<path d="M512.106 77.4994C508.636 72.7131 504.711 74.6085 505.123 71.536C505.534 68.4636 511.97 64.8941 514.612 66.935C516.856 68.6681 518.207 71.2956 518.173 74.3952C518.113 79.8505 516.261 83.2298 512.106 77.4994Z" fill="#F6884D"/>
<path d="M460.106 12.4994C456.636 7.71314 452.711 9.60847 453.123 6.53603C453.534 3.46359 459.97 -0.105903 462.612 1.93503C464.856 3.66809 466.207 6.29565 466.173 9.39523C466.113 14.8505 464.261 18.2298 460.106 12.4994Z" fill="#F6884D"/>
<path d="M433.423 104.951C428.897 108.754 431.067 112.534 427.973 112.342C424.879 112.151 420.86 105.987 422.707 103.206C424.275 100.844 426.8 99.3087 429.894 99.1214C435.339 98.7921 438.842 100.398 433.423 104.951Z" fill="#F6884D"/>
<path d="M603.468 62.9232C598.942 66.7259 601.112 70.5056 598.018 70.3143C594.924 70.123 590.904 63.9589 592.752 61.1778C594.32 58.8156 596.844 57.2807 599.939 57.0933C605.384 56.764 608.887 58.3695 603.468 62.9232Z" fill="#F6884D"/>
<path d="M586.468 111.923C581.942 115.726 584.112 119.506 581.018 119.314C577.924 119.123 573.904 112.959 575.752 110.178C577.32 107.816 579.844 106.281 582.939 106.093C588.384 105.764 591.887 107.369 586.468 111.923Z" fill="#F6884D"/>
<path d="M533.606 18.341C530.714 20.771 532.101 23.1863 530.124 23.064C528.147 22.9418 525.578 19.0028 526.758 17.2257C527.761 15.7162 529.374 14.7354 531.351 14.6156C534.831 14.4052 537.069 15.4311 533.606 18.341Z" fill="#F6884D"/>
<path d="M433.423 104.951C428.897 108.754 431.067 112.534 427.973 112.342C424.879 112.151 420.86 105.987 422.707 103.206C424.275 100.844 426.8 99.3087 429.894 99.1214C435.339 98.7921 438.842 100.398 433.423 104.951Z" fill="#F6884D"/>
<path d="M433.423 104.951C428.897 108.754 431.067 112.534 427.973 112.342C424.879 112.151 420.86 105.987 422.707 103.206C424.275 100.844 426.8 99.3087 429.894 99.1214C435.339 98.7921 438.842 100.398 433.423 104.951Z" fill="#F6884D"/>
<path d="M512.106 77.4994C508.636 72.7131 504.711 74.6085 505.123 71.536C505.534 68.4636 511.97 64.8941 514.612 66.935C516.856 68.6681 518.207 71.2956 518.173 74.3952C518.113 79.8505 516.261 83.2298 512.106 77.4994Z" fill="#F6884D"/>
<path d="M374.106 73.4994C370.636 68.7131 366.711 70.6085 367.123 67.536C367.534 64.4636 373.97 60.8941 376.612 62.935C378.856 64.6681 380.207 67.2956 380.173 70.3952C380.113 75.8505 378.261 79.2298 374.106 73.4994Z" fill="#F6884D"/>
<path d="M181.106 64.4994C177.636 59.7131 173.711 61.6085 174.123 58.536C174.534 55.4636 180.97 51.8941 183.612 53.935C185.856 55.6681 187.207 58.2956 187.173 61.3952C187.113 66.8505 185.261 70.2298 181.106 64.4994Z" fill="#F6884D"/>
<path d="M120.106 131.499C116.636 126.713 112.711 128.608 113.123 125.536C113.534 122.464 119.97 118.894 122.612 120.935C124.856 122.668 126.207 125.296 126.173 128.395C126.113 133.85 124.261 137.23 120.106 131.499Z" fill="#F6884D"/>
<path d="M99.0174 50.7124C102.318 45.8079 99.1883 42.7743 102.215 42.104C105.241 41.4337 110.807 46.2486 109.799 49.4315C108.944 52.1349 106.941 54.3071 104.019 55.3414C98.8759 57.1612 95.066 56.5852 99.0174 50.7124Z" fill="#FBD0CF"/>
<path d="M190.017 81.7124C193.318 76.8079 190.188 73.7743 193.215 73.104C196.241 72.4337 201.807 77.2486 200.799 80.4315C199.944 83.1349 197.941 85.3071 195.019 86.3414C189.876 88.1612 186.066 87.5852 190.017 81.7124Z" fill="#F6884D"/>
<path d="M92.0174 23.7124C95.3181 18.8079 92.1883 15.7743 95.2149 15.104C98.2414 14.4337 103.807 19.2486 102.799 22.4315C101.944 25.1349 99.9411 27.3071 97.019 28.3414C91.8759 30.1612 88.066 29.5852 92.0174 23.7124Z" fill="#F6884D"/>
<path d="M75.0174 66.7124C78.3181 61.8079 75.1883 58.7743 78.2149 58.104C81.2414 57.4337 86.8067 62.2486 85.7991 65.4315C84.9437 68.1349 82.9411 70.3071 80.019 71.3414C74.8759 73.1612 71.066 72.5852 75.0174 66.7124Z" fill="#FBD0CF"/>
<path d="M45.0174 66.7124C48.3181 61.8079 45.1883 58.7743 48.2149 58.104C51.2414 57.4337 56.8067 62.2486 55.7991 65.4315C54.9437 68.1349 52.9411 70.3071 50.019 71.3414C44.8759 73.1612 41.066 72.5852 45.0174 66.7124Z" fill="#F6884D"/>
<path d="M63.0174 149.712C66.3181 144.808 63.1883 141.774 66.2149 141.104C69.2414 140.434 74.8067 145.249 73.7991 148.432C72.9437 151.135 70.9411 153.307 68.019 154.341C62.8759 156.161 59.066 155.585 63.0174 149.712Z" fill="#F6884D"/>
<path d="M224.017 88.7124C227.318 83.8079 224.188 80.7743 227.215 80.104C230.241 79.4337 235.807 84.2486 234.799 87.4315C233.944 90.1349 231.941 92.3071 229.019 93.3414C223.876 95.1612 220.066 94.5852 224.017 88.7124Z" fill="#FBD0CF"/>
<path d="M190.017 81.7124C193.318 76.8079 190.188 73.7743 193.215 73.104C196.241 72.4337 201.807 77.2486 200.799 80.4315C199.944 83.1349 197.941 85.3071 195.019 86.3414C189.876 88.1612 186.066 87.5852 190.017 81.7124Z" fill="#F6884D"/>
<path d="M190.017 81.7124C193.318 76.8079 190.188 73.7743 193.215 73.104C196.241 72.4337 201.807 77.2486 200.799 80.4315C199.944 83.1349 197.941 85.3071 195.019 86.3414C189.876 88.1612 186.066 87.5852 190.017 81.7124Z" fill="#F6884D"/>
</g>
</g>
</svg>
