<svg width="861" height="585" viewBox="0 0 861 585" fill="none" xmlns="http://www.w3.org/2000/svg">
<g opacity="0.2">
<path d="M412.574 232.086C411.513 232.604 410.433 233.15 409.55 233.948C409.037 234.413 408.614 234.905 408.258 235.501C407.96 235.998 407.756 236.539 407.543 237.076C407.442 237.33 407.339 237.584 407.222 237.83C407.161 237.957 407.089 238.078 407.028 238.203C406.952 238.358 407.183 237.996 407.015 238.224C406.971 238.284 406.929 238.346 406.883 238.405C406.801 238.512 406.712 238.61 406.621 238.71C406.526 238.812 406.617 238.778 406.64 238.694C406.634 238.717 406.531 238.784 406.504 238.805C406.447 238.849 406.388 238.89 406.327 238.929C406.289 238.953 406.126 239.027 406.273 238.965C406.448 238.891 406.187 238.994 406.174 238.999C406.147 239.008 406.121 239.018 406.094 239.027C405.971 239.061 405.986 239.06 406.142 239.022C406.07 239.082 405.885 239.028 405.799 239.047C406.006 239 406.014 239.067 405.91 239.047C405.871 239.04 405.832 239.036 405.793 239.028C405.746 239.019 405.699 239.002 405.651 238.995C405.513 238.974 405.92 239.104 405.732 239.017C405.643 238.976 405.553 238.941 405.467 238.894C405.435 238.877 405.396 238.846 405.364 238.835C405.378 238.84 405.598 238.996 405.456 238.891C405.382 238.837 405.308 238.785 405.236 238.728C405.08 238.605 404.932 238.472 404.789 238.334C404.181 237.754 403.639 237.151 402.905 236.723C401.89 236.13 400.607 236.235 399.663 236.922C398.579 237.711 398.114 238.995 397.922 240.276C397.73 241.558 397.604 242.854 397.448 244.141C397.285 245.486 397.122 246.831 396.959 248.176C396.801 249.475 396.656 250.778 396.652 252.089C396.649 253.482 396.862 254.797 397.544 256.025C397.837 256.553 398.209 257.014 398.592 257.477C398.984 257.95 399.339 258.459 399.745 258.918C401.233 260.597 403.761 261.342 405.881 260.474C406.176 260.354 406.457 260.196 406.731 260.034C406.785 260.003 406.838 259.972 406.892 259.941C407.109 259.814 406.874 259.942 406.87 259.951C406.879 259.929 407.007 259.896 407.037 259.882C407.25 259.778 406.868 259.88 407.085 259.877C407.047 259.876 407.009 259.876 406.971 259.875C407.065 259.898 407.065 259.896 406.97 259.871C406.946 259.864 406.923 259.858 406.899 259.851C406.981 259.895 406.979 259.892 406.894 259.843C406.872 259.83 406.85 259.816 406.828 259.803C406.917 259.882 406.9 259.859 406.777 259.732C406.775 259.739 406.865 259.849 406.862 259.844C406.858 259.838 406.932 259.966 406.937 259.967C406.865 259.96 406.84 259.743 406.896 259.901C406.938 260.023 406.989 260.141 407.027 260.265C407.18 260.763 407.282 261.266 407.491 261.747C407.728 262.292 408.025 262.83 408.411 263.285C409.184 264.196 410.242 264.91 411.461 265.005C412.705 265.102 413.933 264.745 414.794 263.804C415.153 263.413 415.378 262.913 415.606 262.439C415.651 262.346 415.695 262.254 415.743 262.163C415.767 262.119 415.792 262.075 415.816 262.03C415.926 261.816 415.695 262.16 415.799 262.055C415.81 262.044 416.003 261.819 415.999 261.807C416.008 261.837 415.774 261.97 415.941 261.868C416.163 261.733 415.924 261.876 415.915 261.868C415.933 261.883 416.029 261.801 416.051 261.819C416.079 261.843 415.816 261.829 416.008 261.843C415.747 261.825 415.945 261.837 416.012 261.849C416.048 261.855 416.225 261.9 416.082 261.858C415.916 261.809 416.18 261.904 416.189 261.908C416.242 261.932 416.294 261.961 416.346 261.987C416.397 262.013 416.511 262.104 416.328 261.971C416.404 262.026 416.481 262.078 416.555 262.135C416.772 262.3 416.975 262.482 417.169 262.673C417.226 262.73 417.281 262.787 417.338 262.844C417.369 262.875 417.487 263 417.339 262.842C417.449 262.96 417.556 263.081 417.664 263.201C418.469 264.107 419.257 265.006 420.35 265.569C421.379 266.1 422.635 266.207 423.695 265.703C424.685 265.232 425.412 264.432 426.132 263.628C426.283 263.46 426.434 263.292 426.59 263.128C426.671 263.042 426.754 262.957 426.839 262.874C426.869 262.845 426.998 262.732 426.875 262.838C426.739 262.955 426.946 262.778 426.972 262.756C427.138 262.614 427.312 262.481 427.497 262.365C427.54 262.338 427.584 262.313 427.628 262.286C427.845 262.151 427.445 262.365 427.598 262.303C427.714 262.257 427.825 262.204 427.943 262.164C428 262.145 428.059 262.13 428.116 262.11C428.237 262.071 428.188 262.151 428.033 262.125C428.114 262.138 428.233 262.088 428.317 262.077C428.557 262.045 428.797 262.041 429.04 262.043C429.209 262.044 428.98 262.026 428.969 262.039C428.975 262.032 429.123 262.05 429.117 262.05C429.216 262.058 429.315 262.069 429.413 262.081C429.664 262.112 429.913 262.152 430.161 262.197C431.129 262.372 432.078 262.582 433.066 262.601C434.097 262.62 435.175 262.31 435.98 261.648C436.825 260.954 437.392 260.011 437.726 258.976C438.085 257.86 438.208 256.736 438.238 255.568C438.271 254.299 438.196 253.028 438.045 251.768C437.735 249.183 437.135 246.62 436.423 244.119C435.108 239.501 432.961 234.84 428.962 231.963C427.159 230.665 425.054 229.749 422.827 229.558C420.378 229.349 417.959 229.871 415.672 230.729C414.616 231.126 413.588 231.592 412.574 232.086C412.048 232.342 411.657 232.928 411.907 233.527C412.123 234.043 412.781 234.47 413.346 234.195C414.36 233.701 415.388 233.235 416.444 232.839C416.986 232.635 417.535 232.45 418.091 232.29C418.337 232.219 418.584 232.153 418.832 232.093C418.894 232.078 418.957 232.064 419.018 232.049C418.79 232.106 418.955 232.062 419.004 232.052C419.16 232.02 419.315 231.988 419.471 231.96C420.015 231.862 420.564 231.794 421.115 231.763C421.383 231.748 421.65 231.742 421.918 231.745C421.979 231.746 422.34 231.761 422.1 231.747C422.258 231.756 422.416 231.768 422.573 231.784C423.09 231.835 423.602 231.925 424.105 232.053C424.228 232.084 424.352 232.118 424.475 232.154C424.528 232.17 424.587 232.183 424.638 232.204C424.606 232.191 424.414 232.128 424.607 232.196C424.848 232.281 425.088 232.368 425.323 232.467C425.783 232.659 426.229 232.88 426.66 233.128C426.772 233.192 426.882 233.258 426.991 233.325C427.039 233.354 427.174 233.417 426.966 233.309C427.015 233.335 427.065 233.373 427.11 233.403C427.325 233.545 427.536 233.694 427.742 233.848C428.145 234.15 428.531 234.474 428.901 234.817C429.08 234.983 429.256 235.155 429.428 235.33C429.468 235.371 429.508 235.413 429.548 235.455C429.693 235.604 429.554 235.455 429.528 235.431C429.632 235.528 429.723 235.646 429.817 235.753C430.544 236.583 431.178 237.489 431.735 238.441C431.806 238.563 431.876 238.687 431.946 238.811C431.98 238.873 432.014 238.935 432.048 238.997C432.041 238.984 432.205 239.292 432.128 239.146C432.065 239.024 432.167 239.222 432.181 239.249C432.213 239.312 432.245 239.376 432.276 239.439C432.355 239.598 432.433 239.758 432.508 239.919C432.773 240.482 433.016 241.056 433.241 241.637C433.692 242.804 434.07 243.998 434.405 245.203C434.571 245.802 434.727 246.404 434.876 247.008C434.947 247.296 435.016 247.584 435.083 247.873C435.114 248.009 435.145 248.145 435.176 248.281C435.129 248.077 435.17 248.255 435.179 248.294C435.201 248.396 435.223 248.499 435.245 248.601C435.747 250.984 436.074 253.418 435.999 255.858C435.997 255.927 435.994 255.997 435.992 256.066C435.993 256.032 436.005 255.85 435.993 256.04C435.986 256.148 435.979 256.256 435.97 256.364C435.949 256.61 435.919 256.855 435.881 257.099C435.842 257.345 435.794 257.588 435.736 257.83C435.709 257.936 435.68 258.042 435.651 258.148C435.607 258.309 435.629 258.12 435.665 258.109C435.653 258.112 435.592 258.323 435.586 258.339C435.512 258.54 435.429 258.737 435.334 258.928C435.281 259.034 435.221 259.135 435.166 259.239C435.093 259.374 435.283 259.07 435.195 259.194C435.158 259.246 435.123 259.3 435.085 259.352C435.017 259.445 434.946 259.535 434.87 259.621C434.837 259.66 434.802 259.697 434.767 259.734C434.759 259.743 434.75 259.752 434.741 259.762C434.654 259.848 434.67 259.834 434.79 259.721C434.771 259.783 434.607 259.875 434.555 259.914C434.47 259.977 434.295 260.042 434.234 260.125C434.25 260.103 434.483 260.009 434.293 260.093C434.244 260.114 434.197 260.137 434.148 260.158C434.058 260.196 433.966 260.229 433.872 260.259C433.826 260.273 433.779 260.285 433.733 260.299C433.54 260.359 433.795 260.274 433.815 260.284C433.76 260.258 433.529 260.33 433.459 260.338C433.253 260.36 433.049 260.353 432.843 260.36C432.681 260.365 433.124 260.384 432.876 260.362C432.827 260.358 432.778 260.355 432.728 260.35C432.604 260.339 432.481 260.325 432.357 260.309C431.477 260.192 430.616 259.96 429.734 259.86C428.746 259.748 427.704 259.772 426.791 260.21C425.832 260.669 425.103 261.414 424.402 262.197C424.252 262.364 424.103 262.533 423.95 262.698C423.879 262.774 423.808 262.851 423.735 262.926C423.699 262.963 423.663 263 423.626 263.037C423.518 263.145 423.484 263.15 423.618 263.051C423.448 263.177 423.299 263.331 423.126 263.454C423.036 263.517 422.942 263.573 422.849 263.631C422.707 263.72 422.876 263.57 422.923 263.593C422.902 263.583 422.779 263.658 422.757 263.667C422.743 263.673 422.446 263.767 422.446 263.772C422.446 263.759 422.738 263.726 422.522 263.755C422.472 263.762 422.422 263.771 422.372 263.777C422.285 263.787 422.129 263.822 422.046 263.791C422.217 263.854 422.188 263.806 422.096 263.789C422.017 263.774 421.936 263.766 421.858 263.749C421.805 263.738 421.753 263.724 421.701 263.712C421.494 263.663 421.725 263.727 421.742 263.726C421.656 263.731 421.482 263.622 421.403 263.585C421.31 263.54 421.145 263.483 421.075 263.409C421.094 263.429 421.279 263.548 421.106 263.428C421.048 263.388 420.99 263.349 420.934 263.308C420.742 263.167 420.559 263.015 420.385 262.853C420.301 262.774 420.219 262.694 420.138 262.612C420.093 262.565 420.048 262.519 420.004 262.472C420.173 262.649 419.975 262.44 419.939 262.401C419.517 261.934 419.109 261.454 418.665 261.007C417.772 260.111 416.488 259.245 415.176 259.745C414.557 259.981 414.145 260.466 413.819 261.021C413.709 261.208 413.615 261.403 413.522 261.599C413.477 261.693 413.433 261.787 413.386 261.879C413.358 261.937 413.328 261.995 413.298 262.051C413.278 262.089 413.2 262.286 413.261 262.127C413.314 261.987 413.265 262.12 413.234 262.163C413.196 262.216 413.157 262.266 413.115 262.315C413.096 262.338 413.017 262.407 413.013 262.427C413.018 262.402 413.219 262.26 413.058 262.383C412.978 262.444 412.9 262.507 412.814 262.561C412.824 262.555 412.687 262.642 412.684 262.639C412.828 262.564 412.86 262.546 412.781 262.584C412.747 262.6 412.712 262.616 412.677 262.63C412.582 262.67 412.484 262.697 412.388 262.732C412.205 262.797 412.421 262.724 412.457 262.722C412.409 262.725 412.353 262.743 412.305 262.75C412.189 262.768 412.073 262.779 411.957 262.785C411.905 262.787 411.852 262.785 411.801 262.788C411.717 262.786 411.748 262.789 411.895 262.795C411.856 262.792 411.817 262.789 411.778 262.785C411.674 262.774 411.571 262.758 411.469 262.738C411.405 262.725 411.342 262.707 411.279 262.693C411.146 262.663 411.236 262.727 411.328 262.711C411.261 262.723 411.103 262.622 411.041 262.592C410.991 262.569 410.942 262.543 410.894 262.517C410.826 262.481 410.617 262.417 410.839 262.49C410.647 262.427 410.452 262.183 410.303 262.051C410.095 261.866 410.401 262.177 410.292 262.043C410.256 261.998 410.216 261.955 410.18 261.91C410.087 261.797 410.001 261.679 409.919 261.558C409.854 261.46 409.792 261.361 409.733 261.259C409.694 261.19 409.573 261.053 409.727 261.253C409.696 261.213 409.67 261.135 409.65 261.093C409.539 260.851 409.444 260.602 409.365 260.348C409.228 259.905 409.154 259.445 408.954 259.023C408.643 258.37 408.167 257.845 407.437 257.678C406.699 257.507 406.045 257.844 405.428 258.205C405.413 258.214 405.163 258.378 405.333 258.265C405.471 258.173 405.332 258.265 405.29 258.285C405.183 258.335 405.074 258.381 404.963 258.421C404.864 258.456 404.764 258.485 404.663 258.515C404.579 258.54 404.497 258.516 404.728 258.504C404.654 258.508 404.57 258.534 404.496 258.545C404.289 258.575 404.079 258.59 403.87 258.589C403.823 258.589 403.759 258.594 403.712 258.586C403.977 258.632 403.801 258.588 403.727 258.58C403.609 258.569 403.491 258.552 403.374 258.531C403.258 258.51 403.142 258.484 403.027 258.454C402.975 258.441 402.925 258.426 402.874 258.412C402.714 258.368 403.124 258.511 402.884 258.411C402.664 258.32 402.446 258.233 402.236 258.117C402.211 258.103 402.116 258.037 402.099 258.039C402.118 258.037 402.316 258.187 402.142 258.065C402.056 258.005 401.97 257.944 401.888 257.879C401.795 257.806 401.706 257.73 401.619 257.649C401.581 257.613 401.545 257.575 401.507 257.54C401.405 257.446 401.649 257.714 401.518 257.551C400.784 256.631 399.958 255.74 399.369 254.717C399.5 254.945 399.306 254.575 399.278 254.508C399.227 254.389 399.18 254.268 399.138 254.146C399.09 254.005 399.051 253.862 399.013 253.718C399.025 253.763 399.051 253.935 399.014 253.714C398.997 253.611 398.979 253.508 398.966 253.404C398.894 252.822 398.879 252.229 398.89 251.643C398.892 251.574 398.893 251.505 398.895 251.436C398.895 251.451 398.908 251.112 398.901 251.27C398.895 251.402 398.906 251.186 398.908 251.157C398.912 251.088 398.916 251.019 398.921 250.95C398.944 250.621 398.973 250.293 399.007 249.966C399.067 249.373 399.141 248.78 399.213 248.188C399.369 246.897 399.526 245.606 399.682 244.315C399.833 243.071 399.948 241.816 400.144 240.578C400.186 240.314 400.237 240.051 400.307 239.794C400.316 239.761 400.379 239.574 400.332 239.706C400.275 239.864 400.384 239.577 400.383 239.579C400.435 239.45 400.508 239.329 400.56 239.201C400.621 239.049 400.404 239.399 400.569 239.182C400.605 239.135 400.638 239.086 400.675 239.04C400.741 238.955 400.822 238.838 400.912 238.777C400.693 238.926 400.979 238.74 401.039 238.699C401.071 238.678 401.143 238.62 401.186 238.608C400.915 238.684 401.163 238.63 401.232 238.606C401.265 238.594 401.353 238.555 401.395 238.556C401.136 238.55 401.297 238.575 401.354 238.576C401.39 238.577 401.659 238.594 401.443 238.563C401.261 238.538 401.402 238.56 401.446 238.568C401.519 238.579 401.633 238.622 401.704 238.618C401.688 238.619 401.437 238.517 401.595 238.585C401.64 238.604 401.685 238.62 401.729 238.64C401.81 238.676 401.886 238.719 401.963 238.76C402.121 238.846 401.738 238.604 401.97 238.77C402.12 238.879 402.262 238.998 402.399 239.123C402.945 239.617 403.416 240.205 404.029 240.623C404.939 241.243 406.054 241.523 407.103 241.042C408.291 240.498 409.007 239.42 409.488 238.243C409.7 237.724 409.886 237.191 410.15 236.694C410.18 236.638 410.215 236.584 410.243 236.527C410.318 236.376 410.144 236.663 410.239 236.531C410.319 236.42 410.394 236.308 410.479 236.201C410.554 236.107 410.633 236.015 410.714 235.927C410.755 235.882 410.797 235.839 410.839 235.796C410.87 235.764 411.092 235.576 410.888 235.745C411.291 235.412 411.697 235.103 412.146 234.833C412.357 234.707 412.571 234.582 412.79 234.47C412.549 234.593 412.869 234.431 412.935 234.398C413.072 234.329 413.209 234.261 413.346 234.194C413.872 233.937 414.263 233.352 414.013 232.752C413.798 232.239 413.138 231.809 412.574 232.086Z" fill="#E11F26"/>
<path d="M405.948 203.825C403.23 205.153 400.477 206.569 398.219 208.618C397.072 209.659 396.085 210.809 395.286 212.139C394.473 213.491 393.925 214.977 393.345 216.438C392.364 218.91 390.978 222.063 388.1 222.746C387.507 222.887 387.116 222.867 386.625 222.781C386.103 222.689 385.968 222.639 385.466 222.397C384.943 222.145 384.807 222.049 384.35 221.705C383.951 221.403 383.573 221.075 383.206 220.736C381.649 219.294 380.287 217.635 378.468 216.505C376.272 215.139 373.636 215.134 371.479 216.623C368.839 218.446 367.839 221.601 367.389 224.634C366.869 228.147 366.518 231.691 366.091 235.216C365.652 238.843 365.212 242.47 364.773 246.097C364.365 249.463 363.974 252.84 363.97 256.235C363.968 257.927 364.025 259.659 364.359 261.322C364.691 262.982 365.275 264.527 366.099 266.004C366.912 267.463 367.968 268.728 369.027 270.011C370.074 271.28 371.018 272.661 372.128 273.874C375.736 277.813 381.966 279.392 386.893 277.098C387.565 276.785 388.186 276.387 388.834 276.029C389.335 275.752 389.953 275.439 390.54 275.602C390.872 275.695 391.113 275.922 391.377 276.32C391.632 276.706 391.842 277.268 392.009 277.8C392.413 279.093 392.67 280.409 393.193 281.666C393.758 283.023 394.494 284.335 395.43 285.472C397.224 287.651 399.723 289.273 402.581 289.502C405.296 289.721 408.138 288.888 409.958 286.77C410.824 285.762 411.336 284.512 411.916 283.332C412.171 282.814 412.413 282.335 412.758 281.89C413.067 281.491 413.389 281.191 413.806 281.029C414.954 280.584 416.208 281.301 417.116 281.969C418.367 282.888 419.446 284.012 420.478 285.167C422.491 287.419 424.45 289.744 427.17 291.165C429.685 292.478 432.596 292.66 435.138 291.325C437.437 290.118 439.13 288.088 440.841 286.185C442.478 284.364 444.229 282.525 446.595 281.801C448.72 281.151 451.13 281.475 453.376 281.882C455.86 282.332 458.327 282.924 460.865 282.954C463.385 282.984 465.923 282.262 467.861 280.602C469.945 278.818 471.191 276.365 471.975 273.773C472.793 271.069 473.016 268.248 473.066 265.436C473.127 262.039 472.906 258.642 472.488 255.272C471.645 248.479 470.069 241.752 468.188 235.177C466.276 228.497 463.813 221.927 460.186 215.977C457.15 210.997 453.222 206.502 448.469 203.103C443.825 199.784 438.418 197.516 432.703 197.043C426.406 196.523 420.157 197.958 414.29 200.169C411.448 201.24 408.678 202.495 405.948 203.825C405.403 204.09 405.058 204.656 405.282 205.267C405.474 205.793 406.172 206.201 406.72 205.934C412.154 203.287 417.828 200.85 423.804 199.763C429.473 198.732 435.261 199.047 440.62 201.263C445.572 203.311 449.958 206.657 453.504 210.661C457.697 215.394 460.743 221.011 463.049 226.877C465.506 233.126 467.257 239.684 468.665 246.245C470.05 252.701 470.975 259.294 470.825 265.91C470.72 270.568 469.934 276.545 465.777 279.371C463.914 280.638 461.665 280.857 459.469 280.641C457.059 280.404 454.709 279.774 452.315 279.43C449.901 279.083 447.353 279.02 445.057 279.965C442.629 280.965 440.786 282.891 439.062 284.81C437.535 286.511 435.905 288.538 433.869 289.463C431.617 290.487 429.188 289.941 427.144 288.55C424.685 286.877 422.929 284.438 420.882 282.322C418.969 280.344 416.074 277.82 413.098 278.897C410.553 279.818 409.996 282.685 408.701 284.713C407.446 286.678 405.028 287.511 402.76 287.27C400.182 286.996 398.078 285.426 396.625 283.331C395.862 282.23 395.293 281.019 394.872 279.747C394.473 278.544 394.282 277.274 393.778 276.105C393.269 274.922 392.471 273.857 391.197 273.467C389.579 272.97 388.141 273.843 386.79 274.633C384.743 275.83 382.288 276.147 379.942 275.719C377.634 275.298 375.386 274.161 373.807 272.405C372.711 271.187 371.769 269.811 370.723 268.548C369.705 267.319 368.703 266.096 367.923 264.697C366.334 261.847 366.159 258.575 366.211 255.38C366.266 252.099 366.696 248.836 367.09 245.584C367.518 242.054 367.946 238.525 368.373 234.996C368.786 231.591 369.107 228.159 369.637 224.77C370.039 222.196 370.924 219.118 373.568 218.013C373.84 217.899 374.124 217.802 374.415 217.753C374.572 217.727 374.731 217.713 374.891 217.705C374.952 217.702 375.335 217.708 375.177 217.698C375.394 217.712 375.611 217.745 375.824 217.79C375.947 217.816 376.069 217.846 376.189 217.882C376.312 217.918 376.192 217.883 376.171 217.876C376.238 217.899 376.305 217.924 376.371 217.95C377.29 218.308 377.816 218.71 378.587 219.378C380.126 220.71 381.408 222.334 383.059 223.538C384.998 224.953 387.405 225.591 389.689 224.566C392.55 223.282 394.125 220.502 395.247 217.714C395.812 216.31 396.325 214.877 397.054 213.546C397.714 212.343 398.621 211.243 399.647 210.335C401.743 208.48 404.222 207.155 406.72 205.935C407.264 205.669 407.61 205.104 407.387 204.493C407.194 203.967 406.496 203.557 405.948 203.825Z" fill="#E11F26"/>
<path d="M399.321 175.564C394.941 177.705 390.514 179.993 386.877 183.297C385.104 184.907 383.559 186.705 382.322 188.763C380.996 190.969 380.102 193.393 379.156 195.777C377.466 200.034 375.086 205.203 370.198 206.439C366.818 207.294 363.872 205.218 361.519 203.039C359.029 200.734 356.845 198.045 353.941 196.232C350.573 194.128 346.57 194.063 343.247 196.358C339.09 199.228 337.564 204.211 336.858 208.978C336.01 214.71 335.437 220.493 334.74 226.245C334.023 232.163 333.305 238.081 332.589 244C331.931 249.43 331.295 254.88 331.288 260.358C331.282 265.831 331.932 271.101 334.631 275.944C335.958 278.325 337.682 280.389 339.409 282.482C341.118 284.552 342.656 286.809 344.47 288.785C350.161 294.988 360.005 297.396 367.742 293.794C368.78 293.31 369.743 292.698 370.74 292.138C371.718 291.588 372.913 291.013 374.062 291.32C375.797 291.785 376.518 293.827 376.998 295.36C377.657 297.47 378.077 299.617 378.931 301.668C379.83 303.828 381.004 305.903 382.492 307.711C385.309 311.133 389.228 313.641 393.709 314.001C397.88 314.336 402.282 313.041 405.076 309.789C406.448 308.191 407.254 306.205 408.174 304.334C408.955 302.744 409.904 300.887 411.656 300.208C413.783 299.384 416.064 300.618 417.753 301.86C419.843 303.397 421.639 305.283 423.363 307.213C426.561 310.791 429.682 314.512 434.005 316.769C437.918 318.812 442.414 319.123 446.38 317.052C453.693 313.233 457.018 303.958 465.158 301.467C468.865 300.333 472.856 300.89 476.592 301.567C480.582 302.289 484.554 303.259 488.629 303.308C492.63 303.356 496.612 302.237 499.692 299.6C502.937 296.821 504.897 292.947 506.119 288.909C507.436 284.556 507.809 280.016 507.89 275.489C507.989 269.947 507.629 264.403 506.946 258.904C505.578 247.882 503.024 236.969 499.971 226.301C496.869 215.464 492.886 204.792 487.002 195.14C482.077 187.06 475.721 179.782 468.008 174.268C460.526 168.919 451.815 165.292 442.61 164.531C432.464 163.693 422.383 166.038 412.934 169.599C408.296 171.347 403.777 173.394 399.321 175.564C398.036 176.19 398.795 178.306 400.094 177.674C409.024 173.324 418.336 169.349 428.155 167.563C437.525 165.858 447.097 166.413 455.95 170.074C464.148 173.465 471.384 179.015 477.252 185.64C484.133 193.408 489.13 202.643 492.915 212.268C496.949 222.525 499.809 233.289 502.12 244.057C504.38 254.591 505.889 265.35 505.645 276.146C505.547 280.495 505.113 284.907 503.737 289.057C502.49 292.822 500.454 296.475 497.114 298.746C490.408 303.305 481.855 300.005 474.61 298.964C470.791 298.415 466.768 298.309 463.136 299.804C459.296 301.386 456.381 304.462 453.657 307.495C451.084 310.36 448.468 313.672 444.88 315.302C440.914 317.105 436.7 316.067 433.213 313.694C429.199 310.964 426.335 306.985 422.995 303.532C420.08 300.517 415.565 296.405 410.988 298.061C407.02 299.497 406.176 304.168 404.115 307.337C401.905 310.736 397.663 312.172 393.75 311.756C389.372 311.292 385.755 308.601 383.289 305.043C382.01 303.196 381.045 301.158 380.339 299.027C379.689 297.063 379.377 294.991 378.555 293.084C377.815 291.364 376.657 289.771 374.797 289.206C372.396 288.476 370.225 289.848 368.229 291.015C364.7 293.079 360.513 293.637 356.518 292.908C352.569 292.188 348.749 290.231 346.056 287.215C344.274 285.22 342.731 282.984 341.023 280.921C339.364 278.917 337.726 276.921 336.455 274.637C333.797 269.858 333.444 264.443 333.533 259.08C333.622 253.665 334.325 248.281 334.976 242.912C335.673 237.153 336.371 231.394 337.069 225.635C337.742 220.079 338.266 214.48 339.13 208.949C339.829 204.475 341.431 199.292 345.998 197.383C349.311 195.998 352.374 197.555 354.883 199.729C357.394 201.903 359.486 204.553 362.18 206.517C365.152 208.685 368.809 209.644 372.304 208.075C376.788 206.063 379.22 201.619 380.974 197.263C381.897 194.972 382.733 192.634 383.923 190.462C385.064 188.381 386.616 186.518 388.385 184.943C391.839 181.868 395.968 179.691 400.094 177.674C401.378 177.046 400.619 174.93 399.321 175.564Z" fill="#E11F26"/>
<path d="M392.698 147.304C386.655 150.257 380.556 153.419 375.539 157.975C373.138 160.156 371.036 162.602 369.361 165.387C367.522 168.446 366.282 171.81 364.97 175.116C362.577 181.144 359.194 188.364 352.299 190.132C347.451 191.376 343.222 188.48 339.834 185.343C336.411 182.173 333.406 178.456 329.417 175.959C324.877 173.117 319.507 172.993 315.017 176.093C309.345 180.01 307.292 186.822 306.33 193.322C305.153 201.273 304.358 209.295 303.391 217.274C302.397 225.483 301.401 233.693 300.407 241.903C299.5 249.398 298.617 256.92 298.609 264.482C298.6 271.988 299.462 279.239 303.167 285.884C305.007 289.187 307.399 292.051 309.794 294.953C312.165 297.826 314.298 300.955 316.814 303.697C324.585 312.164 338.049 315.399 348.593 310.489C351.271 309.242 354.426 306.235 357.586 307.038C360.171 307.696 361.276 310.638 361.99 312.921C362.904 315.847 363.487 318.826 364.671 321.67C365.904 324.633 367.516 327.47 369.556 329.95C373.397 334.616 378.735 338.009 384.84 338.5C390.466 338.952 396.428 337.194 400.196 332.809C402.076 330.62 403.175 327.898 404.434 325.335C405.573 323.018 406.961 320.375 409.509 319.387C412.612 318.185 415.922 319.936 418.392 321.751C421.322 323.905 423.835 326.555 426.251 329.259C430.634 334.163 434.916 339.28 440.842 342.373C446.155 345.148 452.234 345.586 457.625 342.78C467.807 337.481 472.376 324.606 483.724 321.134C488.944 319.537 494.547 320.299 499.811 321.252C505.306 322.247 510.784 323.594 516.396 323.662C521.877 323.728 527.304 322.211 531.525 318.598C535.933 314.824 538.606 309.529 540.265 304.045C542.081 298.043 542.605 291.785 542.716 285.543C542.854 277.855 542.355 270.165 541.408 262.537C539.515 247.285 535.981 232.187 531.757 217.425C527.465 202.431 521.963 187.659 513.822 174.304C507.006 163.124 498.224 153.063 487.551 145.433C477.23 138.055 465.215 133.07 452.519 132.02C438.525 130.863 424.611 134.119 411.581 139.03C405.147 141.454 398.878 144.293 392.698 147.304C391.413 147.93 392.172 150.046 393.47 149.414C405.896 143.36 418.847 137.847 432.509 135.362C445.58 132.985 458.935 133.778 471.283 138.885C482.726 143.618 492.813 151.373 501.003 160.619C510.572 171.421 517.521 184.274 522.784 197.659C528.394 211.925 532.364 226.894 535.578 241.87C538.713 256.481 540.806 271.405 540.468 286.381C540.22 297.402 538.361 311.386 528.454 318.121C519.023 324.532 507.103 319.963 496.908 318.497C491.684 317.746 486.187 317.597 481.218 319.644C475.966 321.806 471.979 326.032 468.254 330.181C464.628 334.219 460.95 338.844 455.894 341.142C450.25 343.707 444.242 342.211 439.284 338.838C433.716 335.05 429.743 329.532 425.111 324.741C421.197 320.693 415.057 314.991 408.881 317.225C403.501 319.172 402.338 325.668 399.532 329.962C396.368 334.803 390.323 336.835 384.743 336.243C378.565 335.587 373.436 331.776 369.956 326.755C368.16 324.164 366.8 321.298 365.809 318.307C364.907 315.583 364.474 312.708 363.335 310.063C362.364 307.809 360.845 305.68 358.399 304.944C355.213 303.986 352.315 305.851 349.671 307.397C344.672 310.32 338.759 311.13 333.096 310.097C327.508 309.078 322.11 306.299 318.307 302.025C315.84 299.251 313.697 296.156 311.327 293.294C309.025 290.514 306.752 287.745 304.99 284.578C301.26 277.872 300.732 270.31 300.856 262.78C300.981 255.23 301.956 247.725 302.863 240.239C303.831 232.251 304.799 224.263 305.767 216.274C306.701 208.567 307.428 200.8 308.626 193.129C309.622 186.756 311.941 179.466 318.431 176.753C323.168 174.773 327.587 176.967 331.182 180.08C337.8 185.811 344.779 196.137 354.922 191.585C361.028 188.845 364.319 182.736 366.704 176.812C367.983 173.633 369.143 170.39 370.794 167.379C372.416 164.421 374.612 161.79 377.124 159.551C381.941 155.259 387.713 152.227 393.47 149.414C394.755 148.786 393.996 146.67 392.698 147.304Z" fill="#E11F26"/>
<path d="M386.069 119.042C378.365 122.808 370.592 126.843 364.196 132.653C361.168 135.403 358.508 138.497 356.396 142.009C354.043 145.923 352.457 150.225 350.778 154.454C347.684 162.25 343.297 171.526 334.395 173.824C328.078 175.455 322.567 171.741 318.144 167.645C313.789 163.612 309.961 158.867 304.888 155.685C299.177 152.104 292.438 151.922 286.782 155.828C279.595 160.791 277.015 169.432 275.796 177.666C274.29 187.835 273.274 198.096 272.038 208.302C270.765 218.803 269.492 229.303 268.221 239.804C267.064 249.365 265.935 258.959 265.924 268.604C265.913 278.143 266.988 287.375 271.697 295.824C274.051 300.048 277.11 303.711 280.174 307.424C283.206 311.097 285.934 315.103 289.154 318.608C299.009 329.336 316.085 333.402 329.44 327.184C332.953 325.548 336.959 321.721 341.105 322.755C344.539 323.611 346.028 327.444 346.977 330.48C348.147 334.223 348.892 338.034 350.406 341.671C351.973 345.436 354.023 349.036 356.616 352.187C361.48 358.097 368.238 362.376 375.966 362.997C383.047 363.567 390.57 361.346 395.311 355.827C397.698 353.048 399.09 349.59 400.69 346.336C402.186 343.291 404.013 339.861 407.357 338.565C411.437 336.984 415.775 339.252 419.026 341.641C422.796 344.412 426.026 347.825 429.135 351.303C434.702 357.533 440.146 364.045 447.674 367.976C454.385 371.48 462.051 372.049 468.865 368.506C481.912 361.721 487.732 345.251 502.285 340.799C509.019 338.739 516.234 339.706 523.025 340.935C530.025 342.202 537.008 343.928 544.158 344.014C551.12 344.097 557.992 342.184 563.353 337.594C568.923 332.825 572.311 326.108 574.407 319.179C576.722 311.528 577.396 303.552 577.538 295.594C577.714 285.761 577.076 275.924 575.865 266.168C573.446 246.686 568.935 227.402 563.538 208.547C558.057 189.396 551.036 170.522 540.637 153.465C531.932 139.185 520.721 126.342 507.089 116.596C493.93 107.188 478.611 100.844 462.424 99.5059C444.582 98.031 426.835 102.198 410.223 108.458C401.992 111.559 393.974 115.192 386.069 119.042C384.784 119.668 385.543 121.784 386.842 121.152C402.764 113.396 419.353 106.345 436.858 103.161C453.63 100.111 470.769 101.143 486.611 107.695C501.3 113.77 514.237 123.729 524.749 135.597C537.006 149.433 545.907 165.905 552.648 183.049C559.834 201.323 564.914 220.498 569.031 239.681C573.042 258.371 575.718 277.46 575.286 296.615C574.965 310.826 572.559 328.814 559.789 337.495C547.633 345.759 532.345 339.919 519.201 338.03C512.572 337.077 505.6 336.885 499.295 339.482C492.631 342.226 487.573 347.602 482.847 352.865C478.166 358.077 473.426 364.015 466.903 366.98C459.58 370.308 451.779 368.354 445.35 363.981C438.228 359.135 433.147 352.078 427.221 345.949C422.309 340.869 414.542 333.575 406.769 336.388C399.979 338.846 398.494 347.168 394.945 352.584C390.827 358.869 382.978 361.497 375.732 360.728C367.753 359.881 361.112 354.95 356.618 348.466C354.306 345.129 352.55 341.436 351.275 337.585C350.122 334.101 349.568 330.424 348.11 327.041C346.909 324.25 345.03 321.592 341.997 320.682C338.029 319.491 334.397 321.855 331.108 323.778C324.64 327.56 317.002 328.622 309.671 327.285C302.438 325.966 295.474 322.364 290.555 316.833C287.399 313.285 284.657 309.327 281.626 305.666C278.681 302.11 275.775 298.568 273.521 294.517C268.72 285.885 268.016 276.174 268.176 266.479C268.336 256.795 269.584 247.168 270.747 237.566C271.985 227.348 273.223 217.13 274.461 206.912C275.656 197.054 276.586 187.119 278.119 177.307C279.411 169.034 282.449 159.637 290.86 156.122C297.022 153.546 302.797 156.377 307.477 160.429C315.842 167.674 324.706 180.85 337.536 175.093C345.264 171.625 349.414 163.851 352.43 156.36C354.066 152.294 355.55 148.146 357.662 144.293C359.764 140.459 362.604 137.06 365.861 134.158C372.042 128.649 379.455 124.762 386.842 121.152C388.126 120.524 387.367 118.408 386.069 119.042Z" fill="#E11F26"/>
<path d="M379.445 90.7829C370.077 95.3605 360.633 100.269 352.857 107.332C349.202 110.652 345.984 114.394 343.434 118.634C340.567 123.401 338.636 128.643 336.591 133.795C332.795 143.357 327.403 154.692 316.495 157.518C308.71 159.534 301.916 155.004 296.458 149.95C291.168 145.051 286.518 139.286 280.362 135.414C273.486 131.088 265.368 130.857 258.551 135.564C249.848 141.574 246.743 152.044 245.267 162.011C243.432 174.399 242.194 186.899 240.688 199.332C239.138 212.124 237.586 224.916 236.038 237.708C234.631 249.333 233.256 261.001 233.243 272.728C233.23 284.3 234.517 295.514 240.23 305.765C243.099 310.911 246.825 315.373 250.558 319.896C254.251 324.371 257.573 329.252 261.496 333.521C273.436 346.51 294.123 351.408 310.289 343.88C314.634 341.857 319.498 337.207 324.628 338.474C328.909 339.532 330.782 344.252 331.967 348.042C333.392 352.601 334.3 357.243 336.145 361.675C338.046 366.242 340.533 370.605 343.679 374.427C349.567 381.581 357.743 386.746 367.095 387.498C375.631 388.184 384.715 385.5 390.429 378.848C393.324 375.478 395.009 371.284 396.948 367.339C398.802 363.567 401.068 359.349 405.208 357.745C410.264 355.786 415.632 358.571 419.663 361.534C424.272 364.922 428.22 369.098 432.021 373.351C438.773 380.907 445.379 388.815 454.509 393.582C462.618 397.816 471.871 398.515 480.107 394.235C496.019 385.966 503.09 365.9 520.849 360.467C529.096 357.944 537.924 359.116 546.242 360.622C554.747 362.162 563.236 364.265 571.923 364.369C580.365 364.47 588.682 362.16 595.184 356.594C601.916 350.829 606.017 342.691 608.551 334.317C611.365 325.017 612.19 315.322 612.363 305.649C612.577 293.67 611.8 281.687 610.324 269.802C607.381 246.091 601.89 222.621 595.322 199.673C588.651 176.365 580.11 153.39 567.454 132.63C556.859 115.25 543.222 99.6242 526.63 87.7629C510.632 76.3256 492.009 68.6226 472.332 66.996C450.641 65.2028 429.061 70.28 408.868 77.8897C398.842 81.6669 389.074 86.092 379.445 90.7829C378.159 91.4089 378.918 93.5251 380.217 92.8923C399.635 83.4333 419.862 74.8448 441.211 70.9617C461.684 67.2379 482.607 68.5093 501.943 76.5065C519.878 83.9241 535.665 96.0876 548.5 110.577C563.444 127.447 574.297 147.537 582.517 168.441C591.279 190.723 597.469 214.104 602.488 237.495C607.374 260.262 610.634 283.516 610.108 306.852C609.716 324.252 606.762 346.242 591.128 356.871C576.248 366.987 557.591 359.877 541.499 357.564C533.465 356.409 525.018 356.174 517.376 359.322C509.301 362.647 503.17 369.173 497.443 375.551C491.709 381.936 485.907 389.188 477.917 392.819C468.914 396.911 459.321 394.499 451.421 389.125C442.744 383.222 436.555 374.625 429.336 367.159C423.427 361.047 414.031 352.163 404.661 355.553C396.461 358.521 394.653 368.67 390.361 375.209C385.29 382.936 375.638 386.161 366.724 385.215C356.945 384.177 348.792 378.125 343.284 370.179C340.455 366.097 338.305 361.577 336.744 356.865C335.339 352.621 334.664 348.142 332.889 344.02C331.456 340.694 329.217 337.505 325.599 336.421C320.848 334.999 316.483 337.86 312.549 340.161C304.611 344.802 295.247 346.116 286.248 344.475C277.37 342.856 268.841 338.43 262.805 331.643C258.961 327.321 255.621 322.499 251.928 318.039C248.341 313.708 244.8 309.393 242.055 304.457C236.182 293.9 235.303 282.04 235.499 270.18C235.694 258.361 237.214 246.613 238.634 234.894C240.142 222.447 241.65 209.999 243.158 197.552C244.613 185.542 245.746 173.439 247.614 161.487C249.203 151.315 252.958 139.811 263.291 135.492C270.878 132.321 278.01 135.788 283.774 140.78C293.887 149.537 304.635 165.565 320.152 158.602C329.501 154.407 334.511 144.967 338.158 135.909C340.152 130.956 341.959 125.902 344.532 121.21C347.114 116.499 350.598 112.332 354.599 108.766C362.144 102.04 371.199 97.2981 380.217 92.8915C381.501 92.2648 380.743 90.1488 379.445 90.7829Z" fill="#E11F26"/>
<path d="M372.818 62.5211C361.789 67.911 350.672 73.6931 341.515 82.0097C337.234 85.8986 333.457 90.2893 330.471 95.2568C327.091 100.878 324.813 107.058 322.402 113.133C317.905 124.461 311.508 137.856 298.593 141.209C289.339 143.612 281.264 138.265 274.771 132.252C268.546 126.488 263.075 119.699 255.834 115.139C247.79 110.073 238.299 109.787 230.318 115.298C220.1 122.354 216.468 134.653 214.735 146.354C212.572 160.961 211.112 175.7 209.336 190.359C207.509 205.442 205.679 220.526 203.853 235.609C202.196 249.299 200.576 263.039 200.56 276.85C200.545 290.454 202.044 303.651 208.762 315.704C212.145 321.772 216.539 327.033 220.94 332.366C225.294 337.643 229.21 343.4 233.838 348.431C247.863 363.681 272.159 369.411 291.138 360.574C296.313 358.165 302.037 352.691 308.149 354.191C313.278 355.45 315.535 361.057 316.956 365.601C318.636 370.977 319.707 376.451 321.882 381.676C324.117 387.045 327.042 392.171 330.741 396.664C337.652 405.061 347.248 411.112 358.223 411.995C368.215 412.798 378.858 409.651 385.547 401.865C388.948 397.905 390.926 392.975 393.206 388.338C395.417 383.84 398.122 378.834 403.059 376.922C409.091 374.585 415.488 377.886 420.3 381.423C425.749 385.428 430.413 390.367 434.906 395.395C442.843 404.276 450.611 413.58 461.343 419.184C470.85 424.148 481.69 424.977 491.349 419.96C510.125 410.207 518.447 386.545 539.413 380.131C549.172 377.146 559.613 378.522 569.459 380.305C579.469 382.117 589.463 384.598 599.687 384.72C609.61 384.839 619.372 382.132 627.014 375.589C634.909 368.83 639.724 359.27 642.695 349.45C646.008 338.502 646.984 327.088 647.187 315.7C647.44 301.575 646.523 287.446 644.783 273.432C641.315 245.491 634.845 217.836 627.106 190.794C619.245 163.33 609.184 136.253 594.272 111.79C581.787 91.3108 565.721 72.9023 546.171 58.9252C527.334 45.4586 505.406 36.3966 482.239 34.4815C456.7 32.3702 431.288 38.3578 407.512 47.3173C395.69 51.7723 384.173 56.9901 372.818 62.5211C371.533 63.1471 372.292 65.2632 373.591 64.6306C396.505 53.4685 420.37 43.3424 445.562 38.7602C469.736 34.3633 494.443 35.8737 517.273 45.3162C538.453 54.0759 557.091 68.4442 572.248 85.5544C589.881 105.46 602.685 129.167 612.383 153.83C622.722 180.121 630.021 207.708 635.944 235.306C641.704 262.152 645.549 289.571 644.928 317.086C644.464 337.675 640.963 363.669 622.465 376.245C604.86 388.213 582.836 379.833 563.794 377.096C554.355 375.739 544.434 375.462 535.455 379.16C525.968 383.067 518.766 390.743 512.038 398.235C505.25 405.793 498.386 414.359 488.929 418.658C478.247 423.513 466.86 420.642 457.49 414.268C447.259 407.308 439.962 397.171 431.449 388.367C424.542 381.224 413.518 370.748 402.552 374.717C392.936 378.196 390.819 390.172 385.776 397.832C379.741 406.999 368.302 410.824 357.715 409.7C346.135 408.471 336.47 401.299 329.948 391.89C326.603 387.063 324.057 381.716 322.212 376.144C320.555 371.14 319.759 365.858 317.666 360.998C316.003 357.136 313.403 353.417 309.199 352.16C303.666 350.505 298.568 353.865 293.988 356.542C284.581 362.042 273.492 363.608 262.825 361.663C252.302 359.745 242.207 354.495 235.055 346.452C230.522 341.356 226.584 335.67 222.229 330.412C218 325.305 213.825 320.217 210.587 314.397C203.643 301.914 202.589 287.906 202.82 273.879C203.051 259.926 204.843 246.057 206.52 232.222C208.298 217.545 210.076 202.868 211.854 188.191C213.57 174.03 214.906 159.759 217.108 145.666C218.994 133.596 223.467 119.983 235.722 114.862C244.733 111.095 253.221 115.2 260.07 121.131C271.93 131.401 284.564 150.28 302.767 142.112C313.738 137.188 319.608 126.083 323.885 115.458C326.236 109.618 328.367 103.659 331.401 98.1258C334.464 92.5385 338.592 87.6034 343.337 83.3739C352.246 75.4318 362.943 69.8349 373.591 64.6313C374.875 64.003 374.116 61.8868 372.818 62.5211Z" fill="#E11F26"/>
<path d="M366.195 34.2602C353.503 40.4624 340.713 47.1178 330.177 56.6879C325.269 61.1462 320.934 66.1851 317.51 71.8799C313.616 78.3552 310.993 85.4735 308.215 92.4716C303.017 105.566 295.615 121.021 280.694 124.901C269.972 127.69 260.615 121.527 253.086 114.555C245.928 107.926 239.634 100.113 231.31 94.866C222.097 89.0586 211.233 88.7179 202.088 95.0329C190.355 103.135 186.196 117.263 184.207 130.697C181.715 147.523 180.033 164.501 177.988 181.387C175.882 198.762 173.775 216.136 171.672 233.511C169.765 249.266 167.899 265.079 167.881 280.972C167.864 296.609 169.575 311.788 177.298 325.643C181.194 332.633 186.256 338.693 191.325 344.836C196.34 350.914 200.848 357.55 206.182 363.342C222.303 380.846 250.191 387.419 271.989 377.269C277.995 374.472 284.58 368.174 291.673 369.908C297.649 371.368 300.291 377.863 301.948 383.16C303.883 389.352 305.116 395.658 307.622 401.677C310.191 407.848 313.554 413.737 317.806 418.902C325.74 428.542 336.755 435.479 349.354 436.492C360.801 437.413 373.005 433.803 380.667 424.883C384.576 420.333 386.847 414.667 389.467 409.338C392.035 404.113 395.179 398.32 400.912 396.1C407.92 393.384 415.346 397.202 420.939 401.313C427.227 405.935 432.609 411.637 437.794 417.439C446.916 427.647 455.846 438.346 468.18 444.786C479.085 450.48 491.511 451.44 502.594 445.685C524.235 434.448 533.807 407.191 557.979 399.796C569.251 396.347 581.305 397.929 592.677 399.988C604.193 402.073 615.693 404.931 627.454 405.072C638.858 405.209 650.064 402.105 658.847 394.585C667.905 386.831 673.433 375.85 676.842 364.584C680.653 351.987 681.78 338.855 682.014 325.752C682.305 309.481 681.249 293.205 679.245 277.063C675.251 244.892 667.803 213.052 658.892 181.917C649.841 150.295 638.261 119.118 621.091 90.952C606.717 67.3724 588.224 46.1815 565.714 30.0886C544.038 14.5925 518.807 4.17192 492.149 1.96806C462.761 -0.461414 433.516 6.43672 406.159 16.746C392.541 21.8787 379.274 27.889 366.195 34.2602C364.909 34.8862 365.668 37.0022 366.967 36.3697C393.377 23.5048 420.881 11.8408 449.916 6.5594C477.791 1.48924 506.281 3.23875 532.606 14.1265C557.031 24.2286 578.52 40.8013 595.999 60.5327C616.319 83.4726 631.075 110.798 642.252 139.221C654.167 169.52 662.576 201.313 669.401 233.118C676.037 264.041 680.466 295.626 679.751 327.32C679.215 351.099 675.167 381.097 653.804 395.62C633.475 409.44 608.083 399.79 586.092 396.629C575.248 395.07 563.852 394.75 553.537 398.998C542.638 403.487 534.365 412.313 526.636 420.919C518.794 429.651 510.868 439.531 499.943 444.496C487.582 450.114 474.402 446.785 463.561 439.411C451.775 431.393 443.37 419.717 433.565 409.576C425.66 401.401 413.007 389.334 400.445 393.88C389.42 397.869 386.977 411.672 381.193 420.455C374.205 431.065 360.962 435.486 348.708 434.185C335.328 432.765 324.15 424.473 316.615 413.601C312.753 408.029 309.812 401.855 307.682 395.423C305.774 389.658 304.857 383.574 302.446 377.976C300.551 373.578 297.592 369.328 292.801 367.897C286.486 366.011 280.654 369.869 275.429 372.923C264.552 379.282 251.738 381.1 239.403 378.851C227.236 376.633 215.575 370.56 207.306 361.261C202.085 355.39 197.548 348.841 192.532 342.784C187.66 336.901 182.851 331.04 179.122 324.337C171.106 309.928 169.876 293.77 170.144 277.579C170.41 261.491 172.474 245.501 174.407 229.549C176.455 212.642 178.504 195.736 180.552 178.829C182.529 162.518 184.067 146.079 186.604 129.844C188.786 115.875 193.978 100.156 208.154 94.2305C218.59 89.8686 228.435 94.6103 236.369 101.481C249.975 113.264 264.495 134.994 285.384 125.62C297.977 119.969 304.706 107.199 309.614 95.0063C312.323 88.2787 314.777 81.4147 318.272 75.0408C321.815 68.5773 326.588 62.8739 332.077 57.9808C342.35 48.822 354.688 42.3701 366.967 36.3697C368.252 35.7421 367.492 33.626 366.195 34.2602Z" fill="#E11F26"/>
<path d="M361.332 13.5214C347.42 20.3197 333.403 27.616 321.854 38.1058C316.486 42.9822 311.742 48.4969 307.997 54.7254C303.727 61.8268 300.85 69.6346 297.803 77.3099C292.108 91.6567 283.946 108.733 267.557 112.935C255.733 115.966 245.484 109.267 237.171 101.569C229.327 94.3052 222.431 85.7407 213.311 79.9892C203.241 73.6376 191.369 73.2574 181.37 80.1623C168.525 89.0328 163.979 104.502 161.802 119.208C159.069 137.663 157.225 156.284 154.981 174.804C152.672 193.86 150.361 212.916 148.054 231.972C145.964 249.243 143.918 266.576 143.898 283.998C143.878 301.127 145.746 317.76 154.206 332.938C158.479 340.604 164.03 347.251 169.59 353.988C175.09 360.653 180.034 367.933 185.885 374.285C203.538 393.447 234.072 400.632 257.935 389.52C264.55 386.44 271.766 379.538 279.58 381.442C286.177 383.049 289.102 390.196 290.931 396.047C293.054 402.838 294.407 409.753 297.155 416.355C299.969 423.115 303.654 429.563 308.31 435.221C316.996 445.774 329.052 453.361 342.843 454.47C355.358 455.477 368.706 451.527 377.083 441.776C381.364 436.792 383.851 430.586 386.719 424.75C389.55 418.991 393.017 412.621 399.333 410.174C407.058 407.181 415.239 411.378 421.404 415.91C428.309 420.985 434.217 427.247 439.91 433.617C449.902 444.798 459.684 456.521 473.194 463.575C485.125 469.805 498.716 470.861 510.842 464.565C534.586 452.239 545.076 422.343 571.6 414.228C583.983 410.44 597.219 412.172 609.713 414.434C622.332 416.718 634.937 419.854 647.827 420.009C660.317 420.159 672.583 416.764 682.204 408.527C692.114 400.042 698.166 388.018 701.896 375.692C706.073 361.885 707.311 347.491 707.567 333.129C707.886 315.284 706.728 297.434 704.53 279.729C700.151 244.455 691.985 209.543 682.213 175.403C672.29 140.732 659.596 106.545 640.769 75.662C625.008 49.8076 604.733 26.5748 580.052 8.9294C556.293 -8.0558 528.637 -19.4736 499.417 -21.8891C467.206 -24.5519 435.148 -16.9859 405.163 -5.68609C390.228 -0.0582248 375.677 6.53363 361.332 13.5214C360.047 14.1474 360.805 16.2636 362.104 15.6309C391.079 1.51624 421.253 -11.2762 453.109 -17.0704C483.7 -22.6347 514.966 -20.7094 543.855 -8.76137C570.663 2.32585 594.243 20.5161 613.426 42.1713C635.719 67.3375 651.906 97.3183 664.168 128.5C677.24 161.74 686.463 196.619 693.951 231.512C701.23 265.428 706.087 300.069 705.303 334.831C704.713 360.95 700.264 393.885 676.8 409.837C654.472 425.016 626.608 414.435 602.453 410.963C590.577 409.255 578.1 408.904 566.804 413.556C554.869 418.471 545.809 428.141 537.345 437.566C528.731 447.159 520.025 458.002 508.024 463.457C494.43 469.635 479.934 465.97 468.014 457.861C455.088 449.068 445.87 436.261 435.115 425.139C426.479 416.207 412.63 402.972 398.897 407.942C386.838 412.306 384.157 427.45 377.828 437.057C370.141 448.726 355.573 453.584 342.097 452.153C327.395 450.593 315.108 441.479 306.829 429.533C302.588 423.415 299.357 416.633 297.018 409.57C294.925 403.248 293.919 396.575 291.275 390.435C289.211 385.643 285.987 381.004 280.767 379.447C273.877 377.391 267.507 381.613 261.81 384.944C249.854 391.934 235.773 393.937 222.214 391.465C208.84 389.026 196.03 382.349 186.942 372.128C181.216 365.689 176.24 358.507 170.739 351.863C165.395 345.411 160.121 338.983 156.03 331.631C147.229 315.809 145.87 298.074 146.164 280.294C146.456 262.639 148.72 245.093 150.841 227.587C153.088 209.045 155.334 190.502 157.581 171.959C159.748 154.069 161.436 136.04 164.218 118.234C166.618 102.872 172.338 85.6055 187.923 79.0911C199.404 74.2924 210.245 79.5014 218.975 87.0613C233.863 99.9542 249.767 123.776 272.627 113.519C286.411 107.333 293.77 93.3408 299.141 79.9983C302.112 72.6197 304.803 65.0915 308.636 58.1008C312.532 50.994 317.777 44.7273 323.812 39.347C335.087 29.2954 348.629 22.2162 362.104 15.6309C363.388 15.0033 362.63 12.8871 361.332 13.5214Z" fill="#E11F26"/>
<path d="M356.47 -7.2168C341.338 0.1777 326.093 8.11477 313.532 19.5245C307.704 24.8187 302.551 30.8092 298.484 37.5714C293.837 45.2996 290.706 53.7962 287.391 62.1486C281.183 77.7865 272.281 96.3866 254.421 100.968C241.517 104.278 230.331 96.9861 221.256 88.5823C212.727 80.6842 205.227 71.3688 195.313 65.1124C184.385 58.2165 171.505 57.797 160.652 65.2913C146.695 74.9296 141.763 91.7413 139.397 107.72C136.424 127.802 134.416 148.066 131.974 168.22C129.462 188.958 126.947 209.695 124.437 230.433C122.163 249.219 119.936 268.073 119.915 287.024C119.894 305.644 121.917 323.731 131.114 340.232C135.764 348.574 141.805 355.808 147.856 363.14C153.841 370.393 159.221 378.316 165.589 385.227C184.774 406.047 217.953 413.844 243.881 401.771C251.106 398.407 258.954 390.9 267.488 392.976C274.706 394.731 277.914 402.529 279.916 408.933C282.226 416.323 283.698 423.849 286.689 431.033C289.748 438.381 293.754 445.39 298.816 451.54C308.253 463.006 321.351 471.243 336.332 472.448C349.915 473.54 364.409 469.251 373.5 458.668C378.154 453.25 380.855 446.505 383.973 440.161C387.067 433.869 390.856 426.921 397.756 424.247C406.196 420.977 415.133 425.553 421.871 430.506C429.392 436.034 435.827 442.856 442.028 449.795C452.889 461.949 463.523 474.696 478.21 482.364C491.166 489.129 505.921 490.28 519.092 483.444C544.938 470.028 556.346 437.493 585.223 428.659C598.716 424.531 613.135 426.414 626.75 428.878C640.474 431.363 654.183 434.776 668.201 434.944C681.778 435.107 695.104 431.421 705.562 422.467C716.325 413.252 722.901 400.186 726.952 386.799C731.495 371.782 732.843 356.127 733.122 340.506C733.469 321.087 732.209 301.661 729.817 282.394C725.053 244.016 716.168 206.033 705.537 168.89C694.741 131.168 680.931 93.9706 660.448 60.3706C643.3 32.2413 621.244 6.9666 594.391 -12.2312C568.549 -30.7058 538.468 -43.1207 506.687 -45.7479C471.652 -48.6441 436.782 -40.41 404.168 -28.1199C387.915 -21.9945 372.08 -14.8211 356.47 -7.2168C355.184 -6.59076 355.943 -4.47476 357.242 -5.1073C388.783 -20.4717 421.626 -34.3927 456.302 -40.6998C489.609 -46.758 523.652 -44.6576 555.105 -31.6489C584.294 -19.5765 609.966 0.231587 630.853 23.8102C655.119 51.2034 672.739 83.8393 686.086 117.78C700.314 153.961 710.352 191.927 718.502 229.907C726.422 266.816 731.708 304.513 730.855 342.342C730.213 370.801 725.362 406.675 699.796 424.055C675.469 440.593 645.133 429.08 618.815 425.297C605.908 423.442 592.348 423.059 580.072 428.115C567.1 433.457 557.254 443.971 548.056 454.213C538.668 464.667 529.183 476.474 516.104 482.419C501.279 489.157 485.467 485.156 472.468 476.312C458.401 466.743 448.37 452.807 436.666 440.703C427.298 431.015 412.253 416.612 397.349 422.006C384.256 426.744 381.337 443.229 374.464 453.659C366.077 466.387 350.185 471.683 335.486 470.122C319.463 468.421 306.066 458.486 297.043 445.466C292.423 438.801 288.902 431.412 286.354 423.718C284.076 416.838 282.982 409.576 280.104 402.895C277.871 397.71 274.383 392.681 268.733 390.996C261.269 388.77 254.36 393.358 248.189 396.966C235.155 404.586 219.809 406.774 205.026 404.078C190.445 401.42 176.486 394.139 166.578 382.996C160.347 375.988 154.932 368.172 148.945 360.943C143.13 353.921 137.391 346.926 132.939 338.925C123.351 321.69 121.864 302.378 122.184 283.008C122.501 263.787 124.965 244.684 127.275 225.626C129.72 205.448 132.164 185.269 134.609 165.09C136.968 145.621 138.804 126.001 141.832 106.625C144.45 89.8689 150.696 71.056 167.692 63.952C180.218 58.7165 192.055 64.3929 201.581 72.6422C217.751 86.6451 235.039 112.56 259.87 101.417C274.843 94.698 282.833 79.4832 288.667 64.9906C291.9 56.9611 294.829 48.7685 299 41.161C303.249 33.411 308.967 26.5805 315.548 20.7136C327.823 9.76925 342.57 2.06271 357.242 -5.1073C358.526 -5.73468 357.768 -7.85089 356.47 -7.2168Z" fill="#E11F26"/>
<path d="M351.607 -27.9546C335.255 -19.964 318.783 -11.3858 305.209 0.94332C298.921 6.65545 293.358 13.1217 288.971 20.4177C283.947 28.7726 280.562 37.958 276.978 46.9876C270.258 63.9166 260.616 84.0407 241.284 89.0017C227.299 92.5901 215.179 84.7065 205.341 75.5966C196.126 67.064 188.023 56.9972 177.313 50.2364C165.528 42.7965 151.64 42.3372 139.934 50.4213C124.865 60.8277 119.546 78.9815 116.992 96.2317C113.777 117.942 111.607 139.85 108.968 161.638C106.251 184.057 103.532 206.475 100.819 228.895C98.3614 249.196 95.9543 269.571 95.9312 290.051C95.9083 310.162 98.0878 329.704 108.022 347.527C113.049 356.546 119.58 364.366 126.121 372.293C132.592 380.133 138.407 388.7 145.292 396.171C166.009 418.648 201.834 427.058 229.827 414.024C237.686 410.365 246.114 402.3 255.395 404.511C263.233 406.378 266.733 414.889 268.9 421.82C271.398 429.81 272.989 437.946 276.222 445.712C279.526 453.649 283.853 461.217 289.321 467.86C299.51 480.239 313.648 489.126 329.822 490.426C344.472 491.605 360.111 486.976 369.916 475.561C374.942 469.71 377.859 462.424 381.227 455.573C384.582 448.748 388.693 441.222 396.177 438.322C405.335 434.774 415.027 439.73 422.338 445.103C430.474 451.085 437.435 458.466 444.144 465.974C455.875 479.1 467.362 492.871 483.224 501.154C497.207 508.454 513.126 509.702 527.341 502.324C555.289 487.82 567.615 452.646 598.845 443.092C613.447 438.624 629.051 440.657 643.786 443.325C658.614 446.009 673.428 449.699 688.574 449.881C703.238 450.057 717.624 446.079 728.919 436.409C740.535 426.464 747.635 412.354 752.006 397.906C756.916 381.68 758.375 364.763 758.676 347.884C759.052 326.89 757.689 305.89 755.103 285.06C749.954 243.578 740.351 202.524 728.86 162.377C717.191 121.605 702.266 81.398 680.126 45.0808C661.592 14.6769 637.754 -12.6398 608.729 -33.3904C580.804 -53.3542 548.299 -66.7662 513.957 -69.6051C476.097 -72.7347 438.415 -63.8325 403.172 -50.5517C385.602 -43.9307 368.483 -36.1756 351.607 -27.9546C350.321 -27.3286 351.08 -25.2126 352.379 -25.8452C386.485 -42.4591 421.998 -57.5085 459.494 -64.3286C495.517 -70.8808 532.337 -68.6049 566.354 -54.5357C597.925 -41.4785 625.689 -20.0528 648.279 5.4493C674.518 35.0692 693.57 70.3602 708.002 107.06C723.386 146.182 734.239 187.234 743.052 228.302C751.614 268.203 757.329 308.957 756.406 349.853C755.712 380.653 750.46 419.464 722.792 438.273C696.465 456.171 663.658 443.725 635.175 439.631C621.237 437.628 606.596 437.214 593.339 442.674C579.331 448.442 568.698 459.8 558.765 470.86C548.605 482.175 538.34 494.947 524.185 501.38C508.127 508.679 490.999 504.341 476.921 494.764C461.714 484.419 450.869 469.353 438.216 456.267C428.116 445.822 411.876 430.252 395.801 436.069C381.674 441.181 378.516 459.008 371.098 470.262C362.012 484.049 344.796 489.781 328.875 488.091C311.53 486.25 297.024 475.492 287.256 461.399C282.258 454.187 278.447 446.192 275.69 437.866C273.227 430.428 272.044 422.578 268.933 415.355C266.53 409.776 262.778 404.359 256.697 402.546C248.66 400.15 241.213 405.103 234.569 408.988C220.456 417.239 203.843 419.612 187.836 416.693C172.048 413.814 156.94 405.929 146.213 393.865C139.477 386.288 133.623 377.839 127.151 370.023C120.865 362.432 114.659 354.87 109.847 346.22C99.4728 327.573 97.8567 306.683 98.2029 285.725C98.5461 264.937 101.21 244.278 103.708 223.667C106.351 201.852 108.994 180.037 111.637 158.222C114.187 137.175 116.172 115.964 119.445 95.016C122.281 76.8669 129.055 56.5071 147.46 48.814C161.032 43.1414 173.863 49.2852 184.186 58.2238C201.638 73.3368 220.31 101.344 247.112 89.3167C263.275 82.0633 271.896 65.6264 278.193 49.9838C281.688 41.3031 284.855 32.4465 289.364 24.2222C293.965 15.8292 300.156 8.43487 307.282 2.08098C320.56 -9.75584 336.51 -18.0902 352.379 -25.8449C353.663 -26.4728 352.904 -28.5888 351.607 -27.9546Z" fill="#E11F26"/>
<path d="M346.745 -48.6939C329.174 -40.1072 311.475 -30.888 296.888 -17.639C290.14 -11.5091 284.168 -4.56694 279.459 3.26277C274.059 12.2441 270.42 22.1184 266.567 31.8255C259.335 50.0459 248.952 71.6936 228.148 77.0341C213.084 80.9012 200.027 72.4255 189.427 62.6096C179.527 53.4422 170.821 42.6246 159.316 35.3587C146.674 27.3744 131.778 26.876 119.218 35.5497C103.036 46.7239 97.3316 66.2199 94.5889 84.742C91.133 108.081 88.8003 131.631 85.9624 155.053C83.0423 179.154 80.1196 203.254 77.2022 227.355C74.5615 249.171 71.9743 271.067 71.9494 293.075C71.9249 314.679 74.2602 335.675 84.9317 354.82C90.3357 364.516 97.3566 372.922 104.388 381.443C111.344 389.872 117.595 399.083 124.997 407.112C147.246 431.248 185.716 440.27 215.774 426.274C224.243 422.331 233.302 413.663 243.304 416.044C251.763 418.058 255.547 427.222 257.886 434.705C260.571 443.294 262.282 452.04 265.757 460.389C269.306 468.915 273.955 477.043 279.828 484.178C290.767 497.47 305.947 507.006 323.312 508.403C339.031 509.667 355.814 504.698 366.334 492.451C371.732 486.167 374.864 478.342 378.481 470.983C382.099 463.624 386.533 455.52 394.601 452.394C404.474 448.569 414.922 453.904 422.806 459.699C431.559 466.133 439.046 474.074 446.263 482.15C458.863 496.25 471.202 511.045 488.241 519.941C503.249 527.777 520.333 529.12 535.592 521.202C565.642 505.609 578.886 467.796 612.468 457.522C628.181 452.715 644.968 454.898 660.823 457.769C676.756 460.653 692.675 464.62 708.949 464.816C724.699 465.005 740.146 460.736 752.278 450.349C764.747 439.673 772.371 424.52 777.063 409.012C782.338 391.576 783.908 373.398 784.232 355.26C784.635 332.692 783.171 310.116 780.391 287.725C774.856 243.139 764.535 199.013 752.185 155.862C739.642 112.04 723.602 68.8234 699.806 29.7891C679.885 -2.88972 654.266 -32.2484 623.069 -54.5513C593.061 -76.0045 558.131 -90.4135 521.228 -93.4643C480.544 -96.8274 440.049 -87.2572 402.178 -72.9859C383.29 -65.8683 364.887 -57.5314 346.745 -48.6939C345.46 -48.0678 346.219 -45.9518 347.518 -46.5843C384.189 -64.4481 422.373 -80.6259 462.689 -87.9591C501.428 -95.0053 541.023 -92.5538 577.605 -77.4242C611.558 -63.3819 641.413 -40.3385 665.708 -12.9128C693.918 18.9337 714.403 56.8798 729.92 96.3383C746.461 138.402 758.128 182.54 767.603 226.695C776.808 269.589 782.951 313.4 781.959 357.363C781.212 390.503 775.558 432.252 745.789 452.49C717.463 471.747 682.183 458.369 651.537 453.964C636.568 451.812 620.845 451.367 606.607 457.231C591.563 463.426 580.143 475.628 569.477 487.506C558.543 499.682 547.498 513.418 532.266 520.34C514.976 528.199 496.533 523.525 481.375 513.214C465.028 502.093 453.37 485.897 439.768 471.83C428.936 460.628 411.5 443.89 394.254 450.131C379.093 455.618 375.696 474.785 367.735 486.863C357.949 501.708 339.409 507.879 322.264 506.059C303.598 504.077 287.983 492.497 277.471 477.331C272.094 469.572 267.992 460.969 265.027 452.013C262.379 444.017 261.107 435.578 257.763 427.813C255.191 421.841 251.174 416.034 244.664 414.094C236.052 411.528 228.067 416.846 220.949 421.008C205.758 429.889 187.879 432.447 170.648 429.305C153.653 426.206 137.396 417.718 125.85 404.731C118.609 396.586 112.316 387.503 105.358 379.101C98.6001 370.941 91.9296 362.812 86.7561 353.513C75.5956 333.452 73.8508 310.986 74.2235 288.438C74.5927 266.085 77.4567 243.869 80.1422 221.704C82.9836 198.253 85.8249 174.802 88.6663 151.351C91.4076 128.726 93.5416 105.924 97.0603 83.4051C100.114 63.8626 107.415 41.9561 127.23 33.6736C141.847 27.5642 155.674 34.1754 166.792 43.8034C185.526 60.0262 205.583 90.1255 234.355 77.2141C251.709 69.4269 260.961 51.7675 267.721 34.9749C271.477 25.6433 274.882 16.1222 279.729 7.28114C284.683 -1.75523 291.346 -9.71306 299.019 -16.5539C313.297 -29.2834 330.452 -38.2453 347.518 -46.5848C348.802 -47.212 348.043 -49.3282 346.745 -48.6939Z" fill="#E11F26"/>
<path d="M341.882 -69.4325C323.09 -60.2496 304.164 -50.3895 288.565 -36.2209C281.356 -29.6731 274.974 -22.2553 269.945 -13.892C264.168 -4.28392 260.275 6.27913 256.153 16.6635C248.408 36.175 237.286 59.3469 215.01 65.0669C198.865 69.2126 184.873 60.1446 173.511 49.6229C162.927 39.8217 153.618 28.2488 141.316 20.4816C127.814 11.9558 111.915 11.4138 98.4985 20.6784C81.2049 32.6207 75.1139 53.4588 72.1829 73.2527C68.486 98.22 65.9904 123.414 62.9546 148.47C59.8308 174.251 56.7043 200.033 53.5833 225.815C50.7592 249.147 47.9914 272.563 47.9647 296.1C47.9385 319.195 50.4299 341.646 61.8385 362.114C67.6194 372.486 75.1303 381.479 82.6525 390.594C90.0932 399.611 96.7797 409.465 104.699 418.054C128.48 443.847 169.596 453.483 201.719 438.525C210.797 434.298 220.487 425.027 231.21 427.578C240.29 429.738 244.357 439.555 246.869 447.591C249.741 456.779 251.571 466.136 255.289 475.067C259.083 484.182 264.053 492.869 270.332 500.497C282.022 514.701 298.244 524.888 316.8 526.38C333.587 527.73 351.515 522.422 362.75 509.343C368.52 502.626 371.867 494.26 375.734 486.395C379.614 478.502 384.37 469.82 393.022 466.468C403.612 462.365 414.815 468.079 423.271 474.295C432.64 481.182 440.653 489.684 448.378 498.328C461.848 513.401 475.04 529.22 493.254 538.73C509.288 547.102 527.536 548.54 543.84 540.081C575.993 523.399 590.154 482.947 626.089 471.953C642.912 466.806 660.882 469.14 677.858 472.214C694.896 475.298 711.919 479.542 729.322 479.751C746.158 479.954 762.665 475.393 775.634 464.29C788.956 452.884 797.104 436.688 802.117 420.119C807.758 401.473 809.439 382.034 809.785 362.637C810.217 338.494 808.65 314.343 805.676 290.39C799.756 242.701 788.716 195.503 775.506 149.348C762.09 102.475 744.935 56.2494 719.483 14.498C698.176 -20.4556 670.776 -51.8561 637.407 -75.7118C605.316 -98.6541 567.961 -114.06 528.496 -117.323C484.989 -120.919 441.681 -110.681 401.182 -95.4193C380.976 -87.8048 361.289 -78.8864 341.882 -69.4325C340.596 -68.8065 341.355 -66.6905 342.654 -67.323C381.891 -86.4364 422.744 -103.743 465.881 -111.589C507.336 -119.129 549.708 -116.502 588.854 -100.312C625.188 -85.2845 657.135 -60.6235 683.133 -31.2741C713.317 2.79919 735.233 43.4003 751.835 85.6175C769.533 130.623 782.014 177.847 792.152 225.09C801.999 270.976 808.57 317.843 807.51 364.874C806.71 400.354 800.654 445.041 768.783 466.708C738.458 487.324 700.707 473.014 667.897 468.298C651.897 465.998 635.091 465.521 619.872 471.789C603.793 478.411 591.586 491.457 580.185 504.153C568.478 517.189 556.654 531.889 540.345 539.302C521.823 547.72 502.064 542.71 485.827 531.665C468.339 519.768 455.868 502.442 441.317 487.394C429.754 475.435 411.122 457.529 392.704 464.194C376.509 470.055 372.873 490.563 364.368 503.464C353.882 519.369 334.019 525.977 315.651 524.027C295.664 521.905 278.939 509.503 267.683 493.263C261.927 484.957 257.536 475.748 254.361 466.16C251.529 457.606 250.168 448.579 246.59 440.272C243.849 433.907 239.568 427.711 232.627 425.643C223.441 422.907 214.918 428.591 207.327 433.029C191.058 442.54 171.912 445.283 153.457 441.918C135.256 438.599 117.849 429.506 105.484 415.598C97.7382 406.885 91.0053 397.169 83.5621 388.181C76.3328 379.451 69.1972 370.755 63.6627 360.807C51.7159 339.333 49.8424 315.29 50.2413 291.153C50.6364 267.233 53.7002 243.46 56.574 219.743C59.6136 194.656 62.653 169.569 65.6926 144.482C68.6252 120.277 70.9081 95.8849 74.6722 71.7951C77.9434 50.8595 85.7717 27.4062 106.997 18.5343C122.659 11.9881 137.482 19.0667 149.396 29.384C169.412 46.7168 190.853 78.9083 221.596 65.1125C240.14 56.7911 250.022 37.9097 257.245 19.9672C261.264 9.98445 264.906 -0.200609 270.091 -9.65856C275.398 -19.338 282.533 -27.8596 290.752 -35.1871C306.032 -48.8094 324.391 -58.3985 342.653 -67.323C343.938 -67.9506 343.179 -70.0666 341.882 -69.4325Z" fill="#E11F26"/>
<path d="M337.022 -90.1709C317.01 -80.3915 296.86 -69.8893 280.246 -54.8024C272.576 -47.838 265.785 -39.9427 260.436 -31.0458C254.281 -20.8111 250.135 -9.55919 245.744 1.50221C237.487 22.3049 225.624 47.0007 201.877 53.1002C184.652 57.5246 169.724 47.8644 157.599 36.6368C146.33 26.2007 136.418 13.8768 123.321 5.6048C108.961 -3.46485 92.0546 -4.04682 77.784 5.80767C59.3783 18.5177 52.9009 40.6981 49.7817 61.7641C45.8438 88.3595 43.1854 115.196 39.9517 141.886C36.6243 169.35 33.2935 196.812 29.9695 224.276C26.962 249.123 24.0139 274.06 23.9854 299.126C23.9577 323.713 26.6048 347.618 38.7506 369.409C44.9086 380.457 52.9094 390.036 60.922 399.746C68.8479 409.351 75.9697 419.848 84.4058 428.997C109.72 456.448 153.481 466.696 187.669 450.777C197.357 446.266 207.677 436.391 219.121 439.112C228.822 441.419 233.173 451.89 235.857 460.477C238.917 470.265 240.866 480.231 244.827 489.746C248.866 499.449 254.157 508.696 260.841 516.817C273.283 531.933 290.546 542.77 310.293 544.358C328.148 545.794 347.221 540.146 359.171 526.236C365.313 519.085 368.875 510.179 372.991 501.806C377.133 493.38 382.212 484.12 391.448 480.542C402.754 476.161 414.713 482.254 423.742 488.892C433.727 496.232 442.267 505.293 450.499 514.505C464.839 530.551 478.883 547.395 498.273 557.518C515.333 566.426 534.745 567.96 552.093 558.96C586.348 541.189 601.427 498.098 639.714 486.385C657.648 480.899 676.802 483.383 694.898 486.659C713.04 489.943 731.169 494.465 749.699 494.688C767.622 494.903 785.189 490.051 798.995 478.231C813.17 466.095 821.841 448.856 827.176 431.226C833.183 411.37 834.974 390.67 835.343 370.015C835.803 344.297 834.134 318.571 830.966 293.055C824.661 242.262 812.903 191.993 798.833 142.834C784.544 92.9111 766.274 43.6756 739.166 -0.792855C716.471 -38.0214 687.289 -71.4638 651.749 -96.872C617.575 -121.304 577.796 -137.707 535.769 -141.181C489.438 -145.011 443.317 -134.105 400.19 -117.852C378.666 -109.742 357.695 -100.242 337.022 -90.1709C335.737 -89.5449 336.496 -87.4287 337.794 -88.0614C379.597 -108.425 423.12 -126.859 469.077 -135.218C513.248 -143.253 558.397 -140.45 600.107 -123.199C638.822 -107.187 672.861 -80.9082 700.564 -49.6354C732.719 -13.3355 756.068 29.9207 773.755 74.8968C792.61 122.844 805.905 173.154 816.706 223.484C827.195 272.363 834.195 322.287 833.065 372.385C832.212 410.205 825.755 457.83 791.782 480.925C759.457 502.9 719.235 487.659 684.261 482.632C667.23 480.184 649.342 479.676 633.142 486.347C616.027 493.396 603.034 507.286 590.898 520.8C578.418 534.697 565.814 550.362 548.429 558.263C528.675 567.242 507.6 561.896 490.284 550.116C471.655 537.443 458.371 518.987 442.871 502.958C430.576 490.242 410.748 471.168 391.159 478.257C373.931 484.492 370.056 506.342 361.007 520.067C349.822 537.03 328.634 544.075 309.044 541.996C287.735 539.734 269.901 526.51 257.901 509.196C251.765 500.344 247.084 490.527 243.7 480.308C240.683 471.197 239.234 461.58 235.423 452.732C232.512 445.973 227.967 439.388 220.596 437.193C210.836 434.287 201.774 440.336 193.71 445.051C176.363 455.193 155.951 458.121 136.272 454.533C116.864 450.994 98.3079 441.297 85.1235 426.466C76.8724 417.185 69.7005 406.835 61.7719 397.261C54.0712 387.962 46.47 378.698 40.5748 368.102C27.8418 345.215 25.8399 319.595 26.2647 293.869C26.6858 268.382 29.9492 243.053 33.0112 217.782C36.2489 191.059 39.4869 164.336 42.7246 137.613C45.8485 111.83 48.2803 85.8466 52.2897 60.1857C55.7788 37.8567 64.1342 12.8568 86.7699 3.39575C103.477 -3.58753 119.295 3.95868 132.006 14.9652C153.303 33.4081 176.128 67.6917 208.842 53.0115C228.576 44.156 239.089 24.0524 246.775 4.95991C251.056 -5.67388 254.935 -16.5234 260.459 -26.5981C266.118 -36.9209 273.726 -46.006 282.492 -53.8205C298.772 -68.3356 318.336 -78.5523 337.795 -88.0614C339.079 -88.689 338.32 -90.805 337.022 -90.1709Z" fill="#E11F26"/>
<path d="M332.159 -110.909C310.927 -100.533 289.549 -89.3903 271.922 -73.3837C263.792 -66.0013 256.592 -57.6305 250.922 -48.1998C244.391 -37.3384 239.99 -25.3978 235.331 -13.6589C226.561 8.43494 213.958 34.6547 188.739 41.134C170.434 45.837 154.57 35.5845 141.683 23.6511C129.728 12.5804 119.213 -0.494938 105.321 -9.27155C90.1036 -18.8852 72.1892 -19.507 57.0646 -9.06281C37.5471 4.41503 30.6831 27.9377 27.3754 50.2757C23.1963 78.4994 20.3753 106.979 16.9434 135.303C13.4121 164.448 9.8776 193.592 6.3497 222.737C3.15884 249.099 0.0302394 275.557 0.000207767 302.152C-0.0293966 328.23 2.77388 353.59 15.6569 376.703C22.1918 388.428 30.6824 398.593 39.1858 408.898C47.5969 419.091 55.1544 430.232 64.1075 439.94C90.9536 469.048 137.36 479.909 173.613 463.029C183.911 458.234 194.862 447.756 207.027 450.647C217.349 453.1 221.983 464.224 224.84 473.364C228.087 483.75 230.155 494.327 234.358 504.424C238.642 514.716 244.255 524.522 251.345 533.136C264.538 549.165 282.842 560.652 303.781 562.336C322.704 563.858 342.921 557.871 355.586 543.128C362.1 535.544 365.877 526.098 370.243 517.218C374.647 508.259 380.049 498.421 389.868 494.616C401.891 489.958 414.605 496.43 424.207 503.489C434.808 511.281 443.874 520.903 452.615 530.684C467.824 547.703 482.72 565.57 503.286 576.308C521.372 585.751 541.948 587.381 560.341 577.84C596.698 558.98 612.694 513.25 653.335 500.817C672.379 494.991 692.716 497.626 711.933 501.105C731.18 504.589 750.413 509.388 770.071 509.624C789.081 509.852 807.708 504.709 822.351 492.172C837.379 479.306 846.574 461.024 852.229 442.333C858.603 421.267 860.505 399.306 860.896 377.392C861.384 350.1 859.613 322.799 856.251 295.721C849.561 241.824 837.085 188.484 822.155 136.321C806.994 83.3474 787.608 31.1022 758.843 -16.0834C734.762 -55.5868 703.799 -91.071 666.087 -118.032C629.83 -143.952 587.626 -161.353 543.038 -165.039C493.882 -169.102 444.95 -157.528 399.193 -140.285C376.352 -131.678 354.098 -121.596 332.159 -110.909C330.873 -110.283 331.632 -108.167 332.931 -108.799C377.299 -130.412 423.492 -149.975 472.269 -158.847C519.155 -167.375 567.081 -164.398 611.355 -146.086C652.453 -129.089 688.583 -101.193 717.99 -67.9964C752.118 -29.4697 776.899 16.4415 795.671 64.1768C815.682 115.065 829.792 168.462 841.255 221.879C852.386 273.751 859.815 326.731 858.616 379.895C857.71 420.056 850.852 470.619 814.777 495.143C780.453 518.477 737.759 502.304 700.621 496.966C682.559 494.37 663.59 493.83 646.409 500.906C628.257 508.381 614.478 523.115 601.608 537.447C588.355 552.205 574.971 568.833 556.509 577.224C535.523 586.763 513.132 581.081 494.737 568.566C474.967 555.117 460.87 535.532 444.421 518.521C431.394 505.049 410.371 484.808 389.611 492.32C371.348 498.929 367.235 522.12 357.642 536.668C345.757 554.691 323.245 562.174 302.432 559.964C279.802 557.561 260.858 543.516 248.114 525.129C241.599 515.729 236.628 505.306 233.036 494.456C229.834 484.786 228.296 474.581 224.252 465.191C221.175 458.048 216.361 451.052 208.561 448.742C198.217 445.68 188.637 452.074 180.089 457.072C161.663 467.845 139.985 470.958 119.083 467.146C98.4671 463.387 78.7624 453.086 64.7588 437.333C56.0025 427.484 48.3914 416.5 39.9775 406.34C31.8053 396.472 23.7388 386.641 17.4824 375.396C3.96303 351.096 1.83242 323.899 2.28353 296.584C2.73037 269.531 6.19388 242.645 9.44394 215.821C12.8799 187.462 16.316 159.102 19.752 130.743C23.0671 103.382 25.6477 75.8079 29.9026 48.5759C33.6092 24.8534 42.4919 -1.693 66.5376 -11.7435C84.29 -19.1636 101.104 -11.1503 114.61 0.545894C137.19 20.0988 161.399 56.4746 196.084 40.91C217.008 31.5206 228.152 10.1946 236.3 -10.0479C240.843 -21.3326 244.96 -32.8464 250.822 -43.5381C256.834 -54.504 264.915 -64.1529 274.226 -72.4543C291.508 -87.8621 312.276 -98.7062 332.931 -108.8C334.215 -109.427 333.456 -111.543 332.159 -110.909Z" fill="#E11F26"/>
</g>
</svg>
