<svg width="67" height="67" viewBox="0 0 67 67" fill="none" xmlns="http://www.w3.org/2000/svg">
<circle cx="33.5" cy="33.5" r="33.5" fill="#8200CC"/>
<path d="M49.9573 33.2398H53.5173V37.1398H49.9573V40.7198H46.0573V37.1398H42.4773V33.2398H46.0573V29.6598H49.9573V33.2398Z" fill="white"/>
<path d="M38.7579 34.1598C39.3445 34.3731 39.8445 34.6731 40.2579 35.0598C40.6712 35.4465 40.9779 35.8731 41.1779 36.3398C41.3779 36.7931 41.4779 37.2198 41.4779 37.6198C41.4779 39.1931 40.7779 40.3531 39.3779 41.0998C37.9912 41.8331 36.0445 42.1998 33.5379 42.1998C31.0179 42.1998 29.0579 41.8331 27.6579 41.0998C26.2579 40.3531 25.5579 39.1931 25.5579 37.6198C25.5579 36.9798 25.7845 36.3265 26.2379 35.6598C26.7045 34.9798 27.3512 34.4798 28.1779 34.1598C27.4445 33.8131 26.8912 33.4331 26.5179 33.0198C26.1579 32.5931 25.9779 32.0265 25.9779 31.3198C25.9779 30.4931 26.2645 29.7598 26.8379 29.1198C27.4112 28.4665 28.2645 27.9598 29.3979 27.5998C30.5445 27.2398 31.9245 27.0598 33.5379 27.0598C35.1379 27.0598 36.5045 27.2398 37.6379 27.5998C38.7712 27.9598 39.6245 28.4665 40.1979 29.1198C40.7712 29.7598 41.0579 30.4931 41.0579 31.3198C41.0579 32.0398 40.8645 32.6065 40.4779 33.0198C40.1045 33.4331 39.5312 33.8131 38.7579 34.1598ZM33.5779 32.9798C34.3512 32.9798 34.9912 32.8465 35.4979 32.5798C36.0179 32.3131 36.2779 31.9598 36.2779 31.5198C36.2779 31.0798 36.0179 30.7331 35.4979 30.4798C34.9779 30.2131 34.3379 30.0798 33.5779 30.0798C32.8045 30.0798 32.1579 30.2131 31.6379 30.4798C31.1179 30.7331 30.8579 31.0798 30.8579 31.5198C30.8579 31.9731 31.1179 32.3331 31.6379 32.5998C32.1579 32.8531 32.8045 32.9798 33.5779 32.9798ZM33.5779 38.5798C34.3512 38.5798 34.9912 38.4465 35.4979 38.1798C36.0179 37.9131 36.2779 37.5598 36.2779 37.1198C36.2779 36.6798 36.0179 36.3331 35.4979 36.0798C34.9779 35.8131 34.3379 35.6798 33.5779 35.6798C32.8045 35.6798 32.1579 35.8131 31.6379 36.0798C31.1179 36.3331 30.8579 36.6798 30.8579 37.1198C30.8579 37.5731 31.1179 37.9331 31.6379 38.1998C32.1579 38.4531 32.8045 38.5798 33.5779 38.5798Z" fill="white"/>
<path d="M21.84 38.2998C23.04 38.2731 23.9267 38.2465 24.5 38.2198V41.9998H13.92V38.2198C15.36 38.2731 16.4467 38.2998 17.18 38.2998V31.3998C16.7 32.4531 15.72 33.1331 14.24 33.4398C14.2 31.8665 14.0534 30.4331 13.8 29.1398C14.8667 28.9931 15.6067 28.8131 16.02 28.5998C16.4467 28.3731 16.7734 28.1265 17 27.8598C17.24 27.5931 17.4 27.4131 17.48 27.3198V27.2798H21.84V38.2998Z" fill="white"/>
</svg>
