<svg width="653" height="857" viewBox="0 0 653 857" fill="none" xmlns="http://www.w3.org/2000/svg">
<path d="M-160.546 673.708L-123.454 785.07C-123.454 785.07 -24.3572 709.836 78.2657 698.884C180.889 687.932 218.247 730.38 293.206 720.893C368.165 711.407 394.483 677.789 451.174 611.976C519.186 533.02 617.288 500.96 617.288 500.96C617.288 500.96 591.248 506.14 545.054 528.379C489.19 555.279 456.813 591.257 387.754 641.699C321.156 690.356 285.61 686.338 88.7922 631.081C-66.9038 587.365 -160.548 673.7 -160.548 673.7" fill="#8D33B3"/>
<path d="M617.288 500.959C617.288 500.959 556.299 484.311 483.175 517.564C410.05 550.818 354.188 566.002 300.806 504.373C247.424 442.743 184.207 287.878 23.6136 243.476C-136.979 199.074 -301.905 250.583 -301.905 250.583L-279.534 317.75C-279.534 317.75 -86.9649 239.579 64.3777 321.971C187.895 389.217 233.95 493.767 297.931 534.763C352.755 569.893 392.688 576.179 478.531 527.334C543.873 490.16 617.293 500.949 617.293 500.949L617.288 500.959Z" fill="#D557D7"/>
<mask id="mask0_62_1748" style="mask-type:luminance" maskUnits="userSpaceOnUse" x="-280" y="281" width="898" height="308">
<path d="M-250.433 405.149C-250.433 405.149 -73.5131 336.561 73.0178 436.228C219.549 535.895 278.954 613.762 399.037 581.541C480.495 559.684 518.814 514.145 563.624 506.249C593.787 500.933 607.57 500.528 613.415 500.74C616.256 500.838 617.29 500.967 617.29 500.967C617.29 500.967 545.657 487.478 482.283 522.793C396.002 570.872 352.752 569.911 297.921 534.784C233.939 493.788 187.401 385.388 63.8863 318.15C-87.4537 235.741 -279.539 317.761 -279.539 317.761L-250.433 405.149Z" fill="white"/>
</mask>
<g mask="url(#mask0_62_1748)">
<path d="M438.515 576.816L401.272 529.337C401.272 529.337 442.063 505.738 441.968 504.954C441.874 504.169 478.641 550.824 478.641 550.824L438.515 576.816Z" fill="#FBAC2F"/>
<path d="M449.262 513.046L430.45 548.569L470.681 541.655L449.262 513.046Z" fill="#BD3467"/>
<path d="M322.06 605.021L291.842 553.315L242.667 529.081L208.453 504.585L268.895 604.932L322.06 605.021Z" fill="#FBAC2F"/>
<path d="M316.732 603.724L290.613 551.838L306.213 529.381L386.24 534.213L425.088 583.93L359.971 612.533L316.732 603.724Z" fill="#0F9296"/>
<path d="M425.089 583.93L385.02 536.637L401.274 529.345L438.515 576.816L425.089 583.93Z" fill="#BD3467"/>
<path d="M396.05 599.42L394.901 548.176L426.733 587.366L396.05 599.42Z" fill="#FBAC2F"/>
<path d="M447.511 514.428L430.129 546.289L466.302 544.447" stroke="#231F20" stroke-width="6.84" stroke-linecap="round" stroke-linejoin="round"/>
<path d="M401.95 532.376L435.904 573.588" stroke="#231F20" stroke-width="6.84" stroke-linecap="round" stroke-linejoin="round"/>
<path d="M386.639 537.519L422.788 581.238" stroke="#231F20" stroke-width="6.84" stroke-linecap="round" stroke-linejoin="round"/>
<path d="M393.216 594.572L393.588 545.92" stroke="#231F20" stroke-width="6.84" stroke-linecap="round" stroke-linejoin="round"/>
<path d="M375.889 540.258L375.337 568.663L351.836 547.953" stroke="#231F20" stroke-width="6.84" stroke-linecap="round" stroke-linejoin="round"/>
<path d="M326.583 597.126C326.151 597.015 343.757 562.561 343.757 562.561L384.796 594.639" stroke="#231F20" stroke-width="6.84" stroke-linecap="round" stroke-linejoin="round"/>
<path d="M350.369 581.411L362.712 602.556" stroke="#231F20" stroke-width="6.84" stroke-linecap="round" stroke-linejoin="round"/>
<path d="M306.508 552.081L321.184 572.194L330.359 552.5" stroke="#231F20" stroke-width="6.84" stroke-linecap="round" stroke-linejoin="round"/>
<path d="M290.737 552.499L316.403 590.986" stroke="#231F20" stroke-width="6.84" stroke-linecap="round" stroke-linejoin="round"/>
<path d="M-104.524 339.597C-87.6437 325.436 -40.3414 300.941 1.78331 304.189C55.8083 308.362 144.394 316.916 218.689 442.678C292.984 568.441 217.952 663.469 156.586 684.627C95.2195 705.786 -40.219 660.237 -98.9601 570.346C-157.701 480.454 -152.928 380.202 -104.524 339.597Z" fill="#FBAC2F"/>
<mask id="mask1_62_1748" style="mask-type:luminance" maskUnits="userSpaceOnUse" x="-142" y="303" width="392" height="387">
<path d="M-104.524 339.597C-87.6437 325.436 -40.3414 300.941 1.78331 304.189C55.8083 308.362 144.394 316.916 218.689 442.678C292.984 568.441 217.952 663.469 156.586 684.627C95.2195 705.786 -40.219 660.237 -98.9601 570.346C-157.701 480.454 -152.928 380.202 -104.524 339.597Z" fill="white"/>
</mask>
<g mask="url(#mask1_62_1748)">
<path d="M-25.6778 295.25L-10.549 381.747" stroke="#231F20" stroke-width="14.77" stroke-linecap="round" stroke-linejoin="round"/>
<path d="M4.63753 293.287L24.1411 384.278L110.287 322.932" stroke="#231F20" stroke-width="14.77" stroke-linecap="round" stroke-linejoin="round"/>
<path d="M79.4441 306.001L40.8855 341.572L35.6388 295.072" stroke="#231F20" stroke-width="14.77" stroke-linecap="round" stroke-linejoin="round"/>
<path d="M60.0234 397.187L128.004 341.611L101.57 428.657" stroke="#231F20" stroke-width="14.77" stroke-linecap="round" stroke-linejoin="round"/>
<path d="M154.453 340.875L121.888 471.585L248.699 448.786" stroke="#231F20" stroke-width="14.77" stroke-linecap="round" stroke-linejoin="round"/>
<path d="M228.049 417.798L163.144 431.913L172.885 366.02" stroke="#231F20" stroke-width="14.77" stroke-linecap="round" stroke-linejoin="round"/>
<path d="M157.73 499.971L293.201 474.296L278.07 521.818L185.798 592.882L285.618 579.073" stroke="#231F20" stroke-width="14.77" stroke-linecap="round" stroke-linejoin="round"/>
<path d="M178.68 519.635C178.68 519.635 238.308 514.176 236.799 514.678C235.29 515.181 183.472 562.136 183.472 562.136" stroke="#231F20" stroke-width="14.77" stroke-linecap="round" stroke-linejoin="round"/>
<path d="M260.212 618.723L177.676 615.025" stroke="#231F20" stroke-width="14.77" stroke-linecap="round" stroke-linejoin="round"/>
</g>
<path d="M9.04572 267.239C-72.5257 192.376 -143.48 101.805 -201.156 136.442C-241.42 160.62 -448.08 247.574 -441.743 294.211C-435.304 341.603 -310.508 490.755 -247.324 526.935C-186.666 561.666 -29.6396 503.512 24.7559 477.418C81.8135 450.042 119.896 368.962 9.04572 267.239Z" fill="white"/>
<mask id="mask2_62_1748" style="mask-type:luminance" maskUnits="userSpaceOnUse" x="-442" y="128" width="523" height="410">
<path d="M9.04572 267.239C-72.5257 192.376 -143.48 101.805 -201.156 136.442C-241.42 160.62 -448.08 247.574 -441.743 294.211C-435.304 341.603 -310.508 490.755 -247.324 526.935C-186.666 561.666 -29.6396 503.512 24.7559 477.418C81.8135 450.042 119.896 368.962 9.04572 267.239Z" fill="white"/>
</mask>
<g mask="url(#mask2_62_1748)">
<path d="M-245.551 135.415C-254.105 157.316 -260.31 188.113 -251.154 226.247C-241.998 264.381 -224.29 299.078 -198.685 331.821C-173.081 364.564 -169.887 375.575 -202.751 355.605C-235.625 335.629 -261.86 298.226 -293.452 287.582C-325.044 276.938 -374.142 259.813 -374.142 259.813C-374.142 259.813 -402.948 228.364 -367.082 231.135C-331.215 233.905 -321.391 227.491 -303.89 240.117C-286.388 252.751 -268.678 268.984 -268.678 268.984C-268.678 268.984 -287.235 238.326 -285.51 205.642C-283.791 172.969 -277.146 130.924 -277.146 130.924L-245.551 135.415ZM-212.24 125.689C-212.24 125.689 -219.935 143.557 -221.44 161.381C-222.942 179.213 -224.036 228.86 -215.515 256.183C-206.986 283.503 -170.507 334.01 -156.426 356.629C-142.346 379.249 -123.992 400.156 -97.3167 414.008C-70.6335 427.858 -88.1295 409.079 -96.4489 385.365C-104.76 361.649 -125.247 341.611 -140.187 323.025C-155.118 304.436 -171.326 270.371 -182.414 242.85C-193.503 215.329 -182.805 180.262 -179.374 145.667L-212.248 125.692L-212.24 125.689ZM-131.332 144.76C-131.332 144.76 -140.955 167.087 -146.301 181.548C-151.649 196.001 -156.353 215.127 -152.317 246.717C-148.28 278.307 -100.271 338.926 -90.2439 354.568C-80.2165 370.209 -60.1587 389.197 -47.5725 417.342C-34.9942 445.491 -6.59657 457.427 11.7549 466.022C30.1144 474.615 47.6133 481.098 63.8481 478.254C80.0724 475.403 81.5773 457.579 81.5773 457.579C81.5773 457.579 36.54 435.126 4.95245 418.329C-26.6351 401.532 -16.1717 399.776 -35.1683 380.365C-54.157 360.951 -80.189 320.996 -106.001 284.654C-131.815 248.304 -106.808 202.557 -96.9735 177.676L-131.33 144.768L-131.332 144.76ZM-69.0044 176.232C-69.0044 176.232 -84.8159 192.441 -82.6889 216.19C-80.5699 239.941 -84.0172 299.148 -54.7831 325.505C-25.549 351.861 -3.56967 372.534 16.4975 385.358C36.5593 398.193 75.6111 436.584 77.7424 441.876C79.8738 447.169 96.7642 399.763 96.7642 399.763C96.7642 399.763 89.7165 397.679 57.0667 375.163C24.4143 352.639 1.784 345.767 -20.401 315.334C-42.5913 284.912 -44.5006 264.767 -41.9277 240.348C-39.3523 215.937 -28.6627 193.176 -28.6627 193.176L-69.0097 176.216L-69.0044 176.232ZM19.9957 233.878C19.9957 233.878 5.68069 256.873 9.08383 283.794C12.4869 310.716 23.3617 328.48 42.3624 341.738C61.3552 354.999 93.5922 364.156 93.5922 364.156C93.5922 364.156 86.5844 294.4 64.1814 272.665C41.7732 250.942 20.0036 233.876 20.0036 233.876L19.9957 233.878ZM4.46184 521.85C3.79081 520.388 -7.44703 490.785 -22.6245 476.174C-38.8444 460.568 -61.2556 451.14 -89.0078 437.716C-116.76 424.293 -160.09 406.071 -190.394 386.301C-220.702 366.524 -246.949 347.58 -268.723 336.667C-290.496 325.754 -305.214 304.619 -330.412 309.852C-355.609 315.086 -361.404 326.011 -364.488 327.266C-367.571 328.521 -356.823 348.775 -351.742 349.198C-346.661 349.62 -333.848 344.458 -322.106 345.882C-310.364 347.307 -323.596 345.255 -288.165 365.423C-252.735 385.592 -234.808 399.287 -213.248 412.746C-191.689 426.205 -194.26 432.159 -170.565 444.758C-146.869 457.357 -128.937 458.738 -103.115 470.479C-77.2838 482.217 -63.8337 475.569 -56.3653 491.01C-48.9049 506.453 -41.0062 516.81 -41.0062 516.81L4.4671 521.866L4.46184 521.85ZM-79.4509 538.443C-77.5252 533.976 -52.9622 517.932 -67.9059 505.498C-82.8417 493.063 -91.1737 500.111 -114.442 494.724C-137.709 489.337 -171.654 475.949 -198.328 455.936C-225.007 435.933 -238.876 423.063 -261.926 408.977C-284.976 394.891 -288.605 388.974 -308.889 390.991C-329.173 393.009 -336.654 408.33 -336.654 408.33L-318.323 459.993L-79.4509 538.443Z" fill="#231F20"/>
</g>
<path d="M625.397 501.33L573.119 491.205L529.512 486.51L539.034 524.11L615.945 535.473L625.397 501.33Z" fill="#0F9296"/>
<path d="M540.222 489.025L515.668 491.078L500.009 495.811L503.607 534.462L540.337 524.413L540.222 489.025Z" fill="#BD3467"/>
<path d="M500.009 495.81L478.939 503.03L461.296 516.769L469.461 559.858L503.607 534.461L500.009 495.81Z" fill="#FBAC2F"/>
<path d="M550.835 501.733L560.699 494.964L570.072 506.243" stroke="#231F20" stroke-width="5.62" stroke-linecap="round" stroke-linejoin="round"/>
<path d="M549.141 515.276L559.008 508.515L568.381 519.794" stroke="#231F20" stroke-width="5.62" stroke-linecap="round" stroke-linejoin="round"/>
<path d="M540.247 485.357C540.07 486.118 540.661 526.859 540.661 526.859" stroke="#231F20" stroke-width="5.62" stroke-linecap="round" stroke-linejoin="round"/>
<path d="M516.98 487.771L530.558 495.999L514.538 513.981L529.557 530.934" stroke="#231F20" stroke-width="5.62" stroke-linecap="round" stroke-linejoin="round"/>
<path d="M499.662 492.135L504.297 541.831" stroke="#231F20" stroke-width="5.62" stroke-linecap="round" stroke-linejoin="round"/>
<path d="M468.955 507.224L488.23 516.96L479.236 530.004L498.773 543.741" stroke="#231F20" stroke-width="5.62" stroke-linecap="round" stroke-linejoin="round"/>
<path d="M460.68 513.71L470.75 564.149" stroke="#231F20" stroke-width="5.62" stroke-linecap="round" stroke-linejoin="round"/>
<path d="M281.809 485.067C258.245 461.771 227.29 443.579 198.566 455.006C173.359 465.034 172.448 499.895 187.51 522.907C200.098 542.154 242.211 585.229 280.217 581.249C306.375 578.504 313.562 560.376 313.828 548.16C314.097 535.952 311.798 514.717 281.809 485.067Z" fill="white"/>
<mask id="mask3_62_1748" style="mask-type:luminance" maskUnits="userSpaceOnUse" x="177" y="451" width="137" height="131">
<path d="M281.809 485.067C258.245 461.771 227.29 443.579 198.566 455.006C173.359 465.034 172.448 499.895 187.51 522.907C200.098 542.154 242.211 585.229 280.217 581.249C306.375 578.504 313.562 560.376 313.828 548.16C314.097 535.952 311.798 514.717 281.809 485.067Z" fill="white"/>
</mask>
<g mask="url(#mask3_62_1748)">
<path d="M255.794 594.79C253.59 597.077 249.941 597.134 247.662 594.927C233.503 581.241 229.632 571.464 225.893 562.004C223.591 556.198 221.212 550.189 216.238 542.763C209.208 532.275 203.299 526.468 197.576 520.853C193.717 517.066 189.729 513.156 185.558 507.981C170.392 489.19 167.754 474.764 165.819 464.237L165.535 462.699C164.962 459.582 167.014 456.573 170.136 455.989C173.259 455.406 176.262 457.468 176.846 460.59L177.133 462.162C179.034 472.507 181.18 484.245 194.508 500.761C198.27 505.414 201.844 508.928 205.629 512.651C211.76 518.674 218.106 524.897 225.789 536.37C231.445 544.815 234.171 551.708 236.578 557.778C240.172 566.857 243.277 574.703 255.649 586.659C257.852 588.795 257.988 592.26 256.005 594.553C255.937 594.637 255.858 594.716 255.786 594.792L255.794 594.79ZM284.856 592.437C286.916 590.058 286.674 586.461 284.311 584.37C267.203 569.235 262.417 559.29 256.359 546.688C253.28 540.289 249.793 533.035 244.327 524.29C236.955 512.511 229.703 506.388 223.293 500.976C219.145 497.479 215.233 494.166 211.511 489.552C196.58 471.042 192.865 459.415 191.206 450.481C190.622 447.358 187.618 445.296 184.496 445.88C181.373 446.464 179.319 449.465 179.894 452.59C181.822 462.935 186.018 476.271 202.553 496.774C206.964 502.247 211.494 506.073 215.866 509.768C222.181 515.106 228.152 520.147 234.568 530.401C239.695 538.601 242.892 545.25 245.992 551.685C252.352 564.906 257.845 576.336 276.689 592.999C279.066 595.103 282.705 594.883 284.806 592.498L284.851 592.448L284.856 592.437ZM306.739 586C308.799 583.62 308.558 580.024 306.194 577.933C289.089 562.806 284.3 552.852 278.242 540.25C275.163 533.852 271.674 526.589 266.207 517.845C258.835 506.066 251.583 499.943 245.174 494.531C241.025 491.034 237.114 487.72 233.392 483.107C218.46 464.597 214.745 452.969 213.086 444.036C212.502 440.913 209.499 438.851 206.376 439.435C203.253 440.018 201.191 443.022 201.775 446.145C203.702 456.49 207.898 469.826 224.433 490.329C228.844 495.801 233.375 499.628 237.747 503.323C244.062 508.661 250.032 513.702 256.448 523.956C261.583 532.153 264.783 538.81 267.873 545.24C274.228 558.471 279.725 569.891 298.57 586.554C300.947 588.658 304.585 588.438 306.687 586.053L306.732 586.003L306.739 586ZM324.812 572.89C326.871 570.511 326.63 566.914 324.266 564.823C307.159 549.688 302.369 539.735 296.312 527.132C293.233 520.734 289.746 513.48 284.28 504.735C276.908 492.956 269.653 486.825 263.246 481.421C259.097 477.924 255.186 474.611 251.456 470C236.524 451.49 232.818 439.86 231.158 430.926C230.575 427.803 227.571 425.741 224.448 426.325C221.326 426.909 219.263 429.912 219.847 433.035C221.775 443.38 225.971 456.716 242.505 477.219C246.917 482.691 251.447 486.518 255.827 490.21C262.142 495.549 268.112 500.589 274.526 510.835C279.653 519.035 282.85 525.684 285.94 532.114C292.303 545.343 297.792 556.765 316.639 573.436C319.016 575.54 322.655 575.32 324.756 572.935L324.801 572.885L324.812 572.89Z" fill="#231F20"/>
</g>
</g>
<path d="M-255.471 390.312C-255.471 390.312 -56.6767 305.25 94.5836 412.714C172.339 467.954 211.448 521.77 272.937 558.497C328.84 591.89 369.889 605.238 476.669 538.502C542.426 497.408 617.285 500.952 617.285 500.952C617.285 500.952 613.18 500.906 604.639 501.688C583.584 503.603 533.336 513.485 442.72 575.004C279.847 685.581 213.826 576.887 118.811 514.25C23.7956 451.613 -107.324 435.919 -224.618 481.339C-240.656 433.186 -266.148 358.231 -266.148 358.231" fill="#E32C26"/>
<path d="M-193.696 574.178L-160.546 673.707C-160.546 673.707 -70.4995 606.157 87.0966 642.43C244.693 678.704 300.262 698.184 372.254 657.919C444.235 617.648 489.192 555.287 545.065 528.384C591.256 506.137 617.298 500.965 617.298 500.965C617.298 500.965 577.876 505.46 528.343 529.663C493.557 546.655 453.204 577.628 392.731 617.014C301.118 676.698 221.473 637.339 99.6009 571.87C-42.0227 495.79 -193.693 574.186 -193.693 574.186" fill="#FFCC40"/>
<path d="M-160.546 673.708L-123.454 785.07C-123.454 785.07 -24.3572 709.836 78.2657 698.884C180.889 687.932 218.247 730.38 293.206 720.893C368.165 711.407 394.483 677.789 451.174 611.976C519.186 533.02 617.288 500.96 617.288 500.96C617.288 500.96 591.248 506.14 545.054 528.379C489.19 555.279 456.813 591.257 387.754 641.699C321.156 690.356 285.61 686.338 88.7922 631.081C-66.9038 587.365 -160.548 673.7 -160.548 673.7" fill="#8D33B3"/>
<mask id="mask4_62_1748" style="mask-type:luminance" maskUnits="userSpaceOnUse" x="-227" y="443" width="845" height="206">
<path d="M-226.756 474.917C-109.463 429.497 -0.196756 427.451 114.732 506.824C208.38 571.496 287.937 668.267 443.056 572.005C476.887 551.013 501.498 534.427 524.711 524.265C562.752 507.61 589.358 503.128 604.06 501.767C612.37 501.001 617.298 500.965 617.298 500.965C617.298 500.965 577.876 505.46 528.344 529.663C493.557 546.655 453.204 577.628 392.731 617.015C301.118 676.698 229.783 645.663 107.908 580.187C-33.7154 504.106 -193.696 574.178 -193.696 574.178L-226.756 474.917Z" fill="white"/>
</mask>
<g mask="url(#mask4_62_1748)">
<path d="M-226.757 474.917C-109.463 429.497 -0.196863 427.451 114.732 506.824C208.38 571.496 287.937 668.267 443.055 572.005C476.887 551.013 501.498 534.427 524.711 524.265C562.752 507.61 589.358 503.128 604.06 501.767C612.37 501.001 617.298 500.965 617.298 500.965C617.298 500.965 577.876 505.46 528.343 529.663C493.557 546.655 453.204 577.628 392.731 617.015C301.118 676.698 229.783 645.663 107.908 580.187C-33.7155 504.106 -193.696 574.178 -193.696 574.178L-226.757 474.917Z" fill="#009198"/>
<path d="M69.4336 527.774C69.4336 527.774 89.6565 527.865 99.3407 536.206C109.025 544.546 96.0577 557.781 96.0577 557.781C96.0577 557.781 98.6759 575.127 83.8481 573.581C66.8193 571.802 61.3267 551.675 61.3267 551.675C61.3267 551.675 75.8146 587.217 53.0668 587.449C30.3164 587.672 27.3157 573.42 30.3984 563.6C33.4812 553.78 40.5875 541.708 40.5875 541.708C40.5875 541.708 35.4609 554.455 23.1566 558.957C10.8522 563.459 -0.594354 537.075 5.30058 526.029C11.1902 514.993 18.4811 512.617 23.378 513.408C28.2749 514.2 37.2856 520.676 37.2856 520.676C37.2856 520.676 21.0972 505.954 16.6319 494.735C12.1666 483.515 12.1685 475.406 19.8018 472.793C27.435 470.181 30.383 473.736 30.383 473.736C30.383 473.736 34.7874 464.222 45.3019 468.758C55.8164 473.294 51.7454 508.813 51.7454 508.813C51.7454 508.813 53.5266 492.082 59.005 482.947C64.4835 473.812 79.6097 471.934 89.6921 488.82C99.7745 505.707 105.093 526.576 69.431 527.766L69.4336 527.774Z" fill="#F36E28"/>
<path d="M61.2769 528.525C61.2769 528.525 79.343 530.73 85.1482 542.574C90.9508 554.41 78.8495 568.401 67.6283 557.422C59.2842 549.258 57.5767 544.079 57.5767 544.079C57.5767 544.079 60.6648 555.933 55.6365 565.338C50.6055 574.737 37.2663 568.886 38.7333 555.822C40.2029 542.766 44.8174 535.332 44.8174 535.332C44.8174 535.332 38.2045 543.01 30.3505 543.748C22.5045 544.484 15.0042 530.186 22.6464 523.41C30.2806 516.638 40.7972 523.631 41.0105 523.244C41.2239 522.857 34.0172 514.472 28.311 506.746C22.6048 499.02 24.4285 491.743 29.6134 488.182C34.7983 484.621 43.3929 491.403 45.6372 498.062C47.8788 504.713 52.2591 518.813 52.2591 518.813C52.2591 518.813 51.9319 510.848 56.2673 503.604C60.6027 496.359 68.2194 496.674 74.5425 500.851C80.863 505.021 81.4239 515.452 76.1176 520.335C68.5412 527.307 61.2611 528.53 61.2611 528.53L61.2769 528.525Z" fill="#FBAC2F"/>
<path d="M51.9662 521.517C51.9662 521.517 54.6381 512.255 61.477 517.164C68.2581 522.031 58.8439 529.23 58.8439 529.23C58.8439 529.23 73.7766 532.803 66.8763 542.175C61.335 549.698 56.3353 538.297 56.3353 538.297C56.3353 538.297 57.3837 547.241 49.8643 546.981C40.9338 546.673 46.1526 533.782 46.1526 533.782C46.1526 533.782 36.3437 539.927 35.7245 531.217C35.1078 522.516 46.2359 526.575 46.2359 526.575C46.2359 526.575 35.3534 519.301 41.992 514.334C48.6411 509.373 51.9583 521.519 51.9583 521.519L51.9662 521.517Z" fill="#0F9296"/>
<path d="M56.8598 535.665C59.0587 533.688 58.8229 529.84 56.333 527.07C53.8432 524.3 50.0422 523.657 47.8433 525.634C45.6444 527.61 45.8803 531.458 48.3701 534.228C50.86 536.998 54.6609 537.641 56.8598 535.665Z" fill="#F36E28"/>
<path d="M119.44 613.387C119.44 613.387 135.029 603.992 146.893 609.737C158.758 615.482 157.848 633.959 142.254 632.22C130.654 630.933 126.119 627.907 126.119 627.907C126.119 627.907 135.861 635.341 137.691 645.842C139.521 656.342 125.411 659.953 118.518 648.77C111.623 637.579 110.682 628.88 110.682 628.88C110.682 628.88 110.211 639.005 104.475 644.417C98.7502 649.834 84.0342 643.196 85.877 633.157C87.7171 623.111 100.305 622.148 100.237 621.705C100.168 621.263 89.3241 619.109 80.0624 616.543C70.8006 613.976 67.7534 607.119 69.6426 601.12C71.5318 595.12 82.4791 595.159 88.3468 599.023C94.2119 602.879 106.355 611.278 106.355 611.278C106.355 611.278 101.183 605.208 100.14 596.833C99.094 588.45 105.277 584.012 112.831 583.4C120.384 582.789 127.252 590.655 126.084 597.766C124.415 607.931 119.445 613.377 119.445 613.377L119.44 613.387Z" fill="#FBAC2F"/>
<path d="M107.792 613.616C107.792 613.616 104.19 604.672 112.604 604.326C120.948 603.978 117.967 615.449 117.967 615.449C117.967 615.449 131.923 609.054 132.27 620.689C132.547 630.03 121.588 624.133 121.588 624.133C121.588 624.133 127.921 630.527 121.841 634.956C114.626 640.22 110.788 626.852 110.788 626.852C110.788 626.852 106.857 637.736 100.998 631.263C95.1385 624.79 106.408 621.133 106.408 621.133C106.408 621.133 93.3514 622.112 95.5228 614.114C97.6994 606.105 107.795 613.624 107.795 613.624L107.792 613.616Z" fill="#0F9296"/>
<path d="M120.351 621.734C120.864 618.823 118.306 615.938 114.638 615.292C110.97 614.646 107.581 616.483 107.068 619.395C106.555 622.307 109.113 625.191 112.781 625.837C116.449 626.483 119.839 624.646 120.351 621.734Z" fill="#F36E28"/>
<path d="M145.184 555.6C145.184 555.6 135.903 571.258 122.73 571.81C109.561 572.371 101.616 555.658 116.175 549.809C127.01 545.454 132.428 545.966 132.428 545.966C132.428 545.966 120.331 544.028 113.745 535.638C107.162 527.256 117.883 517.394 129.25 523.989C140.617 530.584 145.565 537.799 145.565 537.799C145.565 537.799 141.194 528.654 143.679 521.175C146.163 513.696 162.261 512.573 165.392 522.289C168.522 532.005 157.892 538.819 158.158 539.169C158.424 539.519 169.003 536.294 178.369 534.166C187.737 532.046 193.673 536.642 194.846 542.824C196.026 549.004 186.357 554.146 179.359 553.528C172.369 552.908 157.692 551.259 157.692 551.259C157.692 551.259 165.115 554.157 170.006 561.04C174.888 567.926 171.543 574.771 165.181 578.882C158.819 582.993 149.046 579.315 146.705 572.495C143.363 562.753 145.166 555.597 145.166 555.597L145.184 555.6Z" fill="#FBAC2F"/>
<path d="M51.4459 428.846C51.4459 428.846 48.8167 446.851 36.8465 452.382C24.8736 457.906 11.1779 445.478 22.4122 434.523C30.7734 426.376 35.9842 424.79 35.9842 424.79C35.9842 424.79 24.0541 427.596 14.7772 422.35C5.50032 417.103 11.6669 403.895 24.6859 405.675C37.7128 407.453 45.0284 412.239 45.0284 412.239C45.0284 412.239 37.508 405.442 36.9596 397.577C36.4112 389.713 50.8777 382.56 57.4659 390.352C64.054 398.144 56.8113 408.49 57.2009 408.711C57.5905 408.932 66.1384 401.926 73.9961 396.404C81.8512 390.874 89.091 392.877 92.5282 398.138C95.9681 403.407 88.9838 411.841 82.2801 413.925C75.5764 416.008 61.3765 420.062 61.3765 420.062C61.3765 420.062 69.3488 419.917 76.4854 424.428C83.6219 428.94 83.1251 436.538 78.8084 442.759C74.4917 448.979 64.0498 449.298 59.2961 443.878C52.4973 436.139 51.4512 428.835 51.4512 428.835L51.4459 428.846Z" fill="#FBAC2F"/>
<path d="M146.522 542.939C146.522 542.939 155.716 545.827 150.654 552.55C145.626 559.217 138.654 549.64 138.654 549.64C138.654 549.64 134.735 564.486 125.527 557.364C118.138 551.647 129.648 546.918 129.648 546.918C129.648 546.918 120.685 547.753 121.124 540.245C121.637 531.325 134.41 536.846 134.41 536.846C134.41 536.846 128.499 526.898 137.214 526.479C145.929 526.06 141.608 537.09 141.608 537.09C141.608 537.09 149.133 526.379 153.947 533.139C158.753 539.901 146.536 542.926 146.536 542.926L146.522 542.939Z" fill="#0F9296"/>
<path d="M140.9 547.161C143.728 544.736 144.46 540.951 142.535 538.707C140.611 536.462 136.758 536.608 133.931 539.033C131.103 541.457 130.372 545.242 132.296 547.486C134.221 549.731 138.073 549.585 140.9 547.161Z" fill="#F36E28"/>
<path d="M399.224 614.879C399.224 614.879 396.578 625.114 391.101 628.957C385.629 632.789 380.584 624.518 380.584 624.518C380.584 624.518 371.453 623.61 374.143 616.3C377.234 607.899 388.147 607.704 388.147 607.704C388.147 607.704 368.265 610.482 371.075 598.919C373.887 587.365 381.493 587.674 386.076 590.501C390.659 593.327 395.86 598.483 395.86 598.483C395.86 598.483 390.061 594.245 389.363 587.431C388.664 580.617 403.508 578.209 408.347 582.618C413.185 587.026 413.452 591.018 412.422 593.406C411.39 595.785 406.947 599.52 406.947 599.52C406.947 599.52 416.49 593.209 422.746 592.389C429.002 591.569 433.114 592.613 433.461 596.815C433.807 601.017 431.624 602.051 431.624 602.051C431.624 602.051 435.881 605.504 432.233 610.255C428.583 614.999 411.097 608.37 411.097 608.37C411.097 608.37 419.345 611.424 423.267 615.374C427.189 619.324 426.2 627.236 416.35 630.174C406.492 633.115 395.236 633.126 399.213 614.9L399.224 614.879Z" fill="#F36E28"/>
<path d="M399.897 610.653C399.897 610.653 396.453 619.522 389.705 620.945C382.957 622.368 377.427 614.434 384.437 610.16C389.653 606.983 392.491 606.784 392.491 606.784C392.491 606.784 386.08 606.821 381.969 603.066C377.847 599.305 382.532 593.296 388.966 595.725C395.4 598.154 398.567 601.443 398.567 601.443C398.567 601.443 395.524 597.103 396.16 593.03C396.795 588.958 405.005 586.995 407.455 591.743C409.905 596.491 405.007 600.913 405.175 601.076C405.344 601.239 410.523 598.663 415.173 596.763C419.823 594.863 423.277 596.723 424.419 599.809C425.561 602.895 421.01 606.385 417.356 606.663C413.694 606.944 405.985 607.353 405.985 607.353C405.985 607.353 410.06 608.207 413.176 611.346C416.29 614.477 415.149 618.297 412.221 620.966C409.293 623.635 403.938 622.575 402.14 619.26C399.58 614.523 399.897 610.679 399.897 610.679L399.897 610.653Z" fill="#FBAC2F"/>
<path d="M404.644 606.834C404.644 606.834 408.993 609.378 405.63 612.218C402.294 615.032 399.852 609.334 399.852 609.334C399.852 609.334 396.12 616.439 392.256 611.741C389.155 607.965 395.574 606.897 395.574 606.897C395.574 606.897 390.909 606.275 392.003 602.497C393.307 598.008 399.172 602.312 399.172 602.312C399.172 602.312 397.322 596.548 401.811 597.352C406.3 598.156 402.81 603.276 402.81 603.276C402.81 603.276 407.901 598.694 409.561 602.704C411.221 606.714 404.642 606.826 404.642 606.826L404.644 606.834Z" fill="#0F9296"/>
<path d="M401.292 608.305C403.014 607.4 403.827 605.558 403.109 604.19C402.39 602.823 400.411 602.447 398.69 603.352C396.968 604.257 396.155 606.099 396.873 607.467C397.592 608.835 399.571 609.21 401.292 608.305Z" fill="#F36E28"/>
<path d="M495.047 547.677C495.047 547.677 493.758 552.66 491.09 554.532C488.423 556.403 485.965 552.369 485.965 552.369C485.965 552.369 481.518 551.928 482.833 548.366C484.34 544.275 489.653 544.182 489.653 544.182C489.653 544.182 479.974 545.527 481.339 539.904C482.712 534.278 486.411 534.424 488.644 535.804C490.873 537.176 493.414 539.691 493.414 539.691C493.414 539.691 490.586 537.631 490.25 534.303C489.909 530.986 497.144 529.813 499.5 531.96C501.856 534.106 501.987 536.054 501.486 537.213C500.986 538.371 498.819 540.19 498.819 540.19C498.819 540.19 503.464 537.116 506.515 536.714C509.567 536.312 511.562 536.823 511.736 538.871C511.909 540.92 510.84 541.425 510.84 541.425C510.84 541.425 512.912 543.113 511.134 545.416C509.356 547.72 500.842 544.5 500.842 544.5C500.842 544.5 504.857 545.989 506.771 547.914C508.684 549.839 508.201 553.685 503.396 555.119C498.599 556.55 493.115 556.552 495.047 547.677Z" fill="#F36E28"/>
<path d="M495.371 545.621C495.371 545.621 493.695 549.943 490.407 550.635C487.118 551.327 484.426 547.459 487.841 545.382C490.38 543.834 491.759 543.735 491.759 543.735C491.759 543.735 488.642 543.755 486.636 541.922C484.63 540.089 486.911 537.162 490.044 538.348C493.177 539.533 494.719 541.134 494.719 541.134C494.719 541.134 493.235 539.022 493.548 537.04C493.862 535.057 497.854 534.105 499.051 536.409C500.249 538.713 497.863 540.877 497.942 540.956C498.021 541.035 500.543 539.782 502.813 538.851C505.075 537.922 506.765 538.833 507.317 540.334C507.87 541.835 505.655 543.538 503.876 543.674C502.096 543.811 498.336 544.01 498.336 544.01C498.336 544.01 500.326 544.427 501.835 545.951C503.351 547.474 502.795 549.335 501.367 550.635C499.94 551.935 497.328 551.419 496.457 549.805C495.207 547.501 495.363 545.623 495.363 545.623L495.371 545.621Z" fill="#FBAC2F"/>
<path d="M497.683 543.762C497.683 543.762 499.8 545.006 498.162 546.385C496.524 547.764 495.35 544.978 495.35 544.978C495.35 544.978 493.538 548.443 491.651 546.149C490.143 544.308 493.271 543.793 493.271 543.793C493.271 543.793 490.993 543.49 491.531 541.652C492.163 539.467 495.019 541.561 495.019 541.561C495.019 541.561 494.12 538.754 496.305 539.149C498.49 539.545 496.791 542.032 496.791 542.032C496.791 542.032 499.269 539.803 500.077 541.754C500.885 543.705 497.683 543.762 497.683 543.762Z" fill="#0F9296"/>
<path d="M496.06 544.466C496.898 544.025 497.294 543.127 496.943 542.459C496.592 541.792 495.628 541.608 494.789 542.048C493.951 542.489 493.556 543.387 493.906 544.055C494.257 544.722 495.221 544.906 496.06 544.466Z" fill="#F36E28"/>
<path d="M349.399 629.218C349.399 629.218 352.162 638.328 347.724 643.606C343.287 648.884 334.041 646.049 336.923 638.367C339.065 632.652 341.185 630.743 341.185 630.743C341.185 630.743 336.165 634.723 330.602 634.303C325.039 633.883 325.028 626.261 331.584 624.209C338.14 622.157 342.669 622.79 342.669 622.79C342.669 622.79 337.601 621.248 335.593 617.644C333.585 614.039 338.839 607.445 343.693 609.663C348.55 611.889 347.417 618.391 347.651 618.41C347.885 618.428 350.369 613.213 352.864 608.846C355.35 604.481 359.218 603.816 362.024 605.549C364.83 607.282 363.394 612.824 360.682 615.298C357.972 617.78 352.157 622.85 352.157 622.85C352.157 622.85 355.897 621.008 360.283 621.557C364.669 622.105 366.121 625.807 365.457 629.714C364.793 633.621 359.929 636.092 356.47 634.586C351.531 632.431 349.415 629.213 349.415 629.213L349.399 629.218Z" fill="#FBAC2F"/>
<path d="M350.786 623.289C350.786 623.289 355.78 622.609 354.874 626.921C353.98 631.194 348.547 628.212 348.547 628.212C348.547 628.212 349.993 636.111 344.051 634.791C339.283 633.729 343.678 628.93 343.678 628.93C343.678 628.93 339.621 631.317 338.16 627.67C336.418 623.336 343.688 623.109 343.688 623.109C343.688 623.109 338.678 619.714 342.715 617.58C346.751 615.445 347.153 621.63 347.153 621.63C347.153 621.63 348.337 614.882 352.112 617.021C355.892 619.149 350.78 623.3 350.78 623.3L350.786 623.289Z" fill="#0F9296"/>
<path d="M349.05 626.491C349.848 624.717 349.352 622.765 347.943 622.131C346.534 621.498 344.745 622.422 343.947 624.196C343.15 625.969 343.645 627.921 345.054 628.555C346.463 629.189 348.252 628.265 349.05 626.491Z" fill="#F36E28"/>
<path d="M466.317 559.352C466.317 559.352 461.708 554.762 462.673 550.149C463.637 545.537 470.117 544.256 470.871 549.814C471.431 553.945 470.77 555.78 470.77 555.78C470.77 555.78 472.503 551.763 475.982 550.218C479.46 548.673 481.934 553.255 478.655 556.611C475.376 559.967 472.438 561.051 472.438 561.051C472.438 561.051 475.984 560.344 478.359 561.861C480.733 563.378 479.7 569.049 476.067 569.285C472.433 569.521 471.005 565.232 470.86 565.298C470.715 565.364 470.904 569.302 470.818 572.736C470.733 576.169 468.614 577.814 466.376 577.682C464.138 577.55 463.196 573.747 464.031 571.381C464.859 569.017 466.724 564.078 466.724 564.078C466.724 564.078 465.065 566.394 462.25 567.481C459.435 568.568 457.358 566.811 456.495 564.247C455.632 561.682 457.763 558.62 460.325 558.408C463.99 558.109 466.312 559.362 466.312 559.362L466.317 559.352Z" fill="#FBAC2F"/>
<path d="M433.678 579.182C433.678 579.182 428.789 577.151 428.085 573.376C427.38 569.6 431.867 566.631 434.157 570.581C435.857 573.525 435.928 575.107 435.928 575.107C435.928 575.107 435.986 571.543 438.135 569.3C440.284 567.057 443.564 569.738 442.131 573.287C440.698 576.836 438.823 578.557 438.823 578.557C438.823 578.557 441.28 576.923 443.539 577.329C445.797 577.735 446.784 582.329 444.111 583.632C441.438 584.934 439.038 582.154 438.954 582.243C438.869 582.333 440.227 585.25 441.227 587.857C442.222 590.474 441.142 592.37 439.409 592.964C437.677 593.559 435.8 590.981 435.69 588.938C435.58 586.894 435.457 582.6 435.457 582.6C435.457 582.6 434.927 584.857 433.139 586.549C431.359 588.239 429.245 587.556 427.805 585.895C426.355 584.228 427.017 581.261 428.886 580.313C431.556 578.95 433.694 579.177 433.694 579.177L433.678 579.182Z" fill="#FBAC2F"/>
<path d="M518.921 528.247C518.921 528.247 515.735 526.929 515.286 524.473C514.828 522.019 517.746 520.082 519.235 522.657C520.338 524.572 520.39 525.598 520.39 525.598C520.39 525.598 520.433 523.276 521.826 521.821C523.219 520.365 525.354 522.111 524.427 524.412C523.494 526.723 522.278 527.839 522.278 527.839C522.278 527.839 523.871 526.773 525.345 527.037C526.82 527.301 527.456 530.292 525.718 531.134C523.983 531.984 522.422 530.169 522.364 530.233C522.306 530.296 523.19 532.186 523.845 533.89C524.501 535.594 523.787 536.823 522.662 537.215C521.536 537.599 520.312 535.927 520.246 534.597C520.173 533.27 520.092 530.472 520.092 530.472C520.092 530.472 519.747 531.938 518.588 533.044C517.426 534.141 516.06 533.701 515.121 532.619C514.181 531.537 514.608 529.604 515.824 528.988C517.565 528.102 518.947 528.247 518.947 528.247L518.921 528.247Z" fill="#FBAC2F"/>
<path d="M469.333 563.428C469.333 563.428 467.527 566.356 465.642 564.017C463.771 561.692 467.705 560.118 467.705 560.118C467.705 560.118 462.913 557.458 466.184 554.894C468.815 552.834 469.44 557.241 469.44 557.241C469.44 557.241 469.936 554.066 472.505 554.878C475.546 555.839 472.512 559.772 472.512 559.772C472.512 559.772 476.475 558.601 475.85 561.653C475.228 564.712 471.79 562.241 471.79 562.241C471.79 562.241 474.841 565.789 472.073 566.86C469.306 567.93 469.333 563.428 469.333 563.428Z" fill="#0F9296"/>
<path d="M468.157 560.582C468.207 560.758 468.275 560.937 468.36 561.111C468.949 562.301 470.197 562.886 471.148 562.42C472.095 561.947 472.385 560.604 471.796 559.414C471.206 558.223 469.959 557.639 469.008 558.104C468.202 558.504 467.873 559.544 468.157 560.582Z" fill="#F36E28"/>
<path d="M260.435 597.895C244.725 587.876 224.804 589.93 215.952 602.479C207.1 615.027 212.659 633.324 228.378 643.341C244.088 653.36 264.009 651.306 272.861 638.757C281.713 626.208 276.154 607.911 260.435 597.895Z" fill="#FBAC2F"/>
<path d="M276.289 581.022C245.395 561.037 205.188 564.89 186.499 589.613C167.805 614.347 177.701 650.593 208.604 670.575C239.498 690.561 279.705 686.708 298.394 661.985C317.087 637.251 307.191 601.005 276.289 581.022ZM286.586 649.876C272.472 668.548 241.877 671.858 218.256 657.269C194.635 642.68 186.935 615.715 201.054 597.033C215.168 578.362 245.76 575.044 269.384 589.64C293.005 604.229 300.705 631.194 286.586 649.876Z" fill="#FBAC2F"/>
<path d="M256.671 629.064C251.567 633.555 242.189 632.747 235.735 627.253C229.281 621.76 228.182 613.666 233.293 609.173C238.397 604.682 247.775 605.49 254.229 610.984C260.684 616.478 261.782 624.571 256.671 629.064Z" fill="#F36E28"/>
<path d="M282.325 573.562C244.452 549.039 195.293 553.574 172.525 583.701C149.755 613.821 162.008 658.119 199.881 682.642C237.754 707.166 286.913 702.631 309.681 672.503C332.451 642.384 320.198 598.086 282.325 573.562ZM298.391 661.977C279.697 686.711 239.495 690.553 208.601 670.568C177.707 650.582 167.811 614.336 186.496 589.605C205.19 564.871 245.392 561.029 276.286 581.014C307.181 601 317.077 637.246 298.391 661.977Z" fill="#F36E28"/>
<path d="M269.384 589.64C245.763 575.051 215.176 578.359 201.054 597.033C186.94 615.704 194.643 642.677 218.256 657.269C241.877 671.858 272.464 668.55 286.586 649.876C300.699 631.205 292.997 604.232 269.384 589.64ZM272.853 638.76C264.001 651.308 244.088 653.36 228.37 643.343C212.659 633.324 207.092 615.03 215.944 602.481C224.796 589.933 244.709 587.881 260.427 597.898C276.138 607.917 281.705 626.211 272.853 638.76Z" fill="#F36E28"/>
<path d="M-127.185 418.024C-185.056 421.538 -232.046 462.963 -232.149 510.552C-232.253 558.14 -185.418 593.869 -127.547 590.354C-69.6763 586.84 -22.686 545.415 -22.5825 497.827C-22.4791 450.238 -69.3141 414.51 -127.185 418.024ZM-48.9205 493.655C-49.0001 529.591 -84.3879 561.588 -127.976 565.118C-171.563 568.649 -206.832 542.381 -206.76 506.448C-206.68 470.512 -171.293 438.516 -127.705 434.985C-84.1174 431.454 -48.8488 457.722 -48.9205 493.655Z" fill="#FBAC2F"/>
<path d="M-126.649 403.322C-197.608 407.589 -255.229 458.039 -255.351 516.007C-255.468 573.963 -198.04 617.493 -127.084 613.218C-56.117 608.949 1.49639 558.501 1.61814 500.534C1.73461 442.577 -55.6931 399.048 -126.649 403.322ZM-22.5823 497.827C-22.6858 545.416 -69.6761 586.84 -127.547 590.354C-185.418 593.869 -232.253 558.14 -232.149 510.552C-232.046 462.963 -185.055 421.538 -127.185 418.024C-69.3139 414.51 -22.4788 450.238 -22.5823 497.827Z" fill="#F36E28"/>
</g>
<mask id="mask5_62_1748" style="mask-type:luminance" maskUnits="userSpaceOnUse" x="-161" y="500" width="779" height="286">
<path d="M-160.546 673.708L-123.454 785.07C-123.454 785.07 -24.3572 709.836 78.2657 698.884C180.889 687.932 218.247 730.38 293.206 720.893C368.165 711.407 394.483 677.789 451.174 611.976C519.186 533.02 617.288 500.96 617.288 500.96C617.288 500.96 591.248 506.14 545.054 528.379C489.19 555.279 456.813 591.257 387.754 641.699C321.156 690.356 285.61 686.338 88.7922 631.081C-66.9038 587.365 -160.548 673.7 -160.548 673.7" fill="white"/>
</mask>
<g mask="url(#mask5_62_1748)">
<path d="M515.712 623.844C514.966 619.521 513.608 613.655 511.964 609.429C503.573 587.845 649.026 490.81 625.33 492.937C521.052 502.29 422.478 589.214 409.382 615.312C394.683 644.613 399.003 693.203 430.114 709.702C438.085 713.927 458.141 719.84 478.909 705.183" fill="#FBD0CF"/>
<path d="M488.647 601.127C488.647 601.127 488.772 596.759 490.291 593.656C492.325 589.512 495.38 587.196 495.38 587.196L502.137 593.361C502.137 593.361 498.961 594.497 496.678 597.706C494.394 600.915 494.573 603.295 494.573 603.295L488.644 601.119L488.647 601.127Z" fill="#652D91"/>
<path d="M498.527 605.603C498.527 605.603 499.804 602.562 501.163 600.978C502.522 599.393 505.103 598.209 505.103 598.209L509.014 604.787C509.014 604.787 507.205 604.915 505.822 606.613C504.439 608.311 504.247 609.735 504.247 609.735L498.527 605.603Z" fill="#652D91"/>
<path d="M440.622 696.04C440.622 696.04 448.959 700.916 453.5 705.379C458.04 709.843 459.282 713.519 459.282 713.519L443.454 713.631C443.454 713.631 445.297 702.065 436.78 700.049C428.263 698.033 424.531 705.375 423.638 705.646C423.354 705.714 418.821 702.275 415.454 697.859C411.943 693.245 409.593 687.639 409.82 687.529C410.099 687.392 417.89 687.202 424.611 688.78C431.864 690.48 440.614 696.043 440.614 696.043L440.622 696.04Z" fill="#652D91"/>
<path d="M427.189 662.64C426.469 670.435 431.937 681.821 431.937 681.821C431.937 681.821 425 678.857 417.423 678.582C409.848 678.314 406.162 679.919 406.162 679.919C406.162 679.919 402.886 671.164 402.75 666.357C402.75 666.357 405.652 663.424 413.583 662.205C421.505 660.987 426.668 662.629 427.189 662.64Z" fill="#652D91"/>
<path d="M437.671 584.373C437.671 584.373 438.211 583.886 435.032 590.175C430.988 598.165 433.514 606.353 431.624 614.328C429.608 622.845 422.135 627.15 412.994 625.684C409.119 625.062 406.112 623.466 406.939 623.576L410.216 617.711C410.216 617.711 412.116 618.465 413.054 618.828C418.89 621.07 424.304 617.275 425.764 611.541C426.681 607.945 425.855 604.28 424.34 600.967C424.026 600.29 422.168 597.531 422.168 597.531L437.671 584.373Z" fill="#F6884D"/>
<path d="M487.972 583.266C487.972 583.266 487.836 588.076 486.3 592.001C484.73 596.008 481.472 600.481 481.472 600.481C481.472 600.481 475.341 599.355 466.038 602.752C456.735 606.148 450.307 614.59 450.307 614.59C450.307 614.59 447.138 606.581 452.14 601.308C456.427 596.791 460.789 597.664 467.503 596.349C477.503 594.387 482.921 585.466 483.101 581.553C483.251 581.293 487.974 583.274 487.974 583.274L487.972 583.266Z" fill="#F6884D"/>
<path d="M428.702 644.997L426.815 652.874C426.815 652.874 421.405 652.228 414.904 653.287C408.403 654.347 401.865 657.902 401.865 657.902L402.474 643.764C402.474 643.764 409.643 646.08 414.877 646.276C423.165 646.578 428.705 645.005 428.705 645.005L428.702 644.997Z" fill="#F6884D"/>
<path d="M477.754 583.176C477.373 590.253 468.078 591.647 468.078 591.647C462.581 593.662 456.239 591.904 450.912 594.828C440.713 600.436 445.305 620.231 445.305 620.231L431.166 637.955C431.166 637.955 424.459 639.636 417.401 639.758C410.331 639.875 404.092 637.267 404.092 637.267L402.254 628.902C402.254 628.902 408.388 631.352 412.392 632.177C416.847 633.089 421.76 633.216 426.136 631.943C428.711 631.19 432.76 629.333 435.937 623.694C439.114 618.055 437.748 612.665 437.994 607.792C438.412 599.667 439.865 592.04 448.97 588.788C453.817 587.059 457.145 588.25 463.304 587.112C469.462 585.973 473.179 578.373 473.179 578.373C473.645 578.139 476.838 570.02 490.612 573.435C504.386 576.851 490.706 578.459 490.706 578.459C490.706 578.459 478.248 573.938 477.751 583.195L477.754 583.176Z" fill="#F6884D"/>
<path d="M420.738 611.153C419.961 613.219 416.019 615.401 412.581 613.326C409.704 611.59 415.507 607.41 416.363 605.923C416.624 605.468 416.458 604.417 417.606 603.991C418.599 603.625 420.318 605.887 420.631 606.853C421.015 608.007 421.333 609.594 420.738 611.153Z" fill="#652D91"/>
<path d="M435.522 706.128C437.421 706.716 439.231 709.254 438.256 712.256C437.321 715.138 432.436 711.035 431.046 710.34C430.624 710.129 429.684 710.337 429.242 709.326C428.863 708.451 430.999 706.828 431.855 706.499C432.871 706.099 434.082 705.678 435.522 706.128Z" fill="#652D91"/>
<path d="M469.954 576.648C469.954 576.648 471.835 581.401 462.004 582.709C455.232 583.613 449.754 581.84 449.754 581.84C449.617 581.377 447.047 581.013 447.511 580.771C448.756 580.11 469.335 576.187 469.954 576.648Z" fill="#F6884D"/>
<path d="M543.11 534.082C550.134 531.742 554.686 526.419 553.278 522.191C551.87 517.964 545.035 516.434 538.011 518.773C530.987 521.112 526.435 526.436 527.843 530.663C529.251 534.89 536.086 536.421 543.11 534.082Z" fill="#8D33B3"/>
<path d="M465.084 551.145C465.084 551.145 463.738 554.007 461.824 555.636C459.272 557.802 456.568 558.457 456.568 558.457L453.865 552.398C453.865 552.398 456.306 552.559 458.755 551.086C461.204 549.612 461.775 547.982 461.775 547.982L465.084 551.145Z" fill="#652D91"/>
<path d="M459.806 545.312C459.806 545.312 458.076 546.968 456.715 547.623C455.354 548.278 453.297 548.322 453.297 548.322L452.604 542.814C452.604 542.814 453.846 543.252 455.255 542.528C456.664 541.804 457.206 540.904 457.206 540.904L459.814 545.309L459.806 545.312Z" fill="#652D91"/>
<path d="M524.508 501.946C524.508 501.946 520.379 496.292 518.645 492.008C516.911 487.724 517.162 484.92 517.162 484.92L527.721 489.433C527.721 489.433 523.146 496.59 528.221 500.393C533.299 504.204 537.91 500.396 538.579 500.48C538.792 500.514 540.808 504.117 541.76 508.029C542.762 512.118 542.701 516.518 542.511 516.528C542.285 516.533 537.048 514.407 533.039 511.408C528.709 508.181 524.506 501.938 524.506 501.938L524.508 501.946Z" fill="#652D91"/>
<path d="M494.118 577.059C494.118 577.059 493.613 577.227 497.555 573.966C502.556 569.826 503.244 563.647 506.813 558.895C510.624 553.817 516.832 553.118 522.487 556.737C524.885 558.273 526.425 560.208 525.909 559.898L522.03 562.848C522.03 562.848 520.985 561.792 520.464 561.281C517.237 558.1 512.537 559.06 509.9 562.448C508.246 564.569 507.735 567.249 507.782 569.893C507.795 570.433 508.234 572.805 508.234 572.805L494.118 577.059Z" fill="#F6884D"/>
<path d="M460.358 563.223C460.358 563.223 461.843 560.069 464 557.903C466.157 555.737 469.662 553.666 469.662 553.666C469.662 553.666 473.408 556.191 480.582 556.628C487.757 557.064 494.218 555.175 494.218 555.175C494.218 555.175 491.747 560.456 489.404 561.614C485.346 563.606 482.6 561.528 477.751 560.458C470.532 558.86 464.344 563.229 463.095 565.778C462.919 565.907 460.35 563.226 460.35 563.226L460.358 563.223Z" fill="#F6884D"/>
<path d="M517.649 539.341L521.186 534.653C521.186 534.653 524.597 536.65 529.228 537.828C533.859 539.006 539.241 538.538 539.241 538.538L534.742 547.768C534.742 547.768 530.651 544.155 527.224 542.506C521.801 539.898 517.659 539.347 517.659 539.347L517.649 539.341Z" fill="#F6884D"/>
<path d="M563.648 513.463L568.544 516.703C568.544 516.703 566.764 520.236 565.878 524.927C564.984 529.622 565.789 534.961 565.789 534.961L556.303 531.039C556.303 531.039 559.659 526.727 561.092 523.204C563.352 517.634 563.656 513.461 563.656 513.461L563.648 513.463Z" fill="#F6884D"/>
<path d="M575.861 507.606L580.757 510.845C580.757 510.845 578.976 514.378 578.091 519.069C577.197 523.764 578.001 529.103 578.001 529.103L568.516 525.181C568.516 525.181 571.871 520.869 573.305 517.346C575.565 511.776 575.869 507.603 575.869 507.603L575.861 507.606Z" fill="#F6884D"/>
<path d="M588.244 502.656L593.141 505.896C593.141 505.896 591.36 509.428 590.474 514.12C589.581 518.814 590.385 524.154 590.385 524.154L580.9 520.231C580.9 520.231 584.255 515.919 585.688 512.397C587.948 506.826 588.252 502.653 588.252 502.653L588.244 502.656Z" fill="#F6884D"/>
<path d="M477.87 567.824C482.293 568.852 484.167 570.606 487.885 570.86C494.878 571.33 498.051 566.684 500.688 561.4C502.266 558.233 502.922 554.25 506.667 551.423C510.411 548.596 513.645 548.529 515.572 548.782C518.852 549.199 522.085 550.711 524.778 552.604C527.197 554.308 528.713 555.962 528.713 555.962L531.771 551.627C531.771 551.627 528.378 548.079 523.642 546.112C518.906 544.144 513.964 543.324 513.964 543.324L499.166 553.141C499.166 553.141 496.756 565.509 488.352 566.281C483.966 566.68 480.254 563.678 476.018 563.422C476.018 563.422 470.423 562.486 465.372 568.082L468.773 570.784C468.773 570.784 473.453 566.812 477.873 567.832L477.87 567.824Z" fill="#F6884D"/>
<path d="M513.135 564.152C514.252 562.999 517.504 562.697 519.188 565.067C520.596 567.055 515.53 568.155 514.53 568.892C514.219 569.118 514.029 569.866 513.145 569.818C512.376 569.776 511.892 567.769 511.963 567.035C512.048 566.155 512.29 565.013 513.133 564.144L513.135 564.152Z" fill="#652D91"/>
<path d="M419.417 652.135C407.514 629.124 388.782 617.672 362.066 619.585C338.085 621.306 314.148 641.784 300.948 671.761C286.132 705.427 296.813 751.67 332.748 768.16C345.105 773.829 388.084 781.435 414.045 733.807C430.6 703.442 431.794 676.068 419.417 652.135Z" fill="#8D33B3"/>
<path d="M244.514 756.207C259.377 751.256 267.745 736.191 263.204 722.558C258.664 708.925 242.934 701.887 228.07 706.837C213.207 711.788 204.839 726.853 209.38 740.486C213.92 754.119 229.65 761.157 244.514 756.207Z" fill="#FBD0CF"/>
<path d="M303.25 665.764C298.43 673.214 308.114 692.884 298.936 695.941C289.757 698.998 277.533 673.391 274.729 664.97C271.924 656.55 277.558 657.13 286.3 652.973C301.694 645.652 315.289 647.161 303.25 665.764Z" fill="#FBD0CF"/>
<path d="M216.214 664.127C191.448 669.471 192.068 688.062 180.745 681.179C169.423 674.297 166.598 643.024 179.174 636.202C189.854 630.407 202.489 629.639 214.573 635.092C235.838 644.691 245.867 657.726 216.214 664.127Z" fill="#FBD0CF"/>
<path d="M195.117 719.638C195.117 719.638 211.503 689.636 243.075 694.266C274.647 698.897 274.64 728.675 299.717 733.38C324.786 738.088 318.364 728.214 318.364 728.214C318.364 728.214 300.267 722.491 283.743 701.098C267.219 679.705 238.542 668.879 209.077 685.486C179.611 702.092 179.609 723.242 179.609 723.242L195.128 719.643L195.117 719.638Z" fill="#FBD0CF"/>
<path d="M415.606 701.95C419.734 681.858 414.789 661.794 399.982 649.535C386.699 638.531 370.927 636.414 348.829 647.714C324.019 660.409 308.672 696.586 318.875 724.48C322.385 734.07 341.958 768.041 378.669 750.662C401.069 740.06 411.913 719.95 415.617 701.956L415.606 701.95Z" fill="#FBD0CF"/>
<path d="M386.903 659.218C392.463 661.42 398.29 666.956 401.254 672.349C411.625 691.21 404.627 715.699 389.008 728.957C357.347 755.834 321.453 724.736 334.086 688.077C335.324 684.47 338.28 679.326 340.331 676.028C341.166 674.688 342.225 673.361 343.244 672.021C353.01 659.054 371.352 653.051 386.9 659.21L386.903 659.218ZM378.955 666.972C359.459 663.321 343.316 680.72 341.424 698.884C340.091 711.666 346.589 725.193 359.636 728.402C360.265 728.553 363.201 729.198 363.396 729.204C384.171 729.954 399.605 707.183 396.961 687.863C395.631 678.153 388.812 668.823 378.955 666.972Z" fill="#F6884D"/>
<path d="M355.624 683.264C363.369 674.638 378.382 672.235 385.536 682.858C398.277 701.773 374.214 730.699 356.216 716.896C345.315 708.54 347.265 692.577 355.624 683.264ZM376.017 685.923C363.502 678.437 349.095 701.919 362.284 709.873C375.109 717.606 388.532 693.408 376.017 685.923Z" fill="#F6884D"/>
<path d="M156.699 805.296C170.747 787.639 206.67 720.152 143.807 648.447C72.0912 568.555 -87.0131 607.691 -150.5 654.838C-213.978 701.982 -220.645 759.532 -213.051 790.815C-210.056 803.155 -194.962 827.184 -182.112 843.21" fill="#FBD0CF"/>
<path d="M151.28 751.351C162.61 747.577 164.693 723.196 155.932 696.894C147.172 670.592 130.886 652.329 119.556 656.103C108.226 659.876 106.143 684.257 114.904 710.559C123.664 736.861 139.95 755.124 151.28 751.351Z" fill="#8D33B3"/>
<path d="M-2.6819 646.656C-2.6819 646.656 -2.47527 630.282 -9.97677 621.434C-17.4783 612.586 -26.6923 608.635 -26.6923 608.635C-26.6923 608.635 -0.449859 604.984 14.3785 604.345C29.2068 603.706 37.4628 606.204 37.4628 606.204C37.4628 606.204 48.4388 607.568 51.6031 620.361C53.8257 629.353 51.0923 642.356 51.0923 642.356L-2.68981 646.659L-2.6819 646.656Z" fill="#F6884D"/>
<path d="M47.5727 605.706C47.5727 605.706 68.5021 613.188 74.1945 623.455C81.1948 636.095 76.4031 646.949 76.4031 646.949L97.6728 651.237C97.6728 651.237 100.572 639.285 111.996 636.621C123.421 633.956 136.035 642.453 136.035 642.453C136.035 642.453 117.717 625.685 95.9932 617.555C74.2715 609.433 47.578 605.696 47.578 605.696L47.5727 605.706Z" fill="#F6884D"/>
<path d="M-125.866 785.838C-121.315 756.794 -109.194 749.527 -90.0796 737.018C-74.5829 726.872 -49.8584 718.137 -35.6513 705.884C3.0226 672.53 -3.3243 635.664 -3.3243 635.664L51.1108 642.359C51.1108 642.359 43.8234 663.109 47.4824 688.032C51.1414 712.956 60.6795 726.759 60.6795 726.759L34.4733 722.14C34.4733 722.14 35.4733 691.076 24.5851 685.839C15.466 681.461 8.04007 686.672 2.2516 692.9C-7.25539 703.113 -6.87408 704.97 -27.1508 721.052C-47.4275 737.133 -52.1168 737.835 -78.488 751.296C-97.6758 761.083 -109.603 774.832 -117.154 785.78C-118.458 787.662 -129.276 807.666 -125.858 785.836L-125.866 785.838Z" fill="#F6884D"/>
<path d="M0.650685 605.416C0.650685 605.416 13.2121 627.005 14.283 640.97C15.3538 654.935 34.7966 658.481 34.4776 638.184C34.1586 617.888 35.0261 601.127 35.0261 601.127L0.658568 605.413L0.650685 605.416Z" fill="#FBD0CF"/>
<path d="M123.101 762.728C116.485 750.584 88.5226 734.844 85.5006 732.831C81.5519 730.198 73.4526 710.965 72.161 695.442C70.696 677.87 72.0555 662.876 76.3956 646.951C77.0515 645.443 97.3206 650.6 97.6653 651.24C98.018 651.903 84.9705 692.193 112.782 720.919C130 738.703 152.864 735.238 169.362 723.697C170.079 727.249 173.324 744.026 171.162 746.15C170.738 746.564 161.787 754.547 151.324 758.225C138.58 762.698 123.878 762.952 123.098 762.72L123.101 762.728Z" fill="#F6884D"/>
</g>
</svg>
