<svg width="218" height="218" viewBox="0 0 218 218" fill="none" xmlns="http://www.w3.org/2000/svg">
<g clip-path="url(#clip0_68_10873)">
<g clip-path="url(#clip1_68_10873)">
<path d="M111.548 109.116C122.486 220.181 342.166 224.533 339.446 53.2446C336.726 -118.04 281.368 -27.2304 281.368 -27.2304L111.548 109.116Z" fill="#FF7020"/>
<path d="M111.52 108.969C136.058 217.841 354.601 195.092 330.8 25.4477C307 -144.197 263.249 -47.2624 263.249 -47.2624L111.52 108.965V108.969Z" fill="#FFB12A"/>
<path d="M111.451 108.729C143.261 215.7 359.776 178.299 324.614 10.6399C289.448 -157.019 252.324 -57.3599 252.324 -57.3599L111.451 108.725V108.729Z" fill="#FF187D"/>
<path d="M111.039 107.889C154.728 210.582 365.632 148.96 311.755 -13.6498C257.878 -176.264 232.247 -73.0446 232.247 -73.0446L111.039 107.893V107.889Z" fill="#7A2799"/>
<path d="M111.781 108.712C163.48 207.617 368.829 129.454 302.22 -28.3722C235.611 -186.198 218.25 -81.2704 218.25 -81.2704L111.781 108.712Z" fill="#FF7020"/>
<path d="M111.63 108.908C169.956 204.056 369.498 112.069 292.278 -40.8474C215.057 -193.763 204.894 -87.8975 204.894 -87.8975L111.63 108.904V108.908Z" fill="#FFB712"/>
<path d="M111.451 108.994C177.257 199.13 368.732 91.3555 279.436 -54.8355C190.14 -201.027 188.545 -94.6876 188.545 -94.6876L111.451 108.994Z" fill="#FF187D"/>
<path d="M111.451 108.994C184.842 193.066 366.224 69.056 264.558 -68.8196C162.893 -206.695 170.548 -100.617 170.548 -100.617L111.451 108.994Z" fill="#7A2799"/>
<path d="M111.451 108.998C190.657 187.617 362.725 50.9814 251.48 -79.2884C140.235 -209.558 155.438 -104.296 155.438 -104.296L111.451 108.998Z" fill="#FF7020"/>
<path d="M111.667 108.908C194.621 183.563 359.804 38.6774 242.324 -85.9971C124.843 -210.672 145.173 -106.282 145.173 -106.282L111.663 108.908H111.667Z" fill="#FFB712"/>
<path d="M111.516 109.043C200.221 176.769 353.186 19.0368 226.04 -95.7603C98.8898 -210.561 127.572 -108.15 127.572 -108.15L111.516 109.043Z" fill="#FF187D"/>
<path d="M111.516 109.043C205.771 168.8 344.446 -1.63145 207.798 -104.94C71.1498 -208.253 108.624 -108.721 108.624 -108.721L111.512 109.043H111.516Z" fill="#7A2799"/>
<path d="M111.516 109.047C209.796 161.924 335.955 -17.9687 192.284 -111.266C48.6136 -204.562 93.0945 -107.958 93.0945 -107.958L111.516 109.043V109.047Z" fill="#FF7020"/>
<path d="M111.455 108.822C212.362 156.492 328.949 -29.7464 180.601 -115.405C32.2523 -201.067 81.7208 -106.922 81.7208 -106.922L111.455 108.822Z" fill="#FFB712"/>
<path d="M111.349 108.994C215.771 148.377 316.967 -46.6547 162.196 -120.079C7.42438 -193.502 64.3193 -103.652 64.3193 -103.652L111.349 108.994Z" fill="#FF187D"/>
<path d="M111.349 108.994C218.801 139.148 302.657 -63.9422 142.086 -123.631C-18.4845 -183.323 46.008 -98.7577 46.008 -98.7577L111.345 108.994H111.349Z" fill="#7A2799"/>
<path d="M111.349 108.998C220.677 131.407 289.827 -77.1474 125.41 -125.229C-39.0102 -173.311 31.3549 -93.5621 31.3549 -93.5621L111.353 108.998H111.349Z" fill="#FF7020"/>
<path d="M111.528 108.884C222.12 123.855 277.021 -88.8967 109.725 -125.755C-57.5661 -162.614 18.0232 -87.8037 18.0232 -87.8037L111.524 108.884H111.528Z" fill="#FFB712"/>
<path d="M111.479 109.079C222.92 115.086 260.488 -101.4 90.7701 -124.654C-78.948 -147.908 2.4283 -79.4352 2.4283 -79.4352L111.483 109.075L111.479 109.079Z" fill="#FF187D"/>
<path d="M111.479 109.079C223.022 105.376 241.627 -113.558 70.5259 -121.967C-100.575 -130.376 -13.5501 -69.2357 -13.5501 -69.2357L111.479 109.079Z" fill="#7A2799"/>
<path d="M111.483 109.079C222.475 97.4238 225.412 -122.277 54.1478 -118.455C-117.116 -114.634 -25.952 -59.8599 -25.952 -59.8599L111.483 109.079Z" fill="#FF7020"/>
<path d="M111.447 108.888C220.73 86.2618 201.824 -132.643 31.7874 -111.824C-138.249 -91.005 -42.0932 -45.5617 -42.0932 -45.5617L111.451 108.888H111.447Z" fill="#FFB712"/>
<path d="M111.463 109.083C218.569 77.722 182.073 -138.944 14.2714 -104.488C-153.534 -70.0268 -54.0302 -32.483 -54.0302 -32.483L111.463 109.083Z" fill="#FF187D"/>
<path d="M111.463 109.087C215.437 68.5339 160.242 -144.144 -3.92935 -95.226C-168.101 -46.3081 -65.7099 -17.5568 -65.7099 -17.5568L111.463 109.087Z" fill="#7A2799"/>
<path d="M111.467 109.087C212.28 61.2176 142.054 -146.978 -18.2113 -86.4701C-178.476 -25.9619 -74.2946 -4.5881 -74.2946 -4.5881L111.467 109.087Z" fill="#FF7020"/>
<path d="M111.426 108.9C209.176 55.0473 126.544 -148.544 -29.7853 -78.4973C-186.115 -8.45427 -80.8361 6.61057 -80.8361 6.61057L111.43 108.904L111.426 108.9Z" fill="#FFB712"/>
<path d="M111.504 109.083C204.592 47.5271 105.819 -148.74 -44.3569 -66.3239C-194.532 16.0924 -88.381 22.6216 -88.381 22.6216L111.504 109.083Z" fill="#FF187D"/>
<path d="M111.504 109.083C198.891 39.6685 83.4253 -147.272 -59.0138 -52.1072C-201.457 43.0534 -95.1385 40.3291 -95.1385 40.3291L111.508 109.083H111.504Z" fill="#7A2799"/>
<path d="M111.508 109.083C193.72 33.6081 65.2079 -144.613 -70.0821 -39.5302C-205.372 65.5526 -99.5186 55.247 -99.5186 55.247L111.508 109.079V109.083Z" fill="#FF7020"/>
<path d="M111.377 108.884C188.908 28.6084 49.9229 -141.575 -78.8094 -28.5556C-207.542 84.4634 -102.5 67.8203 -102.5 67.8203L111.377 108.884Z" fill="#FFB712"/>
<path d="M111.504 109.035C182.309 22.7686 30.0622 -135.653 -89.1393 -12.6261C-208.341 110.401 -104.983 85.3444 -104.983 85.3444L111.508 109.031L111.504 109.035Z" fill="#FF187D"/>
<path d="M111.508 109.035C174.545 16.9408 9.10033 -127.647 -98.9555 5.28123C-207.011 138.206 -106.223 104.259 -106.223 104.259L111.508 109.035Z" fill="#7A2799"/>
<path d="M111.508 109.034C167.815 12.679 -7.52647 -119.736 -105.823 20.5621C-204.12 160.86 -106.011 119.805 -106.011 119.805L111.504 109.03L111.508 109.034Z" fill="#FF7020"/>
<path d="M111.357 108.928C160.858 8.90649 -23.2275 -111.054 -111.573 35.7125C-199.919 182.479 -104.889 134.731 -104.889 134.731L111.361 108.928H111.357Z" fill="#FFB712"/>
<path d="M111.524 109.034C152.8 5.3462 -40.356 -99.3859 -116.586 54.0276C-192.815 207.437 -101.941 152.186 -101.941 152.186L111.524 109.034Z" fill="#FF187D"/>
<path d="M111.528 109.034C143.636 2.14891 -57.8965 -85.3895 -120.501 74.0679C-183.105 233.525 -97.3775 170.582 -97.3775 170.582L111.528 109.038V109.034Z" fill="#7A2799"/>
<path d="M111.528 109.034C135.924 0.130247 -71.3379 -72.8042 -122.401 90.711C-173.464 254.226 -92.4507 185.329 -92.4507 185.329L111.528 109.034Z" fill="#FF7020"/>
<path d="M111.3 109.018C125.749 -1.64362 -87.2634 -55.537 -123.331 111.93C-159.398 279.397 -84.947 203.453 -84.947 203.453L111.296 109.018H111.3Z" fill="#FFB712"/>
<path d="M111.492 109.067C116.973 -2.40229 -99.6896 -38.947 -122.14 130.881C-144.591 300.709 -76.501 219.011 -76.501 219.011L111.492 109.067Z" fill="#FF187D"/>
<path d="M111.495 109.067C107.262 -2.45526 -111.753 -20.0241 -119.355 151.113C-126.957 322.251 -66.2283 234.94 -66.2283 234.94L111.495 109.067Z" fill="#7A2799"/>
<path d="M111.495 109.063C99.3179 -1.87194 -120.399 -3.76831 -115.766 167.475C-111.133 338.718 -56.7913 247.298 -56.7913 247.298L111.495 109.063Z" fill="#FF7020"/>
<path d="M111.32 109.112C86.6669 0.264866 -131.851 23.2414 -107.875 192.862C-83.8995 362.482 -40.2506 265.498 -40.2506 265.498L111.315 109.112H111.32Z" fill="#FFB712"/>
<path d="M111.52 109.091C78.1724 2.58945 -137.78 43.1022 -100.208 210.239C-62.6354 377.371 -26.9472 277.191 -26.9472 277.191L111.52 109.096V109.091Z" fill="#FF187D"/>
<path d="M111.524 109.091C69.0452 5.88864 -142.568 65.0265 -90.6079 228.26C-38.6477 391.494 -11.805 288.589 -11.805 288.589L111.524 109.091Z" fill="#7A2799"/>
<path d="M111.524 109.087C61.786 9.17981 -145.068 83.2684 -81.591 242.379C-18.114 401.49 1.31863 296.929 1.31863 296.929L111.524 109.087Z" fill="#FF7020"/>
<path d="M111.304 109.161C56.2073 12.108 -146.312 97.3382 -74.2745 252.762C-2.23728 408.186 11.4777 302.72 11.4777 302.72L111.3 109.161H111.304Z" fill="#FFB712"/>
<path d="M111.487 109.083C48.7443 16.7856 -146.242 118.063 -61.9093 267.174C22.4236 416.285 27.5907 310.057 27.5907 310.057L111.487 109.083Z" fill="#FF187D"/>
<path d="M111.487 109.079C40.959 22.5889 -144.485 140.432 -47.5092 281.648C49.4661 422.864 45.3798 316.586 45.3798 316.586L111.487 109.079Z" fill="#7A2799"/>
<path d="M111.487 109.075C34.9681 27.8375 -141.597 158.617 -34.7894 292.549C72.0185 426.481 60.359 320.77 60.359 320.77L111.487 109.075Z" fill="#FF7020"/>
<path d="M111.357 109.23C33.284 29.4852 -140.724 163.65 -31.3513 295.493C78.0218 427.337 64.3231 321.875 64.3231 321.875L111.357 109.23Z" fill="#FFB712"/>
<path d="M111.516 109.104C27.2685 35.9083 -135.358 183.665 -15.7116 306.264C103.934 428.863 81.7777 324.844 81.7777 324.844L111.516 109.1V109.104Z" fill="#FF187D"/>
<path d="M111.516 109.104C21.2247 43.51 -127.939 204.843 1.91033 316.578C131.76 428.312 100.647 326.614 100.647 326.614L111.516 109.104Z" fill="#7A2799"/>
<path d="M111.516 109.1C16.7713 50.1209 -120.497 221.682 16.9955 323.87C154.488 426.053 116.198 326.835 116.198 326.835L111.516 109.104V109.1Z" fill="#FF7020"/>
<path d="M111.422 109.279C14.5325 53.8932 -116.206 230.487 25.0216 327.442C166.249 424.397 124.264 326.684 124.264 326.684L111.422 109.279Z" fill="#FFB712"/>
<path d="M111.541 109.116C10.5033 61.7191 -105.574 248.276 43.0065 333.535C191.587 418.794 141.866 324.779 141.866 324.779L111.541 109.116Z" fill="#FF187D"/>
<path d="M111.541 109.116C6.76367 70.6832 -92.6545 266.628 62.7777 338.641C218.21 410.654 160.499 321.325 160.499 321.325L111.541 109.116Z" fill="#7A2799"/>
<path d="M111.536 109.112C4.28406 78.2562 -80.8972 280.792 79.278 341.532C239.453 402.273 175.515 317.287 175.515 317.287L111.536 109.112Z" fill="#FF7020"/>
<path d="M178.39 287.264C64.8772 262.64 58.2827 144.988 111.267 109.279C2.41148 85.3443 -69.9642 292.561 93.5714 343.282C257.189 394.027 188.128 313.148 188.128 313.148L178.39 287.264Z" fill="#FFB712"/>
<path d="M196.929 290.318C65.5419 275.046 55.5014 146.485 111.495 109.124C0.955521 93.8106 -54.618 306.378 112.555 343.771C279.729 381.164 204.376 306.113 204.376 306.113L196.929 290.322V290.318Z" fill="#FF187D"/>
<path d="M221.146 297.292L217.916 291.75C66.7288 288.365 52.6549 148.389 111.491 109.128C0.0380707 103.48 -36.8451 320.077 132.946 342.792C302.738 365.508 221.146 297.292 221.146 297.292Z" fill="#7A2799"/>
<path d="M237.434 291.444C68.0215 300.139 50.2161 150.008 111.495 109.12C-0.0843506 111.432 -21.4174 330.117 149.565 340.66C300.001 349.933 251.308 302.883 237.434 291.444Z" fill="#FF7020"/>
<path d="M224.78 262.012C108.869 269.52 70.2078 158.205 111.345 109.316C0.103668 116.208 -12.5591 335.334 158.615 339.175C329.879 343.021 241.255 284.221 241.255 284.221L224.78 262.008V262.012Z" fill="#FFB712"/>
<path d="M243.445 259.854C112.919 281.265 67.9442 160.407 111.52 109.1C1.02512 124.744 5.98828 344.399 176.999 334.428C348.014 324.453 254.942 272.994 254.942 272.994L243.445 259.854Z" fill="#FF187D"/>
<path d="M268.648 259.903L264.02 255.458C117.719 293.736 65.7339 163.013 111.52 109.1C2.79922 134.287 26.8442 352.682 196.342 327.882C365.844 303.079 268.648 259.903 268.648 259.903Z" fill="#7A2799"/>
<path d="M282.702 249.81C122.196 304.71 63.8334 165.248 111.524 109.1C4.87497 141.978 44.4375 358.106 211.737 321.272C358.936 288.862 299.186 256.999 282.702 249.81Z" fill="#FF7020"/>
<path d="M260.745 227.147C150.805 264.626 84.4446 167.251 111.41 109.324C5.81705 144.992 50.7424 359.835 216.994 318.898C383.331 277.941 282.441 244.292 282.441 244.292L260.741 227.147H260.745Z" fill="#FFB712"/>
<path d="M278.204 220.198C157.779 274.911 82.842 169.967 111.524 109.075C8.93289 152.997 71.0193 363.754 233.511 309.523C396.006 255.291 292.734 229.884 292.734 229.884L278.208 220.198H278.204Z" fill="#FF187D"/>
<path d="M302.546 213.673L296.919 210.59C165.666 285.702 81.3819 173.062 111.524 109.071C13.1375 161.745 93.3107 366.311 250.472 298.157C407.637 230.002 302.546 213.669 302.546 213.669V213.673Z" fill="#7A2799"/>
<path d="M313.48 200.264C172.852 295.13 80.1301 175.717 111.524 109.071C17.1424 168.629 111.708 366.956 263.608 287.761C397.259 218.081 331.265 202.902 313.48 200.264Z" fill="#FF7020"/>
<path d="M287.898 180.59C192.856 247.363 101.879 172.471 111.536 109.312C20.1605 173.131 123.465 366.789 271.597 280.922C419.803 195.015 313.529 190.969 313.529 190.969L287.898 180.586V180.59Z" fill="#FFB712"/>
<path d="M302.714 169.033C202.435 255.287 101.1 175.534 111.581 109.043C25.4008 179.942 144.031 364.872 284.827 267.301C425.627 169.726 319.373 174.261 319.373 174.261L302.714 169.033Z" fill="#FF187D"/>
<path d="M324.251 155.946L317.983 154.563C213.022 263.431 100.562 178.91 111.577 109.039C31.8812 187.16 166.143 361.083 297.926 251.637C429.709 142.19 324.251 155.946 324.251 155.946Z" fill="#7A2799"/>
<path d="M330.992 140.012C222.561 270.47 100.105 181.806 111.577 109.039C37.6515 192.646 183.985 356.552 307.624 237.979C416.406 133.65 348.806 137.566 330.992 140.012Z" fill="#FF7020"/>
<path d="M111.536 109.087C111.536 109.087 102.344 130.885 117.511 167.409C145.275 234.259 249.489 230.707 318.06 194.326L314.206 178.094C314.206 178.094 236.851 211.25 180.164 188.714C112.649 161.875 111.54 109.087 111.54 109.087H111.536Z" fill="#FFB12A"/>
<path d="M111.536 109.087C111.536 109.087 100.631 152.206 145.034 187.621C194.491 227.065 288.273 209.019 316.792 178.592L314.206 161.027C314.206 161.027 266.356 197.462 205.697 192.539C145.038 187.617 114.533 147.426 111.54 109.083L111.536 109.087Z" fill="#FF187D"/>
<path d="M111.536 109.087C111.536 109.087 114.252 153.964 162.509 176.398C210.766 198.828 275.61 189.31 315.568 139.454V161.574C315.568 161.574 272.498 213.297 194.682 196.671C111.479 178.894 111.536 109.091 111.536 109.091V109.087Z" fill="#7A2799"/>
<path d="M111.295 109.202C111.295 109.202 96.3 122.117 94.0814 155.13C90.0277 215.553 156.392 276.82 221.309 275.058L237.511 236.29C237.511 236.29 160.254 235.222 125.418 197.923C90.5823 160.624 111.295 109.202 111.295 109.202Z" fill="#FFB12A"/>
<path d="M111.296 109.202C111.296 109.202 88.6169 140.42 104 185.382C119.383 230.34 171.633 270.457 204.323 258.26L239.579 230.512C239.579 230.512 192.399 239.977 148.77 213.726C105.142 187.474 99.2813 139.05 111.3 109.198L111.296 109.202Z" fill="#FF187D"/>
<path d="M111.296 109.201C111.296 109.201 96.6266 157.875 124.448 192.633C152.269 227.392 212.476 244.434 260.961 221.935L240.742 240.156C240.742 240.156 189.475 258.1 137.339 216.699C81.5984 172.434 111.292 109.205 111.292 109.205L111.296 109.201Z" fill="#7A2799"/>
</g>
</g>
<defs>
<clipPath id="clip0_68_10873">
<rect width="218" height="218" rx="109" transform="matrix(-1 0 0 1 218 0)" fill="white"/>
</clipPath>
<clipPath id="clip1_68_10873">
<rect width="517.666" height="522.225" fill="white" transform="matrix(-1 0 0 1 368.107 -151.888)"/>
</clipPath>
</defs>
</svg>
