<svg width="275" height="275" viewBox="0 0 275 275" fill="none" xmlns="http://www.w3.org/2000/svg">
<path opacity="0.2" d="M256 137.5C256 72.0543 202.946 19 137.5 19C72.0543 19 19 72.0543 19 137.5C19 202.946 72.0543 256 137.5 256V275C61.5609 275 0 213.439 0 137.5C0 61.5609 61.5609 0 137.5 0C213.439 0 275 61.5609 275 137.5C275 213.439 213.439 275 137.5 275V256C202.946 256 256 202.946 256 137.5Z" fill="#FF49B8"/>
<path opacity="0.2" d="M224.19 137.5C224.19 89.6223 185.377 50.8096 137.499 50.8096C89.6215 50.8096 50.8088 89.6223 50.8088 137.5C50.8089 185.378 89.6216 224.19 137.499 224.19V243.19L136.133 243.182C78.8463 242.456 32.5434 196.153 31.8176 138.866L31.8088 137.5C31.8088 79.1289 79.1281 31.8096 137.499 31.8096L138.865 31.8184C196.607 32.5499 243.19 79.585 243.19 137.5L243.181 138.866C242.449 196.608 195.414 243.19 137.499 243.19V224.19C185.377 224.19 224.19 185.378 224.19 137.5Z" fill="#FF49B8"/>
<path opacity="0.2" d="M192.38 138.012C192.38 107.986 168.038 83.645 138.012 83.645C107.986 83.6452 83.6452 107.986 83.645 138.012C83.645 168.038 107.986 192.38 138.012 192.38V211.38L137.064 211.375C96.9814 210.867 64.645 178.215 64.645 138.012C64.6452 97.4927 97.4927 64.6452 138.012 64.645C178.532 64.645 211.38 97.4926 211.38 138.012L211.375 138.96C210.867 179.043 178.216 211.38 138.012 211.38V192.38C168.039 192.38 192.38 168.039 192.38 138.012Z" fill="#FF49B8"/>
<path opacity="0.2" d="M159.378 137.5C159.378 125.417 149.583 115.621 137.5 115.621C125.417 115.621 115.621 125.417 115.621 137.5C115.621 149.583 125.417 159.378 137.5 159.378V178.378L136.444 178.365C114.706 177.814 97.1854 160.293 96.6348 138.555L96.6211 137.5C96.6211 114.923 114.923 96.6211 137.5 96.6211L138.555 96.6348C160.644 97.1943 178.378 115.276 178.378 137.5L178.365 138.555C177.806 160.644 159.724 178.378 137.5 178.378V159.378C149.583 159.378 159.378 149.583 159.378 137.5Z" fill="#FF49B8"/>
</svg>
