<svg width="446" height="446" viewBox="0 0 446 446" fill="none" xmlns="http://www.w3.org/2000/svg">
<g clip-path="url(#clip0_68_10836)">
<rect width="446" height="446" rx="223" fill="#FF49B8"/>
<g opacity="0.3">
<path d="M481.29 35.0423C485.115 33.1776 488.988 31.1908 492.164 28.3142C493.778 26.8529 495.166 25.2392 496.291 23.3717C497.433 21.4735 498.204 19.3886 499.02 17.3378C500.401 13.8667 502.351 9.44172 506.4 8.48192C507.234 8.28415 507.783 8.31254 508.474 8.43334C509.209 8.56203 509.398 8.63332 510.104 8.9727C510.841 9.32659 511.032 9.46159 511.674 9.94449C512.236 10.3671 512.768 10.8277 513.284 11.3042C515.474 13.3279 517.391 15.6563 519.949 17.2435C523.04 19.1609 526.748 19.1678 529.781 17.0776C533.496 14.518 534.903 10.0899 535.535 5.8318C536.267 0.901245 536.761 -4.07379 537.362 -9.02169C537.98 -14.1131 538.599 -19.2042 539.217 -24.2956C539.79 -29.0199 540.34 -33.7606 540.345 -38.5262C540.348 -40.9012 540.268 -43.3325 539.799 -45.6668C539.331 -47.9968 538.509 -50.1653 537.351 -52.2388C536.207 -54.2871 534.721 -56.0629 533.232 -57.863C531.759 -59.6444 530.431 -61.5833 528.869 -63.2856C523.793 -68.8157 515.028 -71.0321 508.097 -67.8121C507.152 -67.3727 506.278 -66.8138 505.367 -66.3107C504.662 -65.9215 503.792 -65.4831 502.967 -65.712C502.5 -65.8414 502.16 -66.1606 501.79 -66.7192C501.431 -67.261 501.135 -68.0502 500.901 -68.7968C500.332 -70.6114 499.97 -72.4588 499.234 -74.2229C498.439 -76.1286 497.404 -77.9703 496.087 -79.5663C493.564 -82.6252 490.048 -84.9009 486.027 -85.2233C482.207 -85.5298 478.209 -84.3615 475.649 -81.3875C474.431 -79.9735 473.71 -78.2182 472.894 -76.5623C472.536 -75.8353 472.195 -75.1622 471.71 -74.5373C471.275 -73.9775 470.822 -73.5564 470.236 -73.3299C468.62 -72.7054 466.856 -73.7116 465.579 -74.6484C463.819 -75.9394 462.301 -77.5164 460.849 -79.1373C458.018 -82.2991 455.262 -85.563 451.435 -87.5573C447.897 -89.4006 443.802 -89.6558 440.226 -87.7819C436.992 -86.0872 434.609 -83.2377 432.203 -80.5671C429.9 -78.011 427.436 -75.4287 424.108 -74.4131C421.118 -73.4999 417.728 -73.9557 414.568 -74.5263C411.073 -75.1578 407.602 -75.9889 404.032 -76.0315C400.487 -76.074 396.917 -75.0603 394.19 -72.73C391.259 -70.2263 389.506 -66.7822 388.402 -63.1436C387.252 -59.3482 386.939 -55.3882 386.868 -51.4414C386.783 -46.6736 387.093 -41.9046 387.681 -37.1743C388.867 -27.6387 391.084 -18.1958 393.731 -8.96712C396.421 0.410461 399.885 9.63255 404.988 17.9841C409.259 24.9743 414.784 31.2848 421.472 36.0554C428.004 40.715 435.611 43.8985 443.651 44.5615C452.51 45.2923 461.301 43.2775 469.554 40.1741C473.553 38.6702 477.449 36.9093 481.29 35.0423C482.057 34.6701 482.542 33.8762 482.228 33.0186C481.957 32.2802 480.975 31.7065 480.204 32.0812C472.559 35.7968 464.577 39.2184 456.171 40.7441C448.195 42.1915 440.052 41.749 432.514 38.6384C425.546 35.763 419.377 31.0665 414.388 25.4465C408.489 18.8023 404.205 10.9175 400.96 2.6846C397.503 -6.08802 395.04 -15.2934 393.059 -24.5032C391.11 -33.5647 389.81 -42.8199 390.02 -52.1073C390.168 -58.6449 391.274 -67.0358 397.122 -71.0025C399.743 -72.7805 402.907 -73.0883 405.996 -72.7849C409.387 -72.4518 412.693 -71.568 416.061 -71.0851C419.457 -70.5981 423.042 -70.5092 426.272 -71.8364C429.687 -73.24 432.28 -75.9431 434.705 -78.6368C436.854 -81.0248 439.146 -83.8692 442.011 -85.1684C445.18 -86.6051 448.596 -85.8389 451.471 -83.8872C454.931 -81.5389 457.402 -78.1151 460.281 -75.1448C462.972 -72.3673 467.045 -68.8249 471.232 -70.3363C474.812 -71.6292 475.596 -75.6533 477.418 -78.5005C479.183 -81.2588 482.584 -82.4281 485.776 -82.0899C489.402 -81.7058 492.362 -79.502 494.406 -76.5607C495.48 -75.0146 496.28 -73.3148 496.873 -71.5302C497.433 -69.8411 497.703 -68.0581 498.411 -66.4179C499.128 -64.7567 500.25 -63.2625 502.042 -62.714C504.319 -62.0173 506.342 -63.243 508.242 -64.3517C511.121 -66.0312 514.575 -66.4763 517.877 -65.8758C521.123 -65.2853 524.286 -63.689 526.508 -61.224C528.049 -59.5138 529.374 -57.5832 530.846 -55.8096C532.277 -54.0853 533.687 -52.3678 534.784 -50.4041C537.02 -46.4033 537.267 -41.81 537.193 -37.3254C537.116 -32.7203 536.51 -28.1402 535.956 -23.5746C535.354 -18.6204 534.753 -13.6665 534.151 -8.71227C533.571 -3.93248 533.119 0.884529 532.374 5.64161C531.808 9.25405 530.563 13.5749 526.844 15.1261C526.46 15.2863 526.062 15.4223 525.652 15.4907C525.431 15.5276 525.206 15.5481 524.982 15.5592C524.896 15.5633 524.357 15.5541 524.58 15.5686C524.274 15.5488 523.969 15.5024 523.669 15.4393C523.497 15.403 523.325 15.3602 523.156 15.3106C522.983 15.2598 523.152 15.3084 523.182 15.3185C523.087 15.286 522.993 15.251 522.899 15.2148C521.607 14.7126 520.867 14.148 519.782 13.2106C517.618 11.3402 515.814 9.06038 513.492 7.37039C510.763 5.38486 507.377 4.48908 504.163 5.928C500.139 7.72964 497.923 11.6329 496.345 15.5459C495.549 17.5173 494.829 19.5287 493.802 21.3962C492.874 23.0856 491.598 24.6292 490.155 25.9045C487.207 28.5076 483.718 30.3672 480.204 32.0809C479.439 32.454 478.952 33.2463 479.267 34.1046C479.537 34.8423 480.52 35.418 481.29 35.0423Z" fill="white"/>
<path d="M490.612 74.7122C496.774 71.7076 503.001 68.495 508.118 63.8585C510.613 61.5972 512.786 59.0739 514.527 56.1854C516.392 53.0893 517.65 49.6856 518.981 46.3397C521.358 40.3636 524.706 33.1078 531.583 31.373C536.338 30.1735 540.483 33.087 543.793 36.1459C547.296 39.382 550.368 43.1559 554.453 45.7013C559.192 48.6542 564.823 48.7457 569.498 45.5241C575.346 41.4953 577.493 34.5007 578.486 27.8088C579.68 19.7635 580.486 11.6457 581.466 3.57208C582.475 -4.73562 583.485 -13.043 584.492 -21.3507C585.417 -28.9733 586.313 -36.6234 586.322 -44.3132C586.33 -51.9957 585.416 -59.3925 581.619 -66.1912C579.752 -69.5334 577.326 -72.4311 574.897 -75.3682C572.493 -78.2748 570.329 -81.4418 567.777 -84.2165C559.771 -92.9226 545.922 -96.3032 535.038 -91.2468C533.577 -90.568 532.222 -89.7082 530.82 -88.9219C529.444 -88.1501 527.763 -87.3429 526.148 -87.7747C523.706 -88.4273 522.691 -91.2938 522.017 -93.4459C521.089 -96.4067 520.498 -99.4214 519.298 -102.3C518.033 -105.331 516.381 -108.244 514.288 -110.782C510.324 -115.586 504.811 -119.106 498.507 -119.611C492.64 -120.082 486.446 -118.264 482.516 -113.699C480.585 -111.456 479.452 -108.668 478.158 -106.042C477.059 -103.81 475.724 -101.203 473.259 -100.251C470.267 -99.0943 467.058 -100.827 464.682 -102.569C461.741 -104.727 459.214 -107.375 456.789 -110.083C452.29 -115.105 447.9 -120.329 441.819 -123.497C436.313 -126.365 429.988 -126.802 424.409 -123.895C414.121 -118.534 409.443 -105.514 397.992 -102.018C392.777 -100.426 387.163 -101.208 381.906 -102.158C376.293 -103.171 370.705 -104.533 364.972 -104.601C359.344 -104.669 353.742 -103.098 349.409 -99.3968C344.843 -95.4964 342.086 -90.0577 340.368 -84.3894C338.515 -78.2795 337.99 -71.9072 337.876 -65.5525C337.737 -57.7728 338.243 -49.9909 339.203 -42.2724C341.128 -26.7998 344.721 -11.4814 349.017 3.49323C353.381 18.7057 358.983 33.6847 367.261 47.2339C374.19 58.5753 383.131 68.7919 393.982 76.5321C404.508 84.0406 416.763 89.131 429.713 90.1993C443.986 91.3765 458.169 88.0839 471.461 83.0858C477.986 80.6322 484.344 77.7585 490.612 74.7122C492.42 73.8334 491.352 70.8632 489.525 71.7511C476.962 77.8572 463.862 83.4372 450.048 85.9441C436.866 88.3365 423.4 87.5584 410.946 82.419C399.413 77.6594 389.233 69.8687 380.977 60.569C371.297 49.6655 364.267 36.7019 358.943 23.1918C353.268 8.79282 349.244 -6.31616 345.993 -21.4318C342.813 -36.2178 340.691 -51.3195 341.034 -66.4739C341.172 -72.5793 341.783 -78.7728 343.718 -84.5982C345.473 -89.882 348.337 -95.011 353.036 -98.1985C362.469 -104.597 374.503 -99.9655 384.695 -98.5035C390.067 -97.733 395.727 -97.5841 400.837 -99.6838C406.239 -101.904 410.339 -106.221 414.172 -110.479C417.792 -114.501 421.472 -119.149 426.519 -121.438C432.098 -123.968 438.026 -122.512 442.933 -119.181C448.579 -115.349 452.609 -109.764 457.307 -104.916C461.408 -100.685 467.759 -94.9116 474.199 -97.2368C479.781 -99.2526 480.968 -105.809 483.868 -110.258C486.978 -115.029 492.944 -117.044 498.449 -116.461C504.608 -115.809 509.696 -112.032 513.166 -107.037C514.966 -104.445 516.323 -101.584 517.316 -98.5925C518.231 -95.8364 518.67 -92.9273 519.825 -90.2507C520.868 -87.8359 522.496 -85.6003 525.113 -84.8064C528.49 -83.7816 531.545 -85.7088 534.353 -87.3467C539.318 -90.2432 545.208 -91.0263 550.828 -90.0038C556.383 -88.9932 561.758 -86.2453 565.547 -82.0121C568.053 -79.2112 570.223 -76.0729 572.626 -73.1774C574.961 -70.3645 577.265 -67.562 579.052 -64.3568C582.793 -57.6486 583.289 -50.0471 583.164 -42.5191C583.038 -34.9179 582.049 -27.3603 581.134 -19.8235C580.152 -11.7397 579.171 -3.65595 578.189 4.4278C577.242 12.2271 576.505 20.0869 575.289 27.8495C574.306 34.1297 572.053 41.4057 565.628 44.0851C560.967 46.029 556.658 43.8435 553.128 40.7925C549.596 37.7406 546.652 34.0203 542.863 31.2632C538.682 28.2204 533.537 26.8746 528.619 29.0765C522.312 31.9007 518.89 38.1393 516.423 44.2536C515.125 47.4702 513.949 50.7521 512.274 53.7999C510.669 56.7213 508.486 59.337 505.997 61.5477C501.139 65.8642 495.33 68.9202 489.524 71.7508C487.718 72.632 488.786 75.6026 490.612 74.7122Z" fill="white"/>
<path d="M499.933 114.382C508.434 110.237 517.015 105.799 524.072 99.4024C527.45 96.3416 530.407 92.9084 532.763 88.9988C535.351 84.7041 537.095 79.9827 538.941 75.3414C542.307 66.8801 547.066 56.7464 556.767 54.2635C563.587 52.518 569.537 56.5831 574.302 60.9866C579.118 65.4355 583.346 70.6537 588.957 74.1586C595.344 78.1476 602.898 78.3224 609.215 73.97C617.195 68.472 620.083 58.9105 621.437 49.7856C623.093 38.6259 624.211 27.3647 625.57 16.1652C626.97 4.64127 628.37 -6.8824 629.769 -18.4064C631.045 -28.9277 632.287 -39.4868 632.299 -50.1008C632.311 -60.6369 631.098 -70.8153 625.887 -80.144C623.297 -84.78 619.933 -88.7996 616.563 -92.8738C613.228 -96.9057 610.227 -101.299 606.687 -105.148C595.755 -117.033 576.813 -121.573 561.98 -114.682C558.213 -112.932 553.775 -108.71 549.329 -109.838C545.692 -110.76 544.138 -114.891 543.134 -118.095C541.847 -122.202 541.028 -126.384 539.362 -130.377C537.627 -134.535 535.36 -138.518 532.489 -141.998C527.086 -148.548 519.576 -153.311 510.987 -154C503.073 -154.635 494.685 -152.168 489.385 -146.012C486.74 -142.94 485.194 -139.119 483.422 -135.521C481.82 -132.269 479.868 -128.558 476.283 -127.172C471.917 -125.484 467.261 -127.942 463.787 -130.49C459.664 -133.514 456.129 -137.233 452.729 -141.029C446.564 -147.913 440.539 -155.095 432.204 -159.438C424.729 -163.332 416.177 -163.947 408.593 -160.008C394.268 -152.569 387.84 -134.497 371.876 -129.624C364.532 -127.382 356.65 -128.452 349.245 -129.79C341.514 -131.186 333.808 -133.077 325.912 -133.172C318.202 -133.265 310.567 -131.136 304.63 -126.064C298.428 -120.767 294.667 -113.333 292.333 -105.636C289.779 -97.2114 289.041 -88.4268 288.885 -79.6646C288.691 -68.873 289.393 -58.0783 290.725 -47.3715C293.389 -25.9618 298.359 -4.76819 304.303 15.9523C310.34 36.9996 318.08 57.7356 329.534 76.4822C339.122 92.175 351.478 106.297 366.492 117.008C381.012 127.365 397.914 134.363 415.776 135.836C435.462 137.46 455.037 132.889 473.368 125.997C482.42 122.594 491.239 118.608 499.933 114.382C501.741 113.503 500.673 110.533 498.847 111.421C481.365 119.917 463.147 127.656 443.926 131.144C425.538 134.482 406.749 133.368 389.379 126.2C373.28 119.556 359.09 108.671 347.567 95.6916C334.106 80.5287 324.33 62.4863 316.926 43.6987C309.033 23.6734 303.448 2.66075 298.927 -18.3607C294.516 -38.8708 291.572 -59.8193 292.047 -80.8408C292.397 -96.3118 295.012 -115.941 308.949 -125.395C322.216 -134.394 338.987 -127.979 353.329 -125.922C360.678 -124.868 368.411 -124.659 375.402 -127.532C382.79 -130.568 388.399 -136.499 393.639 -142.323C398.741 -147.992 403.915 -154.483 411.027 -157.709C418.968 -161.31 427.419 -159.21 434.395 -154.475C442.228 -149.158 447.817 -141.413 454.334 -134.687C459.84 -129.005 468.478 -121 477.166 -124.137C484.735 -126.87 486.372 -135.988 490.318 -142.015C494.769 -148.812 503.274 -151.664 511.123 -150.832C519.815 -149.911 527.031 -144.562 531.927 -137.514C534.453 -133.877 536.367 -129.854 537.76 -125.655C539.029 -121.832 539.638 -117.797 541.241 -114.084C542.607 -110.919 544.743 -107.932 548.185 -106.898C552.667 -105.553 556.744 -108.172 560.464 -110.342C567.497 -114.444 575.815 -115.581 583.781 -114.132C591.643 -112.701 599.237 -108.8 604.587 -102.8C608.058 -98.9067 611.073 -94.5622 614.407 -90.5451C617.645 -86.6431 620.842 -82.7563 623.321 -78.3096C628.569 -68.897 629.312 -58.2814 629.137 -47.7125C628.962 -37.1149 627.589 -26.5797 626.313 -16.072C624.952 -4.8587 623.59 6.35458 622.228 17.5679C620.915 28.3866 619.892 39.2895 618.206 50.0571C616.805 59.0035 613.543 69.2365 604.413 73.0439C597.748 75.8236 591.532 72.7439 586.475 68.3745C577.164 60.3295 567.346 45.8353 553.077 52.2247C544.487 56.0705 539.857 64.646 536.502 72.9609C534.702 77.4231 533.07 81.9755 530.747 86.203C528.466 90.3548 525.377 94.048 521.842 97.1908C515.065 103.216 506.945 107.471 498.847 111.42C497.04 112.302 498.107 115.272 499.933 114.382Z" fill="white"/>
<path d="M509.254 154.052C520.093 148.766 531.027 143.102 540.026 134.947C544.285 131.086 548.027 126.743 550.999 121.813C554.309 116.32 556.54 110.28 558.902 104.344C563.255 93.4011 569.426 80.3808 581.95 77.1547C590.836 74.8658 598.59 80.0789 604.812 85.8279C610.94 91.49 616.324 98.1499 623.461 102.616C631.495 107.643 640.976 107.898 648.932 102.416C659.044 95.449 662.673 83.3201 664.388 71.7621C666.506 57.4877 667.936 43.0836 669.675 28.7585C671.465 14.0182 673.257 -0.721741 675.045 -15.462C676.673 -28.8819 678.261 -42.3501 678.276 -55.888C678.291 -69.2776 676.779 -82.2377 670.155 -94.0966C666.842 -100.026 662.539 -105.168 658.228 -110.38C653.964 -115.536 650.126 -121.159 645.596 -126.079C631.732 -141.138 607.709 -146.845 588.921 -138.117C583.979 -135.821 578.343 -130.449 572.51 -131.9C567.679 -133.102 565.585 -138.482 564.25 -142.744C562.604 -147.997 561.556 -153.347 559.425 -158.453C557.221 -163.737 554.337 -168.791 550.689 -173.214C543.846 -181.51 534.34 -187.516 523.467 -188.388C513.505 -189.188 502.922 -186.07 496.252 -178.323C492.894 -174.422 490.936 -169.568 488.686 -165C486.58 -160.727 484.011 -155.911 479.306 -154.092C473.567 -151.874 467.463 -155.056 462.89 -158.411C457.586 -162.301 453.042 -167.091 448.669 -171.973C440.837 -180.719 433.178 -189.86 422.588 -195.377C413.146 -200.295 402.362 -201.094 392.776 -196.12C374.422 -186.597 366.234 -163.478 345.759 -157.228C336.287 -154.337 326.136 -155.694 316.582 -157.42C306.735 -159.198 296.911 -161.62 286.852 -161.741C277.058 -161.858 267.391 -159.173 259.849 -152.73C252.012 -146.035 247.247 -136.607 244.298 -126.88C241.042 -116.141 240.092 -104.944 239.892 -93.7743C239.645 -79.9708 240.543 -66.1633 242.247 -52.4683C245.649 -25.1216 251.996 1.94731 259.588 28.4137C267.299 55.2959 277.177 81.7891 291.806 105.733C304.052 125.777 319.823 143.806 339.001 157.486C357.514 170.691 379.066 179.597 401.837 181.475C426.938 183.546 451.904 177.697 475.274 168.91C486.853 164.556 498.133 159.457 509.254 154.052C511.062 153.173 509.994 150.203 508.167 151.091C485.768 161.978 462.431 171.875 437.804 176.344C414.208 180.626 390.097 179.177 367.811 169.98C347.146 161.453 328.946 147.473 314.157 130.814C296.914 111.392 284.392 88.2708 274.908 64.206C264.799 38.5543 257.652 11.6378 251.861 -15.2895C246.218 -41.524 242.453 -68.3191 243.061 -95.2079C243.512 -115.156 246.897 -140.405 264.863 -152.591C281.963 -164.191 303.471 -155.993 321.962 -153.341C331.288 -152.003 341.096 -151.734 349.967 -155.379C359.341 -159.232 366.457 -166.778 373.106 -174.165C379.691 -181.481 386.359 -189.817 395.535 -193.978C405.838 -198.651 416.812 -195.908 425.857 -189.768C435.876 -182.967 443.024 -173.06 451.361 -164.457C458.271 -157.327 469.198 -147.088 480.133 -151.037C489.686 -154.487 491.775 -166.168 496.768 -173.771C502.561 -182.593 513.602 -186.282 523.797 -185.202C535.022 -184.013 544.364 -177.092 550.686 -167.991C553.939 -163.307 556.409 -158.123 558.203 -152.717C559.826 -147.827 560.605 -142.665 562.655 -137.916C564.346 -133.999 566.989 -130.267 571.255 -128.99C576.838 -127.319 581.947 -130.637 586.574 -133.336C595.674 -138.645 606.419 -140.135 616.732 -138.259C626.908 -136.408 636.704 -131.351 643.625 -123.587C648.065 -118.607 651.922 -113.051 656.186 -107.912C660.329 -102.921 664.418 -97.9494 667.589 -92.2619C674.343 -80.1459 675.333 -66.5146 675.108 -52.9054C674.883 -39.3114 673.128 -25.799 671.491 -12.3201C669.749 2.02271 668.007 16.3658 666.266 30.7087C664.585 44.5468 663.277 58.4929 661.12 72.2654C659.302 83.8777 655.029 97.0687 643.196 102.003C634.527 105.619 626.402 101.645 619.819 95.9568C608.05 85.7879 595.581 67.2917 577.532 75.3732C566.66 80.241 560.821 91.1537 556.579 101.669C554.276 107.376 552.189 113.199 549.218 118.607C546.261 123.989 542.265 128.76 537.684 132.834C528.988 140.567 518.559 146.023 508.167 151.091C506.36 151.972 507.428 154.942 509.254 154.052Z" fill="white"/>
<path d="M518.575 193.722C531.753 187.296 545.04 180.406 555.98 170.491C561.121 165.832 565.649 160.578 569.236 154.627C573.269 147.935 575.986 140.578 578.863 133.346C584.203 119.923 591.788 104.013 607.134 100.046C618.086 97.2148 627.643 103.574 635.322 110.669C642.765 117.546 649.306 125.638 657.966 131.073C667.64 137.144 679.06 137.47 688.65 130.862C700.893 122.426 705.263 107.73 707.339 93.7383C709.92 76.3492 711.662 58.8024 713.781 41.3515C715.961 23.395 718.144 5.43875 720.322 -12.5178C722.302 -28.8364 724.235 -45.2136 724.254 -61.6757C724.273 -77.9186 722.462 -93.6606 714.424 -108.05C710.389 -115.273 705.146 -121.536 699.895 -127.885C694.7 -134.167 690.027 -141.019 684.507 -147.01C667.71 -165.243 638.607 -172.118 615.864 -161.552C609.752 -158.712 602.909 -152.185 595.693 -153.963C589.67 -155.448 587.035 -162.073 585.368 -167.394C583.363 -173.793 582.086 -180.31 579.491 -186.531C576.816 -192.941 573.317 -199.065 568.891 -204.431C560.608 -214.472 549.106 -221.722 535.949 -222.778C523.94 -223.741 511.162 -219.974 503.122 -210.636C499.05 -205.906 496.68 -200.019 493.951 -194.48C491.343 -189.186 488.156 -183.266 482.331 -181.014C475.218 -178.265 467.667 -182.173 461.996 -186.332C455.511 -191.088 449.958 -196.95 444.611 -202.92C435.111 -213.526 425.818 -224.626 412.974 -231.318C401.566 -237.261 388.549 -238.243 376.962 -232.234C354.578 -220.627 344.63 -192.461 319.645 -184.835C308.044 -181.293 295.625 -182.938 283.923 -185.052C271.958 -187.213 260.015 -190.165 247.794 -190.312C235.918 -190.454 224.218 -187.212 215.071 -179.398C205.599 -171.306 199.83 -159.883 196.265 -148.127C192.307 -135.074 191.146 -121.464 190.903 -107.887C190.602 -91.0714 191.695 -74.251 193.771 -57.5681C197.912 -24.2843 205.636 8.65945 214.876 40.8724C224.261 73.5894 236.276 105.84 254.081 134.981C268.986 159.377 288.172 181.311 311.513 197.961C334.019 214.015 360.219 224.828 387.901 227.111C418.415 229.628 448.774 222.501 477.183 211.82C491.286 206.518 505.028 200.306 518.575 193.722C520.384 192.843 519.316 189.872 517.489 190.76C490.171 204.038 461.716 216.094 431.682 221.545C402.88 226.772 373.445 224.987 346.243 213.761C321.012 203.349 298.803 186.275 280.747 165.937C259.722 142.255 244.455 114.055 232.891 84.7131C220.564 53.435 211.856 20.6149 204.795 -12.2181C197.921 -44.1772 193.334 -76.8188 194.075 -109.575C194.627 -133.999 198.782 -164.868 220.777 -179.787C241.71 -193.987 267.956 -184.006 290.595 -180.759C301.898 -179.138 313.781 -178.809 324.532 -183.227C335.892 -187.895 344.516 -197.056 352.573 -206.008C360.64 -214.971 368.802 -225.15 380.043 -230.248C392.708 -235.992 406.205 -232.606 417.318 -225.062C429.524 -216.777 438.231 -204.708 448.388 -194.228C456.701 -185.649 469.919 -173.178 483.1 -177.937C494.637 -182.103 497.181 -196.349 503.218 -205.528C510.353 -216.375 523.931 -220.901 536.47 -219.573C550.228 -218.116 561.698 -209.622 569.447 -198.467C573.427 -192.737 576.452 -186.392 578.647 -179.779C580.624 -173.821 581.574 -167.534 584.071 -161.748C586.086 -157.079 589.236 -152.603 594.327 -151.082C601.01 -149.085 607.151 -153.102 612.686 -156.331C623.853 -162.845 637.026 -164.69 649.686 -162.386C662.175 -160.114 674.174 -153.901 682.666 -144.375C688.074 -138.307 692.772 -131.539 697.968 -125.279C703.014 -119.199 707.995 -113.142 711.858 -106.214C720.12 -91.3947 721.357 -74.7471 721.081 -58.098C720.806 -41.5078 718.668 -25.0176 716.67 -8.56784C714.548 8.90485 712.427 26.3772 710.305 43.8499C708.258 60.7075 706.664 77.6964 704.037 94.4745C701.801 108.752 696.518 124.901 681.982 130.964C671.309 135.415 661.276 130.547 653.166 123.54C638.94 111.248 623.818 88.7495 601.99 98.5232C588.836 104.413 581.789 117.663 576.659 130.378C573.853 137.33 571.311 144.424 567.692 151.012C564.058 157.624 559.157 163.473 553.529 168.479C542.914 177.92 530.175 184.576 517.489 190.762C515.682 191.641 516.749 194.612 518.575 193.722Z" fill="white"/>
<path d="M527.897 233.391C543.413 225.825 559.053 217.709 571.934 206.035C577.957 200.576 583.27 194.413 587.472 187.44C592.227 179.55 595.431 170.875 598.824 162.347C605.15 146.445 614.149 127.643 632.318 122.936C645.336 119.564 656.697 127.069 665.832 135.509C674.588 143.6 682.286 153.13 692.471 159.531C703.789 166.642 717.14 167.044 728.368 159.307C742.743 149.403 747.853 132.139 750.291 115.715C753.334 95.2112 755.388 74.5216 757.886 53.9449C760.457 32.7721 763.031 11.5996 765.599 -9.57321C767.93 -28.7901 770.21 -48.0768 770.232 -67.4631C770.253 -86.5595 768.144 -105.083 758.693 -122.002C753.935 -130.52 747.753 -137.905 741.562 -145.391C735.436 -152.797 729.927 -160.879 723.417 -167.942C703.686 -189.348 669.505 -197.391 642.806 -184.987C635.525 -181.604 627.472 -173.921 618.874 -176.026C611.659 -177.793 608.483 -185.665 606.485 -192.043C604.121 -199.589 602.615 -207.272 599.555 -214.607C596.411 -222.144 592.295 -229.339 587.092 -235.646C577.369 -247.433 563.87 -255.927 548.429 -257.166C534.373 -258.294 519.4 -253.876 509.99 -242.947C505.205 -237.388 502.422 -230.468 499.215 -223.959C496.104 -217.645 492.299 -210.619 485.354 -207.934C476.868 -204.653 467.869 -209.287 461.1 -214.252C453.434 -219.875 446.872 -226.807 440.551 -233.864C429.385 -246.332 418.457 -259.391 403.359 -267.257C389.984 -274.225 374.735 -275.39 361.146 -268.346C334.731 -254.656 323.024 -221.442 293.529 -212.439C279.799 -208.248 265.112 -210.18 251.26 -212.682C237.178 -215.226 223.118 -218.708 208.734 -218.881C194.774 -219.048 181.042 -215.248 170.29 -206.063C159.183 -196.575 152.41 -183.156 148.23 -169.372C143.57 -154.004 142.197 -137.982 141.91 -121.997C141.556 -102.17 142.845 -82.3364 145.292 -62.665C150.172 -23.4442 159.273 15.3748 170.162 53.3337C181.22 91.8855 195.373 129.893 216.353 164.232C233.917 192.979 256.518 218.819 284.022 238.439C310.522 257.342 341.37 270.062 373.962 272.75C409.891 275.714 445.641 267.309 479.089 254.733C495.72 248.479 511.923 241.155 527.897 233.391C529.705 232.512 528.637 229.542 526.81 230.43C494.574 246.098 461 260.312 425.56 266.744C391.551 272.916 356.794 270.796 324.676 257.542C294.879 245.246 268.659 225.077 247.336 201.059C222.53 173.118 204.518 139.84 190.873 105.22C176.329 68.3155 166.06 29.5918 157.728 -9.1474C149.624 -46.8306 144.215 -85.3193 145.088 -123.942C145.742 -152.843 150.666 -189.331 176.691 -206.984C201.457 -223.783 232.441 -212.021 259.229 -208.179C272.509 -206.274 286.465 -205.885 299.096 -211.075C312.444 -216.56 322.575 -227.335 332.04 -237.851C341.589 -248.461 351.246 -260.485 364.551 -266.519C379.579 -273.333 395.598 -269.304 408.78 -260.357C423.173 -250.587 433.438 -236.358 445.414 -224C455.131 -213.973 470.64 -199.268 486.067 -204.838C499.595 -209.723 502.574 -226.533 509.668 -237.286C518.158 -250.154 534.25 -255.523 549.144 -253.945C565.435 -252.219 579.032 -242.153 588.207 -228.944C592.913 -222.169 596.495 -214.663 599.09 -206.842C601.421 -199.818 602.541 -192.404 605.485 -185.582C607.826 -180.16 611.482 -174.94 617.397 -173.175C625.181 -170.853 632.354 -175.568 638.796 -179.327C652.031 -187.048 667.631 -189.246 682.637 -186.516C697.441 -183.822 711.642 -176.454 721.705 -165.164C728.081 -158.01 733.622 -150.029 739.747 -142.648C745.698 -135.479 751.571 -128.337 756.126 -120.168C765.895 -102.646 767.378 -82.9818 767.052 -63.293C766.728 -43.7064 764.207 -24.239 761.848 -4.81833C759.346 15.7839 756.845 36.3861 754.343 56.9883C751.93 76.8654 750.051 96.8974 746.953 116.681C744.3 133.624 738.006 152.731 720.767 159.921C708.089 165.208 696.148 159.446 686.512 151.12C669.828 136.704 652.054 110.204 626.446 121.669C611.011 128.58 602.754 144.169 596.737 159.083C593.429 167.281 590.432 175.646 586.164 183.413C581.855 191.256 576.047 198.183 569.372 204.12C556.838 215.268 541.79 223.125 526.81 230.429C525.003 231.311 526.071 234.281 527.897 233.391Z" fill="white"/>
<path d="M537.218 273.061C555.073 264.355 573.066 255.013 587.888 241.579C594.793 235.321 600.891 228.248 605.708 220.254C611.185 211.165 614.876 201.173 618.784 191.35C626.096 172.969 636.51 151.274 657.501 145.828C672.585 141.914 685.749 150.565 696.341 160.351C706.411 169.656 715.265 180.623 726.975 187.989C739.937 196.141 755.22 196.619 768.085 187.754C784.592 176.381 790.443 156.55 793.241 137.692C796.746 114.074 799.112 90.2414 801.99 66.539C804.952 42.1499 807.916 17.7614 810.875 -6.62799C813.558 -28.7436 816.183 -50.9393 816.208 -73.2495C816.233 -95.1991 813.825 -116.505 802.96 -135.954C797.48 -145.765 790.358 -154.272 783.227 -162.895C776.172 -171.426 769.83 -180.742 762.326 -188.872C739.647 -213.442 700.414 -222.668 669.748 -208.421C661.298 -204.495 652.035 -195.655 642.056 -198.088C633.649 -200.137 629.932 -209.254 627.602 -216.691C624.878 -225.383 623.143 -234.233 619.618 -242.683C616.004 -251.345 611.273 -259.611 605.292 -266.861C594.129 -280.394 578.634 -290.131 560.909 -291.553C544.805 -292.845 527.637 -287.778 516.858 -275.258C511.359 -268.87 508.164 -260.917 504.478 -253.437C500.865 -246.102 496.442 -237.971 488.377 -234.854C478.518 -231.042 468.071 -236.401 460.203 -242.171C451.356 -248.66 443.785 -256.664 436.491 -264.808C423.658 -279.137 411.095 -294.155 393.743 -303.195C378.402 -311.187 360.92 -312.535 345.329 -304.457C314.884 -288.683 301.418 -250.422 267.412 -240.042C251.554 -235.201 234.598 -237.422 218.598 -240.312C202.399 -243.238 186.221 -247.251 169.674 -247.449C153.631 -247.641 137.867 -243.284 125.51 -232.728C112.768 -221.843 104.99 -206.429 100.195 -190.615C94.8333 -172.933 93.2478 -154.499 92.9185 -136.106C92.5097 -113.267 93.9946 -90.4209 96.8141 -67.7612C102.433 -22.6034 112.911 22.0908 125.447 65.7956C138.18 110.182 154.47 153.947 178.626 193.483C198.848 226.581 224.864 256.327 256.532 278.917C287.025 300.669 322.521 315.296 360.024 318.39C401.367 321.8 442.509 312.117 480.996 297.646C500.153 290.441 518.818 282.004 537.218 273.061C539.026 272.182 537.958 269.212 536.131 270.1C498.978 288.159 460.285 304.531 419.437 311.945C380.222 319.062 340.142 316.606 303.108 301.323C268.746 287.143 238.516 263.88 213.926 236.182C185.339 203.982 164.58 165.624 148.856 125.727C132.094 83.197 120.264 38.5693 110.662 -6.07568C101.327 -49.4833 95.0967 -93.8186 96.1023 -138.308C96.8567 -171.686 102.551 -213.794 132.605 -234.18C161.203 -253.579 196.926 -240.034 227.862 -235.597C243.119 -233.409 259.15 -232.959 273.661 -238.922C288.994 -245.223 300.634 -257.612 311.507 -269.693C322.538 -281.95 333.689 -295.818 349.059 -302.788C366.449 -310.674 384.991 -306.002 400.242 -295.649C416.822 -284.395 428.646 -268.005 442.441 -253.77C453.561 -242.295 471.362 -225.356 489.034 -231.738C504.544 -237.338 507.98 -256.713 516.118 -269.042C525.949 -283.935 544.58 -290.141 561.818 -288.315C580.642 -286.321 596.366 -274.682 606.967 -259.42C612.4 -251.599 616.538 -242.932 619.534 -233.904C622.219 -225.812 623.509 -217.272 626.901 -209.414C629.566 -203.24 633.729 -197.274 640.469 -195.266C649.353 -192.619 657.558 -198.033 664.908 -202.321C680.21 -211.247 698.237 -213.799 715.59 -210.642C732.707 -207.528 749.112 -199.004 760.745 -185.951C768.09 -177.709 774.472 -168.517 781.528 -160.015C788.382 -151.756 795.148 -143.53 800.395 -134.12C811.671 -113.895 813.401 -91.2139 813.025 -68.4854C812.651 -45.9027 809.746 -23.4575 807.027 -1.06595C804.146 22.6658 801.264 46.3976 798.382 70.1294C795.602 93.0259 793.438 116.101 789.869 138.889C786.798 158.498 779.494 180.563 759.551 188.881C744.87 195.003 731.02 188.348 719.859 178.703C700.717 162.163 680.29 131.661 650.903 144.819C633.187 152.751 623.721 170.677 616.816 187.792C613.006 197.235 609.553 206.87 604.637 215.817C599.651 224.89 592.938 232.896 585.216 239.765C570.763 252.621 553.405 261.677 536.131 270.1C534.324 270.981 535.392 273.951 537.218 273.061Z" fill="white"/>
<path d="M544.058 302.171C563.629 292.629 583.349 282.387 599.595 267.662C607.148 260.817 613.821 253.076 619.09 244.333C625.098 234.365 629.145 223.405 633.431 212.631C641.443 192.493 652.926 168.523 675.981 162.625C692.615 158.37 707.035 167.774 718.73 178.579C729.764 188.775 739.466 200.797 752.295 208.87C766.463 217.786 783.164 218.32 797.231 208.627C815.302 196.176 821.696 174.461 824.76 153.818C828.604 127.914 831.199 101.775 834.356 75.779C837.604 49.03 840.855 22.2809 844.1 -4.46872C847.041 -28.7115 849.919 -53.0419 849.948 -77.4978C849.975 -101.541 847.348 -124.889 835.446 -146.194C829.435 -156.955 821.625 -166.285 813.803 -175.743C806.066 -185.099 799.11 -195.318 790.879 -204.233C766.045 -231.13 723.09 -241.216 689.519 -225.619C680.212 -221.295 670.06 -211.606 659.068 -214.279C649.787 -216.536 645.671 -226.567 643.098 -234.78C640.112 -244.313 638.209 -254.02 634.343 -263.288C630.384 -272.776 625.2 -281.828 618.649 -289.769C606.43 -304.583 589.469 -315.233 570.068 -316.789C552.462 -318.202 533.684 -312.658 521.899 -298.97C515.876 -291.974 512.378 -283.263 508.342 -275.071C504.359 -266.988 499.483 -258.045 490.597 -254.61C479.73 -250.409 468.22 -256.301 459.547 -262.662C449.833 -269.787 441.522 -278.576 433.513 -287.518C419.456 -303.213 405.695 -319.669 386.688 -329.57C369.904 -338.315 350.784 -339.797 333.724 -330.96C300.322 -313.657 285.564 -271.692 248.249 -260.302C230.829 -254.984 212.208 -257.415 194.632 -260.59C176.878 -263.797 159.146 -268.199 141.013 -268.416C123.441 -268.627 106.185 -263.861 92.6508 -252.299C78.7089 -240.388 70.1942 -223.511 64.9476 -206.208C59.0708 -186.828 57.3298 -166.623 56.9689 -146.463C56.5204 -121.414 58.1492 -96.3571 61.2415 -71.5046C67.4022 -21.99 78.8909 27.0157 92.6369 74.9372C106.597 123.605 124.456 171.594 150.942 214.945C173.115 251.236 201.637 283.848 236.36 308.617C269.784 332.459 308.691 348.487 349.797 351.877C395.113 355.615 440.212 344.995 482.396 329.133C503.407 321.233 523.877 311.98 544.058 302.171C545.866 301.293 544.798 298.322 542.971 299.21C502.209 319.023 459.76 336.98 414.945 345.113C371.909 352.924 327.923 350.221 287.281 333.45C249.568 317.887 216.395 292.353 189.409 261.955C158.047 226.63 135.273 184.546 118.023 140.775C99.6341 94.1162 86.6582 45.1564 76.124 -3.82242C65.8847 -51.4307 59.0519 -100.056 60.1549 -148.851C60.9838 -185.515 67.2426 -231.746 100.253 -254.138C131.665 -275.445 170.864 -260.591 204.845 -255.718C221.552 -253.321 239.105 -252.828 254.996 -259.358C271.787 -266.258 284.533 -279.832 296.439 -293.061C308.558 -306.526 320.806 -321.747 337.69 -329.404C356.813 -338.076 377.206 -332.932 393.975 -321.549C412.16 -309.206 425.128 -291.23 440.258 -275.617C452.408 -263.08 471.891 -244.502 491.211 -251.478C508.175 -257.604 511.947 -278.861 520.851 -292.346C531.665 -308.726 552.159 -315.546 571.118 -313.537C591.801 -311.347 609.086 -298.554 620.734 -281.785C626.7 -273.197 631.245 -263.677 634.535 -253.763C637.48 -244.888 638.895 -235.522 642.615 -226.903C645.518 -220.177 650.053 -213.665 657.398 -211.479C667.09 -208.593 676.052 -214.52 684.067 -219.195C700.886 -229.007 720.695 -231.819 739.771 -228.349C758.586 -224.925 776.607 -215.553 789.392 -201.206C797.447 -192.167 804.447 -182.085 812.187 -172.76C819.704 -163.703 827.125 -154.68 832.879 -144.359C845.261 -122.151 847.173 -97.2563 846.759 -72.2973C846.349 -47.5158 843.163 -22.8857 840.18 1.68628C837.019 27.7146 833.859 53.7429 830.698 79.7715C827.648 104.884 825.275 130.192 821.361 155.186C817.984 176.75 809.938 200.987 788.012 210.131C771.86 216.867 756.609 209.555 744.328 198.943C723.383 180.845 701.009 147.406 668.849 161.805C649.458 170.487 639.105 190.129 631.549 208.858C627.37 219.215 623.583 229.782 618.191 239.595C612.71 249.571 605.331 258.368 596.841 265.92C580.98 280.029 561.929 289.966 542.971 299.21C541.165 300.091 542.232 303.062 544.058 302.171Z" fill="white"/>
<path d="M550.899 331.282C572.186 320.903 593.632 309.761 611.304 293.746C619.504 286.314 626.753 277.905 632.473 268.413C639.011 257.565 643.416 245.638 648.08 233.914C656.813 211.963 669.337 185.854 694.463 179.423C712.616 174.777 728.352 185.013 741.119 196.809C753.118 207.896 763.668 220.972 777.617 229.754C792.99 239.433 811.109 240.022 826.377 229.503C846.013 215.973 852.951 192.375 856.279 169.946C860.463 141.756 863.286 113.311 866.722 85.0208C870.257 55.9116 873.795 26.8026 877.326 -2.30731C880.525 -28.6769 883.657 -55.1424 883.688 -81.7441C883.717 -107.881 880.871 -133.27 867.932 -156.432C861.39 -168.142 852.891 -178.296 844.379 -188.588C835.959 -198.769 828.391 -209.892 819.433 -219.592C792.443 -248.817 745.766 -259.762 709.29 -242.815C699.126 -238.093 688.085 -227.556 676.08 -230.469C665.925 -232.933 661.412 -243.879 658.595 -252.868C655.345 -263.242 653.275 -273.806 649.067 -283.89C644.764 -294.205 639.128 -304.042 632.007 -312.676C618.73 -328.771 600.305 -340.332 579.228 -342.024C560.119 -343.558 539.73 -337.537 526.94 -322.681C520.393 -315.076 516.593 -305.608 512.206 -296.703C507.854 -287.871 502.524 -278.117 492.817 -274.364C480.942 -269.774 468.37 -276.197 458.89 -283.15C448.31 -290.91 439.258 -300.485 430.534 -310.226C415.254 -327.286 400.294 -345.179 379.633 -355.943C361.405 -365.439 340.648 -367.056 322.119 -357.459C285.759 -338.628 269.71 -292.958 229.085 -280.558C210.104 -274.763 189.817 -277.406 170.665 -280.865C151.357 -284.353 132.071 -289.144 112.35 -289.38C93.2502 -289.609 74.5029 -284.434 59.7907 -271.866C44.6486 -258.931 35.3975 -240.589 29.6992 -221.798C23.3074 -200.719 21.4105 -178.744 21.0181 -156.817C20.5301 -129.558 22.3028 -102.29 25.6676 -75.245C32.3702 -21.3735 44.8694 31.9435 59.8251 84.0815C75.0139 137.032 94.4418 189.245 123.258 236.41C147.382 275.895 178.41 311.373 216.188 338.321C252.543 364.254 294.861 381.681 339.57 385.369C388.859 389.434 437.914 377.876 483.796 360.624C506.66 352.026 528.937 341.957 550.899 331.282C552.707 330.404 551.639 327.433 549.812 328.321C505.44 349.888 459.235 369.429 410.453 378.283C363.596 386.786 315.704 383.838 271.455 365.578C230.392 348.632 194.276 320.827 164.892 287.73C130.755 249.278 105.967 203.467 87.1901 155.824C67.1739 105.036 53.0522 51.7443 41.5863 -1.5686C30.4436 -53.3776 23.0077 -106.294 24.2082 -159.394C25.1112 -199.342 31.9352 -249.698 67.9019 -274.095C102.126 -297.31 144.803 -281.148 181.828 -275.838C199.985 -273.234 219.061 -272.696 236.332 -279.793C254.58 -287.292 268.433 -302.051 281.372 -316.428C294.579 -331.102 307.923 -347.676 326.322 -356.02C347.179 -365.478 369.423 -359.862 387.711 -347.449C407.5 -334.016 421.612 -314.454 438.077 -297.464C451.256 -283.864 472.421 -263.647 493.389 -271.218C511.808 -277.869 515.915 -301.009 525.584 -315.65C537.383 -333.517 559.74 -340.95 580.418 -338.759C602.96 -336.372 621.807 -322.425 634.501 -304.149C641 -294.793 645.954 -284.422 649.538 -273.621C652.742 -263.964 654.282 -253.771 658.33 -244.392C661.472 -237.114 666.379 -230.056 674.328 -227.69C684.829 -224.565 694.547 -231.005 703.229 -236.069C721.565 -246.766 743.155 -249.837 763.952 -246.053C784.465 -242.322 804.103 -232.102 818.041 -216.46C826.806 -206.623 834.425 -195.652 842.847 -185.504C851.027 -175.648 859.102 -165.829 865.365 -154.597C878.853 -130.405 880.946 -103.297 880.495 -76.1073C880.049 -49.1268 876.582 -22.3119 873.333 4.44C869.894 32.7648 866.455 61.09 863.015 89.4149C859.696 116.743 857.113 144.284 852.854 171.483C849.171 195.003 840.383 221.411 816.473 231.383C798.852 238.732 782.2 230.764 768.799 219.184C746.05 199.528 721.729 163.152 686.797 178.793C665.732 188.224 654.491 209.581 646.284 229.925C641.736 241.196 637.615 252.696 631.748 263.374C625.77 274.253 617.726 283.841 608.468 292.076C591.199 307.439 570.453 318.257 549.812 328.321C548.005 329.202 549.073 332.172 550.899 331.282Z" fill="white"/>
<path d="M557.738 360.393C580.742 349.177 603.914 337.135 623.01 319.829C631.857 311.811 639.683 302.734 645.855 292.492C652.923 280.765 657.685 267.871 662.727 255.196C672.18 231.433 685.746 203.185 712.942 196.221C732.616 191.184 749.667 202.25 763.507 215.038C776.47 227.015 787.87 241.146 802.936 250.636C819.516 261.079 839.053 261.724 855.522 250.376C876.722 235.769 884.204 210.286 887.797 186.072C892.32 155.597 895.373 124.845 899.086 94.2616C902.907 62.7921 906.732 31.3228 910.55 -0.147308C914.007 -28.644 917.393 -57.2442 917.426 -85.9917C917.458 -114.223 914.392 -141.654 900.416 -166.672C893.344 -179.331 884.156 -190.308 874.954 -201.435C865.851 -212.441 857.671 -224.467 847.985 -234.953C818.84 -266.505 768.441 -278.31 729.06 -260.013C718.003 -254.877 706.147 -243.556 693.09 -246.66C682.064 -249.281 677.139 -261.227 674.09 -270.957C670.577 -282.172 668.338 -293.592 663.79 -304.495C659.142 -315.636 653.054 -326.259 645.362 -335.584C631.029 -352.959 611.139 -365.434 588.386 -367.26C567.774 -368.914 545.775 -362.416 531.98 -346.393C524.909 -338.18 520.806 -327.953 516.068 -318.337C511.348 -308.756 505.564 -298.191 495.035 -294.121C482.153 -289.141 468.518 -296.096 458.233 -303.64C446.786 -312.036 436.993 -322.397 427.555 -332.935C411.052 -351.361 394.892 -370.692 372.577 -382.317C352.906 -392.565 330.51 -394.316 310.512 -383.96C271.195 -363.601 253.855 -314.227 209.92 -300.816C189.377 -294.545 167.426 -297.398 146.696 -301.143C125.835 -304.911 104.994 -310.091 83.6873 -310.346C63.0585 -310.593 42.8197 -305.01 26.9297 -291.436C10.5878 -277.475 0.599566 -257.669 -5.55007 -237.389C-12.457 -214.612 -14.5094 -190.866 -14.9336 -167.173C-15.4613 -137.704 -13.5449 -108.225 -9.9072 -78.9867C-2.66245 -20.7584 10.8471 36.87 27.0124 93.2245C43.429 150.456 64.4256 206.894 95.5718 257.873C121.647 300.551 155.181 338.896 196.014 368.023C235.299 396.046 281.028 414.873 329.341 418.858C382.603 423.251 435.615 410.755 485.195 392.113C509.913 382.819 533.996 371.933 557.738 360.393C559.547 359.514 558.479 356.544 556.652 357.432C508.671 380.753 458.71 401.878 405.96 411.451C355.283 420.648 303.485 417.454 255.628 397.705C211.214 379.376 172.155 349.301 140.374 313.504C103.462 271.926 76.6592 222.388 56.3563 170.873C34.7129 115.956 19.4456 58.3321 7.04727 0.685394C-4.99872 -55.324 -13.0377 -112.531 -11.7401 -169.937C-10.7629 -213.17 -3.37402 -267.649 35.5494 -294.052C72.5863 -319.175 118.74 -301.705 158.809 -295.959C178.418 -293.146 199.015 -292.565 217.666 -300.229C237.372 -308.327 252.331 -324.27 266.304 -339.795C280.598 -355.677 295.039 -373.605 314.953 -382.636C337.543 -392.88 361.638 -386.792 381.444 -373.348C402.838 -358.827 418.094 -337.679 435.894 -319.311C450.103 -304.649 472.95 -282.793 495.565 -290.958C515.439 -298.134 519.882 -323.157 530.317 -338.954C543.1 -358.307 567.319 -366.354 589.718 -363.982C614.119 -361.397 634.526 -346.297 648.267 -326.514C655.299 -316.39 660.66 -305.167 664.539 -293.481C668.004 -283.04 669.668 -272.021 674.044 -261.882C677.424 -254.051 682.703 -246.447 691.258 -243.902C702.565 -240.539 713.042 -247.491 722.389 -252.944C742.242 -264.526 765.614 -267.857 788.133 -263.76C810.343 -259.719 831.598 -248.651 846.688 -231.716C856.165 -221.08 864.401 -209.221 873.506 -198.25C882.349 -187.594 891.079 -176.979 897.849 -164.837C912.444 -138.661 914.717 -109.339 914.23 -79.9194C913.747 -50.7401 909.999 -21.7403 906.486 7.19174C902.768 37.8134 899.049 68.4348 895.331 99.0565C891.743 128.6 888.951 158.374 884.346 187.779C880.357 213.255 870.827 241.834 844.934 252.633C825.842 260.595 807.79 251.971 793.268 239.424C768.717 218.21 742.448 178.897 704.743 195.779C682.004 205.96 669.876 229.033 661.017 250.991C656.101 263.176 651.646 275.608 645.302 287.152C638.829 298.934 630.12 309.313 620.094 318.232C601.416 334.847 578.976 346.546 556.651 357.432C554.845 358.313 555.912 361.283 557.738 360.393Z" fill="white"/>
<path d="M564.578 389.504C589.298 377.451 614.197 364.51 634.718 345.912C644.212 337.307 652.614 327.563 659.237 316.572C666.835 303.965 671.954 290.104 677.374 276.478C687.549 250.902 702.155 220.515 731.422 213.019C752.615 207.591 770.984 219.488 785.896 233.267C799.823 246.135 812.071 261.32 828.256 271.519C846.042 282.727 866.998 283.426 884.667 271.251C907.432 255.566 915.457 228.199 919.316 202.199C924.177 169.438 927.459 136.381 931.452 103.503C935.56 69.6732 939.671 35.8438 943.775 2.01373C947.49 -28.6102 951.13 -59.3451 951.165 -90.2383C951.2 -120.563 947.914 -150.035 932.901 -176.91C925.299 -190.52 915.422 -202.32 905.53 -214.281C895.744 -226.112 886.951 -239.041 876.538 -250.312C845.237 -284.191 791.116 -296.856 748.83 -277.21C736.917 -271.675 724.172 -259.508 710.101 -262.85C698.201 -265.677 692.878 -278.54 689.587 -289.045C685.809 -301.101 683.403 -313.378 678.514 -325.098C673.521 -337.065 666.981 -348.474 658.718 -358.491C643.329 -377.147 621.973 -390.534 597.544 -392.494C575.431 -394.269 551.82 -387.295 537.02 -370.103C529.426 -361.282 525.02 -350.297 519.931 -339.969C514.842 -329.639 508.605 -318.263 497.254 -313.875C483.364 -308.505 468.666 -315.994 457.575 -324.128C445.262 -333.16 434.729 -344.307 424.576 -355.643C406.849 -375.435 389.49 -396.203 365.521 -408.69C344.407 -419.69 320.373 -421.575 298.906 -410.461C256.631 -388.572 238 -335.494 190.756 -321.073C168.65 -314.325 145.035 -317.39 122.729 -321.419C100.314 -325.468 77.9191 -331.037 55.0244 -331.311C32.8669 -331.577 11.137 -325.584 -5.93068 -311.004C-23.4728 -296.019 -34.1978 -274.748 -40.7988 -252.979C-48.2205 -228.504 -50.4287 -202.988 -50.8845 -177.528C-51.4516 -145.848 -49.3916 -114.159 -45.4811 -82.728C-37.6942 -20.1432 -23.1744 41.7966 -5.79947 102.368C11.8457 163.882 34.4111 224.544 67.8873 279.337C95.9131 325.208 131.954 366.419 175.842 397.726C218.058 427.84 267.198 448.066 319.114 452.348C376.348 457.069 433.317 443.635 486.595 423.602C513.166 413.611 539.056 401.909 564.578 389.504C566.386 388.625 565.319 385.655 563.492 386.543C511.902 411.618 458.185 434.327 401.467 444.62C346.969 454.511 291.265 451.07 239.801 429.833C192.037 410.121 150.035 377.775 115.857 339.278C76.1701 294.575 47.3522 241.31 25.5231 185.922C2.25242 126.876 -14.1605 64.9197 -27.4908 2.93918C-40.4402 -57.2712 -49.0819 -118.768 -47.6871 -180.479C-46.6355 -226.998 -38.682 -285.601 3.19835 -314.009C43.0478 -341.04 92.6792 -322.262 135.793 -316.079C156.851 -313.058 178.971 -312.433 199.002 -320.664C220.165 -329.361 236.231 -346.488 251.237 -363.162C266.619 -380.252 282.156 -399.534 303.585 -409.251C327.909 -420.282 353.855 -413.722 375.179 -399.248C398.177 -383.637 414.577 -360.903 433.713 -341.157C448.951 -325.433 473.48 -301.937 497.743 -310.698C519.071 -318.4 523.85 -345.305 535.05 -362.258C548.817 -383.097 574.899 -391.759 599.018 -389.204C625.278 -386.422 647.246 -370.168 662.034 -348.878C669.599 -337.987 675.369 -325.912 679.541 -313.339C683.266 -302.116 685.055 -290.27 689.76 -279.37C693.378 -270.987 699.029 -262.837 708.188 -260.113C720.304 -256.511 731.537 -263.976 741.55 -269.818C762.921 -282.285 788.074 -285.875 812.314 -281.465C836.223 -277.115 859.094 -265.199 875.337 -246.97C885.524 -235.537 894.377 -222.787 904.166 -210.994C913.673 -199.539 923.057 -188.128 930.335 -175.075C946.036 -146.916 948.49 -115.38 947.966 -83.7298C947.446 -52.3517 943.417 -21.167 939.639 9.9455C935.642 42.8637 931.645 75.7819 927.648 108.7C923.791 140.459 920.789 172.466 915.839 204.076C911.543 231.508 901.272 262.258 873.395 273.884C852.832 282.46 833.38 273.18 817.739 259.665C791.384 236.893 763.168 194.643 722.69 212.766C698.277 223.697 685.262 248.486 675.751 272.058C670.467 285.156 665.677 298.521 658.858 310.931C651.889 323.616 642.515 334.786 631.721 344.389C611.634 362.257 587.5 374.837 563.492 386.543C561.685 387.424 562.752 390.394 564.578 389.504Z" fill="white"/>
<path d="M571.418 418.614C597.854 405.724 624.479 391.883 646.425 371.995C656.566 362.804 665.544 352.391 672.619 340.652C680.747 327.165 686.223 312.337 692.022 297.761C702.918 270.372 718.565 237.846 749.903 229.817C772.615 223.997 792.3 236.726 808.284 251.496C823.174 265.254 836.271 281.498 853.576 292.401C872.571 304.369 894.938 305.13 913.813 292.125C938.142 275.362 946.711 246.111 950.834 218.326C956.035 183.28 959.546 147.915 963.817 112.744C968.211 76.5542 972.61 40.3648 977 4.17422C980.973 -28.5768 984.867 -61.4462 984.905 -94.4855C984.941 -126.904 981.437 -158.418 965.387 -187.149C957.254 -201.708 946.688 -214.332 936.105 -227.127C925.638 -239.784 916.231 -253.616 905.09 -265.673C871.634 -301.878 813.792 -315.403 768.601 -294.408C755.829 -288.474 742.198 -275.459 727.113 -279.04C714.339 -282.073 708.617 -295.853 705.083 -307.133C701.042 -320.03 698.468 -333.164 693.237 -345.702C687.9 -358.495 680.908 -370.69 672.075 -381.398C655.629 -401.336 632.808 -415.635 606.703 -417.73C583.087 -419.625 557.866 -412.174 542.06 -393.815C533.943 -384.386 529.234 -372.643 523.794 -361.602C518.336 -350.523 511.645 -338.336 499.473 -333.631C484.575 -327.872 468.815 -335.892 456.918 -344.618C443.737 -354.285 432.464 -366.219 421.597 -378.352C402.647 -399.51 384.089 -421.716 358.465 -435.065C335.908 -446.817 310.236 -448.836 287.3 -436.962C242.067 -413.545 222.145 -356.762 171.591 -341.331C147.924 -334.106 122.644 -337.382 98.761 -341.696C74.7926 -346.025 50.8432 -351.983 26.3617 -352.277C2.67538 -352.561 -20.5457 -346.159 -38.7912 -330.573C-57.5331 -314.563 -68.9949 -291.829 -76.0476 -268.571C-83.9844 -242.396 -86.3481 -215.11 -86.8357 -187.883C-87.4426 -153.993 -85.2388 -120.093 -81.0551 -86.4695C-72.7263 -19.5279 -57.1956 46.7233 -38.6114 111.511C-19.738 177.307 4.39597 242.194 40.2024 300.801C70.1785 349.865 108.725 393.942 155.668 427.428C200.815 459.632 253.366 481.258 308.886 485.838C370.093 490.886 431.019 476.514 487.994 455.092C516.42 444.403 544.115 431.884 571.418 418.614C573.226 417.735 572.159 414.765 570.332 415.653C515.132 442.482 457.66 466.775 396.974 477.789C338.655 488.373 279.045 484.686 223.974 461.96C172.859 440.866 127.915 406.249 91.3399 365.051C48.8776 317.222 18.0449 260.23 -5.31059 200.97C-30.2084 137.796 -47.7672 71.507 -62.0293 5.19235C-75.8823 -59.2184 -85.1268 -125.006 -83.6346 -191.023C-82.5089 -240.826 -73.9905 -303.553 -29.1534 -333.967C13.5089 -362.906 66.6171 -342.82 112.775 -336.2C135.284 -332.971 158.926 -332.302 180.337 -341.1C202.957 -350.395 220.13 -368.708 236.169 -386.529C252.639 -404.829 269.273 -425.463 292.216 -435.867C318.274 -447.684 346.071 -440.652 368.913 -425.148C393.516 -408.448 411.061 -384.128 431.531 -363.004C447.798 -346.218 474.01 -321.083 499.921 -330.439C522.703 -338.665 527.818 -367.453 539.784 -385.563C554.535 -407.888 582.479 -417.163 608.319 -414.426C636.437 -411.448 659.967 -394.04 675.801 -371.243C683.9 -359.585 690.077 -346.657 694.543 -333.199C698.528 -321.192 700.441 -308.52 705.475 -296.859C709.331 -287.925 715.354 -279.227 725.119 -276.325C738.042 -272.484 750.032 -280.462 760.711 -286.692C783.599 -300.044 810.533 -303.894 836.496 -299.17C862.102 -294.512 886.59 -281.748 903.985 -262.224C914.883 -249.994 924.354 -236.355 934.826 -223.739C944.996 -211.485 955.034 -199.278 962.82 -185.314C979.627 -155.172 982.263 -121.422 981.702 -87.541C981.146 -53.9642 976.836 -20.5943 972.793 12.6979C968.517 47.9127 964.241 83.1274 959.965 118.342C955.839 152.318 952.627 186.557 947.332 220.372C942.73 249.76 931.717 282.681 901.857 295.135C879.823 304.324 858.97 294.388 842.209 279.905C814.051 255.575 783.888 210.388 740.638 229.753C714.55 241.434 700.647 267.938 690.486 293.123C684.832 307.136 679.708 321.433 672.414 334.709C664.948 348.296 654.91 360.258 643.347 370.544C621.852 389.665 596.024 403.126 570.332 415.653C568.525 416.534 569.592 419.504 571.418 418.614Z" fill="white"/>
<path d="M578.258 447.725C606.412 433.997 634.759 419.256 658.132 398.078C668.922 388.302 678.475 377.219 686.001 364.731C694.659 350.364 700.492 334.57 706.67 319.043C718.286 289.842 734.975 255.177 768.383 246.615C792.615 240.404 813.615 253.964 830.673 269.725C846.527 284.374 860.472 301.673 878.896 313.284C899.098 326.015 922.882 326.832 942.958 312.999C968.852 295.158 977.964 264.024 982.352 234.453C987.892 197.121 991.632 159.45 996.181 121.985C1000.86 83.4352 1005.55 44.8856 1010.22 6.33502C1014.46 -28.5428 1018.6 -63.5472 1018.64 -98.7323C1018.68 -133.245 1014.96 -166.8 997.871 -197.388C989.208 -212.896 977.952 -226.343 966.68 -239.973C955.53 -253.455 945.511 -268.191 933.643 -281.032C898.031 -319.565 836.467 -333.95 788.371 -311.605C774.742 -305.273 760.222 -291.411 744.123 -295.231C730.475 -298.469 724.355 -313.167 720.578 -325.221C716.274 -338.96 713.532 -352.95 707.96 -366.305C702.278 -379.925 694.834 -392.905 685.43 -404.305C667.927 -425.524 643.642 -440.736 615.86 -442.965C590.742 -444.981 563.91 -437.053 547.099 -417.526C538.458 -407.489 533.447 -394.988 527.656 -383.235C521.829 -371.407 514.684 -358.409 501.692 -353.386C485.785 -347.237 468.962 -355.79 456.26 -365.107C442.213 -375.41 430.199 -388.129 418.617 -401.061C398.444 -423.584 378.686 -447.227 351.408 -461.438C327.408 -473.942 300.098 -476.096 275.693 -463.462C227.503 -438.517 206.29 -378.03 152.426 -361.588C127.197 -353.887 100.252 -357.374 74.7925 -361.973C49.2705 -366.583 23.7667 -372.93 -2.30165 -373.242C-27.5165 -373.545 -52.2292 -366.734 -71.6521 -350.142C-91.5942 -333.107 -103.793 -308.908 -111.297 -284.161C-119.749 -256.289 -122.268 -227.232 -122.787 -198.239C-123.433 -162.138 -121.086 -126.027 -116.63 -90.2108C-107.759 -18.912 -91.2179 51.6506 -71.424 120.655C-51.3224 190.732 -25.6199 259.844 12.5168 322.265C44.4446 374.523 85.4974 421.466 135.496 457.131C183.573 491.426 239.535 514.451 298.658 519.328C363.838 524.704 428.72 509.395 489.393 486.581C519.673 475.196 549.175 461.861 578.258 447.725C580.067 446.846 578.999 443.876 577.172 444.764C518.364 473.348 457.135 499.224 392.481 510.958C330.342 522.236 266.826 518.302 208.147 494.087C153.681 471.611 105.795 434.723 66.8223 390.825C21.5856 339.871 -11.2619 279.152 -36.1437 216.019C-62.6688 148.716 -81.3732 78.0949 -96.5676 7.44623C-111.324 -61.1652 -121.171 -131.243 -119.582 -201.565C-118.382 -254.654 -109.298 -321.505 -61.5049 -353.924C-16.0301 -384.771 40.5556 -363.377 89.7574 -356.32C113.717 -352.884 138.882 -352.17 161.672 -361.535C185.75 -371.43 204.029 -390.927 221.102 -409.896C238.659 -429.404 256.39 -451.392 280.848 -462.484C308.638 -475.087 338.287 -467.583 362.647 -451.047C388.855 -433.258 407.543 -407.352 429.349 -384.851C446.646 -367.002 474.54 -340.228 502.097 -350.179C526.335 -358.931 531.785 -389.601 544.516 -408.867C560.252 -432.679 590.059 -442.568 617.619 -439.649C647.596 -436.474 672.686 -417.912 689.567 -393.608C698.199 -381.182 704.784 -367.403 709.545 -353.058C713.789 -340.268 715.828 -326.77 721.189 -314.349C725.284 -304.862 731.679 -295.618 742.048 -292.538C755.779 -288.458 768.527 -296.949 779.872 -303.567C804.276 -317.804 832.992 -321.914 860.676 -316.877C887.981 -311.909 914.085 -298.298 932.633 -277.48C944.241 -264.451 954.33 -249.924 965.484 -236.484C976.318 -223.431 987.011 -210.428 995.305 -195.553C1013.22 -163.428 1016.03 -127.464 1015.44 -91.3526C1014.84 -55.577 1010.25 -20.0222 1005.95 15.4505C1001.39 52.9618 996.835 90.4731 992.28 127.984C987.886 164.176 984.465 200.649 978.824 236.669C973.916 268.012 962.161 303.105 930.317 316.385C906.813 326.188 884.559 315.595 866.678 300.145C836.717 274.257 804.607 226.133 758.584 246.739C730.822 259.17 716.032 287.389 705.219 314.19C699.197 329.116 693.739 344.346 685.969 358.488C678.007 372.978 667.304 385.731 654.973 396.7C632.069 417.074 604.546 431.416 577.171 444.764C575.365 445.645 576.433 448.615 578.258 447.725Z" fill="white"/>
<path d="M585.099 476.835C614.968 462.271 645.043 446.63 669.84 424.161C681.277 413.798 691.407 402.048 699.384 388.81C708.572 373.564 714.763 356.803 721.318 340.325C733.656 309.312 751.386 272.507 786.864 263.412C812.616 256.811 834.933 271.202 853.062 287.953C869.881 303.493 884.674 321.847 904.218 334.167C925.625 347.661 950.828 348.534 972.105 333.874C999.563 314.955 1009.22 281.936 1013.87 250.58C1019.75 210.963 1023.72 170.985 1028.55 131.227C1033.52 90.3165 1038.49 49.4067 1043.45 8.49585C1047.94 -28.5092 1052.34 -65.6483 1052.38 -102.979C1052.43 -139.585 1048.48 -175.182 1030.36 -207.627C1021.16 -224.084 1009.22 -238.354 997.257 -252.819C985.424 -267.126 974.792 -282.765 962.197 -296.392C924.43 -337.252 859.144 -352.497 808.143 -328.802C793.656 -322.072 778.249 -307.363 761.136 -311.421C746.615 -314.865 740.096 -330.48 736.076 -343.31C731.508 -357.889 728.598 -372.736 722.686 -386.909C716.659 -401.355 708.763 -415.121 698.789 -427.212C680.229 -449.712 654.478 -465.837 625.021 -468.2C598.4 -470.337 569.958 -461.932 552.141 -441.238C542.976 -430.592 537.663 -417.333 531.521 -404.867C525.325 -392.292 517.727 -378.482 503.912 -373.142C486.999 -366.603 469.113 -375.688 455.604 -385.596C440.69 -396.535 427.936 -410.04 415.64 -423.77C394.243 -447.659 373.286 -472.74 344.354 -487.812C318.911 -501.068 289.963 -503.356 264.088 -489.963C212.941 -463.49 190.437 -399.298 133.263 -381.846C106.472 -373.668 77.8621 -377.366 50.826 -382.249C23.7502 -387.14 -3.3076 -393.877 -30.9631 -394.208C-57.7068 -394.528 -83.9108 -387.309 -104.511 -369.711C-125.653 -351.65 -138.589 -325.988 -146.544 -299.752C-155.511 -270.181 -158.186 -239.354 -158.737 -208.594C-159.423 -170.283 -156.932 -131.961 -152.203 -93.952C-142.791 -18.2964 -125.239 56.5773 -104.236 129.798C-82.9059 204.157 -55.6345 277.494 -15.1675 343.729C18.7112 399.18 62.2699 448.989 115.324 486.834C166.331 523.219 225.704 547.644 288.43 552.818C357.583 558.522 426.423 542.274 490.793 518.071C522.926 505.989 554.234 491.837 585.099 476.835C586.907 475.957 585.84 472.986 584.012 473.874C521.595 504.212 456.61 531.673 387.989 544.127C322.029 556.098 254.607 551.918 192.321 526.214C134.504 502.355 83.6752 463.197 42.3057 416.599C-5.70633 362.519 -40.5688 298.073 -66.9768 231.067C-95.1291 159.635 -114.979 84.6823 -131.106 9.7001C-146.765 -63.112 -157.216 -137.48 -155.529 -212.108C-154.255 -268.481 -144.607 -339.457 -93.8564 -373.881C-45.569 -406.635 14.4941 -383.933 66.7399 -376.44C92.1503 -372.796 118.837 -372.038 143.007 -381.97C168.543 -392.464 187.928 -413.145 206.034 -433.263C224.679 -453.979 243.506 -477.32 269.479 -489.099C299.003 -502.488 330.503 -494.512 356.381 -476.946C384.194 -458.067 404.026 -430.576 427.166 -406.697C445.493 -387.786 475.069 -359.373 504.274 -369.919C529.966 -379.196 535.753 -411.749 549.249 -432.17C565.969 -457.469 597.639 -467.972 626.919 -464.87C658.755 -461.498 685.406 -441.782 703.334 -415.972C712.499 -402.778 719.492 -388.147 724.547 -372.916C729.051 -359.343 731.214 -345.019 736.904 -331.837C741.232 -321.81 748.004 -311.99 758.978 -308.748C773.53 -304.45 787.007 -313.425 799.032 -320.441C824.954 -335.562 855.451 -339.932 884.857 -334.581C913.859 -329.305 941.58 -314.845 961.281 -292.734C973.599 -278.907 984.307 -263.49 996.143 -249.228C1007.64 -235.376 1018.99 -221.576 1027.79 -205.792C1046.81 -171.683 1049.81 -133.505 1049.17 -95.1628C1048.54 -57.1885 1043.67 -19.4489 1039.1 18.204C1034.26 58.0118 1029.43 97.8199 1024.6 137.628C1019.93 176.035 1016.3 214.741 1010.32 252.966C1005.1 286.265 992.606 323.529 958.778 337.637C933.804 348.052 910.15 336.804 891.149 320.386C859.384 292.94 825.326 241.879 776.531 263.727C747.095 276.907 731.417 306.842 719.953 335.257C713.563 351.097 707.771 367.259 699.524 382.267C691.066 397.66 679.698 411.204 666.6 422.857C642.287 444.484 613.07 459.706 584.012 473.875C582.206 474.755 583.273 477.726 585.099 476.835Z" fill="white"/>
</g>
</g>
<defs>
<clipPath id="clip0_68_10836">
<rect width="446" height="446" rx="223" fill="white"/>
</clipPath>
</defs>
</svg>
