<svg width="231" height="231" viewBox="0 0 231 231" fill="none" xmlns="http://www.w3.org/2000/svg">
<path d="M115.359 1.5C178.221 1.5 229.245 52.4666 229.245 115.373C229.245 178.253 178.274 229.245 115.359 229.245C52.4454 229.245 1.50019 178.28 1.5 115.373C1.5 52.4661 52.498 1.50002 115.359 1.5Z" fill="#7A2799" stroke="#B870E1" stroke-width="3"/>
<path d="M170.506 114.862C170.506 145.6 145.6 170.507 114.862 170.507C84.1247 170.507 59.2178 145.6 59.2178 114.862C59.2178 84.1249 84.1247 59.218 114.862 59.218C145.6 59.218 170.506 84.1249 170.506 114.862Z" fill="#4F0B55"/>
<circle cx="114.352" cy="114.352" r="11.231" fill="url(#paint0_radial_68_16528)"/>
<path d="M147.583 203.648C147.155 202.567 146.373 200.477 145.239 197.38C145.079 196.883 144.954 196.521 144.865 196.296C144.286 193.893 143.701 191.828 143.11 190.102L147.587 188.327C148.34 189.989 149.328 191.894 150.553 194.041L150.999 195.096C152.081 197.543 152.951 199.597 153.61 201.259L147.583 203.648ZM140.126 184.199L145.741 181.973L147.449 186.281L141.834 188.507L140.126 184.199Z" fill="white"/>
<path d="M170.132 189.655C170.799 189.186 171.521 188.901 172.299 188.799C173.062 188.708 173.802 188.824 174.518 189.148C175.234 189.472 175.852 190.003 176.371 190.742L174.263 192.225C173.873 191.671 173.442 191.359 172.968 191.289C172.49 191.243 172.024 191.38 171.57 191.7C171.115 192.019 170.836 192.406 170.732 192.862C170.624 193.341 170.764 193.858 171.153 194.411L169.045 195.894C168.526 195.156 168.235 194.395 168.172 193.612C168.109 192.829 168.257 192.088 168.615 191.391C168.959 190.703 169.464 190.125 170.132 189.655ZM173.433 186.474L165.392 174.273L168.62 189.859L160.783 195.371C159.195 192.902 157.437 190.298 155.51 187.558C153.573 184.803 151.711 182.262 149.924 179.932L155.397 176.083L163.192 187.98L160.167 172.728L167.79 167.365C169.614 170.199 171.37 172.816 173.057 175.215C174.735 177.6 176.599 180.13 178.65 182.804L173.433 186.474Z" fill="white"/>
<path d="M174.115 158.64C175.12 158.919 176.397 159.245 177.945 159.618L182.584 152.729L180.223 149.57L183.874 144.15L195.479 160.755L190.127 168.702L170.348 164.233L174.115 158.64ZM182.143 160.656C184.023 161.127 185.912 161.584 187.812 162.026L189.565 162.453C188.594 161.067 187.114 158.992 185.124 156.229L182.143 160.656Z" fill="white"/>
<path d="M195.234 136.853C194.332 140.706 192.656 142.346 190.206 141.773C189.056 141.504 188.137 141.013 187.449 140.299C186.777 139.589 186.371 138.505 186.231 137.046C186.108 135.591 186.328 133.664 186.889 131.264L189.559 119.856C192.806 120.759 195.857 121.544 198.714 122.212C201.57 122.881 204.653 123.531 207.963 124.163L206.569 130.12L206.544 130.115L205.28 135.514C204.79 137.61 204.227 139.216 203.591 140.333C202.968 141.471 202.27 142.207 201.496 142.543C200.718 142.896 199.823 142.954 198.809 142.717C197.778 142.475 196.942 141.896 196.3 140.98C195.672 140.084 195.317 138.709 195.234 136.853ZM201.93 129.035L199.572 128.483L198.433 133.35C198.188 134.398 198.111 135.147 198.202 135.596C198.289 136.062 198.578 136.352 199.068 136.467C199.457 136.558 199.778 136.401 200.033 135.998C200.301 135.615 200.554 134.916 200.791 133.902L201.93 129.035ZM191.665 131.766C191.459 132.645 191.337 133.321 191.298 133.793C191.271 134.286 191.327 134.656 191.466 134.902C191.621 135.152 191.868 135.317 192.206 135.396C192.645 135.499 193.015 135.327 193.316 134.88C193.629 134.454 193.933 133.616 194.225 132.366L195.364 127.498L192.804 126.899L191.665 131.766Z" fill="white"/>
<path d="M199.454 113.485C198.424 113.641 196.848 113.898 194.726 114.256C192.176 114.685 190.33 115.014 189.189 115.242L188.168 109.183L191.073 108.719C194.262 108.217 196.721 107.82 198.45 107.529C200.093 107.252 202.418 106.842 205.425 106.3L208.193 105.807L209.214 111.866C208.664 111.941 207.806 112.077 206.643 112.273L201.842 113.082L199.454 113.485ZM200.531 96.3793C200.926 98.7241 200.937 100.614 200.563 102.05C200.206 103.484 199.542 104.555 198.57 105.264C197.615 105.971 196.385 106.451 194.879 106.705C192.688 107.074 190.873 106.694 189.432 105.564C188.009 104.431 187.011 102.161 186.436 98.7551L185.666 94.1853L185.641 94.1896L184.576 87.874C187.919 87.4512 191.037 86.9961 193.93 86.5085C196.822 86.0209 199.917 85.4288 203.215 84.7322L204.279 91.0478L199.761 91.8094L200.531 96.3793ZM191.347 96.8713C191.549 98.0694 191.751 98.9593 191.955 99.5411C192.179 100.137 192.448 100.532 192.762 100.725C193.076 100.919 193.516 100.968 194.081 100.873C194.645 100.777 195.052 100.577 195.299 100.271C195.547 99.9653 195.67 99.4957 195.669 98.8622C195.688 98.243 195.599 97.3514 195.403 96.1876L194.806 92.6447L190.749 93.3284L191.347 96.8713Z" fill="white"/>
<path d="M193.404 65.7659C195.25 68.685 196.014 71.046 195.696 72.849C195.393 74.6426 194.303 76.1332 192.425 77.3209C191.134 78.1374 189.89 78.6059 188.693 78.7264C187.511 78.8376 186.301 78.4835 185.064 77.6641C183.842 76.8354 182.595 75.4162 181.324 73.4066L178.429 68.8299L174.556 71.2793L171.133 65.8665C174.053 64.1839 176.752 62.5585 179.231 60.9905C181.71 59.4225 184.335 57.6798 187.107 55.7625L190.531 61.1753L190.509 61.1892L193.404 65.7659ZM184.596 69.1803C185.366 70.3978 185.985 71.2794 186.454 71.8252C186.946 72.3763 187.391 72.6904 187.789 72.7673C188.196 72.859 188.642 72.7517 189.126 72.4455C189.61 72.1393 189.895 71.7947 189.981 71.4115C190.092 71.0338 189.996 70.509 189.694 69.8372C189.402 69.1801 188.861 68.2282 188.073 66.9813L186.152 63.9448L182.675 66.1438L184.596 69.1803Z" fill="white"/>
<path d="M160.328 55.1857L155.362 51.2245C157.581 48.6651 159.6 46.2455 161.418 43.9659C163.247 41.6727 165.157 39.1665 167.148 36.4475L181.559 47.9415C180.644 49.0325 179.954 49.8698 179.489 50.4533C178.915 51.1724 178.489 51.7206 178.21 52.0978L168.787 44.5813L160.328 55.1857Z" fill="white"/>
<path d="M140.301 25.1147L136.042 39.0931L145.979 26.6581L155.224 29.1713C154.337 31.97 153.455 34.9857 152.576 38.2183C151.693 41.4676 150.925 44.5236 150.273 47.386L143.816 45.6309L147.997 32.0363L138.188 44.1012L129.194 41.6563C130.211 38.4434 131.105 35.4216 131.874 32.591C132.639 29.7772 133.396 26.7274 134.145 23.4416L140.301 25.1147Z" fill="white"/>
<path d="M122.84 31.5614C122.893 32.6016 122.992 34.1954 123.138 36.3427C123.312 38.923 123.456 40.7921 123.569 41.9501L117.439 42.3646L117.266 39.4276C117.083 36.2042 116.932 33.718 116.814 31.9689C116.702 30.3064 116.525 27.9524 116.284 24.9069L116.069 22.1033L122.199 21.6887C122.219 22.244 122.269 23.1105 122.349 24.2881L122.677 29.1456L122.84 31.5614ZM105.926 28.7909C108.299 28.6305 110.181 28.8077 111.573 29.3224C112.963 29.8199 113.963 30.5873 114.573 31.6247C115.181 32.6447 115.537 33.9167 115.64 35.4407C115.79 37.6573 115.231 39.426 113.963 40.7469C112.694 42.0505 110.337 42.8188 106.891 43.0518L102.267 43.3645L102.269 43.3905L95.8785 43.8226C95.7899 40.4536 95.6466 37.3058 95.4487 34.3792C95.2508 31.4526 94.969 28.3141 94.6033 24.9639L100.993 24.5318L101.303 29.1036L105.926 28.7909ZM105.504 37.9788C106.716 37.8968 107.622 37.7834 108.221 37.6385C108.836 37.4751 109.255 37.2467 109.479 36.9532C109.703 36.6598 109.795 36.2273 109.757 35.6558C109.718 35.0843 109.559 34.6602 109.279 34.3834C109 34.1065 108.545 33.9372 107.914 33.8755C107.3 33.7953 106.404 33.795 105.226 33.8746L101.642 34.117L101.919 38.2212L105.504 37.9788Z" fill="white"/>
<path d="M81.9629 39.8336C85.5008 38.0604 87.8336 38.2988 88.9613 40.5487C89.4902 41.6039 89.7007 42.6244 89.593 43.6103C89.4775 44.5807 88.9041 45.5865 87.8727 46.6276C86.8336 47.6533 85.2123 48.7183 83.0089 49.8226L72.5349 55.0723C71.1502 51.9998 69.8007 49.1523 68.4864 46.53C67.172 43.9076 65.6984 41.1224 64.0654 38.1743L69.5352 35.4328L69.5468 35.4561L74.5045 32.9712C76.4286 32.0068 78.0232 31.4115 79.2882 31.1852C80.561 30.9355 81.574 31.0005 82.3273 31.3802C83.0962 31.752 83.7139 32.4034 84.1805 33.3345C84.6549 34.281 84.7452 35.2939 84.4513 36.3731C84.1651 37.4291 83.3356 38.5826 81.9629 39.8336ZM71.67 39.6922L72.755 41.8568L77.2239 39.617C78.1859 39.1348 78.8104 38.715 79.0972 38.3577C79.3996 37.9926 79.438 37.585 79.2125 37.135C79.0336 36.7781 78.7074 36.6309 78.234 36.6935C77.7683 36.7328 77.0699 36.9857 76.1389 37.4524L71.67 39.6922ZM80.3387 45.8315C81.1455 45.4271 81.7429 45.0889 82.1308 44.8168C82.5263 44.5215 82.7745 44.2418 82.8751 43.9778C82.968 43.6982 82.9367 43.4033 82.7811 43.093C82.5789 42.6895 82.21 42.5152 81.6745 42.5701C81.1467 42.6016 80.3087 42.9052 79.1604 43.4807L74.6915 45.7206L75.8698 48.0714L80.3387 45.8315Z" fill="white"/>
<path d="M38.8139 64.549L50.38 73.4795L42.2672 59.785L47.8903 52.0276C50.194 53.8475 52.702 55.7405 55.4143 57.7065C58.1406 59.6828 60.7269 61.4825 63.1732 63.1057L59.2462 68.5232L48.0117 59.8008L55.8235 73.2451L50.3532 80.7917C47.7084 78.703 45.1985 76.7979 42.8235 75.0764C40.4625 73.365 37.8781 71.5774 35.0703 69.7136L38.8139 64.549Z" fill="white"/>
<path d="M24.4436 104.362L38.7837 107.17L25.3991 98.5557L26.955 89.1018C29.8296 89.698 32.9197 90.2682 36.2251 90.8122C39.5476 91.359 42.666 91.8106 45.5801 92.1671L44.4935 98.7694L30.543 95.9985L43.5464 104.524L42.0328 113.721C38.7328 113.037 35.6356 112.457 32.7413 111.981C29.864 111.507 26.7528 111.065 23.4077 110.656L24.4436 104.362Z" fill="white"/>
<path d="M28.7621 117.865C29.1204 120.568 29.5002 123.188 29.9016 125.725L43.3105 123.511L44.3709 129.933L30.962 132.147C31.4004 134.696 31.8816 137.29 32.4055 139.93L27.0111 140.821L23.3677 118.755L28.7621 117.865Z" fill="white"/>
<path d="M29.1055 147.58C29.3071 147.555 29.5398 147.534 29.8036 147.516C30.0519 147.507 30.3312 147.481 30.6413 147.44C33.1779 147.218 35.4743 147.041 37.5303 146.909C39.563 146.769 41.8985 146.649 44.537 146.551C46.8341 146.471 48.965 146.982 50.9298 148.085C52.9021 149.164 54.5076 150.975 55.7463 153.519C54.5665 154.53 53.6877 155.309 53.1098 155.857C52.5086 156.398 51.9273 157.015 51.3661 157.711C51.102 156.696 50.7729 155.802 50.3787 155.029C49.9924 154.271 49.545 153.642 49.0365 153.141C46.7434 155.713 43.2335 160.006 38.5066 166.02L35.5621 160.245L42.3568 152.134L40.4716 152.277C35.8323 152.616 32.9975 152.921 31.9672 153.193L29.1055 147.58Z" fill="white"/>
<path d="M48.8552 177.875C46.454 175.392 45.2257 173.236 45.1704 171.406C45.1026 169.588 45.8672 167.907 47.4642 166.363C48.5622 165.301 49.685 164.589 50.8326 164.228C51.9677 163.879 53.2242 163.979 54.6021 164.53C55.9674 165.093 57.4767 166.229 59.1297 167.939L62.8944 171.831L66.1883 168.646L70.6407 173.25C68.1237 175.491 65.8109 177.631 63.7023 179.67C61.5938 181.709 59.3775 183.949 57.0535 186.39L52.6011 181.786L52.6198 181.768L48.8552 177.875ZM56.7847 172.742C55.7832 171.706 54.9976 170.969 54.4281 170.53C53.834 170.09 53.3343 169.873 52.9291 169.879C52.5119 169.872 52.0974 170.067 51.6857 170.466C51.274 170.864 51.0648 171.259 51.0583 171.652C51.0271 172.044 51.2275 172.539 51.6595 173.135C52.0793 173.719 52.8021 174.541 53.8277 175.602L56.3254 178.184L59.2824 175.325L56.7847 172.742Z" fill="white"/>
<path d="M72.4114 184.757C71.8929 183.543 71.6339 182.357 71.6344 181.2C71.6115 180.051 71.713 178.702 71.939 177.154C72.1125 175.892 72.1972 174.985 72.193 174.434L78.9674 177.997C78.9222 178.307 78.8067 178.825 78.621 179.551C78.4029 180.338 78.2608 181.019 78.1946 181.592C78.1131 182.157 78.1408 182.701 78.2775 183.224C78.5089 184.052 78.9759 184.748 79.6786 185.314C80.3577 185.887 81.3732 186.529 82.7251 187.24L85.7188 181.549L91.4563 184.567C89.7658 187.482 88.2378 190.238 86.8723 192.834C85.5067 195.43 84.1016 198.25 82.657 201.295L76.9195 198.277L80.0828 192.263C79.9373 192.167 79.7109 192.038 79.4037 191.877C75.763 192.982 72.9225 194.057 70.8824 195.102L63.4167 191.175L74.3401 187.801C73.5364 186.868 72.8934 185.854 72.4114 184.757Z" fill="white"/>
<defs>
<radialGradient id="paint0_radial_68_16528" cx="0" cy="0" r="1" gradientUnits="userSpaceOnUse" gradientTransform="translate(114.352 114.352) rotate(90) scale(11.231)">
<stop stop-color="#8200CC"/>
<stop offset="1" stop-color="#410066"/>
</radialGradient>
</defs>
</svg>
