<svg width="1140" height="382" viewBox="0 0 1140 382" fill="none" xmlns="http://www.w3.org/2000/svg">
<g clip-path="url(#clip0_68_16241)">
<rect width="1140" height="382" fill="#E21119"/>
<circle opacity="0.2" cx="1143.5" cy="379.5" r="183" stroke="#FF49B8" stroke-width="19"/>
<circle opacity="0.2" cx="1143.5" cy="379.5" r="138.466" stroke="#FF49B8" stroke-width="19"/>
<circle opacity="0.2" cx="1144.22" cy="380.217" r="93.2146" stroke="#FF49B8" stroke-width="19"/>
<circle opacity="0.2" cx="1143.5" cy="379.5" r="47.7301" stroke="#FF49B8" stroke-width="19"/>
<circle opacity="0.2" cx="132.5" cy="-4.5" r="286" stroke="#FF49B8" stroke-width="5"/>
<circle opacity="0.2" cx="132.498" cy="-4.5006" r="219.257" stroke="#FF49B8" stroke-width="5"/>
<circle opacity="0.2" cx="133.574" cy="-3.42461" r="151.438" stroke="#FF49B8" stroke-width="5"/>
<circle opacity="0.2" cx="132.499" cy="-4.50065" r="83.2708" stroke="#FF49B8" stroke-width="5"/>
<g clip-path="url(#clip1_68_16241)">
<path d="M47.0002 178C47.0002 207.823 22.8236 232 -6.99976 232C-36.8231 232 -60.9998 207.823 -60.9998 178C-60.9998 148.177 -36.8231 124 -6.99976 124C22.8236 124 47.0002 148.177 47.0002 178Z" fill="#8200CC"/>
<g clip-path="url(#clip2_68_16241)">
<path d="M-25.5467 235.035C-37.0773 216.017 -31.9408 184.163 -7.96782 178.36C-49.0233 198.945 1.72127 247.516 -25.5467 235.035Z" fill="#D300B4"/>
<path d="M-0.729259 237.611C-18.5078 224.717 -27.672 193.322 -7.44991 178.36C-37.1853 214.769 29.2003 237.259 -0.729259 237.611Z" fill="#F36E28"/>
<path d="M23.0528 229.882C1.1204 225.417 -18.9727 200.664 -7.44963 178.36C-17.4778 225.259 48.8485 216.802 23.0528 229.882Z" fill="#FF187D"/>
<path d="M41.1487 212.88C18.8392 218.246 -8.83676 203.238 -7.44962 178.36C1.03272 224.802 61.3219 190.604 41.1487 212.88Z" fill="#E11F26"/>
<path d="M-7.45152 177.33C-5.0948 152.506 -34.9083 137.429 -56.0498 143.326C-40.3295 117.658 2.56453 152.405 -7.45152 177.33Z" fill="#F36E28"/>
<path d="M-6.93384 178.36C6.12247 199.433 37.9206 194.849 52.5219 177.844C55.1638 208.076 -1.10385 203.706 -6.93384 178.36Z" fill="#F46F00"/>
<path d="M-6.93388 177.33C4.172 155.175 -15.253 130.316 -37.438 126.324C-12.4778 109.571 11.5603 159.414 -6.93388 177.33Z" fill="#D300B4"/>
<path d="M-6.93384 178.36C13.748 191.773 41.1834 175.139 47.3516 153.629C62.0552 180.466 9.50304 198.636 -6.93384 178.36Z" fill="#FF49B8"/>
<path d="M-6.93384 178.36C16.9544 181.559 35.2758 156.905 32.8744 133.534C56.2436 153.069 16.7076 189.001 -6.93384 178.36Z" fill="#F36E28"/>
<path d="M-6.93368 177.845C12.9005 162.199 4.37554 131.791 -13.656 118.594C16.4376 114.558 17.2506 167.302 -6.93368 177.844V177.845Z" fill="#FF49B8"/>
<path d="M-6.93384 177.845C17.438 171.587 22.3848 140.886 11.1603 121.17C40.7082 128.063 19.2802 180.569 -6.93384 177.845Z" fill="#F46F00"/>
</g>
</g>
</g>
<defs>
<clipPath id="clip0_68_16241">
<rect width="1140" height="382" fill="white"/>
</clipPath>
<clipPath id="clip1_68_16241">
<rect x="-61" y="124" width="108" height="108" rx="54" fill="white"/>
</clipPath>
<clipPath id="clip2_68_16241">
<rect width="119.223" height="119.236" fill="white" transform="translate(-66.6106 118.375)"/>
</clipPath>
</defs>
</svg>
