<svg width="194" height="194" viewBox="0 0 194 194" fill="none" xmlns="http://www.w3.org/2000/svg">
<g clip-path="url(#clip0_68_15585)">
<rect width="194" height="194" rx="97" fill="#7A2799"/>
<g opacity="0.1">
<path d="M209.351 15.2424C211.014 14.4313 212.699 13.567 214.081 12.3158C214.783 11.6802 215.386 10.9783 215.876 10.1659C216.373 9.34025 216.708 8.43337 217.063 7.54131C217.664 6.03144 218.512 4.10669 220.273 3.68919C220.636 3.60317 220.875 3.61552 221.175 3.66806C221.495 3.72404 221.577 3.75505 221.884 3.90267C222.205 4.05661 222.288 4.11533 222.567 4.32538C222.811 4.50922 223.043 4.70953 223.267 4.91684C224.22 5.7971 225.054 6.8099 226.167 7.50028C227.511 8.33431 229.124 8.33733 230.443 7.42812C232.059 6.31475 232.671 4.38863 232.946 2.53645C233.265 0.391773 233.479 -1.77225 233.741 -3.92448C234.01 -6.13913 234.279 -8.35365 234.548 -10.5683C234.797 -12.6233 235.036 -14.6853 235.038 -16.7583C235.04 -17.7914 235.005 -18.8489 234.801 -19.8643C234.597 -20.8778 234.24 -21.821 233.736 -22.723C233.238 -23.6139 232.592 -24.3863 231.944 -25.1693C231.303 -25.9442 230.726 -26.7876 230.046 -27.528C227.838 -29.9335 224.026 -30.8976 221.011 -29.497C220.6 -29.3059 220.22 -29.0627 219.824 -28.8439C219.517 -28.6746 219.139 -28.4839 218.78 -28.5835C218.577 -28.6398 218.429 -28.7786 218.268 -29.0216C218.112 -29.2573 217.983 -29.6006 217.881 -29.9253C217.634 -30.7146 217.476 -31.5182 217.156 -32.2855C216.81 -33.1145 216.36 -33.9156 215.787 -34.6098C214.69 -35.9404 213.16 -36.9302 211.411 -37.0705C209.75 -37.2038 208.011 -36.6956 206.897 -35.402C206.367 -34.7869 206.054 -34.0234 205.699 -33.3031C205.543 -32.9869 205.395 -32.6941 205.184 -32.4223C204.994 -32.1788 204.797 -31.9956 204.542 -31.8971C203.84 -31.6255 203.072 -32.0631 202.517 -32.4706C201.751 -33.0322 201.091 -33.7182 200.46 -34.4232C199.228 -35.7985 198.029 -37.2182 196.364 -38.0857C194.825 -38.8875 193.044 -38.9985 191.489 -38.1834C190.082 -37.4462 189.046 -36.2068 187.999 -35.0451C186.997 -33.9333 185.925 -32.81 184.478 -32.3683C183.177 -31.9711 181.703 -32.1693 180.328 -32.4175C178.808 -32.6922 177.298 -33.0537 175.745 -33.0722C174.203 -33.0907 172.651 -32.6498 171.464 -31.6362C170.189 -30.5471 169.427 -29.049 168.947 -27.4663C168.446 -25.8154 168.31 -24.0929 168.279 -22.3761C168.242 -20.3022 168.377 -18.2278 168.633 -16.1702C169.149 -12.0225 170.113 -7.91503 171.264 -3.90075C172.434 0.178291 173.942 4.18969 176.161 7.82243C178.019 10.863 180.422 13.6079 183.331 15.6831C186.173 17.7099 189.481 19.0946 192.979 19.383C196.832 19.7009 200.656 18.8245 204.246 17.4746C205.985 16.8204 207.68 16.0545 209.351 15.2424C209.684 15.0805 209.895 14.7351 209.759 14.3621C209.641 14.0409 209.214 13.7914 208.878 13.9544C205.553 15.5706 202.081 17.0589 198.424 17.7225C194.955 18.3521 191.413 18.1596 188.134 16.8066C185.103 15.5559 182.42 13.513 180.25 11.0684C177.684 8.17832 175.82 4.74864 174.409 1.16749C172.905 -2.6484 171.834 -6.65253 170.972 -10.6586C170.125 -14.6001 169.559 -18.6259 169.65 -22.6657C169.715 -25.5094 170.196 -29.1593 172.739 -30.8847C173.88 -31.6581 175.256 -31.792 176.599 -31.66C178.075 -31.5152 179.512 -31.1307 180.978 -30.9207C182.455 -30.7089 184.014 -30.6702 185.419 -31.2475C186.905 -31.858 188.033 -33.0338 189.087 -34.2055C190.022 -35.2442 191.019 -36.4815 192.265 -37.0466C193.644 -37.6715 195.13 -37.3383 196.38 -36.4893C197.885 -35.4678 198.96 -33.9786 200.212 -32.6866C201.383 -31.4784 203.155 -29.9375 204.976 -30.595C206.533 -31.1573 206.874 -32.9077 207.667 -34.1462C208.434 -35.346 209.914 -35.8546 211.302 -35.7075C212.879 -35.5404 214.167 -34.5818 215.056 -33.3024C215.523 -32.6299 215.871 -31.8905 216.129 -31.1143C216.373 -30.3796 216.49 -29.604 216.798 -28.8906C217.11 -28.1679 217.598 -27.518 218.378 -27.2794C219.368 -26.9764 220.248 -27.5095 221.074 -27.9918C222.327 -28.7224 223.829 -28.9159 225.265 -28.6547C226.677 -28.3979 228.053 -27.7035 229.019 -26.6313C229.69 -25.8874 230.266 -25.0476 230.907 -24.2762C231.529 -23.5261 232.142 -22.7791 232.62 -21.9249C233.592 -20.1847 233.699 -18.1866 233.667 -16.236C233.634 -14.2329 233.37 -12.2406 233.129 -10.2547C232.868 -8.09969 232.606 -5.94486 232.344 -3.78989C232.092 -1.71079 231.895 0.384502 231.571 2.45372C231.325 4.02505 230.783 5.90453 229.166 6.57927C228.999 6.64897 228.825 6.7081 228.647 6.73787C228.551 6.75393 228.453 6.76284 228.356 6.76764C228.318 6.76943 228.084 6.76545 228.181 6.77176C228.048 6.76311 227.915 6.74295 227.785 6.71551C227.71 6.69973 227.635 6.68107 227.562 6.65953C227.486 6.63744 227.56 6.65857 227.573 6.66296C227.531 6.64883 227.49 6.6336 227.45 6.61782C226.888 6.39941 226.566 6.15382 226.094 5.74607C225.152 4.93248 224.368 3.94081 223.358 3.2057C222.171 2.34204 220.698 1.9524 219.3 2.5783C217.55 3.36197 216.586 5.0598 215.899 6.76188C215.553 7.61937 215.24 8.49428 214.793 9.30663C214.39 10.0415 213.835 10.7129 213.207 11.2676C211.924 12.3999 210.407 13.2088 208.878 13.9542C208.545 14.1165 208.334 14.4612 208.471 14.8345C208.588 15.1554 209.016 15.4058 209.351 15.2424Z" fill="white"/>
<path d="M213.404 32.4978C216.085 31.1908 218.794 29.7935 221.019 27.7766C222.105 26.7931 223.05 25.6955 223.807 24.439C224.618 23.0923 225.165 21.6118 225.744 20.1564C226.778 17.5569 228.235 14.4008 231.226 13.6462C233.294 13.1244 235.097 14.3917 236.537 15.7223C238.061 17.1299 239.397 18.7715 241.174 19.8787C243.235 21.1631 245.684 21.2029 247.718 19.8016C250.262 18.0492 251.196 15.0067 251.628 12.0959C252.147 8.59635 252.497 5.06528 252.924 1.55342C253.363 -2.06024 253.802 -5.67376 254.24 -9.28743C254.642 -12.6031 255.032 -15.9307 255.036 -19.2756C255.04 -22.6173 254.642 -25.8348 252.99 -28.7921C252.178 -30.2458 251.123 -31.5062 250.066 -32.7838C249.021 -34.0481 248.08 -35.4257 246.97 -36.6327C243.487 -40.4196 237.463 -41.8901 232.729 -39.6907C232.093 -39.3954 231.504 -39.0214 230.894 -38.6794C230.296 -38.3437 229.564 -37.9926 228.862 -38.1804C227.8 -38.4643 227.358 -39.7111 227.065 -40.6472C226.661 -41.9351 226.404 -43.2464 225.882 -44.4984C225.332 -45.8171 224.613 -47.084 223.703 -48.188C221.979 -50.2778 219.581 -51.8087 216.838 -52.0286C214.286 -52.2335 211.592 -51.4425 209.883 -49.457C209.043 -48.4814 208.55 -47.2685 207.987 -46.1261C207.509 -45.1554 206.928 -44.0216 205.856 -43.6071C204.555 -43.1042 203.159 -43.8576 202.125 -44.6157C200.846 -45.5541 199.747 -46.7059 198.692 -47.8839C196.735 -50.0686 194.826 -52.3406 192.18 -53.7188C189.786 -54.9664 187.034 -55.1562 184.608 -53.8918C180.132 -51.5598 178.098 -45.8964 173.117 -44.376C170.848 -43.6835 168.406 -44.0235 166.12 -44.4366C163.678 -44.8776 161.247 -45.4697 158.754 -45.4996C156.306 -45.529 153.869 -44.8456 151.984 -43.2357C149.998 -41.5391 148.799 -39.1734 148.051 -36.7078C147.246 -34.0502 147.017 -31.2784 146.968 -28.5142C146.907 -25.1302 147.127 -21.7453 147.545 -18.3879C148.382 -11.6577 149.945 -4.9945 151.814 1.51912C153.712 8.13618 156.149 14.6517 159.75 20.5453C162.764 25.4786 166.653 29.9226 171.373 33.2894C175.951 36.5554 181.282 38.7696 186.915 39.2343C193.123 39.7464 199.292 38.3141 205.074 36.1401C207.912 35.0728 210.678 33.8228 213.404 32.4978C214.191 32.1155 213.726 30.8235 212.932 31.2098C207.467 33.8658 201.769 36.2929 195.76 37.3834C190.026 38.424 184.169 38.0856 178.752 35.8501C173.735 33.7797 169.307 30.391 165.716 26.3458C161.505 21.603 158.447 15.9642 156.131 10.0876C153.663 3.82433 151.913 -2.74774 150.498 -9.32269C149.115 -15.7543 148.192 -22.3232 148.341 -28.915C148.401 -31.5707 148.667 -34.2648 149.509 -36.7987C150.272 -39.097 151.518 -41.328 153.562 -42.7145C157.665 -45.4979 162.899 -43.4831 167.333 -42.8472C169.67 -42.512 172.131 -42.4472 174.354 -43.3606C176.704 -44.3262 178.488 -46.2041 180.155 -48.0565C181.729 -49.8059 183.33 -51.8276 185.525 -52.8233C187.952 -53.9237 190.531 -53.2903 192.665 -51.8415C195.121 -50.1744 196.874 -47.7452 198.918 -45.6364C200.701 -43.7959 203.464 -41.2848 206.265 -42.2962C208.693 -43.173 209.209 -46.0247 210.471 -47.96C211.823 -50.0354 214.419 -50.912 216.813 -50.6583C219.492 -50.3746 221.706 -48.7317 223.215 -46.5592C223.998 -45.4317 224.588 -44.1872 225.02 -42.8859C225.418 -41.687 225.609 -40.4217 226.112 -39.2574C226.565 -38.207 227.273 -37.2345 228.412 -36.8892C229.881 -36.4435 231.209 -37.2817 232.431 -37.9942C234.59 -39.2541 237.152 -39.5948 239.597 -39.15C242.013 -38.7104 244.351 -37.5151 245.999 -35.6738C247.09 -34.4555 248.033 -33.0903 249.079 -31.8309C250.094 -30.6073 251.097 -29.3883 251.874 -27.9941C253.501 -25.0762 253.717 -21.7697 253.662 -18.4952C253.608 -15.1889 253.178 -11.9015 252.779 -8.62312C252.352 -5.10686 251.926 -1.59061 251.499 1.92564C251.087 5.31814 250.766 8.73698 250.237 12.1136C249.809 14.8453 248.83 18.0102 246.035 19.1757C244.007 20.0212 242.133 19.0706 240.597 17.7435C239.061 16.416 237.781 14.7977 236.133 13.5985C234.314 12.2749 232.076 11.6895 229.937 12.6473C227.193 13.8757 225.705 16.5894 224.631 19.249C224.067 20.6481 223.555 22.0757 222.827 23.4014C222.129 24.6721 221.179 25.8099 220.097 26.7715C217.983 28.6491 215.456 29.9784 212.931 31.2096C212.146 31.5929 212.61 32.8851 213.404 32.4978Z" fill="white"/>
<path d="M217.46 49.7534C221.158 47.9504 224.891 46.0199 227.961 43.2377C229.43 41.9063 230.716 40.4129 231.741 38.7123C232.867 36.8443 233.625 34.7905 234.428 32.7717C235.893 29.0912 237.963 24.6833 242.182 23.6033C245.149 22.844 247.737 24.6122 249.81 26.5276C251.904 28.4628 253.743 30.7326 256.184 32.2572C258.962 33.9923 262.248 34.0683 264.996 32.1751C268.467 29.7836 269.723 25.6246 270.312 21.6555C271.032 16.8012 271.519 11.9029 272.11 7.03138C272.719 2.01871 273.328 -2.99383 273.936 -8.0065C274.491 -12.583 275.031 -17.176 275.037 -21.7929C275.042 -26.3758 274.514 -30.8032 272.248 -34.861C271.121 -36.8775 269.658 -38.626 268.192 -40.3982C266.742 -42.152 265.436 -44.063 263.896 -45.7371C259.141 -50.9067 250.902 -52.8817 244.45 -49.8842C242.811 -49.1229 240.88 -47.2866 238.947 -47.7771C237.365 -48.1784 236.689 -49.975 236.252 -51.3689C235.692 -53.1554 235.336 -54.9745 234.611 -56.711C233.857 -58.5197 232.87 -60.2522 231.622 -61.7662C229.271 -64.6153 226.005 -66.6871 222.269 -66.9869C218.826 -67.2631 215.178 -66.1896 212.872 -63.5119C211.722 -62.1758 211.049 -60.5136 210.279 -58.9489C209.582 -57.5341 208.733 -55.9199 207.173 -55.3171C205.274 -54.5829 203.249 -55.652 201.738 -56.7606C199.945 -58.0757 198.407 -59.6934 196.928 -61.3445C194.246 -64.3388 191.626 -67.463 188 -69.3519C184.748 -71.0459 181.029 -71.3133 177.73 -69.6001C171.499 -66.3644 168.703 -58.5034 161.759 -56.3837C158.564 -55.4086 155.135 -55.8738 151.914 -56.4557C148.552 -57.0631 145.2 -57.8858 141.766 -57.927C138.412 -57.9672 135.091 -57.0414 132.508 -54.8353C129.81 -52.531 128.175 -49.2975 127.159 -45.9493C126.048 -42.2849 125.727 -38.4638 125.659 -34.6524C125.575 -29.9583 125.88 -25.2629 126.46 -20.6057C127.619 -11.293 129.781 -2.0742 132.366 6.93876C134.992 16.0939 138.359 25.1135 143.341 33.2679C147.511 40.0939 152.886 46.2368 159.417 50.8955C165.732 55.4007 173.085 58.4446 180.854 59.0854C189.417 59.7917 197.932 57.8036 205.906 54.8055C209.843 53.3255 213.679 51.5916 217.46 49.7534C218.247 49.3711 217.783 48.0791 216.988 48.4654C209.384 52.1612 201.459 55.5274 193.099 57.0446C185.1 58.4963 176.928 58.0119 169.372 54.8939C162.369 52.0041 156.197 47.2691 151.185 41.6236C145.329 35.028 141.077 27.18 137.856 19.0078C134.423 10.2972 131.994 1.15723 130.028 -7.98661C128.109 -16.9081 126.828 -26.0202 127.035 -35.1641C127.187 -41.8936 128.325 -50.4319 134.387 -54.5441C140.158 -58.4585 147.453 -55.6683 153.691 -54.7735C156.888 -54.315 160.252 -54.224 163.292 -55.4736C166.506 -56.7942 168.946 -59.3743 171.225 -61.9073C173.444 -64.3731 175.695 -67.1969 178.789 -68.5999C182.243 -70.1663 185.919 -69.253 188.953 -67.1934C192.36 -64.8806 194.791 -61.5115 197.626 -58.586C200.021 -56.1146 203.778 -52.6325 207.558 -53.9971C210.85 -55.1858 211.562 -59.1519 213.278 -61.7735C215.215 -64.7298 218.914 -65.9705 222.328 -65.6087C226.109 -65.2083 229.248 -62.8815 231.377 -59.8158C232.476 -58.2335 233.308 -56.4838 233.915 -54.6573C234.466 -52.9942 234.732 -51.239 235.429 -49.6239C236.023 -48.2475 236.952 -46.948 238.449 -46.4985C240.399 -45.9131 242.172 -47.0524 243.79 -47.9963C246.849 -49.7809 250.467 -50.2753 253.933 -49.6449C257.352 -49.0227 260.656 -47.3257 262.983 -44.7158C264.492 -43.0224 265.804 -41.1326 267.254 -39.3852C268.663 -37.688 270.053 -35.9973 271.132 -34.063C273.414 -29.9688 273.737 -25.3512 273.661 -20.754C273.585 -16.1443 272.988 -11.5617 272.433 -6.9911C271.841 -2.11357 271.249 2.76396 270.656 7.64149C270.085 12.3474 269.64 17.0899 268.907 21.7736C268.297 25.6651 266.878 30.1162 262.907 31.7723C260.008 32.9814 257.304 31.6418 255.104 29.7412C251.054 26.2419 246.784 19.9372 240.577 22.7164C236.841 24.3893 234.826 28.1194 233.367 31.7362C232.584 33.6772 231.875 35.6574 230.864 37.4962C229.872 39.3022 228.528 40.9086 226.99 42.2757C224.043 44.8964 220.511 46.7475 216.988 48.4652C216.202 48.8485 216.666 50.1407 217.46 49.7534Z" fill="white"/>
<path d="M221.514 67.0088C226.229 64.7098 230.985 62.2461 234.899 58.6986C236.752 57.0194 238.379 55.1303 239.672 52.9857C241.112 50.5962 242.082 47.9693 243.109 45.3869C245.003 40.6271 247.687 34.9636 253.135 33.5603C257 32.5647 260.373 34.8323 263.079 37.333C265.745 39.7958 268.087 42.6928 271.192 44.6355C274.686 46.8222 278.81 46.9332 282.271 44.5484C286.669 41.5179 288.248 36.2421 288.994 31.2146C289.915 25.0056 290.537 18.7402 291.294 12.509C292.072 6.09737 292.851 -0.314186 293.629 -6.72587C294.337 -12.5632 295.028 -18.4216 295.035 -24.3103C295.041 -30.1345 294.384 -35.7718 291.502 -40.9302C290.061 -43.5095 288.189 -45.746 286.314 -48.0129C284.459 -50.256 282.79 -52.7015 280.82 -54.8418C274.789 -61.3922 264.34 -63.8746 256.167 -60.078C254.018 -59.0792 251.566 -56.7427 249.029 -57.3739C246.928 -57.8967 246.017 -60.237 245.436 -62.0908C244.72 -64.3758 244.264 -66.7026 243.337 -68.9238C242.378 -71.2223 241.124 -73.4206 239.537 -75.3444C236.561 -78.9529 232.426 -81.5655 227.696 -81.945C223.363 -82.2927 218.76 -80.9366 215.858 -77.5667C214.398 -75.87 213.546 -73.7585 212.567 -71.7716C211.651 -69.9129 210.534 -67.8181 208.487 -67.0269C205.991 -66.0619 203.336 -67.4463 201.347 -68.9053C199.04 -70.5974 197.063 -72.681 195.161 -74.8048C191.754 -78.6088 188.422 -82.5849 183.816 -84.9848C179.709 -87.1242 175.018 -87.4715 170.849 -85.3082C162.865 -81.1657 159.303 -71.1095 150.397 -68.3909C146.277 -67.1332 141.862 -67.7236 137.706 -68.4742C133.423 -69.248 129.149 -70.3014 124.774 -70.3538C120.514 -70.4049 116.309 -69.2368 113.028 -66.4342C109.619 -63.5223 107.547 -59.4211 106.264 -55.1903C104.847 -50.5191 104.435 -45.6486 104.348 -40.79C104.24 -34.7858 104.631 -28.7798 105.372 -22.8228C106.852 -10.9276 109.613 0.846786 112.915 12.3591C116.269 24.0522 120.566 35.5762 126.929 45.9913C132.256 54.7101 139.116 62.5521 147.458 68.5025C155.51 74.2467 164.885 78.1204 174.79 78.9374C185.708 79.8379 196.568 77.2939 206.734 73.4717C211.77 71.5778 216.677 69.3598 221.514 67.0088C222.3 66.6266 221.836 65.3346 221.041 65.7208C211.298 70.4565 201.147 74.7615 190.435 76.7056C180.171 78.5682 169.683 77.9379 159.989 73.9374C151.001 70.228 143.084 64.1471 136.651 56.901C129.151 48.4528 123.704 38.3956 119.579 27.9279C115.181 16.77 112.073 5.06192 109.554 -6.65082C107.099 -18.0623 105.462 -29.7175 105.726 -41.4135C105.922 -50.0904 107.394 -61.0731 115.209 -66.374C122.648 -71.4194 132.003 -67.8537 140.046 -66.7001C144.103 -66.1182 148.369 -66.0012 152.227 -67.5868C156.305 -69.2624 159.4 -72.5447 162.293 -75.7582C165.157 -78.9405 168.057 -82.5663 172.049 -84.3764C176.53 -86.4089 181.304 -85.2158 185.238 -82.5453C189.596 -79.5868 192.705 -75.2776 196.332 -71.5355C199.337 -68.4339 204.09 -63.9804 208.847 -65.698C213.002 -67.1984 213.911 -72.2797 216.083 -75.5868C218.603 -79.424 223.405 -81.0288 227.84 -80.5592C232.722 -80.0419 236.786 -77.0313 239.536 -73.0724C240.951 -71.0352 242.025 -68.7803 242.806 -66.4287C243.511 -64.3015 243.85 -62.0565 244.742 -59.9906C245.478 -58.2868 246.627 -56.6635 248.483 -56.1081C250.911 -55.3811 253.134 -56.8243 255.146 -57.9986C259.105 -60.3076 263.778 -60.956 268.265 -60.1398C272.691 -59.3345 276.952 -57.1348 279.962 -53.7579C281.894 -51.5917 283.571 -49.1747 285.426 -46.9396C287.228 -44.7687 289.007 -42.6061 290.386 -40.1321C293.324 -34.8619 293.755 -28.9326 293.657 -23.0129C293.559 -17.0998 292.795 -11.2223 292.083 -5.35923C291.326 0.879585 290.568 7.11853 289.81 13.3573C289.08 19.3766 288.51 25.4428 287.572 31.4336C286.781 36.4847 284.923 42.2224 279.776 44.3689C276.005 45.9416 272.471 44.2132 269.607 41.7388C264.488 37.3156 259.064 29.2701 251.213 32.7854C246.484 34.9028 243.944 39.6496 242.099 44.2234C241.097 46.7059 240.19 49.2389 238.897 51.591C237.611 53.9322 235.873 56.0074 233.88 57.7798C230.098 61.1434 225.561 63.5166 221.041 65.7208C220.255 66.104 220.72 67.396 221.514 67.0088Z" fill="white"/>
<path d="M225.57 84.2644C231.302 81.4694 237.081 78.4723 241.84 74.1596C244.076 72.1329 246.046 69.8477 247.606 67.259C249.36 64.3482 250.542 61.148 251.793 58.0022C254.116 52.1636 257.415 45.243 264.091 43.5175C268.855 42.2861 273.012 45.0523 276.352 48.1383C279.589 51.1297 282.434 54.6496 286.202 57.0138C290.409 59.6546 295.377 59.7962 299.548 56.9218C304.874 53.2524 306.774 46.8599 307.678 40.774C308.8 33.2101 309.558 25.5776 310.48 17.9868C311.428 10.1762 312.377 2.36561 313.325 -5.44508C314.186 -12.5433 315.027 -19.667 315.035 -26.8277C315.043 -33.893 314.256 -40.7404 310.759 -46.9992C309.004 -50.1414 306.724 -52.8657 304.44 -55.6274C302.18 -58.3598 300.147 -61.34 297.746 -63.9464C290.44 -71.8772 277.781 -74.8676 267.888 -70.2716C265.229 -69.0363 262.253 -66.1972 259.114 -66.9708C256.494 -67.6164 255.348 -70.4984 254.623 -72.8127C253.751 -75.5963 253.195 -78.4308 252.066 -81.1367C250.903 -83.925 249.381 -86.589 247.456 -88.9229C243.853 -93.2906 238.85 -96.4442 233.127 -96.9034C227.903 -97.3226 222.345 -95.6837 218.848 -91.6218C217.077 -89.5644 216.046 -87.0037 214.859 -84.5947C213.724 -82.2919 212.338 -79.7166 209.804 -78.7371C206.71 -77.5412 203.426 -79.2412 200.959 -81.0505C198.138 -83.1193 195.723 -85.6688 193.397 -88.2657C189.265 -92.8791 185.222 -97.7075 179.635 -100.618C174.673 -103.203 169.011 -103.63 163.971 -101.017C154.234 -95.968 149.907 -83.7165 139.039 -80.399C133.993 -78.8587 128.591 -79.5742 123.501 -80.4937C118.296 -81.4338 113.102 -82.7178 107.786 -82.7816C102.62 -82.8435 97.5307 -81.4331 93.5519 -78.0341C89.432 -74.5146 86.9224 -69.5456 85.3719 -64.4322C83.6502 -58.7542 83.145 -52.8344 83.0392 -46.9285C82.9084 -39.6141 83.3839 -32.2976 84.2868 -25.041C86.0881 -10.5633 89.4479 3.76654 93.4673 17.7785C97.5495 32.0096 102.776 46.0377 110.52 58.7136C117.004 69.3251 125.349 78.8661 135.502 86.1083C145.292 93.0917 156.688 97.795 168.729 98.7882C182.002 99.883 195.208 96.783 207.565 92.1367C213.7 89.8304 219.677 87.1285 225.57 84.2644C226.356 83.8822 225.892 82.59 225.097 82.9764C213.215 88.7519 200.837 93.9958 187.773 96.3668C175.245 98.6404 162.441 97.8642 150.609 92.9813C139.634 88.4522 129.973 81.0254 122.119 72.1787C112.974 61.8778 106.333 49.6114 101.303 36.8482C95.9412 23.2429 92.1536 8.9669 89.082 -5.31474C86.0922 -19.2162 84.097 -33.4146 84.419 -47.6626C84.6591 -58.2867 86.4665 -71.7139 96.034 -78.2036C105.139 -84.38 116.556 -80.0387 126.403 -78.6264C131.32 -77.9212 136.488 -77.7781 141.165 -79.6997C146.106 -81.7304 149.858 -85.7149 153.362 -89.6089C156.871 -93.5076 160.422 -97.9354 165.311 -100.153C170.82 -102.651 176.691 -101.178 181.525 -97.897C186.834 -94.2931 190.622 -89.0436 195.039 -84.4851C198.656 -80.7534 204.405 -75.3286 210.139 -77.3988C215.157 -79.2108 216.263 -85.4074 218.89 -89.4002C221.993 -94.1184 227.899 -96.0872 233.354 -95.5095C239.338 -94.8756 244.327 -91.1809 247.698 -86.3287C249.429 -83.8365 250.745 -81.0767 251.699 -78.1999C252.559 -75.6085 252.972 -72.8736 254.059 -70.3569C254.935 -68.3259 256.306 -66.3789 258.52 -65.7173C261.427 -64.8487 264.098 -66.5959 266.506 -68.0004C271.363 -70.8341 277.093 -71.6365 282.6 -70.6345C288.032 -69.6461 293.252 -66.9437 296.945 -62.7998C299.298 -60.1607 301.341 -57.2165 303.601 -54.4937C305.796 -51.8491 307.963 -49.2144 309.643 -46.2008C313.237 -39.7548 313.775 -32.5135 313.655 -25.2715C313.535 -18.0551 312.605 -10.8822 311.736 -3.72695C310.813 3.87328 309.891 11.4734 308.968 19.0736C308.077 26.4063 307.384 33.7961 306.241 41.0942C305.269 47.3047 302.971 54.3291 296.648 56.9661C292.005 58.9022 287.641 56.785 284.114 53.7371C277.925 48.3901 271.348 38.6039 261.853 42.8553C256.132 45.417 253.066 51.1806 250.835 56.7113C249.614 59.7355 248.508 62.8213 246.934 65.6865C245.354 68.5627 243.222 71.1071 240.773 73.2845C236.156 77.391 230.615 80.2863 225.097 82.9769C224.311 83.3596 224.775 84.6516 225.57 84.2644Z" fill="white"/>
<path d="M229.623 101.52C236.373 98.2287 243.176 94.6983 248.779 89.6203C251.399 87.2458 253.71 84.565 255.537 81.5319C257.606 78.0998 258.999 74.3266 260.475 70.6171C263.227 63.7002 267.141 55.5218 275.044 53.4742C280.707 52.0073 285.648 55.2719 289.622 58.9434C293.431 62.4626 296.779 66.6081 301.21 69.392C306.133 72.4852 311.94 72.6601 316.824 69.295C323.077 64.9866 325.3 57.4774 326.36 50.3332C327.683 41.4145 328.577 32.415 329.664 23.4646C330.782 14.2549 331.901 5.04533 333.019 -4.16437C334.033 -12.5233 335.024 -20.9126 335.034 -29.3452C335.043 -37.6517 334.126 -45.7091 330.015 -53.0685C327.945 -56.7734 325.256 -59.9858 322.563 -63.242C319.898 -66.4637 317.502 -69.9789 314.67 -73.0511C306.088 -82.3624 291.22 -85.8609 279.606 -80.4655C276.439 -78.994 272.937 -75.6519 269.197 -76.5678C266.058 -77.3364 264.677 -80.7602 263.807 -83.5346C262.779 -86.8168 262.124 -90.1591 260.793 -93.3496C259.425 -96.6277 257.635 -99.7574 255.372 -102.501C251.143 -107.628 245.271 -111.323 238.555 -111.862C232.44 -112.352 225.927 -110.431 221.834 -105.677C219.753 -103.259 218.542 -100.249 217.147 -97.4174C215.794 -94.6708 214.139 -91.6146 211.118 -90.4469C207.427 -89.0199 203.513 -91.0355 200.568 -93.1951C197.234 -95.6408 194.379 -98.6562 191.63 -101.726C186.773 -107.149 182.02 -112.829 175.452 -116.251C169.634 -119.282 163.001 -119.789 157.09 -116.725C145.601 -110.77 140.508 -96.3227 127.679 -92.4064C121.707 -90.5834 115.318 -91.424 109.293 -92.5123C103.167 -93.6188 97.0514 -95.1335 90.7947 -95.2084C84.7226 -95.2811 78.7493 -93.6283 74.0724 -89.633C69.2411 -85.5059 66.2949 -79.669 64.4768 -73.6731C62.4498 -66.9883 61.8525 -60.0192 61.7279 -53.066C61.5735 -44.4418 62.1343 -35.8147 63.1989 -27.2581C65.3215 -10.1979 69.2804 6.68747 74.0166 23.1987C78.8269 39.9679 84.9831 56.5003 94.1089 71.4369C101.749 83.9413 111.58 95.1811 123.543 103.715C135.07 111.938 148.488 117.471 162.665 118.64C178.294 119.929 193.844 116.273 208.393 110.803C215.627 108.083 222.675 104.897 229.623 101.52C230.41 101.137 229.945 99.8454 229.151 100.232C215.129 107.047 200.525 113.23 185.109 116.028C170.316 118.712 155.197 117.79 141.227 112.025C128.266 106.676 116.861 97.9031 107.586 87.456C96.7957 75.3022 88.9606 60.8268 83.0257 45.7681C76.6992 29.7155 72.2325 12.8715 68.6084 -3.97914C65.0831 -20.3705 62.7305 -37.1122 63.1103 -53.9121C63.3944 -66.4836 65.5365 -82.3551 76.8566 -90.0337C87.6293 -97.341 101.107 -92.2244 112.759 -90.5532C118.535 -89.7248 124.606 -89.5555 130.1 -91.8133C135.906 -94.199 140.313 -98.8857 144.43 -103.46C148.584 -108.075 152.784 -113.305 158.572 -115.93C165.108 -118.894 172.076 -117.142 177.81 -113.25C184.071 -109 188.536 -102.811 193.745 -97.4352C197.972 -93.0737 204.718 -86.6773 211.428 -89.1003C217.313 -91.225 218.608 -98.5369 221.694 -103.214C225.387 -108.811 232.387 -111.147 238.865 -110.461C245.952 -109.71 251.866 -105.331 255.857 -99.586C257.904 -96.6388 259.462 -93.3739 260.591 -89.9719C261.605 -86.9164 262.092 -83.6915 263.373 -80.7242C264.391 -78.3659 265.981 -76.095 268.554 -75.3275C271.94 -74.3175 275.06 -76.3686 277.862 -78.0034C283.619 -81.3618 290.405 -82.3179 296.932 -81.1303C303.371 -79.9588 309.549 -76.7537 313.925 -71.8428C316.699 -68.7309 319.109 -65.2595 321.774 -62.0489C324.362 -58.9306 326.917 -55.8241 328.898 -52.2706C333.147 -44.6488 333.793 -36.0954 333.651 -27.5313C333.51 -19.0115 332.413 -10.5437 331.387 -2.0961C330.299 6.86541 329.211 15.8269 328.123 24.7884C327.073 33.4345 326.255 42.148 324.908 50.7532C323.754 58.123 321.016 66.4344 313.517 69.5617C308.003 71.8614 302.809 69.3552 298.618 65.7337C291.36 59.4629 283.629 47.9359 272.49 52.9232C265.776 55.9294 262.185 62.7099 259.567 69.1974C258.128 72.7635 256.825 76.4017 254.968 79.7802C253.094 83.1916 250.568 86.2049 247.664 88.7874C242.212 93.6367 235.667 97.054 229.151 100.231C228.365 100.615 228.829 101.907 229.623 101.52Z" fill="white"/>
<path d="M233.678 118.775C241.444 114.988 249.271 110.925 255.718 105.081C258.722 102.359 261.375 99.2825 263.47 95.8054C265.852 91.8518 267.458 87.5055 269.158 83.2326C272.338 75.2372 276.868 65.8007 285.999 63.4316C292.56 61.7292 298.286 65.4922 302.893 69.749C307.273 73.7964 311.125 78.5669 316.218 81.7706C321.856 85.3165 328.504 85.5245 334.1 81.6687C341.28 76.7214 343.825 68.0955 345.043 59.8928C346.567 49.6193 347.596 39.2527 348.848 28.9427C350.136 18.334 351.426 7.72556 352.713 -2.88329C353.88 -12.5031 355.021 -22.1577 355.032 -31.8621C355.043 -41.4098 353.996 -50.6774 349.27 -59.1371C346.886 -63.4048 343.789 -67.1052 340.686 -70.8561C337.618 -74.5667 334.859 -78.6189 331.595 -82.1553C321.73 -92.8429 304.665 -96.8559 291.325 -90.6585C287.65 -88.951 283.621 -85.1059 279.28 -86.1641C275.623 -87.0556 274.006 -91.0212 272.993 -94.2559C271.808 -98.0367 271.054 -101.887 269.52 -105.562C267.948 -109.33 265.89 -112.925 263.289 -116.079C258.433 -121.965 251.693 -126.201 243.983 -126.819C236.978 -127.381 229.511 -125.177 224.822 -119.731C222.43 -116.953 221.04 -113.493 219.437 -110.24C217.865 -107.049 215.941 -103.512 212.434 -102.156C208.145 -100.498 203.601 -102.829 200.178 -105.339C196.33 -108.162 193.037 -111.643 189.864 -115.186C184.282 -121.419 178.818 -127.951 171.27 -131.883C164.597 -135.36 156.993 -135.946 150.211 -132.432C136.968 -125.571 131.11 -108.928 116.319 -104.413C109.421 -102.308 102.045 -103.273 95.0857 -104.531C88.0392 -105.803 81.0021 -107.549 73.8048 -107.635C66.8265 -107.718 59.9692 -105.823 54.5943 -101.232C49.0518 -96.4969 45.6687 -89.7923 43.5829 -82.9137C41.2507 -75.2224 40.561 -67.2037 40.4178 -59.2033C40.24 -49.2689 40.8859 -39.3313 42.1123 -29.4749C44.5562 -9.83223 49.1139 9.60875 54.5672 28.6193C60.1054 47.9265 67.1914 66.9631 77.6985 84.1604C86.4947 98.5576 97.8112 111.496 111.586 121.322C124.85 130.784 140.29 137.147 156.603 138.492C174.586 139.976 192.482 135.764 209.223 129.469C217.556 126.335 225.674 122.665 233.678 118.775C234.465 118.393 234 117.101 233.205 117.487C217.044 125.342 200.214 132.464 182.446 135.689C165.388 138.785 147.954 137.716 131.846 131.068C116.899 124.9 103.749 114.781 93.0534 102.734C80.6185 88.7272 71.5891 72.0427 64.7494 54.6883C57.4585 36.1886 52.3126 16.7765 48.136 -2.64305C44.0752 -21.5244 41.3653 -40.8092 41.8026 -60.1612C42.1308 -74.6799 44.6077 -92.9959 57.6803 -101.863C70.1202 -110.301 85.6586 -104.41 99.1154 -102.48C105.752 -101.528 112.725 -101.332 119.037 -103.926C125.706 -106.667 130.769 -112.056 135.499 -117.311C140.297 -122.642 145.148 -128.674 151.833 -131.706C159.397 -135.137 167.463 -133.104 174.097 -128.601C181.308 -123.706 186.452 -116.576 192.452 -110.384C197.289 -105.393 205.032 -98.0253 212.719 -100.801C219.466 -103.237 220.96 -111.665 224.5 -117.027C228.776 -123.506 236.88 -126.205 244.378 -125.411C252.567 -124.543 259.406 -119.481 264.018 -112.842C266.381 -109.44 268.18 -105.67 269.484 -101.743C270.652 -98.2234 271.213 -94.5087 272.688 -91.0906C273.847 -88.4051 275.658 -85.8102 278.59 -84.9367C282.454 -83.7851 286.023 -86.1403 289.22 -88.0053C295.876 -91.8881 303.718 -92.9982 311.266 -91.625C318.712 -90.2703 325.847 -86.5626 330.907 -80.8847C334.102 -77.2998 336.878 -73.3013 339.948 -69.603C342.929 -66.0109 345.872 -62.4326 348.154 -58.3393C353.059 -49.5419 353.812 -39.6763 353.648 -29.7899C353.485 -19.9669 352.222 -10.2038 351.039 -0.463928C349.786 9.85886 348.532 20.1817 347.279 30.5044C346.069 40.4639 345.128 50.5009 343.576 60.4135C342.24 68.9427 339.063 78.5408 330.388 82.1586C324.002 84.8219 317.978 81.9267 313.123 77.7316C304.796 70.5372 295.911 57.2693 283.129 62.9926C275.422 66.4431 271.305 74.2403 268.301 81.685C266.644 85.7927 265.142 89.9837 263.004 93.8754C260.835 97.8219 257.915 101.304 254.556 104.292C248.269 109.884 240.719 113.823 233.205 117.487C232.419 117.87 232.884 119.162 233.678 118.775Z" fill="white"/>
<path d="M236.653 131.438C245.166 127.287 253.743 122.832 260.81 116.427C264.095 113.45 266.998 110.083 269.29 106.28C271.903 101.944 273.664 97.1763 275.528 92.4899C279.013 83.7301 284.008 73.3037 294.037 70.7383C301.272 68.8873 307.544 72.9779 312.631 77.6781C317.431 82.1129 321.651 87.3423 327.231 90.854C333.394 94.7322 340.659 94.9643 346.777 90.7483C354.638 85.3322 357.419 75.8867 358.752 66.9075C360.424 55.6399 361.553 44.27 362.926 32.9622C364.339 21.327 365.753 9.69179 367.164 -1.94371C368.444 -12.4888 369.696 -23.0719 369.708 -33.7097C369.72 -44.1681 368.577 -54.3238 363.4 -63.5911C360.785 -68.2717 357.388 -72.3303 353.986 -76.4441C350.62 -80.5136 347.595 -84.9587 344.014 -88.8366C333.212 -100.536 314.527 -104.924 299.925 -98.1391C295.877 -96.2584 291.461 -92.0439 286.679 -93.2065C282.642 -94.1882 280.852 -98.5516 279.733 -102.124C278.434 -106.271 277.606 -110.493 275.925 -114.524C274.203 -118.651 271.948 -122.589 269.098 -126.043C263.783 -132.487 256.406 -137.119 247.967 -137.796C240.309 -138.411 232.14 -135.999 227.014 -130.045C224.394 -127.002 222.873 -123.213 221.117 -119.65C219.385 -116.134 217.264 -112.244 213.399 -110.75C208.672 -108.922 203.665 -111.485 199.892 -114.252C195.667 -117.351 192.052 -121.174 188.568 -125.064C182.454 -131.891 176.468 -139.049 168.2 -143.356C160.9 -147.159 152.583 -147.804 145.162 -143.96C130.633 -136.434 124.214 -118.18 107.983 -113.225C100.405 -110.912 92.3055 -111.97 84.6602 -113.351C76.9379 -114.746 69.2248 -116.66 61.3371 -116.755C53.6939 -116.847 46.188 -114.774 40.3008 -109.744C34.2364 -104.564 30.5327 -97.222 28.2505 -89.6959C25.6943 -81.2658 24.9369 -72.4771 24.78 -63.7081C24.5849 -52.8122 25.2934 -41.9131 26.6385 -31.1028C29.3182 -9.56506 34.3155 11.7513 40.2948 32.5961C46.367 53.7656 54.1354 74.6398 65.656 93.4961C75.3007 109.282 87.7074 123.468 102.811 134.242C117.35 144.612 134.273 151.584 152.154 153.059C171.865 154.685 191.482 150.065 209.831 143.166C218.97 139.729 227.875 135.704 236.653 131.438C237.439 131.056 236.975 129.764 236.18 130.15C218.449 138.768 199.985 146.579 180.491 150.117C161.772 153.514 142.639 152.339 124.961 145.043C108.556 138.274 94.1269 127.167 82.3884 113.945C68.7465 98.5789 58.8407 80.2733 51.3372 61.2343C43.3384 40.9386 37.6942 19.6421 33.112 -1.66258C28.6582 -22.3711 25.686 -43.5222 26.1658 -64.747C26.5264 -80.6946 29.2488 -100.804 43.6075 -110.544C57.271 -119.812 74.3218 -113.351 89.1027 -111.231C96.3698 -110.189 104.005 -109.974 110.917 -112.815C118.221 -115.816 123.765 -121.72 128.944 -127.475C134.216 -133.332 139.543 -139.953 146.887 -143.283C155.205 -147.056 164.076 -144.818 171.37 -139.867C179.28 -134.498 184.921 -126.678 191.502 -119.887C196.787 -114.434 205.262 -106.353 213.665 -109.387C221.045 -112.052 222.685 -121.298 226.558 -127.164C231.262 -134.289 240.177 -137.255 248.423 -136.382C257.42 -135.429 264.938 -129.864 270.005 -122.57C272.6 -118.834 274.577 -114.694 276.008 -110.381C277.289 -106.521 277.905 -102.447 279.523 -98.6978C280.786 -95.772 282.758 -92.9396 285.953 -91.9884C290.169 -90.733 294.067 -93.3112 297.554 -95.345C304.87 -99.6129 313.486 -100.836 321.783 -99.3264C329.967 -97.8374 337.806 -93.7608 343.368 -87.5201C346.871 -83.5881 349.916 -79.203 353.283 -75.1467C356.553 -71.207 359.78 -67.2824 362.283 -62.793C367.67 -53.1327 368.501 -42.3042 368.321 -31.4476C368.143 -20.6682 366.757 -9.9547 365.459 0.733582C364.084 12.0553 362.71 23.377 361.335 34.6989C360.008 45.6222 358.976 56.6306 357.273 67.5023C355.804 76.8823 352.304 87.4248 342.767 91.4024C335.742 94.3324 329.108 91.1518 323.766 86.5359C314.655 78.6638 304.923 64.1184 290.934 70.3817C282.5 74.1582 277.996 82.7018 274.709 90.8485C272.892 95.3537 271.244 99.9502 268.899 104.219C266.515 108.558 263.305 112.384 259.612 115.669C252.713 121.807 244.426 126.129 236.18 130.15C235.394 130.533 235.859 131.825 236.653 131.438Z" fill="white"/>
<path d="M239.628 144.101C248.888 139.586 258.216 134.739 265.903 127.773C269.47 124.54 272.623 120.883 275.111 116.754C277.955 112.035 279.871 106.847 281.9 101.747C285.698 92.1993 291.146 80.8425 302.075 78.0453C309.972 76.0242 316.816 80.4764 322.37 85.6076C327.589 90.43 332.178 96.1178 338.245 99.9378C344.932 104.148 352.814 104.404 359.455 99.8286C367.996 93.9436 371.014 83.6788 372.462 73.9227C374.281 61.6609 375.51 49.2879 377.004 36.9823C378.542 24.3204 380.081 11.6586 381.617 -1.00351C383.008 -12.4737 384.371 -23.9856 384.384 -35.5567C384.397 -46.9258 383.159 -57.9695 377.531 -68.0444C374.685 -73.138 370.988 -77.5547 367.286 -82.0315C363.623 -86.4601 360.331 -91.298 356.434 -95.5175C344.695 -108.23 324.391 -112.991 308.525 -105.619C304.104 -103.565 299.301 -98.9815 294.079 -100.249C289.662 -101.321 287.699 -106.082 286.474 -109.992C285.06 -114.504 284.159 -119.099 282.329 -123.486C280.457 -127.972 278.006 -132.252 274.908 -136.007C269.133 -143.008 261.119 -148.037 251.951 -148.773C243.639 -149.44 234.77 -146.821 229.207 -140.359C226.359 -137.051 224.706 -132.932 222.798 -129.059C220.905 -125.217 218.586 -120.975 214.364 -119.342C209.199 -117.345 203.73 -120.14 199.607 -123.164C195.004 -126.539 191.067 -130.704 187.272 -134.941C180.626 -142.362 174.118 -150.145 165.131 -154.827C157.203 -158.958 148.174 -159.661 140.114 -155.487C124.298 -147.295 117.317 -127.43 99.6465 -122.036C91.3899 -119.516 82.5658 -120.665 74.2348 -122.17C65.8366 -123.687 57.4473 -125.771 48.8694 -125.874C40.5613 -125.973 32.4066 -123.722 26.0071 -118.256C19.4207 -112.629 15.3966 -104.651 12.918 -96.4769C10.1377 -87.3081 9.31259 -77.7494 9.14191 -68.2119C8.92967 -56.3547 9.70072 -44.4938 11.1644 -32.7298C14.0798 -9.29686 19.5167 13.8948 26.0221 36.5737C32.6289 59.606 41.0796 82.3176 53.6139 102.833C64.1073 120.008 77.6039 135.44 94.0364 147.162C109.85 158.442 128.257 166.023 147.705 167.627C169.144 169.395 190.482 164.368 210.44 156.864C220.385 153.124 230.075 148.744 239.628 144.101C240.415 143.718 239.95 142.426 239.155 142.813C219.855 152.194 199.757 160.694 178.537 164.545C158.156 168.244 137.324 166.961 118.076 159.018C100.215 151.647 84.5051 139.553 71.7239 125.156C56.8749 108.43 46.0927 88.5036 37.9253 67.7802C29.2187 45.6886 23.076 22.5077 18.0886 -0.68219C13.2418 -23.2179 10.0074 -46.2353 10.5295 -69.3327C10.9223 -86.7093 13.8906 -108.613 29.5353 -119.225C44.4221 -129.323 62.9855 -122.293 79.0906 -119.983C86.9887 -118.85 95.2862 -118.617 102.799 -121.704C110.736 -124.965 116.762 -131.385 122.39 -137.639C128.135 -144.022 133.939 -151.231 141.942 -154.861C151.015 -158.975 160.69 -156.532 168.645 -151.132C177.253 -145.289 183.391 -136.78 190.553 -129.39C196.286 -123.474 205.492 -114.68 214.613 -117.974C222.624 -120.867 224.411 -130.932 228.617 -137.301C233.749 -145.072 243.474 -148.305 252.468 -147.353C262.274 -146.314 270.471 -140.248 275.993 -132.298C278.82 -128.228 280.975 -123.717 282.534 -119.019C283.928 -114.818 284.598 -110.384 286.358 -106.305C287.725 -103.139 289.859 -100.069 293.317 -99.0398C297.885 -97.6806 302.112 -100.482 305.888 -102.685C313.864 -107.338 323.255 -108.673 332.302 -107.028C341.224 -105.404 349.766 -100.959 355.829 -94.1552C359.642 -89.8762 362.956 -85.1042 366.619 -80.69C370.177 -76.4027 373.69 -72.1317 376.414 -67.2462C382.281 -56.7232 383.191 -44.9317 382.995 -33.1049C382.801 -21.3689 381.293 -9.70503 379.88 1.93143C378.384 14.2521 376.888 26.5729 375.392 38.8936C373.948 50.7807 372.825 62.7604 370.972 74.5913C369.37 84.822 365.547 96.3088 355.147 100.646C347.482 103.843 340.239 100.377 334.41 95.3403C324.515 86.7904 313.935 70.9675 298.741 77.7709C289.578 81.8735 284.689 91.1633 281.118 100.012C279.14 104.915 277.348 109.917 274.796 114.562C272.196 119.294 268.697 123.465 264.67 127.047C257.158 133.729 248.134 138.435 239.155 142.813C238.37 143.196 238.834 144.488 239.628 144.101Z" fill="white"/>
<path d="M242.604 156.763C252.61 151.884 262.689 146.646 270.996 139.118C274.844 135.631 278.248 131.683 280.933 127.228C284.007 122.126 286.078 116.518 288.271 111.005C292.384 100.668 298.284 88.381 310.114 85.3519C318.672 83.1608 326.089 87.9744 332.109 93.5367C337.747 98.7465 342.706 104.893 349.259 109.021C356.471 113.564 364.97 113.844 372.133 108.908C381.355 102.554 384.609 91.4699 386.172 80.9374C388.139 67.6813 389.467 54.305 391.083 41.0018C392.745 27.3132 394.408 13.6248 396.069 -0.0639801C397.573 -12.4594 399.046 -24.8999 399.06 -37.4044C399.074 -49.6843 397.74 -61.616 391.661 -72.4984C388.585 -78.005 384.588 -82.7798 380.586 -87.6196C376.626 -92.4071 373.068 -97.6379 368.854 -102.199C356.177 -115.923 334.255 -121.058 317.125 -113.1C312.316 -110.866 307.158 -105.941 301.479 -107.291C296.683 -108.432 294.54 -113.628 293.214 -117.86C291.686 -122.738 290.712 -127.706 288.734 -132.448C286.712 -137.294 284.064 -141.915 280.718 -145.971C274.484 -153.529 265.832 -158.955 255.935 -159.75C246.969 -160.469 237.4 -157.643 231.399 -150.673C228.324 -147.101 226.539 -142.652 224.478 -138.469C222.425 -134.302 219.909 -129.706 215.329 -127.936C209.726 -125.77 203.795 -128.795 199.321 -132.076C194.342 -135.729 190.082 -140.235 185.977 -144.819C178.798 -152.834 171.769 -161.243 162.063 -166.299C153.506 -170.757 143.765 -171.519 135.066 -167.014C117.964 -158.158 110.421 -136.682 91.3107 -130.848C82.3747 -128.12 72.8266 -129.362 63.8098 -130.99C54.7358 -132.629 45.6704 -134.882 36.4023 -134.993C27.4292 -135.101 18.6258 -132.672 11.714 -126.768C4.60562 -120.695 0.260966 -112.08 -2.41399 -103.259C-5.41835 -93.3512 -6.3111 -83.0224 -6.49563 -72.7165C-6.72516 -59.8979 -5.89155 -47.0754 -4.30924 -34.3574C-1.15794 -9.02934 4.7184 16.0377 11.7499 40.5506C18.8908 65.4452 28.0238 89.9945 41.5717 112.169C52.9138 130.733 67.5005 147.412 85.2619 160.082C102.35 172.271 122.241 180.461 143.256 182.194C166.424 184.105 189.483 178.669 211.049 170.56C221.801 166.518 232.277 161.783 242.604 156.763C243.39 156.381 242.926 155.089 242.131 155.475C221.261 165.619 199.529 174.808 176.584 178.972C154.54 182.973 132.009 181.583 111.193 172.993C91.8734 165.02 74.8839 151.938 61.0599 136.367C45.0039 118.282 33.3452 96.734 24.5139 74.3261C15.0995 50.4385 8.45856 25.3732 3.06557 0.298218C-2.17416 -24.0646 -5.67093 -48.9482 -5.1065 -73.9186C-4.68146 -92.7241 -1.46745 -116.421 15.4633 -127.906C31.5736 -138.834 51.6495 -131.235 69.0787 -128.735C77.6078 -127.512 86.5674 -127.259 94.68 -130.593C103.252 -134.115 109.759 -141.05 115.836 -147.803C122.054 -154.712 128.336 -162.51 136.998 -166.438C146.824 -170.894 157.305 -168.246 165.92 -162.398C175.226 -156.081 181.862 -146.883 189.604 -138.893C195.785 -132.515 205.723 -123.008 215.56 -126.56C224.205 -129.682 226.137 -140.566 230.676 -147.437C236.236 -155.856 246.771 -159.356 256.514 -158.324C267.128 -157.199 276.005 -150.631 281.982 -142.026C285.041 -137.623 287.373 -132.741 289.06 -127.658C290.567 -123.116 291.291 -118.323 293.194 -113.913C294.665 -110.506 296.961 -107.199 300.682 -106.092C305.6 -104.629 310.157 -107.653 314.223 -110.025C322.859 -115.063 333.025 -116.512 342.82 -114.73C352.481 -112.972 361.727 -108.158 368.291 -100.791C372.413 -96.165 375.995 -91.0062 379.956 -86.2342C383.802 -81.5992 387.6 -76.9819 390.544 -71.7004C396.893 -60.3146 397.882 -47.5601 397.67 -34.763C397.46 -22.0707 395.829 -9.45644 394.301 3.12834C392.684 16.4481 391.066 29.7677 389.449 43.0874C387.889 55.9384 386.674 68.8893 384.671 81.6796C382.936 92.7611 378.791 105.192 367.527 109.89C359.223 113.353 351.371 109.602 345.054 104.144C334.375 94.9165 322.948 77.8161 306.548 85.1595C296.657 89.5883 291.381 99.6243 287.528 109.175C285.389 114.476 283.451 119.883 280.692 124.905C277.876 130.029 274.088 134.544 269.727 138.424C261.602 145.651 251.842 150.74 242.131 155.475C241.345 155.858 241.81 157.15 242.604 156.763Z" fill="white"/>
<path d="M245.579 169.425C256.331 164.183 267.162 158.554 276.088 150.464C280.218 146.721 283.872 142.482 286.753 137.702C290.058 132.218 292.285 126.189 294.643 120.262C299.068 109.137 305.422 95.9193 318.152 92.6585C327.371 90.2974 335.36 95.4725 341.847 101.466C347.905 107.063 353.232 113.668 360.273 118.105C368.009 122.98 377.124 123.284 384.81 117.988C394.712 111.165 398.203 99.2615 399.882 87.9522C401.996 73.702 403.424 59.3226 405.16 45.0216C406.947 30.3064 408.736 15.5913 410.521 0.876007C412.137 -12.4447 413.72 -25.8137 413.735 -39.2516C413.75 -52.4422 412.321 -65.262 405.791 -76.952C402.484 -82.8717 398.188 -88.0044 393.885 -93.2072C389.629 -98.3538 385.804 -103.978 381.274 -108.88C367.659 -123.617 344.118 -129.126 325.724 -120.58C320.542 -118.172 314.999 -112.88 308.878 -114.334C303.702 -115.563 301.386 -121.159 299.955 -125.728C298.312 -130.972 297.265 -136.312 295.138 -141.41C292.967 -146.616 290.122 -151.578 286.528 -155.935C279.833 -164.051 270.544 -169.874 259.918 -170.726C250.299 -171.498 240.029 -168.464 233.592 -160.987C230.288 -157.15 228.372 -152.371 226.158 -147.879C223.945 -143.385 221.232 -138.437 216.294 -136.528C210.252 -134.193 203.859 -137.45 199.035 -140.988C193.679 -144.917 189.097 -149.766 184.681 -154.697C176.97 -163.306 169.419 -172.339 158.993 -177.771C149.809 -182.556 139.355 -183.376 130.017 -178.541C111.629 -169.02 103.525 -145.932 82.9745 -139.659C73.3591 -136.724 63.0868 -138.057 53.3841 -139.81C43.6343 -141.571 33.8929 -143.993 23.9343 -144.113C14.2962 -144.228 4.84426 -141.622 -2.57981 -135.28C-10.2102 -128.761 -14.8754 -119.509 -17.7467 -110.04C-20.9749 -99.3939 -21.9354 -88.2951 -22.1337 -77.2206C-22.3804 -63.4407 -21.4843 -49.6564 -19.7834 -35.9847C-16.3962 -8.76175 -10.0804 18.1807 -2.52273 44.5278C5.15254 71.285 14.968 97.6719 29.5294 121.505C41.72 141.458 57.3969 159.384 76.4872 173.002C94.8501 186.101 116.225 194.899 138.807 196.761C163.703 198.815 188.483 192.971 211.658 184.258C223.216 179.912 234.477 174.821 245.579 169.425C246.365 169.043 245.901 167.751 245.106 168.137C222.666 179.045 199.3 188.923 174.629 193.4C150.923 197.702 126.694 196.205 104.308 186.968C83.5315 178.394 65.2619 164.324 50.3953 147.578C33.1322 128.133 20.5971 104.964 11.1019 80.8719C0.97966 55.1884 -6.15958 28.2387 -11.958 1.27855C-17.5907 -24.9116 -21.3496 -51.6614 -20.7429 -78.5044C-20.2855 -98.7389 -16.8259 -124.23 1.39112 -136.587C18.7247 -148.345 40.3133 -140.177 59.0666 -137.487C68.2266 -136.173 77.8483 -135.901 86.5611 -139.482C95.7667 -143.264 102.755 -150.715 109.282 -157.967C115.973 -165.401 122.732 -173.788 132.052 -178.015C142.633 -182.813 153.919 -179.96 163.194 -173.664C173.198 -166.873 180.332 -156.984 188.655 -148.396C195.283 -141.556 205.953 -131.336 216.507 -135.147C225.784 -138.497 227.863 -150.2 232.735 -157.574C238.723 -166.639 250.068 -170.406 260.56 -169.295C271.982 -168.085 281.537 -161.015 287.97 -151.754C291.261 -147.017 293.77 -141.764 295.585 -136.296C297.205 -131.413 297.983 -126.261 300.03 -121.52C301.604 -117.873 304.062 -114.328 308.046 -113.143C313.316 -111.577 318.202 -114.824 322.558 -117.365C331.853 -122.787 342.794 -124.349 353.338 -122.431C363.738 -120.539 373.686 -115.356 380.752 -107.426C385.183 -102.453 389.034 -96.9074 393.292 -91.7775C397.427 -86.7948 401.509 -81.8314 404.675 -76.1536C411.504 -63.9051 412.572 -50.1876 412.344 -36.4205C412.118 -22.7717 410.365 -9.20709 408.722 4.32614C406.983 18.6448 405.245 32.9635 403.506 47.282C401.828 61.0968 400.522 75.0191 398.369 88.7686C396.501 100.701 392.033 114.076 379.907 119.134C370.963 122.864 362.501 118.827 355.698 112.949C344.234 103.043 331.961 84.6653 314.354 92.5486C303.735 97.3034 298.073 108.086 293.937 118.339C291.638 124.037 289.555 129.85 286.588 135.248C283.557 140.766 279.48 145.625 274.784 149.801C266.047 157.574 255.549 163.046 245.106 168.138C244.32 168.521 244.785 169.813 245.579 169.425Z" fill="white"/>
<path d="M248.554 182.087C260.053 176.481 271.635 170.46 281.18 161.809C285.592 157.811 289.497 153.282 292.574 148.176C296.11 142.309 298.492 135.86 301.014 129.519C305.753 117.606 312.56 103.457 326.191 99.965C336.07 97.4337 344.633 102.97 351.586 109.395C358.063 115.379 363.759 122.445 371.287 127.188C379.549 132.394 389.278 132.724 397.488 127.068C408.071 119.776 411.798 107.053 413.592 94.9669C415.854 79.7224 417.381 64.3397 419.239 49.041C421.15 33.2991 423.063 17.5576 424.973 1.81546C426.701 -12.4305 428.395 -26.7279 428.411 -41.0993C428.428 -55.2007 426.903 -68.9085 419.922 -81.4061C416.384 -87.7387 411.788 -93.2297 407.185 -98.7954C402.632 -104.301 398.54 -110.318 393.694 -115.562C379.142 -131.311 353.981 -137.194 334.324 -128.061C328.769 -125.48 322.839 -119.819 316.278 -121.377C310.722 -122.696 308.233 -128.69 306.695 -133.596C304.938 -139.206 303.818 -144.919 301.543 -150.373C299.221 -155.938 296.18 -161.242 292.338 -165.9C285.184 -174.572 275.257 -180.792 263.902 -181.703C253.63 -182.528 242.659 -179.287 235.784 -171.301C232.253 -167.199 230.205 -162.092 227.839 -157.289C225.465 -152.47 222.554 -147.169 217.26 -145.122C210.779 -142.617 203.924 -146.106 198.749 -149.901C193.016 -154.106 188.112 -159.297 183.385 -164.575C175.142 -173.778 167.07 -183.437 155.924 -189.244C146.112 -194.355 134.946 -195.234 124.969 -190.069C105.294 -179.883 96.6284 -155.184 74.6385 -148.471C64.3437 -145.329 53.3473 -146.754 42.9589 -148.63C32.5332 -150.513 22.1158 -153.105 11.4669 -153.233C1.16383 -153.356 -8.93683 -150.572 -16.8732 -143.792C-25.0255 -136.828 -30.0111 -126.939 -33.0789 -116.822C-36.5312 -105.437 -37.5594 -93.5684 -37.7715 -81.7253C-38.0355 -66.9839 -37.0769 -52.238 -35.2571 -37.6125C-31.6342 -8.49443 -24.8787 20.3233 -16.795 48.5045C-8.58546 77.1242 1.91225 105.349 17.4873 130.841C30.5262 152.183 47.2931 171.356 67.7123 185.922C87.3499 199.93 110.209 209.336 134.358 211.328C160.982 213.524 187.484 207.273 212.267 197.954C224.631 193.305 236.678 187.86 248.554 182.087C249.341 181.705 248.876 180.413 248.082 180.799C224.071 192.47 199.072 203.037 172.675 207.827C147.307 212.431 121.378 210.827 97.4237 200.942C75.1898 191.766 55.6401 176.709 39.7309 158.789C21.2608 137.984 7.84922 113.194 -2.30989 87.4172C-13.1399 59.9378 -20.7776 31.1037 -26.9813 2.25833C-33.007 -25.7589 -37.0281 -54.375 -36.3791 -83.0909C-35.8894 -104.754 -32.1841 -132.039 -12.681 -145.268C5.87618 -157.856 28.9771 -149.119 49.0546 -146.24C58.8456 -144.835 69.1295 -144.544 78.4425 -148.371C88.282 -152.414 95.7515 -160.38 102.728 -168.132C109.892 -176.092 117.128 -185.067 127.108 -189.593C138.442 -194.733 150.533 -191.674 160.469 -184.93C171.171 -177.666 178.802 -167.087 187.706 -157.899C194.782 -150.597 206.184 -139.664 217.454 -143.734C227.364 -147.312 229.589 -159.834 234.794 -167.711C241.21 -177.423 253.366 -181.457 264.605 -180.266C276.836 -178.971 287.071 -171.399 293.959 -161.483C297.481 -156.411 300.168 -150.788 302.111 -144.934C303.844 -139.711 304.676 -134.199 306.866 -129.127C308.543 -125.241 311.163 -121.458 315.411 -120.195C321.032 -118.525 326.247 -121.995 330.893 -124.705C340.848 -130.513 352.564 -132.187 363.857 -130.133C374.995 -128.106 385.647 -122.554 393.213 -114.062C397.953 -108.742 402.074 -102.81 406.628 -97.3216C411.052 -91.9914 415.419 -86.6816 418.805 -80.6077C426.116 -67.4965 427.262 -52.816 427.018 -38.0786C426.777 -23.4735 424.902 -8.9583 423.143 5.5231C421.283 20.8407 419.423 36.1583 417.563 51.476C415.769 66.2545 414.372 81.1481 412.068 95.8568C410.067 108.64 405.276 122.96 392.287 128.377C382.703 132.374 373.633 128.052 366.342 121.752C354.094 111.169 340.974 91.5137 322.161 99.9371C310.813 105.018 304.766 116.547 300.346 127.502C297.887 133.597 295.658 139.816 292.485 145.591C289.238 151.501 284.871 156.704 279.842 161.178C270.492 169.495 259.257 175.35 248.082 180.799C247.296 181.183 247.76 182.475 248.554 182.087Z" fill="white"/>
<path d="M251.53 194.75C263.776 188.779 276.106 182.367 286.273 173.155C290.966 168.902 295.122 164.082 298.395 158.65C302.161 152.4 304.699 145.53 307.386 138.776C312.439 126.075 319.698 110.996 334.23 107.272C344.77 104.57 353.905 110.469 361.324 117.324C368.22 123.696 374.286 131.221 382.3 136.271C391.088 141.809 401.433 142.164 410.166 136.148C421.429 128.387 425.393 114.844 427.301 101.982C429.711 85.7431 431.338 69.3571 433.317 53.0607C435.353 36.2922 437.391 19.524 439.425 2.75537C441.266 -12.4157 443.07 -27.6418 443.087 -42.9466C443.104 -57.9587 441.484 -72.5546 434.052 -85.8597C430.283 -92.6053 425.388 -98.4543 420.484 -104.383C415.634 -110.248 411.276 -116.657 406.114 -122.243C390.623 -139.004 363.845 -145.261 342.924 -135.541C336.996 -132.787 330.68 -126.758 323.677 -128.419C317.741 -129.827 315.078 -136.221 313.436 -141.464C311.563 -147.44 310.371 -153.526 307.947 -159.335C305.475 -165.259 302.237 -170.905 298.147 -175.864C290.534 -185.093 279.97 -191.71 267.886 -192.68C256.96 -193.557 245.289 -190.108 237.976 -181.615C234.217 -177.249 232.038 -171.811 229.519 -166.699C226.984 -161.554 223.876 -155.9 218.225 -153.715C211.306 -151.041 203.988 -154.761 198.463 -158.813C192.353 -163.295 187.127 -168.828 182.089 -174.453C173.314 -184.25 164.72 -194.534 152.855 -200.716C142.415 -206.154 130.536 -207.091 119.92 -201.596C98.9591 -190.745 89.7318 -164.435 66.3023 -157.283C55.3281 -153.933 43.6074 -155.45 32.5334 -157.45C21.4318 -159.456 10.3383 -162.216 -1.00087 -162.352C-11.9688 -162.484 -22.7182 -159.522 -31.1668 -152.304C-39.8411 -144.894 -45.1472 -134.368 -48.4113 -123.604C-52.0877 -111.48 -53.1836 -98.8411 -53.4093 -86.2296C-53.6904 -70.5268 -52.6693 -54.8193 -50.7309 -39.2399C-46.8724 -8.22653 -39.6774 22.4666 -31.0676 52.4819C-22.3238 82.964 -11.1438 113.026 5.44483 140.178C19.3327 162.909 37.1897 183.328 58.938 198.842C79.8503 213.759 104.192 223.775 129.91 225.896C158.262 228.234 186.484 221.575 212.875 211.652C226.046 206.699 238.879 200.899 251.53 194.75C252.316 194.368 251.852 193.076 251.057 193.462C225.477 205.895 198.844 217.151 170.721 222.255C143.692 227.161 116.063 225.45 90.5396 214.917C66.8483 205.14 46.0186 189.094 29.0665 170C9.38956 147.836 -4.8984 121.425 -15.7214 93.9632C-27.2592 64.6879 -35.3952 33.9693 -42.0044 3.23871C-48.4231 -26.6057 -52.7066 -57.088 -52.0151 -87.6766C-51.4931 -110.769 -47.542 -139.848 -26.753 -153.949C-6.97242 -167.367 17.6411 -158.061 39.0427 -154.992C49.4647 -153.497 60.4107 -153.186 70.3239 -157.26C80.7975 -161.564 88.7482 -170.045 96.1745 -178.296C103.811 -186.781 111.524 -196.346 122.163 -201.17C134.251 -206.652 147.148 -203.388 157.744 -196.196C169.143 -188.458 177.272 -177.189 186.757 -167.402C194.281 -159.638 206.414 -147.992 218.401 -152.32C228.944 -156.127 231.315 -169.468 236.853 -177.848C243.697 -188.206 256.663 -192.507 268.65 -191.238C281.69 -189.856 292.603 -181.782 299.947 -171.211C303.701 -165.806 306.566 -159.812 308.636 -153.573C310.483 -148.009 311.369 -142.138 313.701 -136.735C315.483 -132.608 318.264 -128.588 322.775 -127.248C328.747 -125.473 334.292 -129.166 339.227 -132.045C349.842 -138.238 362.333 -140.026 374.375 -137.835C386.252 -135.674 397.607 -129.753 405.675 -120.698C410.724 -115.031 415.112 -108.711 419.964 -102.866C424.677 -97.1877 429.328 -91.5316 432.935 -85.0616C440.727 -71.0877 441.952 -55.4442 441.692 -39.7366C441.435 -24.175 439.438 -8.70946 437.564 6.7204C435.583 23.037 433.601 39.3535 431.62 55.6701C429.708 71.4125 428.22 87.2774 425.767 102.945C423.632 116.579 418.519 131.843 404.667 137.62C394.444 141.884 384.764 137.277 376.986 130.556C363.953 119.295 349.986 98.3625 329.967 107.326C317.891 112.733 311.458 125.008 306.755 136.665C304.135 143.158 301.761 149.782 298.381 155.934C294.918 162.237 290.262 167.784 284.899 172.555C274.936 181.418 262.964 187.656 251.057 193.462C250.271 193.845 250.736 195.137 251.53 194.75Z" fill="white"/>
<path d="M254.505 207.412C267.497 201.077 280.579 194.274 291.366 184.5C296.34 179.993 300.747 174.882 304.217 169.124C308.213 162.492 310.906 155.201 313.757 148.034C319.124 134.544 326.836 118.534 342.268 114.578C353.47 111.707 363.177 117.967 371.063 125.253C378.379 132.012 384.813 139.996 393.314 145.355C402.626 151.225 413.589 151.604 422.844 145.227C434.787 136.998 438.988 122.636 441.012 108.996C443.569 91.7637 445.295 74.3745 447.396 57.0804C449.556 39.2854 451.719 21.4905 453.878 3.69521C455.831 -12.4012 457.745 -28.5558 457.764 -44.7939C457.782 -60.7167 456.066 -76.2007 448.183 -90.3134C444.184 -97.4719 438.988 -103.679 433.785 -109.971C428.638 -116.194 424.013 -122.997 418.534 -128.924C402.106 -146.697 373.709 -153.329 351.524 -143.022C345.223 -140.094 338.521 -133.696 331.077 -135.462C324.761 -136.959 321.925 -143.752 320.177 -149.332C318.19 -155.674 316.924 -162.132 314.352 -168.297C311.73 -174.581 308.296 -180.569 303.957 -185.828C295.884 -195.615 284.683 -202.629 271.87 -203.657C260.291 -204.586 247.919 -200.93 240.169 -191.929C236.183 -187.298 233.871 -181.531 231.2 -176.109C228.505 -170.638 225.199 -164.631 219.191 -162.309C211.833 -159.464 204.054 -163.416 198.178 -167.726C191.69 -172.484 186.143 -178.358 180.794 -184.331C171.487 -194.722 162.371 -205.631 149.786 -212.188C138.719 -217.954 126.128 -218.949 114.873 -213.123C92.6246 -201.608 82.8358 -173.686 57.9666 -166.095C46.3129 -162.537 33.8682 -164.146 22.1082 -166.27C10.3308 -168.398 -1.43875 -171.328 -13.4683 -171.472C-25.1012 -171.611 -36.4993 -168.471 -45.4602 -160.816C-54.6564 -152.96 -60.2831 -141.798 -63.7436 -130.386C-67.644 -117.523 -68.8076 -104.114 -69.0471 -90.7339C-69.3454 -74.0698 -68.2618 -57.4005 -66.2048 -40.8673C-62.1108 -7.95882 -54.4763 24.6096 -45.3403 56.459C-36.0622 88.8036 -24.1998 120.703 -6.59755 149.514C8.13891 173.634 27.086 195.3 50.1631 211.761C72.3501 227.588 98.1762 238.212 125.461 240.463C155.541 242.944 185.484 235.877 213.484 225.349C227.461 220.093 241.08 213.938 254.505 207.412C255.292 207.03 254.827 205.738 254.032 206.124C226.882 219.321 198.615 231.265 168.767 236.683C140.075 241.89 110.748 240.072 83.6553 228.891C58.5064 218.513 36.3968 201.48 18.402 181.211C-2.48215 157.687 -17.6465 129.655 -29.1334 100.509C-41.3791 69.4375 -50.0134 36.8346 -57.028 4.21902C-63.8396 -27.4526 -68.3854 -59.8012 -67.6517 -92.2624C-67.0974 -116.784 -62.9007 -147.656 -40.8255 -162.63C-19.8215 -176.878 6.30457 -167.003 29.0303 -163.743C40.0833 -162.158 51.6914 -161.828 62.2047 -166.149C73.3123 -170.713 81.7444 -179.709 89.6199 -188.46C97.7301 -197.471 105.92 -207.624 117.217 -212.747C130.06 -218.571 143.761 -215.102 155.018 -207.461C167.116 -199.249 175.742 -187.291 185.808 -176.904C193.779 -168.678 206.644 -156.32 219.348 -160.907C230.523 -164.942 233.04 -179.102 238.911 -187.985C246.184 -198.989 259.959 -203.558 272.696 -202.208C286.543 -200.742 298.136 -192.166 305.935 -180.939C309.921 -175.2 312.963 -168.836 315.162 -162.211C317.121 -156.307 318.062 -150.076 320.537 -144.342C322.419 -139.981 325.365 -135.709 330.138 -134.299C336.468 -132.429 342.33 -136.333 347.561 -139.385C358.837 -145.962 372.102 -147.863 384.893 -145.536C397.508 -143.241 409.566 -136.951 418.136 -127.333C423.494 -121.319 428.151 -114.613 433.3 -108.409C438.301 -102.384 443.237 -96.3811 447.066 -89.515C455.339 -74.6784 456.642 -58.0719 456.366 -41.394C456.093 -24.876 453.973 -8.46013 451.985 7.91803C449.882 25.2335 447.779 42.5492 445.677 59.8647C443.648 76.5709 442.069 93.407 439.465 110.034C437.197 124.519 431.761 140.727 417.047 146.864C406.184 151.395 395.895 146.502 387.63 139.36C373.813 127.422 358.999 105.212 337.774 114.715C324.969 120.448 318.15 133.469 313.164 145.829C310.384 152.719 307.864 159.749 304.277 166.277C300.598 172.973 295.654 178.864 289.956 183.933C279.381 193.34 266.672 199.962 254.032 206.125C253.246 206.508 253.711 207.8 254.505 207.412Z" fill="white"/>
</g>
</g>
<defs>
<clipPath id="clip0_68_15585">
<rect width="194" height="194" rx="97" fill="white"/>
</clipPath>
</defs>
</svg>
