<svg width="230" height="230" viewBox="0 0 230 230" fill="none" xmlns="http://www.w3.org/2000/svg">
<g clip-path="url(#clip0_68_11383)">
<rect width="230" height="230" rx="115" fill="#7A2799"/>
<g opacity="0.1">
<path d="M248.2 18.0712C250.172 17.1095 252.169 16.0849 253.807 14.6015C254.639 13.8479 255.355 13.0158 255.935 12.0527C256.524 11.0738 256.922 9.99861 257.343 8.94101C258.055 7.15097 259.06 4.86905 261.148 4.37408C261.579 4.27209 261.862 4.28673 262.218 4.34903C262.597 4.41539 262.695 4.45215 263.059 4.62717C263.439 4.80967 263.537 4.87929 263.868 5.12832C264.158 5.34628 264.432 5.58376 264.699 5.82954C265.828 6.87315 266.817 8.07388 268.136 8.89238C269.729 9.88117 271.642 9.88475 273.206 8.80682C275.122 7.48685 275.848 5.2033 276.174 3.00743C276.551 0.464764 276.806 -2.10084 277.115 -4.65245C277.434 -7.27806 277.753 -9.90352 278.072 -12.5291C278.367 -14.9654 278.651 -17.4102 278.654 -19.8678C278.655 -21.0926 278.614 -22.3463 278.372 -23.5502C278.131 -24.7517 277.707 -25.87 277.11 -26.9393C276.52 -27.9956 275.753 -28.9114 274.986 -29.8396C274.226 -30.7583 273.541 -31.7582 272.736 -32.6361C270.118 -35.4879 265.598 -36.6309 262.024 -34.9704C261.536 -34.7438 261.086 -34.4555 260.616 -34.1961C260.252 -33.9954 259.804 -33.7693 259.378 -33.8874C259.137 -33.9541 258.962 -34.1187 258.771 -34.4067C258.586 -34.6862 258.433 -35.0932 258.313 -35.4782C258.019 -36.4139 257.833 -37.3666 257.453 -38.2764C257.043 -39.2591 256.509 -40.2089 255.83 -41.032C254.529 -42.6094 252.716 -43.783 250.642 -43.9492C248.673 -44.1073 246.611 -43.5048 245.29 -41.9711C244.662 -41.2419 244.291 -40.3368 243.87 -39.4828C243.685 -39.1079 243.509 -38.7608 243.259 -38.4385C243.035 -38.1498 242.801 -37.9327 242.499 -37.8159C241.666 -37.4938 240.756 -38.0127 240.097 -38.4958C239.19 -39.1616 238.407 -39.9748 237.658 -40.8107C236.198 -42.4412 234.777 -44.1244 232.803 -45.1529C230.979 -46.1035 228.867 -46.235 227.023 -45.2687C225.355 -44.3947 224.126 -42.9253 222.885 -41.5481C221.698 -40.2299 220.427 -38.8982 218.711 -38.3744C217.169 -37.9036 215.421 -38.1386 213.791 -38.4328C211.989 -38.7585 210.199 -39.1871 208.358 -39.2091C206.53 -39.231 204.689 -38.7082 203.282 -37.5065C201.771 -36.2153 200.867 -34.4393 200.298 -32.5629C199.704 -30.6056 199.543 -28.5634 199.506 -26.5281C199.462 -24.0694 199.622 -21.61 199.926 -19.1706C200.538 -14.2531 201.68 -9.3835 203.046 -4.62431C204.433 0.211666 206.22 4.96745 208.851 9.2743C211.053 12.8791 213.903 16.1334 217.351 18.5936C220.72 20.9965 224.643 22.6382 228.789 22.9802C233.357 23.357 237.891 22.318 242.147 20.7176C244.21 19.942 246.219 19.0339 248.2 18.0712C248.595 17.8792 248.845 17.4698 248.683 17.0275C248.543 16.6468 248.037 16.3509 247.639 16.5441C243.697 18.4602 239.581 20.2247 235.245 21.0115C231.132 21.7579 226.933 21.5297 223.046 19.9256C219.453 18.4428 216.271 16.0208 213.698 13.1226C210.656 9.69624 208.447 5.63012 206.774 1.38443C204.991 -3.13956 203.721 -7.88673 202.699 -12.6362C201.694 -17.3092 201.024 -22.082 201.132 -26.8715C201.208 -30.2429 201.779 -34.5701 204.794 -36.6156C206.146 -37.5325 207.778 -37.6913 209.371 -37.5348C211.119 -37.363 212.824 -36.9073 214.561 -36.6583C216.312 -36.4071 218.161 -36.3612 219.827 -37.0457C221.588 -37.7695 222.925 -39.1635 224.176 -40.5526C225.284 -41.7841 226.466 -43.2509 227.944 -43.9209C229.577 -44.6618 231.339 -44.2667 232.822 -43.2602C234.606 -42.0492 235.88 -40.2836 237.365 -38.7518C238.753 -37.3195 240.854 -35.4926 243.012 -36.2721C244.859 -36.9388 245.263 -39.014 246.203 -40.4823C247.113 -41.9048 248.867 -42.5077 250.513 -42.3334C252.383 -42.1353 253.909 -40.9988 254.963 -39.482C255.517 -38.6846 255.93 -37.8081 256.235 -36.8878C256.524 -36.0167 256.663 -35.0972 257.029 -34.2514C257.398 -33.3947 257.977 -32.6242 258.901 -32.3413C260.075 -31.982 261.118 -32.6141 262.099 -33.1858C263.583 -34.052 265.364 -34.2815 267.067 -33.9718C268.741 -33.6673 270.372 -32.8441 271.518 -31.5729C272.313 -30.691 272.996 -29.6954 273.755 -28.7807C274.493 -27.8915 275.22 -27.0058 275.786 -25.9931C276.939 -23.93 277.066 -21.5612 277.028 -19.2485C276.989 -16.8737 276.676 -14.5118 276.39 -12.1573C276.08 -9.60244 275.77 -7.04774 275.46 -4.49288C275.16 -2.02796 274.927 0.456142 274.543 2.90934C274.251 4.77226 273.609 7.00051 271.691 7.80046C271.493 7.88309 271.288 7.9532 271.077 7.98849C270.963 8.00752 270.847 8.01809 270.731 8.02378C270.687 8.0259 270.409 8.02118 270.524 8.02867C270.366 8.01842 270.209 7.99451 270.054 7.96198C269.965 7.94327 269.877 7.92115 269.79 7.89561C269.701 7.86943 269.788 7.89447 269.803 7.89968C269.754 7.88292 269.705 7.86487 269.657 7.84617C268.991 7.58722 268.609 7.29606 268.05 6.81264C266.933 5.84808 266.003 4.67239 264.806 3.80087C263.399 2.77694 261.652 2.31499 259.995 3.05704C257.92 3.98614 256.777 5.99903 255.963 8.01696C255.553 9.03357 255.181 10.0708 254.652 11.0339C254.173 11.9051 253.515 12.7012 252.771 13.3588C251.251 14.7012 249.452 15.6602 247.639 16.544C247.245 16.7364 246.994 17.145 247.156 17.5876C247.296 17.968 247.802 18.2649 248.2 18.0712Z" fill="white"/>
<path d="M253.005 38.5286C256.183 36.9791 259.394 35.3224 262.033 32.9314C263.32 31.7653 264.44 30.464 265.338 28.9744C266.3 27.3778 266.948 25.6225 267.635 23.897C268.861 20.8152 270.588 17.0734 274.134 16.1788C276.586 15.5602 278.723 17.0627 280.43 18.6401C282.237 20.309 283.821 22.2552 285.928 23.5678C288.372 25.0906 291.275 25.1378 293.686 23.4764C296.702 21.3988 297.809 17.7917 298.321 14.3408C298.937 10.1918 299.353 6.00552 299.858 1.84198C300.378 -2.44226 300.899 -6.72633 301.419 -11.0106C301.896 -14.9415 302.358 -18.8866 302.362 -22.8522C302.367 -26.8141 301.895 -30.6285 299.937 -34.1346C298.974 -35.8581 297.723 -37.3525 296.471 -38.8671C295.231 -40.366 294.115 -41.9993 292.799 -43.4302C288.67 -47.9199 281.528 -49.6632 275.916 -47.0557C275.162 -46.7056 274.464 -46.2622 273.74 -45.8567C273.031 -45.4587 272.164 -45.0424 271.331 -45.2651C270.072 -45.6017 269.548 -47.0799 269.201 -48.1897C268.722 -49.7166 268.418 -51.2713 267.798 -52.7555C267.146 -54.319 266.294 -55.8209 265.215 -57.1299C263.171 -59.6075 260.328 -61.4224 257.077 -61.6831C254.051 -61.926 250.857 -60.9882 248.83 -58.6343C247.834 -57.4776 247.25 -56.0397 246.583 -54.6853C246.016 -53.5345 245.327 -52.1903 244.056 -51.6989C242.514 -51.1026 240.859 -51.9959 239.633 -52.8946C238.117 -54.0071 236.814 -55.3727 235.563 -56.7692C233.243 -59.3594 230.979 -62.053 227.843 -63.6869C225.004 -65.1661 221.742 -65.3911 218.865 -63.892C213.559 -61.1273 211.147 -54.413 205.241 -52.6104C202.552 -51.7895 199.657 -52.1925 196.946 -52.6823C194.052 -53.2051 191.17 -53.9071 188.213 -53.9426C185.311 -53.9774 182.422 -53.1672 180.188 -51.2586C177.833 -49.2471 176.411 -46.4424 175.525 -43.5193C174.569 -40.3685 174.299 -37.0823 174.24 -33.8052C174.168 -29.7933 174.429 -25.7802 174.924 -21.7998C175.917 -13.8206 177.77 -5.92102 179.985 1.80132C182.236 9.64629 185.125 17.3709 189.394 24.3582C192.967 30.2069 197.578 35.4755 203.174 39.4671C208.602 43.3392 214.921 45.9643 221.6 46.5152C228.96 47.1223 236.274 45.4243 243.129 42.8468C246.494 41.5815 249.773 40.0995 253.005 38.5286C253.938 38.0754 253.387 36.5437 252.445 37.0015C245.966 40.1504 239.21 43.028 232.087 44.3208C225.289 45.5546 218.345 45.1533 211.922 42.503C205.974 40.0485 200.725 36.0308 196.467 31.235C191.475 25.6121 187.85 18.9269 185.104 11.9598C182.178 4.53429 180.103 -3.25734 178.426 -11.0524C176.786 -18.6774 175.692 -26.4653 175.868 -34.2804C175.94 -37.4289 176.255 -40.6229 177.252 -43.627C178.158 -46.3518 179.634 -48.9968 182.058 -50.6406C186.922 -53.9405 193.128 -51.5518 198.384 -50.7979C201.155 -50.4005 204.073 -50.3238 206.709 -51.4066C209.494 -52.5514 211.609 -54.7778 213.585 -56.9739C215.452 -59.0479 217.35 -61.4448 219.953 -62.6252C222.83 -63.9299 225.887 -63.1789 228.417 -61.4613C231.329 -59.4848 233.407 -56.6048 235.83 -54.1047C237.945 -51.9227 241.22 -48.9456 244.541 -50.1447C247.42 -51.1842 248.032 -54.5651 249.527 -56.8595C251.131 -59.32 254.208 -60.3593 257.047 -60.0585C260.223 -59.7221 262.847 -57.7745 264.636 -55.1988C265.564 -53.8621 266.264 -52.3866 266.776 -50.8438C267.248 -49.4225 267.475 -47.9223 268.07 -46.542C268.608 -45.2967 269.448 -44.1438 270.797 -43.7344C272.539 -43.2059 274.114 -44.1997 275.562 -45.0444C278.122 -46.5381 281.16 -46.942 284.059 -46.4146C286.923 -45.8935 289.695 -44.4764 291.649 -42.2934C292.941 -40.849 294.06 -39.2305 295.299 -37.7373C296.503 -36.2867 297.692 -34.8415 298.613 -33.1886C300.542 -29.7292 300.798 -25.8092 300.734 -21.927C300.669 -18.0071 300.159 -14.1097 299.687 -10.223C299.181 -6.05424 298.675 -1.88548 298.168 2.28327C297.68 6.30531 297.3 10.3586 296.673 14.3617C296.166 17.6004 295.004 21.3526 291.691 22.7344C289.287 23.7368 287.065 22.6098 285.244 21.0364C283.423 19.4625 281.905 17.544 279.951 16.1222C277.795 14.553 275.141 13.859 272.605 14.9945C269.353 16.4509 267.588 19.6681 266.316 22.8212C265.646 24.48 265.04 26.1725 264.176 27.7442C263.348 29.2508 262.223 30.5997 260.939 31.7397C258.434 33.9657 255.438 35.5417 252.444 37.0014C251.513 37.4559 252.063 38.9878 253.005 38.5286Z" fill="white"/>
<path d="M257.814 58.9863C262.198 56.8488 266.623 54.56 270.263 51.2615C272.004 49.683 273.53 47.9125 274.745 45.8964C276.079 43.6816 276.979 41.2468 277.931 38.8533C279.667 34.4898 282.121 29.264 287.123 27.9835C290.64 27.0834 293.709 29.1797 296.166 31.4506C298.649 33.7449 300.83 36.4359 303.724 38.2433C307.017 40.3005 310.913 40.3906 314.171 38.1461C318.286 35.3108 319.775 30.38 320.473 25.6743C321.327 19.9193 321.904 14.1119 322.605 8.33646C323.327 2.3936 324.049 -3.5491 324.77 -9.49196C325.428 -14.9177 326.068 -20.363 326.075 -25.8366C326.081 -31.27 325.456 -36.519 322.768 -41.3298C321.433 -43.7205 319.697 -45.7934 317.96 -47.8944C316.24 -49.9737 314.692 -52.2393 312.867 -54.2241C307.229 -60.353 297.461 -62.6945 289.812 -59.1408C287.869 -58.2382 285.58 -56.0612 283.288 -56.6427C281.412 -57.1184 280.611 -59.2484 280.093 -60.901C279.429 -63.019 279.007 -65.1757 278.148 -67.2344C277.253 -69.3787 276.084 -71.4328 274.603 -73.2277C271.817 -76.6055 267.944 -79.0618 263.515 -79.4172C259.434 -79.7446 255.108 -78.472 252.375 -75.2974C251.011 -73.7132 250.214 -71.7426 249.3 -69.8875C248.473 -68.2102 247.467 -66.2966 245.618 -65.5818C243.367 -64.7115 240.966 -65.9789 239.174 -67.2932C237.048 -68.8524 235.225 -70.7703 233.472 -72.7277C230.292 -76.2777 227.185 -79.9816 222.887 -82.221C219.032 -84.2294 214.622 -84.5464 210.711 -82.5153C203.324 -78.6792 200.009 -69.3594 191.776 -66.8463C187.989 -65.6903 183.924 -66.2419 180.105 -66.9317C176.119 -67.6518 172.144 -68.6273 168.073 -68.6761C164.097 -68.7237 160.159 -67.6261 157.097 -65.0106C153.899 -62.2787 151.96 -58.4452 150.756 -54.4757C149.439 -50.1313 149.059 -45.6011 148.978 -41.0825C148.878 -35.5173 149.24 -29.9505 149.927 -24.4291C151.301 -13.3883 153.864 -2.45881 156.929 8.22666C160.042 19.0806 164.034 29.7741 169.94 39.4416C174.885 47.5343 181.257 54.8172 188.999 60.3404C196.487 65.6816 205.204 69.2903 214.415 70.05C224.567 70.8874 234.662 68.5303 244.115 64.976C248.783 63.2212 253.331 61.1655 257.814 58.9863C258.747 58.5331 258.196 57.0013 257.254 57.4592C248.239 61.8409 238.844 65.8317 228.932 67.6305C219.449 69.3516 209.76 68.7773 200.802 65.0807C192.5 61.6546 185.182 56.041 179.24 49.3478C172.298 41.5284 167.257 32.224 163.438 22.5353C159.368 12.2084 156.488 1.37227 154.157 -9.46838C151.882 -20.0453 150.364 -30.8484 150.609 -41.6891C150.789 -49.6674 152.138 -59.7901 159.325 -64.6654C166.167 -69.3062 174.815 -65.9982 182.211 -64.9374C186.001 -64.3938 189.989 -64.2859 193.594 -65.7674C197.404 -67.333 200.297 -70.3919 202.999 -73.3949C205.63 -76.3184 208.298 -79.6662 211.966 -81.3295C216.061 -83.1866 220.419 -82.1038 224.017 -79.662C228.056 -76.92 230.938 -72.9257 234.299 -69.4573C237.139 -66.5274 241.593 -62.3991 246.074 -64.0169C249.977 -65.4262 250.821 -70.1283 252.856 -73.2363C255.152 -76.7413 259.537 -78.2122 263.585 -77.7833C268.068 -77.3085 271.789 -74.55 274.313 -70.9154C275.616 -69.0394 276.603 -66.9651 277.322 -64.7996C277.976 -62.8279 278.29 -60.747 279.117 -58.8322C279.821 -57.2004 280.923 -55.6597 282.697 -55.1269C285.009 -54.4328 287.112 -55.7835 289.03 -56.9026C292.657 -59.0183 296.946 -59.6045 301.054 -58.8571C305.109 -58.1194 309.025 -56.1075 311.784 -53.0133C313.574 -51.0056 315.129 -48.7651 316.848 -46.6935C318.518 -44.6813 320.167 -42.6769 321.445 -40.3837C324.151 -35.5297 324.534 -30.0553 324.444 -24.605C324.354 -19.1398 323.646 -13.7069 322.988 -8.28812C322.286 -2.50549 321.584 3.27715 320.881 9.05979C320.204 14.6389 319.677 20.2615 318.807 25.8143C318.085 30.428 316.402 35.7051 311.694 37.6685C308.257 39.102 305.051 37.5138 302.443 35.2605C297.642 31.1118 292.579 23.6372 285.22 26.9321C280.791 28.9154 278.403 33.3377 276.673 37.6257C275.744 39.9268 274.903 42.2745 273.705 44.4546C272.529 46.5956 270.935 48.5002 269.113 50.1209C265.618 53.228 261.431 55.4226 257.254 57.459C256.322 57.9135 256.873 59.4454 257.814 58.9863Z" fill="white"/>
<path d="M262.62 79.4437C268.209 76.718 273.848 73.7972 278.488 69.5914C280.685 67.6006 282.615 65.361 284.147 62.8183C285.855 59.9855 287.005 56.8711 288.223 53.8095C290.468 48.1664 293.65 41.452 300.109 39.7883C304.691 38.6079 308.69 41.2963 311.898 44.261C315.058 47.1809 317.835 50.6154 321.516 52.9187C325.659 55.5111 330.548 55.6427 334.651 52.8154C339.865 49.2226 341.737 42.9677 342.621 37.0073C343.714 29.6461 344.451 22.218 345.348 14.8306C346.271 7.22912 347.195 -0.372208 348.117 -7.97369C348.957 -14.8943 349.776 -21.8397 349.783 -28.8212C349.791 -35.7261 349.012 -42.4096 345.595 -48.5252C343.887 -51.5831 341.668 -54.2346 339.445 -56.9222C337.246 -59.5815 335.267 -62.4809 332.931 -65.0183C325.781 -72.7843 313.392 -75.7274 303.704 -71.2262C301.155 -70.042 298.249 -67.272 295.241 -68.0203C292.749 -68.6401 291.669 -71.4147 290.981 -73.6125C290.132 -76.3216 289.591 -79.0801 288.493 -81.7135C287.356 -84.4385 285.869 -87.0448 283.987 -89.3256C280.459 -93.6036 275.556 -96.7011 269.949 -97.151C264.812 -97.5632 259.354 -95.9555 255.915 -91.9603C254.183 -89.9487 253.173 -87.4454 252.013 -85.0898C250.927 -82.8861 249.602 -80.4027 247.176 -79.4646C244.216 -78.3205 241.068 -79.9619 238.71 -81.6916C235.975 -83.6976 233.632 -86.1679 231.376 -88.6858C227.337 -93.1957 223.388 -97.9096 217.926 -100.755C213.057 -103.291 207.496 -103.703 202.553 -101.138C193.087 -96.2271 188.865 -84.3048 178.306 -81.0817C173.421 -79.5907 168.187 -80.2906 163.26 -81.1805C158.182 -82.0979 153.115 -83.3468 147.928 -83.4089C142.878 -83.4694 137.892 -82.0845 134.003 -78.7619C129.961 -75.3097 127.504 -70.4474 125.983 -65.4315C124.304 -59.8935 123.814 -54.1191 123.711 -48.359C123.584 -41.2406 124.047 -34.1201 124.925 -27.0576C126.68 -12.9551 129.953 1.00421 133.868 14.6528C137.845 28.5158 142.939 42.1782 150.483 54.526C156.798 64.8628 164.931 74.1599 174.821 81.2146C184.368 88.0247 195.482 92.6172 207.225 93.5858C220.17 94.6535 233.045 91.6373 245.097 87.1059C251.068 84.8605 256.885 82.231 262.62 79.4437C263.552 78.9905 263.001 77.4588 262.059 77.9167C250.508 83.5311 238.473 88.635 225.773 90.9398C213.605 93.1481 201.171 92.4008 189.678 87.6581C179.021 83.2603 169.636 76.051 162.009 67.4602C153.117 57.4443 146.66 45.5208 141.769 33.1107C136.555 19.8822 132.87 6.00153 129.883 -7.88471C126.974 -21.4138 125.032 -35.2318 125.345 -49.0982C125.578 -59.3852 127.323 -72.4059 136.589 -78.6905C145.407 -84.6723 156.498 -80.4448 166.034 -79.0772C170.843 -78.3873 175.901 -78.2486 180.476 -80.1284C185.31 -82.115 188.98 -86.0064 192.409 -89.8161C195.805 -93.589 199.243 -97.8875 203.975 -100.034C209.289 -102.443 214.948 -101.029 219.612 -97.8626C224.779 -94.3553 228.465 -89.2464 232.764 -84.8099C236.328 -81.1327 241.963 -75.8528 247.602 -77.8891C252.529 -79.6679 253.606 -85.6921 256.181 -89.613C259.168 -94.1622 264.862 -96.0648 270.119 -95.508C275.908 -94.8948 280.726 -91.3254 283.986 -86.6319C285.664 -84.2166 286.937 -81.5434 287.862 -78.7554C288.699 -76.2334 289.101 -73.5719 290.158 -71.1226C291.03 -69.1027 292.393 -67.1781 294.593 -66.5197C297.472 -65.6577 300.107 -67.3687 302.493 -68.7609C307.186 -71.4984 312.727 -72.2672 318.046 -71.2995C323.293 -70.3447 328.345 -67.7368 331.914 -63.7333C334.204 -61.1651 336.193 -58.2996 338.392 -55.6497C340.528 -53.076 342.637 -50.512 344.272 -47.579C347.755 -41.3308 348.266 -34.3013 348.15 -27.2831C348.034 -20.2727 347.128 -13.3045 346.284 -6.35344C345.386 1.04308 344.488 8.43977 343.59 15.8363C342.723 22.9726 342.049 30.1645 340.936 37.2669C339.999 43.2553 337.795 50.0578 331.693 52.6026C327.222 54.4671 323.033 52.418 319.638 49.4845C313.568 44.2404 307.138 34.702 297.83 38.8696C292.224 41.3799 289.213 47.0075 287.025 52.43C285.837 55.3733 284.761 58.3763 283.229 61.1649C281.704 63.9405 279.643 66.4008 277.281 68.5021C272.797 72.4899 267.418 75.3034 262.059 77.9167C261.128 78.371 261.678 79.9027 262.62 79.4437Z" fill="white"/>
<path d="M267.428 99.9012C274.224 96.5876 281.076 93.0343 286.717 87.9214C289.369 85.5186 291.704 82.8093 293.553 79.7402C295.633 76.2892 297.034 72.4952 298.518 68.7657C301.272 61.8436 305.183 53.6388 313.097 51.5931C318.745 50.1332 323.674 53.4127 327.634 57.0714C331.472 60.6178 334.845 64.791 339.311 67.5939C344.3 70.7247 350.189 70.8926 355.135 67.4847C361.449 63.1345 363.702 55.5558 364.773 48.3404C366.103 39.3729 367.002 30.3241 368.095 21.3248C369.219 12.0647 370.344 2.80476 371.468 -6.45534C372.489 -14.8708 373.486 -23.3164 373.495 -31.8059C373.505 -40.1822 372.571 -48.3003 368.426 -55.7206C366.345 -59.4458 363.642 -62.6757 360.934 -65.9498C358.255 -69.1893 355.845 -72.7225 352.998 -75.8125C344.336 -85.2151 329.328 -88.7604 317.599 -83.3115C314.447 -81.847 310.918 -78.4811 307.197 -79.3982C304.091 -80.1636 302.732 -83.5804 301.873 -86.3241C300.839 -89.6243 300.18 -92.9848 298.842 -96.1929C297.463 -99.4986 295.658 -102.657 293.376 -105.424C289.104 -110.602 283.172 -114.341 276.388 -114.885C270.195 -115.382 263.605 -113.439 259.459 -108.624C257.359 -106.184 256.137 -103.149 254.729 -100.292C253.384 -97.5624 251.741 -94.5092 248.737 -93.348C245.069 -91.9301 241.175 -93.9456 238.25 -96.0906C234.906 -98.5433 232.042 -101.566 229.285 -104.645C224.386 -110.114 219.594 -115.839 212.97 -119.289C207.087 -122.354 200.374 -122.861 194.399 -119.762C182.855 -113.776 177.725 -99.2513 164.841 -95.3183C158.858 -93.4921 152.454 -94.3404 146.419 -95.4305C140.248 -96.545 134.09 -98.0673 127.788 -98.143C121.663 -98.2163 115.629 -96.5442 110.912 -92.5145C106.028 -88.3419 103.052 -82.4508 101.214 -76.3885C99.173 -69.6569 98.5741 -62.6386 98.4487 -55.6367C98.2936 -46.965 98.8573 -38.2908 99.9278 -29.6876C102.063 -12.5233 106.047 4.46566 110.812 21.0777C115.652 37.9497 121.848 54.5809 131.03 69.609C138.716 82.1898 148.61 93.5012 160.647 102.087C172.253 110.367 185.764 115.943 200.04 117.12C215.776 118.418 231.432 114.743 246.082 109.234C253.355 106.5 260.442 103.297 267.428 99.9012C268.361 99.4481 267.81 97.9162 266.868 98.3742C252.78 105.221 238.106 111.439 222.617 114.249C207.764 116.945 192.585 116.025 178.557 110.236C165.546 104.866 154.092 96.0612 144.781 85.5729C133.939 73.3604 126.066 58.8178 120.102 43.6861C113.745 27.5562 109.254 10.631 105.613 -6.30081C102.068 -22.7819 99.7028 -39.615 100.085 -56.507C100.369 -69.1026 102.512 -85.0214 113.855 -92.7154C124.65 -100.038 138.185 -94.8911 149.86 -93.2167C155.689 -92.3807 161.816 -92.211 167.361 -94.4892C173.219 -96.8967 177.667 -101.621 181.822 -106.237C185.981 -110.859 190.191 -116.109 195.988 -118.738C202.519 -121.7 209.479 -119.954 215.21 -116.063C221.505 -111.791 225.995 -105.567 231.232 -100.163C235.52 -95.7384 242.336 -89.3069 249.134 -91.7613C255.083 -93.9095 256.395 -101.256 259.508 -105.99C263.188 -111.584 270.19 -113.918 276.656 -113.233C283.751 -112.481 289.666 -108.101 293.662 -102.348C295.715 -99.3936 297.275 -96.1216 298.407 -92.711C299.426 -89.6387 299.916 -86.3963 301.204 -83.4127C302.243 -81.0047 303.868 -78.6965 306.493 -77.9121C309.939 -76.8823 313.106 -78.9538 315.96 -80.6189C321.719 -83.9784 328.512 -84.9296 335.041 -83.7418C341.482 -82.57 347.669 -79.3661 352.049 -74.4532C354.837 -71.3243 357.261 -67.8338 359.94 -64.6057C362.542 -61.4704 365.111 -58.3468 367.103 -54.7739C371.363 -47.1318 372.001 -38.5467 371.859 -29.9608C371.717 -21.4054 370.615 -12.9015 369.585 -4.41837C368.49 4.59221 367.396 13.6026 366.302 22.6132C365.246 31.3066 364.425 40.0677 363.07 48.7201C361.917 56.0831 359.192 64.411 351.696 67.5373C346.192 69.8327 341.018 67.3226 336.836 63.7091C329.499 57.3699 321.701 45.7677 310.444 50.8079C303.661 53.8451 300.027 60.6782 297.381 67.2352C295.935 70.8207 294.624 74.479 292.757 77.8759C290.883 81.2859 288.356 84.3024 285.453 86.8839C279.979 91.7524 273.41 95.185 266.868 98.3749C265.936 98.8285 266.486 100.36 267.428 99.9012Z" fill="white"/>
<path d="M272.234 120.359C280.235 116.457 288.301 112.271 294.944 106.251C298.05 103.436 300.79 100.258 302.956 96.6617C305.409 92.5927 307.061 88.1193 308.81 83.7215C312.073 75.521 316.713 65.8249 326.083 63.3974C332.797 61.6583 338.655 65.5287 343.366 69.8815C347.882 74.0538 351.851 78.9685 357.104 82.269C362.94 85.9362 369.825 86.1436 375.616 82.154C383.029 77.0462 385.664 68.1435 386.921 59.6736C388.49 49.0999 389.55 38.4303 390.838 27.819C392.164 16.9003 393.491 5.98175 394.816 -4.93697C396.018 -14.847 397.193 -24.7931 397.205 -34.7905C397.216 -44.6384 396.128 -54.191 391.254 -62.9161C388.8 -67.3085 385.613 -71.117 382.42 -74.9775C379.261 -78.797 376.42 -82.9645 373.062 -86.6068C362.887 -97.6459 345.261 -101.794 331.492 -95.397C327.737 -93.6525 323.584 -89.6902 319.15 -90.7761C315.43 -91.6873 313.792 -95.7464 312.761 -99.0357C311.542 -102.927 310.765 -106.889 309.187 -110.672C307.566 -114.558 305.444 -118.269 302.76 -121.522C297.746 -127.6 290.785 -131.98 282.822 -132.619C275.573 -133.201 267.852 -130.923 262.999 -125.287C260.532 -122.42 259.096 -118.851 257.443 -115.495C255.838 -112.238 253.876 -108.615 250.295 -107.231C245.919 -105.539 241.278 -107.928 237.787 -110.489C233.833 -113.388 230.449 -116.963 227.19 -120.603C221.431 -127.032 215.796 -133.767 208.01 -137.823C201.113 -141.416 193.249 -142.017 186.241 -138.385C172.619 -131.325 166.582 -114.197 151.371 -109.554C144.291 -107.393 136.717 -108.389 129.574 -109.679C122.312 -110.991 115.061 -112.787 107.643 -112.876C100.444 -112.962 93.3624 -111.002 87.8177 -106.266C82.0899 -101.373 78.597 -94.4528 76.4414 -87.3442C74.0383 -79.419 73.3301 -71.1567 73.1824 -62.9132C72.9994 -52.6885 73.6642 -42.4606 74.9264 -32.3161C77.4429 -12.0901 82.1364 7.92862 87.7515 27.5038C93.4544 47.3848 100.753 66.985 111.572 84.6934C120.63 99.5182 132.285 112.844 146.469 122.962C160.135 132.71 176.043 139.27 192.85 140.656C211.379 142.184 229.815 137.85 247.064 131.364C255.64 128.139 263.996 124.362 272.234 120.359C273.166 119.905 272.616 118.374 271.673 118.831C255.05 126.911 237.735 134.242 219.459 137.559C201.921 140.741 183.997 139.648 167.434 132.813C152.068 126.472 138.546 116.071 127.55 103.685C114.758 89.276 105.469 72.1144 98.4324 54.2613C90.9319 35.2299 85.6363 15.2602 81.3397 -4.71738C77.1602 -24.1504 74.3711 -43.9989 74.8214 -63.9163C75.1582 -78.8206 77.6978 -97.6373 91.1185 -106.741C103.89 -115.404 119.869 -109.338 133.683 -107.357C140.531 -106.375 147.729 -106.174 154.243 -108.851C161.126 -111.679 166.35 -117.235 171.231 -122.659C176.156 -128.13 181.136 -134.331 187.997 -137.442C195.747 -140.957 204.008 -138.879 210.806 -134.265C218.228 -129.227 223.522 -121.889 229.698 -115.516C234.709 -110.345 242.707 -102.762 250.662 -105.634C257.638 -108.153 259.175 -116.822 262.833 -122.367C267.211 -129.003 275.51 -131.772 283.191 -130.958C291.592 -130.068 298.604 -124.877 303.335 -118.066C305.762 -114.572 307.609 -110.701 308.948 -106.668C310.15 -103.045 310.727 -99.2218 312.246 -95.7038C313.453 -92.9079 315.338 -90.2156 318.389 -89.3057C322.403 -88.1082 326.102 -90.5399 329.424 -92.4781C336.249 -96.4597 344.294 -97.5932 352.033 -96.1853C359.667 -94.7963 366.99 -90.9965 372.179 -85.1743C375.468 -81.4849 378.325 -77.3694 381.484 -73.563C384.552 -69.866 387.582 -66.1831 389.93 -61.9701C394.968 -52.934 395.733 -42.7934 395.565 -32.64C395.398 -22.5393 394.098 -12.5 392.881 -2.48489C391.591 8.13957 390.301 18.764 389.011 29.3885C387.766 39.639 386.797 49.9694 385.2 60.1714C383.832 68.9089 380.586 78.7626 371.696 82.4702C365.158 85.1967 359 82.2254 354.031 77.9319C345.427 70.4975 336.261 56.8314 323.055 62.7442C315.095 66.3082 310.837 74.3469 307.734 82.0383C306.028 86.2661 304.483 90.5795 302.282 94.5849C300.06 98.6294 297.064 102.202 293.622 105.264C287.159 111.013 279.398 115.064 271.673 118.831C270.742 119.286 271.292 120.818 272.234 120.359Z" fill="white"/>
<path d="M277.041 140.816C286.249 136.326 295.528 131.509 303.172 124.581C306.732 121.354 309.877 117.706 312.361 113.584C315.186 108.897 317.089 103.744 319.104 98.6779C322.875 89.1988 328.246 78.0112 339.071 75.2025C346.849 73.1842 353.638 77.6454 359.1 82.6922C364.293 87.4906 368.859 93.1464 374.898 96.9446C381.582 101.148 389.464 101.395 396.098 96.8238C404.611 90.9585 407.628 80.7319 409.071 71.0071C410.879 58.8271 412.099 46.5368 413.583 34.3136C415.11 21.7363 416.639 9.15926 418.165 -3.41824C419.548 -14.8231 420.902 -26.2693 420.915 -37.7746C420.928 -49.094 419.686 -60.0813 414.083 -70.1109C411.257 -75.1706 407.585 -79.5576 403.907 -84.0045C400.268 -88.4037 396.998 -93.2078 393.128 -97.4005C381.433 -110.071 361.201 -114.829 345.386 -107.482C341.029 -105.457 336.252 -100.899 331.106 -102.153C326.77 -103.21 324.853 -107.912 323.652 -111.747C322.247 -116.229 321.353 -120.793 319.535 -125.151C317.671 -129.618 315.231 -133.88 312.147 -137.619C306.39 -144.598 298.399 -149.619 289.259 -150.353C280.954 -151.019 272.101 -148.406 266.542 -141.949C263.706 -138.655 262.058 -134.554 260.158 -130.697C258.294 -126.914 256.013 -122.721 251.854 -121.113C246.77 -119.148 241.382 -121.911 237.325 -124.887C232.763 -128.233 228.858 -132.361 225.097 -136.56C218.479 -143.95 212 -151.694 203.052 -156.356C195.141 -160.478 186.125 -161.173 178.085 -157.007C162.385 -148.873 155.44 -129.142 137.904 -123.789C129.726 -121.292 120.982 -122.437 112.731 -123.928C104.377 -125.437 96.0336 -127.506 87.5007 -127.608C79.2275 -127.707 71.0977 -125.461 64.7254 -120.017C58.1544 -114.403 54.1436 -106.455 51.6707 -98.2997C48.9057 -89.1811 48.088 -79.6744 47.9182 -70.1893C47.7074 -58.4115 48.4731 -46.6299 49.9271 -34.9444C52.8246 -11.6567 58.2281 11.3919 64.6932 33.9302C71.2592 56.8202 79.6601 79.3893 92.117 99.7779C102.545 116.847 115.962 132.186 132.293 143.836C148.018 155.053 166.323 162.596 185.663 164.192C206.983 165.95 228.2 160.957 248.048 153.494C257.927 149.779 267.552 145.428 277.041 140.816C277.974 140.363 277.423 138.831 276.481 139.289C257.321 148.602 237.367 157.045 216.302 160.868C196.079 164.538 175.41 163.272 156.312 155.391C138.591 148.078 123.002 136.081 110.321 121.798C95.5788 105.192 84.8738 85.4115 76.765 64.8368C68.121 42.904 62.0203 19.8898 57.0686 -3.13342C52.2543 -25.5185 49.0415 -48.382 49.56 -71.325C49.9491 -88.5379 52.8856 -110.253 68.3841 -120.766C83.1324 -130.77 101.554 -123.784 117.508 -121.496C125.376 -120.368 133.643 -120.136 141.126 -123.211C149.034 -126.461 155.036 -132.85 160.643 -139.08C166.332 -145.4 172.082 -152.552 180.008 -156.146C188.976 -160.213 198.538 -157.804 206.403 -152.465C214.953 -146.662 221.051 -138.209 228.165 -130.868C233.9 -124.951 243.079 -116.215 252.193 -119.506C260.192 -122.394 261.964 -132.386 266.16 -138.744C271.23 -146.424 280.838 -149.624 289.727 -148.683C299.435 -147.654 307.544 -141.652 313.011 -133.782C315.812 -129.749 317.946 -125.279 319.491 -120.623C320.876 -116.45 321.541 -112.046 323.29 -107.994C324.664 -104.81 326.812 -101.734 330.287 -100.698C334.869 -99.3327 339.1 -102.125 342.89 -104.336C350.781 -108.939 360.078 -110.255 369.027 -108.627C377.854 -107.021 386.314 -102.626 392.313 -95.8941C396.101 -91.644 399.392 -86.9036 403.031 -82.519C406.565 -78.2603 410.054 -74.018 412.76 -69.1651C418.575 -58.7352 419.467 -47.0388 419.273 -35.3178C419.081 -23.672 417.583 -12.0972 416.181 -0.549927C414.695 11.6884 413.208 23.9268 411.722 36.1651C410.289 47.9728 409.172 59.8723 407.332 71.6243C405.749 81.7363 401.982 93.1155 391.697 97.4046C384.127 100.562 376.984 97.1297 371.228 92.1561C361.357 83.6267 350.823 67.8967 335.668 74.682C326.532 78.7728 321.65 88.017 318.089 96.8431C316.125 101.713 314.344 106.682 311.809 111.296C309.238 115.975 305.776 120.103 301.793 123.645C294.34 130.275 285.389 134.945 276.481 139.289C275.549 139.743 276.1 141.275 277.041 140.816Z" fill="white"/>
<path d="M280.568 155.828C290.66 150.907 300.83 145.625 309.208 138.032C313.103 134.502 316.544 130.51 319.261 126.001C322.36 120.861 324.447 115.209 326.657 109.653C330.789 99.2674 336.71 86.9062 348.6 83.8647C357.178 81.6703 364.614 86.5199 370.645 92.0924C376.335 97.3501 381.339 103.55 387.955 107.713C395.261 112.311 403.874 112.586 411.128 107.588C420.447 101.167 423.744 89.9686 425.324 79.3231C427.307 65.9645 428.645 52.4848 430.273 39.0787C431.948 25.2844 433.625 11.49 435.298 -2.30464C436.815 -14.8065 438.299 -27.3536 438.314 -39.9654C438.328 -52.3645 436.973 -64.4047 430.835 -75.3917C427.735 -80.941 423.707 -85.7527 419.674 -90.6298C415.684 -95.4546 412.097 -100.725 407.852 -105.322C395.045 -119.193 372.893 -124.394 355.581 -116.351C350.782 -114.121 345.546 -109.124 339.878 -110.503C335.092 -111.667 332.969 -116.84 331.642 -121.075C330.102 -125.991 329.121 -130.997 327.127 -135.776C325.086 -140.669 322.412 -145.337 319.034 -149.433C312.733 -157.072 303.986 -162.564 293.981 -163.367C284.902 -164.095 275.218 -161.237 269.14 -154.178C266.035 -150.57 264.231 -146.078 262.149 -141.853C260.095 -137.684 257.581 -133.073 252.998 -131.301C247.394 -129.135 241.459 -132.173 236.986 -135.454C231.976 -139.128 227.69 -143.66 223.56 -148.272C216.311 -156.366 209.214 -164.852 199.413 -169.958C190.757 -174.467 180.897 -175.232 172.1 -170.674C154.874 -161.752 147.264 -140.11 128.021 -134.236C119.037 -131.494 109.434 -132.748 100.37 -134.385C91.215 -136.039 82.0706 -138.309 72.7192 -138.421C63.6578 -138.53 54.7589 -136.072 47.7793 -130.109C40.5895 -123.967 36.1985 -115.263 33.4929 -106.341C30.4623 -96.3462 29.5644 -85.9267 29.3783 -75.5305C29.147 -62.6127 29.987 -49.691 31.5817 -36.8747C34.7587 -11.3403 40.6833 13.9317 47.7721 38.6446C54.9712 63.7425 64.1812 88.4902 77.8395 110.846C89.274 129.561 103.983 146.379 121.889 159.152C139.126 171.448 159.19 179.713 180.388 181.461C203.757 183.389 227.015 177.912 248.769 169.732C259.604 165.658 270.161 160.886 280.568 155.828C281.5 155.375 280.95 153.843 280.007 154.301C258.986 164.518 237.095 173.779 213.985 177.973C191.791 182.001 169.108 180.607 148.149 171.958C128.701 163.932 111.594 150.765 97.6769 135.089C81.5036 116.872 69.7595 95.1691 60.8636 72.5971C51.3805 48.5351 44.6889 23.2868 39.2565 -1.97134C33.9762 -26.5227 30.4525 -51.5987 31.0213 -76.7621C31.4488 -95.6691 34.6764 -119.511 51.6997 -131.058C67.8986 -142.046 88.1135 -134.386 105.637 -131.872C114.253 -130.637 123.305 -130.382 131.5 -133.75C140.159 -137.308 146.732 -144.308 152.872 -151.13C159.122 -158.074 165.438 -165.924 174.145 -169.872C184.006 -174.344 194.523 -171.692 203.171 -165.822C212.548 -159.456 219.236 -150.186 227.039 -142.135C233.304 -135.669 243.351 -126.089 253.315 -129.686C262.063 -132.845 264.008 -143.808 268.6 -150.762C274.177 -159.209 284.746 -162.726 294.522 -161.69C305.188 -160.56 314.102 -153.963 320.109 -145.315C323.186 -140.886 325.53 -135.977 327.226 -130.864C328.745 -126.288 329.475 -121.458 331.393 -117.013C332.89 -113.544 335.229 -110.186 339.017 -109.059C344.015 -107.57 348.636 -110.627 352.77 -113.038C361.443 -118.098 371.659 -119.548 381.496 -117.758C391.199 -115.993 400.492 -111.16 407.085 -103.761C411.239 -99.0996 414.849 -93.9007 418.841 -89.0917C422.717 -84.4209 426.544 -79.768 429.511 -74.4456C435.897 -62.9927 436.882 -50.1548 436.669 -37.2835C436.458 -24.5038 434.815 -11.8022 433.276 0.869461C431.646 14.2921 430.016 27.7148 428.387 41.1376C426.814 54.0879 425.59 67.1391 423.571 80.0283C421.83 91.1488 417.681 103.648 406.373 108.363C398.044 111.837 390.18 108.066 383.846 102.594C373.045 93.2609 361.506 76.0165 344.922 83.4419C334.922 87.9193 329.583 98.0483 325.686 107.707C323.531 113.048 321.578 118.497 318.798 123.558C315.971 128.702 312.166 133.239 307.788 137.133C299.608 144.41 289.784 149.534 280.007 154.301C279.076 154.755 279.626 156.287 280.568 155.828Z" fill="white"/>
<path d="M284.095 170.841C295.073 165.488 306.133 159.743 315.246 151.484C319.475 147.651 323.213 143.315 326.163 138.42C329.534 132.825 331.806 126.675 334.211 120.629C338.715 109.309 345.173 95.8444 358.131 92.5281C367.492 90.132 375.607 95.4104 382.191 101.494C388.379 107.211 393.82 113.954 401.013 118.483C408.941 123.475 418.285 123.779 426.158 118.354C436.284 111.377 439.862 99.207 441.579 87.6406C443.736 73.1034 445.192 58.4343 446.964 43.8452C448.787 28.8337 450.611 13.8223 452.432 -1.18948C454.082 -14.7881 455.697 -28.4363 455.713 -42.1546C455.728 -55.6334 454.26 -68.7265 447.588 -80.671C444.214 -86.7098 439.832 -91.9461 435.442 -97.2536C431.1 -102.504 427.197 -108.24 422.577 -113.242C408.659 -128.313 384.587 -133.958 365.777 -125.218C360.536 -122.783 354.842 -117.349 348.651 -118.851C343.414 -120.122 341.086 -125.767 339.634 -130.402C337.958 -135.752 336.89 -141.2 334.72 -146.4C332.501 -151.72 329.595 -156.793 325.922 -161.245C319.076 -169.545 309.574 -175.507 298.705 -176.38C288.85 -177.171 278.336 -174.066 271.74 -166.404C268.364 -162.483 266.404 -157.6 264.142 -153.008C261.898 -148.453 259.149 -143.423 254.143 -141.488C248.019 -139.121 241.536 -142.433 236.647 -146.019C231.191 -150.021 226.523 -154.958 222.024 -159.982C214.144 -168.78 206.429 -178.007 195.774 -183.558C186.375 -188.455 175.67 -189.288 166.115 -184.339C147.364 -174.628 139.088 -151.077 118.138 -144.682C108.349 -141.694 97.8875 -143.057 88.0105 -144.841C78.0539 -146.639 68.1078 -149.109 57.9382 -149.231C48.0883 -149.35 38.4204 -146.681 30.8334 -140.2C23.0247 -133.529 18.2539 -124.07 15.3154 -114.38C12.0191 -103.509 11.0409 -92.1769 10.8385 -80.8696C10.5869 -66.8121 11.501 -52.7502 13.2363 -38.8031C16.6928 -11.0218 23.1386 16.4735 30.8511 43.3608C38.6839 70.6671 48.7028 97.5933 63.563 121.916C76.0037 142.278 92.0049 160.574 111.487 174.471C130.235 187.844 152.058 196.831 175.114 198.733C200.532 200.83 225.83 194.869 249.491 185.973C261.282 181.538 272.77 176.346 284.095 170.841C285.028 170.388 284.477 168.856 283.535 169.314C260.653 180.436 236.825 190.513 211.668 195.079C187.504 199.464 162.807 197.944 139.988 188.527C118.811 179.788 100.187 165.449 85.0337 148.381C67.4292 128.552 54.6461 104.927 44.9631 80.3583C34.6409 54.1671 27.3584 26.6847 21.4455 -0.808533C15.6992 -27.5262 11.8646 -54.8148 12.4837 -82.1983C12.9494 -102.799 16.4685 -128.768 35.0163 -141.349C52.6656 -153.321 74.6737 -144.986 93.7674 -142.248C103.131 -140.905 112.968 -140.628 121.875 -144.288C131.285 -148.155 138.429 -155.766 145.102 -163.18C151.913 -170.747 158.794 -179.295 168.282 -183.597C179.038 -188.475 190.509 -185.579 199.94 -179.177C210.145 -172.25 217.423 -162.162 225.914 -153.4C232.71 -146.387 243.625 -135.961 254.438 -139.866C263.936 -143.295 266.055 -155.229 271.041 -162.779C277.126 -171.992 288.655 -175.826 299.318 -174.696C310.943 -173.465 320.662 -166.273 327.209 -156.848C330.56 -152.023 333.115 -146.675 334.963 -141.105C336.616 -136.124 337.41 -130.868 339.497 -126.031C341.117 -122.278 343.648 -118.638 347.747 -117.418C353.162 -115.807 358.174 -119.128 362.651 -121.739C372.107 -127.256 383.241 -128.839 393.966 -126.888C404.544 -124.964 414.672 -119.693 421.859 -111.627C426.38 -106.554 430.308 -100.896 434.652 -95.6631C438.87 -90.5802 443.034 -85.5167 446.264 -79.7246C453.22 -67.249 454.299 -53.2693 454.067 -39.2478C453.837 -25.334 452.049 -11.5057 450.373 2.29008C448.6 16.8971 446.826 31.5042 445.052 46.1112C443.341 60.2042 442.009 74.4069 439.812 88.4332C437.913 100.562 433.381 114.181 421.051 119.323C411.963 123.113 403.376 119.004 396.465 113.033C384.734 102.896 372.192 84.137 354.178 92.2028C343.314 97.0668 337.518 108.08 333.285 118.571C330.94 124.384 328.815 130.314 325.789 135.821C322.706 141.431 318.558 146.376 313.784 150.623C304.878 158.545 294.179 164.124 283.535 169.314C282.603 169.768 283.154 171.3 284.095 170.841Z" fill="white"/>
<path d="M287.623 185.853C299.486 180.069 311.436 173.859 321.284 164.934C325.846 160.799 329.881 156.118 333.064 150.837C336.709 144.789 339.165 138.14 341.765 131.604C346.64 119.349 353.636 104.781 367.661 101.19C377.806 98.5927 386.6 104.299 393.737 110.894C400.422 117.071 406.301 124.358 414.07 129.252C422.62 134.637 432.696 134.97 441.189 129.118C452.121 121.585 455.98 108.444 457.833 95.9566C460.165 80.2406 461.739 64.3822 463.654 48.6102C465.625 32.3816 467.598 16.1531 469.566 -0.075943C471.349 -14.7716 473.095 -29.5206 473.112 -44.3455C473.129 -58.9042 471.548 -73.05 464.34 -85.9519C460.693 -92.4803 455.955 -98.1411 451.21 -103.879C446.515 -109.555 442.297 -115.756 437.302 -121.164C422.272 -137.435 396.281 -143.523 375.973 -134.088C370.271 -131.439 364.157 -125.601 357.423 -127.201C351.737 -128.553 349.197 -134.713 347.625 -139.731C345.813 -145.515 344.659 -151.404 342.313 -157.026C339.916 -162.772 336.777 -168.25 332.81 -173.059C325.419 -182.019 315.161 -188.452 303.428 -189.394C292.799 -190.247 281.453 -186.896 274.339 -178.633C270.693 -174.398 268.577 -169.124 266.134 -164.165C263.7 -159.224 260.717 -153.776 255.287 -151.677C248.644 -149.108 241.612 -152.695 236.308 -156.586C230.405 -160.915 225.355 -166.259 220.488 -171.693C211.977 -181.195 203.644 -191.164 192.136 -197.159C181.992 -202.444 170.443 -203.347 160.13 -198.006C139.854 -187.507 130.912 -162.045 108.255 -155.129C97.6607 -151.895 86.3407 -153.367 75.6507 -155.298C64.8929 -157.241 54.1453 -159.912 43.1572 -160.044C32.5191 -160.171 22.082 -157.292 13.8877 -150.292C5.46022 -143.093 0.309337 -132.879 -2.862 -122.42C-6.42387 -110.674 -7.48229 -98.4287 -7.70106 -86.2103C-7.97319 -71.013 -6.98488 -55.8111 -5.10895 -40.733C-1.37287 -10.705 5.59392 19.0137 13.9303 48.0754C22.3963 77.5896 33.2241 106.694 49.286 132.984C62.7328 154.993 80.0264 174.767 101.084 189.788C121.343 204.239 144.925 213.948 169.84 216.003C197.307 218.268 224.645 211.824 250.213 202.211C262.96 197.418 275.379 191.804 287.623 185.853C288.556 185.4 288.005 183.868 287.063 184.326C262.319 196.352 236.555 207.246 209.352 212.183C183.218 216.926 156.506 215.279 131.826 205.094C108.922 195.643 88.7798 180.133 72.3906 161.672C53.3551 140.231 39.5329 114.685 29.0628 88.1185C17.9014 59.7982 10.0281 30.0816 3.63438 0.35347C-2.57767 -28.5303 -6.72333 -58.0315 -6.05415 -87.6355C-5.55024 -109.931 -1.73982 -138.026 18.3328 -151.641C37.4325 -164.597 61.2339 -155.588 81.8974 -152.624C92.0092 -151.174 102.631 -150.874 112.249 -154.827C122.412 -159.003 130.126 -167.224 137.332 -175.231C144.703 -183.421 152.15 -192.666 162.42 -197.323C174.069 -202.606 186.495 -199.467 196.709 -192.534C207.742 -185.045 215.609 -174.139 224.789 -164.667C232.116 -157.106 243.898 -145.835 255.561 -150.046C265.809 -153.746 268.101 -166.651 273.482 -174.797C280.074 -184.777 292.564 -188.927 304.115 -187.704C316.698 -186.371 327.222 -178.584 334.308 -168.382C337.935 -163.161 340.699 -157.373 342.699 -151.347C344.486 -145.962 345.344 -140.28 347.602 -135.051C349.345 -131.013 352.067 -127.091 356.478 -125.779C362.31 -124.045 367.712 -127.63 372.533 -130.442C382.771 -136.415 394.823 -138.132 406.436 -136.02C417.89 -133.936 428.851 -128.228 436.633 -119.495C441.52 -114.01 445.767 -107.894 450.463 -102.236C455.023 -96.7414 459.525 -91.2673 463.016 -85.0057C470.543 -71.507 471.715 -56.3857 471.464 -41.214C471.215 -26.1664 469.282 -11.2113 467.471 3.70877C465.553 19.5002 463.635 35.2915 461.718 51.0829C459.868 66.3186 458.428 81.6729 456.053 96.8366C453.996 109.974 449.081 124.713 435.728 130.281C425.883 134.388 416.573 129.94 409.085 123.47C396.423 112.53 382.877 92.2562 363.433 100.962C351.706 106.213 345.452 118.111 340.883 129.435C338.348 135.718 336.051 142.13 332.779 148.083C329.441 154.159 324.95 159.511 319.78 164.111C310.147 172.679 298.575 178.712 287.062 184.326C286.131 184.78 286.681 186.312 287.623 185.853Z" fill="white"/>
<path d="M291.15 200.865C303.898 194.65 316.738 187.976 327.321 178.385C332.217 173.948 336.55 168.923 339.965 163.255C343.883 156.753 346.523 149.606 349.319 142.579C354.566 129.389 362.098 113.719 377.191 109.853C388.12 107.054 397.592 113.189 405.283 120.295C412.465 126.931 418.781 134.762 427.128 140.021C436.3 145.801 447.106 146.162 456.219 139.883C467.958 131.794 472.097 117.681 474.087 104.273C476.594 87.3789 478.286 70.3311 480.345 53.3763C482.463 35.9304 484.584 18.4848 486.7 1.03874C488.616 -14.7538 490.493 -30.6037 490.511 -46.5352C490.529 -62.1736 488.835 -77.3723 481.093 -91.2315C477.172 -98.2497 472.079 -104.335 466.977 -110.503C461.931 -116.605 457.396 -123.272 452.026 -129.085C435.885 -146.556 407.975 -153.087 386.168 -142.956C380.024 -140.101 373.452 -133.827 366.196 -135.55C360.059 -137.008 357.314 -143.641 355.617 -149.059C353.669 -155.276 352.428 -161.607 349.906 -167.651C347.332 -173.823 343.959 -179.706 339.698 -184.872C331.762 -194.493 320.749 -201.396 308.151 -202.407C296.747 -203.322 284.571 -199.726 276.939 -190.86C273.022 -186.311 270.75 -180.646 268.126 -175.32C265.502 -169.993 262.285 -164.126 256.432 -161.863C249.269 -159.094 241.689 -162.956 235.969 -167.151C229.619 -171.809 224.187 -177.557 218.952 -183.403C209.81 -193.61 200.858 -204.32 188.497 -210.759C177.609 -216.432 165.215 -217.404 154.144 -211.672C132.343 -200.385 122.735 -173.012 98.372 -165.575C86.9723 -162.096 74.7938 -163.676 63.2906 -165.754C51.7315 -167.842 40.1825 -170.714 28.3759 -170.855C16.9493 -170.992 5.74335 -167.902 -3.05838 -160.383C-12.1047 -152.655 -17.6356 -141.686 -21.0397 -130.46C-24.867 -117.838 -26.0058 -104.68 -26.2408 -91.55C-26.5333 -75.213 -25.471 -58.8708 -23.4543 -42.6621C-19.4387 -10.3875 -11.9509 21.5546 -2.99072 52.7909C6.10884 84.5133 17.7457 115.797 35.0092 144.053C49.462 167.709 68.048 188.961 90.6809 205.106C112.451 220.635 137.793 231.066 164.566 233.274C194.081 235.708 223.46 228.781 250.935 218.45C264.637 213.298 277.989 207.263 291.15 200.865C292.083 200.412 291.532 198.88 290.59 199.338C263.985 212.27 236.284 223.98 207.035 229.289C178.93 234.389 150.204 232.615 123.664 221.663C99.0324 211.498 77.3725 194.817 59.7471 174.964C39.2806 151.911 24.4194 124.443 13.1622 95.8792C1.16161 65.4297 -7.30244 33.479 -14.1768 1.51601C-20.8548 -29.5342 -25.3112 -61.2479 -24.592 -93.072C-24.0497 -117.061 -19.9481 -147.283 1.64942 -161.933C22.1996 -175.872 47.7942 -166.189 70.0276 -163C80.8874 -161.442 92.2946 -161.12 102.624 -165.365C113.538 -169.849 121.823 -178.682 129.562 -187.28C137.494 -196.094 145.507 -206.037 156.557 -211.049C169.101 -216.737 182.481 -213.354 193.478 -205.89C205.338 -197.839 213.795 -186.115 223.664 -175.933C231.522 -167.824 244.171 -155.707 256.684 -160.225C267.683 -164.197 270.147 -178.072 275.923 -186.815C283.022 -197.561 296.473 -202.028 308.911 -200.71C322.453 -199.276 333.782 -190.893 341.408 -179.915C345.309 -174.298 348.284 -168.071 350.436 -161.587C352.357 -155.799 353.28 -149.691 355.706 -144.069C357.572 -139.747 360.486 -135.543 365.209 -134.139C371.457 -132.281 377.25 -136.131 382.414 -139.143C393.434 -145.573 406.406 -147.424 418.906 -145.15C431.236 -142.907 443.031 -136.762 451.407 -127.361C456.66 -121.465 461.226 -114.89 466.274 -108.808C471.176 -102.901 476.016 -97.0164 479.769 -90.285C487.866 -75.7636 489.132 -59.5006 488.861 -43.1787C488.594 -26.9972 486.516 -10.9154 484.567 5.12912C482.506 22.1049 480.445 39.0806 478.383 56.0562C476.395 72.4345 474.846 88.9404 472.294 105.241C470.078 119.388 464.782 135.245 450.406 141.241C439.801 145.664 429.77 140.878 421.704 133.908C408.113 122.165 393.562 100.377 372.688 109.723C360.098 115.36 353.386 128.143 348.482 140.299C345.756 147.054 343.286 153.946 339.77 160.346C336.176 166.887 331.342 172.648 325.775 177.6C315.417 186.815 302.971 193.302 290.59 199.339C289.658 199.793 290.209 201.325 291.15 200.865Z" fill="white"/>
<path d="M294.678 215.877C308.311 209.23 322.041 202.092 333.358 191.836C338.588 187.096 343.218 181.726 346.867 175.672C351.058 168.717 353.882 161.071 356.872 153.554C362.491 139.43 370.561 122.656 386.721 118.515C398.434 115.514 408.585 122.078 416.828 129.695C424.507 136.79 431.261 145.167 440.185 150.79C449.981 156.962 461.515 157.354 471.249 150.647C483.795 142.003 488.214 126.918 490.341 112.59C493.023 94.5163 494.833 76.2791 497.036 58.1415C499.302 39.4785 501.57 20.8158 503.834 2.15251C505.883 -14.737 507.891 -31.6876 507.911 -48.7258C507.93 -65.4439 506.122 -81.6955 497.845 -96.5122C493.651 -104.02 488.202 -110.53 482.745 -117.128C477.347 -123.656 472.496 -130.789 466.751 -137.006C449.498 -155.677 419.669 -162.652 396.364 -151.825C389.778 -148.765 382.748 -142.053 374.969 -143.9C368.381 -145.464 365.431 -152.57 363.608 -158.387C361.524 -165.038 360.197 -171.811 357.499 -178.277C354.747 -184.874 351.141 -191.163 346.586 -196.685C338.105 -206.967 326.336 -214.341 312.874 -215.421C300.695 -216.399 287.689 -212.556 279.538 -203.089C275.352 -198.226 272.924 -192.17 270.118 -186.476C267.304 -180.763 263.853 -174.478 257.576 -172.052C249.893 -169.082 241.766 -173.218 235.631 -177.718C228.833 -182.703 223.02 -188.857 217.415 -195.115C207.643 -206.026 198.073 -217.477 184.859 -224.361C173.226 -230.421 159.987 -231.463 148.159 -225.339C124.833 -213.263 114.559 -183.981 88.489 -176.023C76.2839 -172.297 63.2468 -173.986 50.9307 -176.211C38.5704 -178.444 26.2198 -181.516 13.5948 -181.668C1.37988 -181.814 -10.5951 -178.513 -20.0042 -170.475C-29.6693 -162.219 -35.5802 -150.495 -39.2172 -138.501C-43.3101 -125.003 -44.5291 -110.931 -44.7806 -96.8907C-45.0935 -79.4138 -43.957 -61.9315 -41.7995 -44.592C-37.5044 -10.0706 -29.4953 24.0948 -19.9115 57.5055C-10.1786 91.4361 2.26717 124.898 20.7324 155.121C36.1909 180.424 56.0693 203.154 80.2776 220.423C103.559 237.03 130.66 248.182 159.291 250.544C190.855 253.148 222.274 245.736 251.656 234.688C266.315 229.176 280.598 222.721 294.678 215.877C295.61 215.424 295.06 213.892 294.117 214.35C265.651 228.186 236.013 240.714 204.718 246.393C174.643 251.851 143.902 249.95 115.502 238.23C89.1426 227.352 65.9652 209.5 47.1037 188.255C25.2061 163.59 9.30585 134.199 -2.73845 103.639C-15.5782 71.0605 -24.6331 36.8757 -31.988 2.67755C-39.1319 -30.5388 -43.8993 -64.4651 -43.1297 -98.5096C-42.5492 -124.193 -38.1563 -156.541 -15.0341 -172.225C6.96668 -187.149 34.3543 -176.791 58.1576 -173.377C69.7655 -171.712 81.9577 -171.367 92.9989 -175.904C104.664 -180.697 113.52 -190.141 121.791 -199.331C130.285 -208.768 138.863 -219.409 150.695 -224.775C164.132 -230.869 178.467 -227.242 190.247 -219.247C202.935 -210.635 211.982 -198.093 222.539 -187.2C230.928 -178.543 244.445 -165.581 257.807 -170.406C269.556 -174.648 272.193 -189.494 278.364 -198.833C285.971 -210.346 300.382 -215.129 313.707 -213.718C328.208 -212.182 340.342 -203.205 348.508 -191.448C352.684 -185.436 355.869 -178.77 358.173 -171.829C360.228 -165.637 361.214 -159.102 363.81 -153.089C365.799 -148.481 368.905 -143.996 373.94 -142.5C380.605 -140.519 386.788 -144.633 392.295 -147.846C404.098 -154.731 417.988 -156.717 431.377 -154.281C444.582 -151.878 457.21 -145.296 466.181 -135.228C471.801 -128.921 476.685 -121.887 482.085 -115.381C487.33 -109.062 492.507 -102.767 496.522 -95.5657C505.189 -80.0215 506.548 -62.6168 506.259 -45.1446C505.972 -27.8292 503.75 -10.6205 501.665 6.54816C499.46 24.7082 497.254 42.8683 495.049 61.0284C492.922 78.5493 491.266 96.2066 488.535 113.645C486.161 128.8 480.482 145.777 465.083 152.199C453.721 156.938 442.967 151.814 434.323 144.346C419.802 131.799 404.247 108.496 381.943 118.482C368.49 124.506 361.32 138.174 356.08 151.162C353.165 158.389 350.522 165.761 346.761 172.608C342.911 179.615 337.734 185.783 331.771 191.087C320.686 200.948 307.367 207.89 294.118 214.35C293.186 214.804 293.736 216.336 294.678 215.877Z" fill="white"/>
<path d="M298.205 230.89C312.724 223.81 327.342 216.208 339.396 205.287C344.96 200.245 349.887 194.53 353.768 188.09C358.233 180.681 361.241 172.536 364.426 164.529C370.417 149.47 379.023 131.593 396.252 127.178C408.748 123.975 419.578 130.968 428.374 139.096C436.55 146.65 443.741 155.571 453.243 161.559C463.661 168.124 475.926 168.546 486.279 161.412C499.632 152.212 504.332 136.156 506.595 120.906C509.452 101.654 511.38 82.2278 513.726 62.9073C516.14 43.0271 518.557 23.1472 520.968 3.26692C523.15 -14.7194 525.289 -32.771 525.309 -50.9158C525.33 -68.7136 523.409 -86.0181 514.597 -101.792C510.13 -109.79 504.326 -116.724 498.512 -123.753C492.762 -130.706 487.596 -138.305 481.475 -144.927C463.11 -164.798 431.362 -172.217 406.559 -160.693C399.531 -157.428 392.043 -150.279 383.741 -152.249C376.703 -153.919 373.547 -161.499 371.599 -167.715C369.379 -174.8 367.965 -182.015 365.092 -188.902C362.162 -195.926 358.323 -202.619 353.473 -208.498C344.447 -219.441 331.923 -227.285 317.597 -228.435C304.643 -229.474 290.806 -225.386 282.137 -215.316C277.681 -210.14 275.096 -203.693 272.11 -197.632C269.105 -191.533 265.421 -184.83 258.72 -182.24C250.518 -179.069 241.842 -183.479 235.291 -188.284C228.047 -193.597 221.852 -200.156 215.879 -206.825C205.476 -218.44 195.287 -230.633 181.22 -237.962C168.843 -244.41 154.76 -245.52 142.174 -239.005C117.323 -226.141 106.383 -194.948 78.606 -186.469C65.5953 -182.498 51.6997 -184.296 38.5706 -186.668C25.409 -189.045 12.2568 -192.318 -1.1865 -192.479C-14.1897 -192.635 -26.9339 -189.123 -36.9502 -180.567C-47.2342 -171.781 -53.525 -159.303 -57.3948 -146.541C-61.7533 -132.167 -63.0526 -117.183 -63.3202 -102.231C-63.6535 -83.614 -62.4428 -64.9917 -60.1448 -46.5213C-55.5702 -9.75285 -47.0401 26.6359 -36.8326 62.221C-26.4662 98.3596 -13.2116 134 6.45532 166.19C22.9203 193.139 44.091 217.348 69.875 235.74C94.6679 253.426 123.527 265.3 154.017 267.815C187.63 270.587 221.089 262.692 252.378 250.928C267.993 245.056 283.207 238.18 298.205 230.89C299.138 230.436 298.587 228.904 297.645 229.362C267.318 244.103 235.742 257.448 202.401 263.499C170.356 269.314 137.601 267.286 107.341 254.798C79.2532 243.207 54.5582 224.184 34.4604 201.547C11.1321 175.27 -5.80727 143.957 -18.6387 111.4C-32.3175 76.692 -41.9633 40.2731 -49.799 3.83995C-57.4087 -31.5426 -62.4871 -67.6814 -61.6673 -103.946C-61.0484 -131.324 -56.3642 -165.799 -31.7173 -182.517C-8.26616 -198.424 20.9148 -187.392 46.2879 -183.753C58.6438 -181.98 71.621 -181.613 83.3738 -186.442C95.7909 -191.545 105.217 -201.599 114.021 -211.382C123.076 -221.442 132.219 -232.781 144.832 -238.501C159.164 -245 174.453 -241.13 187.016 -232.603C200.531 -223.429 210.168 -210.069 221.413 -198.466C230.333 -189.261 244.718 -175.454 258.93 -180.586C271.429 -185.099 274.239 -200.915 280.805 -210.851C288.919 -223.13 304.291 -228.23 318.503 -226.725C333.962 -225.087 346.901 -215.515 355.607 -202.982C360.058 -196.574 363.454 -189.468 365.909 -182.07C368.098 -175.475 369.149 -168.514 371.914 -162.108C374.026 -157.216 377.323 -152.449 382.671 -150.86C389.752 -148.757 396.326 -153.135 402.176 -156.548C414.762 -163.89 429.57 -166.009 443.847 -163.412C457.928 -160.85 471.389 -153.831 480.955 -143.095C486.941 -136.376 492.144 -128.884 497.896 -121.954C503.483 -115.222 508.997 -108.517 513.274 -100.846C522.512 -84.279 523.964 -65.7326 523.656 -47.1101C523.35 -28.6608 520.983 -10.3254 518.761 7.96773C516.412 27.3121 514.063 46.6565 511.714 66.0009C509.448 84.6646 507.684 103.473 504.775 122.049C502.244 138.213 496.182 156.31 479.76 163.158C467.639 168.213 456.163 162.751 446.942 154.783C431.491 141.433 414.932 116.616 391.198 127.242C376.882 133.653 369.255 148.205 363.678 162.026C360.573 169.724 357.758 177.577 353.751 184.87C349.645 192.343 344.126 198.919 337.767 204.576C325.955 215.083 311.762 222.479 297.645 229.362C296.713 229.817 297.264 231.349 298.205 230.89Z" fill="white"/>
<path d="M301.733 245.901C317.136 238.391 332.645 230.324 345.434 218.737C351.332 213.394 356.555 207.334 360.669 200.507C365.407 192.645 368.6 184.001 371.98 175.504C378.343 159.51 387.486 140.53 405.782 135.84C419.062 132.436 430.571 139.857 439.92 148.496C448.594 156.51 456.222 165.975 466.301 172.328C477.341 179.287 490.337 179.737 501.31 172.177C515.47 162.42 520.449 145.393 522.849 129.223C525.881 108.792 527.928 88.176 530.417 67.6727C532.979 46.5755 535.544 25.4785 538.103 4.38098C540.418 -14.7023 542.688 -33.8548 542.71 -53.1061C542.731 -71.9836 540.697 -90.341 531.351 -107.072C526.61 -115.559 520.45 -122.918 514.281 -130.378C508.179 -137.756 502.696 -145.821 496.2 -152.848C476.724 -173.919 443.057 -181.781 416.756 -169.562C409.285 -166.091 401.34 -158.506 392.514 -160.599C385.026 -162.375 381.664 -170.427 379.591 -177.043C377.235 -184.562 375.735 -192.218 372.686 -199.527C369.578 -206.977 365.506 -214.076 360.362 -220.312C350.791 -231.915 337.511 -240.23 322.32 -241.449C308.592 -242.551 293.924 -238.216 284.737 -227.544C280.01 -222.054 277.27 -215.217 274.103 -208.788C270.908 -202.303 266.989 -195.181 259.865 -192.428C251.143 -189.056 241.919 -193.741 234.953 -198.85C227.262 -204.491 220.685 -211.456 214.343 -218.536C203.309 -230.856 192.502 -243.79 177.582 -251.563C164.461 -258.398 149.533 -259.578 136.189 -252.672C109.813 -239.02 98.2075 -205.916 68.7234 -196.916C54.9072 -192.699 40.1532 -194.606 26.2109 -197.124C12.248 -199.647 -1.70559 -203.12 -15.9674 -203.291C-29.759 -203.457 -43.2723 -199.734 -53.8959 -190.658C-64.7987 -181.345 -71.4695 -168.111 -75.5722 -154.581C-80.1964 -139.331 -81.5759 -123.434 -81.8599 -107.571C-82.2135 -87.8146 -80.9288 -68.052 -78.4901 -48.4508C-73.6364 -9.43562 -64.5851 29.1764 -53.7538 66.936C-42.754 105.283 -28.6903 143.102 -7.82169 177.259C9.64938 205.855 32.1124 231.541 59.4719 251.057C85.7761 269.821 116.395 282.417 148.742 285.085C184.404 288.026 219.904 279.648 253.1 267.166C269.671 260.936 285.816 253.638 301.733 245.901C302.665 245.448 302.115 243.916 301.172 244.374C268.984 260.019 235.472 274.181 200.084 280.603C166.069 286.776 131.3 284.621 99.179 271.366C69.3634 259.062 43.151 238.868 21.817 214.838C-2.9426 186.949 -20.921 153.715 -34.5395 119.16C-49.0575 82.3229 -59.294 43.67 -67.6104 5.00201C-75.686 -32.5468 -81.0754 -70.8982 -80.2055 -109.383C-79.5483 -138.455 -74.5728 -175.056 -48.4012 -192.809C-23.4996 -209.7 7.47464 -197.993 34.4176 -194.129C47.5216 -192.249 61.2837 -191.858 73.748 -196.98C86.9168 -202.392 96.9136 -213.057 106.251 -223.432C115.866 -234.115 125.575 -246.152 138.969 -252.226C154.195 -259.131 170.439 -255.017 183.784 -245.959C198.127 -236.223 208.354 -222.046 220.288 -209.732C229.739 -199.98 244.991 -185.327 260.052 -190.765C273.301 -195.55 276.285 -212.337 283.245 -222.868C291.867 -235.915 308.199 -241.331 323.299 -239.732C339.717 -237.992 353.461 -227.825 362.706 -214.515C367.432 -207.711 371.039 -200.166 373.645 -192.311C375.968 -185.312 377.084 -177.925 380.018 -171.127C382.25 -165.956 385.742 -160.892 391.401 -159.22C398.906 -157.004 405.856 -161.632 412.057 -165.25C425.425 -173.048 441.152 -175.301 456.317 -172.542C471.273 -169.821 485.568 -162.364 495.728 -150.962C502.081 -143.831 507.602 -135.881 513.706 -128.526C519.635 -121.382 525.487 -114.266 530.026 -106.126C539.835 -88.5362 541.38 -68.8481 541.053 -49.0753C540.729 -29.4921 538.216 -10.03 535.858 9.38745C533.365 29.9161 530.873 50.445 528.38 70.9737C525.975 90.78 524.103 110.74 521.016 130.453C518.327 147.625 511.882 166.842 494.437 174.117C481.558 179.489 469.36 173.688 459.561 165.221C443.18 151.067 425.617 124.735 400.453 136.002C385.273 142.799 377.188 158.237 371.277 172.89C367.981 181.059 364.994 189.393 360.741 197.133C356.38 205.071 350.517 212.056 343.762 218.065C331.224 229.218 316.157 237.068 301.172 244.375C300.241 244.829 300.791 246.36 301.733 245.901Z" fill="white"/>
</g>
</g>
<defs>
<clipPath id="clip0_68_11383">
<rect width="230" height="230" rx="115" fill="white"/>
</clipPath>
</defs>
</svg>
